%TF.GenerationSoftware,KiCad,Pcbnew,8.0.3*%
%TF.CreationDate,2024-10-06T17:07:34+07:00*%
%TF.ProjectId,Power_Supply,506f7765-725f-4537-9570-706c792e6b69,rev?*%
%TF.SameCoordinates,Original*%
%TF.FileFunction,Paste,Bot*%
%TF.FilePolarity,Positive*%
%FSLAX46Y46*%
G04 Gerber Fmt 4.6, Leading zero omitted, Abs format (unit mm)*
G04 Created by KiCad (PCBNEW 8.0.3) date 2024-10-06 17:07:34*
%MOMM*%
%LPD*%
G01*
G04 APERTURE LIST*
G04 Aperture macros list*
%AMRoundRect*
0 Rectangle with rounded corners*
0 $1 Rounding radius*
0 $2 $3 $4 $5 $6 $7 $8 $9 X,Y pos of 4 corners*
0 Add a 4 corners polygon primitive as box body*
4,1,4,$2,$3,$4,$5,$6,$7,$8,$9,$2,$3,0*
0 Add four circle primitives for the rounded corners*
1,1,$1+$1,$2,$3*
1,1,$1+$1,$4,$5*
1,1,$1+$1,$6,$7*
1,1,$1+$1,$8,$9*
0 Add four rect primitives between the rounded corners*
20,1,$1+$1,$2,$3,$4,$5,0*
20,1,$1+$1,$4,$5,$6,$7,0*
20,1,$1+$1,$6,$7,$8,$9,0*
20,1,$1+$1,$8,$9,$2,$3,0*%
G04 Aperture macros list end*
%ADD10RoundRect,0.225219X0.236481X0.423981X-0.236481X0.423981X-0.236481X-0.423981X0.236481X-0.423981X0*%
%ADD11RoundRect,0.234125X-0.515075X1.465075X-0.515075X-1.465075X0.515075X-1.465075X0.515075X1.465075X0*%
%ADD12RoundRect,0.207128X0.402072X-0.647072X0.402072X0.647072X-0.402072X0.647072X-0.402072X-0.647072X0*%
%ADD13RoundRect,0.170600X0.244100X-0.170600X0.244100X0.170600X-0.244100X0.170600X-0.244100X-0.170600X0*%
%ADD14RoundRect,0.174600X0.249600X-0.174600X0.249600X0.174600X-0.249600X0.174600X-0.249600X-0.174600X0*%
%ADD15RoundRect,0.227913X0.296287X0.621287X-0.296287X0.621287X-0.296287X-0.621287X0.296287X-0.621287X0*%
%ADD16RoundRect,0.170600X-0.244100X0.170600X-0.244100X-0.170600X0.244100X-0.170600X0.244100X0.170600X0*%
%ADD17RoundRect,0.174600X-0.249600X0.174600X-0.249600X-0.174600X0.249600X-0.174600X0.249600X0.174600X0*%
%ADD18RoundRect,0.207128X0.647072X0.402072X-0.647072X0.402072X-0.647072X-0.402072X0.647072X-0.402072X0*%
%ADD19RoundRect,0.170600X-0.170600X-0.244100X0.170600X-0.244100X0.170600X0.244100X-0.170600X0.244100X0*%
%ADD20RoundRect,0.174600X-0.174600X-0.249600X0.174600X-0.249600X0.174600X0.249600X-0.174600X0.249600X0*%
%ADD21RoundRect,0.225219X0.423981X-0.236481X0.423981X0.236481X-0.423981X0.236481X-0.423981X-0.236481X0*%
%ADD22RoundRect,0.170600X0.170600X0.244100X-0.170600X0.244100X-0.170600X-0.244100X0.170600X-0.244100X0*%
%ADD23RoundRect,0.174600X0.174600X0.249600X-0.174600X0.249600X-0.174600X-0.249600X0.174600X-0.249600X0*%
%ADD24RoundRect,0.230462X0.368738X0.593738X-0.368738X0.593738X-0.368738X-0.593738X0.368738X-0.593738X0*%
%ADD25RoundRect,0.207128X-0.402072X0.647072X-0.402072X-0.647072X0.402072X-0.647072X0.402072X0.647072X0*%
%ADD26R,2.298400X2.398400*%
%ADD27RoundRect,0.233344X-1.040856X0.478356X-1.040856X-0.478356X1.040856X-0.478356X1.040856X0.478356X0*%
%ADD28RoundRect,0.225219X-0.423981X0.236481X-0.423981X-0.236481X0.423981X-0.236481X0.423981X0.236481X0*%
%ADD29RoundRect,0.227913X0.621287X-0.296287X0.621287X0.296287X-0.621287X0.296287X-0.621287X-0.296287X0*%
%ADD30R,0.431800X1.066800*%
%ADD31R,1.348400X0.798401*%
%ADD32R,1.348400X3.048399*%
%ADD33RoundRect,0.230462X0.593738X-0.368738X0.593738X0.368738X-0.593738X0.368738X-0.593738X-0.368738X0*%
%ADD34RoundRect,0.233344X1.040856X-0.478356X1.040856X0.478356X-1.040856X0.478356X-1.040856X-0.478356X0*%
G04 APERTURE END LIST*
D10*
%TO.C,R10*%
X151638236Y-82247400D03*
X149813236Y-82247400D03*
%TD*%
D11*
%TO.C,C11*%
X137830200Y-73897000D03*
X137830200Y-79497000D03*
%TD*%
D12*
%TO.C,C17*%
X129287700Y-35542000D03*
X129287700Y-32942000D03*
%TD*%
D13*
%TO.C,R23*%
X63120000Y-50890000D03*
D14*
X63120000Y-49240000D03*
%TD*%
D15*
%TO.C,C8*%
X152729100Y-85352800D03*
X149779100Y-85352800D03*
%TD*%
D16*
%TO.C,R3*%
X145650400Y-85484000D03*
D17*
X145650400Y-87134000D03*
%TD*%
D13*
%TO.C,R24*%
X65180000Y-85010000D03*
D14*
X65180000Y-83360000D03*
%TD*%
D18*
%TO.C,C20*%
X140325200Y-41234500D03*
X137725200Y-41234500D03*
%TD*%
D19*
%TO.C,R12*%
X145407200Y-58356800D03*
D20*
X147057200Y-58356800D03*
%TD*%
D21*
%TO.C,R13*%
X137059800Y-58295036D03*
X137059800Y-56470036D03*
%TD*%
D18*
%TO.C,C30*%
X75035200Y-45719500D03*
X72435200Y-45719500D03*
%TD*%
D22*
%TO.C,R26*%
X61233200Y-41087200D03*
D23*
X59583200Y-41087200D03*
%TD*%
D24*
%TO.C,R11*%
X147020200Y-53777000D03*
X143920200Y-53777000D03*
%TD*%
D13*
%TO.C,R25*%
X63120000Y-54780000D03*
D14*
X63120000Y-53130000D03*
%TD*%
D19*
%TO.C,R4*%
X151070200Y-91387000D03*
D20*
X152720200Y-91387000D03*
%TD*%
D25*
%TO.C,C31*%
X59072700Y-35962000D03*
X59072700Y-38562000D03*
%TD*%
D13*
%TO.C,R22*%
X63150000Y-47100000D03*
D14*
X63150000Y-45450000D03*
%TD*%
D13*
%TO.C,R32*%
X63620000Y-85050000D03*
D14*
X63620000Y-83400000D03*
%TD*%
D26*
%TO.C,C9*%
X154530200Y-82242200D03*
X154530200Y-77771800D03*
%TD*%
D22*
%TO.C,R29*%
X61233200Y-42937200D03*
D23*
X59583200Y-42937200D03*
%TD*%
D27*
%TO.C,R1*%
X138948950Y-85457000D03*
X138948950Y-90132000D03*
%TD*%
D13*
%TO.C,R31*%
X64580000Y-72960000D03*
D14*
X64580000Y-71310000D03*
%TD*%
D25*
%TO.C,C32*%
X61692700Y-35972000D03*
X61692700Y-38572000D03*
%TD*%
D28*
%TO.C,R14*%
X139420600Y-56458964D03*
X139420600Y-58283964D03*
%TD*%
D19*
%TO.C,R5*%
X147840200Y-91387000D03*
D20*
X149490200Y-91387000D03*
%TD*%
D29*
%TO.C,C15*%
X141464400Y-63425900D03*
X141464400Y-60475900D03*
%TD*%
D30*
%TO.C,U4*%
X143360201Y-58343000D03*
X141460199Y-58343000D03*
X142410200Y-56311000D03*
%TD*%
D31*
%TO.C,U8*%
X70172191Y-33656588D03*
X70172191Y-35956588D03*
X70172191Y-38256588D03*
D32*
X64022191Y-35956588D03*
%TD*%
D18*
%TO.C,C19*%
X140355200Y-38624500D03*
X137755200Y-38624500D03*
%TD*%
D33*
%TO.C,R8*%
X125220200Y-115077000D03*
X125220200Y-111977000D03*
%TD*%
D13*
%TO.C,R27*%
X63090000Y-62310000D03*
D14*
X63090000Y-60660000D03*
%TD*%
D34*
%TO.C,R2*%
X142638950Y-90159500D03*
X142638950Y-85484500D03*
%TD*%
D18*
%TO.C,C29*%
X75055200Y-43069500D03*
X72455200Y-43069500D03*
%TD*%
D13*
%TO.C,R30*%
X62980000Y-72950000D03*
D14*
X62980000Y-71300000D03*
%TD*%
D12*
%TO.C,C18*%
X131767700Y-35542000D03*
X131767700Y-32942000D03*
%TD*%
M02*
