%TF.GenerationSoftware,KiCad,Pcbnew,8.0.3*%
%TF.CreationDate,2024-10-06T17:07:34+07:00*%
%TF.ProjectId,Power_Supply,506f7765-725f-4537-9570-706c792e6b69,rev?*%
%TF.SameCoordinates,Original*%
%TF.FileFunction,Paste,Top*%
%TF.FilePolarity,Positive*%
%FSLAX46Y46*%
G04 Gerber Fmt 4.6, Leading zero omitted, Abs format (unit mm)*
G04 Created by KiCad (PCBNEW 8.0.3) date 2024-10-06 17:07:34*
%MOMM*%
%LPD*%
G01*
G04 APERTURE LIST*
G04 Aperture macros list*
%AMRoundRect*
0 Rectangle with rounded corners*
0 $1 Rounding radius*
0 $2 $3 $4 $5 $6 $7 $8 $9 X,Y pos of 4 corners*
0 Add a 4 corners polygon primitive as box body*
4,1,4,$2,$3,$4,$5,$6,$7,$8,$9,$2,$3,0*
0 Add four circle primitives for the rounded corners*
1,1,$1+$1,$2,$3*
1,1,$1+$1,$4,$5*
1,1,$1+$1,$6,$7*
1,1,$1+$1,$8,$9*
0 Add four rect primitives between the rounded corners*
20,1,$1+$1,$2,$3,$4,$5,0*
20,1,$1+$1,$4,$5,$6,$7,0*
20,1,$1+$1,$6,$7,$8,$9,0*
20,1,$1+$1,$8,$9,$2,$3,0*%
G04 Aperture macros list end*
%ADD10RoundRect,0.218350X-0.430850X0.218350X-0.430850X-0.218350X0.430850X-0.218350X0.430850X0.218350X0*%
%ADD11RoundRect,0.170600X-0.244100X0.170600X-0.244100X-0.170600X0.244100X-0.170600X0.244100X0.170600X0*%
%ADD12RoundRect,0.174600X-0.249600X0.174600X-0.249600X-0.174600X0.249600X-0.174600X0.249600X0.174600X0*%
%ADD13RoundRect,0.239840X-1.909360X-0.959360X1.909360X-0.959360X1.909360X0.959360X-1.909360X0.959360X0*%
%ADD14R,3.098400X1.898400*%
%ADD15RoundRect,0.234125X1.465075X0.515075X-1.465075X0.515075X-1.465075X-0.515075X1.465075X-0.515075X0*%
%ADD16RoundRect,0.199600X-0.224600X0.199600X-0.224600X-0.199600X0.224600X-0.199600X0.224600X0.199600X0*%
%ADD17RoundRect,0.207128X0.402072X-0.647072X0.402072X0.647072X-0.402072X0.647072X-0.402072X-0.647072X0*%
%ADD18R,1.358900X0.431800*%
%ADD19RoundRect,0.170600X-0.170600X-0.244100X0.170600X-0.244100X0.170600X0.244100X-0.170600X0.244100X0*%
%ADD20RoundRect,0.174600X-0.174600X-0.249600X0.174600X-0.249600X0.174600X0.249600X-0.174600X0.249600X0*%
%ADD21RoundRect,0.218350X0.430850X-0.218350X0.430850X0.218350X-0.430850X0.218350X-0.430850X-0.218350X0*%
%ADD22RoundRect,0.207128X0.647072X0.402072X-0.647072X0.402072X-0.647072X-0.402072X0.647072X-0.402072X0*%
%ADD23RoundRect,0.170600X0.244100X-0.170600X0.244100X0.170600X-0.244100X0.170600X-0.244100X-0.170600X0*%
%ADD24RoundRect,0.174600X0.249600X-0.174600X0.249600X0.174600X-0.249600X0.174600X-0.249600X-0.174600X0*%
%ADD25RoundRect,0.207128X-0.402072X0.647072X-0.402072X-0.647072X0.402072X-0.647072X0.402072X0.647072X0*%
%ADD26RoundRect,0.228383X-0.445817X0.308317X-0.445817X-0.308317X0.445817X-0.308317X0.445817X0.308317X0*%
%ADD27RoundRect,0.207128X-0.647072X-0.402072X0.647072X-0.402072X0.647072X0.402072X-0.647072X0.402072X0*%
%ADD28R,1.398400X2.648400*%
%ADD29R,0.431800X1.358900*%
%ADD30RoundRect,0.234125X-0.515075X1.465075X-0.515075X-1.465075X0.515075X-1.465075X0.515075X1.465075X0*%
%ADD31R,0.798401X1.348400*%
%ADD32R,3.048399X1.348400*%
%ADD33RoundRect,0.170600X0.170600X0.244100X-0.170600X0.244100X-0.170600X-0.244100X0.170600X-0.244100X0*%
%ADD34RoundRect,0.174600X0.174600X0.249600X-0.174600X0.249600X-0.174600X-0.249600X0.174600X-0.249600X0*%
%ADD35RoundRect,0.199600X0.224600X-0.199600X0.224600X0.199600X-0.224600X0.199600X-0.224600X-0.199600X0*%
%ADD36RoundRect,0.235889X0.963311X0.613311X-0.963311X0.613311X-0.963311X-0.613311X0.963311X-0.613311X0*%
G04 APERTURE END LIST*
D10*
%TO.C,9V*%
X60070200Y-86189500D03*
X60070200Y-88064500D03*
%TD*%
D11*
%TO.C,R21*%
X69080000Y-46434000D03*
D12*
X69080000Y-48084000D03*
%TD*%
D13*
%TO.C,C27*%
X155170200Y-43937000D03*
X163570200Y-43937000D03*
%TD*%
D14*
%TO.C,L1*%
X75460200Y-51043200D03*
X75460200Y-58843200D03*
%TD*%
D15*
%TO.C,C16*%
X122820200Y-35497000D03*
X117220200Y-35497000D03*
%TD*%
D16*
%TO.C,C49*%
X69820200Y-37512000D03*
X69820200Y-39062000D03*
%TD*%
D10*
%TO.C,-9V*%
X60320200Y-52939500D03*
X60320200Y-54814500D03*
%TD*%
D17*
%TO.C,C36*%
X86422700Y-71692000D03*
X86422700Y-69092000D03*
%TD*%
D16*
%TO.C,C46*%
X74260200Y-35052000D03*
X74260200Y-36602000D03*
%TD*%
D18*
%TO.C,U7*%
X83616050Y-59932000D03*
X83616050Y-61202000D03*
X83616050Y-62472000D03*
X83616050Y-63742000D03*
X89064350Y-63742000D03*
X89064350Y-62472000D03*
X89064350Y-61202000D03*
X89064350Y-59932000D03*
%TD*%
D19*
%TO.C,R16*%
X71197200Y-36587200D03*
D20*
X72847200Y-36587200D03*
%TD*%
D21*
%TO.C,12V*%
X60320200Y-47064500D03*
X60320200Y-45189500D03*
%TD*%
D22*
%TO.C,C33*%
X75545200Y-63124500D03*
X72945200Y-63124500D03*
%TD*%
D21*
%TO.C,3V3*%
X60170200Y-80527000D03*
X60170200Y-78652000D03*
%TD*%
D23*
%TO.C,R20*%
X67520400Y-48100000D03*
D24*
X67520400Y-46450000D03*
%TD*%
D17*
%TO.C,C44*%
X86350612Y-92915009D03*
X86350612Y-90315009D03*
%TD*%
D21*
%TO.C,3V3*%
X60270200Y-62314500D03*
X60270200Y-60439500D03*
%TD*%
%TO.C,3V3*%
X60170200Y-76614500D03*
X60170200Y-74739500D03*
%TD*%
%TO.C,5V*%
X60220200Y-72964500D03*
X60220200Y-71089500D03*
%TD*%
D19*
%TO.C,R18*%
X68237200Y-43567200D03*
D20*
X69887200Y-43567200D03*
%TD*%
D25*
%TO.C,C38*%
X70347700Y-80692000D03*
X70347700Y-83292000D03*
%TD*%
%TO.C,C42*%
X70297700Y-90592000D03*
X70297700Y-93192000D03*
%TD*%
D17*
%TO.C,C40*%
X86392700Y-83242000D03*
X86392700Y-80642000D03*
%TD*%
D26*
%TO.C,C45*%
X76061000Y-34510100D03*
X76061000Y-36585100D03*
%TD*%
D17*
%TO.C,C39*%
X83622700Y-83232000D03*
X83622700Y-80632000D03*
%TD*%
D27*
%TO.C,C24*%
X86465200Y-66129500D03*
X89065200Y-66129500D03*
%TD*%
D28*
%TO.C,U3*%
X147800200Y-61577000D03*
X145260200Y-61577000D03*
X145260200Y-69447000D03*
X147800200Y-69447000D03*
%TD*%
D26*
%TO.C,C52*%
X66900200Y-49640100D03*
X66900200Y-51715100D03*
%TD*%
%TO.C,C51*%
X68890200Y-49630100D03*
X68890200Y-51705100D03*
%TD*%
D21*
%TO.C,9V*%
X60320200Y-50864500D03*
X60320200Y-48989500D03*
%TD*%
D29*
%TO.C,U11*%
X75520200Y-39117000D03*
X74250200Y-39117000D03*
X72980200Y-39117000D03*
X71710200Y-39117000D03*
X71710200Y-44565300D03*
X72980200Y-44565300D03*
X74250200Y-44565300D03*
X75520200Y-44565300D03*
%TD*%
D27*
%TO.C,C23*%
X86499350Y-55754500D03*
X89099350Y-55754500D03*
%TD*%
D21*
%TO.C,7V*%
X63920200Y-40527000D03*
X63920200Y-38652000D03*
%TD*%
D30*
%TO.C,C28*%
X150750200Y-52127000D03*
X150750200Y-57727000D03*
%TD*%
D31*
%TO.C,U9*%
X80152700Y-68982000D03*
X77852700Y-68982000D03*
X75552700Y-68982000D03*
D32*
X77852700Y-75132000D03*
%TD*%
D31*
%TO.C,U10*%
X80090612Y-90585009D03*
X77790612Y-90585009D03*
X75490612Y-90585009D03*
D32*
X77790612Y-96735009D03*
%TD*%
D22*
%TO.C,C34*%
X75515200Y-65874500D03*
X72915200Y-65874500D03*
%TD*%
D31*
%TO.C,U2*%
X80110612Y-80665009D03*
X77810612Y-80665009D03*
X75510612Y-80665009D03*
D32*
X77810612Y-86815009D03*
%TD*%
D33*
%TO.C,R17*%
X72803200Y-35076800D03*
D34*
X71153200Y-35076800D03*
%TD*%
D17*
%TO.C,C35*%
X83552700Y-71682000D03*
X83552700Y-69082000D03*
%TD*%
D16*
%TO.C,C50*%
X77260200Y-41332000D03*
X77260200Y-42882000D03*
%TD*%
D35*
%TO.C,C47*%
X69840200Y-42102000D03*
X69840200Y-40552000D03*
%TD*%
D36*
%TO.C,D4*%
X71517700Y-47667000D03*
X75517700Y-47667000D03*
%TD*%
D17*
%TO.C,C43*%
X83680612Y-92965009D03*
X83680612Y-90365009D03*
%TD*%
D25*
%TO.C,C37*%
X72770200Y-80717000D03*
X72770200Y-83317000D03*
%TD*%
D11*
%TO.C,R19*%
X65890000Y-46444000D03*
D12*
X65890000Y-48094000D03*
%TD*%
D18*
%TO.C,U6*%
X83650200Y-49567000D03*
X83650200Y-50837000D03*
X83650200Y-52107000D03*
X83650200Y-53377000D03*
X89098500Y-53377000D03*
X89098500Y-52107000D03*
X89098500Y-50837000D03*
X89098500Y-49567000D03*
%TD*%
D19*
%TO.C,R28*%
X68247200Y-45057200D03*
D20*
X69897200Y-45057200D03*
%TD*%
D25*
%TO.C,C41*%
X72752700Y-90602000D03*
X72752700Y-93202000D03*
%TD*%
D21*
%TO.C,5V*%
X63970200Y-36764500D03*
X63970200Y-34889500D03*
%TD*%
D25*
%TO.C,C21*%
X81191850Y-50807000D03*
X81191850Y-53407000D03*
%TD*%
D35*
%TO.C,C48*%
X68360200Y-42102000D03*
X68360200Y-40552000D03*
%TD*%
D25*
%TO.C,C22*%
X81127700Y-61222000D03*
X81127700Y-63822000D03*
%TD*%
M02*
