%TF.GenerationSoftware,KiCad,Pcbnew,8.0.3*%
%TF.CreationDate,2024-10-06T17:07:47+07:00*%
%TF.ProjectId,Power_Supply,506f7765-725f-4537-9570-706c792e6b69,rev?*%
%TF.SameCoordinates,Original*%
%TF.FileFunction,Plated,1,2,PTH,Drill*%
%TF.FilePolarity,Positive*%
%FSLAX46Y46*%
G04 Gerber Fmt 4.6, Leading zero omitted, Abs format (unit mm)*
G04 Created by KiCad (PCBNEW 8.0.3) date 2024-10-06 17:07:47*
%MOMM*%
%LPD*%
G01*
G04 APERTURE LIST*
%TA.AperFunction,ViaDrill*%
%ADD10C,0.400000*%
%TD*%
%TA.AperFunction,ComponentDrill*%
%ADD11C,0.762000*%
%TD*%
%TA.AperFunction,ComponentDrill*%
%ADD12C,0.800000*%
%TD*%
%TA.AperFunction,ComponentDrill*%
%ADD13C,0.889000*%
%TD*%
%TA.AperFunction,ComponentDrill*%
%ADD14C,0.900000*%
%TD*%
%TA.AperFunction,ComponentDrill*%
%ADD15C,1.000000*%
%TD*%
%TA.AperFunction,ComponentDrill*%
%ADD16C,1.050000*%
%TD*%
%TA.AperFunction,ComponentDrill*%
%ADD17C,1.100000*%
%TD*%
%TA.AperFunction,ComponentDrill*%
%ADD18C,1.117600*%
%TD*%
%TA.AperFunction,ComponentDrill*%
%ADD19C,1.200000*%
%TD*%
%TA.AperFunction,ComponentDrill*%
%ADD20C,1.250000*%
%TD*%
%TA.AperFunction,ComponentDrill*%
%ADD21C,1.400000*%
%TD*%
%TA.AperFunction,ComponentDrill*%
%ADD22C,1.600000*%
%TD*%
%TA.AperFunction,ComponentDrill*%
%ADD23C,1.900000*%
%TD*%
G04 APERTURE END LIST*
D10*
X60330200Y-82367000D03*
X61680200Y-50890000D03*
X61850200Y-47097000D03*
X61850200Y-72967000D03*
X61870200Y-62317000D03*
X62350200Y-41027000D03*
X62550200Y-42917000D03*
X63970200Y-88097000D03*
X64600200Y-74127000D03*
X64880200Y-54787000D03*
X65420200Y-49637000D03*
X66470200Y-38297000D03*
X67000200Y-45067000D03*
X68490200Y-33657000D03*
X71500200Y-93192000D03*
X71560200Y-83292000D03*
X77800200Y-33857000D03*
X79124200Y-34767000D03*
X80100200Y-88767000D03*
X80140200Y-33751000D03*
X81610200Y-33287000D03*
X86390200Y-85347000D03*
X86420200Y-73527000D03*
X86440200Y-48887000D03*
X87660200Y-67957000D03*
X87980200Y-92917000D03*
X89090200Y-58177000D03*
X91380200Y-57027000D03*
X94370200Y-48257000D03*
X111485200Y-37072000D03*
X117220200Y-32237000D03*
X126590200Y-35557000D03*
X129290200Y-38027000D03*
X132660200Y-51537000D03*
X133430200Y-41267000D03*
X135230200Y-38667000D03*
X137059800Y-52237000D03*
X139420600Y-52147000D03*
X142130200Y-41127000D03*
X142140200Y-36647000D03*
X142150200Y-38977000D03*
X142160200Y-39997000D03*
X142170200Y-34527000D03*
X142170200Y-35517000D03*
X142180200Y-37847000D03*
X143230200Y-41167000D03*
X143260200Y-38977000D03*
X143260200Y-40037000D03*
X143290200Y-36657000D03*
X143290200Y-37847000D03*
X143320200Y-34537000D03*
X143320200Y-35527000D03*
X143440200Y-61567000D03*
X145260200Y-71667000D03*
X145410200Y-59517000D03*
X149510200Y-61577000D03*
X155090200Y-104987000D03*
X155090200Y-105957000D03*
X155090200Y-106967000D03*
X155090200Y-108017000D03*
X155090200Y-108877000D03*
X159770200Y-104947000D03*
X159770200Y-105917000D03*
X159770200Y-106927000D03*
X159770200Y-107977000D03*
X159780200Y-108877000D03*
D11*
%TO.C,U1*%
X147857200Y-80020000D03*
X147857200Y-83576000D03*
X147857200Y-85354000D03*
X147857200Y-87132000D03*
X147857200Y-88910000D03*
X158017200Y-80020000D03*
X158017200Y-81798000D03*
X158017200Y-83576000D03*
X158017200Y-85354000D03*
X158017200Y-87132000D03*
X158017200Y-88910000D03*
D12*
%TO.C,C10*%
X80170200Y-37197000D03*
X80170200Y-42197000D03*
%TO.C,C7*%
X91050200Y-76957000D03*
X91050200Y-81957000D03*
%TO.C,C25*%
X91090200Y-69077000D03*
X91090200Y-74077000D03*
%TO.C,C2*%
X103320200Y-124377000D03*
X103320200Y-129377000D03*
%TO.C,C3*%
X107970200Y-124277000D03*
X107970200Y-129277000D03*
%TO.C,C26*%
X145530200Y-47357000D03*
X150530200Y-47357000D03*
D13*
%TO.C,D3*%
X137830200Y-61237000D03*
X137830200Y-70137160D03*
D14*
%TO.C,D2*%
X119239200Y-104477000D03*
X132701200Y-104477000D03*
D15*
%TO.C,F1*%
X68194800Y-99515800D03*
X68220200Y-126414400D03*
%TO.C,C12*%
X103710200Y-37347000D03*
X103710200Y-44847000D03*
%TO.C,L2*%
X117800200Y-44767000D03*
X122800200Y-44767000D03*
%TO.C,L3*%
X161250200Y-53387000D03*
X161250200Y-58387000D03*
D16*
%TO.C,TH1*%
X114970200Y-124527000D03*
X122470200Y-124527000D03*
D17*
%TO.C,RV1*%
X74920200Y-126427000D03*
X79920200Y-126427000D03*
%TO.C,U5*%
X135260200Y-35552000D03*
X137800200Y-35552000D03*
X140340200Y-35552000D03*
D18*
%TO.C,CR2*%
X85170200Y-39467000D03*
X90250200Y-39467000D03*
%TO.C,CR3*%
X147160200Y-35023100D03*
X152240200Y-35023100D03*
D19*
%TO.C,J3*%
X55050200Y-71897000D03*
X55050200Y-75707000D03*
X55050200Y-79517000D03*
X55050200Y-83327000D03*
X55050200Y-87137000D03*
X55050200Y-90947000D03*
%TO.C,J2*%
X55060200Y-46097000D03*
X55060200Y-49907000D03*
X55060200Y-53717000D03*
X55060200Y-57527000D03*
X55060200Y-61337000D03*
X55060200Y-65147000D03*
%TO.C,J4*%
X55072700Y-35982000D03*
X55072700Y-39482000D03*
%TO.C,C1*%
X77618300Y-102064000D03*
X77618300Y-117063800D03*
%TO.C,R9*%
X78911500Y-45948300D03*
%TO.C,FL1*%
X86625600Y-102011600D03*
X86625600Y-122311600D03*
%TO.C,R9*%
X91611500Y-45948300D03*
%TO.C,FL1*%
X96825600Y-102011600D03*
X96825600Y-122311600D03*
%TO.C,C4*%
X106168300Y-98564000D03*
X106168300Y-113563800D03*
%TO.C,R7*%
X113610200Y-98077000D03*
%TO.C,C6*%
X117507200Y-111878900D03*
%TO.C,R7*%
X121230200Y-98077000D03*
%TO.C,R6*%
X126860200Y-98077000D03*
%TO.C,R15*%
X129478900Y-47345700D03*
%TO.C,C6*%
X132507000Y-111878900D03*
%TO.C,R6*%
X134480200Y-98077000D03*
%TO.C,R15*%
X142178900Y-47345700D03*
%TO.C,C5*%
X157500200Y-99167000D03*
X157500200Y-106667000D03*
D20*
%TO.C,T1*%
X96365600Y-55123600D03*
X96365600Y-90123600D03*
X101365600Y-55123600D03*
X101365600Y-90123600D03*
X106365600Y-55123600D03*
X106365600Y-90123600D03*
X111365600Y-55123600D03*
X111365600Y-90123600D03*
X116365600Y-55123600D03*
X116365600Y-90123600D03*
X121365600Y-55123600D03*
X121365600Y-90123600D03*
X126365600Y-55123600D03*
X126365600Y-90123600D03*
X131365600Y-55123600D03*
X131365600Y-90123600D03*
D21*
%TO.C,D1*%
X132172700Y-125979500D03*
X137252700Y-125979500D03*
X142332700Y-125979500D03*
X147412700Y-125979500D03*
D22*
%TO.C,CR1*%
X142140200Y-94247000D03*
X142140200Y-114307000D03*
D23*
%TO.C,J1*%
X59732800Y-104287002D03*
X59732800Y-113787000D03*
X59732800Y-123286999D03*
M02*
