%TF.GenerationSoftware,KiCad,Pcbnew,8.0.4*%
%TF.CreationDate,2024-10-07T13:18:05+07:00*%
%TF.ProjectId,Power_Supply,506f7765-725f-4537-9570-706c792e6b69,rev?*%
%TF.SameCoordinates,Original*%
%TF.FileFunction,Legend,Bot*%
%TF.FilePolarity,Positive*%
%FSLAX46Y46*%
G04 Gerber Fmt 4.6, Leading zero omitted, Abs format (unit mm)*
G04 Created by KiCad (PCBNEW 8.0.4) date 2024-10-07 13:18:05*
%MOMM*%
%LPD*%
G01*
G04 APERTURE LIST*
%ADD10C,1.000000*%
%ADD11C,0.700000*%
%ADD12C,0.300000*%
%ADD13C,0.152400*%
%ADD14C,0.150000*%
%ADD15C,0.120000*%
%ADD16C,0.127000*%
%ADD17C,0.200000*%
%ADD18C,0.250000*%
G04 APERTURE END LIST*
D10*
X54081438Y-122717474D02*
X54081438Y-124050808D01*
X56176676Y-124622236D02*
X56176676Y-122717474D01*
X56176676Y-122717474D02*
X52176676Y-122717474D01*
X52176676Y-122717474D02*
X52176676Y-124622236D01*
G36*
X60858608Y-110873331D02*
G01*
X58480172Y-110873331D01*
X58480172Y-108508830D01*
X58980172Y-108508830D01*
X58982299Y-108544273D01*
X58980172Y-108579718D01*
X58986192Y-108609138D01*
X58987992Y-108639121D01*
X58999222Y-108672812D01*
X59006340Y-108707594D01*
X59027903Y-108758856D01*
X59029268Y-108762949D01*
X59030252Y-108764440D01*
X59031700Y-108767881D01*
X59300849Y-109306179D01*
X59258462Y-109390952D01*
X59125361Y-109524055D01*
X59082238Y-109573228D01*
X59016974Y-109686266D01*
X58983191Y-109812345D01*
X58983191Y-109942871D01*
X59016974Y-110068950D01*
X59082238Y-110181988D01*
X59174534Y-110274284D01*
X59287572Y-110339548D01*
X59413651Y-110373331D01*
X59544177Y-110373331D01*
X59670256Y-110339548D01*
X59783294Y-110274284D01*
X59832467Y-110231161D01*
X60022944Y-110040685D01*
X60066066Y-109991512D01*
X60073596Y-109978469D01*
X60083591Y-109967198D01*
X60116604Y-109910738D01*
X60307080Y-109529785D01*
X60308526Y-109526347D01*
X60309512Y-109524854D01*
X60310877Y-109520757D01*
X60332440Y-109469499D01*
X60339557Y-109434717D01*
X60350788Y-109401026D01*
X60352587Y-109371043D01*
X60358608Y-109341623D01*
X60356480Y-109306178D01*
X60358608Y-109270734D01*
X60352587Y-109241313D01*
X60350788Y-109211331D01*
X60339557Y-109177639D01*
X60332440Y-109142858D01*
X60310877Y-109091599D01*
X60309512Y-109087503D01*
X60308526Y-109086010D01*
X60307080Y-109082572D01*
X60037931Y-108544273D01*
X60080317Y-108459501D01*
X60213420Y-108326399D01*
X60256542Y-108277226D01*
X60321806Y-108164187D01*
X60355589Y-108038109D01*
X60355589Y-107907583D01*
X60321806Y-107781504D01*
X60256542Y-107668465D01*
X60164247Y-107576170D01*
X60051208Y-107510906D01*
X59925129Y-107477123D01*
X59794603Y-107477123D01*
X59668525Y-107510906D01*
X59555486Y-107576170D01*
X59506313Y-107619292D01*
X59315837Y-107809769D01*
X59272714Y-107858942D01*
X59265183Y-107871985D01*
X59255189Y-107883256D01*
X59222176Y-107939715D01*
X59031700Y-108320667D01*
X59030253Y-108324105D01*
X59029268Y-108325598D01*
X59027902Y-108329694D01*
X59006340Y-108380953D01*
X58999222Y-108415734D01*
X58987992Y-108449426D01*
X58986192Y-108479409D01*
X58980172Y-108508830D01*
X58480172Y-108508830D01*
X58480172Y-106977123D01*
X60858608Y-106977123D01*
X60858608Y-110873331D01*
G37*
D11*
G36*
X85250044Y-81869988D02*
G01*
X85294315Y-81914259D01*
X85393083Y-82210563D01*
X85393083Y-82803768D01*
X84521654Y-82803768D01*
X84521654Y-82093534D01*
X84602160Y-81932521D01*
X84664693Y-81869989D01*
X84825708Y-81789482D01*
X85089030Y-81789482D01*
X85250044Y-81869988D01*
G37*
G36*
X86678615Y-82012846D02*
G01*
X86741146Y-82075377D01*
X86821654Y-82236393D01*
X86821654Y-82803768D01*
X86093083Y-82803768D01*
X86093083Y-82236393D01*
X86173590Y-82075378D01*
X86236123Y-82012844D01*
X86397136Y-81932339D01*
X86517601Y-81932339D01*
X86678615Y-82012846D01*
G37*
G36*
X86064857Y-79582339D02*
G01*
X85378797Y-79811025D01*
X85378797Y-79353652D01*
X86064857Y-79582339D01*
G37*
G36*
X86478065Y-61341141D02*
G01*
X86678615Y-61441417D01*
X86741146Y-61503949D01*
X86821654Y-61664964D01*
X86821654Y-61785429D01*
X86741147Y-61946442D01*
X86678616Y-62008974D01*
X86478064Y-62109250D01*
X85985710Y-62232339D01*
X85357599Y-62232339D01*
X84865245Y-62109250D01*
X84664693Y-62008974D01*
X84602160Y-61946442D01*
X84521654Y-61785429D01*
X84521654Y-61664963D01*
X84602161Y-61503949D01*
X84664694Y-61441416D01*
X84865242Y-61341141D01*
X85357599Y-61218053D01*
X85985710Y-61218053D01*
X86478065Y-61341141D01*
G37*
G36*
X87871654Y-91425197D02*
G01*
X83471654Y-91425197D01*
X83471654Y-90679513D01*
X83824648Y-90679513D01*
X83824648Y-90770881D01*
X83848296Y-90859136D01*
X83893980Y-90938264D01*
X83958587Y-91002871D01*
X84037715Y-91048555D01*
X84125970Y-91072203D01*
X84171654Y-91075197D01*
X87171654Y-91075197D01*
X87217338Y-91072203D01*
X87305593Y-91048555D01*
X87384721Y-91002871D01*
X87449328Y-90938264D01*
X87495012Y-90859136D01*
X87518660Y-90770881D01*
X87521654Y-90725197D01*
X87521654Y-89296625D01*
X87518660Y-89250941D01*
X87495012Y-89162686D01*
X87449328Y-89083558D01*
X87384721Y-89018951D01*
X87305593Y-88973267D01*
X87217338Y-88949619D01*
X87125970Y-88949619D01*
X87037715Y-88973267D01*
X86958587Y-89018951D01*
X86893980Y-89083558D01*
X86848296Y-89162686D01*
X86824648Y-89250941D01*
X86821654Y-89296625D01*
X86821654Y-90375197D01*
X86093083Y-90375197D01*
X86093083Y-89725197D01*
X86090089Y-89679513D01*
X86066441Y-89591258D01*
X86020757Y-89512130D01*
X85956150Y-89447523D01*
X85877022Y-89401839D01*
X85788767Y-89378191D01*
X85697399Y-89378191D01*
X85609144Y-89401839D01*
X85530016Y-89447523D01*
X85465409Y-89512130D01*
X85419725Y-89591258D01*
X85396077Y-89679513D01*
X85393083Y-89725197D01*
X85393083Y-90375197D01*
X84171654Y-90375197D01*
X84125970Y-90378191D01*
X84037715Y-90401839D01*
X83958587Y-90447523D01*
X83893980Y-90512130D01*
X83848296Y-90591258D01*
X83824648Y-90679513D01*
X83471654Y-90679513D01*
X83471654Y-86725196D01*
X83821654Y-86725196D01*
X83821654Y-88153768D01*
X83824648Y-88199452D01*
X83848296Y-88287707D01*
X83893980Y-88366835D01*
X83958587Y-88431442D01*
X84037715Y-88477126D01*
X84125970Y-88500774D01*
X84171654Y-88503768D01*
X87171654Y-88503768D01*
X87217338Y-88500774D01*
X87305593Y-88477126D01*
X87384721Y-88431442D01*
X87449328Y-88366835D01*
X87495012Y-88287707D01*
X87518660Y-88199452D01*
X87518660Y-88108084D01*
X87495012Y-88019829D01*
X87449328Y-87940701D01*
X87384721Y-87876094D01*
X87305593Y-87830410D01*
X87217338Y-87806762D01*
X87171654Y-87803768D01*
X84521654Y-87803768D01*
X84521654Y-86725196D01*
X84518660Y-86679512D01*
X84495012Y-86591257D01*
X84449328Y-86512129D01*
X84384721Y-86447522D01*
X84305593Y-86401838D01*
X84217338Y-86378190D01*
X84125970Y-86378190D01*
X84037715Y-86401838D01*
X83958587Y-86447522D01*
X83893980Y-86512129D01*
X83848296Y-86591257D01*
X83824648Y-86679512D01*
X83821654Y-86725196D01*
X83471654Y-86725196D01*
X83471654Y-85108084D01*
X83824648Y-85108084D01*
X83824648Y-85199452D01*
X83848296Y-85287707D01*
X83893980Y-85366835D01*
X83958587Y-85431442D01*
X84037715Y-85477126D01*
X84125970Y-85500774D01*
X84171654Y-85503768D01*
X85498307Y-85503768D01*
X86983748Y-86449050D01*
X87023897Y-86471050D01*
X87111050Y-86498481D01*
X87202334Y-86502421D01*
X87291527Y-86482601D01*
X87372550Y-86440370D01*
X87439883Y-86378609D01*
X87488936Y-86301525D01*
X87516367Y-86214372D01*
X87520308Y-86123088D01*
X87500487Y-86033896D01*
X87458256Y-85952872D01*
X87396495Y-85885539D01*
X87359561Y-85858487D01*
X86252145Y-85153768D01*
X87359561Y-84449049D01*
X87396495Y-84421997D01*
X87458256Y-84354664D01*
X87500487Y-84273640D01*
X87520308Y-84184448D01*
X87516367Y-84093164D01*
X87488936Y-84006011D01*
X87439883Y-83928927D01*
X87372550Y-83867166D01*
X87291527Y-83824935D01*
X87202334Y-83805115D01*
X87111050Y-83809055D01*
X87023897Y-83836486D01*
X86983748Y-83858486D01*
X85498307Y-84803768D01*
X84171654Y-84803768D01*
X84125970Y-84806762D01*
X84037715Y-84830410D01*
X83958587Y-84876094D01*
X83893980Y-84940701D01*
X83848296Y-85019829D01*
X83824648Y-85108084D01*
X83471654Y-85108084D01*
X83471654Y-82010911D01*
X83821654Y-82010911D01*
X83821654Y-83153768D01*
X83824648Y-83199452D01*
X83848296Y-83287707D01*
X83893980Y-83366835D01*
X83958587Y-83431442D01*
X84037715Y-83477126D01*
X84125970Y-83500774D01*
X84171654Y-83503768D01*
X87171654Y-83503768D01*
X87217338Y-83500774D01*
X87305593Y-83477126D01*
X87384721Y-83431442D01*
X87449328Y-83366835D01*
X87495012Y-83287707D01*
X87518660Y-83199452D01*
X87521654Y-83153768D01*
X87521654Y-82153768D01*
X87520417Y-82134898D01*
X87520774Y-82128957D01*
X87519676Y-82123593D01*
X87518660Y-82108084D01*
X87509529Y-82074008D01*
X87502456Y-82039443D01*
X87496427Y-82025112D01*
X87495012Y-82019829D01*
X87492038Y-82014679D01*
X87484704Y-81997243D01*
X87341847Y-81711529D01*
X87318738Y-81672007D01*
X87311741Y-81664117D01*
X87306471Y-81654988D01*
X87276285Y-81620567D01*
X87133428Y-81477709D01*
X87099008Y-81447523D01*
X87089876Y-81442250D01*
X87081987Y-81435255D01*
X87042465Y-81412146D01*
X86756751Y-81269289D01*
X86739314Y-81261954D01*
X86734165Y-81258981D01*
X86728881Y-81257565D01*
X86714551Y-81251537D01*
X86679985Y-81244463D01*
X86645910Y-81235333D01*
X86630400Y-81234316D01*
X86625037Y-81233219D01*
X86619095Y-81233575D01*
X86600226Y-81232339D01*
X86314512Y-81232339D01*
X86295642Y-81233575D01*
X86289701Y-81233219D01*
X86284337Y-81234316D01*
X86268828Y-81235333D01*
X86234750Y-81244464D01*
X86200188Y-81251537D01*
X86185859Y-81257564D01*
X86180573Y-81258981D01*
X86175420Y-81261955D01*
X86157988Y-81269289D01*
X85872273Y-81412146D01*
X85832751Y-81435255D01*
X85824863Y-81442249D01*
X85816869Y-81446864D01*
X85704856Y-81334852D01*
X85670436Y-81304665D01*
X85661304Y-81299392D01*
X85653416Y-81292398D01*
X85613893Y-81269289D01*
X85328178Y-81126432D01*
X85310745Y-81119098D01*
X85305593Y-81116124D01*
X85300306Y-81114707D01*
X85285978Y-81108680D01*
X85251415Y-81101607D01*
X85217338Y-81092476D01*
X85201828Y-81091459D01*
X85196465Y-81090362D01*
X85190523Y-81090718D01*
X85171654Y-81089482D01*
X84743083Y-81089482D01*
X84724213Y-81090718D01*
X84718272Y-81090362D01*
X84712908Y-81091459D01*
X84697399Y-81092476D01*
X84663323Y-81101606D01*
X84628758Y-81108680D01*
X84614427Y-81114708D01*
X84609144Y-81116124D01*
X84603994Y-81119097D01*
X84586558Y-81126432D01*
X84300844Y-81269289D01*
X84261322Y-81292398D01*
X84253434Y-81299392D01*
X84244302Y-81304665D01*
X84209881Y-81334852D01*
X84067025Y-81477709D01*
X84036838Y-81512129D01*
X84031565Y-81521260D01*
X84024571Y-81529149D01*
X84001463Y-81568671D01*
X83858605Y-81854386D01*
X83851271Y-81871818D01*
X83848296Y-81876972D01*
X83846879Y-81882257D01*
X83840852Y-81896586D01*
X83833779Y-81931146D01*
X83824648Y-81965227D01*
X83823631Y-81980742D01*
X83822535Y-81986099D01*
X83822891Y-81992033D01*
X83821654Y-82010911D01*
X83471654Y-82010911D01*
X83471654Y-78607150D01*
X83822534Y-78607150D01*
X83840852Y-78696664D01*
X83881713Y-78778386D01*
X83942334Y-78846748D01*
X84018581Y-78897091D01*
X84060974Y-78914378D01*
X84678797Y-79120318D01*
X84678797Y-80044359D01*
X84060974Y-80250300D01*
X84018581Y-80267587D01*
X83942334Y-80317930D01*
X83881713Y-80386292D01*
X83840852Y-80468014D01*
X83822534Y-80557528D01*
X83828009Y-80648732D01*
X83856902Y-80735412D01*
X83907245Y-80811659D01*
X83975607Y-80872280D01*
X84057329Y-80913141D01*
X84146843Y-80931459D01*
X84238047Y-80925984D01*
X84282334Y-80914378D01*
X87282334Y-79914378D01*
X87284751Y-79913392D01*
X87285979Y-79913141D01*
X87288682Y-79911789D01*
X87324727Y-79897091D01*
X87345469Y-79883395D01*
X87367701Y-79872280D01*
X87383430Y-79858331D01*
X87400975Y-79846748D01*
X87417467Y-79828149D01*
X87436063Y-79811660D01*
X87447645Y-79794118D01*
X87461596Y-79778386D01*
X87472712Y-79756152D01*
X87486407Y-79735412D01*
X87493054Y-79715468D01*
X87502457Y-79696664D01*
X87507440Y-79672312D01*
X87515300Y-79648732D01*
X87516559Y-79627745D01*
X87520774Y-79607150D01*
X87519284Y-79582339D01*
X87520774Y-79557528D01*
X87516559Y-79536932D01*
X87515300Y-79515946D01*
X87507440Y-79492365D01*
X87502457Y-79468014D01*
X87493054Y-79449209D01*
X87486407Y-79429266D01*
X87472712Y-79408525D01*
X87461596Y-79386292D01*
X87447645Y-79370559D01*
X87436063Y-79353018D01*
X87417467Y-79336528D01*
X87400975Y-79317930D01*
X87383430Y-79306346D01*
X87367701Y-79292398D01*
X87345469Y-79281282D01*
X87324727Y-79267587D01*
X87288682Y-79252888D01*
X87285979Y-79251537D01*
X87284751Y-79251285D01*
X87282334Y-79250300D01*
X84282334Y-78250300D01*
X84238047Y-78238694D01*
X84146843Y-78233219D01*
X84057329Y-78251537D01*
X83975607Y-78292398D01*
X83907245Y-78353019D01*
X83856902Y-78429266D01*
X83828009Y-78515946D01*
X83822534Y-78607150D01*
X83471654Y-78607150D01*
X83471654Y-76439482D01*
X83821654Y-76439482D01*
X83821654Y-76725196D01*
X83824648Y-76770880D01*
X83827377Y-76781065D01*
X83828009Y-76791590D01*
X83839615Y-76835876D01*
X83982473Y-77264448D01*
X83989614Y-77281961D01*
X83991154Y-77287706D01*
X83993889Y-77292443D01*
X83999760Y-77306840D01*
X84019200Y-77336284D01*
X84036838Y-77366833D01*
X84047086Y-77378519D01*
X84050103Y-77383088D01*
X84054555Y-77387036D01*
X84067024Y-77401254D01*
X84352738Y-77686969D01*
X84387158Y-77717155D01*
X84396289Y-77722427D01*
X84404179Y-77729423D01*
X84443701Y-77752532D01*
X84729415Y-77895389D01*
X84752120Y-77904940D01*
X84757459Y-77907904D01*
X84764648Y-77910210D01*
X84771615Y-77913141D01*
X84777604Y-77914366D01*
X84801053Y-77921889D01*
X85372481Y-78064746D01*
X85407738Y-78071144D01*
X85411685Y-78072202D01*
X85414627Y-78072394D01*
X85417527Y-78072921D01*
X85421608Y-78072852D01*
X85457369Y-78075196D01*
X85885940Y-78075196D01*
X85921700Y-78072852D01*
X85925781Y-78072921D01*
X85928679Y-78072394D01*
X85931624Y-78072202D01*
X85935572Y-78071144D01*
X85970827Y-78064746D01*
X86542256Y-77921889D01*
X86565704Y-77914366D01*
X86571694Y-77913141D01*
X86578660Y-77910210D01*
X86585850Y-77907904D01*
X86591188Y-77904940D01*
X86613894Y-77895389D01*
X86899608Y-77752532D01*
X86939130Y-77729423D01*
X86947020Y-77722425D01*
X86956150Y-77717155D01*
X86990571Y-77686969D01*
X87276285Y-77401254D01*
X87288758Y-77387030D01*
X87293206Y-77383087D01*
X87296218Y-77378524D01*
X87306471Y-77366834D01*
X87324112Y-77336276D01*
X87343549Y-77306840D01*
X87349419Y-77292444D01*
X87352155Y-77287706D01*
X87353694Y-77281959D01*
X87360836Y-77264447D01*
X87503693Y-76835876D01*
X87515299Y-76791590D01*
X87515930Y-76781066D01*
X87518660Y-76770880D01*
X87521654Y-76725196D01*
X87521654Y-76439482D01*
X87518660Y-76393798D01*
X87515930Y-76383611D01*
X87515299Y-76373089D01*
X87503693Y-76328802D01*
X87360836Y-75900231D01*
X87353696Y-75882722D01*
X87352155Y-75876970D01*
X87349416Y-75872226D01*
X87343549Y-75857838D01*
X87324117Y-75828407D01*
X87306471Y-75797843D01*
X87296218Y-75786152D01*
X87293206Y-75781590D01*
X87288758Y-75777645D01*
X87276284Y-75763422D01*
X87133427Y-75620566D01*
X87099007Y-75590379D01*
X87019879Y-75544695D01*
X86931624Y-75521047D01*
X86840256Y-75521047D01*
X86752001Y-75544695D01*
X86672873Y-75590379D01*
X86608266Y-75654986D01*
X86562582Y-75734114D01*
X86538934Y-75822369D01*
X86538934Y-75913737D01*
X86562582Y-76001992D01*
X86608266Y-76081120D01*
X86638453Y-76115540D01*
X86722886Y-76199973D01*
X86821654Y-76496277D01*
X86821654Y-76668399D01*
X86722885Y-76964703D01*
X86535757Y-77151832D01*
X86335207Y-77252107D01*
X85842853Y-77375196D01*
X85500456Y-77375196D01*
X85008102Y-77252107D01*
X84807551Y-77151832D01*
X84620422Y-76964703D01*
X84521654Y-76668398D01*
X84521654Y-76496279D01*
X84620423Y-76199973D01*
X84704856Y-76115541D01*
X84735043Y-76081120D01*
X84780727Y-76001993D01*
X84804375Y-75913737D01*
X84804375Y-75822369D01*
X84780727Y-75734114D01*
X84735043Y-75654986D01*
X84670436Y-75590379D01*
X84591308Y-75544695D01*
X84503053Y-75521047D01*
X84411685Y-75521047D01*
X84323429Y-75544695D01*
X84244302Y-75590379D01*
X84209881Y-75620566D01*
X84067025Y-75763423D01*
X84054556Y-75777639D01*
X84050103Y-75781589D01*
X84047087Y-75786156D01*
X84036838Y-75797843D01*
X84019197Y-75828396D01*
X83999760Y-75857837D01*
X83993889Y-75872232D01*
X83991154Y-75876971D01*
X83989614Y-75882717D01*
X83982473Y-75900230D01*
X83839615Y-76328802D01*
X83828009Y-76373088D01*
X83827377Y-76383612D01*
X83824648Y-76393798D01*
X83821654Y-76439482D01*
X83471654Y-76439482D01*
X83471654Y-72871902D01*
X83821675Y-72871902D01*
X83834596Y-72962352D01*
X83870488Y-73046376D01*
X83926903Y-73118247D01*
X83961654Y-73148053D01*
X85353098Y-74191635D01*
X85312395Y-74232339D01*
X84171654Y-74232339D01*
X84125970Y-74235333D01*
X84037715Y-74258981D01*
X83958587Y-74304665D01*
X83893980Y-74369272D01*
X83848296Y-74448400D01*
X83824648Y-74536655D01*
X83824648Y-74628023D01*
X83848296Y-74716278D01*
X83893980Y-74795406D01*
X83958587Y-74860013D01*
X84037715Y-74905697D01*
X84125970Y-74929345D01*
X84171654Y-74932339D01*
X87171654Y-74932339D01*
X87217338Y-74929345D01*
X87305593Y-74905697D01*
X87384721Y-74860013D01*
X87449328Y-74795406D01*
X87495012Y-74716278D01*
X87518660Y-74628023D01*
X87518660Y-74536655D01*
X87495012Y-74448400D01*
X87449328Y-74369272D01*
X87384721Y-74304665D01*
X87305593Y-74258981D01*
X87217338Y-74235333D01*
X87171654Y-74232339D01*
X86302343Y-74232339D01*
X87419142Y-73115540D01*
X87449328Y-73081120D01*
X87495012Y-73001992D01*
X87518660Y-72913737D01*
X87518660Y-72822369D01*
X87495012Y-72734113D01*
X87449328Y-72654986D01*
X87384721Y-72590379D01*
X87305594Y-72544695D01*
X87217338Y-72521047D01*
X87125970Y-72521047D01*
X87037715Y-72544695D01*
X86958587Y-72590379D01*
X86924167Y-72620566D01*
X85853098Y-73691635D01*
X84381654Y-72588053D01*
X84343310Y-72563038D01*
X84258518Y-72529003D01*
X84167805Y-72518074D01*
X84077355Y-72530995D01*
X83993331Y-72566887D01*
X83921460Y-72623302D01*
X83866639Y-72696397D01*
X83832604Y-72781189D01*
X83821675Y-72871902D01*
X83471654Y-72871902D01*
X83471654Y-68700385D01*
X83822534Y-68700385D01*
X83824023Y-68725196D01*
X83822534Y-68750007D01*
X83826749Y-68770606D01*
X83828009Y-68791589D01*
X83835868Y-68815166D01*
X83840852Y-68839521D01*
X83850254Y-68858325D01*
X83856902Y-68878269D01*
X83870596Y-68899010D01*
X83881713Y-68921243D01*
X83895662Y-68936973D01*
X83907245Y-68954516D01*
X83925842Y-68971007D01*
X83942334Y-68989605D01*
X83959876Y-69001187D01*
X83975607Y-69015137D01*
X83997839Y-69026253D01*
X84018581Y-69039948D01*
X84054625Y-69054646D01*
X84057329Y-69055998D01*
X84058556Y-69056249D01*
X84060974Y-69057235D01*
X87060975Y-70057235D01*
X87105261Y-70068841D01*
X87196465Y-70074316D01*
X87285979Y-70055998D01*
X87367701Y-70015137D01*
X87436063Y-69954517D01*
X87486407Y-69878269D01*
X87515300Y-69791589D01*
X87520774Y-69700385D01*
X87502457Y-69610871D01*
X87461596Y-69529149D01*
X87400975Y-69460787D01*
X87324727Y-69410444D01*
X87282334Y-69393157D01*
X85278451Y-68725196D01*
X87282334Y-68057235D01*
X87324727Y-68039948D01*
X87400975Y-67989605D01*
X87461596Y-67921243D01*
X87502457Y-67839521D01*
X87520774Y-67750007D01*
X87515300Y-67658803D01*
X87486407Y-67572123D01*
X87436063Y-67495875D01*
X87367701Y-67435255D01*
X87285979Y-67394394D01*
X87196465Y-67376076D01*
X87105261Y-67381551D01*
X87060975Y-67393157D01*
X84060974Y-68393157D01*
X84058556Y-68394142D01*
X84057329Y-68394394D01*
X84054625Y-68395745D01*
X84018581Y-68410444D01*
X83997839Y-68424138D01*
X83975607Y-68435255D01*
X83959876Y-68449204D01*
X83942334Y-68460787D01*
X83925842Y-68479384D01*
X83907245Y-68495876D01*
X83895662Y-68513418D01*
X83881713Y-68529149D01*
X83870596Y-68551381D01*
X83856902Y-68572123D01*
X83850254Y-68592066D01*
X83840852Y-68610871D01*
X83835868Y-68635225D01*
X83828009Y-68658803D01*
X83826749Y-68679785D01*
X83822534Y-68700385D01*
X83471654Y-68700385D01*
X83471654Y-65153767D01*
X83821654Y-65153767D01*
X83821654Y-66868053D01*
X83824648Y-66913737D01*
X83848296Y-67001992D01*
X83893980Y-67081120D01*
X83958587Y-67145727D01*
X84037715Y-67191411D01*
X84125970Y-67215059D01*
X84217338Y-67215059D01*
X84305593Y-67191411D01*
X84384721Y-67145727D01*
X84449328Y-67081120D01*
X84495012Y-67001992D01*
X84518660Y-66913737D01*
X84521654Y-66868053D01*
X84521654Y-66360910D01*
X86187029Y-66360910D01*
X86179695Y-66369273D01*
X86174424Y-66378402D01*
X86167428Y-66386292D01*
X86144319Y-66425814D01*
X86001462Y-66711528D01*
X85983710Y-66753728D01*
X85965392Y-66843242D01*
X85970866Y-66934446D01*
X85999759Y-67021126D01*
X86050103Y-67097374D01*
X86118465Y-67157994D01*
X86200187Y-67198855D01*
X86289701Y-67217173D01*
X86380905Y-67211699D01*
X86467585Y-67182806D01*
X86543833Y-67132462D01*
X86604453Y-67064100D01*
X86627562Y-67024578D01*
X86745019Y-66789663D01*
X86966064Y-66568617D01*
X87365799Y-66302128D01*
X87379708Y-66291477D01*
X87384721Y-66288584D01*
X87388749Y-66284555D01*
X87402149Y-66274296D01*
X87424923Y-66248381D01*
X87449328Y-66223977D01*
X87454990Y-66214168D01*
X87462465Y-66205664D01*
X87477759Y-66174730D01*
X87495012Y-66144849D01*
X87497942Y-66133913D01*
X87502962Y-66123761D01*
X87509730Y-66089919D01*
X87518660Y-66056594D01*
X87518660Y-66045271D01*
X87520881Y-66034167D01*
X87518660Y-65999732D01*
X87518660Y-65965226D01*
X87515728Y-65954286D01*
X87515000Y-65942987D01*
X87503943Y-65910303D01*
X87495012Y-65876971D01*
X87489349Y-65867163D01*
X87485721Y-65856437D01*
X87466583Y-65827730D01*
X87449328Y-65797843D01*
X87441319Y-65789834D01*
X87435039Y-65780414D01*
X87409124Y-65757639D01*
X87384721Y-65733236D01*
X87374912Y-65727573D01*
X87366408Y-65720099D01*
X87335477Y-65704805D01*
X87305593Y-65687552D01*
X87294655Y-65684621D01*
X87284504Y-65679602D01*
X87250666Y-65672834D01*
X87217338Y-65663904D01*
X87200496Y-65662800D01*
X87194910Y-65661683D01*
X87189133Y-65662055D01*
X87171654Y-65660910D01*
X84521654Y-65660910D01*
X84521654Y-65153767D01*
X84518660Y-65108083D01*
X84495012Y-65019828D01*
X84449328Y-64940700D01*
X84384721Y-64876093D01*
X84305593Y-64830409D01*
X84217338Y-64806761D01*
X84125970Y-64806761D01*
X84037715Y-64830409D01*
X83958587Y-64876093D01*
X83893980Y-64940700D01*
X83848296Y-65019828D01*
X83824648Y-65108083D01*
X83821654Y-65153767D01*
X83471654Y-65153767D01*
X83471654Y-63822369D01*
X83824648Y-63822369D01*
X83824648Y-63913737D01*
X83848296Y-64001992D01*
X83874670Y-64047675D01*
X83879819Y-64056593D01*
X83893979Y-64081119D01*
X83893981Y-64081121D01*
X83924167Y-64115541D01*
X84067025Y-64258398D01*
X84101437Y-64288576D01*
X84101445Y-64288584D01*
X84180573Y-64334268D01*
X84268828Y-64357916D01*
X84268829Y-64357916D01*
X84360197Y-64357916D01*
X84392501Y-64349259D01*
X84448451Y-64334268D01*
X84527579Y-64288584D01*
X84561999Y-64258397D01*
X84704856Y-64115541D01*
X84735043Y-64081120D01*
X84780727Y-64001993D01*
X84804375Y-63913737D01*
X84804375Y-63822369D01*
X84790579Y-63770881D01*
X84780727Y-63734113D01*
X84735043Y-63654986D01*
X84704856Y-63620565D01*
X84561999Y-63477709D01*
X84527579Y-63447522D01*
X84448451Y-63401838D01*
X84392501Y-63386846D01*
X84360197Y-63378190D01*
X84360196Y-63378190D01*
X84268828Y-63378190D01*
X84180573Y-63401838D01*
X84101445Y-63447522D01*
X84101437Y-63447529D01*
X84067025Y-63477708D01*
X83924167Y-63620565D01*
X83893981Y-63654985D01*
X83893979Y-63654987D01*
X83874670Y-63688431D01*
X83848296Y-63734114D01*
X83824648Y-63822369D01*
X83471654Y-63822369D01*
X83471654Y-61582339D01*
X83821654Y-61582339D01*
X83821654Y-61868053D01*
X83822891Y-61886930D01*
X83822535Y-61892865D01*
X83823631Y-61898221D01*
X83824648Y-61913737D01*
X83833779Y-61947817D01*
X83840852Y-61982378D01*
X83846879Y-61996706D01*
X83848296Y-62001992D01*
X83851271Y-62007145D01*
X83858605Y-62024578D01*
X84001463Y-62310293D01*
X84024571Y-62349815D01*
X84031565Y-62357703D01*
X84036838Y-62366835D01*
X84067025Y-62401255D01*
X84209881Y-62544112D01*
X84244302Y-62574299D01*
X84253434Y-62579571D01*
X84261322Y-62586566D01*
X84300844Y-62609675D01*
X84586558Y-62752532D01*
X84609263Y-62762083D01*
X84614602Y-62765047D01*
X84621791Y-62767353D01*
X84628758Y-62770284D01*
X84634747Y-62771509D01*
X84658196Y-62779032D01*
X85229624Y-62921889D01*
X85264881Y-62928287D01*
X85268828Y-62929345D01*
X85271770Y-62929537D01*
X85274670Y-62930064D01*
X85278751Y-62929995D01*
X85314512Y-62932339D01*
X86028797Y-62932339D01*
X86064557Y-62929995D01*
X86068638Y-62930064D01*
X86071536Y-62929537D01*
X86074481Y-62929345D01*
X86078429Y-62928287D01*
X86113684Y-62921889D01*
X86685113Y-62779032D01*
X86708561Y-62771509D01*
X86714551Y-62770284D01*
X86721517Y-62767353D01*
X86728707Y-62765047D01*
X86734045Y-62762083D01*
X86756751Y-62752532D01*
X87042465Y-62609675D01*
X87081987Y-62586566D01*
X87089875Y-62579571D01*
X87099007Y-62574299D01*
X87133427Y-62544112D01*
X87276284Y-62401256D01*
X87306471Y-62366835D01*
X87311745Y-62357699D01*
X87318738Y-62349814D01*
X87341847Y-62310292D01*
X87484704Y-62024577D01*
X87492037Y-62007144D01*
X87495012Y-62001992D01*
X87496428Y-61996705D01*
X87502456Y-61982377D01*
X87509528Y-61947814D01*
X87518660Y-61913737D01*
X87519676Y-61898227D01*
X87520774Y-61892864D01*
X87520417Y-61886922D01*
X87521654Y-61868053D01*
X87521654Y-61582339D01*
X87520417Y-61563469D01*
X87520774Y-61557528D01*
X87519676Y-61552164D01*
X87518660Y-61536655D01*
X87509529Y-61502579D01*
X87502456Y-61468014D01*
X87496427Y-61453683D01*
X87495012Y-61448400D01*
X87492038Y-61443250D01*
X87484704Y-61425814D01*
X87341847Y-61140100D01*
X87318738Y-61100578D01*
X87311743Y-61092690D01*
X87306471Y-61083558D01*
X87276284Y-61049137D01*
X87133427Y-60906281D01*
X87099007Y-60876094D01*
X87089874Y-60870821D01*
X87081987Y-60863827D01*
X87042465Y-60840719D01*
X86756752Y-60697861D01*
X86734046Y-60688308D01*
X86728707Y-60685345D01*
X86721520Y-60683039D01*
X86714552Y-60680108D01*
X86708560Y-60678881D01*
X86685113Y-60671360D01*
X86113684Y-60528503D01*
X86078429Y-60522104D01*
X86074481Y-60521047D01*
X86071536Y-60520854D01*
X86068638Y-60520328D01*
X86064557Y-60520396D01*
X86028797Y-60518053D01*
X85314512Y-60518053D01*
X85278751Y-60520396D01*
X85274670Y-60520328D01*
X85271770Y-60520854D01*
X85268828Y-60521047D01*
X85264881Y-60522104D01*
X85229624Y-60528503D01*
X84658196Y-60671360D01*
X84634748Y-60678881D01*
X84628757Y-60680108D01*
X84621788Y-60683039D01*
X84614602Y-60685345D01*
X84609262Y-60688308D01*
X84586557Y-60697861D01*
X84300843Y-60840719D01*
X84261321Y-60863827D01*
X84253431Y-60870822D01*
X84244302Y-60876094D01*
X84209881Y-60906281D01*
X84067025Y-61049138D01*
X84036838Y-61083558D01*
X84031565Y-61092690D01*
X84024571Y-61100578D01*
X84001463Y-61140100D01*
X83858605Y-61425813D01*
X83851269Y-61443248D01*
X83848296Y-61448400D01*
X83846880Y-61453683D01*
X83840852Y-61468013D01*
X83833779Y-61502576D01*
X83824648Y-61536655D01*
X83823631Y-61552169D01*
X83822535Y-61557527D01*
X83822891Y-61563461D01*
X83821654Y-61582339D01*
X83471654Y-61582339D01*
X83471654Y-60168053D01*
X87871654Y-60168053D01*
X87871654Y-91425197D01*
G37*
D12*
G36*
X82264871Y-90469900D02*
G01*
X82371231Y-90523081D01*
X82471837Y-90623687D01*
X82524371Y-90781288D01*
X82524371Y-90964089D01*
X81324371Y-90964089D01*
X81324371Y-90781286D01*
X81376904Y-90623687D01*
X81477511Y-90523080D01*
X81583870Y-90469901D01*
X81835692Y-90406946D01*
X82013050Y-90406946D01*
X82264871Y-90469900D01*
G37*
G36*
X81991138Y-89154463D02*
G01*
X82024371Y-89220927D01*
X82024371Y-89435821D01*
X81991138Y-89502285D01*
X81924675Y-89535517D01*
X81857341Y-89535517D01*
X81938787Y-89128287D01*
X81991138Y-89154463D01*
G37*
G36*
X82024371Y-85935213D02*
G01*
X82024371Y-86150106D01*
X81979663Y-86239520D01*
X81942658Y-86276525D01*
X81853247Y-86321231D01*
X81495495Y-86321231D01*
X81406082Y-86276525D01*
X81369078Y-86239521D01*
X81324371Y-86150106D01*
X81324371Y-85935213D01*
X81338505Y-85906946D01*
X82010237Y-85906946D01*
X82024371Y-85935213D01*
G37*
G36*
X81991138Y-83225891D02*
G01*
X82024371Y-83292355D01*
X82024371Y-83507249D01*
X81991138Y-83573713D01*
X81924675Y-83606945D01*
X81857341Y-83606945D01*
X81938787Y-83199715D01*
X81991138Y-83225891D01*
G37*
G36*
X82024371Y-81935213D02*
G01*
X82024371Y-82150106D01*
X81979663Y-82239520D01*
X81942658Y-82276525D01*
X81853247Y-82321231D01*
X81495495Y-82321231D01*
X81406082Y-82276525D01*
X81369078Y-82239521D01*
X81324371Y-82150106D01*
X81324371Y-81935213D01*
X81338505Y-81906946D01*
X82010237Y-81906946D01*
X82024371Y-81935213D01*
G37*
G36*
X81942660Y-79380224D02*
G01*
X81979664Y-79417228D01*
X82024371Y-79506641D01*
X82024371Y-79721535D01*
X82010237Y-79749803D01*
X81338505Y-79749803D01*
X81324371Y-79721535D01*
X81324371Y-79506641D01*
X81369078Y-79417227D01*
X81406082Y-79380223D01*
X81495495Y-79335517D01*
X81853247Y-79335517D01*
X81942660Y-79380224D01*
G37*
G36*
X82442658Y-75594508D02*
G01*
X82479663Y-75631513D01*
X82524371Y-75720927D01*
X82524371Y-76106946D01*
X82038657Y-76106946D01*
X82038657Y-75720926D01*
X82083362Y-75631514D01*
X82120367Y-75594509D01*
X82209781Y-75549803D01*
X82353247Y-75549803D01*
X82442658Y-75594508D01*
G37*
G36*
X81595800Y-73221535D02*
G01*
X81562567Y-73287999D01*
X81496104Y-73321231D01*
X81424067Y-73321231D01*
X81357603Y-73287999D01*
X81324371Y-73221535D01*
X81324371Y-72935213D01*
X81338505Y-72906946D01*
X81595800Y-72906946D01*
X81595800Y-73221535D01*
G37*
G36*
X81595800Y-67364392D02*
G01*
X81562567Y-67430856D01*
X81496104Y-67464088D01*
X81424067Y-67464088D01*
X81357603Y-67430856D01*
X81324371Y-67364392D01*
X81324371Y-67078070D01*
X81338505Y-67049803D01*
X81595800Y-67049803D01*
X81595800Y-67364392D01*
G37*
G36*
X82991038Y-91430756D02*
G01*
X80357704Y-91430756D01*
X80357704Y-90756946D01*
X81024371Y-90756946D01*
X81024371Y-91114089D01*
X81027253Y-91143353D01*
X81049651Y-91197425D01*
X81091035Y-91238809D01*
X81145107Y-91261207D01*
X81174371Y-91264089D01*
X82674371Y-91264089D01*
X82703635Y-91261207D01*
X82757707Y-91238809D01*
X82799091Y-91197425D01*
X82821489Y-91143353D01*
X82824371Y-91114089D01*
X82824371Y-90756946D01*
X82822912Y-90742134D01*
X82823193Y-90738185D01*
X82822011Y-90732990D01*
X82821489Y-90727682D01*
X82819972Y-90724020D01*
X82816673Y-90709511D01*
X82745244Y-90495226D01*
X82733256Y-90468375D01*
X82729726Y-90464305D01*
X82727663Y-90459324D01*
X82709008Y-90436594D01*
X82566151Y-90293737D01*
X82554649Y-90284297D01*
X82552053Y-90281304D01*
X82547539Y-90278463D01*
X82543420Y-90275082D01*
X82539760Y-90273566D01*
X82527167Y-90265639D01*
X82384310Y-90194210D01*
X82382169Y-90193390D01*
X82381299Y-90192746D01*
X82369021Y-90188359D01*
X82356847Y-90183701D01*
X82355766Y-90183624D01*
X82353608Y-90182853D01*
X82067894Y-90111425D01*
X82062822Y-90110675D01*
X82060778Y-90109828D01*
X82049755Y-90108742D01*
X82038805Y-90107123D01*
X82036617Y-90107448D01*
X82031514Y-90106946D01*
X81817228Y-90106946D01*
X81812124Y-90107448D01*
X81809937Y-90107123D01*
X81798986Y-90108742D01*
X81787964Y-90109828D01*
X81785919Y-90110675D01*
X81780848Y-90111425D01*
X81495134Y-90182853D01*
X81492975Y-90183624D01*
X81491895Y-90183701D01*
X81479714Y-90188361D01*
X81467443Y-90192746D01*
X81466573Y-90193390D01*
X81464431Y-90194210D01*
X81321575Y-90265639D01*
X81308983Y-90273565D01*
X81305321Y-90275082D01*
X81301198Y-90278465D01*
X81296689Y-90281304D01*
X81294093Y-90284296D01*
X81282591Y-90293737D01*
X81139734Y-90436594D01*
X81121079Y-90459325D01*
X81119016Y-90464304D01*
X81115486Y-90468375D01*
X81103497Y-90495226D01*
X81032069Y-90709512D01*
X81028770Y-90724019D01*
X81027253Y-90727682D01*
X81026730Y-90732990D01*
X81025549Y-90738185D01*
X81025829Y-90742134D01*
X81024371Y-90756946D01*
X80357704Y-90756946D01*
X80357704Y-89185517D01*
X81024371Y-89185517D01*
X81024371Y-89471232D01*
X81027253Y-89500496D01*
X81029316Y-89505476D01*
X81029698Y-89510851D01*
X81040207Y-89538314D01*
X81111636Y-89681171D01*
X81114716Y-89686065D01*
X81115486Y-89688373D01*
X81117978Y-89691246D01*
X81127301Y-89706057D01*
X81141512Y-89718381D01*
X81153833Y-89732588D01*
X81168640Y-89741909D01*
X81171516Y-89744403D01*
X81173824Y-89745172D01*
X81178718Y-89748253D01*
X81321576Y-89819681D01*
X81349039Y-89830191D01*
X81354414Y-89830572D01*
X81359393Y-89832635D01*
X81388657Y-89835517D01*
X81674214Y-89835517D01*
X81960085Y-89835517D01*
X81989349Y-89832635D01*
X81994327Y-89830572D01*
X81999703Y-89830191D01*
X82027167Y-89819681D01*
X82170024Y-89748253D01*
X82174914Y-89745174D01*
X82177226Y-89744404D01*
X82180104Y-89741907D01*
X82194910Y-89732588D01*
X82207231Y-89718380D01*
X82221441Y-89706057D01*
X82230763Y-89691247D01*
X82233256Y-89688373D01*
X82234025Y-89686065D01*
X82237106Y-89681171D01*
X82308535Y-89538315D01*
X82319044Y-89510851D01*
X82319425Y-89505476D01*
X82321489Y-89500496D01*
X82324371Y-89471232D01*
X82324371Y-89185517D01*
X82321489Y-89156253D01*
X82319425Y-89151272D01*
X82319044Y-89145898D01*
X82308535Y-89118434D01*
X82237106Y-88975578D01*
X82234025Y-88970683D01*
X82233256Y-88968376D01*
X82230763Y-88965501D01*
X82221441Y-88950692D01*
X82207231Y-88938368D01*
X82194910Y-88924161D01*
X82180104Y-88914841D01*
X82177226Y-88912345D01*
X82174914Y-88911574D01*
X82170024Y-88908496D01*
X82027167Y-88837068D01*
X81999703Y-88826558D01*
X81994327Y-88826176D01*
X81989349Y-88824114D01*
X81960085Y-88821232D01*
X81817390Y-88821232D01*
X81817385Y-88821231D01*
X81817380Y-88821232D01*
X81817228Y-88821232D01*
X81787964Y-88824114D01*
X81774387Y-88829737D01*
X81759970Y-88832590D01*
X81747611Y-88840829D01*
X81733892Y-88846512D01*
X81723502Y-88856902D01*
X81711274Y-88865054D01*
X81703009Y-88877394D01*
X81692508Y-88887896D01*
X81686884Y-88901472D01*
X81678706Y-88913684D01*
X81670141Y-88941814D01*
X81551401Y-89535517D01*
X81424067Y-89535517D01*
X81357603Y-89502285D01*
X81324371Y-89435821D01*
X81324371Y-89220927D01*
X81379964Y-89109743D01*
X81390473Y-89082279D01*
X81394622Y-89023899D01*
X81376115Y-88968377D01*
X81337768Y-88924161D01*
X81285419Y-88897987D01*
X81227039Y-88893838D01*
X81171516Y-88912346D01*
X81127301Y-88950692D01*
X81111636Y-88975578D01*
X81040207Y-89118435D01*
X81029698Y-89145898D01*
X81029316Y-89151272D01*
X81027253Y-89156253D01*
X81024371Y-89185517D01*
X80357704Y-89185517D01*
X80357704Y-87971232D01*
X81024371Y-87971232D01*
X81024371Y-88256946D01*
X81027253Y-88286210D01*
X81029316Y-88291190D01*
X81029698Y-88296565D01*
X81040207Y-88324028D01*
X81111636Y-88466885D01*
X81127301Y-88491771D01*
X81171516Y-88530117D01*
X81227039Y-88548625D01*
X81285419Y-88544476D01*
X81337768Y-88518302D01*
X81376115Y-88474086D01*
X81394622Y-88418564D01*
X81390473Y-88360184D01*
X81379964Y-88332720D01*
X81324371Y-88221535D01*
X81324371Y-88006642D01*
X81357603Y-87940177D01*
X81424067Y-87906946D01*
X81424675Y-87906946D01*
X81491139Y-87940178D01*
X81524371Y-88006642D01*
X81524371Y-88185518D01*
X81527253Y-88214782D01*
X81529316Y-88219762D01*
X81529698Y-88225137D01*
X81540207Y-88252600D01*
X81611636Y-88395457D01*
X81614716Y-88400351D01*
X81615486Y-88402659D01*
X81617978Y-88405532D01*
X81627301Y-88420343D01*
X81641512Y-88432667D01*
X81653833Y-88446874D01*
X81668640Y-88456195D01*
X81671516Y-88458689D01*
X81673824Y-88459458D01*
X81678718Y-88462539D01*
X81821576Y-88533967D01*
X81849039Y-88544477D01*
X81854414Y-88544858D01*
X81859393Y-88546921D01*
X81888657Y-88549803D01*
X81960085Y-88549803D01*
X81989349Y-88546921D01*
X81994327Y-88544858D01*
X81999703Y-88544477D01*
X82027167Y-88533967D01*
X82170024Y-88462539D01*
X82174914Y-88459460D01*
X82177226Y-88458690D01*
X82180104Y-88456193D01*
X82194910Y-88446874D01*
X82207231Y-88432666D01*
X82221441Y-88420343D01*
X82230763Y-88405533D01*
X82233256Y-88402659D01*
X82234025Y-88400351D01*
X82237106Y-88395457D01*
X82308535Y-88252601D01*
X82319044Y-88225137D01*
X82319425Y-88219762D01*
X82321489Y-88214782D01*
X82324371Y-88185518D01*
X82324371Y-87971232D01*
X82321489Y-87941968D01*
X82319425Y-87936987D01*
X82319044Y-87931613D01*
X82308535Y-87904149D01*
X82237106Y-87761293D01*
X82221441Y-87736407D01*
X82177226Y-87698060D01*
X82121703Y-87679553D01*
X82063323Y-87683702D01*
X82010974Y-87709876D01*
X81972627Y-87754091D01*
X81954120Y-87809614D01*
X81958269Y-87867994D01*
X81968778Y-87895457D01*
X82024371Y-88006642D01*
X82024371Y-88150107D01*
X81991138Y-88216571D01*
X81924675Y-88249803D01*
X81924067Y-88249803D01*
X81857603Y-88216571D01*
X81824371Y-88150107D01*
X81824371Y-87971232D01*
X81821489Y-87941968D01*
X81819425Y-87936987D01*
X81819044Y-87931613D01*
X81808535Y-87904149D01*
X81737106Y-87761293D01*
X81734025Y-87756398D01*
X81733256Y-87754091D01*
X81730763Y-87751216D01*
X81721441Y-87736407D01*
X81707231Y-87724083D01*
X81694910Y-87709876D01*
X81680104Y-87700556D01*
X81677226Y-87698060D01*
X81674914Y-87697289D01*
X81670024Y-87694211D01*
X81527167Y-87622782D01*
X81499704Y-87612273D01*
X81494329Y-87611891D01*
X81489349Y-87609828D01*
X81460085Y-87606946D01*
X81388657Y-87606946D01*
X81359393Y-87609828D01*
X81354412Y-87611891D01*
X81349038Y-87612273D01*
X81321574Y-87622782D01*
X81178718Y-87694211D01*
X81173823Y-87697291D01*
X81171516Y-87698061D01*
X81168641Y-87700553D01*
X81153832Y-87709876D01*
X81141508Y-87724085D01*
X81127301Y-87736407D01*
X81117981Y-87751212D01*
X81115485Y-87754091D01*
X81114714Y-87756402D01*
X81111636Y-87761293D01*
X81040207Y-87904150D01*
X81029698Y-87931613D01*
X81029316Y-87936987D01*
X81027253Y-87941968D01*
X81024371Y-87971232D01*
X80357704Y-87971232D01*
X80357704Y-87084825D01*
X81027253Y-87084825D01*
X81027253Y-87143353D01*
X81049651Y-87197425D01*
X81091035Y-87238809D01*
X81145107Y-87261207D01*
X81174371Y-87264089D01*
X82174371Y-87264089D01*
X82203635Y-87261207D01*
X82257707Y-87238809D01*
X82299091Y-87197425D01*
X82321489Y-87143353D01*
X82321489Y-87084825D01*
X82384396Y-87084825D01*
X82384396Y-87143353D01*
X82386622Y-87148726D01*
X82406793Y-87197424D01*
X82425448Y-87220155D01*
X82496876Y-87291583D01*
X82519606Y-87310238D01*
X82542003Y-87319514D01*
X82573678Y-87332635D01*
X82632204Y-87332635D01*
X82663880Y-87319514D01*
X82686277Y-87310238D01*
X82686281Y-87310233D01*
X82709007Y-87291584D01*
X82780436Y-87220156D01*
X82799091Y-87197425D01*
X82799092Y-87197424D01*
X82819263Y-87148726D01*
X82821489Y-87143353D01*
X82821489Y-87084825D01*
X82799092Y-87030755D01*
X82799092Y-87030754D01*
X82780437Y-87008023D01*
X82709008Y-86936594D01*
X82686277Y-86917939D01*
X82632205Y-86895542D01*
X82573679Y-86895542D01*
X82519607Y-86917939D01*
X82519606Y-86917940D01*
X82496875Y-86936595D01*
X82425447Y-87008024D01*
X82406797Y-87030749D01*
X82406793Y-87030754D01*
X82406793Y-87030755D01*
X82384396Y-87084825D01*
X82321489Y-87084825D01*
X82299091Y-87030753D01*
X82257707Y-86989369D01*
X82203635Y-86966971D01*
X82174371Y-86964089D01*
X81174371Y-86964089D01*
X81145107Y-86966971D01*
X81091035Y-86989369D01*
X81049651Y-87030753D01*
X81027253Y-87084825D01*
X80357704Y-87084825D01*
X80357704Y-86042660D01*
X80524371Y-86042660D01*
X80524371Y-86256946D01*
X80527253Y-86286210D01*
X80529316Y-86291190D01*
X80529698Y-86296565D01*
X80540207Y-86324028D01*
X80611636Y-86466885D01*
X80627301Y-86491771D01*
X80671516Y-86530117D01*
X80727039Y-86548625D01*
X80785419Y-86544476D01*
X80837768Y-86518302D01*
X80876115Y-86474086D01*
X80894622Y-86418564D01*
X80890473Y-86360184D01*
X80879964Y-86332720D01*
X80824371Y-86221535D01*
X80824371Y-86078070D01*
X80869078Y-85988655D01*
X80906082Y-85951651D01*
X80995495Y-85906946D01*
X81024371Y-85906946D01*
X81024371Y-86185517D01*
X81027253Y-86214781D01*
X81029316Y-86219761D01*
X81029698Y-86225136D01*
X81040207Y-86252599D01*
X81111636Y-86395456D01*
X81119564Y-86408051D01*
X81121079Y-86411708D01*
X81124458Y-86415825D01*
X81127301Y-86420342D01*
X81130295Y-86422939D01*
X81139733Y-86434439D01*
X81211161Y-86505868D01*
X81222666Y-86515310D01*
X81225261Y-86518302D01*
X81229771Y-86521141D01*
X81233892Y-86524523D01*
X81237551Y-86526038D01*
X81250146Y-86533967D01*
X81393004Y-86605395D01*
X81420467Y-86615905D01*
X81425842Y-86616286D01*
X81430821Y-86618349D01*
X81460085Y-86621231D01*
X81888657Y-86621231D01*
X81917921Y-86618349D01*
X81922899Y-86616286D01*
X81928275Y-86615905D01*
X81955739Y-86605395D01*
X82098596Y-86533967D01*
X82111191Y-86526038D01*
X82114850Y-86524523D01*
X82118967Y-86521143D01*
X82123482Y-86518302D01*
X82126078Y-86515307D01*
X82137581Y-86505868D01*
X82209009Y-86434439D01*
X82218447Y-86422938D01*
X82221441Y-86420342D01*
X82224281Y-86415829D01*
X82227663Y-86411709D01*
X82229178Y-86408049D01*
X82237106Y-86395456D01*
X82308535Y-86252600D01*
X82319044Y-86225136D01*
X82319425Y-86219761D01*
X82321489Y-86214781D01*
X82324371Y-86185517D01*
X82324371Y-85899803D01*
X82321489Y-85870539D01*
X82319425Y-85865558D01*
X82319044Y-85860184D01*
X82308535Y-85832720D01*
X82305083Y-85825816D01*
X82321489Y-85786210D01*
X82321489Y-85727682D01*
X82299091Y-85673610D01*
X82257707Y-85632226D01*
X82203635Y-85609828D01*
X82174371Y-85606946D01*
X80960085Y-85606946D01*
X80930821Y-85609828D01*
X80925842Y-85611890D01*
X80920467Y-85612272D01*
X80893004Y-85622782D01*
X80750146Y-85694210D01*
X80737551Y-85702138D01*
X80733892Y-85703654D01*
X80729771Y-85707035D01*
X80725261Y-85709875D01*
X80722666Y-85712866D01*
X80711161Y-85722309D01*
X80639733Y-85793738D01*
X80630295Y-85805237D01*
X80627301Y-85807835D01*
X80624458Y-85812351D01*
X80621079Y-85816469D01*
X80619564Y-85820125D01*
X80611636Y-85832721D01*
X80540207Y-85975578D01*
X80529698Y-86003041D01*
X80529316Y-86008415D01*
X80527253Y-86013396D01*
X80524371Y-86042660D01*
X80357704Y-86042660D01*
X80357704Y-84370539D01*
X81027253Y-84370539D01*
X81027253Y-84429067D01*
X81049651Y-84483139D01*
X81091035Y-84524523D01*
X81145107Y-84546921D01*
X81174371Y-84549803D01*
X81924675Y-84549803D01*
X81991138Y-84583034D01*
X82024371Y-84649498D01*
X82024371Y-84792963D01*
X81979663Y-84882377D01*
X81969381Y-84892660D01*
X81174371Y-84892660D01*
X81145107Y-84895542D01*
X81091035Y-84917940D01*
X81049651Y-84959324D01*
X81027253Y-85013396D01*
X81027253Y-85071924D01*
X81049651Y-85125996D01*
X81091035Y-85167380D01*
X81145107Y-85189778D01*
X81174371Y-85192660D01*
X82174371Y-85192660D01*
X82203635Y-85189778D01*
X82257707Y-85167380D01*
X82299091Y-85125996D01*
X82321489Y-85071924D01*
X82321489Y-85013396D01*
X82299091Y-84959324D01*
X82284097Y-84944330D01*
X82308535Y-84895457D01*
X82319044Y-84867993D01*
X82319425Y-84862618D01*
X82321489Y-84857638D01*
X82324371Y-84828374D01*
X82324371Y-84614088D01*
X82321489Y-84584824D01*
X82319425Y-84579843D01*
X82319044Y-84574469D01*
X82308535Y-84547005D01*
X82237106Y-84404149D01*
X82234025Y-84399254D01*
X82233256Y-84396947D01*
X82230763Y-84394072D01*
X82221441Y-84379263D01*
X82207231Y-84366939D01*
X82194910Y-84352732D01*
X82180104Y-84343412D01*
X82177226Y-84340916D01*
X82174914Y-84340145D01*
X82170024Y-84337067D01*
X82027167Y-84265639D01*
X81999703Y-84255129D01*
X81994327Y-84254747D01*
X81989349Y-84252685D01*
X81960085Y-84249803D01*
X81174371Y-84249803D01*
X81145107Y-84252685D01*
X81091035Y-84275083D01*
X81049651Y-84316467D01*
X81027253Y-84370539D01*
X80357704Y-84370539D01*
X80357704Y-83256945D01*
X81024371Y-83256945D01*
X81024371Y-83542660D01*
X81027253Y-83571924D01*
X81029316Y-83576904D01*
X81029698Y-83582279D01*
X81040207Y-83609742D01*
X81111636Y-83752599D01*
X81114716Y-83757493D01*
X81115486Y-83759801D01*
X81117978Y-83762674D01*
X81127301Y-83777485D01*
X81141512Y-83789809D01*
X81153833Y-83804016D01*
X81168640Y-83813337D01*
X81171516Y-83815831D01*
X81173824Y-83816600D01*
X81178718Y-83819681D01*
X81321576Y-83891109D01*
X81349039Y-83901619D01*
X81354414Y-83902000D01*
X81359393Y-83904063D01*
X81388657Y-83906945D01*
X81674214Y-83906945D01*
X81960085Y-83906945D01*
X81989349Y-83904063D01*
X81994327Y-83902000D01*
X81999703Y-83901619D01*
X82027167Y-83891109D01*
X82170024Y-83819681D01*
X82174914Y-83816602D01*
X82177226Y-83815832D01*
X82180104Y-83813335D01*
X82194910Y-83804016D01*
X82207231Y-83789808D01*
X82221441Y-83777485D01*
X82230763Y-83762675D01*
X82233256Y-83759801D01*
X82234025Y-83757493D01*
X82237106Y-83752599D01*
X82308535Y-83609743D01*
X82319044Y-83582279D01*
X82319425Y-83576904D01*
X82321489Y-83571924D01*
X82324371Y-83542660D01*
X82324371Y-83256945D01*
X82321489Y-83227681D01*
X82319425Y-83222700D01*
X82319044Y-83217326D01*
X82308535Y-83189862D01*
X82237106Y-83047006D01*
X82234025Y-83042111D01*
X82233256Y-83039804D01*
X82230763Y-83036929D01*
X82221441Y-83022120D01*
X82207231Y-83009796D01*
X82194910Y-82995589D01*
X82180104Y-82986269D01*
X82177226Y-82983773D01*
X82174914Y-82983002D01*
X82170024Y-82979924D01*
X82027167Y-82908496D01*
X81999703Y-82897986D01*
X81994327Y-82897604D01*
X81989349Y-82895542D01*
X81960085Y-82892660D01*
X81817390Y-82892660D01*
X81817385Y-82892659D01*
X81817380Y-82892660D01*
X81817228Y-82892660D01*
X81787964Y-82895542D01*
X81774387Y-82901165D01*
X81759970Y-82904018D01*
X81747611Y-82912257D01*
X81733892Y-82917940D01*
X81723502Y-82928330D01*
X81711274Y-82936482D01*
X81703009Y-82948822D01*
X81692508Y-82959324D01*
X81686884Y-82972900D01*
X81678706Y-82985112D01*
X81670141Y-83013242D01*
X81551401Y-83606945D01*
X81424067Y-83606945D01*
X81357603Y-83573713D01*
X81324371Y-83507249D01*
X81324371Y-83292355D01*
X81379964Y-83181171D01*
X81390473Y-83153707D01*
X81394622Y-83095327D01*
X81376115Y-83039805D01*
X81337768Y-82995589D01*
X81285419Y-82969415D01*
X81227039Y-82965266D01*
X81171516Y-82983774D01*
X81127301Y-83022120D01*
X81111636Y-83047006D01*
X81040207Y-83189863D01*
X81029698Y-83217326D01*
X81029316Y-83222700D01*
X81027253Y-83227681D01*
X81024371Y-83256945D01*
X80357704Y-83256945D01*
X80357704Y-81899803D01*
X81024371Y-81899803D01*
X81024371Y-82185517D01*
X81027253Y-82214781D01*
X81029316Y-82219761D01*
X81029698Y-82225136D01*
X81040207Y-82252599D01*
X81111636Y-82395456D01*
X81119564Y-82408051D01*
X81121079Y-82411708D01*
X81124458Y-82415825D01*
X81127301Y-82420342D01*
X81130295Y-82422939D01*
X81139733Y-82434439D01*
X81211161Y-82505868D01*
X81222666Y-82515310D01*
X81225261Y-82518302D01*
X81229771Y-82521141D01*
X81233892Y-82524523D01*
X81237551Y-82526038D01*
X81250146Y-82533967D01*
X81393004Y-82605395D01*
X81420467Y-82615905D01*
X81425842Y-82616286D01*
X81430821Y-82618349D01*
X81460085Y-82621231D01*
X81888657Y-82621231D01*
X81917921Y-82618349D01*
X81922899Y-82616286D01*
X81928275Y-82615905D01*
X81955739Y-82605395D01*
X82098596Y-82533967D01*
X82111191Y-82526038D01*
X82114850Y-82524523D01*
X82118967Y-82521143D01*
X82123482Y-82518302D01*
X82126078Y-82515307D01*
X82137581Y-82505868D01*
X82209009Y-82434439D01*
X82218447Y-82422938D01*
X82221441Y-82420342D01*
X82224281Y-82415829D01*
X82227663Y-82411709D01*
X82229178Y-82408049D01*
X82237106Y-82395456D01*
X82308535Y-82252600D01*
X82319044Y-82225136D01*
X82319425Y-82219761D01*
X82321489Y-82214781D01*
X82324371Y-82185517D01*
X82324371Y-81906946D01*
X82674371Y-81906946D01*
X82703635Y-81904064D01*
X82757707Y-81881666D01*
X82799091Y-81840282D01*
X82821489Y-81786210D01*
X82821489Y-81727682D01*
X82799091Y-81673610D01*
X82757707Y-81632226D01*
X82703635Y-81609828D01*
X82674371Y-81606946D01*
X81174371Y-81606946D01*
X81145107Y-81609828D01*
X81091035Y-81632226D01*
X81049651Y-81673610D01*
X81027253Y-81727682D01*
X81027253Y-81786210D01*
X81043659Y-81825816D01*
X81040207Y-81832721D01*
X81029698Y-81860184D01*
X81029316Y-81865558D01*
X81027253Y-81870539D01*
X81024371Y-81899803D01*
X80357704Y-81899803D01*
X80357704Y-79471231D01*
X81024371Y-79471231D01*
X81024371Y-79756946D01*
X81027253Y-79786210D01*
X81029316Y-79791190D01*
X81029698Y-79796565D01*
X81040207Y-79824028D01*
X81043659Y-79830932D01*
X81027253Y-79870539D01*
X81027253Y-79929067D01*
X81049651Y-79983139D01*
X81091035Y-80024523D01*
X81145107Y-80046921D01*
X81174371Y-80049803D01*
X82674371Y-80049803D01*
X82703635Y-80046921D01*
X82757707Y-80024523D01*
X82799091Y-79983139D01*
X82821489Y-79929067D01*
X82821489Y-79870539D01*
X82799091Y-79816467D01*
X82757707Y-79775083D01*
X82703635Y-79752685D01*
X82674371Y-79749803D01*
X82324371Y-79749803D01*
X82324371Y-79471231D01*
X82321489Y-79441967D01*
X82319425Y-79436986D01*
X82319044Y-79431612D01*
X82308535Y-79404148D01*
X82237106Y-79261292D01*
X82229179Y-79248700D01*
X82227663Y-79245038D01*
X82224279Y-79240915D01*
X82221441Y-79236406D01*
X82218448Y-79233810D01*
X82209008Y-79222308D01*
X82137580Y-79150880D01*
X82126078Y-79141440D01*
X82123482Y-79138447D01*
X82118968Y-79135606D01*
X82114849Y-79132225D01*
X82111189Y-79130709D01*
X82098596Y-79122782D01*
X81955739Y-79051353D01*
X81928276Y-79040844D01*
X81922901Y-79040462D01*
X81917921Y-79038399D01*
X81888657Y-79035517D01*
X81460085Y-79035517D01*
X81430821Y-79038399D01*
X81425840Y-79040462D01*
X81420466Y-79040844D01*
X81393002Y-79051353D01*
X81250146Y-79122782D01*
X81237554Y-79130708D01*
X81233892Y-79132225D01*
X81229769Y-79135608D01*
X81225260Y-79138447D01*
X81222664Y-79141439D01*
X81211162Y-79150880D01*
X81139734Y-79222308D01*
X81130294Y-79233809D01*
X81127301Y-79236406D01*
X81124460Y-79240919D01*
X81121079Y-79245039D01*
X81119563Y-79248698D01*
X81111636Y-79261292D01*
X81040207Y-79404149D01*
X81029698Y-79431612D01*
X81029316Y-79436986D01*
X81027253Y-79441967D01*
X81024371Y-79471231D01*
X80357704Y-79471231D01*
X80357704Y-78704278D01*
X80525549Y-78704278D01*
X80544056Y-78759801D01*
X80582403Y-78804016D01*
X80634752Y-78830190D01*
X80693132Y-78834339D01*
X80748655Y-78815832D01*
X80792870Y-78777485D01*
X80808535Y-78752599D01*
X80869078Y-78631512D01*
X80901522Y-78599068D01*
X81177376Y-78488726D01*
X82123920Y-78826778D01*
X82152449Y-78833907D01*
X82210904Y-78831000D01*
X82263796Y-78805946D01*
X82303076Y-78762557D01*
X82322761Y-78707439D01*
X82319854Y-78648984D01*
X82294800Y-78596092D01*
X82251411Y-78556812D01*
X82224821Y-78544256D01*
X81620351Y-78328374D01*
X82224821Y-78112492D01*
X82251411Y-78099936D01*
X82294800Y-78060656D01*
X82319854Y-78007764D01*
X82322761Y-77949309D01*
X82303076Y-77894191D01*
X82263796Y-77850802D01*
X82210904Y-77825748D01*
X82152449Y-77822841D01*
X82123920Y-77829970D01*
X81123921Y-78187113D01*
X81121374Y-78188315D01*
X81118663Y-78189102D01*
X80761519Y-78331959D01*
X80735419Y-78345504D01*
X80734752Y-78346154D01*
X80733892Y-78346511D01*
X80711161Y-78365166D01*
X80639733Y-78436595D01*
X80630295Y-78448094D01*
X80627301Y-78450692D01*
X80624458Y-78455208D01*
X80621079Y-78459326D01*
X80619564Y-78462982D01*
X80611636Y-78475578D01*
X80540207Y-78618435D01*
X80529698Y-78645898D01*
X80525549Y-78704278D01*
X80357704Y-78704278D01*
X80357704Y-76227682D01*
X81027253Y-76227682D01*
X81027253Y-76286210D01*
X81049651Y-76340282D01*
X81091035Y-76381666D01*
X81145107Y-76404064D01*
X81174371Y-76406946D01*
X82674371Y-76406946D01*
X82703635Y-76404064D01*
X82757707Y-76381666D01*
X82799091Y-76340282D01*
X82821489Y-76286210D01*
X82824371Y-76256946D01*
X82824371Y-75685517D01*
X82821489Y-75656253D01*
X82819425Y-75651272D01*
X82819044Y-75645898D01*
X82808535Y-75618434D01*
X82737106Y-75475578D01*
X82729178Y-75462984D01*
X82727663Y-75459325D01*
X82724281Y-75455204D01*
X82721441Y-75450692D01*
X82718447Y-75448095D01*
X82709009Y-75436595D01*
X82637581Y-75365166D01*
X82626078Y-75355726D01*
X82623482Y-75352732D01*
X82618967Y-75349890D01*
X82614850Y-75346511D01*
X82611191Y-75344995D01*
X82598596Y-75337067D01*
X82455739Y-75265639D01*
X82428275Y-75255129D01*
X82422899Y-75254747D01*
X82417921Y-75252685D01*
X82388657Y-75249803D01*
X82174371Y-75249803D01*
X82145107Y-75252685D01*
X82140128Y-75254747D01*
X82134753Y-75255129D01*
X82107290Y-75265639D01*
X81964432Y-75337067D01*
X81951840Y-75344993D01*
X81948179Y-75346510D01*
X81944056Y-75349893D01*
X81939547Y-75352732D01*
X81936952Y-75355723D01*
X81925448Y-75365165D01*
X81854019Y-75436594D01*
X81844579Y-75448095D01*
X81841586Y-75450692D01*
X81838745Y-75455205D01*
X81835364Y-75459325D01*
X81833848Y-75462984D01*
X81825921Y-75475578D01*
X81754493Y-75618435D01*
X81743983Y-75645899D01*
X81743601Y-75651274D01*
X81741539Y-75656253D01*
X81738657Y-75685517D01*
X81738657Y-76106946D01*
X81174371Y-76106946D01*
X81145107Y-76109828D01*
X81091035Y-76132226D01*
X81049651Y-76173610D01*
X81027253Y-76227682D01*
X80357704Y-76227682D01*
X80357704Y-74084825D01*
X81027253Y-74084825D01*
X81027253Y-74143353D01*
X81049651Y-74197425D01*
X81091035Y-74238809D01*
X81145107Y-74261207D01*
X81174371Y-74264089D01*
X81924675Y-74264089D01*
X81991138Y-74297320D01*
X82024371Y-74363784D01*
X82024371Y-74507249D01*
X81979663Y-74596663D01*
X81969381Y-74606946D01*
X81174371Y-74606946D01*
X81145107Y-74609828D01*
X81091035Y-74632226D01*
X81049651Y-74673610D01*
X81027253Y-74727682D01*
X81027253Y-74786210D01*
X81049651Y-74840282D01*
X81091035Y-74881666D01*
X81145107Y-74904064D01*
X81174371Y-74906946D01*
X82674371Y-74906946D01*
X82703635Y-74904064D01*
X82757707Y-74881666D01*
X82799091Y-74840282D01*
X82821489Y-74786210D01*
X82821489Y-74727682D01*
X82799091Y-74673610D01*
X82757707Y-74632226D01*
X82703635Y-74609828D01*
X82674371Y-74606946D01*
X82309605Y-74606946D01*
X82319044Y-74582279D01*
X82319425Y-74576904D01*
X82321489Y-74571924D01*
X82324371Y-74542660D01*
X82324371Y-74328374D01*
X82321489Y-74299110D01*
X82319425Y-74294129D01*
X82319044Y-74288755D01*
X82308535Y-74261291D01*
X82237106Y-74118435D01*
X82234025Y-74113540D01*
X82233256Y-74111233D01*
X82230763Y-74108358D01*
X82221441Y-74093549D01*
X82207231Y-74081225D01*
X82194910Y-74067018D01*
X82180104Y-74057698D01*
X82177226Y-74055202D01*
X82174914Y-74054431D01*
X82170024Y-74051353D01*
X82027167Y-73979925D01*
X81999703Y-73969415D01*
X81994327Y-73969033D01*
X81989349Y-73966971D01*
X81960085Y-73964089D01*
X81174371Y-73964089D01*
X81145107Y-73966971D01*
X81091035Y-73989369D01*
X81049651Y-74030753D01*
X81027253Y-74084825D01*
X80357704Y-74084825D01*
X80357704Y-72899803D01*
X81024371Y-72899803D01*
X81024371Y-73256946D01*
X81027253Y-73286210D01*
X81029316Y-73291190D01*
X81029698Y-73296565D01*
X81040207Y-73324028D01*
X81111636Y-73466885D01*
X81114716Y-73471779D01*
X81115486Y-73474087D01*
X81117978Y-73476960D01*
X81127301Y-73491771D01*
X81141512Y-73504095D01*
X81153833Y-73518302D01*
X81168640Y-73527623D01*
X81171516Y-73530117D01*
X81173824Y-73530886D01*
X81178718Y-73533967D01*
X81321576Y-73605395D01*
X81349039Y-73615905D01*
X81354414Y-73616286D01*
X81359393Y-73618349D01*
X81388657Y-73621231D01*
X81531514Y-73621231D01*
X81560778Y-73618349D01*
X81565756Y-73616286D01*
X81571132Y-73615905D01*
X81598596Y-73605395D01*
X81741453Y-73533967D01*
X81746343Y-73530888D01*
X81748655Y-73530118D01*
X81751533Y-73527621D01*
X81766339Y-73518302D01*
X81778660Y-73504094D01*
X81792870Y-73491771D01*
X81802192Y-73476961D01*
X81804685Y-73474087D01*
X81805454Y-73471779D01*
X81808535Y-73466885D01*
X81879964Y-73324029D01*
X81890473Y-73296565D01*
X81890854Y-73291190D01*
X81892918Y-73286210D01*
X81895800Y-73256946D01*
X81895800Y-72935212D01*
X81909933Y-72906946D01*
X81924675Y-72906946D01*
X81991138Y-72940177D01*
X82024371Y-73006641D01*
X82024371Y-73221535D01*
X81968778Y-73332721D01*
X81958269Y-73360184D01*
X81954120Y-73418564D01*
X81972627Y-73474087D01*
X82010974Y-73518302D01*
X82063323Y-73544476D01*
X82121703Y-73548625D01*
X82177226Y-73530118D01*
X82221441Y-73491771D01*
X82237106Y-73466885D01*
X82308535Y-73324029D01*
X82319044Y-73296565D01*
X82319425Y-73291190D01*
X82321489Y-73286210D01*
X82324371Y-73256946D01*
X82324371Y-72971231D01*
X82321489Y-72941967D01*
X82319425Y-72936986D01*
X82319044Y-72931612D01*
X82308535Y-72904148D01*
X82237106Y-72761292D01*
X82234025Y-72756397D01*
X82233256Y-72754090D01*
X82230763Y-72751215D01*
X82221441Y-72736406D01*
X82207231Y-72724082D01*
X82194910Y-72709875D01*
X82180104Y-72700555D01*
X82177226Y-72698059D01*
X82174914Y-72697288D01*
X82170024Y-72694210D01*
X82027167Y-72622782D01*
X81999703Y-72612272D01*
X81994327Y-72611890D01*
X81989349Y-72609828D01*
X81960085Y-72606946D01*
X81174371Y-72606946D01*
X81145107Y-72609828D01*
X81091035Y-72632226D01*
X81049651Y-72673610D01*
X81027253Y-72727682D01*
X81027253Y-72786210D01*
X81043659Y-72825816D01*
X81040207Y-72832721D01*
X81029698Y-72860184D01*
X81029316Y-72865558D01*
X81027253Y-72870539D01*
X81024371Y-72899803D01*
X80357704Y-72899803D01*
X80357704Y-70727681D01*
X81027253Y-70727681D01*
X81027253Y-70786209D01*
X81049651Y-70840281D01*
X81091035Y-70881665D01*
X81145107Y-70904063D01*
X81174371Y-70906945D01*
X81924675Y-70906945D01*
X81991139Y-70940177D01*
X82024371Y-71006641D01*
X82024371Y-71150106D01*
X81991139Y-71216570D01*
X81924675Y-71249803D01*
X81174371Y-71249803D01*
X81145107Y-71252685D01*
X81091035Y-71275083D01*
X81049651Y-71316467D01*
X81027253Y-71370539D01*
X81027253Y-71429067D01*
X81049651Y-71483139D01*
X81091035Y-71524523D01*
X81145107Y-71546921D01*
X81174371Y-71549803D01*
X81924675Y-71549803D01*
X81991138Y-71583034D01*
X82024371Y-71649498D01*
X82024371Y-71792963D01*
X81979663Y-71882377D01*
X81969381Y-71892660D01*
X81174371Y-71892660D01*
X81145107Y-71895542D01*
X81091035Y-71917940D01*
X81049651Y-71959324D01*
X81027253Y-72013396D01*
X81027253Y-72071924D01*
X81049651Y-72125996D01*
X81091035Y-72167380D01*
X81145107Y-72189778D01*
X81174371Y-72192660D01*
X82174371Y-72192660D01*
X82203635Y-72189778D01*
X82257707Y-72167380D01*
X82299091Y-72125996D01*
X82321489Y-72071924D01*
X82321489Y-72013396D01*
X82299091Y-71959324D01*
X82284097Y-71944330D01*
X82308535Y-71895457D01*
X82319044Y-71867993D01*
X82319425Y-71862618D01*
X82321489Y-71857638D01*
X82324371Y-71828374D01*
X82324371Y-71614088D01*
X82321489Y-71584824D01*
X82319425Y-71579843D01*
X82319044Y-71574469D01*
X82308535Y-71547005D01*
X82237106Y-71404149D01*
X82234370Y-71399802D01*
X82237106Y-71395456D01*
X82308535Y-71252600D01*
X82319044Y-71225136D01*
X82319425Y-71219761D01*
X82321489Y-71214781D01*
X82324371Y-71185517D01*
X82324371Y-70971231D01*
X82321489Y-70941967D01*
X82319425Y-70936986D01*
X82319044Y-70931612D01*
X82308535Y-70904148D01*
X82237106Y-70761292D01*
X82234025Y-70756397D01*
X82233256Y-70754090D01*
X82230763Y-70751215D01*
X82221441Y-70736406D01*
X82207231Y-70724082D01*
X82194910Y-70709875D01*
X82180104Y-70700555D01*
X82177226Y-70698059D01*
X82174914Y-70697288D01*
X82170024Y-70694210D01*
X82027167Y-70622781D01*
X81999704Y-70612272D01*
X81994329Y-70611890D01*
X81989349Y-70609827D01*
X81960085Y-70606945D01*
X81174371Y-70606945D01*
X81145107Y-70609827D01*
X81091035Y-70632225D01*
X81049651Y-70673609D01*
X81027253Y-70727681D01*
X80357704Y-70727681D01*
X80357704Y-69799110D01*
X81027253Y-69799110D01*
X81027253Y-69857638D01*
X81049651Y-69911710D01*
X81091035Y-69953094D01*
X81145107Y-69975492D01*
X81174371Y-69978374D01*
X82524371Y-69978374D01*
X82524371Y-70256945D01*
X82527253Y-70286209D01*
X82549651Y-70340281D01*
X82591035Y-70381665D01*
X82645107Y-70404063D01*
X82703635Y-70404063D01*
X82757707Y-70381665D01*
X82799091Y-70340281D01*
X82821489Y-70286209D01*
X82824371Y-70256945D01*
X82824371Y-69399803D01*
X82821489Y-69370539D01*
X82799091Y-69316467D01*
X82757707Y-69275083D01*
X82703635Y-69252685D01*
X82645107Y-69252685D01*
X82591035Y-69275083D01*
X82549651Y-69316467D01*
X82527253Y-69370539D01*
X82524371Y-69399803D01*
X82524371Y-69678374D01*
X81174371Y-69678374D01*
X81145107Y-69681256D01*
X81091035Y-69703654D01*
X81049651Y-69745038D01*
X81027253Y-69799110D01*
X80357704Y-69799110D01*
X80357704Y-68471231D01*
X81024371Y-68471231D01*
X81024371Y-68685517D01*
X81027253Y-68714781D01*
X81029316Y-68719761D01*
X81029698Y-68725136D01*
X81040207Y-68752599D01*
X81111636Y-68895456D01*
X81114714Y-68900346D01*
X81115485Y-68902658D01*
X81117981Y-68905536D01*
X81127301Y-68920342D01*
X81141508Y-68932663D01*
X81153832Y-68946873D01*
X81168641Y-68956195D01*
X81171516Y-68958688D01*
X81173823Y-68959457D01*
X81178718Y-68962538D01*
X81321574Y-69033967D01*
X81349038Y-69044476D01*
X81354412Y-69044857D01*
X81359393Y-69046921D01*
X81388657Y-69049803D01*
X82174371Y-69049803D01*
X82203635Y-69046921D01*
X82257707Y-69024523D01*
X82299091Y-68983139D01*
X82321489Y-68929067D01*
X82321489Y-68870539D01*
X82299091Y-68816467D01*
X82257707Y-68775083D01*
X82203635Y-68752685D01*
X82174371Y-68749803D01*
X81424067Y-68749803D01*
X81357603Y-68716571D01*
X81324371Y-68650106D01*
X81324371Y-68506641D01*
X81369078Y-68417227D01*
X81379360Y-68406946D01*
X82174371Y-68406946D01*
X82203635Y-68404064D01*
X82257707Y-68381666D01*
X82299091Y-68340282D01*
X82321489Y-68286210D01*
X82321489Y-68227682D01*
X82299091Y-68173610D01*
X82257707Y-68132226D01*
X82203635Y-68109828D01*
X82174371Y-68106946D01*
X81174371Y-68106946D01*
X81145107Y-68109828D01*
X81091035Y-68132226D01*
X81049651Y-68173610D01*
X81027253Y-68227682D01*
X81027253Y-68286210D01*
X81049651Y-68340282D01*
X81064644Y-68355275D01*
X81040207Y-68404149D01*
X81029698Y-68431612D01*
X81029316Y-68436986D01*
X81027253Y-68441967D01*
X81024371Y-68471231D01*
X80357704Y-68471231D01*
X80357704Y-67042660D01*
X81024371Y-67042660D01*
X81024371Y-67399803D01*
X81027253Y-67429067D01*
X81029316Y-67434047D01*
X81029698Y-67439422D01*
X81040207Y-67466885D01*
X81111636Y-67609742D01*
X81114716Y-67614636D01*
X81115486Y-67616944D01*
X81117978Y-67619817D01*
X81127301Y-67634628D01*
X81141512Y-67646952D01*
X81153833Y-67661159D01*
X81168640Y-67670480D01*
X81171516Y-67672974D01*
X81173824Y-67673743D01*
X81178718Y-67676824D01*
X81321576Y-67748252D01*
X81349039Y-67758762D01*
X81354414Y-67759143D01*
X81359393Y-67761206D01*
X81388657Y-67764088D01*
X81531514Y-67764088D01*
X81560778Y-67761206D01*
X81565756Y-67759143D01*
X81571132Y-67758762D01*
X81598596Y-67748252D01*
X81741453Y-67676824D01*
X81746343Y-67673745D01*
X81748655Y-67672975D01*
X81751533Y-67670478D01*
X81766339Y-67661159D01*
X81778660Y-67646951D01*
X81792870Y-67634628D01*
X81802192Y-67619818D01*
X81804685Y-67616944D01*
X81805454Y-67614636D01*
X81808535Y-67609742D01*
X81879964Y-67466886D01*
X81890473Y-67439422D01*
X81890854Y-67434047D01*
X81892918Y-67429067D01*
X81895800Y-67399803D01*
X81895800Y-67078069D01*
X81909933Y-67049803D01*
X81924675Y-67049803D01*
X81991138Y-67083034D01*
X82024371Y-67149498D01*
X82024371Y-67364392D01*
X81968778Y-67475578D01*
X81958269Y-67503041D01*
X81954120Y-67561421D01*
X81972627Y-67616944D01*
X82010974Y-67661159D01*
X82063323Y-67687333D01*
X82121703Y-67691482D01*
X82177226Y-67672975D01*
X82221441Y-67634628D01*
X82237106Y-67609742D01*
X82308535Y-67466886D01*
X82319044Y-67439422D01*
X82319425Y-67434047D01*
X82321489Y-67429067D01*
X82324371Y-67399803D01*
X82324371Y-67114088D01*
X82321489Y-67084824D01*
X82319425Y-67079843D01*
X82319044Y-67074469D01*
X82308535Y-67047005D01*
X82237106Y-66904149D01*
X82234025Y-66899254D01*
X82233256Y-66896947D01*
X82230763Y-66894072D01*
X82221441Y-66879263D01*
X82207231Y-66866939D01*
X82194910Y-66852732D01*
X82180104Y-66843412D01*
X82177226Y-66840916D01*
X82174914Y-66840145D01*
X82170024Y-66837067D01*
X82027167Y-66765639D01*
X81999703Y-66755129D01*
X81994327Y-66754747D01*
X81989349Y-66752685D01*
X81960085Y-66749803D01*
X81174371Y-66749803D01*
X81145107Y-66752685D01*
X81091035Y-66775083D01*
X81049651Y-66816467D01*
X81027253Y-66870539D01*
X81027253Y-66929067D01*
X81043659Y-66968673D01*
X81040207Y-66975578D01*
X81029698Y-67003041D01*
X81029316Y-67008415D01*
X81027253Y-67013396D01*
X81024371Y-67042660D01*
X80357704Y-67042660D01*
X80357704Y-65513396D01*
X81027253Y-65513396D01*
X81027253Y-65571924D01*
X81049651Y-65625996D01*
X81091035Y-65667380D01*
X81145107Y-65689778D01*
X81174371Y-65692660D01*
X81924675Y-65692660D01*
X81991138Y-65725891D01*
X82024371Y-65792355D01*
X82024371Y-65935820D01*
X81979663Y-66025234D01*
X81969381Y-66035517D01*
X81174371Y-66035517D01*
X81145107Y-66038399D01*
X81091035Y-66060797D01*
X81049651Y-66102181D01*
X81027253Y-66156253D01*
X81027253Y-66214781D01*
X81049651Y-66268853D01*
X81091035Y-66310237D01*
X81145107Y-66332635D01*
X81174371Y-66335517D01*
X82174371Y-66335517D01*
X82203635Y-66332635D01*
X82257707Y-66310237D01*
X82299091Y-66268853D01*
X82321489Y-66214781D01*
X82321489Y-66156253D01*
X82299091Y-66102181D01*
X82284097Y-66087187D01*
X82308535Y-66038314D01*
X82319044Y-66010850D01*
X82319425Y-66005475D01*
X82321489Y-66000495D01*
X82324371Y-65971231D01*
X82324371Y-65756945D01*
X82321489Y-65727681D01*
X82319425Y-65722700D01*
X82319044Y-65717326D01*
X82308535Y-65689862D01*
X82237106Y-65547006D01*
X82234025Y-65542111D01*
X82233256Y-65539804D01*
X82230763Y-65536929D01*
X82221441Y-65522120D01*
X82207231Y-65509796D01*
X82194910Y-65495589D01*
X82180104Y-65486269D01*
X82177226Y-65483773D01*
X82174914Y-65483002D01*
X82170024Y-65479924D01*
X82027167Y-65408496D01*
X81999703Y-65397986D01*
X81994327Y-65397604D01*
X81989349Y-65395542D01*
X81960085Y-65392660D01*
X81174371Y-65392660D01*
X81145107Y-65395542D01*
X81091035Y-65417940D01*
X81049651Y-65459324D01*
X81027253Y-65513396D01*
X80357704Y-65513396D01*
X80357704Y-65225993D01*
X82991038Y-65225993D01*
X82991038Y-91430756D01*
G37*
D13*
X151303142Y-81112095D02*
X151641809Y-80628286D01*
X151883714Y-81112095D02*
X151883714Y-80096095D01*
X151883714Y-80096095D02*
X151496666Y-80096095D01*
X151496666Y-80096095D02*
X151399904Y-80144476D01*
X151399904Y-80144476D02*
X151351523Y-80192857D01*
X151351523Y-80192857D02*
X151303142Y-80289619D01*
X151303142Y-80289619D02*
X151303142Y-80434762D01*
X151303142Y-80434762D02*
X151351523Y-80531524D01*
X151351523Y-80531524D02*
X151399904Y-80579905D01*
X151399904Y-80579905D02*
X151496666Y-80628286D01*
X151496666Y-80628286D02*
X151883714Y-80628286D01*
X150335523Y-81112095D02*
X150916095Y-81112095D01*
X150625809Y-81112095D02*
X150625809Y-80096095D01*
X150625809Y-80096095D02*
X150722571Y-80241238D01*
X150722571Y-80241238D02*
X150819333Y-80338000D01*
X150819333Y-80338000D02*
X150916095Y-80386381D01*
X149367904Y-81112095D02*
X149948476Y-81112095D01*
X149658190Y-81112095D02*
X149658190Y-80096095D01*
X149658190Y-80096095D02*
X149754952Y-80241238D01*
X149754952Y-80241238D02*
X149851714Y-80338000D01*
X149851714Y-80338000D02*
X149948476Y-80386381D01*
X142675534Y-76053857D02*
X142723915Y-76005476D01*
X142723915Y-76005476D02*
X142772295Y-75860333D01*
X142772295Y-75860333D02*
X142772295Y-75763571D01*
X142772295Y-75763571D02*
X142723915Y-75618428D01*
X142723915Y-75618428D02*
X142627153Y-75521666D01*
X142627153Y-75521666D02*
X142530391Y-75473285D01*
X142530391Y-75473285D02*
X142336867Y-75424904D01*
X142336867Y-75424904D02*
X142191724Y-75424904D01*
X142191724Y-75424904D02*
X141998200Y-75473285D01*
X141998200Y-75473285D02*
X141901438Y-75521666D01*
X141901438Y-75521666D02*
X141804676Y-75618428D01*
X141804676Y-75618428D02*
X141756295Y-75763571D01*
X141756295Y-75763571D02*
X141756295Y-75860333D01*
X141756295Y-75860333D02*
X141804676Y-76005476D01*
X141804676Y-76005476D02*
X141853057Y-76053857D01*
X142772295Y-77021476D02*
X142772295Y-76440904D01*
X142772295Y-76731190D02*
X141756295Y-76731190D01*
X141756295Y-76731190D02*
X141901438Y-76634428D01*
X141901438Y-76634428D02*
X141998200Y-76537666D01*
X141998200Y-76537666D02*
X142046581Y-76440904D01*
X141756295Y-77360142D02*
X141756295Y-77989095D01*
X141756295Y-77989095D02*
X142143343Y-77650428D01*
X142143343Y-77650428D02*
X142143343Y-77795571D01*
X142143343Y-77795571D02*
X142191724Y-77892333D01*
X142191724Y-77892333D02*
X142240105Y-77940714D01*
X142240105Y-77940714D02*
X142336867Y-77989095D01*
X142336867Y-77989095D02*
X142578772Y-77989095D01*
X142578772Y-77989095D02*
X142675534Y-77940714D01*
X142675534Y-77940714D02*
X142723915Y-77892333D01*
X142723915Y-77892333D02*
X142772295Y-77795571D01*
X142772295Y-77795571D02*
X142772295Y-77505285D01*
X142772295Y-77505285D02*
X142723915Y-77408523D01*
X142723915Y-77408523D02*
X142675534Y-77360142D01*
X128804865Y-39240142D02*
X128756485Y-39288523D01*
X128756485Y-39288523D02*
X128708104Y-39433666D01*
X128708104Y-39433666D02*
X128708104Y-39530428D01*
X128708104Y-39530428D02*
X128756485Y-39675571D01*
X128756485Y-39675571D02*
X128853246Y-39772333D01*
X128853246Y-39772333D02*
X128950008Y-39820714D01*
X128950008Y-39820714D02*
X129143532Y-39869095D01*
X129143532Y-39869095D02*
X129288675Y-39869095D01*
X129288675Y-39869095D02*
X129482199Y-39820714D01*
X129482199Y-39820714D02*
X129578961Y-39772333D01*
X129578961Y-39772333D02*
X129675723Y-39675571D01*
X129675723Y-39675571D02*
X129724104Y-39530428D01*
X129724104Y-39530428D02*
X129724104Y-39433666D01*
X129724104Y-39433666D02*
X129675723Y-39288523D01*
X129675723Y-39288523D02*
X129627342Y-39240142D01*
X128708104Y-38272523D02*
X128708104Y-38853095D01*
X128708104Y-38562809D02*
X129724104Y-38562809D01*
X129724104Y-38562809D02*
X129578961Y-38659571D01*
X129578961Y-38659571D02*
X129482199Y-38756333D01*
X129482199Y-38756333D02*
X129433818Y-38853095D01*
X128708104Y-37788714D02*
X128708104Y-37595190D01*
X128708104Y-37595190D02*
X128756485Y-37498428D01*
X128756485Y-37498428D02*
X128804865Y-37450047D01*
X128804865Y-37450047D02*
X128950008Y-37353285D01*
X128950008Y-37353285D02*
X129143532Y-37304904D01*
X129143532Y-37304904D02*
X129530580Y-37304904D01*
X129530580Y-37304904D02*
X129627342Y-37353285D01*
X129627342Y-37353285D02*
X129675723Y-37401666D01*
X129675723Y-37401666D02*
X129724104Y-37498428D01*
X129724104Y-37498428D02*
X129724104Y-37691952D01*
X129724104Y-37691952D02*
X129675723Y-37788714D01*
X129675723Y-37788714D02*
X129627342Y-37837095D01*
X129627342Y-37837095D02*
X129530580Y-37885476D01*
X129530580Y-37885476D02*
X129288675Y-37885476D01*
X129288675Y-37885476D02*
X129191913Y-37837095D01*
X129191913Y-37837095D02*
X129143532Y-37788714D01*
X129143532Y-37788714D02*
X129095151Y-37691952D01*
X129095151Y-37691952D02*
X129095151Y-37498428D01*
X129095151Y-37498428D02*
X129143532Y-37401666D01*
X129143532Y-37401666D02*
X129191913Y-37353285D01*
X129191913Y-37353285D02*
X129288675Y-37304904D01*
X63968104Y-50750142D02*
X64451913Y-51088809D01*
X63968104Y-51330714D02*
X64984104Y-51330714D01*
X64984104Y-51330714D02*
X64984104Y-50943666D01*
X64984104Y-50943666D02*
X64935723Y-50846904D01*
X64935723Y-50846904D02*
X64887342Y-50798523D01*
X64887342Y-50798523D02*
X64790580Y-50750142D01*
X64790580Y-50750142D02*
X64645437Y-50750142D01*
X64645437Y-50750142D02*
X64548675Y-50798523D01*
X64548675Y-50798523D02*
X64500294Y-50846904D01*
X64500294Y-50846904D02*
X64451913Y-50943666D01*
X64451913Y-50943666D02*
X64451913Y-51330714D01*
X64887342Y-50363095D02*
X64935723Y-50314714D01*
X64935723Y-50314714D02*
X64984104Y-50217952D01*
X64984104Y-50217952D02*
X64984104Y-49976047D01*
X64984104Y-49976047D02*
X64935723Y-49879285D01*
X64935723Y-49879285D02*
X64887342Y-49830904D01*
X64887342Y-49830904D02*
X64790580Y-49782523D01*
X64790580Y-49782523D02*
X64693818Y-49782523D01*
X64693818Y-49782523D02*
X64548675Y-49830904D01*
X64548675Y-49830904D02*
X63968104Y-50411476D01*
X63968104Y-50411476D02*
X63968104Y-49782523D01*
X64645437Y-48911666D02*
X63968104Y-48911666D01*
X65032485Y-49153571D02*
X64306770Y-49395476D01*
X64306770Y-49395476D02*
X64306770Y-48766523D01*
D14*
X153066666Y-91854819D02*
X153399999Y-91378628D01*
X153638094Y-91854819D02*
X153638094Y-90854819D01*
X153638094Y-90854819D02*
X153257142Y-90854819D01*
X153257142Y-90854819D02*
X153161904Y-90902438D01*
X153161904Y-90902438D02*
X153114285Y-90950057D01*
X153114285Y-90950057D02*
X153066666Y-91045295D01*
X153066666Y-91045295D02*
X153066666Y-91188152D01*
X153066666Y-91188152D02*
X153114285Y-91283390D01*
X153114285Y-91283390D02*
X153161904Y-91331009D01*
X153161904Y-91331009D02*
X153257142Y-91378628D01*
X153257142Y-91378628D02*
X153638094Y-91378628D01*
X152209523Y-91188152D02*
X152209523Y-91854819D01*
X152447618Y-90807200D02*
X152685713Y-91521485D01*
X152685713Y-91521485D02*
X152066666Y-91521485D01*
D13*
X151419332Y-87565334D02*
X151467713Y-87613715D01*
X151467713Y-87613715D02*
X151612856Y-87662095D01*
X151612856Y-87662095D02*
X151709618Y-87662095D01*
X151709618Y-87662095D02*
X151854761Y-87613715D01*
X151854761Y-87613715D02*
X151951523Y-87516953D01*
X151951523Y-87516953D02*
X151999904Y-87420191D01*
X151999904Y-87420191D02*
X152048285Y-87226667D01*
X152048285Y-87226667D02*
X152048285Y-87081524D01*
X152048285Y-87081524D02*
X151999904Y-86888000D01*
X151999904Y-86888000D02*
X151951523Y-86791238D01*
X151951523Y-86791238D02*
X151854761Y-86694476D01*
X151854761Y-86694476D02*
X151709618Y-86646095D01*
X151709618Y-86646095D02*
X151612856Y-86646095D01*
X151612856Y-86646095D02*
X151467713Y-86694476D01*
X151467713Y-86694476D02*
X151419332Y-86742857D01*
X150935523Y-87662095D02*
X150741999Y-87662095D01*
X150741999Y-87662095D02*
X150645237Y-87613715D01*
X150645237Y-87613715D02*
X150596856Y-87565334D01*
X150596856Y-87565334D02*
X150500094Y-87420191D01*
X150500094Y-87420191D02*
X150451713Y-87226667D01*
X150451713Y-87226667D02*
X150451713Y-86839619D01*
X150451713Y-86839619D02*
X150500094Y-86742857D01*
X150500094Y-86742857D02*
X150548475Y-86694476D01*
X150548475Y-86694476D02*
X150645237Y-86646095D01*
X150645237Y-86646095D02*
X150838761Y-86646095D01*
X150838761Y-86646095D02*
X150935523Y-86694476D01*
X150935523Y-86694476D02*
X150983904Y-86742857D01*
X150983904Y-86742857D02*
X151032285Y-86839619D01*
X151032285Y-86839619D02*
X151032285Y-87081524D01*
X151032285Y-87081524D02*
X150983904Y-87178286D01*
X150983904Y-87178286D02*
X150935523Y-87226667D01*
X150935523Y-87226667D02*
X150838761Y-87275048D01*
X150838761Y-87275048D02*
X150645237Y-87275048D01*
X150645237Y-87275048D02*
X150548475Y-87226667D01*
X150548475Y-87226667D02*
X150500094Y-87178286D01*
X150500094Y-87178286D02*
X150451713Y-87081524D01*
X146172295Y-83697667D02*
X145688486Y-83359000D01*
X146172295Y-83117095D02*
X145156295Y-83117095D01*
X145156295Y-83117095D02*
X145156295Y-83504143D01*
X145156295Y-83504143D02*
X145204676Y-83600905D01*
X145204676Y-83600905D02*
X145253057Y-83649286D01*
X145253057Y-83649286D02*
X145349819Y-83697667D01*
X145349819Y-83697667D02*
X145494962Y-83697667D01*
X145494962Y-83697667D02*
X145591724Y-83649286D01*
X145591724Y-83649286D02*
X145640105Y-83600905D01*
X145640105Y-83600905D02*
X145688486Y-83504143D01*
X145688486Y-83504143D02*
X145688486Y-83117095D01*
X145156295Y-84036333D02*
X145156295Y-84665286D01*
X145156295Y-84665286D02*
X145543343Y-84326619D01*
X145543343Y-84326619D02*
X145543343Y-84471762D01*
X145543343Y-84471762D02*
X145591724Y-84568524D01*
X145591724Y-84568524D02*
X145640105Y-84616905D01*
X145640105Y-84616905D02*
X145736867Y-84665286D01*
X145736867Y-84665286D02*
X145978772Y-84665286D01*
X145978772Y-84665286D02*
X146075534Y-84616905D01*
X146075534Y-84616905D02*
X146123915Y-84568524D01*
X146123915Y-84568524D02*
X146172295Y-84471762D01*
X146172295Y-84471762D02*
X146172295Y-84181476D01*
X146172295Y-84181476D02*
X146123915Y-84084714D01*
X146123915Y-84084714D02*
X146075534Y-84036333D01*
X64678104Y-87800142D02*
X65161913Y-88138809D01*
X64678104Y-88380714D02*
X65694104Y-88380714D01*
X65694104Y-88380714D02*
X65694104Y-87993666D01*
X65694104Y-87993666D02*
X65645723Y-87896904D01*
X65645723Y-87896904D02*
X65597342Y-87848523D01*
X65597342Y-87848523D02*
X65500580Y-87800142D01*
X65500580Y-87800142D02*
X65355437Y-87800142D01*
X65355437Y-87800142D02*
X65258675Y-87848523D01*
X65258675Y-87848523D02*
X65210294Y-87896904D01*
X65210294Y-87896904D02*
X65161913Y-87993666D01*
X65161913Y-87993666D02*
X65161913Y-88380714D01*
X65597342Y-87413095D02*
X65645723Y-87364714D01*
X65645723Y-87364714D02*
X65694104Y-87267952D01*
X65694104Y-87267952D02*
X65694104Y-87026047D01*
X65694104Y-87026047D02*
X65645723Y-86929285D01*
X65645723Y-86929285D02*
X65597342Y-86880904D01*
X65597342Y-86880904D02*
X65500580Y-86832523D01*
X65500580Y-86832523D02*
X65403818Y-86832523D01*
X65403818Y-86832523D02*
X65258675Y-86880904D01*
X65258675Y-86880904D02*
X64678104Y-87461476D01*
X64678104Y-87461476D02*
X64678104Y-86832523D01*
X65694104Y-85913285D02*
X65694104Y-86397095D01*
X65694104Y-86397095D02*
X65210294Y-86445476D01*
X65210294Y-86445476D02*
X65258675Y-86397095D01*
X65258675Y-86397095D02*
X65307056Y-86300333D01*
X65307056Y-86300333D02*
X65307056Y-86058428D01*
X65307056Y-86058428D02*
X65258675Y-85961666D01*
X65258675Y-85961666D02*
X65210294Y-85913285D01*
X65210294Y-85913285D02*
X65113532Y-85864904D01*
X65113532Y-85864904D02*
X64871627Y-85864904D01*
X64871627Y-85864904D02*
X64774865Y-85913285D01*
X64774865Y-85913285D02*
X64726485Y-85961666D01*
X64726485Y-85961666D02*
X64678104Y-86058428D01*
X64678104Y-86058428D02*
X64678104Y-86300333D01*
X64678104Y-86300333D02*
X64726485Y-86397095D01*
X64726485Y-86397095D02*
X64774865Y-86445476D01*
X139883342Y-44792334D02*
X139931723Y-44840715D01*
X139931723Y-44840715D02*
X140076866Y-44889095D01*
X140076866Y-44889095D02*
X140173628Y-44889095D01*
X140173628Y-44889095D02*
X140318771Y-44840715D01*
X140318771Y-44840715D02*
X140415533Y-44743953D01*
X140415533Y-44743953D02*
X140463914Y-44647191D01*
X140463914Y-44647191D02*
X140512295Y-44453667D01*
X140512295Y-44453667D02*
X140512295Y-44308524D01*
X140512295Y-44308524D02*
X140463914Y-44115000D01*
X140463914Y-44115000D02*
X140415533Y-44018238D01*
X140415533Y-44018238D02*
X140318771Y-43921476D01*
X140318771Y-43921476D02*
X140173628Y-43873095D01*
X140173628Y-43873095D02*
X140076866Y-43873095D01*
X140076866Y-43873095D02*
X139931723Y-43921476D01*
X139931723Y-43921476D02*
X139883342Y-43969857D01*
X139496295Y-43969857D02*
X139447914Y-43921476D01*
X139447914Y-43921476D02*
X139351152Y-43873095D01*
X139351152Y-43873095D02*
X139109247Y-43873095D01*
X139109247Y-43873095D02*
X139012485Y-43921476D01*
X139012485Y-43921476D02*
X138964104Y-43969857D01*
X138964104Y-43969857D02*
X138915723Y-44066619D01*
X138915723Y-44066619D02*
X138915723Y-44163381D01*
X138915723Y-44163381D02*
X138964104Y-44308524D01*
X138964104Y-44308524D02*
X139544676Y-44889095D01*
X139544676Y-44889095D02*
X138915723Y-44889095D01*
X138528676Y-43969857D02*
X138480295Y-43921476D01*
X138480295Y-43921476D02*
X138383533Y-43873095D01*
X138383533Y-43873095D02*
X138141628Y-43873095D01*
X138141628Y-43873095D02*
X138044866Y-43921476D01*
X138044866Y-43921476D02*
X137996485Y-43969857D01*
X137996485Y-43969857D02*
X137948104Y-44066619D01*
X137948104Y-44066619D02*
X137948104Y-44163381D01*
X137948104Y-44163381D02*
X137996485Y-44308524D01*
X137996485Y-44308524D02*
X138577057Y-44889095D01*
X138577057Y-44889095D02*
X137948104Y-44889095D01*
X146883342Y-57439095D02*
X147222009Y-56955286D01*
X147463914Y-57439095D02*
X147463914Y-56423095D01*
X147463914Y-56423095D02*
X147076866Y-56423095D01*
X147076866Y-56423095D02*
X146980104Y-56471476D01*
X146980104Y-56471476D02*
X146931723Y-56519857D01*
X146931723Y-56519857D02*
X146883342Y-56616619D01*
X146883342Y-56616619D02*
X146883342Y-56761762D01*
X146883342Y-56761762D02*
X146931723Y-56858524D01*
X146931723Y-56858524D02*
X146980104Y-56906905D01*
X146980104Y-56906905D02*
X147076866Y-56955286D01*
X147076866Y-56955286D02*
X147463914Y-56955286D01*
X145915723Y-57439095D02*
X146496295Y-57439095D01*
X146206009Y-57439095D02*
X146206009Y-56423095D01*
X146206009Y-56423095D02*
X146302771Y-56568238D01*
X146302771Y-56568238D02*
X146399533Y-56665000D01*
X146399533Y-56665000D02*
X146496295Y-56713381D01*
X145577057Y-56423095D02*
X144948104Y-56423095D01*
X144948104Y-56423095D02*
X145286771Y-56810143D01*
X145286771Y-56810143D02*
X145141628Y-56810143D01*
X145141628Y-56810143D02*
X145044866Y-56858524D01*
X145044866Y-56858524D02*
X144996485Y-56906905D01*
X144996485Y-56906905D02*
X144948104Y-57003667D01*
X144948104Y-57003667D02*
X144948104Y-57245572D01*
X144948104Y-57245572D02*
X144996485Y-57342334D01*
X144996485Y-57342334D02*
X145044866Y-57390715D01*
X145044866Y-57390715D02*
X145141628Y-57439095D01*
X145141628Y-57439095D02*
X145431914Y-57439095D01*
X145431914Y-57439095D02*
X145528676Y-57390715D01*
X145528676Y-57390715D02*
X145577057Y-57342334D01*
X137602295Y-53603857D02*
X137118486Y-53265190D01*
X137602295Y-53023285D02*
X136586295Y-53023285D01*
X136586295Y-53023285D02*
X136586295Y-53410333D01*
X136586295Y-53410333D02*
X136634676Y-53507095D01*
X136634676Y-53507095D02*
X136683057Y-53555476D01*
X136683057Y-53555476D02*
X136779819Y-53603857D01*
X136779819Y-53603857D02*
X136924962Y-53603857D01*
X136924962Y-53603857D02*
X137021724Y-53555476D01*
X137021724Y-53555476D02*
X137070105Y-53507095D01*
X137070105Y-53507095D02*
X137118486Y-53410333D01*
X137118486Y-53410333D02*
X137118486Y-53023285D01*
X137602295Y-54571476D02*
X137602295Y-53990904D01*
X137602295Y-54281190D02*
X136586295Y-54281190D01*
X136586295Y-54281190D02*
X136731438Y-54184428D01*
X136731438Y-54184428D02*
X136828200Y-54087666D01*
X136828200Y-54087666D02*
X136876581Y-53990904D01*
X136924962Y-55442333D02*
X137602295Y-55442333D01*
X136537915Y-55200428D02*
X137263629Y-54958523D01*
X137263629Y-54958523D02*
X137263629Y-55587476D01*
X77704342Y-44468634D02*
X77752723Y-44517015D01*
X77752723Y-44517015D02*
X77897866Y-44565395D01*
X77897866Y-44565395D02*
X77994628Y-44565395D01*
X77994628Y-44565395D02*
X78139771Y-44517015D01*
X78139771Y-44517015D02*
X78236533Y-44420253D01*
X78236533Y-44420253D02*
X78284914Y-44323491D01*
X78284914Y-44323491D02*
X78333295Y-44129967D01*
X78333295Y-44129967D02*
X78333295Y-43984824D01*
X78333295Y-43984824D02*
X78284914Y-43791300D01*
X78284914Y-43791300D02*
X78236533Y-43694538D01*
X78236533Y-43694538D02*
X78139771Y-43597776D01*
X78139771Y-43597776D02*
X77994628Y-43549395D01*
X77994628Y-43549395D02*
X77897866Y-43549395D01*
X77897866Y-43549395D02*
X77752723Y-43597776D01*
X77752723Y-43597776D02*
X77704342Y-43646157D01*
X76833485Y-43888062D02*
X76833485Y-44565395D01*
X77075390Y-43501015D02*
X77317295Y-44226729D01*
X77317295Y-44226729D02*
X76688342Y-44226729D01*
X76156152Y-43984824D02*
X76252914Y-43936443D01*
X76252914Y-43936443D02*
X76301295Y-43888062D01*
X76301295Y-43888062D02*
X76349676Y-43791300D01*
X76349676Y-43791300D02*
X76349676Y-43742919D01*
X76349676Y-43742919D02*
X76301295Y-43646157D01*
X76301295Y-43646157D02*
X76252914Y-43597776D01*
X76252914Y-43597776D02*
X76156152Y-43549395D01*
X76156152Y-43549395D02*
X75962628Y-43549395D01*
X75962628Y-43549395D02*
X75865866Y-43597776D01*
X75865866Y-43597776D02*
X75817485Y-43646157D01*
X75817485Y-43646157D02*
X75769104Y-43742919D01*
X75769104Y-43742919D02*
X75769104Y-43791300D01*
X75769104Y-43791300D02*
X75817485Y-43888062D01*
X75817485Y-43888062D02*
X75865866Y-43936443D01*
X75865866Y-43936443D02*
X75962628Y-43984824D01*
X75962628Y-43984824D02*
X76156152Y-43984824D01*
X76156152Y-43984824D02*
X76252914Y-44033205D01*
X76252914Y-44033205D02*
X76301295Y-44081586D01*
X76301295Y-44081586D02*
X76349676Y-44178348D01*
X76349676Y-44178348D02*
X76349676Y-44371872D01*
X76349676Y-44371872D02*
X76301295Y-44468634D01*
X76301295Y-44468634D02*
X76252914Y-44517015D01*
X76252914Y-44517015D02*
X76156152Y-44565395D01*
X76156152Y-44565395D02*
X75962628Y-44565395D01*
X75962628Y-44565395D02*
X75865866Y-44517015D01*
X75865866Y-44517015D02*
X75817485Y-44468634D01*
X75817485Y-44468634D02*
X75769104Y-44371872D01*
X75769104Y-44371872D02*
X75769104Y-44178348D01*
X75769104Y-44178348D02*
X75817485Y-44081586D01*
X75817485Y-44081586D02*
X75865866Y-44033205D01*
X75865866Y-44033205D02*
X75962628Y-43984824D01*
X63953342Y-41549095D02*
X64292009Y-41065286D01*
X64533914Y-41549095D02*
X64533914Y-40533095D01*
X64533914Y-40533095D02*
X64146866Y-40533095D01*
X64146866Y-40533095D02*
X64050104Y-40581476D01*
X64050104Y-40581476D02*
X64001723Y-40629857D01*
X64001723Y-40629857D02*
X63953342Y-40726619D01*
X63953342Y-40726619D02*
X63953342Y-40871762D01*
X63953342Y-40871762D02*
X64001723Y-40968524D01*
X64001723Y-40968524D02*
X64050104Y-41016905D01*
X64050104Y-41016905D02*
X64146866Y-41065286D01*
X64146866Y-41065286D02*
X64533914Y-41065286D01*
X63614676Y-40533095D02*
X62985723Y-40533095D01*
X62985723Y-40533095D02*
X63324390Y-40920143D01*
X63324390Y-40920143D02*
X63179247Y-40920143D01*
X63179247Y-40920143D02*
X63082485Y-40968524D01*
X63082485Y-40968524D02*
X63034104Y-41016905D01*
X63034104Y-41016905D02*
X62985723Y-41113667D01*
X62985723Y-41113667D02*
X62985723Y-41355572D01*
X62985723Y-41355572D02*
X63034104Y-41452334D01*
X63034104Y-41452334D02*
X63082485Y-41500715D01*
X63082485Y-41500715D02*
X63179247Y-41549095D01*
X63179247Y-41549095D02*
X63469533Y-41549095D01*
X63469533Y-41549095D02*
X63566295Y-41500715D01*
X63566295Y-41500715D02*
X63614676Y-41452334D01*
X62598676Y-40629857D02*
X62550295Y-40581476D01*
X62550295Y-40581476D02*
X62453533Y-40533095D01*
X62453533Y-40533095D02*
X62211628Y-40533095D01*
X62211628Y-40533095D02*
X62114866Y-40581476D01*
X62114866Y-40581476D02*
X62066485Y-40629857D01*
X62066485Y-40629857D02*
X62018104Y-40726619D01*
X62018104Y-40726619D02*
X62018104Y-40823381D01*
X62018104Y-40823381D02*
X62066485Y-40968524D01*
X62066485Y-40968524D02*
X62647057Y-41549095D01*
X62647057Y-41549095D02*
X62018104Y-41549095D01*
X146123342Y-52419095D02*
X146462009Y-51935286D01*
X146703914Y-52419095D02*
X146703914Y-51403095D01*
X146703914Y-51403095D02*
X146316866Y-51403095D01*
X146316866Y-51403095D02*
X146220104Y-51451476D01*
X146220104Y-51451476D02*
X146171723Y-51499857D01*
X146171723Y-51499857D02*
X146123342Y-51596619D01*
X146123342Y-51596619D02*
X146123342Y-51741762D01*
X146123342Y-51741762D02*
X146171723Y-51838524D01*
X146171723Y-51838524D02*
X146220104Y-51886905D01*
X146220104Y-51886905D02*
X146316866Y-51935286D01*
X146316866Y-51935286D02*
X146703914Y-51935286D01*
X145155723Y-52419095D02*
X145736295Y-52419095D01*
X145446009Y-52419095D02*
X145446009Y-51403095D01*
X145446009Y-51403095D02*
X145542771Y-51548238D01*
X145542771Y-51548238D02*
X145639533Y-51645000D01*
X145639533Y-51645000D02*
X145736295Y-51693381D01*
X144768676Y-51499857D02*
X144720295Y-51451476D01*
X144720295Y-51451476D02*
X144623533Y-51403095D01*
X144623533Y-51403095D02*
X144381628Y-51403095D01*
X144381628Y-51403095D02*
X144284866Y-51451476D01*
X144284866Y-51451476D02*
X144236485Y-51499857D01*
X144236485Y-51499857D02*
X144188104Y-51596619D01*
X144188104Y-51596619D02*
X144188104Y-51693381D01*
X144188104Y-51693381D02*
X144236485Y-51838524D01*
X144236485Y-51838524D02*
X144817057Y-52419095D01*
X144817057Y-52419095D02*
X144188104Y-52419095D01*
X63978104Y-54590142D02*
X64461913Y-54928809D01*
X63978104Y-55170714D02*
X64994104Y-55170714D01*
X64994104Y-55170714D02*
X64994104Y-54783666D01*
X64994104Y-54783666D02*
X64945723Y-54686904D01*
X64945723Y-54686904D02*
X64897342Y-54638523D01*
X64897342Y-54638523D02*
X64800580Y-54590142D01*
X64800580Y-54590142D02*
X64655437Y-54590142D01*
X64655437Y-54590142D02*
X64558675Y-54638523D01*
X64558675Y-54638523D02*
X64510294Y-54686904D01*
X64510294Y-54686904D02*
X64461913Y-54783666D01*
X64461913Y-54783666D02*
X64461913Y-55170714D01*
X64897342Y-54203095D02*
X64945723Y-54154714D01*
X64945723Y-54154714D02*
X64994104Y-54057952D01*
X64994104Y-54057952D02*
X64994104Y-53816047D01*
X64994104Y-53816047D02*
X64945723Y-53719285D01*
X64945723Y-53719285D02*
X64897342Y-53670904D01*
X64897342Y-53670904D02*
X64800580Y-53622523D01*
X64800580Y-53622523D02*
X64703818Y-53622523D01*
X64703818Y-53622523D02*
X64558675Y-53670904D01*
X64558675Y-53670904D02*
X63978104Y-54251476D01*
X63978104Y-54251476D02*
X63978104Y-53622523D01*
X64994104Y-52751666D02*
X64994104Y-52945190D01*
X64994104Y-52945190D02*
X64945723Y-53041952D01*
X64945723Y-53041952D02*
X64897342Y-53090333D01*
X64897342Y-53090333D02*
X64752199Y-53187095D01*
X64752199Y-53187095D02*
X64558675Y-53235476D01*
X64558675Y-53235476D02*
X64171627Y-53235476D01*
X64171627Y-53235476D02*
X64074865Y-53187095D01*
X64074865Y-53187095D02*
X64026485Y-53138714D01*
X64026485Y-53138714D02*
X63978104Y-53041952D01*
X63978104Y-53041952D02*
X63978104Y-52848428D01*
X63978104Y-52848428D02*
X64026485Y-52751666D01*
X64026485Y-52751666D02*
X64074865Y-52703285D01*
X64074865Y-52703285D02*
X64171627Y-52654904D01*
X64171627Y-52654904D02*
X64413532Y-52654904D01*
X64413532Y-52654904D02*
X64510294Y-52703285D01*
X64510294Y-52703285D02*
X64558675Y-52751666D01*
X64558675Y-52751666D02*
X64607056Y-52848428D01*
X64607056Y-52848428D02*
X64607056Y-53041952D01*
X64607056Y-53041952D02*
X64558675Y-53138714D01*
X64558675Y-53138714D02*
X64510294Y-53187095D01*
X64510294Y-53187095D02*
X64413532Y-53235476D01*
X59505534Y-32613857D02*
X59553915Y-32565476D01*
X59553915Y-32565476D02*
X59602295Y-32420333D01*
X59602295Y-32420333D02*
X59602295Y-32323571D01*
X59602295Y-32323571D02*
X59553915Y-32178428D01*
X59553915Y-32178428D02*
X59457153Y-32081666D01*
X59457153Y-32081666D02*
X59360391Y-32033285D01*
X59360391Y-32033285D02*
X59166867Y-31984904D01*
X59166867Y-31984904D02*
X59021724Y-31984904D01*
X59021724Y-31984904D02*
X58828200Y-32033285D01*
X58828200Y-32033285D02*
X58731438Y-32081666D01*
X58731438Y-32081666D02*
X58634676Y-32178428D01*
X58634676Y-32178428D02*
X58586295Y-32323571D01*
X58586295Y-32323571D02*
X58586295Y-32420333D01*
X58586295Y-32420333D02*
X58634676Y-32565476D01*
X58634676Y-32565476D02*
X58683057Y-32613857D01*
X58924962Y-33484714D02*
X59602295Y-33484714D01*
X58537915Y-33242809D02*
X59263629Y-33000904D01*
X59263629Y-33000904D02*
X59263629Y-33629857D01*
X59602295Y-34065285D02*
X59602295Y-34258809D01*
X59602295Y-34258809D02*
X59553915Y-34355571D01*
X59553915Y-34355571D02*
X59505534Y-34403952D01*
X59505534Y-34403952D02*
X59360391Y-34500714D01*
X59360391Y-34500714D02*
X59166867Y-34549095D01*
X59166867Y-34549095D02*
X58779819Y-34549095D01*
X58779819Y-34549095D02*
X58683057Y-34500714D01*
X58683057Y-34500714D02*
X58634676Y-34452333D01*
X58634676Y-34452333D02*
X58586295Y-34355571D01*
X58586295Y-34355571D02*
X58586295Y-34162047D01*
X58586295Y-34162047D02*
X58634676Y-34065285D01*
X58634676Y-34065285D02*
X58683057Y-34016904D01*
X58683057Y-34016904D02*
X58779819Y-33968523D01*
X58779819Y-33968523D02*
X59021724Y-33968523D01*
X59021724Y-33968523D02*
X59118486Y-34016904D01*
X59118486Y-34016904D02*
X59166867Y-34065285D01*
X59166867Y-34065285D02*
X59215248Y-34162047D01*
X59215248Y-34162047D02*
X59215248Y-34355571D01*
X59215248Y-34355571D02*
X59166867Y-34452333D01*
X59166867Y-34452333D02*
X59118486Y-34500714D01*
X59118486Y-34500714D02*
X59021724Y-34549095D01*
X64038104Y-46980142D02*
X64521913Y-47318809D01*
X64038104Y-47560714D02*
X65054104Y-47560714D01*
X65054104Y-47560714D02*
X65054104Y-47173666D01*
X65054104Y-47173666D02*
X65005723Y-47076904D01*
X65005723Y-47076904D02*
X64957342Y-47028523D01*
X64957342Y-47028523D02*
X64860580Y-46980142D01*
X64860580Y-46980142D02*
X64715437Y-46980142D01*
X64715437Y-46980142D02*
X64618675Y-47028523D01*
X64618675Y-47028523D02*
X64570294Y-47076904D01*
X64570294Y-47076904D02*
X64521913Y-47173666D01*
X64521913Y-47173666D02*
X64521913Y-47560714D01*
X64957342Y-46593095D02*
X65005723Y-46544714D01*
X65005723Y-46544714D02*
X65054104Y-46447952D01*
X65054104Y-46447952D02*
X65054104Y-46206047D01*
X65054104Y-46206047D02*
X65005723Y-46109285D01*
X65005723Y-46109285D02*
X64957342Y-46060904D01*
X64957342Y-46060904D02*
X64860580Y-46012523D01*
X64860580Y-46012523D02*
X64763818Y-46012523D01*
X64763818Y-46012523D02*
X64618675Y-46060904D01*
X64618675Y-46060904D02*
X64038104Y-46641476D01*
X64038104Y-46641476D02*
X64038104Y-46012523D01*
X65054104Y-45673857D02*
X65054104Y-45044904D01*
X65054104Y-45044904D02*
X64667056Y-45383571D01*
X64667056Y-45383571D02*
X64667056Y-45238428D01*
X64667056Y-45238428D02*
X64618675Y-45141666D01*
X64618675Y-45141666D02*
X64570294Y-45093285D01*
X64570294Y-45093285D02*
X64473532Y-45044904D01*
X64473532Y-45044904D02*
X64231627Y-45044904D01*
X64231627Y-45044904D02*
X64134865Y-45093285D01*
X64134865Y-45093285D02*
X64086485Y-45141666D01*
X64086485Y-45141666D02*
X64038104Y-45238428D01*
X64038104Y-45238428D02*
X64038104Y-45528714D01*
X64038104Y-45528714D02*
X64086485Y-45625476D01*
X64086485Y-45625476D02*
X64134865Y-45673857D01*
X63118104Y-87800142D02*
X63601913Y-88138809D01*
X63118104Y-88380714D02*
X64134104Y-88380714D01*
X64134104Y-88380714D02*
X64134104Y-87993666D01*
X64134104Y-87993666D02*
X64085723Y-87896904D01*
X64085723Y-87896904D02*
X64037342Y-87848523D01*
X64037342Y-87848523D02*
X63940580Y-87800142D01*
X63940580Y-87800142D02*
X63795437Y-87800142D01*
X63795437Y-87800142D02*
X63698675Y-87848523D01*
X63698675Y-87848523D02*
X63650294Y-87896904D01*
X63650294Y-87896904D02*
X63601913Y-87993666D01*
X63601913Y-87993666D02*
X63601913Y-88380714D01*
X64037342Y-87413095D02*
X64085723Y-87364714D01*
X64085723Y-87364714D02*
X64134104Y-87267952D01*
X64134104Y-87267952D02*
X64134104Y-87026047D01*
X64134104Y-87026047D02*
X64085723Y-86929285D01*
X64085723Y-86929285D02*
X64037342Y-86880904D01*
X64037342Y-86880904D02*
X63940580Y-86832523D01*
X63940580Y-86832523D02*
X63843818Y-86832523D01*
X63843818Y-86832523D02*
X63698675Y-86880904D01*
X63698675Y-86880904D02*
X63118104Y-87461476D01*
X63118104Y-87461476D02*
X63118104Y-86832523D01*
X64134104Y-86493857D02*
X64134104Y-85816523D01*
X64134104Y-85816523D02*
X63118104Y-86251952D01*
X153896857Y-75234665D02*
X153848476Y-75186285D01*
X153848476Y-75186285D02*
X153703333Y-75137904D01*
X153703333Y-75137904D02*
X153606571Y-75137904D01*
X153606571Y-75137904D02*
X153461428Y-75186285D01*
X153461428Y-75186285D02*
X153364666Y-75283046D01*
X153364666Y-75283046D02*
X153316285Y-75379808D01*
X153316285Y-75379808D02*
X153267904Y-75573332D01*
X153267904Y-75573332D02*
X153267904Y-75718475D01*
X153267904Y-75718475D02*
X153316285Y-75911999D01*
X153316285Y-75911999D02*
X153364666Y-76008761D01*
X153364666Y-76008761D02*
X153461428Y-76105523D01*
X153461428Y-76105523D02*
X153606571Y-76153904D01*
X153606571Y-76153904D02*
X153703333Y-76153904D01*
X153703333Y-76153904D02*
X153848476Y-76105523D01*
X153848476Y-76105523D02*
X153896857Y-76057142D01*
X154864476Y-75137904D02*
X154283904Y-75137904D01*
X154574190Y-75137904D02*
X154574190Y-76153904D01*
X154574190Y-76153904D02*
X154477428Y-76008761D01*
X154477428Y-76008761D02*
X154380666Y-75911999D01*
X154380666Y-75911999D02*
X154283904Y-75863618D01*
X155493428Y-76153904D02*
X155590190Y-76153904D01*
X155590190Y-76153904D02*
X155686952Y-76105523D01*
X155686952Y-76105523D02*
X155735333Y-76057142D01*
X155735333Y-76057142D02*
X155783714Y-75960380D01*
X155783714Y-75960380D02*
X155832095Y-75766856D01*
X155832095Y-75766856D02*
X155832095Y-75524951D01*
X155832095Y-75524951D02*
X155783714Y-75331427D01*
X155783714Y-75331427D02*
X155735333Y-75234665D01*
X155735333Y-75234665D02*
X155686952Y-75186285D01*
X155686952Y-75186285D02*
X155590190Y-75137904D01*
X155590190Y-75137904D02*
X155493428Y-75137904D01*
X155493428Y-75137904D02*
X155396666Y-75186285D01*
X155396666Y-75186285D02*
X155348285Y-75234665D01*
X155348285Y-75234665D02*
X155299904Y-75331427D01*
X155299904Y-75331427D02*
X155251523Y-75524951D01*
X155251523Y-75524951D02*
X155251523Y-75766856D01*
X155251523Y-75766856D02*
X155299904Y-75960380D01*
X155299904Y-75960380D02*
X155348285Y-76057142D01*
X155348285Y-76057142D02*
X155396666Y-76105523D01*
X155396666Y-76105523D02*
X155493428Y-76153904D01*
X63963342Y-43429095D02*
X64302009Y-42945286D01*
X64543914Y-43429095D02*
X64543914Y-42413095D01*
X64543914Y-42413095D02*
X64156866Y-42413095D01*
X64156866Y-42413095D02*
X64060104Y-42461476D01*
X64060104Y-42461476D02*
X64011723Y-42509857D01*
X64011723Y-42509857D02*
X63963342Y-42606619D01*
X63963342Y-42606619D02*
X63963342Y-42751762D01*
X63963342Y-42751762D02*
X64011723Y-42848524D01*
X64011723Y-42848524D02*
X64060104Y-42896905D01*
X64060104Y-42896905D02*
X64156866Y-42945286D01*
X64156866Y-42945286D02*
X64543914Y-42945286D01*
X63624676Y-42413095D02*
X62995723Y-42413095D01*
X62995723Y-42413095D02*
X63334390Y-42800143D01*
X63334390Y-42800143D02*
X63189247Y-42800143D01*
X63189247Y-42800143D02*
X63092485Y-42848524D01*
X63092485Y-42848524D02*
X63044104Y-42896905D01*
X63044104Y-42896905D02*
X62995723Y-42993667D01*
X62995723Y-42993667D02*
X62995723Y-43235572D01*
X62995723Y-43235572D02*
X63044104Y-43332334D01*
X63044104Y-43332334D02*
X63092485Y-43380715D01*
X63092485Y-43380715D02*
X63189247Y-43429095D01*
X63189247Y-43429095D02*
X63479533Y-43429095D01*
X63479533Y-43429095D02*
X63576295Y-43380715D01*
X63576295Y-43380715D02*
X63624676Y-43332334D01*
X62028104Y-43429095D02*
X62608676Y-43429095D01*
X62318390Y-43429095D02*
X62318390Y-42413095D01*
X62318390Y-42413095D02*
X62415152Y-42558238D01*
X62415152Y-42558238D02*
X62511914Y-42655000D01*
X62511914Y-42655000D02*
X62608676Y-42703381D01*
X139412295Y-83197667D02*
X138928486Y-82859000D01*
X139412295Y-82617095D02*
X138396295Y-82617095D01*
X138396295Y-82617095D02*
X138396295Y-83004143D01*
X138396295Y-83004143D02*
X138444676Y-83100905D01*
X138444676Y-83100905D02*
X138493057Y-83149286D01*
X138493057Y-83149286D02*
X138589819Y-83197667D01*
X138589819Y-83197667D02*
X138734962Y-83197667D01*
X138734962Y-83197667D02*
X138831724Y-83149286D01*
X138831724Y-83149286D02*
X138880105Y-83100905D01*
X138880105Y-83100905D02*
X138928486Y-83004143D01*
X138928486Y-83004143D02*
X138928486Y-82617095D01*
X139412295Y-84165286D02*
X139412295Y-83584714D01*
X139412295Y-83875000D02*
X138396295Y-83875000D01*
X138396295Y-83875000D02*
X138541438Y-83778238D01*
X138541438Y-83778238D02*
X138638200Y-83681476D01*
X138638200Y-83681476D02*
X138686581Y-83584714D01*
X64058104Y-75640142D02*
X64541913Y-75978809D01*
X64058104Y-76220714D02*
X65074104Y-76220714D01*
X65074104Y-76220714D02*
X65074104Y-75833666D01*
X65074104Y-75833666D02*
X65025723Y-75736904D01*
X65025723Y-75736904D02*
X64977342Y-75688523D01*
X64977342Y-75688523D02*
X64880580Y-75640142D01*
X64880580Y-75640142D02*
X64735437Y-75640142D01*
X64735437Y-75640142D02*
X64638675Y-75688523D01*
X64638675Y-75688523D02*
X64590294Y-75736904D01*
X64590294Y-75736904D02*
X64541913Y-75833666D01*
X64541913Y-75833666D02*
X64541913Y-76220714D01*
X65074104Y-75301476D02*
X65074104Y-74672523D01*
X65074104Y-74672523D02*
X64687056Y-75011190D01*
X64687056Y-75011190D02*
X64687056Y-74866047D01*
X64687056Y-74866047D02*
X64638675Y-74769285D01*
X64638675Y-74769285D02*
X64590294Y-74720904D01*
X64590294Y-74720904D02*
X64493532Y-74672523D01*
X64493532Y-74672523D02*
X64251627Y-74672523D01*
X64251627Y-74672523D02*
X64154865Y-74720904D01*
X64154865Y-74720904D02*
X64106485Y-74769285D01*
X64106485Y-74769285D02*
X64058104Y-74866047D01*
X64058104Y-74866047D02*
X64058104Y-75156333D01*
X64058104Y-75156333D02*
X64106485Y-75253095D01*
X64106485Y-75253095D02*
X64154865Y-75301476D01*
X65074104Y-74043571D02*
X65074104Y-73946809D01*
X65074104Y-73946809D02*
X65025723Y-73850047D01*
X65025723Y-73850047D02*
X64977342Y-73801666D01*
X64977342Y-73801666D02*
X64880580Y-73753285D01*
X64880580Y-73753285D02*
X64687056Y-73704904D01*
X64687056Y-73704904D02*
X64445151Y-73704904D01*
X64445151Y-73704904D02*
X64251627Y-73753285D01*
X64251627Y-73753285D02*
X64154865Y-73801666D01*
X64154865Y-73801666D02*
X64106485Y-73850047D01*
X64106485Y-73850047D02*
X64058104Y-73946809D01*
X64058104Y-73946809D02*
X64058104Y-74043571D01*
X64058104Y-74043571D02*
X64106485Y-74140333D01*
X64106485Y-74140333D02*
X64154865Y-74188714D01*
X64154865Y-74188714D02*
X64251627Y-74237095D01*
X64251627Y-74237095D02*
X64445151Y-74285476D01*
X64445151Y-74285476D02*
X64687056Y-74285476D01*
X64687056Y-74285476D02*
X64880580Y-74237095D01*
X64880580Y-74237095D02*
X64977342Y-74188714D01*
X64977342Y-74188714D02*
X65025723Y-74140333D01*
X65025723Y-74140333D02*
X65074104Y-74043571D01*
X62205534Y-32523857D02*
X62253915Y-32475476D01*
X62253915Y-32475476D02*
X62302295Y-32330333D01*
X62302295Y-32330333D02*
X62302295Y-32233571D01*
X62302295Y-32233571D02*
X62253915Y-32088428D01*
X62253915Y-32088428D02*
X62157153Y-31991666D01*
X62157153Y-31991666D02*
X62060391Y-31943285D01*
X62060391Y-31943285D02*
X61866867Y-31894904D01*
X61866867Y-31894904D02*
X61721724Y-31894904D01*
X61721724Y-31894904D02*
X61528200Y-31943285D01*
X61528200Y-31943285D02*
X61431438Y-31991666D01*
X61431438Y-31991666D02*
X61334676Y-32088428D01*
X61334676Y-32088428D02*
X61286295Y-32233571D01*
X61286295Y-32233571D02*
X61286295Y-32330333D01*
X61286295Y-32330333D02*
X61334676Y-32475476D01*
X61334676Y-32475476D02*
X61383057Y-32523857D01*
X61286295Y-33443095D02*
X61286295Y-32959285D01*
X61286295Y-32959285D02*
X61770105Y-32910904D01*
X61770105Y-32910904D02*
X61721724Y-32959285D01*
X61721724Y-32959285D02*
X61673343Y-33056047D01*
X61673343Y-33056047D02*
X61673343Y-33297952D01*
X61673343Y-33297952D02*
X61721724Y-33394714D01*
X61721724Y-33394714D02*
X61770105Y-33443095D01*
X61770105Y-33443095D02*
X61866867Y-33491476D01*
X61866867Y-33491476D02*
X62108772Y-33491476D01*
X62108772Y-33491476D02*
X62205534Y-33443095D01*
X62205534Y-33443095D02*
X62253915Y-33394714D01*
X62253915Y-33394714D02*
X62302295Y-33297952D01*
X62302295Y-33297952D02*
X62302295Y-33056047D01*
X62302295Y-33056047D02*
X62253915Y-32959285D01*
X62253915Y-32959285D02*
X62205534Y-32910904D01*
X61286295Y-34120428D02*
X61286295Y-34217190D01*
X61286295Y-34217190D02*
X61334676Y-34313952D01*
X61334676Y-34313952D02*
X61383057Y-34362333D01*
X61383057Y-34362333D02*
X61479819Y-34410714D01*
X61479819Y-34410714D02*
X61673343Y-34459095D01*
X61673343Y-34459095D02*
X61915248Y-34459095D01*
X61915248Y-34459095D02*
X62108772Y-34410714D01*
X62108772Y-34410714D02*
X62205534Y-34362333D01*
X62205534Y-34362333D02*
X62253915Y-34313952D01*
X62253915Y-34313952D02*
X62302295Y-34217190D01*
X62302295Y-34217190D02*
X62302295Y-34120428D01*
X62302295Y-34120428D02*
X62253915Y-34023666D01*
X62253915Y-34023666D02*
X62205534Y-33975285D01*
X62205534Y-33975285D02*
X62108772Y-33926904D01*
X62108772Y-33926904D02*
X61915248Y-33878523D01*
X61915248Y-33878523D02*
X61673343Y-33878523D01*
X61673343Y-33878523D02*
X61479819Y-33926904D01*
X61479819Y-33926904D02*
X61383057Y-33975285D01*
X61383057Y-33975285D02*
X61334676Y-34023666D01*
X61334676Y-34023666D02*
X61286295Y-34120428D01*
D14*
X153066666Y-94554819D02*
X153399999Y-94078628D01*
X153638094Y-94554819D02*
X153638094Y-93554819D01*
X153638094Y-93554819D02*
X153257142Y-93554819D01*
X153257142Y-93554819D02*
X153161904Y-93602438D01*
X153161904Y-93602438D02*
X153114285Y-93650057D01*
X153114285Y-93650057D02*
X153066666Y-93745295D01*
X153066666Y-93745295D02*
X153066666Y-93888152D01*
X153066666Y-93888152D02*
X153114285Y-93983390D01*
X153114285Y-93983390D02*
X153161904Y-94031009D01*
X153161904Y-94031009D02*
X153257142Y-94078628D01*
X153257142Y-94078628D02*
X153638094Y-94078628D01*
X152161904Y-93554819D02*
X152638094Y-93554819D01*
X152638094Y-93554819D02*
X152685713Y-94031009D01*
X152685713Y-94031009D02*
X152638094Y-93983390D01*
X152638094Y-93983390D02*
X152542856Y-93935771D01*
X152542856Y-93935771D02*
X152304761Y-93935771D01*
X152304761Y-93935771D02*
X152209523Y-93983390D01*
X152209523Y-93983390D02*
X152161904Y-94031009D01*
X152161904Y-94031009D02*
X152114285Y-94126247D01*
X152114285Y-94126247D02*
X152114285Y-94364342D01*
X152114285Y-94364342D02*
X152161904Y-94459580D01*
X152161904Y-94459580D02*
X152209523Y-94507200D01*
X152209523Y-94507200D02*
X152304761Y-94554819D01*
X152304761Y-94554819D02*
X152542856Y-94554819D01*
X152542856Y-94554819D02*
X152638094Y-94507200D01*
X152638094Y-94507200D02*
X152685713Y-94459580D01*
D13*
X139902295Y-53553857D02*
X139418486Y-53215190D01*
X139902295Y-52973285D02*
X138886295Y-52973285D01*
X138886295Y-52973285D02*
X138886295Y-53360333D01*
X138886295Y-53360333D02*
X138934676Y-53457095D01*
X138934676Y-53457095D02*
X138983057Y-53505476D01*
X138983057Y-53505476D02*
X139079819Y-53553857D01*
X139079819Y-53553857D02*
X139224962Y-53553857D01*
X139224962Y-53553857D02*
X139321724Y-53505476D01*
X139321724Y-53505476D02*
X139370105Y-53457095D01*
X139370105Y-53457095D02*
X139418486Y-53360333D01*
X139418486Y-53360333D02*
X139418486Y-52973285D01*
X139902295Y-54521476D02*
X139902295Y-53940904D01*
X139902295Y-54231190D02*
X138886295Y-54231190D01*
X138886295Y-54231190D02*
X139031438Y-54134428D01*
X139031438Y-54134428D02*
X139128200Y-54037666D01*
X139128200Y-54037666D02*
X139176581Y-53940904D01*
X138886295Y-55440714D02*
X138886295Y-54956904D01*
X138886295Y-54956904D02*
X139370105Y-54908523D01*
X139370105Y-54908523D02*
X139321724Y-54956904D01*
X139321724Y-54956904D02*
X139273343Y-55053666D01*
X139273343Y-55053666D02*
X139273343Y-55295571D01*
X139273343Y-55295571D02*
X139321724Y-55392333D01*
X139321724Y-55392333D02*
X139370105Y-55440714D01*
X139370105Y-55440714D02*
X139466867Y-55489095D01*
X139466867Y-55489095D02*
X139708772Y-55489095D01*
X139708772Y-55489095D02*
X139805534Y-55440714D01*
X139805534Y-55440714D02*
X139853915Y-55392333D01*
X139853915Y-55392333D02*
X139902295Y-55295571D01*
X139902295Y-55295571D02*
X139902295Y-55053666D01*
X139902295Y-55053666D02*
X139853915Y-54956904D01*
X139853915Y-54956904D02*
X139805534Y-54908523D01*
X141925534Y-65073857D02*
X141973915Y-65025476D01*
X141973915Y-65025476D02*
X142022295Y-64880333D01*
X142022295Y-64880333D02*
X142022295Y-64783571D01*
X142022295Y-64783571D02*
X141973915Y-64638428D01*
X141973915Y-64638428D02*
X141877153Y-64541666D01*
X141877153Y-64541666D02*
X141780391Y-64493285D01*
X141780391Y-64493285D02*
X141586867Y-64444904D01*
X141586867Y-64444904D02*
X141441724Y-64444904D01*
X141441724Y-64444904D02*
X141248200Y-64493285D01*
X141248200Y-64493285D02*
X141151438Y-64541666D01*
X141151438Y-64541666D02*
X141054676Y-64638428D01*
X141054676Y-64638428D02*
X141006295Y-64783571D01*
X141006295Y-64783571D02*
X141006295Y-64880333D01*
X141006295Y-64880333D02*
X141054676Y-65025476D01*
X141054676Y-65025476D02*
X141103057Y-65073857D01*
X142022295Y-66041476D02*
X142022295Y-65460904D01*
X142022295Y-65751190D02*
X141006295Y-65751190D01*
X141006295Y-65751190D02*
X141151438Y-65654428D01*
X141151438Y-65654428D02*
X141248200Y-65557666D01*
X141248200Y-65557666D02*
X141296581Y-65460904D01*
X141006295Y-66912333D02*
X141006295Y-66718809D01*
X141006295Y-66718809D02*
X141054676Y-66622047D01*
X141054676Y-66622047D02*
X141103057Y-66573666D01*
X141103057Y-66573666D02*
X141248200Y-66476904D01*
X141248200Y-66476904D02*
X141441724Y-66428523D01*
X141441724Y-66428523D02*
X141828772Y-66428523D01*
X141828772Y-66428523D02*
X141925534Y-66476904D01*
X141925534Y-66476904D02*
X141973915Y-66525285D01*
X141973915Y-66525285D02*
X142022295Y-66622047D01*
X142022295Y-66622047D02*
X142022295Y-66815571D01*
X142022295Y-66815571D02*
X141973915Y-66912333D01*
X141973915Y-66912333D02*
X141925534Y-66960714D01*
X141925534Y-66960714D02*
X141828772Y-67009095D01*
X141828772Y-67009095D02*
X141586867Y-67009095D01*
X141586867Y-67009095D02*
X141490105Y-66960714D01*
X141490105Y-66960714D02*
X141441724Y-66912333D01*
X141441724Y-66912333D02*
X141393343Y-66815571D01*
X141393343Y-66815571D02*
X141393343Y-66622047D01*
X141393343Y-66622047D02*
X141441724Y-66525285D01*
X141441724Y-66525285D02*
X141490105Y-66476904D01*
X141490105Y-66476904D02*
X141586867Y-66428523D01*
X143184295Y-56773095D02*
X143184295Y-57595572D01*
X143184295Y-57595572D02*
X143135914Y-57692334D01*
X143135914Y-57692334D02*
X143087533Y-57740715D01*
X143087533Y-57740715D02*
X142990771Y-57789095D01*
X142990771Y-57789095D02*
X142797247Y-57789095D01*
X142797247Y-57789095D02*
X142700485Y-57740715D01*
X142700485Y-57740715D02*
X142652104Y-57692334D01*
X142652104Y-57692334D02*
X142603723Y-57595572D01*
X142603723Y-57595572D02*
X142603723Y-56773095D01*
X142216676Y-56773095D02*
X141587723Y-56773095D01*
X141587723Y-56773095D02*
X141926390Y-57160143D01*
X141926390Y-57160143D02*
X141781247Y-57160143D01*
X141781247Y-57160143D02*
X141684485Y-57208524D01*
X141684485Y-57208524D02*
X141636104Y-57256905D01*
X141636104Y-57256905D02*
X141587723Y-57353667D01*
X141587723Y-57353667D02*
X141587723Y-57595572D01*
X141587723Y-57595572D02*
X141636104Y-57692334D01*
X141636104Y-57692334D02*
X141684485Y-57740715D01*
X141684485Y-57740715D02*
X141781247Y-57789095D01*
X141781247Y-57789095D02*
X142071533Y-57789095D01*
X142071533Y-57789095D02*
X142168295Y-57740715D01*
X142168295Y-57740715D02*
X142216676Y-57692334D01*
X139803342Y-43492334D02*
X139851723Y-43540715D01*
X139851723Y-43540715D02*
X139996866Y-43589095D01*
X139996866Y-43589095D02*
X140093628Y-43589095D01*
X140093628Y-43589095D02*
X140238771Y-43540715D01*
X140238771Y-43540715D02*
X140335533Y-43443953D01*
X140335533Y-43443953D02*
X140383914Y-43347191D01*
X140383914Y-43347191D02*
X140432295Y-43153667D01*
X140432295Y-43153667D02*
X140432295Y-43008524D01*
X140432295Y-43008524D02*
X140383914Y-42815000D01*
X140383914Y-42815000D02*
X140335533Y-42718238D01*
X140335533Y-42718238D02*
X140238771Y-42621476D01*
X140238771Y-42621476D02*
X140093628Y-42573095D01*
X140093628Y-42573095D02*
X139996866Y-42573095D01*
X139996866Y-42573095D02*
X139851723Y-42621476D01*
X139851723Y-42621476D02*
X139803342Y-42669857D01*
X139416295Y-42669857D02*
X139367914Y-42621476D01*
X139367914Y-42621476D02*
X139271152Y-42573095D01*
X139271152Y-42573095D02*
X139029247Y-42573095D01*
X139029247Y-42573095D02*
X138932485Y-42621476D01*
X138932485Y-42621476D02*
X138884104Y-42669857D01*
X138884104Y-42669857D02*
X138835723Y-42766619D01*
X138835723Y-42766619D02*
X138835723Y-42863381D01*
X138835723Y-42863381D02*
X138884104Y-43008524D01*
X138884104Y-43008524D02*
X139464676Y-43589095D01*
X139464676Y-43589095D02*
X138835723Y-43589095D01*
X137868104Y-43589095D02*
X138448676Y-43589095D01*
X138158390Y-43589095D02*
X138158390Y-42573095D01*
X138158390Y-42573095D02*
X138255152Y-42718238D01*
X138255152Y-42718238D02*
X138351914Y-42815000D01*
X138351914Y-42815000D02*
X138448676Y-42863381D01*
X127502295Y-113357667D02*
X127018486Y-113019000D01*
X127502295Y-112777095D02*
X126486295Y-112777095D01*
X126486295Y-112777095D02*
X126486295Y-113164143D01*
X126486295Y-113164143D02*
X126534676Y-113260905D01*
X126534676Y-113260905D02*
X126583057Y-113309286D01*
X126583057Y-113309286D02*
X126679819Y-113357667D01*
X126679819Y-113357667D02*
X126824962Y-113357667D01*
X126824962Y-113357667D02*
X126921724Y-113309286D01*
X126921724Y-113309286D02*
X126970105Y-113260905D01*
X126970105Y-113260905D02*
X127018486Y-113164143D01*
X127018486Y-113164143D02*
X127018486Y-112777095D01*
X126921724Y-113938238D02*
X126873343Y-113841476D01*
X126873343Y-113841476D02*
X126824962Y-113793095D01*
X126824962Y-113793095D02*
X126728200Y-113744714D01*
X126728200Y-113744714D02*
X126679819Y-113744714D01*
X126679819Y-113744714D02*
X126583057Y-113793095D01*
X126583057Y-113793095D02*
X126534676Y-113841476D01*
X126534676Y-113841476D02*
X126486295Y-113938238D01*
X126486295Y-113938238D02*
X126486295Y-114131762D01*
X126486295Y-114131762D02*
X126534676Y-114228524D01*
X126534676Y-114228524D02*
X126583057Y-114276905D01*
X126583057Y-114276905D02*
X126679819Y-114325286D01*
X126679819Y-114325286D02*
X126728200Y-114325286D01*
X126728200Y-114325286D02*
X126824962Y-114276905D01*
X126824962Y-114276905D02*
X126873343Y-114228524D01*
X126873343Y-114228524D02*
X126921724Y-114131762D01*
X126921724Y-114131762D02*
X126921724Y-113938238D01*
X126921724Y-113938238D02*
X126970105Y-113841476D01*
X126970105Y-113841476D02*
X127018486Y-113793095D01*
X127018486Y-113793095D02*
X127115248Y-113744714D01*
X127115248Y-113744714D02*
X127308772Y-113744714D01*
X127308772Y-113744714D02*
X127405534Y-113793095D01*
X127405534Y-113793095D02*
X127453915Y-113841476D01*
X127453915Y-113841476D02*
X127502295Y-113938238D01*
X127502295Y-113938238D02*
X127502295Y-114131762D01*
X127502295Y-114131762D02*
X127453915Y-114228524D01*
X127453915Y-114228524D02*
X127405534Y-114276905D01*
X127405534Y-114276905D02*
X127308772Y-114325286D01*
X127308772Y-114325286D02*
X127115248Y-114325286D01*
X127115248Y-114325286D02*
X127018486Y-114276905D01*
X127018486Y-114276905D02*
X126970105Y-114228524D01*
X126970105Y-114228524D02*
X126921724Y-114131762D01*
X63918104Y-62100142D02*
X64401913Y-62438809D01*
X63918104Y-62680714D02*
X64934104Y-62680714D01*
X64934104Y-62680714D02*
X64934104Y-62293666D01*
X64934104Y-62293666D02*
X64885723Y-62196904D01*
X64885723Y-62196904D02*
X64837342Y-62148523D01*
X64837342Y-62148523D02*
X64740580Y-62100142D01*
X64740580Y-62100142D02*
X64595437Y-62100142D01*
X64595437Y-62100142D02*
X64498675Y-62148523D01*
X64498675Y-62148523D02*
X64450294Y-62196904D01*
X64450294Y-62196904D02*
X64401913Y-62293666D01*
X64401913Y-62293666D02*
X64401913Y-62680714D01*
X64837342Y-61713095D02*
X64885723Y-61664714D01*
X64885723Y-61664714D02*
X64934104Y-61567952D01*
X64934104Y-61567952D02*
X64934104Y-61326047D01*
X64934104Y-61326047D02*
X64885723Y-61229285D01*
X64885723Y-61229285D02*
X64837342Y-61180904D01*
X64837342Y-61180904D02*
X64740580Y-61132523D01*
X64740580Y-61132523D02*
X64643818Y-61132523D01*
X64643818Y-61132523D02*
X64498675Y-61180904D01*
X64498675Y-61180904D02*
X63918104Y-61761476D01*
X63918104Y-61761476D02*
X63918104Y-61132523D01*
X64498675Y-60551952D02*
X64547056Y-60648714D01*
X64547056Y-60648714D02*
X64595437Y-60697095D01*
X64595437Y-60697095D02*
X64692199Y-60745476D01*
X64692199Y-60745476D02*
X64740580Y-60745476D01*
X64740580Y-60745476D02*
X64837342Y-60697095D01*
X64837342Y-60697095D02*
X64885723Y-60648714D01*
X64885723Y-60648714D02*
X64934104Y-60551952D01*
X64934104Y-60551952D02*
X64934104Y-60358428D01*
X64934104Y-60358428D02*
X64885723Y-60261666D01*
X64885723Y-60261666D02*
X64837342Y-60213285D01*
X64837342Y-60213285D02*
X64740580Y-60164904D01*
X64740580Y-60164904D02*
X64692199Y-60164904D01*
X64692199Y-60164904D02*
X64595437Y-60213285D01*
X64595437Y-60213285D02*
X64547056Y-60261666D01*
X64547056Y-60261666D02*
X64498675Y-60358428D01*
X64498675Y-60358428D02*
X64498675Y-60551952D01*
X64498675Y-60551952D02*
X64450294Y-60648714D01*
X64450294Y-60648714D02*
X64401913Y-60697095D01*
X64401913Y-60697095D02*
X64305151Y-60745476D01*
X64305151Y-60745476D02*
X64111627Y-60745476D01*
X64111627Y-60745476D02*
X64014865Y-60697095D01*
X64014865Y-60697095D02*
X63966485Y-60648714D01*
X63966485Y-60648714D02*
X63918104Y-60551952D01*
X63918104Y-60551952D02*
X63918104Y-60358428D01*
X63918104Y-60358428D02*
X63966485Y-60261666D01*
X63966485Y-60261666D02*
X64014865Y-60213285D01*
X64014865Y-60213285D02*
X64111627Y-60164904D01*
X64111627Y-60164904D02*
X64305151Y-60164904D01*
X64305151Y-60164904D02*
X64401913Y-60213285D01*
X64401913Y-60213285D02*
X64450294Y-60261666D01*
X64450294Y-60261666D02*
X64498675Y-60358428D01*
X143102295Y-83157667D02*
X142618486Y-82819000D01*
X143102295Y-82577095D02*
X142086295Y-82577095D01*
X142086295Y-82577095D02*
X142086295Y-82964143D01*
X142086295Y-82964143D02*
X142134676Y-83060905D01*
X142134676Y-83060905D02*
X142183057Y-83109286D01*
X142183057Y-83109286D02*
X142279819Y-83157667D01*
X142279819Y-83157667D02*
X142424962Y-83157667D01*
X142424962Y-83157667D02*
X142521724Y-83109286D01*
X142521724Y-83109286D02*
X142570105Y-83060905D01*
X142570105Y-83060905D02*
X142618486Y-82964143D01*
X142618486Y-82964143D02*
X142618486Y-82577095D01*
X142183057Y-83544714D02*
X142134676Y-83593095D01*
X142134676Y-83593095D02*
X142086295Y-83689857D01*
X142086295Y-83689857D02*
X142086295Y-83931762D01*
X142086295Y-83931762D02*
X142134676Y-84028524D01*
X142134676Y-84028524D02*
X142183057Y-84076905D01*
X142183057Y-84076905D02*
X142279819Y-84125286D01*
X142279819Y-84125286D02*
X142376581Y-84125286D01*
X142376581Y-84125286D02*
X142521724Y-84076905D01*
X142521724Y-84076905D02*
X143102295Y-83496333D01*
X143102295Y-83496333D02*
X143102295Y-84125286D01*
X77724342Y-41818634D02*
X77772723Y-41867015D01*
X77772723Y-41867015D02*
X77917866Y-41915395D01*
X77917866Y-41915395D02*
X78014628Y-41915395D01*
X78014628Y-41915395D02*
X78159771Y-41867015D01*
X78159771Y-41867015D02*
X78256533Y-41770253D01*
X78256533Y-41770253D02*
X78304914Y-41673491D01*
X78304914Y-41673491D02*
X78353295Y-41479967D01*
X78353295Y-41479967D02*
X78353295Y-41334824D01*
X78353295Y-41334824D02*
X78304914Y-41141300D01*
X78304914Y-41141300D02*
X78256533Y-41044538D01*
X78256533Y-41044538D02*
X78159771Y-40947776D01*
X78159771Y-40947776D02*
X78014628Y-40899395D01*
X78014628Y-40899395D02*
X77917866Y-40899395D01*
X77917866Y-40899395D02*
X77772723Y-40947776D01*
X77772723Y-40947776D02*
X77724342Y-40996157D01*
X76853485Y-41238062D02*
X76853485Y-41915395D01*
X77095390Y-40851015D02*
X77337295Y-41576729D01*
X77337295Y-41576729D02*
X76708342Y-41576729D01*
X76418057Y-40899395D02*
X75740723Y-40899395D01*
X75740723Y-40899395D02*
X76176152Y-41915395D01*
X62448104Y-75640142D02*
X62931913Y-75978809D01*
X62448104Y-76220714D02*
X63464104Y-76220714D01*
X63464104Y-76220714D02*
X63464104Y-75833666D01*
X63464104Y-75833666D02*
X63415723Y-75736904D01*
X63415723Y-75736904D02*
X63367342Y-75688523D01*
X63367342Y-75688523D02*
X63270580Y-75640142D01*
X63270580Y-75640142D02*
X63125437Y-75640142D01*
X63125437Y-75640142D02*
X63028675Y-75688523D01*
X63028675Y-75688523D02*
X62980294Y-75736904D01*
X62980294Y-75736904D02*
X62931913Y-75833666D01*
X62931913Y-75833666D02*
X62931913Y-76220714D01*
X63367342Y-75253095D02*
X63415723Y-75204714D01*
X63415723Y-75204714D02*
X63464104Y-75107952D01*
X63464104Y-75107952D02*
X63464104Y-74866047D01*
X63464104Y-74866047D02*
X63415723Y-74769285D01*
X63415723Y-74769285D02*
X63367342Y-74720904D01*
X63367342Y-74720904D02*
X63270580Y-74672523D01*
X63270580Y-74672523D02*
X63173818Y-74672523D01*
X63173818Y-74672523D02*
X63028675Y-74720904D01*
X63028675Y-74720904D02*
X62448104Y-75301476D01*
X62448104Y-75301476D02*
X62448104Y-74672523D01*
X62448104Y-74188714D02*
X62448104Y-73995190D01*
X62448104Y-73995190D02*
X62496485Y-73898428D01*
X62496485Y-73898428D02*
X62544865Y-73850047D01*
X62544865Y-73850047D02*
X62690008Y-73753285D01*
X62690008Y-73753285D02*
X62883532Y-73704904D01*
X62883532Y-73704904D02*
X63270580Y-73704904D01*
X63270580Y-73704904D02*
X63367342Y-73753285D01*
X63367342Y-73753285D02*
X63415723Y-73801666D01*
X63415723Y-73801666D02*
X63464104Y-73898428D01*
X63464104Y-73898428D02*
X63464104Y-74091952D01*
X63464104Y-74091952D02*
X63415723Y-74188714D01*
X63415723Y-74188714D02*
X63367342Y-74237095D01*
X63367342Y-74237095D02*
X63270580Y-74285476D01*
X63270580Y-74285476D02*
X63028675Y-74285476D01*
X63028675Y-74285476D02*
X62931913Y-74237095D01*
X62931913Y-74237095D02*
X62883532Y-74188714D01*
X62883532Y-74188714D02*
X62835151Y-74091952D01*
X62835151Y-74091952D02*
X62835151Y-73898428D01*
X62835151Y-73898428D02*
X62883532Y-73801666D01*
X62883532Y-73801666D02*
X62931913Y-73753285D01*
X62931913Y-73753285D02*
X63028675Y-73704904D01*
X131274865Y-39270142D02*
X131226485Y-39318523D01*
X131226485Y-39318523D02*
X131178104Y-39463666D01*
X131178104Y-39463666D02*
X131178104Y-39560428D01*
X131178104Y-39560428D02*
X131226485Y-39705571D01*
X131226485Y-39705571D02*
X131323246Y-39802333D01*
X131323246Y-39802333D02*
X131420008Y-39850714D01*
X131420008Y-39850714D02*
X131613532Y-39899095D01*
X131613532Y-39899095D02*
X131758675Y-39899095D01*
X131758675Y-39899095D02*
X131952199Y-39850714D01*
X131952199Y-39850714D02*
X132048961Y-39802333D01*
X132048961Y-39802333D02*
X132145723Y-39705571D01*
X132145723Y-39705571D02*
X132194104Y-39560428D01*
X132194104Y-39560428D02*
X132194104Y-39463666D01*
X132194104Y-39463666D02*
X132145723Y-39318523D01*
X132145723Y-39318523D02*
X132097342Y-39270142D01*
X132097342Y-38883095D02*
X132145723Y-38834714D01*
X132145723Y-38834714D02*
X132194104Y-38737952D01*
X132194104Y-38737952D02*
X132194104Y-38496047D01*
X132194104Y-38496047D02*
X132145723Y-38399285D01*
X132145723Y-38399285D02*
X132097342Y-38350904D01*
X132097342Y-38350904D02*
X132000580Y-38302523D01*
X132000580Y-38302523D02*
X131903818Y-38302523D01*
X131903818Y-38302523D02*
X131758675Y-38350904D01*
X131758675Y-38350904D02*
X131178104Y-38931476D01*
X131178104Y-38931476D02*
X131178104Y-38302523D01*
X132194104Y-37673571D02*
X132194104Y-37576809D01*
X132194104Y-37576809D02*
X132145723Y-37480047D01*
X132145723Y-37480047D02*
X132097342Y-37431666D01*
X132097342Y-37431666D02*
X132000580Y-37383285D01*
X132000580Y-37383285D02*
X131807056Y-37334904D01*
X131807056Y-37334904D02*
X131565151Y-37334904D01*
X131565151Y-37334904D02*
X131371627Y-37383285D01*
X131371627Y-37383285D02*
X131274865Y-37431666D01*
X131274865Y-37431666D02*
X131226485Y-37480047D01*
X131226485Y-37480047D02*
X131178104Y-37576809D01*
X131178104Y-37576809D02*
X131178104Y-37673571D01*
X131178104Y-37673571D02*
X131226485Y-37770333D01*
X131226485Y-37770333D02*
X131274865Y-37818714D01*
X131274865Y-37818714D02*
X131371627Y-37867095D01*
X131371627Y-37867095D02*
X131565151Y-37915476D01*
X131565151Y-37915476D02*
X131807056Y-37915476D01*
X131807056Y-37915476D02*
X132000580Y-37867095D01*
X132000580Y-37867095D02*
X132097342Y-37818714D01*
X132097342Y-37818714D02*
X132145723Y-37770333D01*
X132145723Y-37770333D02*
X132194104Y-37673571D01*
D15*
%TO.C,R11*%
X150497136Y-81407600D02*
X150951264Y-81407600D01*
X150498672Y-83084000D02*
X150952800Y-83084000D01*
%TO.C,C13*%
X134420200Y-74351437D02*
X135484637Y-73287000D01*
X134420200Y-80107000D02*
X134420200Y-74351437D01*
X135982700Y-73047000D02*
X135982700Y-72259500D01*
X136376450Y-72653250D02*
X135588950Y-72653250D01*
X136770200Y-73287000D02*
X135484637Y-73287000D01*
X136770200Y-80107000D02*
X134420200Y-80107000D01*
X138890200Y-73287000D02*
X140175763Y-73287000D01*
X138890200Y-80107000D02*
X141240200Y-80107000D01*
X141240200Y-74351437D02*
X140175763Y-73287000D01*
X141240200Y-80107000D02*
X141240200Y-74351437D01*
D16*
%TO.C,C19*%
X128307700Y-32642000D02*
X128307700Y-35842000D01*
X130267700Y-32642000D02*
X130267700Y-35842000D01*
D17*
X129387700Y-36992000D02*
G75*
G02*
X129187700Y-36992000I-100000J0D01*
G01*
X129187700Y-36992000D02*
G75*
G02*
X129387700Y-36992000I100000J0D01*
G01*
D15*
%TO.C,R24*%
X62495400Y-49827742D02*
X62495400Y-50302258D01*
X63740000Y-49827742D02*
X63740000Y-50302258D01*
%TO.C,R4*%
X148672936Y-93190000D02*
X150127064Y-93190000D01*
X148672936Y-95010000D02*
X150127064Y-95010000D01*
%TO.C,C9*%
X150542848Y-84304400D02*
X151965352Y-84304400D01*
X150542848Y-86412600D02*
X151965352Y-86412600D01*
%TO.C,R3*%
X145030400Y-86546258D02*
X145030400Y-86071742D01*
X146275000Y-86546258D02*
X146275000Y-86071742D01*
%TO.C,R25*%
X64555400Y-83947742D02*
X64555400Y-84422258D01*
X65800000Y-83947742D02*
X65800000Y-84422258D01*
D16*
%TO.C,C22*%
X137425200Y-40254500D02*
X140625200Y-40254500D01*
X137425200Y-42214500D02*
X140625200Y-42214500D01*
D17*
X141875200Y-41234500D02*
G75*
G02*
X141675200Y-41234500I-100000J0D01*
G01*
X141675200Y-41234500D02*
G75*
G02*
X141875200Y-41234500I100000J0D01*
G01*
D15*
%TO.C,R13*%
X146469458Y-57732200D02*
X145994942Y-57732200D01*
X146469458Y-58976800D02*
X145994942Y-58976800D01*
%TO.C,R14*%
X136223200Y-57155472D02*
X136223200Y-57609600D01*
X137899600Y-57153936D02*
X137899600Y-57608064D01*
D16*
%TO.C,C48*%
X72135200Y-44739500D02*
X75335200Y-44739500D01*
X72135200Y-46699500D02*
X75335200Y-46699500D01*
D17*
X76585200Y-45719500D02*
G75*
G02*
X76385200Y-45719500I-100000J0D01*
G01*
X76385200Y-45719500D02*
G75*
G02*
X76585200Y-45719500I100000J0D01*
G01*
D15*
%TO.C,R32*%
X60170942Y-40467200D02*
X60645458Y-40467200D01*
X60170942Y-41711800D02*
X60645458Y-41711800D01*
%TO.C,R12*%
X144743136Y-52867000D02*
X146197264Y-52867000D01*
X144743136Y-54687000D02*
X146197264Y-54687000D01*
%TO.C,R26*%
X62495400Y-53717742D02*
X62495400Y-54192258D01*
X63740000Y-53717742D02*
X63740000Y-54192258D01*
D16*
%TO.C,C49*%
X58092700Y-38862000D02*
X58092700Y-35662000D01*
X60052700Y-38862000D02*
X60052700Y-35662000D01*
D17*
X59172700Y-34512000D02*
G75*
G02*
X58972700Y-34512000I-100000J0D01*
G01*
X58972700Y-34512000D02*
G75*
G02*
X59172700Y-34512000I100000J0D01*
G01*
D15*
%TO.C,R23*%
X62525400Y-46037742D02*
X62525400Y-46512258D01*
X63770000Y-46037742D02*
X63770000Y-46512258D01*
%TO.C,R27*%
X62995400Y-83987742D02*
X62995400Y-84462258D01*
X64240000Y-83987742D02*
X64240000Y-84462258D01*
D13*
%TO.C,C10*%
X153030200Y-77416200D02*
X153030200Y-82394600D01*
X156030200Y-82394600D02*
X156030200Y-77416200D01*
D17*
X154603200Y-83815400D02*
G75*
G02*
X154403200Y-83815400I-100000J0D01*
G01*
X154403200Y-83815400D02*
G75*
G02*
X154603200Y-83815400I100000J0D01*
G01*
D15*
%TO.C,R31*%
X60170942Y-42317200D02*
X60645458Y-42317200D01*
X60170942Y-43561800D02*
X60645458Y-43561800D01*
%TO.C,R1*%
X137363950Y-84434500D02*
X137363950Y-90294500D01*
X140533950Y-84434500D02*
X137363950Y-84434500D01*
X140533950Y-90294500D02*
X140533950Y-84434500D01*
%TO.C,R30*%
X63955400Y-71897742D02*
X63955400Y-72372258D01*
X65200000Y-71897742D02*
X65200000Y-72372258D01*
D16*
%TO.C,C50*%
X60712700Y-38872000D02*
X60712700Y-35672000D01*
X62672700Y-38872000D02*
X62672700Y-35672000D01*
D17*
X61792700Y-34522000D02*
G75*
G02*
X61592700Y-34522000I-100000J0D01*
G01*
X61592700Y-34522000D02*
G75*
G02*
X61792700Y-34522000I100000J0D01*
G01*
D15*
%TO.C,R5*%
X150127064Y-90540000D02*
X148672936Y-90540000D01*
X150127064Y-92360000D02*
X148672936Y-92360000D01*
%TO.C,R15*%
X138580800Y-57600064D02*
X138580800Y-57145936D01*
X140257200Y-57598528D02*
X140257200Y-57144400D01*
%TO.C,C16*%
X140404600Y-61239648D02*
X140404600Y-62662152D01*
X142512800Y-61239648D02*
X142512800Y-62662152D01*
D13*
%TO.C,U3*%
X140784600Y-56501500D02*
X140784600Y-58152500D01*
X141810760Y-56501500D02*
X140784600Y-56501500D01*
X142059639Y-58152500D02*
X142760761Y-58152500D01*
X144035800Y-56501500D02*
X143009640Y-56501500D01*
X144035800Y-58152500D02*
X144035800Y-56501500D01*
X144010400Y-58597000D02*
G75*
G02*
X143858000Y-58597000I-76200J0D01*
G01*
X143858000Y-58597000D02*
G75*
G02*
X144010400Y-58597000I76200J0D01*
G01*
D17*
%TO.C,U11*%
X65597191Y-32606587D02*
X65597191Y-39306586D01*
X65597191Y-32606587D02*
X68597191Y-32606587D01*
X65597191Y-39306586D02*
X68597191Y-39306586D01*
X68597191Y-32606587D02*
X68597191Y-39306586D01*
D18*
X70072191Y-32656587D02*
G75*
G02*
X69822189Y-32656587I-125001J0D01*
G01*
X69822189Y-32656587D02*
G75*
G02*
X70072191Y-32656587I125001J0D01*
G01*
D16*
%TO.C,C21*%
X137455200Y-37644500D02*
X140655200Y-37644500D01*
X137455200Y-39604500D02*
X140655200Y-39604500D01*
D17*
X141905200Y-38624500D02*
G75*
G02*
X141705200Y-38624500I-100000J0D01*
G01*
X141705200Y-38624500D02*
G75*
G02*
X141905200Y-38624500I100000J0D01*
G01*
D15*
%TO.C,R8*%
X124310200Y-112799936D02*
X124310200Y-114254064D01*
X126130200Y-112799936D02*
X126130200Y-114254064D01*
%TO.C,R28*%
X62465400Y-61247742D02*
X62465400Y-61722258D01*
X63710000Y-61247742D02*
X63710000Y-61722258D01*
%TO.C,R2*%
X141053950Y-85322000D02*
X141053950Y-91182000D01*
X141053950Y-91182000D02*
X144223950Y-91182000D01*
X144223950Y-91182000D02*
X144223950Y-85322000D01*
D16*
%TO.C,C47*%
X72155200Y-42089500D02*
X75355200Y-42089500D01*
X72155200Y-44049500D02*
X75355200Y-44049500D01*
D17*
X76605200Y-43069500D02*
G75*
G02*
X76405200Y-43069500I-100000J0D01*
G01*
X76405200Y-43069500D02*
G75*
G02*
X76605200Y-43069500I100000J0D01*
G01*
D15*
%TO.C,R29*%
X62355400Y-71887742D02*
X62355400Y-72362258D01*
X63600000Y-71887742D02*
X63600000Y-72362258D01*
D16*
%TO.C,C20*%
X130787700Y-32642000D02*
X130787700Y-35842000D01*
X132747700Y-32642000D02*
X132747700Y-35842000D01*
D17*
X131867700Y-36992000D02*
G75*
G02*
X131667700Y-36992000I-100000J0D01*
G01*
X131667700Y-36992000D02*
G75*
G02*
X131867700Y-36992000I100000J0D01*
G01*
%TD*%
M02*
