%TF.GenerationSoftware,KiCad,Pcbnew,8.0.3*%
%TF.CreationDate,2024-10-06T17:07:34+07:00*%
%TF.ProjectId,Power_Supply,506f7765-725f-4537-9570-706c792e6b69,rev?*%
%TF.SameCoordinates,Original*%
%TF.FileFunction,Legend,Bot*%
%TF.FilePolarity,Positive*%
%FSLAX46Y46*%
G04 Gerber Fmt 4.6, Leading zero omitted, Abs format (unit mm)*
G04 Created by KiCad (PCBNEW 8.0.3) date 2024-10-06 17:07:34*
%MOMM*%
%LPD*%
G01*
G04 APERTURE LIST*
%ADD10C,0.508000*%
%ADD11C,0.152400*%
%ADD12C,0.120000*%
%ADD13C,0.127000*%
%ADD14C,0.200000*%
%ADD15C,0.010000*%
%ADD16C,0.250000*%
G04 APERTURE END LIST*
D10*
G36*
X85037984Y-83422308D02*
G01*
X85092206Y-83474183D01*
X85182013Y-83733790D01*
X85185093Y-84299313D01*
X84358176Y-84300872D01*
X84355052Y-83649778D01*
X84428550Y-83497000D01*
X84491187Y-83431528D01*
X84643415Y-83352490D01*
X84886866Y-83349608D01*
X85037984Y-83422308D01*
G37*
G36*
X86247506Y-83543260D02*
G01*
X86312978Y-83605896D01*
X86391666Y-83757450D01*
X86394605Y-84297033D01*
X85688477Y-84298364D01*
X85685603Y-83770575D01*
X85759026Y-83617952D01*
X85821663Y-83552481D01*
X85974422Y-83473166D01*
X86097522Y-83471105D01*
X86247506Y-83543260D01*
G37*
G36*
X85849732Y-81525649D02*
G01*
X85083736Y-81782506D01*
X85081753Y-81271183D01*
X85849732Y-81525649D01*
G37*
G36*
X86056947Y-66034442D02*
G01*
X86247508Y-66126117D01*
X86312978Y-66188753D01*
X86392292Y-66341511D01*
X86394353Y-66464611D01*
X86322198Y-66614597D01*
X86259563Y-66680067D01*
X86087970Y-66769160D01*
X85662619Y-66879529D01*
X85120356Y-66883575D01*
X84693799Y-66780961D01*
X84503244Y-66689289D01*
X84437772Y-66626652D01*
X84358457Y-66473893D01*
X84356396Y-66350793D01*
X84428551Y-66200809D01*
X84491187Y-66135337D01*
X84662777Y-66046246D01*
X85088128Y-65935875D01*
X85630393Y-65931829D01*
X86056947Y-66034442D01*
G37*
G36*
X87181597Y-91497259D02*
G01*
X83569153Y-91497259D01*
X83569153Y-90911484D01*
X83856256Y-90911484D01*
X83856256Y-91010590D01*
X83894182Y-91102152D01*
X83964260Y-91172230D01*
X84055822Y-91210156D01*
X84105375Y-91215037D01*
X86694928Y-91210156D01*
X86786490Y-91172230D01*
X86856568Y-91102152D01*
X86894494Y-91010590D01*
X86899375Y-90961037D01*
X86894494Y-89701960D01*
X86856568Y-89610398D01*
X86786490Y-89540320D01*
X86694928Y-89502394D01*
X86595822Y-89502394D01*
X86504260Y-89540320D01*
X86434182Y-89610398D01*
X86396256Y-89701960D01*
X86391375Y-89751513D01*
X86395081Y-90707508D01*
X85688477Y-90708840D01*
X85684970Y-90064817D01*
X85647044Y-89973255D01*
X85576966Y-89903177D01*
X85485404Y-89865251D01*
X85386298Y-89865251D01*
X85294736Y-89903177D01*
X85224658Y-89973255D01*
X85186732Y-90064817D01*
X85181851Y-90114370D01*
X85185093Y-90709789D01*
X84055822Y-90711918D01*
X83964260Y-90749844D01*
X83894182Y-90819922D01*
X83856256Y-90911484D01*
X83569153Y-90911484D01*
X83569153Y-87574370D01*
X83851375Y-87574370D01*
X83856256Y-88833447D01*
X83894182Y-88925009D01*
X83964260Y-88995087D01*
X84055822Y-89033013D01*
X84105375Y-89037894D01*
X86694928Y-89033013D01*
X86786490Y-88995087D01*
X86856568Y-88925009D01*
X86894494Y-88833447D01*
X86894494Y-88734341D01*
X86856568Y-88642779D01*
X86786490Y-88572701D01*
X86694928Y-88534775D01*
X86645375Y-88529894D01*
X84358407Y-88534204D01*
X84354494Y-87524817D01*
X84316568Y-87433255D01*
X84246490Y-87363177D01*
X84154928Y-87325251D01*
X84055822Y-87325251D01*
X83964260Y-87363177D01*
X83894182Y-87433255D01*
X83856256Y-87524817D01*
X83851375Y-87574370D01*
X83569153Y-87574370D01*
X83569153Y-86194341D01*
X83856256Y-86194341D01*
X83856256Y-86293447D01*
X83894182Y-86385009D01*
X83964260Y-86455087D01*
X84055822Y-86493013D01*
X84105375Y-86497894D01*
X85234425Y-86493517D01*
X86553435Y-87327337D01*
X86651044Y-87344498D01*
X86747789Y-87322999D01*
X86828943Y-87266113D01*
X86882151Y-87182501D01*
X86899311Y-87084892D01*
X86877813Y-86988147D01*
X86820927Y-86906993D01*
X86781741Y-86876271D01*
X85783603Y-86245292D01*
X86820927Y-85580795D01*
X86877813Y-85499641D01*
X86899311Y-85402896D01*
X86882151Y-85305287D01*
X86828943Y-85221675D01*
X86747789Y-85164789D01*
X86651044Y-85143290D01*
X86553435Y-85160451D01*
X86509008Y-85182937D01*
X85248896Y-85990149D01*
X84055822Y-85994775D01*
X83964260Y-86032701D01*
X83894182Y-86102779D01*
X83856256Y-86194341D01*
X83569153Y-86194341D01*
X83569153Y-83582942D01*
X83851375Y-83582942D01*
X83856256Y-84600114D01*
X83894182Y-84691676D01*
X83964260Y-84761754D01*
X84055822Y-84799680D01*
X84105375Y-84804561D01*
X86694928Y-84799680D01*
X86786490Y-84761754D01*
X86856568Y-84691676D01*
X86894494Y-84600114D01*
X86899375Y-84550561D01*
X86894976Y-83742874D01*
X86897380Y-83735663D01*
X86894734Y-83698430D01*
X86894494Y-83654341D01*
X86891001Y-83645910D01*
X86890355Y-83636807D01*
X86872560Y-83590302D01*
X86747238Y-83348932D01*
X86735616Y-83320874D01*
X86727595Y-83311100D01*
X86725081Y-83306258D01*
X86720016Y-83301865D01*
X86704028Y-83282383D01*
X86576766Y-83160631D01*
X86559201Y-83140379D01*
X86548662Y-83133745D01*
X86544584Y-83129843D01*
X86538385Y-83127275D01*
X86517063Y-83113853D01*
X86306201Y-83012411D01*
X86302681Y-83008891D01*
X86275365Y-82997576D01*
X86228655Y-82975105D01*
X86219551Y-82974458D01*
X86211119Y-82970965D01*
X86161566Y-82966084D01*
X85955782Y-82969530D01*
X85951429Y-82968079D01*
X85923373Y-82970072D01*
X85870108Y-82970965D01*
X85861674Y-82974458D01*
X85852573Y-82975105D01*
X85806068Y-82992900D01*
X85564696Y-83118223D01*
X85536642Y-83129844D01*
X85526870Y-83137863D01*
X85522025Y-83140379D01*
X85517630Y-83145446D01*
X85498151Y-83161432D01*
X85496188Y-83163483D01*
X85494505Y-83161433D01*
X85367249Y-83039685D01*
X85349678Y-83019426D01*
X85339136Y-83012789D01*
X85335062Y-83008892D01*
X85328869Y-83006327D01*
X85307539Y-82992899D01*
X85096675Y-82891457D01*
X85093157Y-82887939D01*
X85065847Y-82876626D01*
X85019129Y-82854152D01*
X85010025Y-82853505D01*
X85001595Y-82850013D01*
X84952042Y-82845132D01*
X84626526Y-82848984D01*
X84620954Y-82847127D01*
X84588477Y-82849434D01*
X84539632Y-82850013D01*
X84531201Y-82853505D01*
X84522098Y-82854152D01*
X84475593Y-82871947D01*
X84234223Y-82997268D01*
X84206165Y-83008891D01*
X84196391Y-83016911D01*
X84191549Y-83019426D01*
X84187156Y-83024490D01*
X84167674Y-83040479D01*
X84045921Y-83167742D01*
X84025670Y-83185306D01*
X84019036Y-83195843D01*
X84015134Y-83199923D01*
X84012565Y-83206123D01*
X83999144Y-83227445D01*
X83897702Y-83438306D01*
X83894182Y-83441827D01*
X83882865Y-83469148D01*
X83860396Y-83515854D01*
X83859749Y-83524955D01*
X83856256Y-83533389D01*
X83851375Y-83582942D01*
X83569153Y-83582942D01*
X83569153Y-80648316D01*
X83853370Y-80648316D01*
X83860395Y-80747172D01*
X83904716Y-80835815D01*
X83979587Y-80900749D01*
X84025053Y-80921050D01*
X84577795Y-81104198D01*
X84581078Y-81951058D01*
X83979587Y-82152753D01*
X83904716Y-82217687D01*
X83860395Y-82306330D01*
X83853370Y-82405186D01*
X83884710Y-82499206D01*
X83949644Y-82574077D01*
X84038287Y-82618398D01*
X84137143Y-82625423D01*
X84185697Y-82614384D01*
X86694936Y-81772976D01*
X86712463Y-81771731D01*
X86740586Y-81757668D01*
X86771163Y-81747416D01*
X86784872Y-81735525D01*
X86801106Y-81727409D01*
X86821972Y-81703348D01*
X86846033Y-81682482D01*
X86854149Y-81666248D01*
X86866040Y-81652539D01*
X86876110Y-81622328D01*
X86890355Y-81593839D01*
X86891641Y-81575734D01*
X86897380Y-81558519D01*
X86895122Y-81526751D01*
X86897380Y-81494983D01*
X86891641Y-81477767D01*
X86890355Y-81459663D01*
X86876110Y-81431173D01*
X86866040Y-81400963D01*
X86854149Y-81387253D01*
X86846033Y-81371020D01*
X86821972Y-81350153D01*
X86801106Y-81326093D01*
X86784872Y-81317976D01*
X86771163Y-81306086D01*
X86725697Y-81285785D01*
X84899517Y-80680688D01*
X84880642Y-80672870D01*
X84875921Y-80672870D01*
X84137143Y-80428079D01*
X84038287Y-80435104D01*
X83949644Y-80479425D01*
X83884710Y-80554296D01*
X83853370Y-80648316D01*
X83569153Y-80648316D01*
X83569153Y-78865799D01*
X83851375Y-78865799D01*
X83855464Y-79109997D01*
X83853370Y-79139472D01*
X83856163Y-79151759D01*
X83856256Y-79157256D01*
X83858822Y-79163452D01*
X83864410Y-79188025D01*
X83977209Y-79514096D01*
X83977209Y-79520112D01*
X83989833Y-79550591D01*
X84005663Y-79596349D01*
X84011643Y-79603244D01*
X84015135Y-79611674D01*
X84046723Y-79650165D01*
X84291549Y-79888965D01*
X84312501Y-79913123D01*
X84323259Y-79919895D01*
X84327117Y-79923658D01*
X84333314Y-79926225D01*
X84354639Y-79939649D01*
X84583930Y-80049956D01*
X84601644Y-80063081D01*
X84638829Y-80076366D01*
X84643049Y-80078397D01*
X84644874Y-80078526D01*
X84648533Y-80079834D01*
X85119225Y-80193063D01*
X85144394Y-80203489D01*
X85175159Y-80206519D01*
X85181601Y-80208069D01*
X85185301Y-80207518D01*
X85193947Y-80208370D01*
X85543379Y-80204234D01*
X85569151Y-80208069D01*
X85599584Y-80203569D01*
X85606357Y-80203489D01*
X85609815Y-80202056D01*
X85618408Y-80200786D01*
X86083434Y-80080121D01*
X86107701Y-80078397D01*
X86144821Y-80064193D01*
X86149107Y-80063081D01*
X86150580Y-80061989D01*
X86154206Y-80060602D01*
X86395577Y-79935278D01*
X86423632Y-79923658D01*
X86433403Y-79915638D01*
X86438249Y-79913123D01*
X86442643Y-79908055D01*
X86462123Y-79892070D01*
X86675048Y-79673770D01*
X86680154Y-79671218D01*
X86701137Y-79647023D01*
X86735616Y-79611675D01*
X86739109Y-79603241D01*
X86745088Y-79596348D01*
X86765389Y-79550882D01*
X86881986Y-79187451D01*
X86894494Y-79157256D01*
X86895743Y-79144572D01*
X86897380Y-79139471D01*
X86896904Y-79132782D01*
X86899375Y-79107703D01*
X86895285Y-78863505D01*
X86897380Y-78834031D01*
X86894586Y-78821742D01*
X86894494Y-78816246D01*
X86891927Y-78810050D01*
X86886341Y-78785478D01*
X86773542Y-78459406D01*
X86773542Y-78453388D01*
X86760912Y-78422897D01*
X86745088Y-78377153D01*
X86739109Y-78370259D01*
X86735616Y-78361826D01*
X86704028Y-78323335D01*
X86544584Y-78170795D01*
X86453022Y-78132869D01*
X86353916Y-78132870D01*
X86262355Y-78170797D01*
X86192276Y-78240875D01*
X86154350Y-78332437D01*
X86154351Y-78431543D01*
X86192278Y-78523104D01*
X86223866Y-78561595D01*
X86301731Y-78636088D01*
X86391892Y-78896721D01*
X86394593Y-79057975D01*
X86307608Y-79329103D01*
X86141271Y-79499639D01*
X85967019Y-79590112D01*
X85541399Y-79700552D01*
X85239629Y-79704123D01*
X84814750Y-79601914D01*
X84625089Y-79510672D01*
X84449813Y-79339710D01*
X84358857Y-79076779D01*
X84356156Y-78915523D01*
X84443500Y-78643278D01*
X84558473Y-78523103D01*
X84596399Y-78431542D01*
X84596399Y-78332436D01*
X84558473Y-78240874D01*
X84488395Y-78170796D01*
X84396833Y-78132870D01*
X84297727Y-78132870D01*
X84206166Y-78170796D01*
X84167675Y-78202384D01*
X84073482Y-78300839D01*
X84070597Y-78302282D01*
X84055998Y-78319113D01*
X84015135Y-78361827D01*
X84011643Y-78370256D01*
X84005663Y-78377152D01*
X83985363Y-78422619D01*
X83868764Y-78786047D01*
X83856256Y-78816246D01*
X83855006Y-78828929D01*
X83853370Y-78834031D01*
X83853845Y-78840719D01*
X83851375Y-78865799D01*
X83569153Y-78865799D01*
X83569153Y-75828165D01*
X83851752Y-75828165D01*
X83865767Y-75926274D01*
X83916261Y-76011552D01*
X83952975Y-76045189D01*
X85176397Y-76957759D01*
X85092202Y-77042345D01*
X84055822Y-77044299D01*
X83964260Y-77082225D01*
X83894182Y-77152303D01*
X83856256Y-77243865D01*
X83856256Y-77342971D01*
X83894182Y-77434533D01*
X83964260Y-77504611D01*
X84055822Y-77542537D01*
X84105375Y-77547418D01*
X86694928Y-77542537D01*
X86786490Y-77504611D01*
X86856568Y-77434533D01*
X86894494Y-77342971D01*
X86894494Y-77243865D01*
X86856568Y-77152303D01*
X86786490Y-77082225D01*
X86694928Y-77044299D01*
X86645375Y-77039418D01*
X85803568Y-77041004D01*
X86856568Y-75983103D01*
X86894494Y-75891541D01*
X86894494Y-75792436D01*
X86856568Y-75700874D01*
X86786489Y-75630796D01*
X86694928Y-75592870D01*
X86595822Y-75592870D01*
X86504261Y-75630796D01*
X86465770Y-75662384D01*
X85535039Y-76597447D01*
X84215204Y-75612962D01*
X84119199Y-75588366D01*
X84021090Y-75602381D01*
X83935812Y-75652875D01*
X83876348Y-75732160D01*
X83851752Y-75828165D01*
X83569153Y-75828165D01*
X83569153Y-72302602D01*
X83853370Y-72302602D01*
X83855627Y-72334370D01*
X83853370Y-72366138D01*
X83859108Y-72383353D01*
X83860395Y-72401458D01*
X83874640Y-72429948D01*
X83884710Y-72460158D01*
X83896598Y-72473865D01*
X83904716Y-72490101D01*
X83928776Y-72510968D01*
X83949644Y-72535029D01*
X83965879Y-72543146D01*
X83979587Y-72555035D01*
X84025053Y-72575336D01*
X86613607Y-73433042D01*
X86712463Y-73426017D01*
X86801106Y-73381695D01*
X86866040Y-73306825D01*
X86897380Y-73212805D01*
X86890355Y-73113949D01*
X86846033Y-73025306D01*
X86771163Y-72960372D01*
X86725697Y-72940071D01*
X84901018Y-72335471D01*
X86771163Y-71708368D01*
X86846033Y-71643434D01*
X86890355Y-71554791D01*
X86897380Y-71455935D01*
X86866040Y-71361915D01*
X86801106Y-71287045D01*
X86712463Y-71242723D01*
X86613607Y-71235698D01*
X86565053Y-71246738D01*
X84055813Y-72088144D01*
X84038287Y-72089390D01*
X84010161Y-72103452D01*
X83979587Y-72113705D01*
X83965879Y-72125593D01*
X83949644Y-72133711D01*
X83928776Y-72157771D01*
X83904716Y-72178639D01*
X83896598Y-72194874D01*
X83884710Y-72208582D01*
X83874640Y-72238791D01*
X83860395Y-72267282D01*
X83859108Y-72285386D01*
X83853370Y-72302602D01*
X83569153Y-72302602D01*
X83569153Y-69310560D01*
X83851375Y-69310560D01*
X83856256Y-70811542D01*
X83894182Y-70903104D01*
X83964260Y-70973182D01*
X84055822Y-71011108D01*
X84154928Y-71011108D01*
X84246490Y-70973182D01*
X84316568Y-70903104D01*
X84354494Y-70811542D01*
X84359375Y-70761989D01*
X84357839Y-70289799D01*
X85919266Y-70286856D01*
X85864115Y-70343399D01*
X85839955Y-70364353D01*
X85833180Y-70375114D01*
X85829420Y-70378970D01*
X85826854Y-70385163D01*
X85813428Y-70406492D01*
X85674681Y-70694902D01*
X85667656Y-70793758D01*
X85698996Y-70887778D01*
X85763930Y-70962647D01*
X85852574Y-71006969D01*
X85951430Y-71013994D01*
X86045450Y-70982654D01*
X86120319Y-70917720D01*
X86146846Y-70875581D01*
X86242407Y-70676939D01*
X86428782Y-70485861D01*
X86766621Y-70255697D01*
X86786490Y-70247468D01*
X86803138Y-70230819D01*
X86824791Y-70216068D01*
X86838783Y-70195174D01*
X86856568Y-70177390D01*
X86866091Y-70154397D01*
X86879938Y-70133722D01*
X86884869Y-70109063D01*
X86894494Y-70085828D01*
X86894494Y-70060942D01*
X86899374Y-70036542D01*
X86894494Y-70011873D01*
X86894494Y-69986722D01*
X86884969Y-69963727D01*
X86880141Y-69939320D01*
X86866194Y-69918399D01*
X86856568Y-69895160D01*
X86838967Y-69877559D01*
X86825167Y-69856859D01*
X86804276Y-69842868D01*
X86786490Y-69825082D01*
X86763496Y-69815557D01*
X86742822Y-69801712D01*
X86718163Y-69796780D01*
X86694928Y-69787156D01*
X86645889Y-69782325D01*
X86645641Y-69782276D01*
X86645555Y-69782292D01*
X86645375Y-69782275D01*
X84356203Y-69786589D01*
X84354494Y-69261007D01*
X84316568Y-69169445D01*
X84246490Y-69099367D01*
X84154928Y-69061441D01*
X84055822Y-69061441D01*
X83964260Y-69099367D01*
X83894182Y-69169445D01*
X83856256Y-69261007D01*
X83851375Y-69310560D01*
X83569153Y-69310560D01*
X83569153Y-68172437D01*
X83856255Y-68172437D01*
X83856256Y-68242150D01*
X83856256Y-68271542D01*
X83894182Y-68363104D01*
X83894187Y-68363109D01*
X83925771Y-68401595D01*
X84085215Y-68554135D01*
X84176777Y-68592061D01*
X84275882Y-68592060D01*
X84367444Y-68554134D01*
X84367453Y-68554124D01*
X84405933Y-68522546D01*
X84558428Y-68363149D01*
X84558473Y-68363105D01*
X84596399Y-68271543D01*
X84596400Y-68172438D01*
X84558474Y-68080876D01*
X84558473Y-68080875D01*
X84558473Y-68080874D01*
X84558469Y-68080870D01*
X84526886Y-68042385D01*
X84367443Y-67889844D01*
X84367442Y-67889843D01*
X84329516Y-67874134D01*
X84275882Y-67851917D01*
X84176776Y-67851916D01*
X84085214Y-67889842D01*
X84085213Y-67889842D01*
X84085213Y-67889843D01*
X84046723Y-67921431D01*
X83894204Y-68080851D01*
X83894181Y-68080875D01*
X83856255Y-68172437D01*
X83569153Y-68172437D01*
X83569153Y-66286750D01*
X83851375Y-66286750D01*
X83854821Y-66492533D01*
X83853370Y-66496887D01*
X83855363Y-66524942D01*
X83856256Y-66578208D01*
X83859749Y-66586641D01*
X83860396Y-66595743D01*
X83878191Y-66642248D01*
X84003514Y-66883619D01*
X84015135Y-66911674D01*
X84023154Y-66921445D01*
X84025670Y-66926291D01*
X84030737Y-66930685D01*
X84046723Y-66950165D01*
X84173977Y-67071910D01*
X84191549Y-67092170D01*
X84202090Y-67098805D01*
X84206166Y-67102705D01*
X84212360Y-67105270D01*
X84233687Y-67118696D01*
X84462976Y-67229002D01*
X84480691Y-67242128D01*
X84517877Y-67255414D01*
X84522097Y-67257444D01*
X84523922Y-67257573D01*
X84527581Y-67258881D01*
X84998272Y-67372110D01*
X85023441Y-67382536D01*
X85054206Y-67385566D01*
X85060648Y-67387116D01*
X85064348Y-67386565D01*
X85072994Y-67387417D01*
X85662568Y-67383018D01*
X85690103Y-67387116D01*
X85720747Y-67382584D01*
X85727309Y-67382536D01*
X85730767Y-67381103D01*
X85739360Y-67379833D01*
X86204386Y-67259168D01*
X86228655Y-67257444D01*
X86265774Y-67243239D01*
X86270060Y-67242128D01*
X86271533Y-67241036D01*
X86275159Y-67239649D01*
X86516522Y-67114329D01*
X86544584Y-67102706D01*
X86554358Y-67094684D01*
X86559201Y-67092170D01*
X86563594Y-67087104D01*
X86583074Y-67071118D01*
X86704824Y-66943859D01*
X86725081Y-66926291D01*
X86731715Y-66915752D01*
X86735616Y-66911675D01*
X86738182Y-66905478D01*
X86751608Y-66884152D01*
X86853049Y-66673288D01*
X86856568Y-66669770D01*
X86867880Y-66642460D01*
X86890355Y-66595742D01*
X86891001Y-66586638D01*
X86894494Y-66578208D01*
X86899375Y-66528655D01*
X86895928Y-66322872D01*
X86897380Y-66318519D01*
X86895385Y-66290458D01*
X86894494Y-66237197D01*
X86891001Y-66228766D01*
X86890355Y-66219662D01*
X86872560Y-66173158D01*
X86747237Y-65931789D01*
X86735616Y-65903731D01*
X86727595Y-65893958D01*
X86725081Y-65889115D01*
X86720015Y-65884721D01*
X86704028Y-65865241D01*
X86576772Y-65743494D01*
X86559201Y-65723235D01*
X86548660Y-65716599D01*
X86544584Y-65712700D01*
X86538388Y-65710133D01*
X86517062Y-65696709D01*
X86287769Y-65586400D01*
X86270060Y-65573279D01*
X86232882Y-65559995D01*
X86228654Y-65557961D01*
X86226825Y-65557831D01*
X86223170Y-65556525D01*
X85752476Y-65443293D01*
X85727309Y-65432869D01*
X85696545Y-65429838D01*
X85690103Y-65428289D01*
X85686402Y-65428839D01*
X85677756Y-65427988D01*
X85088181Y-65432386D01*
X85060647Y-65428289D01*
X85030002Y-65432820D01*
X85023441Y-65432869D01*
X85019982Y-65434301D01*
X85011390Y-65435572D01*
X84546371Y-65556236D01*
X84522098Y-65557961D01*
X84484963Y-65572170D01*
X84480691Y-65573279D01*
X84479222Y-65574367D01*
X84475593Y-65575756D01*
X84234223Y-65701077D01*
X84206165Y-65712700D01*
X84196391Y-65720720D01*
X84191549Y-65723235D01*
X84187156Y-65728299D01*
X84167674Y-65744288D01*
X84045922Y-65871549D01*
X84025670Y-65889115D01*
X84019036Y-65899653D01*
X84015134Y-65903732D01*
X84012566Y-65909930D01*
X83999144Y-65931253D01*
X83897702Y-66142114D01*
X83894182Y-66145635D01*
X83882867Y-66172950D01*
X83860396Y-66219661D01*
X83859749Y-66228764D01*
X83856256Y-66237197D01*
X83851375Y-66286750D01*
X83569153Y-66286750D01*
X83569153Y-65145766D01*
X87181597Y-65145766D01*
X87181597Y-91497259D01*
G37*
D11*
X82048376Y-91494197D02*
X83064376Y-91494197D01*
X83064376Y-91494197D02*
X83064376Y-91252292D01*
X83064376Y-91252292D02*
X83015995Y-91107149D01*
X83015995Y-91107149D02*
X82919233Y-91010387D01*
X82919233Y-91010387D02*
X82822471Y-90962006D01*
X82822471Y-90962006D02*
X82628947Y-90913625D01*
X82628947Y-90913625D02*
X82483804Y-90913625D01*
X82483804Y-90913625D02*
X82290280Y-90962006D01*
X82290280Y-90962006D02*
X82193518Y-91010387D01*
X82193518Y-91010387D02*
X82096757Y-91107149D01*
X82096757Y-91107149D02*
X82048376Y-91252292D01*
X82048376Y-91252292D02*
X82048376Y-91494197D01*
X82096757Y-90091149D02*
X82048376Y-90187911D01*
X82048376Y-90187911D02*
X82048376Y-90381435D01*
X82048376Y-90381435D02*
X82096757Y-90478197D01*
X82096757Y-90478197D02*
X82193518Y-90526578D01*
X82193518Y-90526578D02*
X82580566Y-90526578D01*
X82580566Y-90526578D02*
X82677328Y-90478197D01*
X82677328Y-90478197D02*
X82725709Y-90381435D01*
X82725709Y-90381435D02*
X82725709Y-90187911D01*
X82725709Y-90187911D02*
X82677328Y-90091149D01*
X82677328Y-90091149D02*
X82580566Y-90042768D01*
X82580566Y-90042768D02*
X82483804Y-90042768D01*
X82483804Y-90042768D02*
X82387042Y-90526578D01*
X82096757Y-89655721D02*
X82048376Y-89558959D01*
X82048376Y-89558959D02*
X82048376Y-89365435D01*
X82048376Y-89365435D02*
X82096757Y-89268673D01*
X82096757Y-89268673D02*
X82193518Y-89220292D01*
X82193518Y-89220292D02*
X82241899Y-89220292D01*
X82241899Y-89220292D02*
X82338661Y-89268673D01*
X82338661Y-89268673D02*
X82387042Y-89365435D01*
X82387042Y-89365435D02*
X82387042Y-89510578D01*
X82387042Y-89510578D02*
X82435423Y-89607340D01*
X82435423Y-89607340D02*
X82532185Y-89655721D01*
X82532185Y-89655721D02*
X82580566Y-89655721D01*
X82580566Y-89655721D02*
X82677328Y-89607340D01*
X82677328Y-89607340D02*
X82725709Y-89510578D01*
X82725709Y-89510578D02*
X82725709Y-89365435D01*
X82725709Y-89365435D02*
X82677328Y-89268673D01*
X82048376Y-88784864D02*
X82725709Y-88784864D01*
X83064376Y-88784864D02*
X83015995Y-88833245D01*
X83015995Y-88833245D02*
X82967614Y-88784864D01*
X82967614Y-88784864D02*
X83015995Y-88736483D01*
X83015995Y-88736483D02*
X83064376Y-88784864D01*
X83064376Y-88784864D02*
X82967614Y-88784864D01*
X82725709Y-87865625D02*
X81903233Y-87865625D01*
X81903233Y-87865625D02*
X81806471Y-87914006D01*
X81806471Y-87914006D02*
X81758090Y-87962387D01*
X81758090Y-87962387D02*
X81709709Y-88059149D01*
X81709709Y-88059149D02*
X81709709Y-88204292D01*
X81709709Y-88204292D02*
X81758090Y-88301054D01*
X82096757Y-87865625D02*
X82048376Y-87962387D01*
X82048376Y-87962387D02*
X82048376Y-88155911D01*
X82048376Y-88155911D02*
X82096757Y-88252673D01*
X82096757Y-88252673D02*
X82145137Y-88301054D01*
X82145137Y-88301054D02*
X82241899Y-88349435D01*
X82241899Y-88349435D02*
X82532185Y-88349435D01*
X82532185Y-88349435D02*
X82628947Y-88301054D01*
X82628947Y-88301054D02*
X82677328Y-88252673D01*
X82677328Y-88252673D02*
X82725709Y-88155911D01*
X82725709Y-88155911D02*
X82725709Y-87962387D01*
X82725709Y-87962387D02*
X82677328Y-87865625D01*
X82725709Y-87381816D02*
X82048376Y-87381816D01*
X82628947Y-87381816D02*
X82677328Y-87333435D01*
X82677328Y-87333435D02*
X82725709Y-87236673D01*
X82725709Y-87236673D02*
X82725709Y-87091530D01*
X82725709Y-87091530D02*
X82677328Y-86994768D01*
X82677328Y-86994768D02*
X82580566Y-86946387D01*
X82580566Y-86946387D02*
X82048376Y-86946387D01*
X82096757Y-86075530D02*
X82048376Y-86172292D01*
X82048376Y-86172292D02*
X82048376Y-86365816D01*
X82048376Y-86365816D02*
X82096757Y-86462578D01*
X82096757Y-86462578D02*
X82193518Y-86510959D01*
X82193518Y-86510959D02*
X82580566Y-86510959D01*
X82580566Y-86510959D02*
X82677328Y-86462578D01*
X82677328Y-86462578D02*
X82725709Y-86365816D01*
X82725709Y-86365816D02*
X82725709Y-86172292D01*
X82725709Y-86172292D02*
X82677328Y-86075530D01*
X82677328Y-86075530D02*
X82580566Y-86027149D01*
X82580566Y-86027149D02*
X82483804Y-86027149D01*
X82483804Y-86027149D02*
X82387042Y-86510959D01*
X82048376Y-85156292D02*
X83064376Y-85156292D01*
X82096757Y-85156292D02*
X82048376Y-85253054D01*
X82048376Y-85253054D02*
X82048376Y-85446578D01*
X82048376Y-85446578D02*
X82096757Y-85543340D01*
X82096757Y-85543340D02*
X82145137Y-85591721D01*
X82145137Y-85591721D02*
X82241899Y-85640102D01*
X82241899Y-85640102D02*
X82532185Y-85640102D01*
X82532185Y-85640102D02*
X82628947Y-85591721D01*
X82628947Y-85591721D02*
X82677328Y-85543340D01*
X82677328Y-85543340D02*
X82725709Y-85446578D01*
X82725709Y-85446578D02*
X82725709Y-85253054D01*
X82725709Y-85253054D02*
X82677328Y-85156292D01*
X82048376Y-83898388D02*
X83064376Y-83898388D01*
X82677328Y-83898388D02*
X82725709Y-83801626D01*
X82725709Y-83801626D02*
X82725709Y-83608102D01*
X82725709Y-83608102D02*
X82677328Y-83511340D01*
X82677328Y-83511340D02*
X82628947Y-83462959D01*
X82628947Y-83462959D02*
X82532185Y-83414578D01*
X82532185Y-83414578D02*
X82241899Y-83414578D01*
X82241899Y-83414578D02*
X82145137Y-83462959D01*
X82145137Y-83462959D02*
X82096757Y-83511340D01*
X82096757Y-83511340D02*
X82048376Y-83608102D01*
X82048376Y-83608102D02*
X82048376Y-83801626D01*
X82048376Y-83801626D02*
X82096757Y-83898388D01*
X82725709Y-83075912D02*
X82048376Y-82834007D01*
X82725709Y-82592102D02*
X82048376Y-82834007D01*
X82048376Y-82834007D02*
X81806471Y-82930769D01*
X81806471Y-82930769D02*
X81758090Y-82979150D01*
X81758090Y-82979150D02*
X81709709Y-83075912D01*
X82048376Y-81430960D02*
X83064376Y-81430960D01*
X83064376Y-81430960D02*
X83064376Y-81043912D01*
X83064376Y-81043912D02*
X83015995Y-80947150D01*
X83015995Y-80947150D02*
X82967614Y-80898769D01*
X82967614Y-80898769D02*
X82870852Y-80850388D01*
X82870852Y-80850388D02*
X82725709Y-80850388D01*
X82725709Y-80850388D02*
X82628947Y-80898769D01*
X82628947Y-80898769D02*
X82580566Y-80947150D01*
X82580566Y-80947150D02*
X82532185Y-81043912D01*
X82532185Y-81043912D02*
X82532185Y-81430960D01*
X82048376Y-80414960D02*
X83064376Y-80414960D01*
X82048376Y-79979531D02*
X82580566Y-79979531D01*
X82580566Y-79979531D02*
X82677328Y-80027912D01*
X82677328Y-80027912D02*
X82725709Y-80124674D01*
X82725709Y-80124674D02*
X82725709Y-80269817D01*
X82725709Y-80269817D02*
X82677328Y-80366579D01*
X82677328Y-80366579D02*
X82628947Y-80414960D01*
X82048376Y-79060293D02*
X82580566Y-79060293D01*
X82580566Y-79060293D02*
X82677328Y-79108674D01*
X82677328Y-79108674D02*
X82725709Y-79205436D01*
X82725709Y-79205436D02*
X82725709Y-79398960D01*
X82725709Y-79398960D02*
X82677328Y-79495722D01*
X82096757Y-79060293D02*
X82048376Y-79157055D01*
X82048376Y-79157055D02*
X82048376Y-79398960D01*
X82048376Y-79398960D02*
X82096757Y-79495722D01*
X82096757Y-79495722D02*
X82193518Y-79544103D01*
X82193518Y-79544103D02*
X82290280Y-79544103D01*
X82290280Y-79544103D02*
X82387042Y-79495722D01*
X82387042Y-79495722D02*
X82435423Y-79398960D01*
X82435423Y-79398960D02*
X82435423Y-79157055D01*
X82435423Y-79157055D02*
X82483804Y-79060293D01*
X82048376Y-78576484D02*
X82725709Y-78576484D01*
X82628947Y-78576484D02*
X82677328Y-78528103D01*
X82677328Y-78528103D02*
X82725709Y-78431341D01*
X82725709Y-78431341D02*
X82725709Y-78286198D01*
X82725709Y-78286198D02*
X82677328Y-78189436D01*
X82677328Y-78189436D02*
X82580566Y-78141055D01*
X82580566Y-78141055D02*
X82048376Y-78141055D01*
X82580566Y-78141055D02*
X82677328Y-78092674D01*
X82677328Y-78092674D02*
X82725709Y-77995912D01*
X82725709Y-77995912D02*
X82725709Y-77850769D01*
X82725709Y-77850769D02*
X82677328Y-77754008D01*
X82677328Y-77754008D02*
X82580566Y-77705627D01*
X82580566Y-77705627D02*
X82048376Y-77705627D01*
X83064376Y-77366960D02*
X83064376Y-76786388D01*
X82048376Y-77076674D02*
X83064376Y-77076674D01*
X82725709Y-76012293D02*
X82048376Y-76012293D01*
X82725709Y-76447722D02*
X82193518Y-76447722D01*
X82193518Y-76447722D02*
X82096757Y-76399341D01*
X82096757Y-76399341D02*
X82048376Y-76302579D01*
X82048376Y-76302579D02*
X82048376Y-76157436D01*
X82048376Y-76157436D02*
X82096757Y-76060674D01*
X82096757Y-76060674D02*
X82145137Y-76012293D01*
X82048376Y-75093055D02*
X82580566Y-75093055D01*
X82580566Y-75093055D02*
X82677328Y-75141436D01*
X82677328Y-75141436D02*
X82725709Y-75238198D01*
X82725709Y-75238198D02*
X82725709Y-75431722D01*
X82725709Y-75431722D02*
X82677328Y-75528484D01*
X82096757Y-75093055D02*
X82048376Y-75189817D01*
X82048376Y-75189817D02*
X82048376Y-75431722D01*
X82048376Y-75431722D02*
X82096757Y-75528484D01*
X82096757Y-75528484D02*
X82193518Y-75576865D01*
X82193518Y-75576865D02*
X82290280Y-75576865D01*
X82290280Y-75576865D02*
X82387042Y-75528484D01*
X82387042Y-75528484D02*
X82435423Y-75431722D01*
X82435423Y-75431722D02*
X82435423Y-75189817D01*
X82435423Y-75189817D02*
X82483804Y-75093055D01*
X82725709Y-74609246D02*
X82048376Y-74609246D01*
X82628947Y-74609246D02*
X82677328Y-74560865D01*
X82677328Y-74560865D02*
X82725709Y-74464103D01*
X82725709Y-74464103D02*
X82725709Y-74318960D01*
X82725709Y-74318960D02*
X82677328Y-74222198D01*
X82677328Y-74222198D02*
X82580566Y-74173817D01*
X82580566Y-74173817D02*
X82048376Y-74173817D01*
X80216757Y-91572578D02*
X80168376Y-91427435D01*
X80168376Y-91427435D02*
X80168376Y-91185530D01*
X80168376Y-91185530D02*
X80216757Y-91088768D01*
X80216757Y-91088768D02*
X80265137Y-91040387D01*
X80265137Y-91040387D02*
X80361899Y-90992006D01*
X80361899Y-90992006D02*
X80458661Y-90992006D01*
X80458661Y-90992006D02*
X80555423Y-91040387D01*
X80555423Y-91040387D02*
X80603804Y-91088768D01*
X80603804Y-91088768D02*
X80652185Y-91185530D01*
X80652185Y-91185530D02*
X80700566Y-91379054D01*
X80700566Y-91379054D02*
X80748947Y-91475816D01*
X80748947Y-91475816D02*
X80797328Y-91524197D01*
X80797328Y-91524197D02*
X80894090Y-91572578D01*
X80894090Y-91572578D02*
X80990852Y-91572578D01*
X80990852Y-91572578D02*
X81087614Y-91524197D01*
X81087614Y-91524197D02*
X81135995Y-91475816D01*
X81135995Y-91475816D02*
X81184376Y-91379054D01*
X81184376Y-91379054D02*
X81184376Y-91137149D01*
X81184376Y-91137149D02*
X81135995Y-90992006D01*
X80845709Y-90121149D02*
X80168376Y-90121149D01*
X80845709Y-90556578D02*
X80313518Y-90556578D01*
X80313518Y-90556578D02*
X80216757Y-90508197D01*
X80216757Y-90508197D02*
X80168376Y-90411435D01*
X80168376Y-90411435D02*
X80168376Y-90266292D01*
X80168376Y-90266292D02*
X80216757Y-90169530D01*
X80216757Y-90169530D02*
X80265137Y-90121149D01*
X80845709Y-89637340D02*
X79829709Y-89637340D01*
X80797328Y-89637340D02*
X80845709Y-89540578D01*
X80845709Y-89540578D02*
X80845709Y-89347054D01*
X80845709Y-89347054D02*
X80797328Y-89250292D01*
X80797328Y-89250292D02*
X80748947Y-89201911D01*
X80748947Y-89201911D02*
X80652185Y-89153530D01*
X80652185Y-89153530D02*
X80361899Y-89153530D01*
X80361899Y-89153530D02*
X80265137Y-89201911D01*
X80265137Y-89201911D02*
X80216757Y-89250292D01*
X80216757Y-89250292D02*
X80168376Y-89347054D01*
X80168376Y-89347054D02*
X80168376Y-89540578D01*
X80168376Y-89540578D02*
X80216757Y-89637340D01*
X80216757Y-88331054D02*
X80168376Y-88427816D01*
X80168376Y-88427816D02*
X80168376Y-88621340D01*
X80168376Y-88621340D02*
X80216757Y-88718102D01*
X80216757Y-88718102D02*
X80313518Y-88766483D01*
X80313518Y-88766483D02*
X80700566Y-88766483D01*
X80700566Y-88766483D02*
X80797328Y-88718102D01*
X80797328Y-88718102D02*
X80845709Y-88621340D01*
X80845709Y-88621340D02*
X80845709Y-88427816D01*
X80845709Y-88427816D02*
X80797328Y-88331054D01*
X80797328Y-88331054D02*
X80700566Y-88282673D01*
X80700566Y-88282673D02*
X80603804Y-88282673D01*
X80603804Y-88282673D02*
X80507042Y-88766483D01*
X80168376Y-87847245D02*
X80845709Y-87847245D01*
X80652185Y-87847245D02*
X80748947Y-87798864D01*
X80748947Y-87798864D02*
X80797328Y-87750483D01*
X80797328Y-87750483D02*
X80845709Y-87653721D01*
X80845709Y-87653721D02*
X80845709Y-87556959D01*
X80845709Y-87315055D02*
X80168376Y-87073150D01*
X80168376Y-87073150D02*
X80845709Y-86831245D01*
X80168376Y-86444198D02*
X80845709Y-86444198D01*
X81184376Y-86444198D02*
X81135995Y-86492579D01*
X81135995Y-86492579D02*
X81087614Y-86444198D01*
X81087614Y-86444198D02*
X81135995Y-86395817D01*
X81135995Y-86395817D02*
X81184376Y-86444198D01*
X81184376Y-86444198D02*
X81087614Y-86444198D01*
X80216757Y-86008769D02*
X80168376Y-85912007D01*
X80168376Y-85912007D02*
X80168376Y-85718483D01*
X80168376Y-85718483D02*
X80216757Y-85621721D01*
X80216757Y-85621721D02*
X80313518Y-85573340D01*
X80313518Y-85573340D02*
X80361899Y-85573340D01*
X80361899Y-85573340D02*
X80458661Y-85621721D01*
X80458661Y-85621721D02*
X80507042Y-85718483D01*
X80507042Y-85718483D02*
X80507042Y-85863626D01*
X80507042Y-85863626D02*
X80555423Y-85960388D01*
X80555423Y-85960388D02*
X80652185Y-86008769D01*
X80652185Y-86008769D02*
X80700566Y-86008769D01*
X80700566Y-86008769D02*
X80797328Y-85960388D01*
X80797328Y-85960388D02*
X80845709Y-85863626D01*
X80845709Y-85863626D02*
X80845709Y-85718483D01*
X80845709Y-85718483D02*
X80797328Y-85621721D01*
X80168376Y-84992769D02*
X80216757Y-85089531D01*
X80216757Y-85089531D02*
X80265137Y-85137912D01*
X80265137Y-85137912D02*
X80361899Y-85186293D01*
X80361899Y-85186293D02*
X80652185Y-85186293D01*
X80652185Y-85186293D02*
X80748947Y-85137912D01*
X80748947Y-85137912D02*
X80797328Y-85089531D01*
X80797328Y-85089531D02*
X80845709Y-84992769D01*
X80845709Y-84992769D02*
X80845709Y-84847626D01*
X80845709Y-84847626D02*
X80797328Y-84750864D01*
X80797328Y-84750864D02*
X80748947Y-84702483D01*
X80748947Y-84702483D02*
X80652185Y-84654102D01*
X80652185Y-84654102D02*
X80361899Y-84654102D01*
X80361899Y-84654102D02*
X80265137Y-84702483D01*
X80265137Y-84702483D02*
X80216757Y-84750864D01*
X80216757Y-84750864D02*
X80168376Y-84847626D01*
X80168376Y-84847626D02*
X80168376Y-84992769D01*
X80168376Y-84218674D02*
X80845709Y-84218674D01*
X80652185Y-84218674D02*
X80748947Y-84170293D01*
X80748947Y-84170293D02*
X80797328Y-84121912D01*
X80797328Y-84121912D02*
X80845709Y-84025150D01*
X80845709Y-84025150D02*
X80845709Y-83928388D01*
X80265137Y-83589722D02*
X80216757Y-83541341D01*
X80216757Y-83541341D02*
X80168376Y-83589722D01*
X80168376Y-83589722D02*
X80216757Y-83638103D01*
X80216757Y-83638103D02*
X80265137Y-83589722D01*
X80265137Y-83589722D02*
X80168376Y-83589722D01*
X80797328Y-83589722D02*
X80748947Y-83541341D01*
X80748947Y-83541341D02*
X80700566Y-83589722D01*
X80700566Y-83589722D02*
X80748947Y-83638103D01*
X80748947Y-83638103D02*
X80797328Y-83589722D01*
X80797328Y-83589722D02*
X80700566Y-83589722D01*
X80168376Y-82331817D02*
X81184376Y-82331817D01*
X81184376Y-82331817D02*
X81184376Y-81944769D01*
X81184376Y-81944769D02*
X81135995Y-81848007D01*
X81135995Y-81848007D02*
X81087614Y-81799626D01*
X81087614Y-81799626D02*
X80990852Y-81751245D01*
X80990852Y-81751245D02*
X80845709Y-81751245D01*
X80845709Y-81751245D02*
X80748947Y-81799626D01*
X80748947Y-81799626D02*
X80700566Y-81848007D01*
X80700566Y-81848007D02*
X80652185Y-81944769D01*
X80652185Y-81944769D02*
X80652185Y-82331817D01*
X80168376Y-81315817D02*
X81184376Y-81315817D01*
X80168376Y-80880388D02*
X80700566Y-80880388D01*
X80700566Y-80880388D02*
X80797328Y-80928769D01*
X80797328Y-80928769D02*
X80845709Y-81025531D01*
X80845709Y-81025531D02*
X80845709Y-81170674D01*
X80845709Y-81170674D02*
X80797328Y-81267436D01*
X80797328Y-81267436D02*
X80748947Y-81315817D01*
X80265137Y-80396579D02*
X80216757Y-80348198D01*
X80216757Y-80348198D02*
X80168376Y-80396579D01*
X80168376Y-80396579D02*
X80216757Y-80444960D01*
X80216757Y-80444960D02*
X80265137Y-80396579D01*
X80265137Y-80396579D02*
X80168376Y-80396579D01*
X80168376Y-79912769D02*
X81184376Y-79912769D01*
X81184376Y-79912769D02*
X81184376Y-79670864D01*
X81184376Y-79670864D02*
X81135995Y-79525721D01*
X81135995Y-79525721D02*
X81039233Y-79428959D01*
X81039233Y-79428959D02*
X80942471Y-79380578D01*
X80942471Y-79380578D02*
X80748947Y-79332197D01*
X80748947Y-79332197D02*
X80603804Y-79332197D01*
X80603804Y-79332197D02*
X80410280Y-79380578D01*
X80410280Y-79380578D02*
X80313518Y-79428959D01*
X80313518Y-79428959D02*
X80216757Y-79525721D01*
X80216757Y-79525721D02*
X80168376Y-79670864D01*
X80168376Y-79670864D02*
X80168376Y-79912769D01*
X80168376Y-78122674D02*
X81184376Y-78122674D01*
X81184376Y-78122674D02*
X80168376Y-77542102D01*
X80168376Y-77542102D02*
X81184376Y-77542102D01*
X80845709Y-76622864D02*
X80023233Y-76622864D01*
X80023233Y-76622864D02*
X79926471Y-76671245D01*
X79926471Y-76671245D02*
X79878090Y-76719626D01*
X79878090Y-76719626D02*
X79829709Y-76816388D01*
X79829709Y-76816388D02*
X79829709Y-76961531D01*
X79829709Y-76961531D02*
X79878090Y-77058293D01*
X80216757Y-76622864D02*
X80168376Y-76719626D01*
X80168376Y-76719626D02*
X80168376Y-76913150D01*
X80168376Y-76913150D02*
X80216757Y-77009912D01*
X80216757Y-77009912D02*
X80265137Y-77058293D01*
X80265137Y-77058293D02*
X80361899Y-77106674D01*
X80361899Y-77106674D02*
X80652185Y-77106674D01*
X80652185Y-77106674D02*
X80748947Y-77058293D01*
X80748947Y-77058293D02*
X80797328Y-77009912D01*
X80797328Y-77009912D02*
X80845709Y-76913150D01*
X80845709Y-76913150D02*
X80845709Y-76719626D01*
X80845709Y-76719626D02*
X80797328Y-76622864D01*
X80845709Y-75703626D02*
X80168376Y-75703626D01*
X80845709Y-76139055D02*
X80313518Y-76139055D01*
X80313518Y-76139055D02*
X80216757Y-76090674D01*
X80216757Y-76090674D02*
X80168376Y-75993912D01*
X80168376Y-75993912D02*
X80168376Y-75848769D01*
X80168376Y-75848769D02*
X80216757Y-75752007D01*
X80216757Y-75752007D02*
X80265137Y-75703626D01*
X80845709Y-75316579D02*
X80168376Y-75074674D01*
X80845709Y-74832769D02*
X80168376Y-75074674D01*
X80168376Y-75074674D02*
X79926471Y-75171436D01*
X79926471Y-75171436D02*
X79878090Y-75219817D01*
X79878090Y-75219817D02*
X79829709Y-75316579D01*
X80216757Y-74058674D02*
X80168376Y-74155436D01*
X80168376Y-74155436D02*
X80168376Y-74348960D01*
X80168376Y-74348960D02*
X80216757Y-74445722D01*
X80216757Y-74445722D02*
X80313518Y-74494103D01*
X80313518Y-74494103D02*
X80700566Y-74494103D01*
X80700566Y-74494103D02*
X80797328Y-74445722D01*
X80797328Y-74445722D02*
X80845709Y-74348960D01*
X80845709Y-74348960D02*
X80845709Y-74155436D01*
X80845709Y-74155436D02*
X80797328Y-74058674D01*
X80797328Y-74058674D02*
X80700566Y-74010293D01*
X80700566Y-74010293D02*
X80603804Y-74010293D01*
X80603804Y-74010293D02*
X80507042Y-74494103D01*
X80845709Y-73574865D02*
X80168376Y-73574865D01*
X80748947Y-73574865D02*
X80797328Y-73526484D01*
X80797328Y-73526484D02*
X80845709Y-73429722D01*
X80845709Y-73429722D02*
X80845709Y-73284579D01*
X80845709Y-73284579D02*
X80797328Y-73187817D01*
X80797328Y-73187817D02*
X80700566Y-73139436D01*
X80700566Y-73139436D02*
X80168376Y-73139436D01*
X80265137Y-71300960D02*
X80216757Y-71349341D01*
X80216757Y-71349341D02*
X80168376Y-71494484D01*
X80168376Y-71494484D02*
X80168376Y-71591246D01*
X80168376Y-71591246D02*
X80216757Y-71736389D01*
X80216757Y-71736389D02*
X80313518Y-71833151D01*
X80313518Y-71833151D02*
X80410280Y-71881532D01*
X80410280Y-71881532D02*
X80603804Y-71929913D01*
X80603804Y-71929913D02*
X80748947Y-71929913D01*
X80748947Y-71929913D02*
X80942471Y-71881532D01*
X80942471Y-71881532D02*
X81039233Y-71833151D01*
X81039233Y-71833151D02*
X81135995Y-71736389D01*
X81135995Y-71736389D02*
X81184376Y-71591246D01*
X81184376Y-71591246D02*
X81184376Y-71494484D01*
X81184376Y-71494484D02*
X81135995Y-71349341D01*
X81135995Y-71349341D02*
X81087614Y-71300960D01*
X80168376Y-70865532D02*
X81184376Y-70865532D01*
X80168376Y-70430103D02*
X80700566Y-70430103D01*
X80700566Y-70430103D02*
X80797328Y-70478484D01*
X80797328Y-70478484D02*
X80845709Y-70575246D01*
X80845709Y-70575246D02*
X80845709Y-70720389D01*
X80845709Y-70720389D02*
X80797328Y-70817151D01*
X80797328Y-70817151D02*
X80748947Y-70865532D01*
X80168376Y-69510865D02*
X80700566Y-69510865D01*
X80700566Y-69510865D02*
X80797328Y-69559246D01*
X80797328Y-69559246D02*
X80845709Y-69656008D01*
X80845709Y-69656008D02*
X80845709Y-69849532D01*
X80845709Y-69849532D02*
X80797328Y-69946294D01*
X80216757Y-69510865D02*
X80168376Y-69607627D01*
X80168376Y-69607627D02*
X80168376Y-69849532D01*
X80168376Y-69849532D02*
X80216757Y-69946294D01*
X80216757Y-69946294D02*
X80313518Y-69994675D01*
X80313518Y-69994675D02*
X80410280Y-69994675D01*
X80410280Y-69994675D02*
X80507042Y-69946294D01*
X80507042Y-69946294D02*
X80555423Y-69849532D01*
X80555423Y-69849532D02*
X80555423Y-69607627D01*
X80555423Y-69607627D02*
X80603804Y-69510865D01*
X80845709Y-69027056D02*
X80168376Y-69027056D01*
X80748947Y-69027056D02*
X80797328Y-68978675D01*
X80797328Y-68978675D02*
X80845709Y-68881913D01*
X80845709Y-68881913D02*
X80845709Y-68736770D01*
X80845709Y-68736770D02*
X80797328Y-68640008D01*
X80797328Y-68640008D02*
X80700566Y-68591627D01*
X80700566Y-68591627D02*
X80168376Y-68591627D01*
X81184376Y-67478866D02*
X80168376Y-67140199D01*
X80168376Y-67140199D02*
X81184376Y-66801532D01*
X80168376Y-66462866D02*
X80845709Y-66462866D01*
X81184376Y-66462866D02*
X81135995Y-66511247D01*
X81135995Y-66511247D02*
X81087614Y-66462866D01*
X81087614Y-66462866D02*
X81135995Y-66414485D01*
X81135995Y-66414485D02*
X81184376Y-66462866D01*
X81184376Y-66462866D02*
X81087614Y-66462866D01*
X80216757Y-65592008D02*
X80168376Y-65688770D01*
X80168376Y-65688770D02*
X80168376Y-65882294D01*
X80168376Y-65882294D02*
X80216757Y-65979056D01*
X80216757Y-65979056D02*
X80313518Y-66027437D01*
X80313518Y-66027437D02*
X80700566Y-66027437D01*
X80700566Y-66027437D02*
X80797328Y-65979056D01*
X80797328Y-65979056D02*
X80845709Y-65882294D01*
X80845709Y-65882294D02*
X80845709Y-65688770D01*
X80845709Y-65688770D02*
X80797328Y-65592008D01*
X80797328Y-65592008D02*
X80700566Y-65543627D01*
X80700566Y-65543627D02*
X80603804Y-65543627D01*
X80603804Y-65543627D02*
X80507042Y-66027437D01*
X80845709Y-65253342D02*
X80845709Y-64866294D01*
X81184376Y-65108199D02*
X80313518Y-65108199D01*
X80313518Y-65108199D02*
X80216757Y-65059818D01*
X80216757Y-65059818D02*
X80168376Y-64963056D01*
X80168376Y-64963056D02*
X80168376Y-64866294D01*
X151224942Y-81107695D02*
X151563609Y-80623886D01*
X151805514Y-81107695D02*
X151805514Y-80091695D01*
X151805514Y-80091695D02*
X151418466Y-80091695D01*
X151418466Y-80091695D02*
X151321704Y-80140076D01*
X151321704Y-80140076D02*
X151273323Y-80188457D01*
X151273323Y-80188457D02*
X151224942Y-80285219D01*
X151224942Y-80285219D02*
X151224942Y-80430362D01*
X151224942Y-80430362D02*
X151273323Y-80527124D01*
X151273323Y-80527124D02*
X151321704Y-80575505D01*
X151321704Y-80575505D02*
X151418466Y-80623886D01*
X151418466Y-80623886D02*
X151805514Y-80623886D01*
X150257323Y-81107695D02*
X150837895Y-81107695D01*
X150547609Y-81107695D02*
X150547609Y-80091695D01*
X150547609Y-80091695D02*
X150644371Y-80236838D01*
X150644371Y-80236838D02*
X150741133Y-80333600D01*
X150741133Y-80333600D02*
X150837895Y-80381981D01*
X149628371Y-80091695D02*
X149531609Y-80091695D01*
X149531609Y-80091695D02*
X149434847Y-80140076D01*
X149434847Y-80140076D02*
X149386466Y-80188457D01*
X149386466Y-80188457D02*
X149338085Y-80285219D01*
X149338085Y-80285219D02*
X149289704Y-80478743D01*
X149289704Y-80478743D02*
X149289704Y-80720648D01*
X149289704Y-80720648D02*
X149338085Y-80914172D01*
X149338085Y-80914172D02*
X149386466Y-81010934D01*
X149386466Y-81010934D02*
X149434847Y-81059315D01*
X149434847Y-81059315D02*
X149531609Y-81107695D01*
X149531609Y-81107695D02*
X149628371Y-81107695D01*
X149628371Y-81107695D02*
X149725133Y-81059315D01*
X149725133Y-81059315D02*
X149773514Y-81010934D01*
X149773514Y-81010934D02*
X149821895Y-80914172D01*
X149821895Y-80914172D02*
X149870276Y-80720648D01*
X149870276Y-80720648D02*
X149870276Y-80478743D01*
X149870276Y-80478743D02*
X149821895Y-80285219D01*
X149821895Y-80285219D02*
X149773514Y-80188457D01*
X149773514Y-80188457D02*
X149725133Y-80140076D01*
X149725133Y-80140076D02*
X149628371Y-80091695D01*
X142675534Y-76053857D02*
X142723915Y-76005476D01*
X142723915Y-76005476D02*
X142772295Y-75860333D01*
X142772295Y-75860333D02*
X142772295Y-75763571D01*
X142772295Y-75763571D02*
X142723915Y-75618428D01*
X142723915Y-75618428D02*
X142627153Y-75521666D01*
X142627153Y-75521666D02*
X142530391Y-75473285D01*
X142530391Y-75473285D02*
X142336867Y-75424904D01*
X142336867Y-75424904D02*
X142191724Y-75424904D01*
X142191724Y-75424904D02*
X141998200Y-75473285D01*
X141998200Y-75473285D02*
X141901438Y-75521666D01*
X141901438Y-75521666D02*
X141804676Y-75618428D01*
X141804676Y-75618428D02*
X141756295Y-75763571D01*
X141756295Y-75763571D02*
X141756295Y-75860333D01*
X141756295Y-75860333D02*
X141804676Y-76005476D01*
X141804676Y-76005476D02*
X141853057Y-76053857D01*
X142772295Y-77021476D02*
X142772295Y-76440904D01*
X142772295Y-76731190D02*
X141756295Y-76731190D01*
X141756295Y-76731190D02*
X141901438Y-76634428D01*
X141901438Y-76634428D02*
X141998200Y-76537666D01*
X141998200Y-76537666D02*
X142046581Y-76440904D01*
X142772295Y-77989095D02*
X142772295Y-77408523D01*
X142772295Y-77698809D02*
X141756295Y-77698809D01*
X141756295Y-77698809D02*
X141901438Y-77602047D01*
X141901438Y-77602047D02*
X141998200Y-77505285D01*
X141998200Y-77505285D02*
X142046581Y-77408523D01*
X128804865Y-39240142D02*
X128756485Y-39288523D01*
X128756485Y-39288523D02*
X128708104Y-39433666D01*
X128708104Y-39433666D02*
X128708104Y-39530428D01*
X128708104Y-39530428D02*
X128756485Y-39675571D01*
X128756485Y-39675571D02*
X128853246Y-39772333D01*
X128853246Y-39772333D02*
X128950008Y-39820714D01*
X128950008Y-39820714D02*
X129143532Y-39869095D01*
X129143532Y-39869095D02*
X129288675Y-39869095D01*
X129288675Y-39869095D02*
X129482199Y-39820714D01*
X129482199Y-39820714D02*
X129578961Y-39772333D01*
X129578961Y-39772333D02*
X129675723Y-39675571D01*
X129675723Y-39675571D02*
X129724104Y-39530428D01*
X129724104Y-39530428D02*
X129724104Y-39433666D01*
X129724104Y-39433666D02*
X129675723Y-39288523D01*
X129675723Y-39288523D02*
X129627342Y-39240142D01*
X128708104Y-38272523D02*
X128708104Y-38853095D01*
X128708104Y-38562809D02*
X129724104Y-38562809D01*
X129724104Y-38562809D02*
X129578961Y-38659571D01*
X129578961Y-38659571D02*
X129482199Y-38756333D01*
X129482199Y-38756333D02*
X129433818Y-38853095D01*
X129724104Y-37933857D02*
X129724104Y-37256523D01*
X129724104Y-37256523D02*
X128708104Y-37691952D01*
X63968104Y-50750142D02*
X64451913Y-51088809D01*
X63968104Y-51330714D02*
X64984104Y-51330714D01*
X64984104Y-51330714D02*
X64984104Y-50943666D01*
X64984104Y-50943666D02*
X64935723Y-50846904D01*
X64935723Y-50846904D02*
X64887342Y-50798523D01*
X64887342Y-50798523D02*
X64790580Y-50750142D01*
X64790580Y-50750142D02*
X64645437Y-50750142D01*
X64645437Y-50750142D02*
X64548675Y-50798523D01*
X64548675Y-50798523D02*
X64500294Y-50846904D01*
X64500294Y-50846904D02*
X64451913Y-50943666D01*
X64451913Y-50943666D02*
X64451913Y-51330714D01*
X64887342Y-50363095D02*
X64935723Y-50314714D01*
X64935723Y-50314714D02*
X64984104Y-50217952D01*
X64984104Y-50217952D02*
X64984104Y-49976047D01*
X64984104Y-49976047D02*
X64935723Y-49879285D01*
X64935723Y-49879285D02*
X64887342Y-49830904D01*
X64887342Y-49830904D02*
X64790580Y-49782523D01*
X64790580Y-49782523D02*
X64693818Y-49782523D01*
X64693818Y-49782523D02*
X64548675Y-49830904D01*
X64548675Y-49830904D02*
X63968104Y-50411476D01*
X63968104Y-50411476D02*
X63968104Y-49782523D01*
X64984104Y-49443857D02*
X64984104Y-48814904D01*
X64984104Y-48814904D02*
X64597056Y-49153571D01*
X64597056Y-49153571D02*
X64597056Y-49008428D01*
X64597056Y-49008428D02*
X64548675Y-48911666D01*
X64548675Y-48911666D02*
X64500294Y-48863285D01*
X64500294Y-48863285D02*
X64403532Y-48814904D01*
X64403532Y-48814904D02*
X64161627Y-48814904D01*
X64161627Y-48814904D02*
X64064865Y-48863285D01*
X64064865Y-48863285D02*
X64016485Y-48911666D01*
X64016485Y-48911666D02*
X63968104Y-49008428D01*
X63968104Y-49008428D02*
X63968104Y-49298714D01*
X63968104Y-49298714D02*
X64016485Y-49395476D01*
X64016485Y-49395476D02*
X64064865Y-49443857D01*
X152746032Y-83813134D02*
X152794413Y-83861515D01*
X152794413Y-83861515D02*
X152939556Y-83909895D01*
X152939556Y-83909895D02*
X153036318Y-83909895D01*
X153036318Y-83909895D02*
X153181461Y-83861515D01*
X153181461Y-83861515D02*
X153278223Y-83764753D01*
X153278223Y-83764753D02*
X153326604Y-83667991D01*
X153326604Y-83667991D02*
X153374985Y-83474467D01*
X153374985Y-83474467D02*
X153374985Y-83329324D01*
X153374985Y-83329324D02*
X153326604Y-83135800D01*
X153326604Y-83135800D02*
X153278223Y-83039038D01*
X153278223Y-83039038D02*
X153181461Y-82942276D01*
X153181461Y-82942276D02*
X153036318Y-82893895D01*
X153036318Y-82893895D02*
X152939556Y-82893895D01*
X152939556Y-82893895D02*
X152794413Y-82942276D01*
X152794413Y-82942276D02*
X152746032Y-82990657D01*
X152165461Y-83329324D02*
X152262223Y-83280943D01*
X152262223Y-83280943D02*
X152310604Y-83232562D01*
X152310604Y-83232562D02*
X152358985Y-83135800D01*
X152358985Y-83135800D02*
X152358985Y-83087419D01*
X152358985Y-83087419D02*
X152310604Y-82990657D01*
X152310604Y-82990657D02*
X152262223Y-82942276D01*
X152262223Y-82942276D02*
X152165461Y-82893895D01*
X152165461Y-82893895D02*
X151971937Y-82893895D01*
X151971937Y-82893895D02*
X151875175Y-82942276D01*
X151875175Y-82942276D02*
X151826794Y-82990657D01*
X151826794Y-82990657D02*
X151778413Y-83087419D01*
X151778413Y-83087419D02*
X151778413Y-83135800D01*
X151778413Y-83135800D02*
X151826794Y-83232562D01*
X151826794Y-83232562D02*
X151875175Y-83280943D01*
X151875175Y-83280943D02*
X151971937Y-83329324D01*
X151971937Y-83329324D02*
X152165461Y-83329324D01*
X152165461Y-83329324D02*
X152262223Y-83377705D01*
X152262223Y-83377705D02*
X152310604Y-83426086D01*
X152310604Y-83426086D02*
X152358985Y-83522848D01*
X152358985Y-83522848D02*
X152358985Y-83716372D01*
X152358985Y-83716372D02*
X152310604Y-83813134D01*
X152310604Y-83813134D02*
X152262223Y-83861515D01*
X152262223Y-83861515D02*
X152165461Y-83909895D01*
X152165461Y-83909895D02*
X151971937Y-83909895D01*
X151971937Y-83909895D02*
X151875175Y-83861515D01*
X151875175Y-83861515D02*
X151826794Y-83813134D01*
X151826794Y-83813134D02*
X151778413Y-83716372D01*
X151778413Y-83716372D02*
X151778413Y-83522848D01*
X151778413Y-83522848D02*
X151826794Y-83426086D01*
X151826794Y-83426086D02*
X151875175Y-83377705D01*
X151875175Y-83377705D02*
X151971937Y-83329324D01*
X146172295Y-83697667D02*
X145688486Y-83359000D01*
X146172295Y-83117095D02*
X145156295Y-83117095D01*
X145156295Y-83117095D02*
X145156295Y-83504143D01*
X145156295Y-83504143D02*
X145204676Y-83600905D01*
X145204676Y-83600905D02*
X145253057Y-83649286D01*
X145253057Y-83649286D02*
X145349819Y-83697667D01*
X145349819Y-83697667D02*
X145494962Y-83697667D01*
X145494962Y-83697667D02*
X145591724Y-83649286D01*
X145591724Y-83649286D02*
X145640105Y-83600905D01*
X145640105Y-83600905D02*
X145688486Y-83504143D01*
X145688486Y-83504143D02*
X145688486Y-83117095D01*
X145156295Y-84036333D02*
X145156295Y-84665286D01*
X145156295Y-84665286D02*
X145543343Y-84326619D01*
X145543343Y-84326619D02*
X145543343Y-84471762D01*
X145543343Y-84471762D02*
X145591724Y-84568524D01*
X145591724Y-84568524D02*
X145640105Y-84616905D01*
X145640105Y-84616905D02*
X145736867Y-84665286D01*
X145736867Y-84665286D02*
X145978772Y-84665286D01*
X145978772Y-84665286D02*
X146075534Y-84616905D01*
X146075534Y-84616905D02*
X146123915Y-84568524D01*
X146123915Y-84568524D02*
X146172295Y-84471762D01*
X146172295Y-84471762D02*
X146172295Y-84181476D01*
X146172295Y-84181476D02*
X146123915Y-84084714D01*
X146123915Y-84084714D02*
X146075534Y-84036333D01*
X64678104Y-87800142D02*
X65161913Y-88138809D01*
X64678104Y-88380714D02*
X65694104Y-88380714D01*
X65694104Y-88380714D02*
X65694104Y-87993666D01*
X65694104Y-87993666D02*
X65645723Y-87896904D01*
X65645723Y-87896904D02*
X65597342Y-87848523D01*
X65597342Y-87848523D02*
X65500580Y-87800142D01*
X65500580Y-87800142D02*
X65355437Y-87800142D01*
X65355437Y-87800142D02*
X65258675Y-87848523D01*
X65258675Y-87848523D02*
X65210294Y-87896904D01*
X65210294Y-87896904D02*
X65161913Y-87993666D01*
X65161913Y-87993666D02*
X65161913Y-88380714D01*
X65597342Y-87413095D02*
X65645723Y-87364714D01*
X65645723Y-87364714D02*
X65694104Y-87267952D01*
X65694104Y-87267952D02*
X65694104Y-87026047D01*
X65694104Y-87026047D02*
X65645723Y-86929285D01*
X65645723Y-86929285D02*
X65597342Y-86880904D01*
X65597342Y-86880904D02*
X65500580Y-86832523D01*
X65500580Y-86832523D02*
X65403818Y-86832523D01*
X65403818Y-86832523D02*
X65258675Y-86880904D01*
X65258675Y-86880904D02*
X64678104Y-87461476D01*
X64678104Y-87461476D02*
X64678104Y-86832523D01*
X65355437Y-85961666D02*
X64678104Y-85961666D01*
X65742485Y-86203571D02*
X65016770Y-86445476D01*
X65016770Y-86445476D02*
X65016770Y-85816523D01*
X139883342Y-44792334D02*
X139931723Y-44840715D01*
X139931723Y-44840715D02*
X140076866Y-44889095D01*
X140076866Y-44889095D02*
X140173628Y-44889095D01*
X140173628Y-44889095D02*
X140318771Y-44840715D01*
X140318771Y-44840715D02*
X140415533Y-44743953D01*
X140415533Y-44743953D02*
X140463914Y-44647191D01*
X140463914Y-44647191D02*
X140512295Y-44453667D01*
X140512295Y-44453667D02*
X140512295Y-44308524D01*
X140512295Y-44308524D02*
X140463914Y-44115000D01*
X140463914Y-44115000D02*
X140415533Y-44018238D01*
X140415533Y-44018238D02*
X140318771Y-43921476D01*
X140318771Y-43921476D02*
X140173628Y-43873095D01*
X140173628Y-43873095D02*
X140076866Y-43873095D01*
X140076866Y-43873095D02*
X139931723Y-43921476D01*
X139931723Y-43921476D02*
X139883342Y-43969857D01*
X139496295Y-43969857D02*
X139447914Y-43921476D01*
X139447914Y-43921476D02*
X139351152Y-43873095D01*
X139351152Y-43873095D02*
X139109247Y-43873095D01*
X139109247Y-43873095D02*
X139012485Y-43921476D01*
X139012485Y-43921476D02*
X138964104Y-43969857D01*
X138964104Y-43969857D02*
X138915723Y-44066619D01*
X138915723Y-44066619D02*
X138915723Y-44163381D01*
X138915723Y-44163381D02*
X138964104Y-44308524D01*
X138964104Y-44308524D02*
X139544676Y-44889095D01*
X139544676Y-44889095D02*
X138915723Y-44889095D01*
X138286771Y-43873095D02*
X138190009Y-43873095D01*
X138190009Y-43873095D02*
X138093247Y-43921476D01*
X138093247Y-43921476D02*
X138044866Y-43969857D01*
X138044866Y-43969857D02*
X137996485Y-44066619D01*
X137996485Y-44066619D02*
X137948104Y-44260143D01*
X137948104Y-44260143D02*
X137948104Y-44502048D01*
X137948104Y-44502048D02*
X137996485Y-44695572D01*
X137996485Y-44695572D02*
X138044866Y-44792334D01*
X138044866Y-44792334D02*
X138093247Y-44840715D01*
X138093247Y-44840715D02*
X138190009Y-44889095D01*
X138190009Y-44889095D02*
X138286771Y-44889095D01*
X138286771Y-44889095D02*
X138383533Y-44840715D01*
X138383533Y-44840715D02*
X138431914Y-44792334D01*
X138431914Y-44792334D02*
X138480295Y-44695572D01*
X138480295Y-44695572D02*
X138528676Y-44502048D01*
X138528676Y-44502048D02*
X138528676Y-44260143D01*
X138528676Y-44260143D02*
X138480295Y-44066619D01*
X138480295Y-44066619D02*
X138431914Y-43969857D01*
X138431914Y-43969857D02*
X138383533Y-43921476D01*
X138383533Y-43921476D02*
X138286771Y-43873095D01*
X146883342Y-57439095D02*
X147222009Y-56955286D01*
X147463914Y-57439095D02*
X147463914Y-56423095D01*
X147463914Y-56423095D02*
X147076866Y-56423095D01*
X147076866Y-56423095D02*
X146980104Y-56471476D01*
X146980104Y-56471476D02*
X146931723Y-56519857D01*
X146931723Y-56519857D02*
X146883342Y-56616619D01*
X146883342Y-56616619D02*
X146883342Y-56761762D01*
X146883342Y-56761762D02*
X146931723Y-56858524D01*
X146931723Y-56858524D02*
X146980104Y-56906905D01*
X146980104Y-56906905D02*
X147076866Y-56955286D01*
X147076866Y-56955286D02*
X147463914Y-56955286D01*
X145915723Y-57439095D02*
X146496295Y-57439095D01*
X146206009Y-57439095D02*
X146206009Y-56423095D01*
X146206009Y-56423095D02*
X146302771Y-56568238D01*
X146302771Y-56568238D02*
X146399533Y-56665000D01*
X146399533Y-56665000D02*
X146496295Y-56713381D01*
X145528676Y-56519857D02*
X145480295Y-56471476D01*
X145480295Y-56471476D02*
X145383533Y-56423095D01*
X145383533Y-56423095D02*
X145141628Y-56423095D01*
X145141628Y-56423095D02*
X145044866Y-56471476D01*
X145044866Y-56471476D02*
X144996485Y-56519857D01*
X144996485Y-56519857D02*
X144948104Y-56616619D01*
X144948104Y-56616619D02*
X144948104Y-56713381D01*
X144948104Y-56713381D02*
X144996485Y-56858524D01*
X144996485Y-56858524D02*
X145577057Y-57439095D01*
X145577057Y-57439095D02*
X144948104Y-57439095D01*
X137602295Y-53603857D02*
X137118486Y-53265190D01*
X137602295Y-53023285D02*
X136586295Y-53023285D01*
X136586295Y-53023285D02*
X136586295Y-53410333D01*
X136586295Y-53410333D02*
X136634676Y-53507095D01*
X136634676Y-53507095D02*
X136683057Y-53555476D01*
X136683057Y-53555476D02*
X136779819Y-53603857D01*
X136779819Y-53603857D02*
X136924962Y-53603857D01*
X136924962Y-53603857D02*
X137021724Y-53555476D01*
X137021724Y-53555476D02*
X137070105Y-53507095D01*
X137070105Y-53507095D02*
X137118486Y-53410333D01*
X137118486Y-53410333D02*
X137118486Y-53023285D01*
X137602295Y-54571476D02*
X137602295Y-53990904D01*
X137602295Y-54281190D02*
X136586295Y-54281190D01*
X136586295Y-54281190D02*
X136731438Y-54184428D01*
X136731438Y-54184428D02*
X136828200Y-54087666D01*
X136828200Y-54087666D02*
X136876581Y-53990904D01*
X136586295Y-54910142D02*
X136586295Y-55539095D01*
X136586295Y-55539095D02*
X136973343Y-55200428D01*
X136973343Y-55200428D02*
X136973343Y-55345571D01*
X136973343Y-55345571D02*
X137021724Y-55442333D01*
X137021724Y-55442333D02*
X137070105Y-55490714D01*
X137070105Y-55490714D02*
X137166867Y-55539095D01*
X137166867Y-55539095D02*
X137408772Y-55539095D01*
X137408772Y-55539095D02*
X137505534Y-55490714D01*
X137505534Y-55490714D02*
X137553915Y-55442333D01*
X137553915Y-55442333D02*
X137602295Y-55345571D01*
X137602295Y-55345571D02*
X137602295Y-55055285D01*
X137602295Y-55055285D02*
X137553915Y-54958523D01*
X137553915Y-54958523D02*
X137505534Y-54910142D01*
X77704342Y-44468634D02*
X77752723Y-44517015D01*
X77752723Y-44517015D02*
X77897866Y-44565395D01*
X77897866Y-44565395D02*
X77994628Y-44565395D01*
X77994628Y-44565395D02*
X78139771Y-44517015D01*
X78139771Y-44517015D02*
X78236533Y-44420253D01*
X78236533Y-44420253D02*
X78284914Y-44323491D01*
X78284914Y-44323491D02*
X78333295Y-44129967D01*
X78333295Y-44129967D02*
X78333295Y-43984824D01*
X78333295Y-43984824D02*
X78284914Y-43791300D01*
X78284914Y-43791300D02*
X78236533Y-43694538D01*
X78236533Y-43694538D02*
X78139771Y-43597776D01*
X78139771Y-43597776D02*
X77994628Y-43549395D01*
X77994628Y-43549395D02*
X77897866Y-43549395D01*
X77897866Y-43549395D02*
X77752723Y-43597776D01*
X77752723Y-43597776D02*
X77704342Y-43646157D01*
X77365676Y-43549395D02*
X76736723Y-43549395D01*
X76736723Y-43549395D02*
X77075390Y-43936443D01*
X77075390Y-43936443D02*
X76930247Y-43936443D01*
X76930247Y-43936443D02*
X76833485Y-43984824D01*
X76833485Y-43984824D02*
X76785104Y-44033205D01*
X76785104Y-44033205D02*
X76736723Y-44129967D01*
X76736723Y-44129967D02*
X76736723Y-44371872D01*
X76736723Y-44371872D02*
X76785104Y-44468634D01*
X76785104Y-44468634D02*
X76833485Y-44517015D01*
X76833485Y-44517015D02*
X76930247Y-44565395D01*
X76930247Y-44565395D02*
X77220533Y-44565395D01*
X77220533Y-44565395D02*
X77317295Y-44517015D01*
X77317295Y-44517015D02*
X77365676Y-44468634D01*
X76107771Y-43549395D02*
X76011009Y-43549395D01*
X76011009Y-43549395D02*
X75914247Y-43597776D01*
X75914247Y-43597776D02*
X75865866Y-43646157D01*
X75865866Y-43646157D02*
X75817485Y-43742919D01*
X75817485Y-43742919D02*
X75769104Y-43936443D01*
X75769104Y-43936443D02*
X75769104Y-44178348D01*
X75769104Y-44178348D02*
X75817485Y-44371872D01*
X75817485Y-44371872D02*
X75865866Y-44468634D01*
X75865866Y-44468634D02*
X75914247Y-44517015D01*
X75914247Y-44517015D02*
X76011009Y-44565395D01*
X76011009Y-44565395D02*
X76107771Y-44565395D01*
X76107771Y-44565395D02*
X76204533Y-44517015D01*
X76204533Y-44517015D02*
X76252914Y-44468634D01*
X76252914Y-44468634D02*
X76301295Y-44371872D01*
X76301295Y-44371872D02*
X76349676Y-44178348D01*
X76349676Y-44178348D02*
X76349676Y-43936443D01*
X76349676Y-43936443D02*
X76301295Y-43742919D01*
X76301295Y-43742919D02*
X76252914Y-43646157D01*
X76252914Y-43646157D02*
X76204533Y-43597776D01*
X76204533Y-43597776D02*
X76107771Y-43549395D01*
X63953342Y-41549095D02*
X64292009Y-41065286D01*
X64533914Y-41549095D02*
X64533914Y-40533095D01*
X64533914Y-40533095D02*
X64146866Y-40533095D01*
X64146866Y-40533095D02*
X64050104Y-40581476D01*
X64050104Y-40581476D02*
X64001723Y-40629857D01*
X64001723Y-40629857D02*
X63953342Y-40726619D01*
X63953342Y-40726619D02*
X63953342Y-40871762D01*
X63953342Y-40871762D02*
X64001723Y-40968524D01*
X64001723Y-40968524D02*
X64050104Y-41016905D01*
X64050104Y-41016905D02*
X64146866Y-41065286D01*
X64146866Y-41065286D02*
X64533914Y-41065286D01*
X63566295Y-40629857D02*
X63517914Y-40581476D01*
X63517914Y-40581476D02*
X63421152Y-40533095D01*
X63421152Y-40533095D02*
X63179247Y-40533095D01*
X63179247Y-40533095D02*
X63082485Y-40581476D01*
X63082485Y-40581476D02*
X63034104Y-40629857D01*
X63034104Y-40629857D02*
X62985723Y-40726619D01*
X62985723Y-40726619D02*
X62985723Y-40823381D01*
X62985723Y-40823381D02*
X63034104Y-40968524D01*
X63034104Y-40968524D02*
X63614676Y-41549095D01*
X63614676Y-41549095D02*
X62985723Y-41549095D01*
X62114866Y-40533095D02*
X62308390Y-40533095D01*
X62308390Y-40533095D02*
X62405152Y-40581476D01*
X62405152Y-40581476D02*
X62453533Y-40629857D01*
X62453533Y-40629857D02*
X62550295Y-40775000D01*
X62550295Y-40775000D02*
X62598676Y-40968524D01*
X62598676Y-40968524D02*
X62598676Y-41355572D01*
X62598676Y-41355572D02*
X62550295Y-41452334D01*
X62550295Y-41452334D02*
X62501914Y-41500715D01*
X62501914Y-41500715D02*
X62405152Y-41549095D01*
X62405152Y-41549095D02*
X62211628Y-41549095D01*
X62211628Y-41549095D02*
X62114866Y-41500715D01*
X62114866Y-41500715D02*
X62066485Y-41452334D01*
X62066485Y-41452334D02*
X62018104Y-41355572D01*
X62018104Y-41355572D02*
X62018104Y-41113667D01*
X62018104Y-41113667D02*
X62066485Y-41016905D01*
X62066485Y-41016905D02*
X62114866Y-40968524D01*
X62114866Y-40968524D02*
X62211628Y-40920143D01*
X62211628Y-40920143D02*
X62405152Y-40920143D01*
X62405152Y-40920143D02*
X62501914Y-40968524D01*
X62501914Y-40968524D02*
X62550295Y-41016905D01*
X62550295Y-41016905D02*
X62598676Y-41113667D01*
X146123342Y-52419095D02*
X146462009Y-51935286D01*
X146703914Y-52419095D02*
X146703914Y-51403095D01*
X146703914Y-51403095D02*
X146316866Y-51403095D01*
X146316866Y-51403095D02*
X146220104Y-51451476D01*
X146220104Y-51451476D02*
X146171723Y-51499857D01*
X146171723Y-51499857D02*
X146123342Y-51596619D01*
X146123342Y-51596619D02*
X146123342Y-51741762D01*
X146123342Y-51741762D02*
X146171723Y-51838524D01*
X146171723Y-51838524D02*
X146220104Y-51886905D01*
X146220104Y-51886905D02*
X146316866Y-51935286D01*
X146316866Y-51935286D02*
X146703914Y-51935286D01*
X145155723Y-52419095D02*
X145736295Y-52419095D01*
X145446009Y-52419095D02*
X145446009Y-51403095D01*
X145446009Y-51403095D02*
X145542771Y-51548238D01*
X145542771Y-51548238D02*
X145639533Y-51645000D01*
X145639533Y-51645000D02*
X145736295Y-51693381D01*
X144188104Y-52419095D02*
X144768676Y-52419095D01*
X144478390Y-52419095D02*
X144478390Y-51403095D01*
X144478390Y-51403095D02*
X144575152Y-51548238D01*
X144575152Y-51548238D02*
X144671914Y-51645000D01*
X144671914Y-51645000D02*
X144768676Y-51693381D01*
X63978104Y-54590142D02*
X64461913Y-54928809D01*
X63978104Y-55170714D02*
X64994104Y-55170714D01*
X64994104Y-55170714D02*
X64994104Y-54783666D01*
X64994104Y-54783666D02*
X64945723Y-54686904D01*
X64945723Y-54686904D02*
X64897342Y-54638523D01*
X64897342Y-54638523D02*
X64800580Y-54590142D01*
X64800580Y-54590142D02*
X64655437Y-54590142D01*
X64655437Y-54590142D02*
X64558675Y-54638523D01*
X64558675Y-54638523D02*
X64510294Y-54686904D01*
X64510294Y-54686904D02*
X64461913Y-54783666D01*
X64461913Y-54783666D02*
X64461913Y-55170714D01*
X64897342Y-54203095D02*
X64945723Y-54154714D01*
X64945723Y-54154714D02*
X64994104Y-54057952D01*
X64994104Y-54057952D02*
X64994104Y-53816047D01*
X64994104Y-53816047D02*
X64945723Y-53719285D01*
X64945723Y-53719285D02*
X64897342Y-53670904D01*
X64897342Y-53670904D02*
X64800580Y-53622523D01*
X64800580Y-53622523D02*
X64703818Y-53622523D01*
X64703818Y-53622523D02*
X64558675Y-53670904D01*
X64558675Y-53670904D02*
X63978104Y-54251476D01*
X63978104Y-54251476D02*
X63978104Y-53622523D01*
X64994104Y-52703285D02*
X64994104Y-53187095D01*
X64994104Y-53187095D02*
X64510294Y-53235476D01*
X64510294Y-53235476D02*
X64558675Y-53187095D01*
X64558675Y-53187095D02*
X64607056Y-53090333D01*
X64607056Y-53090333D02*
X64607056Y-52848428D01*
X64607056Y-52848428D02*
X64558675Y-52751666D01*
X64558675Y-52751666D02*
X64510294Y-52703285D01*
X64510294Y-52703285D02*
X64413532Y-52654904D01*
X64413532Y-52654904D02*
X64171627Y-52654904D01*
X64171627Y-52654904D02*
X64074865Y-52703285D01*
X64074865Y-52703285D02*
X64026485Y-52751666D01*
X64026485Y-52751666D02*
X63978104Y-52848428D01*
X63978104Y-52848428D02*
X63978104Y-53090333D01*
X63978104Y-53090333D02*
X64026485Y-53187095D01*
X64026485Y-53187095D02*
X64074865Y-53235476D01*
X151607067Y-92179904D02*
X151268400Y-92663713D01*
X151026495Y-92179904D02*
X151026495Y-93195904D01*
X151026495Y-93195904D02*
X151413543Y-93195904D01*
X151413543Y-93195904D02*
X151510305Y-93147523D01*
X151510305Y-93147523D02*
X151558686Y-93099142D01*
X151558686Y-93099142D02*
X151607067Y-93002380D01*
X151607067Y-93002380D02*
X151607067Y-92857237D01*
X151607067Y-92857237D02*
X151558686Y-92760475D01*
X151558686Y-92760475D02*
X151510305Y-92712094D01*
X151510305Y-92712094D02*
X151413543Y-92663713D01*
X151413543Y-92663713D02*
X151026495Y-92663713D01*
X152477924Y-92857237D02*
X152477924Y-92179904D01*
X152236019Y-93244285D02*
X151994114Y-92518570D01*
X151994114Y-92518570D02*
X152623067Y-92518570D01*
X59505534Y-32613857D02*
X59553915Y-32565476D01*
X59553915Y-32565476D02*
X59602295Y-32420333D01*
X59602295Y-32420333D02*
X59602295Y-32323571D01*
X59602295Y-32323571D02*
X59553915Y-32178428D01*
X59553915Y-32178428D02*
X59457153Y-32081666D01*
X59457153Y-32081666D02*
X59360391Y-32033285D01*
X59360391Y-32033285D02*
X59166867Y-31984904D01*
X59166867Y-31984904D02*
X59021724Y-31984904D01*
X59021724Y-31984904D02*
X58828200Y-32033285D01*
X58828200Y-32033285D02*
X58731438Y-32081666D01*
X58731438Y-32081666D02*
X58634676Y-32178428D01*
X58634676Y-32178428D02*
X58586295Y-32323571D01*
X58586295Y-32323571D02*
X58586295Y-32420333D01*
X58586295Y-32420333D02*
X58634676Y-32565476D01*
X58634676Y-32565476D02*
X58683057Y-32613857D01*
X58586295Y-32952523D02*
X58586295Y-33581476D01*
X58586295Y-33581476D02*
X58973343Y-33242809D01*
X58973343Y-33242809D02*
X58973343Y-33387952D01*
X58973343Y-33387952D02*
X59021724Y-33484714D01*
X59021724Y-33484714D02*
X59070105Y-33533095D01*
X59070105Y-33533095D02*
X59166867Y-33581476D01*
X59166867Y-33581476D02*
X59408772Y-33581476D01*
X59408772Y-33581476D02*
X59505534Y-33533095D01*
X59505534Y-33533095D02*
X59553915Y-33484714D01*
X59553915Y-33484714D02*
X59602295Y-33387952D01*
X59602295Y-33387952D02*
X59602295Y-33097666D01*
X59602295Y-33097666D02*
X59553915Y-33000904D01*
X59553915Y-33000904D02*
X59505534Y-32952523D01*
X59602295Y-34549095D02*
X59602295Y-33968523D01*
X59602295Y-34258809D02*
X58586295Y-34258809D01*
X58586295Y-34258809D02*
X58731438Y-34162047D01*
X58731438Y-34162047D02*
X58828200Y-34065285D01*
X58828200Y-34065285D02*
X58876581Y-33968523D01*
X64038104Y-46980142D02*
X64521913Y-47318809D01*
X64038104Y-47560714D02*
X65054104Y-47560714D01*
X65054104Y-47560714D02*
X65054104Y-47173666D01*
X65054104Y-47173666D02*
X65005723Y-47076904D01*
X65005723Y-47076904D02*
X64957342Y-47028523D01*
X64957342Y-47028523D02*
X64860580Y-46980142D01*
X64860580Y-46980142D02*
X64715437Y-46980142D01*
X64715437Y-46980142D02*
X64618675Y-47028523D01*
X64618675Y-47028523D02*
X64570294Y-47076904D01*
X64570294Y-47076904D02*
X64521913Y-47173666D01*
X64521913Y-47173666D02*
X64521913Y-47560714D01*
X64957342Y-46593095D02*
X65005723Y-46544714D01*
X65005723Y-46544714D02*
X65054104Y-46447952D01*
X65054104Y-46447952D02*
X65054104Y-46206047D01*
X65054104Y-46206047D02*
X65005723Y-46109285D01*
X65005723Y-46109285D02*
X64957342Y-46060904D01*
X64957342Y-46060904D02*
X64860580Y-46012523D01*
X64860580Y-46012523D02*
X64763818Y-46012523D01*
X64763818Y-46012523D02*
X64618675Y-46060904D01*
X64618675Y-46060904D02*
X64038104Y-46641476D01*
X64038104Y-46641476D02*
X64038104Y-46012523D01*
X64957342Y-45625476D02*
X65005723Y-45577095D01*
X65005723Y-45577095D02*
X65054104Y-45480333D01*
X65054104Y-45480333D02*
X65054104Y-45238428D01*
X65054104Y-45238428D02*
X65005723Y-45141666D01*
X65005723Y-45141666D02*
X64957342Y-45093285D01*
X64957342Y-45093285D02*
X64860580Y-45044904D01*
X64860580Y-45044904D02*
X64763818Y-45044904D01*
X64763818Y-45044904D02*
X64618675Y-45093285D01*
X64618675Y-45093285D02*
X64038104Y-45673857D01*
X64038104Y-45673857D02*
X64038104Y-45044904D01*
X63118104Y-87800142D02*
X63601913Y-88138809D01*
X63118104Y-88380714D02*
X64134104Y-88380714D01*
X64134104Y-88380714D02*
X64134104Y-87993666D01*
X64134104Y-87993666D02*
X64085723Y-87896904D01*
X64085723Y-87896904D02*
X64037342Y-87848523D01*
X64037342Y-87848523D02*
X63940580Y-87800142D01*
X63940580Y-87800142D02*
X63795437Y-87800142D01*
X63795437Y-87800142D02*
X63698675Y-87848523D01*
X63698675Y-87848523D02*
X63650294Y-87896904D01*
X63650294Y-87896904D02*
X63601913Y-87993666D01*
X63601913Y-87993666D02*
X63601913Y-88380714D01*
X64134104Y-87461476D02*
X64134104Y-86832523D01*
X64134104Y-86832523D02*
X63747056Y-87171190D01*
X63747056Y-87171190D02*
X63747056Y-87026047D01*
X63747056Y-87026047D02*
X63698675Y-86929285D01*
X63698675Y-86929285D02*
X63650294Y-86880904D01*
X63650294Y-86880904D02*
X63553532Y-86832523D01*
X63553532Y-86832523D02*
X63311627Y-86832523D01*
X63311627Y-86832523D02*
X63214865Y-86880904D01*
X63214865Y-86880904D02*
X63166485Y-86929285D01*
X63166485Y-86929285D02*
X63118104Y-87026047D01*
X63118104Y-87026047D02*
X63118104Y-87316333D01*
X63118104Y-87316333D02*
X63166485Y-87413095D01*
X63166485Y-87413095D02*
X63214865Y-87461476D01*
X64037342Y-86445476D02*
X64085723Y-86397095D01*
X64085723Y-86397095D02*
X64134104Y-86300333D01*
X64134104Y-86300333D02*
X64134104Y-86058428D01*
X64134104Y-86058428D02*
X64085723Y-85961666D01*
X64085723Y-85961666D02*
X64037342Y-85913285D01*
X64037342Y-85913285D02*
X63940580Y-85864904D01*
X63940580Y-85864904D02*
X63843818Y-85864904D01*
X63843818Y-85864904D02*
X63698675Y-85913285D01*
X63698675Y-85913285D02*
X63118104Y-86493857D01*
X63118104Y-86493857D02*
X63118104Y-85864904D01*
X157289065Y-82538532D02*
X157240685Y-82586913D01*
X157240685Y-82586913D02*
X157192304Y-82732056D01*
X157192304Y-82732056D02*
X157192304Y-82828818D01*
X157192304Y-82828818D02*
X157240685Y-82973961D01*
X157240685Y-82973961D02*
X157337446Y-83070723D01*
X157337446Y-83070723D02*
X157434208Y-83119104D01*
X157434208Y-83119104D02*
X157627732Y-83167485D01*
X157627732Y-83167485D02*
X157772875Y-83167485D01*
X157772875Y-83167485D02*
X157966399Y-83119104D01*
X157966399Y-83119104D02*
X158063161Y-83070723D01*
X158063161Y-83070723D02*
X158159923Y-82973961D01*
X158159923Y-82973961D02*
X158208304Y-82828818D01*
X158208304Y-82828818D02*
X158208304Y-82732056D01*
X158208304Y-82732056D02*
X158159923Y-82586913D01*
X158159923Y-82586913D02*
X158111542Y-82538532D01*
X157192304Y-82054723D02*
X157192304Y-81861199D01*
X157192304Y-81861199D02*
X157240685Y-81764437D01*
X157240685Y-81764437D02*
X157289065Y-81716056D01*
X157289065Y-81716056D02*
X157434208Y-81619294D01*
X157434208Y-81619294D02*
X157627732Y-81570913D01*
X157627732Y-81570913D02*
X158014780Y-81570913D01*
X158014780Y-81570913D02*
X158111542Y-81619294D01*
X158111542Y-81619294D02*
X158159923Y-81667675D01*
X158159923Y-81667675D02*
X158208304Y-81764437D01*
X158208304Y-81764437D02*
X158208304Y-81957961D01*
X158208304Y-81957961D02*
X158159923Y-82054723D01*
X158159923Y-82054723D02*
X158111542Y-82103104D01*
X158111542Y-82103104D02*
X158014780Y-82151485D01*
X158014780Y-82151485D02*
X157772875Y-82151485D01*
X157772875Y-82151485D02*
X157676113Y-82103104D01*
X157676113Y-82103104D02*
X157627732Y-82054723D01*
X157627732Y-82054723D02*
X157579351Y-81957961D01*
X157579351Y-81957961D02*
X157579351Y-81764437D01*
X157579351Y-81764437D02*
X157627732Y-81667675D01*
X157627732Y-81667675D02*
X157676113Y-81619294D01*
X157676113Y-81619294D02*
X157772875Y-81570913D01*
X63963342Y-43429095D02*
X64302009Y-42945286D01*
X64543914Y-43429095D02*
X64543914Y-42413095D01*
X64543914Y-42413095D02*
X64156866Y-42413095D01*
X64156866Y-42413095D02*
X64060104Y-42461476D01*
X64060104Y-42461476D02*
X64011723Y-42509857D01*
X64011723Y-42509857D02*
X63963342Y-42606619D01*
X63963342Y-42606619D02*
X63963342Y-42751762D01*
X63963342Y-42751762D02*
X64011723Y-42848524D01*
X64011723Y-42848524D02*
X64060104Y-42896905D01*
X64060104Y-42896905D02*
X64156866Y-42945286D01*
X64156866Y-42945286D02*
X64543914Y-42945286D01*
X63576295Y-42509857D02*
X63527914Y-42461476D01*
X63527914Y-42461476D02*
X63431152Y-42413095D01*
X63431152Y-42413095D02*
X63189247Y-42413095D01*
X63189247Y-42413095D02*
X63092485Y-42461476D01*
X63092485Y-42461476D02*
X63044104Y-42509857D01*
X63044104Y-42509857D02*
X62995723Y-42606619D01*
X62995723Y-42606619D02*
X62995723Y-42703381D01*
X62995723Y-42703381D02*
X63044104Y-42848524D01*
X63044104Y-42848524D02*
X63624676Y-43429095D01*
X63624676Y-43429095D02*
X62995723Y-43429095D01*
X62511914Y-43429095D02*
X62318390Y-43429095D01*
X62318390Y-43429095D02*
X62221628Y-43380715D01*
X62221628Y-43380715D02*
X62173247Y-43332334D01*
X62173247Y-43332334D02*
X62076485Y-43187191D01*
X62076485Y-43187191D02*
X62028104Y-42993667D01*
X62028104Y-42993667D02*
X62028104Y-42606619D01*
X62028104Y-42606619D02*
X62076485Y-42509857D01*
X62076485Y-42509857D02*
X62124866Y-42461476D01*
X62124866Y-42461476D02*
X62221628Y-42413095D01*
X62221628Y-42413095D02*
X62415152Y-42413095D01*
X62415152Y-42413095D02*
X62511914Y-42461476D01*
X62511914Y-42461476D02*
X62560295Y-42509857D01*
X62560295Y-42509857D02*
X62608676Y-42606619D01*
X62608676Y-42606619D02*
X62608676Y-42848524D01*
X62608676Y-42848524D02*
X62560295Y-42945286D01*
X62560295Y-42945286D02*
X62511914Y-42993667D01*
X62511914Y-42993667D02*
X62415152Y-43042048D01*
X62415152Y-43042048D02*
X62221628Y-43042048D01*
X62221628Y-43042048D02*
X62124866Y-42993667D01*
X62124866Y-42993667D02*
X62076485Y-42945286D01*
X62076485Y-42945286D02*
X62028104Y-42848524D01*
X139412295Y-83197667D02*
X138928486Y-82859000D01*
X139412295Y-82617095D02*
X138396295Y-82617095D01*
X138396295Y-82617095D02*
X138396295Y-83004143D01*
X138396295Y-83004143D02*
X138444676Y-83100905D01*
X138444676Y-83100905D02*
X138493057Y-83149286D01*
X138493057Y-83149286D02*
X138589819Y-83197667D01*
X138589819Y-83197667D02*
X138734962Y-83197667D01*
X138734962Y-83197667D02*
X138831724Y-83149286D01*
X138831724Y-83149286D02*
X138880105Y-83100905D01*
X138880105Y-83100905D02*
X138928486Y-83004143D01*
X138928486Y-83004143D02*
X138928486Y-82617095D01*
X139412295Y-84165286D02*
X139412295Y-83584714D01*
X139412295Y-83875000D02*
X138396295Y-83875000D01*
X138396295Y-83875000D02*
X138541438Y-83778238D01*
X138541438Y-83778238D02*
X138638200Y-83681476D01*
X138638200Y-83681476D02*
X138686581Y-83584714D01*
X64058104Y-75640142D02*
X64541913Y-75978809D01*
X64058104Y-76220714D02*
X65074104Y-76220714D01*
X65074104Y-76220714D02*
X65074104Y-75833666D01*
X65074104Y-75833666D02*
X65025723Y-75736904D01*
X65025723Y-75736904D02*
X64977342Y-75688523D01*
X64977342Y-75688523D02*
X64880580Y-75640142D01*
X64880580Y-75640142D02*
X64735437Y-75640142D01*
X64735437Y-75640142D02*
X64638675Y-75688523D01*
X64638675Y-75688523D02*
X64590294Y-75736904D01*
X64590294Y-75736904D02*
X64541913Y-75833666D01*
X64541913Y-75833666D02*
X64541913Y-76220714D01*
X65074104Y-75301476D02*
X65074104Y-74672523D01*
X65074104Y-74672523D02*
X64687056Y-75011190D01*
X64687056Y-75011190D02*
X64687056Y-74866047D01*
X64687056Y-74866047D02*
X64638675Y-74769285D01*
X64638675Y-74769285D02*
X64590294Y-74720904D01*
X64590294Y-74720904D02*
X64493532Y-74672523D01*
X64493532Y-74672523D02*
X64251627Y-74672523D01*
X64251627Y-74672523D02*
X64154865Y-74720904D01*
X64154865Y-74720904D02*
X64106485Y-74769285D01*
X64106485Y-74769285D02*
X64058104Y-74866047D01*
X64058104Y-74866047D02*
X64058104Y-75156333D01*
X64058104Y-75156333D02*
X64106485Y-75253095D01*
X64106485Y-75253095D02*
X64154865Y-75301476D01*
X64058104Y-73704904D02*
X64058104Y-74285476D01*
X64058104Y-73995190D02*
X65074104Y-73995190D01*
X65074104Y-73995190D02*
X64928961Y-74091952D01*
X64928961Y-74091952D02*
X64832199Y-74188714D01*
X64832199Y-74188714D02*
X64783818Y-74285476D01*
X62205534Y-32523857D02*
X62253915Y-32475476D01*
X62253915Y-32475476D02*
X62302295Y-32330333D01*
X62302295Y-32330333D02*
X62302295Y-32233571D01*
X62302295Y-32233571D02*
X62253915Y-32088428D01*
X62253915Y-32088428D02*
X62157153Y-31991666D01*
X62157153Y-31991666D02*
X62060391Y-31943285D01*
X62060391Y-31943285D02*
X61866867Y-31894904D01*
X61866867Y-31894904D02*
X61721724Y-31894904D01*
X61721724Y-31894904D02*
X61528200Y-31943285D01*
X61528200Y-31943285D02*
X61431438Y-31991666D01*
X61431438Y-31991666D02*
X61334676Y-32088428D01*
X61334676Y-32088428D02*
X61286295Y-32233571D01*
X61286295Y-32233571D02*
X61286295Y-32330333D01*
X61286295Y-32330333D02*
X61334676Y-32475476D01*
X61334676Y-32475476D02*
X61383057Y-32523857D01*
X61286295Y-32862523D02*
X61286295Y-33491476D01*
X61286295Y-33491476D02*
X61673343Y-33152809D01*
X61673343Y-33152809D02*
X61673343Y-33297952D01*
X61673343Y-33297952D02*
X61721724Y-33394714D01*
X61721724Y-33394714D02*
X61770105Y-33443095D01*
X61770105Y-33443095D02*
X61866867Y-33491476D01*
X61866867Y-33491476D02*
X62108772Y-33491476D01*
X62108772Y-33491476D02*
X62205534Y-33443095D01*
X62205534Y-33443095D02*
X62253915Y-33394714D01*
X62253915Y-33394714D02*
X62302295Y-33297952D01*
X62302295Y-33297952D02*
X62302295Y-33007666D01*
X62302295Y-33007666D02*
X62253915Y-32910904D01*
X62253915Y-32910904D02*
X62205534Y-32862523D01*
X61383057Y-33878523D02*
X61334676Y-33926904D01*
X61334676Y-33926904D02*
X61286295Y-34023666D01*
X61286295Y-34023666D02*
X61286295Y-34265571D01*
X61286295Y-34265571D02*
X61334676Y-34362333D01*
X61334676Y-34362333D02*
X61383057Y-34410714D01*
X61383057Y-34410714D02*
X61479819Y-34459095D01*
X61479819Y-34459095D02*
X61576581Y-34459095D01*
X61576581Y-34459095D02*
X61721724Y-34410714D01*
X61721724Y-34410714D02*
X62302295Y-33830142D01*
X62302295Y-33830142D02*
X62302295Y-34459095D01*
X139902295Y-53553857D02*
X139418486Y-53215190D01*
X139902295Y-52973285D02*
X138886295Y-52973285D01*
X138886295Y-52973285D02*
X138886295Y-53360333D01*
X138886295Y-53360333D02*
X138934676Y-53457095D01*
X138934676Y-53457095D02*
X138983057Y-53505476D01*
X138983057Y-53505476D02*
X139079819Y-53553857D01*
X139079819Y-53553857D02*
X139224962Y-53553857D01*
X139224962Y-53553857D02*
X139321724Y-53505476D01*
X139321724Y-53505476D02*
X139370105Y-53457095D01*
X139370105Y-53457095D02*
X139418486Y-53360333D01*
X139418486Y-53360333D02*
X139418486Y-52973285D01*
X139902295Y-54521476D02*
X139902295Y-53940904D01*
X139902295Y-54231190D02*
X138886295Y-54231190D01*
X138886295Y-54231190D02*
X139031438Y-54134428D01*
X139031438Y-54134428D02*
X139128200Y-54037666D01*
X139128200Y-54037666D02*
X139176581Y-53940904D01*
X139224962Y-55392333D02*
X139902295Y-55392333D01*
X138837915Y-55150428D02*
X139563629Y-54908523D01*
X139563629Y-54908523D02*
X139563629Y-55537476D01*
X148377067Y-92179904D02*
X148038400Y-92663713D01*
X147796495Y-92179904D02*
X147796495Y-93195904D01*
X147796495Y-93195904D02*
X148183543Y-93195904D01*
X148183543Y-93195904D02*
X148280305Y-93147523D01*
X148280305Y-93147523D02*
X148328686Y-93099142D01*
X148328686Y-93099142D02*
X148377067Y-93002380D01*
X148377067Y-93002380D02*
X148377067Y-92857237D01*
X148377067Y-92857237D02*
X148328686Y-92760475D01*
X148328686Y-92760475D02*
X148280305Y-92712094D01*
X148280305Y-92712094D02*
X148183543Y-92663713D01*
X148183543Y-92663713D02*
X147796495Y-92663713D01*
X149296305Y-93195904D02*
X148812495Y-93195904D01*
X148812495Y-93195904D02*
X148764114Y-92712094D01*
X148764114Y-92712094D02*
X148812495Y-92760475D01*
X148812495Y-92760475D02*
X148909257Y-92808856D01*
X148909257Y-92808856D02*
X149151162Y-92808856D01*
X149151162Y-92808856D02*
X149247924Y-92760475D01*
X149247924Y-92760475D02*
X149296305Y-92712094D01*
X149296305Y-92712094D02*
X149344686Y-92615332D01*
X149344686Y-92615332D02*
X149344686Y-92373427D01*
X149344686Y-92373427D02*
X149296305Y-92276665D01*
X149296305Y-92276665D02*
X149247924Y-92228285D01*
X149247924Y-92228285D02*
X149151162Y-92179904D01*
X149151162Y-92179904D02*
X148909257Y-92179904D01*
X148909257Y-92179904D02*
X148812495Y-92228285D01*
X148812495Y-92228285D02*
X148764114Y-92276665D01*
X141925534Y-65073857D02*
X141973915Y-65025476D01*
X141973915Y-65025476D02*
X142022295Y-64880333D01*
X142022295Y-64880333D02*
X142022295Y-64783571D01*
X142022295Y-64783571D02*
X141973915Y-64638428D01*
X141973915Y-64638428D02*
X141877153Y-64541666D01*
X141877153Y-64541666D02*
X141780391Y-64493285D01*
X141780391Y-64493285D02*
X141586867Y-64444904D01*
X141586867Y-64444904D02*
X141441724Y-64444904D01*
X141441724Y-64444904D02*
X141248200Y-64493285D01*
X141248200Y-64493285D02*
X141151438Y-64541666D01*
X141151438Y-64541666D02*
X141054676Y-64638428D01*
X141054676Y-64638428D02*
X141006295Y-64783571D01*
X141006295Y-64783571D02*
X141006295Y-64880333D01*
X141006295Y-64880333D02*
X141054676Y-65025476D01*
X141054676Y-65025476D02*
X141103057Y-65073857D01*
X142022295Y-66041476D02*
X142022295Y-65460904D01*
X142022295Y-65751190D02*
X141006295Y-65751190D01*
X141006295Y-65751190D02*
X141151438Y-65654428D01*
X141151438Y-65654428D02*
X141248200Y-65557666D01*
X141248200Y-65557666D02*
X141296581Y-65460904D01*
X141006295Y-66960714D02*
X141006295Y-66476904D01*
X141006295Y-66476904D02*
X141490105Y-66428523D01*
X141490105Y-66428523D02*
X141441724Y-66476904D01*
X141441724Y-66476904D02*
X141393343Y-66573666D01*
X141393343Y-66573666D02*
X141393343Y-66815571D01*
X141393343Y-66815571D02*
X141441724Y-66912333D01*
X141441724Y-66912333D02*
X141490105Y-66960714D01*
X141490105Y-66960714D02*
X141586867Y-67009095D01*
X141586867Y-67009095D02*
X141828772Y-67009095D01*
X141828772Y-67009095D02*
X141925534Y-66960714D01*
X141925534Y-66960714D02*
X141973915Y-66912333D01*
X141973915Y-66912333D02*
X142022295Y-66815571D01*
X142022295Y-66815571D02*
X142022295Y-66573666D01*
X142022295Y-66573666D02*
X141973915Y-66476904D01*
X141973915Y-66476904D02*
X141925534Y-66428523D01*
X143184295Y-56773095D02*
X143184295Y-57595572D01*
X143184295Y-57595572D02*
X143135914Y-57692334D01*
X143135914Y-57692334D02*
X143087533Y-57740715D01*
X143087533Y-57740715D02*
X142990771Y-57789095D01*
X142990771Y-57789095D02*
X142797247Y-57789095D01*
X142797247Y-57789095D02*
X142700485Y-57740715D01*
X142700485Y-57740715D02*
X142652104Y-57692334D01*
X142652104Y-57692334D02*
X142603723Y-57595572D01*
X142603723Y-57595572D02*
X142603723Y-56773095D01*
X141684485Y-57111762D02*
X141684485Y-57789095D01*
X141926390Y-56724715D02*
X142168295Y-57450429D01*
X142168295Y-57450429D02*
X141539342Y-57450429D01*
X139803342Y-43492334D02*
X139851723Y-43540715D01*
X139851723Y-43540715D02*
X139996866Y-43589095D01*
X139996866Y-43589095D02*
X140093628Y-43589095D01*
X140093628Y-43589095D02*
X140238771Y-43540715D01*
X140238771Y-43540715D02*
X140335533Y-43443953D01*
X140335533Y-43443953D02*
X140383914Y-43347191D01*
X140383914Y-43347191D02*
X140432295Y-43153667D01*
X140432295Y-43153667D02*
X140432295Y-43008524D01*
X140432295Y-43008524D02*
X140383914Y-42815000D01*
X140383914Y-42815000D02*
X140335533Y-42718238D01*
X140335533Y-42718238D02*
X140238771Y-42621476D01*
X140238771Y-42621476D02*
X140093628Y-42573095D01*
X140093628Y-42573095D02*
X139996866Y-42573095D01*
X139996866Y-42573095D02*
X139851723Y-42621476D01*
X139851723Y-42621476D02*
X139803342Y-42669857D01*
X138835723Y-43589095D02*
X139416295Y-43589095D01*
X139126009Y-43589095D02*
X139126009Y-42573095D01*
X139126009Y-42573095D02*
X139222771Y-42718238D01*
X139222771Y-42718238D02*
X139319533Y-42815000D01*
X139319533Y-42815000D02*
X139416295Y-42863381D01*
X138351914Y-43589095D02*
X138158390Y-43589095D01*
X138158390Y-43589095D02*
X138061628Y-43540715D01*
X138061628Y-43540715D02*
X138013247Y-43492334D01*
X138013247Y-43492334D02*
X137916485Y-43347191D01*
X137916485Y-43347191D02*
X137868104Y-43153667D01*
X137868104Y-43153667D02*
X137868104Y-42766619D01*
X137868104Y-42766619D02*
X137916485Y-42669857D01*
X137916485Y-42669857D02*
X137964866Y-42621476D01*
X137964866Y-42621476D02*
X138061628Y-42573095D01*
X138061628Y-42573095D02*
X138255152Y-42573095D01*
X138255152Y-42573095D02*
X138351914Y-42621476D01*
X138351914Y-42621476D02*
X138400295Y-42669857D01*
X138400295Y-42669857D02*
X138448676Y-42766619D01*
X138448676Y-42766619D02*
X138448676Y-43008524D01*
X138448676Y-43008524D02*
X138400295Y-43105286D01*
X138400295Y-43105286D02*
X138351914Y-43153667D01*
X138351914Y-43153667D02*
X138255152Y-43202048D01*
X138255152Y-43202048D02*
X138061628Y-43202048D01*
X138061628Y-43202048D02*
X137964866Y-43153667D01*
X137964866Y-43153667D02*
X137916485Y-43105286D01*
X137916485Y-43105286D02*
X137868104Y-43008524D01*
X127502295Y-113357667D02*
X127018486Y-113019000D01*
X127502295Y-112777095D02*
X126486295Y-112777095D01*
X126486295Y-112777095D02*
X126486295Y-113164143D01*
X126486295Y-113164143D02*
X126534676Y-113260905D01*
X126534676Y-113260905D02*
X126583057Y-113309286D01*
X126583057Y-113309286D02*
X126679819Y-113357667D01*
X126679819Y-113357667D02*
X126824962Y-113357667D01*
X126824962Y-113357667D02*
X126921724Y-113309286D01*
X126921724Y-113309286D02*
X126970105Y-113260905D01*
X126970105Y-113260905D02*
X127018486Y-113164143D01*
X127018486Y-113164143D02*
X127018486Y-112777095D01*
X126921724Y-113938238D02*
X126873343Y-113841476D01*
X126873343Y-113841476D02*
X126824962Y-113793095D01*
X126824962Y-113793095D02*
X126728200Y-113744714D01*
X126728200Y-113744714D02*
X126679819Y-113744714D01*
X126679819Y-113744714D02*
X126583057Y-113793095D01*
X126583057Y-113793095D02*
X126534676Y-113841476D01*
X126534676Y-113841476D02*
X126486295Y-113938238D01*
X126486295Y-113938238D02*
X126486295Y-114131762D01*
X126486295Y-114131762D02*
X126534676Y-114228524D01*
X126534676Y-114228524D02*
X126583057Y-114276905D01*
X126583057Y-114276905D02*
X126679819Y-114325286D01*
X126679819Y-114325286D02*
X126728200Y-114325286D01*
X126728200Y-114325286D02*
X126824962Y-114276905D01*
X126824962Y-114276905D02*
X126873343Y-114228524D01*
X126873343Y-114228524D02*
X126921724Y-114131762D01*
X126921724Y-114131762D02*
X126921724Y-113938238D01*
X126921724Y-113938238D02*
X126970105Y-113841476D01*
X126970105Y-113841476D02*
X127018486Y-113793095D01*
X127018486Y-113793095D02*
X127115248Y-113744714D01*
X127115248Y-113744714D02*
X127308772Y-113744714D01*
X127308772Y-113744714D02*
X127405534Y-113793095D01*
X127405534Y-113793095D02*
X127453915Y-113841476D01*
X127453915Y-113841476D02*
X127502295Y-113938238D01*
X127502295Y-113938238D02*
X127502295Y-114131762D01*
X127502295Y-114131762D02*
X127453915Y-114228524D01*
X127453915Y-114228524D02*
X127405534Y-114276905D01*
X127405534Y-114276905D02*
X127308772Y-114325286D01*
X127308772Y-114325286D02*
X127115248Y-114325286D01*
X127115248Y-114325286D02*
X127018486Y-114276905D01*
X127018486Y-114276905D02*
X126970105Y-114228524D01*
X126970105Y-114228524D02*
X126921724Y-114131762D01*
X63918104Y-62100142D02*
X64401913Y-62438809D01*
X63918104Y-62680714D02*
X64934104Y-62680714D01*
X64934104Y-62680714D02*
X64934104Y-62293666D01*
X64934104Y-62293666D02*
X64885723Y-62196904D01*
X64885723Y-62196904D02*
X64837342Y-62148523D01*
X64837342Y-62148523D02*
X64740580Y-62100142D01*
X64740580Y-62100142D02*
X64595437Y-62100142D01*
X64595437Y-62100142D02*
X64498675Y-62148523D01*
X64498675Y-62148523D02*
X64450294Y-62196904D01*
X64450294Y-62196904D02*
X64401913Y-62293666D01*
X64401913Y-62293666D02*
X64401913Y-62680714D01*
X64837342Y-61713095D02*
X64885723Y-61664714D01*
X64885723Y-61664714D02*
X64934104Y-61567952D01*
X64934104Y-61567952D02*
X64934104Y-61326047D01*
X64934104Y-61326047D02*
X64885723Y-61229285D01*
X64885723Y-61229285D02*
X64837342Y-61180904D01*
X64837342Y-61180904D02*
X64740580Y-61132523D01*
X64740580Y-61132523D02*
X64643818Y-61132523D01*
X64643818Y-61132523D02*
X64498675Y-61180904D01*
X64498675Y-61180904D02*
X63918104Y-61761476D01*
X63918104Y-61761476D02*
X63918104Y-61132523D01*
X64934104Y-60793857D02*
X64934104Y-60116523D01*
X64934104Y-60116523D02*
X63918104Y-60551952D01*
X143102295Y-83157667D02*
X142618486Y-82819000D01*
X143102295Y-82577095D02*
X142086295Y-82577095D01*
X142086295Y-82577095D02*
X142086295Y-82964143D01*
X142086295Y-82964143D02*
X142134676Y-83060905D01*
X142134676Y-83060905D02*
X142183057Y-83109286D01*
X142183057Y-83109286D02*
X142279819Y-83157667D01*
X142279819Y-83157667D02*
X142424962Y-83157667D01*
X142424962Y-83157667D02*
X142521724Y-83109286D01*
X142521724Y-83109286D02*
X142570105Y-83060905D01*
X142570105Y-83060905D02*
X142618486Y-82964143D01*
X142618486Y-82964143D02*
X142618486Y-82577095D01*
X142183057Y-83544714D02*
X142134676Y-83593095D01*
X142134676Y-83593095D02*
X142086295Y-83689857D01*
X142086295Y-83689857D02*
X142086295Y-83931762D01*
X142086295Y-83931762D02*
X142134676Y-84028524D01*
X142134676Y-84028524D02*
X142183057Y-84076905D01*
X142183057Y-84076905D02*
X142279819Y-84125286D01*
X142279819Y-84125286D02*
X142376581Y-84125286D01*
X142376581Y-84125286D02*
X142521724Y-84076905D01*
X142521724Y-84076905D02*
X143102295Y-83496333D01*
X143102295Y-83496333D02*
X143102295Y-84125286D01*
X77724342Y-41818634D02*
X77772723Y-41867015D01*
X77772723Y-41867015D02*
X77917866Y-41915395D01*
X77917866Y-41915395D02*
X78014628Y-41915395D01*
X78014628Y-41915395D02*
X78159771Y-41867015D01*
X78159771Y-41867015D02*
X78256533Y-41770253D01*
X78256533Y-41770253D02*
X78304914Y-41673491D01*
X78304914Y-41673491D02*
X78353295Y-41479967D01*
X78353295Y-41479967D02*
X78353295Y-41334824D01*
X78353295Y-41334824D02*
X78304914Y-41141300D01*
X78304914Y-41141300D02*
X78256533Y-41044538D01*
X78256533Y-41044538D02*
X78159771Y-40947776D01*
X78159771Y-40947776D02*
X78014628Y-40899395D01*
X78014628Y-40899395D02*
X77917866Y-40899395D01*
X77917866Y-40899395D02*
X77772723Y-40947776D01*
X77772723Y-40947776D02*
X77724342Y-40996157D01*
X77337295Y-40996157D02*
X77288914Y-40947776D01*
X77288914Y-40947776D02*
X77192152Y-40899395D01*
X77192152Y-40899395D02*
X76950247Y-40899395D01*
X76950247Y-40899395D02*
X76853485Y-40947776D01*
X76853485Y-40947776D02*
X76805104Y-40996157D01*
X76805104Y-40996157D02*
X76756723Y-41092919D01*
X76756723Y-41092919D02*
X76756723Y-41189681D01*
X76756723Y-41189681D02*
X76805104Y-41334824D01*
X76805104Y-41334824D02*
X77385676Y-41915395D01*
X77385676Y-41915395D02*
X76756723Y-41915395D01*
X76272914Y-41915395D02*
X76079390Y-41915395D01*
X76079390Y-41915395D02*
X75982628Y-41867015D01*
X75982628Y-41867015D02*
X75934247Y-41818634D01*
X75934247Y-41818634D02*
X75837485Y-41673491D01*
X75837485Y-41673491D02*
X75789104Y-41479967D01*
X75789104Y-41479967D02*
X75789104Y-41092919D01*
X75789104Y-41092919D02*
X75837485Y-40996157D01*
X75837485Y-40996157D02*
X75885866Y-40947776D01*
X75885866Y-40947776D02*
X75982628Y-40899395D01*
X75982628Y-40899395D02*
X76176152Y-40899395D01*
X76176152Y-40899395D02*
X76272914Y-40947776D01*
X76272914Y-40947776D02*
X76321295Y-40996157D01*
X76321295Y-40996157D02*
X76369676Y-41092919D01*
X76369676Y-41092919D02*
X76369676Y-41334824D01*
X76369676Y-41334824D02*
X76321295Y-41431586D01*
X76321295Y-41431586D02*
X76272914Y-41479967D01*
X76272914Y-41479967D02*
X76176152Y-41528348D01*
X76176152Y-41528348D02*
X75982628Y-41528348D01*
X75982628Y-41528348D02*
X75885866Y-41479967D01*
X75885866Y-41479967D02*
X75837485Y-41431586D01*
X75837485Y-41431586D02*
X75789104Y-41334824D01*
X62448104Y-75640142D02*
X62931913Y-75978809D01*
X62448104Y-76220714D02*
X63464104Y-76220714D01*
X63464104Y-76220714D02*
X63464104Y-75833666D01*
X63464104Y-75833666D02*
X63415723Y-75736904D01*
X63415723Y-75736904D02*
X63367342Y-75688523D01*
X63367342Y-75688523D02*
X63270580Y-75640142D01*
X63270580Y-75640142D02*
X63125437Y-75640142D01*
X63125437Y-75640142D02*
X63028675Y-75688523D01*
X63028675Y-75688523D02*
X62980294Y-75736904D01*
X62980294Y-75736904D02*
X62931913Y-75833666D01*
X62931913Y-75833666D02*
X62931913Y-76220714D01*
X63464104Y-75301476D02*
X63464104Y-74672523D01*
X63464104Y-74672523D02*
X63077056Y-75011190D01*
X63077056Y-75011190D02*
X63077056Y-74866047D01*
X63077056Y-74866047D02*
X63028675Y-74769285D01*
X63028675Y-74769285D02*
X62980294Y-74720904D01*
X62980294Y-74720904D02*
X62883532Y-74672523D01*
X62883532Y-74672523D02*
X62641627Y-74672523D01*
X62641627Y-74672523D02*
X62544865Y-74720904D01*
X62544865Y-74720904D02*
X62496485Y-74769285D01*
X62496485Y-74769285D02*
X62448104Y-74866047D01*
X62448104Y-74866047D02*
X62448104Y-75156333D01*
X62448104Y-75156333D02*
X62496485Y-75253095D01*
X62496485Y-75253095D02*
X62544865Y-75301476D01*
X63464104Y-74043571D02*
X63464104Y-73946809D01*
X63464104Y-73946809D02*
X63415723Y-73850047D01*
X63415723Y-73850047D02*
X63367342Y-73801666D01*
X63367342Y-73801666D02*
X63270580Y-73753285D01*
X63270580Y-73753285D02*
X63077056Y-73704904D01*
X63077056Y-73704904D02*
X62835151Y-73704904D01*
X62835151Y-73704904D02*
X62641627Y-73753285D01*
X62641627Y-73753285D02*
X62544865Y-73801666D01*
X62544865Y-73801666D02*
X62496485Y-73850047D01*
X62496485Y-73850047D02*
X62448104Y-73946809D01*
X62448104Y-73946809D02*
X62448104Y-74043571D01*
X62448104Y-74043571D02*
X62496485Y-74140333D01*
X62496485Y-74140333D02*
X62544865Y-74188714D01*
X62544865Y-74188714D02*
X62641627Y-74237095D01*
X62641627Y-74237095D02*
X62835151Y-74285476D01*
X62835151Y-74285476D02*
X63077056Y-74285476D01*
X63077056Y-74285476D02*
X63270580Y-74237095D01*
X63270580Y-74237095D02*
X63367342Y-74188714D01*
X63367342Y-74188714D02*
X63415723Y-74140333D01*
X63415723Y-74140333D02*
X63464104Y-74043571D01*
X131274865Y-39270142D02*
X131226485Y-39318523D01*
X131226485Y-39318523D02*
X131178104Y-39463666D01*
X131178104Y-39463666D02*
X131178104Y-39560428D01*
X131178104Y-39560428D02*
X131226485Y-39705571D01*
X131226485Y-39705571D02*
X131323246Y-39802333D01*
X131323246Y-39802333D02*
X131420008Y-39850714D01*
X131420008Y-39850714D02*
X131613532Y-39899095D01*
X131613532Y-39899095D02*
X131758675Y-39899095D01*
X131758675Y-39899095D02*
X131952199Y-39850714D01*
X131952199Y-39850714D02*
X132048961Y-39802333D01*
X132048961Y-39802333D02*
X132145723Y-39705571D01*
X132145723Y-39705571D02*
X132194104Y-39560428D01*
X132194104Y-39560428D02*
X132194104Y-39463666D01*
X132194104Y-39463666D02*
X132145723Y-39318523D01*
X132145723Y-39318523D02*
X132097342Y-39270142D01*
X131178104Y-38302523D02*
X131178104Y-38883095D01*
X131178104Y-38592809D02*
X132194104Y-38592809D01*
X132194104Y-38592809D02*
X132048961Y-38689571D01*
X132048961Y-38689571D02*
X131952199Y-38786333D01*
X131952199Y-38786333D02*
X131903818Y-38883095D01*
X131758675Y-37721952D02*
X131807056Y-37818714D01*
X131807056Y-37818714D02*
X131855437Y-37867095D01*
X131855437Y-37867095D02*
X131952199Y-37915476D01*
X131952199Y-37915476D02*
X132000580Y-37915476D01*
X132000580Y-37915476D02*
X132097342Y-37867095D01*
X132097342Y-37867095D02*
X132145723Y-37818714D01*
X132145723Y-37818714D02*
X132194104Y-37721952D01*
X132194104Y-37721952D02*
X132194104Y-37528428D01*
X132194104Y-37528428D02*
X132145723Y-37431666D01*
X132145723Y-37431666D02*
X132097342Y-37383285D01*
X132097342Y-37383285D02*
X132000580Y-37334904D01*
X132000580Y-37334904D02*
X131952199Y-37334904D01*
X131952199Y-37334904D02*
X131855437Y-37383285D01*
X131855437Y-37383285D02*
X131807056Y-37431666D01*
X131807056Y-37431666D02*
X131758675Y-37528428D01*
X131758675Y-37528428D02*
X131758675Y-37721952D01*
X131758675Y-37721952D02*
X131710294Y-37818714D01*
X131710294Y-37818714D02*
X131661913Y-37867095D01*
X131661913Y-37867095D02*
X131565151Y-37915476D01*
X131565151Y-37915476D02*
X131371627Y-37915476D01*
X131371627Y-37915476D02*
X131274865Y-37867095D01*
X131274865Y-37867095D02*
X131226485Y-37818714D01*
X131226485Y-37818714D02*
X131178104Y-37721952D01*
X131178104Y-37721952D02*
X131178104Y-37528428D01*
X131178104Y-37528428D02*
X131226485Y-37431666D01*
X131226485Y-37431666D02*
X131274865Y-37383285D01*
X131274865Y-37383285D02*
X131371627Y-37334904D01*
X131371627Y-37334904D02*
X131565151Y-37334904D01*
X131565151Y-37334904D02*
X131661913Y-37383285D01*
X131661913Y-37383285D02*
X131710294Y-37431666D01*
X131710294Y-37431666D02*
X131758675Y-37528428D01*
D12*
%TO.C,R10*%
X150497136Y-81407600D02*
X150951264Y-81407600D01*
X150498672Y-83084000D02*
X150952800Y-83084000D01*
%TO.C,C11*%
X134420200Y-74351437D02*
X135484637Y-73287000D01*
X134420200Y-80107000D02*
X134420200Y-74351437D01*
X135982700Y-73047000D02*
X135982700Y-72259500D01*
X136376450Y-72653250D02*
X135588950Y-72653250D01*
X136770200Y-73287000D02*
X135484637Y-73287000D01*
X136770200Y-80107000D02*
X134420200Y-80107000D01*
X138890200Y-73287000D02*
X140175763Y-73287000D01*
X138890200Y-80107000D02*
X141240200Y-80107000D01*
X141240200Y-74351437D02*
X140175763Y-73287000D01*
X141240200Y-80107000D02*
X141240200Y-74351437D01*
D13*
%TO.C,C17*%
X128307700Y-32642000D02*
X128307700Y-35842000D01*
X130267700Y-32642000D02*
X130267700Y-35842000D01*
D14*
X129387700Y-36992000D02*
G75*
G02*
X129187700Y-36992000I-100000J0D01*
G01*
X129187700Y-36992000D02*
G75*
G02*
X129387700Y-36992000I100000J0D01*
G01*
D12*
%TO.C,R23*%
X62495400Y-49827742D02*
X62495400Y-50302258D01*
X63740000Y-49827742D02*
X63740000Y-50302258D01*
%TO.C,C8*%
X150542848Y-84304400D02*
X151965352Y-84304400D01*
X150542848Y-86412600D02*
X151965352Y-86412600D01*
%TO.C,R3*%
X145030400Y-86546258D02*
X145030400Y-86071742D01*
X146275000Y-86546258D02*
X146275000Y-86071742D01*
%TO.C,R24*%
X64555400Y-83947742D02*
X64555400Y-84422258D01*
X65800000Y-83947742D02*
X65800000Y-84422258D01*
D13*
%TO.C,C20*%
X137425200Y-40254500D02*
X140625200Y-40254500D01*
X137425200Y-42214500D02*
X140625200Y-42214500D01*
D14*
X141875200Y-41234500D02*
G75*
G02*
X141675200Y-41234500I-100000J0D01*
G01*
X141675200Y-41234500D02*
G75*
G02*
X141875200Y-41234500I100000J0D01*
G01*
D12*
%TO.C,R12*%
X146469458Y-57732200D02*
X145994942Y-57732200D01*
X146469458Y-58976800D02*
X145994942Y-58976800D01*
%TO.C,R13*%
X136223200Y-57155472D02*
X136223200Y-57609600D01*
X137899600Y-57153936D02*
X137899600Y-57608064D01*
D13*
%TO.C,C30*%
X72135200Y-44739500D02*
X75335200Y-44739500D01*
X72135200Y-46699500D02*
X75335200Y-46699500D01*
D14*
X76585200Y-45719500D02*
G75*
G02*
X76385200Y-45719500I-100000J0D01*
G01*
X76385200Y-45719500D02*
G75*
G02*
X76585200Y-45719500I100000J0D01*
G01*
D12*
%TO.C,R26*%
X60170942Y-40467200D02*
X60645458Y-40467200D01*
X60170942Y-41711800D02*
X60645458Y-41711800D01*
%TO.C,R11*%
X144743136Y-52867000D02*
X146197264Y-52867000D01*
X144743136Y-54687000D02*
X146197264Y-54687000D01*
%TO.C,R25*%
X62495400Y-53717742D02*
X62495400Y-54192258D01*
X63740000Y-53717742D02*
X63740000Y-54192258D01*
%TO.C,R4*%
X152132458Y-90762400D02*
X151657942Y-90762400D01*
X152132458Y-92007000D02*
X151657942Y-92007000D01*
D13*
%TO.C,C31*%
X58092700Y-38862000D02*
X58092700Y-35662000D01*
X60052700Y-38862000D02*
X60052700Y-35662000D01*
D14*
X59172700Y-34512000D02*
G75*
G02*
X58972700Y-34512000I-100000J0D01*
G01*
X58972700Y-34512000D02*
G75*
G02*
X59172700Y-34512000I100000J0D01*
G01*
D12*
%TO.C,R22*%
X62525400Y-46037742D02*
X62525400Y-46512258D01*
X63770000Y-46037742D02*
X63770000Y-46512258D01*
%TO.C,R32*%
X62995400Y-83987742D02*
X62995400Y-84462258D01*
X64240000Y-83987742D02*
X64240000Y-84462258D01*
D11*
%TO.C,C9*%
X153030200Y-77416200D02*
X153030200Y-82394600D01*
X156030200Y-82394600D02*
X156030200Y-77416200D01*
D14*
X154603200Y-83815400D02*
G75*
G02*
X154403200Y-83815400I-100000J0D01*
G01*
X154403200Y-83815400D02*
G75*
G02*
X154603200Y-83815400I100000J0D01*
G01*
D12*
%TO.C,R29*%
X60170942Y-42317200D02*
X60645458Y-42317200D01*
X60170942Y-43561800D02*
X60645458Y-43561800D01*
D15*
%TO.C,REF\u002A\u002A*%
X97451594Y-117633099D02*
X97520337Y-117756284D01*
X97658934Y-117999929D01*
X97861475Y-118353771D01*
X98122053Y-118807547D01*
X98434758Y-119350994D01*
X98793684Y-119973850D01*
X99192920Y-120665852D01*
X99626559Y-121416737D01*
X100088693Y-122216241D01*
X100573412Y-123054104D01*
X100754644Y-123367275D01*
X101230788Y-124190408D01*
X101681701Y-124970412D01*
X102101532Y-125697146D01*
X102484435Y-126360462D01*
X102824560Y-126950219D01*
X103116059Y-127456270D01*
X103353083Y-127868472D01*
X103529784Y-128176680D01*
X103640314Y-128370749D01*
X103678824Y-128440536D01*
X103658314Y-128437399D01*
X103540451Y-128380132D01*
X103352158Y-128274810D01*
X103240704Y-128210201D01*
X103003029Y-128072798D01*
X102652981Y-127870610D01*
X102201939Y-127610203D01*
X101661280Y-127298143D01*
X101042382Y-126940997D01*
X100356621Y-126545330D01*
X99615376Y-126117708D01*
X98830025Y-125664699D01*
X98011944Y-125192868D01*
X97211117Y-124730865D01*
X96433065Y-124281703D01*
X95701962Y-123859348D01*
X95028765Y-123470144D01*
X94424431Y-123120435D01*
X93899917Y-122816565D01*
X93466181Y-122564878D01*
X93134179Y-122371718D01*
X92914869Y-122243428D01*
X92819207Y-122186354D01*
X92636563Y-122069256D01*
X92858045Y-121833458D01*
X92926602Y-121762304D01*
X93135673Y-121554831D01*
X93420307Y-121280418D01*
X93765985Y-120952400D01*
X94158189Y-120584114D01*
X94582400Y-120188894D01*
X95024100Y-119780075D01*
X95468770Y-119370993D01*
X95901893Y-118974984D01*
X96308948Y-118605382D01*
X96675419Y-118275522D01*
X96986787Y-117998741D01*
X97228532Y-117788373D01*
X97386138Y-117657754D01*
X97445085Y-117620219D01*
X97451594Y-117633099D01*
G36*
X97451594Y-117633099D02*
G01*
X97520337Y-117756284D01*
X97658934Y-117999929D01*
X97861475Y-118353771D01*
X98122053Y-118807547D01*
X98434758Y-119350994D01*
X98793684Y-119973850D01*
X99192920Y-120665852D01*
X99626559Y-121416737D01*
X100088693Y-122216241D01*
X100573412Y-123054104D01*
X100754644Y-123367275D01*
X101230788Y-124190408D01*
X101681701Y-124970412D01*
X102101532Y-125697146D01*
X102484435Y-126360462D01*
X102824560Y-126950219D01*
X103116059Y-127456270D01*
X103353083Y-127868472D01*
X103529784Y-128176680D01*
X103640314Y-128370749D01*
X103678824Y-128440536D01*
X103658314Y-128437399D01*
X103540451Y-128380132D01*
X103352158Y-128274810D01*
X103240704Y-128210201D01*
X103003029Y-128072798D01*
X102652981Y-127870610D01*
X102201939Y-127610203D01*
X101661280Y-127298143D01*
X101042382Y-126940997D01*
X100356621Y-126545330D01*
X99615376Y-126117708D01*
X98830025Y-125664699D01*
X98011944Y-125192868D01*
X97211117Y-124730865D01*
X96433065Y-124281703D01*
X95701962Y-123859348D01*
X95028765Y-123470144D01*
X94424431Y-123120435D01*
X93899917Y-122816565D01*
X93466181Y-122564878D01*
X93134179Y-122371718D01*
X92914869Y-122243428D01*
X92819207Y-122186354D01*
X92636563Y-122069256D01*
X92858045Y-121833458D01*
X92926602Y-121762304D01*
X93135673Y-121554831D01*
X93420307Y-121280418D01*
X93765985Y-120952400D01*
X94158189Y-120584114D01*
X94582400Y-120188894D01*
X95024100Y-119780075D01*
X95468770Y-119370993D01*
X95901893Y-118974984D01*
X96308948Y-118605382D01*
X96675419Y-118275522D01*
X96986787Y-117998741D01*
X97228532Y-117788373D01*
X97386138Y-117657754D01*
X97445085Y-117620219D01*
X97451594Y-117633099D01*
G37*
X90310543Y-105415921D02*
X90455302Y-105596844D01*
X90645720Y-105876905D01*
X90868101Y-106237284D01*
X91010358Y-106478963D01*
X91208182Y-106826723D01*
X91332852Y-107068952D01*
X91391382Y-107221879D01*
X91390787Y-107301734D01*
X91338081Y-107324746D01*
X91329487Y-107326497D01*
X91224660Y-107392268D01*
X91046405Y-107534043D01*
X90827960Y-107725698D01*
X90734129Y-107814119D01*
X90481545Y-108088323D01*
X90265655Y-108391547D01*
X90080127Y-108741812D01*
X89918632Y-109157140D01*
X89774839Y-109655550D01*
X89642418Y-110255063D01*
X89515039Y-110973699D01*
X89386370Y-111829480D01*
X89241338Y-112814469D01*
X89085595Y-113766673D01*
X88929474Y-114599280D01*
X88768472Y-115330903D01*
X88598087Y-115980158D01*
X88413813Y-116565660D01*
X88211150Y-117106024D01*
X87985592Y-117619864D01*
X87799580Y-117997501D01*
X87603837Y-118358220D01*
X87429088Y-118643481D01*
X87289077Y-118830989D01*
X87197545Y-118898446D01*
X87190802Y-118896455D01*
X87082934Y-118842117D01*
X86857046Y-118718918D01*
X86525785Y-118534153D01*
X86101798Y-118295114D01*
X85597731Y-118009097D01*
X85026233Y-117683394D01*
X84399949Y-117325299D01*
X83731526Y-116942106D01*
X83033612Y-116541108D01*
X82318854Y-116129600D01*
X81599898Y-115714875D01*
X80889391Y-115304226D01*
X80199980Y-114904948D01*
X79544313Y-114524334D01*
X78935036Y-114169678D01*
X78384795Y-113848274D01*
X77906239Y-113567415D01*
X77512013Y-113334394D01*
X77214765Y-113156507D01*
X77027142Y-113041046D01*
X76961791Y-112995305D01*
X76963647Y-112992883D01*
X77050594Y-112935044D01*
X77259482Y-112807617D01*
X77579206Y-112617003D01*
X77998656Y-112369601D01*
X78506725Y-112071812D01*
X79092306Y-111730037D01*
X79744290Y-111350677D01*
X80451571Y-110940131D01*
X81203040Y-110504800D01*
X81987590Y-110051085D01*
X82794114Y-109585386D01*
X83611503Y-109114104D01*
X84428651Y-108643639D01*
X85234449Y-108180392D01*
X86017789Y-107730763D01*
X86767565Y-107301152D01*
X87472669Y-106897961D01*
X88121992Y-106527589D01*
X88704428Y-106196437D01*
X89208868Y-105910906D01*
X89624205Y-105677396D01*
X89939332Y-105502307D01*
X90143140Y-105392041D01*
X90224523Y-105352997D01*
X90225143Y-105352959D01*
X90310543Y-105415921D01*
G36*
X90310543Y-105415921D02*
G01*
X90455302Y-105596844D01*
X90645720Y-105876905D01*
X90868101Y-106237284D01*
X91010358Y-106478963D01*
X91208182Y-106826723D01*
X91332852Y-107068952D01*
X91391382Y-107221879D01*
X91390787Y-107301734D01*
X91338081Y-107324746D01*
X91329487Y-107326497D01*
X91224660Y-107392268D01*
X91046405Y-107534043D01*
X90827960Y-107725698D01*
X90734129Y-107814119D01*
X90481545Y-108088323D01*
X90265655Y-108391547D01*
X90080127Y-108741812D01*
X89918632Y-109157140D01*
X89774839Y-109655550D01*
X89642418Y-110255063D01*
X89515039Y-110973699D01*
X89386370Y-111829480D01*
X89241338Y-112814469D01*
X89085595Y-113766673D01*
X88929474Y-114599280D01*
X88768472Y-115330903D01*
X88598087Y-115980158D01*
X88413813Y-116565660D01*
X88211150Y-117106024D01*
X87985592Y-117619864D01*
X87799580Y-117997501D01*
X87603837Y-118358220D01*
X87429088Y-118643481D01*
X87289077Y-118830989D01*
X87197545Y-118898446D01*
X87190802Y-118896455D01*
X87082934Y-118842117D01*
X86857046Y-118718918D01*
X86525785Y-118534153D01*
X86101798Y-118295114D01*
X85597731Y-118009097D01*
X85026233Y-117683394D01*
X84399949Y-117325299D01*
X83731526Y-116942106D01*
X83033612Y-116541108D01*
X82318854Y-116129600D01*
X81599898Y-115714875D01*
X80889391Y-115304226D01*
X80199980Y-114904948D01*
X79544313Y-114524334D01*
X78935036Y-114169678D01*
X78384795Y-113848274D01*
X77906239Y-113567415D01*
X77512013Y-113334394D01*
X77214765Y-113156507D01*
X77027142Y-113041046D01*
X76961791Y-112995305D01*
X76963647Y-112992883D01*
X77050594Y-112935044D01*
X77259482Y-112807617D01*
X77579206Y-112617003D01*
X77998656Y-112369601D01*
X78506725Y-112071812D01*
X79092306Y-111730037D01*
X79744290Y-111350677D01*
X80451571Y-110940131D01*
X81203040Y-110504800D01*
X81987590Y-110051085D01*
X82794114Y-109585386D01*
X83611503Y-109114104D01*
X84428651Y-108643639D01*
X85234449Y-108180392D01*
X86017789Y-107730763D01*
X86767565Y-107301152D01*
X87472669Y-106897961D01*
X88121992Y-106527589D01*
X88704428Y-106196437D01*
X89208868Y-105910906D01*
X89624205Y-105677396D01*
X89939332Y-105502307D01*
X90143140Y-105392041D01*
X90224523Y-105352997D01*
X90225143Y-105352959D01*
X90310543Y-105415921D01*
G37*
X106478610Y-111460633D02*
X106478555Y-112103367D01*
X106477966Y-113635144D01*
X106476760Y-115120010D01*
X106474967Y-116550735D01*
X106472619Y-117920090D01*
X106469746Y-119220846D01*
X106466380Y-120445774D01*
X106462551Y-121587643D01*
X106458290Y-122639225D01*
X106453628Y-123593290D01*
X106448596Y-124442609D01*
X106443226Y-125179953D01*
X106437547Y-125798092D01*
X106431592Y-126289796D01*
X106425390Y-126647838D01*
X106418973Y-126864986D01*
X106412372Y-126934012D01*
X106378972Y-126882761D01*
X106272545Y-126705940D01*
X106101209Y-126415502D01*
X105871762Y-126023260D01*
X105591001Y-125541028D01*
X105265722Y-124980618D01*
X104902723Y-124353843D01*
X104508799Y-123672515D01*
X104090748Y-122948449D01*
X103655366Y-122193456D01*
X103209451Y-121419349D01*
X102759798Y-120637941D01*
X102313205Y-119861045D01*
X101876468Y-119100474D01*
X101456385Y-118368041D01*
X101059751Y-117675558D01*
X100693364Y-117034838D01*
X100364020Y-116457694D01*
X100078516Y-115955939D01*
X99843649Y-115541386D01*
X99666216Y-115225847D01*
X99553013Y-115021135D01*
X99510837Y-114939064D01*
X99521291Y-114885508D01*
X99616377Y-114724175D01*
X99792535Y-114494156D01*
X100031447Y-114220729D01*
X100270612Y-113974454D01*
X100596406Y-113660777D01*
X100976761Y-113309808D01*
X101390734Y-112939540D01*
X101817386Y-112567962D01*
X102235772Y-112213065D01*
X102624953Y-111892840D01*
X102963985Y-111625278D01*
X103231928Y-111428371D01*
X103407839Y-111320108D01*
X103536311Y-111247836D01*
X103802177Y-111051549D01*
X104085022Y-110799206D01*
X104348572Y-110526786D01*
X104556549Y-110270265D01*
X104672680Y-110065623D01*
X104699522Y-109839612D01*
X104625333Y-109538021D01*
X104455221Y-109251383D01*
X104211108Y-109028936D01*
X104147775Y-108990415D01*
X104044051Y-108941373D01*
X103919224Y-108909409D01*
X103746474Y-108892473D01*
X103498983Y-108888516D01*
X103149929Y-108895488D01*
X102672494Y-108911338D01*
X102396319Y-108922694D01*
X101959563Y-108946827D01*
X101577310Y-108975308D01*
X101283162Y-109005486D01*
X101110721Y-109034704D01*
X100913730Y-109105439D01*
X100525807Y-109315140D01*
X100066164Y-109640993D01*
X99529405Y-110086975D01*
X98910133Y-110657065D01*
X98649217Y-110904458D01*
X98341431Y-111190502D01*
X98080477Y-111426589D01*
X97887898Y-111593299D01*
X97785236Y-111671211D01*
X97768933Y-111679220D01*
X97698755Y-111688825D01*
X97620946Y-111640839D01*
X97518737Y-111515607D01*
X97375360Y-111293473D01*
X97174049Y-110954782D01*
X97005985Y-110666857D01*
X96698555Y-110137019D01*
X96459756Y-109719852D01*
X96281834Y-109401347D01*
X96157036Y-109167491D01*
X96077610Y-109004273D01*
X96035803Y-108897682D01*
X95989417Y-108787379D01*
X95927125Y-108722911D01*
X95912431Y-108716880D01*
X95830712Y-108622555D01*
X95725462Y-108450160D01*
X95578576Y-108177410D01*
X95766055Y-107976022D01*
X95842010Y-107904887D01*
X96048425Y-107739393D01*
X96324024Y-107537322D01*
X96630386Y-107327501D01*
X97307239Y-106880369D01*
X100816669Y-106915461D01*
X101064918Y-107170969D01*
X101153420Y-107256826D01*
X101551034Y-107532154D01*
X102023851Y-107692874D01*
X102594818Y-107747634D01*
X102900745Y-107734036D01*
X103440383Y-107638056D01*
X103932910Y-107463121D01*
X104328111Y-107224390D01*
X104472208Y-107058618D01*
X104581660Y-106763949D01*
X104594285Y-106430374D01*
X104515913Y-106100592D01*
X104352374Y-105817301D01*
X104109497Y-105623199D01*
X104096337Y-105616847D01*
X103855888Y-105499522D01*
X103604604Y-105375264D01*
X103368710Y-105269778D01*
X102971114Y-105118458D01*
X102480930Y-104951509D01*
X101920001Y-104774734D01*
X101310170Y-104593934D01*
X100673282Y-104414909D01*
X100031178Y-104243462D01*
X99405704Y-104085394D01*
X98818702Y-103946505D01*
X98292015Y-103832599D01*
X97847487Y-103749475D01*
X97506963Y-103702935D01*
X97292284Y-103698781D01*
X97243512Y-103708141D01*
X96996628Y-103799365D01*
X96666335Y-103968639D01*
X96282498Y-104201106D01*
X96144173Y-104290330D01*
X95580143Y-104648834D01*
X95086884Y-104953576D01*
X94675935Y-105197834D01*
X94358832Y-105374888D01*
X94147110Y-105478016D01*
X94052307Y-105500495D01*
X94048964Y-105497892D01*
X93980677Y-105404827D01*
X93855868Y-105205935D01*
X93691151Y-104928468D01*
X93503140Y-104599677D01*
X93487529Y-104571880D01*
X93291113Y-104214885D01*
X93165851Y-103966259D01*
X93102769Y-103803135D01*
X93092894Y-103702650D01*
X93127252Y-103641938D01*
X93170308Y-103613080D01*
X93339429Y-103509949D01*
X93624569Y-103340360D01*
X94014599Y-103110806D01*
X94498391Y-102827778D01*
X95064815Y-102497768D01*
X95702744Y-102127268D01*
X96401048Y-101722771D01*
X97148599Y-101290767D01*
X97934268Y-100837750D01*
X98149972Y-100713511D01*
X99002841Y-100222251D01*
X99861353Y-99727699D01*
X100707974Y-99239957D01*
X101525172Y-98769128D01*
X102295412Y-98325313D01*
X103001161Y-97918617D01*
X103624887Y-97559141D01*
X104149055Y-97256988D01*
X104556133Y-97022260D01*
X106478610Y-95913463D01*
X106478610Y-111460633D01*
G36*
X106478610Y-111460633D02*
G01*
X106478555Y-112103367D01*
X106477966Y-113635144D01*
X106476760Y-115120010D01*
X106474967Y-116550735D01*
X106472619Y-117920090D01*
X106469746Y-119220846D01*
X106466380Y-120445774D01*
X106462551Y-121587643D01*
X106458290Y-122639225D01*
X106453628Y-123593290D01*
X106448596Y-124442609D01*
X106443226Y-125179953D01*
X106437547Y-125798092D01*
X106431592Y-126289796D01*
X106425390Y-126647838D01*
X106418973Y-126864986D01*
X106412372Y-126934012D01*
X106378972Y-126882761D01*
X106272545Y-126705940D01*
X106101209Y-126415502D01*
X105871762Y-126023260D01*
X105591001Y-125541028D01*
X105265722Y-124980618D01*
X104902723Y-124353843D01*
X104508799Y-123672515D01*
X104090748Y-122948449D01*
X103655366Y-122193456D01*
X103209451Y-121419349D01*
X102759798Y-120637941D01*
X102313205Y-119861045D01*
X101876468Y-119100474D01*
X101456385Y-118368041D01*
X101059751Y-117675558D01*
X100693364Y-117034838D01*
X100364020Y-116457694D01*
X100078516Y-115955939D01*
X99843649Y-115541386D01*
X99666216Y-115225847D01*
X99553013Y-115021135D01*
X99510837Y-114939064D01*
X99521291Y-114885508D01*
X99616377Y-114724175D01*
X99792535Y-114494156D01*
X100031447Y-114220729D01*
X100270612Y-113974454D01*
X100596406Y-113660777D01*
X100976761Y-113309808D01*
X101390734Y-112939540D01*
X101817386Y-112567962D01*
X102235772Y-112213065D01*
X102624953Y-111892840D01*
X102963985Y-111625278D01*
X103231928Y-111428371D01*
X103407839Y-111320108D01*
X103536311Y-111247836D01*
X103802177Y-111051549D01*
X104085022Y-110799206D01*
X104348572Y-110526786D01*
X104556549Y-110270265D01*
X104672680Y-110065623D01*
X104699522Y-109839612D01*
X104625333Y-109538021D01*
X104455221Y-109251383D01*
X104211108Y-109028936D01*
X104147775Y-108990415D01*
X104044051Y-108941373D01*
X103919224Y-108909409D01*
X103746474Y-108892473D01*
X103498983Y-108888516D01*
X103149929Y-108895488D01*
X102672494Y-108911338D01*
X102396319Y-108922694D01*
X101959563Y-108946827D01*
X101577310Y-108975308D01*
X101283162Y-109005486D01*
X101110721Y-109034704D01*
X100913730Y-109105439D01*
X100525807Y-109315140D01*
X100066164Y-109640993D01*
X99529405Y-110086975D01*
X98910133Y-110657065D01*
X98649217Y-110904458D01*
X98341431Y-111190502D01*
X98080477Y-111426589D01*
X97887898Y-111593299D01*
X97785236Y-111671211D01*
X97768933Y-111679220D01*
X97698755Y-111688825D01*
X97620946Y-111640839D01*
X97518737Y-111515607D01*
X97375360Y-111293473D01*
X97174049Y-110954782D01*
X97005985Y-110666857D01*
X96698555Y-110137019D01*
X96459756Y-109719852D01*
X96281834Y-109401347D01*
X96157036Y-109167491D01*
X96077610Y-109004273D01*
X96035803Y-108897682D01*
X95989417Y-108787379D01*
X95927125Y-108722911D01*
X95912431Y-108716880D01*
X95830712Y-108622555D01*
X95725462Y-108450160D01*
X95578576Y-108177410D01*
X95766055Y-107976022D01*
X95842010Y-107904887D01*
X96048425Y-107739393D01*
X96324024Y-107537322D01*
X96630386Y-107327501D01*
X97307239Y-106880369D01*
X100816669Y-106915461D01*
X101064918Y-107170969D01*
X101153420Y-107256826D01*
X101551034Y-107532154D01*
X102023851Y-107692874D01*
X102594818Y-107747634D01*
X102900745Y-107734036D01*
X103440383Y-107638056D01*
X103932910Y-107463121D01*
X104328111Y-107224390D01*
X104472208Y-107058618D01*
X104581660Y-106763949D01*
X104594285Y-106430374D01*
X104515913Y-106100592D01*
X104352374Y-105817301D01*
X104109497Y-105623199D01*
X104096337Y-105616847D01*
X103855888Y-105499522D01*
X103604604Y-105375264D01*
X103368710Y-105269778D01*
X102971114Y-105118458D01*
X102480930Y-104951509D01*
X101920001Y-104774734D01*
X101310170Y-104593934D01*
X100673282Y-104414909D01*
X100031178Y-104243462D01*
X99405704Y-104085394D01*
X98818702Y-103946505D01*
X98292015Y-103832599D01*
X97847487Y-103749475D01*
X97506963Y-103702935D01*
X97292284Y-103698781D01*
X97243512Y-103708141D01*
X96996628Y-103799365D01*
X96666335Y-103968639D01*
X96282498Y-104201106D01*
X96144173Y-104290330D01*
X95580143Y-104648834D01*
X95086884Y-104953576D01*
X94675935Y-105197834D01*
X94358832Y-105374888D01*
X94147110Y-105478016D01*
X94052307Y-105500495D01*
X94048964Y-105497892D01*
X93980677Y-105404827D01*
X93855868Y-105205935D01*
X93691151Y-104928468D01*
X93503140Y-104599677D01*
X93487529Y-104571880D01*
X93291113Y-104214885D01*
X93165851Y-103966259D01*
X93102769Y-103803135D01*
X93092894Y-103702650D01*
X93127252Y-103641938D01*
X93170308Y-103613080D01*
X93339429Y-103509949D01*
X93624569Y-103340360D01*
X94014599Y-103110806D01*
X94498391Y-102827778D01*
X95064815Y-102497768D01*
X95702744Y-102127268D01*
X96401048Y-101722771D01*
X97148599Y-101290767D01*
X97934268Y-100837750D01*
X98149972Y-100713511D01*
X99002841Y-100222251D01*
X99861353Y-99727699D01*
X100707974Y-99239957D01*
X101525172Y-98769128D01*
X102295412Y-98325313D01*
X103001161Y-97918617D01*
X103624887Y-97559141D01*
X104149055Y-97256988D01*
X104556133Y-97022260D01*
X106478610Y-95913463D01*
X106478610Y-111460633D01*
G37*
D12*
%TO.C,R1*%
X137363950Y-84434500D02*
X137363950Y-90294500D01*
X140533950Y-84434500D02*
X137363950Y-84434500D01*
X140533950Y-90294500D02*
X140533950Y-84434500D01*
%TO.C,R31*%
X63955400Y-71897742D02*
X63955400Y-72372258D01*
X65200000Y-71897742D02*
X65200000Y-72372258D01*
D13*
%TO.C,C32*%
X60712700Y-38872000D02*
X60712700Y-35672000D01*
X62672700Y-38872000D02*
X62672700Y-35672000D01*
D14*
X61792700Y-34522000D02*
G75*
G02*
X61592700Y-34522000I-100000J0D01*
G01*
X61592700Y-34522000D02*
G75*
G02*
X61792700Y-34522000I100000J0D01*
G01*
D12*
%TO.C,R14*%
X138580800Y-57600064D02*
X138580800Y-57145936D01*
X140257200Y-57598528D02*
X140257200Y-57144400D01*
%TO.C,R5*%
X148902458Y-90762400D02*
X148427942Y-90762400D01*
X148902458Y-92007000D02*
X148427942Y-92007000D01*
%TO.C,C15*%
X140404600Y-61239648D02*
X140404600Y-62662152D01*
X142512800Y-61239648D02*
X142512800Y-62662152D01*
D11*
%TO.C,U4*%
X140784600Y-56501500D02*
X140784600Y-58152500D01*
X141810760Y-56501500D02*
X140784600Y-56501500D01*
X142059639Y-58152500D02*
X142760761Y-58152500D01*
X144035800Y-56501500D02*
X143009640Y-56501500D01*
X144035800Y-58152500D02*
X144035800Y-56501500D01*
X144010400Y-58597000D02*
G75*
G02*
X143858000Y-58597000I-76200J0D01*
G01*
X143858000Y-58597000D02*
G75*
G02*
X144010400Y-58597000I76200J0D01*
G01*
D14*
%TO.C,U8*%
X65597191Y-32606587D02*
X65597191Y-39306586D01*
X65597191Y-32606587D02*
X68597191Y-32606587D01*
X65597191Y-39306586D02*
X68597191Y-39306586D01*
X68597191Y-32606587D02*
X68597191Y-39306586D01*
D16*
X70072191Y-32656587D02*
G75*
G02*
X69822189Y-32656587I-125001J0D01*
G01*
X69822189Y-32656587D02*
G75*
G02*
X70072191Y-32656587I125001J0D01*
G01*
D13*
%TO.C,C19*%
X137455200Y-37644500D02*
X140655200Y-37644500D01*
X137455200Y-39604500D02*
X140655200Y-39604500D01*
D14*
X141905200Y-38624500D02*
G75*
G02*
X141705200Y-38624500I-100000J0D01*
G01*
X141705200Y-38624500D02*
G75*
G02*
X141905200Y-38624500I100000J0D01*
G01*
D12*
%TO.C,R8*%
X124310200Y-112799936D02*
X124310200Y-114254064D01*
X126130200Y-112799936D02*
X126130200Y-114254064D01*
%TO.C,R27*%
X62465400Y-61247742D02*
X62465400Y-61722258D01*
X63710000Y-61247742D02*
X63710000Y-61722258D01*
%TO.C,R2*%
X141053950Y-85322000D02*
X141053950Y-91182000D01*
X141053950Y-91182000D02*
X144223950Y-91182000D01*
X144223950Y-91182000D02*
X144223950Y-85322000D01*
D13*
%TO.C,C29*%
X72155200Y-42089500D02*
X75355200Y-42089500D01*
X72155200Y-44049500D02*
X75355200Y-44049500D01*
D14*
X76605200Y-43069500D02*
G75*
G02*
X76405200Y-43069500I-100000J0D01*
G01*
X76405200Y-43069500D02*
G75*
G02*
X76605200Y-43069500I100000J0D01*
G01*
D12*
%TO.C,R30*%
X62355400Y-71887742D02*
X62355400Y-72362258D01*
X63600000Y-71887742D02*
X63600000Y-72362258D01*
D13*
%TO.C,C18*%
X130787700Y-32642000D02*
X130787700Y-35842000D01*
X132747700Y-32642000D02*
X132747700Y-35842000D01*
D14*
X131867700Y-36992000D02*
G75*
G02*
X131667700Y-36992000I-100000J0D01*
G01*
X131667700Y-36992000D02*
G75*
G02*
X131867700Y-36992000I100000J0D01*
G01*
%TD*%
M02*
