%TF.GenerationSoftware,KiCad,Pcbnew,8.0.4*%
%TF.CreationDate,2024-10-07T13:18:05+07:00*%
%TF.ProjectId,Power_Supply,506f7765-725f-4537-9570-706c792e6b69,rev?*%
%TF.SameCoordinates,Original*%
%TF.FileFunction,Soldermask,Bot*%
%TF.FilePolarity,Negative*%
%FSLAX46Y46*%
G04 Gerber Fmt 4.6, Leading zero omitted, Abs format (unit mm)*
G04 Created by KiCad (PCBNEW 8.0.4) date 2024-10-07 13:18:05*
%MOMM*%
%LPD*%
G01*
G04 APERTURE LIST*
G04 Aperture macros list*
%AMRoundRect*
0 Rectangle with rounded corners*
0 $1 Rounding radius*
0 $2 $3 $4 $5 $6 $7 $8 $9 X,Y pos of 4 corners*
0 Add a 4 corners polygon primitive as box body*
4,1,4,$2,$3,$4,$5,$6,$7,$8,$9,$2,$3,0*
0 Add four circle primitives for the rounded corners*
1,1,$1+$1,$2,$3*
1,1,$1+$1,$4,$5*
1,1,$1+$1,$6,$7*
1,1,$1+$1,$8,$9*
0 Add four rect primitives between the rounded corners*
20,1,$1+$1,$2,$3,$4,$5,0*
20,1,$1+$1,$4,$5,$6,$7,0*
20,1,$1+$1,$6,$7,$8,$9,0*
20,1,$1+$1,$8,$9,$2,$3,0*%
G04 Aperture macros list end*
%ADD10C,2.501600*%
%ADD11O,2.501600X2.501600*%
%ADD12C,2.101600*%
%ADD13RoundRect,0.050800X-1.075000X1.075000X-1.075000X-1.075000X1.075000X-1.075000X1.075000X1.075000X0*%
%ADD14C,2.251600*%
%ADD15C,1.701600*%
%ADD16RoundRect,0.050800X1.200000X-1.200000X1.200000X1.200000X-1.200000X1.200000X-1.200000X-1.200000X0*%
%ADD17RoundRect,0.050800X-0.750000X-0.750000X0.750000X-0.750000X0.750000X0.750000X-0.750000X0.750000X0*%
%ADD18C,1.601600*%
%ADD19RoundRect,0.050800X-1.117600X-1.117600X1.117600X-1.117600X1.117600X1.117600X-1.117600X1.117600X0*%
%ADD20C,2.336800*%
%ADD21C,1.600200*%
%ADD22RoundRect,0.050800X-0.749300X0.749300X-0.749300X-0.749300X0.749300X-0.749300X0.749300X0.749300X0*%
%ADD23RoundRect,0.050800X1.250000X-1.250000X1.250000X1.250000X-1.250000X1.250000X-1.250000X-1.250000X0*%
%ADD24C,2.601600*%
%ADD25RoundRect,0.050800X-0.952500X-1.000000X0.952500X-1.000000X0.952500X1.000000X-0.952500X1.000000X0*%
%ADD26O,2.006600X2.101600*%
%ADD27RoundRect,0.264111X-1.586689X0.686689X-1.586689X-0.686689X1.586689X-0.686689X1.586689X0.686689X0*%
%ADD28O,3.701600X1.901600*%
%ADD29O,3.504000X1.854000*%
%ADD30RoundRect,0.050800X-1.400000X-1.400000X1.400000X-1.400000X1.400000X1.400000X-1.400000X1.400000X0*%
%ADD31C,2.901600*%
%ADD32C,1.801600*%
%ADD33C,2.204000*%
%ADD34RoundRect,0.050800X-1.500000X1.500000X-1.500000X-1.500000X1.500000X-1.500000X1.500000X1.500000X0*%
%ADD35C,3.101600*%
%ADD36C,1.371600*%
%ADD37RoundRect,0.050800X0.635000X0.635000X-0.635000X0.635000X-0.635000X-0.635000X0.635000X-0.635000X0*%
%ADD38RoundRect,0.299756X0.314744X0.502244X-0.314744X0.502244X-0.314744X-0.502244X0.314744X-0.502244X0*%
%ADD39RoundRect,0.265875X-0.584925X1.534925X-0.584925X-1.534925X0.584925X-1.534925X0.584925X1.534925X0*%
%ADD40RoundRect,0.259080X0.502920X-0.747920X0.502920X0.747920X-0.502920X0.747920X-0.502920X-0.747920X0*%
%ADD41RoundRect,0.251000X0.326000X-0.251000X0.326000X0.251000X-0.326000X0.251000X-0.326000X-0.251000X0*%
%ADD42RoundRect,0.269539X0.431261X0.656261X-0.431261X0.656261X-0.431261X-0.656261X0.431261X-0.656261X0*%
%ADD43RoundRect,0.294347X0.382653X0.707653X-0.382653X0.707653X-0.382653X-0.707653X0.382653X-0.707653X0*%
%ADD44RoundRect,0.251000X-0.326000X0.251000X-0.326000X-0.251000X0.326000X-0.251000X0.326000X0.251000X0*%
%ADD45RoundRect,0.259080X0.747920X0.502920X-0.747920X0.502920X-0.747920X-0.502920X0.747920X-0.502920X0*%
%ADD46RoundRect,0.251000X-0.251000X-0.326000X0.251000X-0.326000X0.251000X0.326000X-0.251000X0.326000X0*%
%ADD47RoundRect,0.299756X0.502244X-0.314744X0.502244X0.314744X-0.502244X0.314744X-0.502244X-0.314744X0*%
%ADD48RoundRect,0.251000X0.251000X0.326000X-0.251000X0.326000X-0.251000X-0.326000X0.251000X-0.326000X0*%
%ADD49RoundRect,0.259080X-0.502920X0.747920X-0.502920X-0.747920X0.502920X-0.747920X0.502920X0.747920X0*%
%ADD50RoundRect,0.102000X-1.200000X-1.250000X1.200000X-1.250000X1.200000X1.250000X-1.200000X1.250000X0*%
%ADD51RoundRect,0.266655X-1.109145X0.546645X-1.109145X-0.546645X1.109145X-0.546645X1.109145X0.546645X0*%
%ADD52RoundRect,0.269539X-0.431261X-0.656261X0.431261X-0.656261X0.431261X0.656261X-0.431261X0.656261X0*%
%ADD53RoundRect,0.299756X-0.502244X0.314744X-0.502244X-0.314744X0.502244X-0.314744X0.502244X0.314744X0*%
%ADD54RoundRect,0.294347X0.707653X-0.382653X0.707653X0.382653X-0.707653X0.382653X-0.707653X-0.382653X0*%
%ADD55RoundRect,0.050800X0.266700X0.584200X-0.266700X0.584200X-0.266700X-0.584200X0.266700X-0.584200X0*%
%ADD56RoundRect,0.050800X0.725000X-0.450000X0.725000X0.450000X-0.725000X0.450000X-0.725000X-0.450000X0*%
%ADD57RoundRect,0.050800X0.725000X-1.574999X0.725000X1.574999X-0.725000X1.574999X-0.725000X-1.574999X0*%
%ADD58RoundRect,0.269539X0.656261X-0.431261X0.656261X0.431261X-0.656261X0.431261X-0.656261X-0.431261X0*%
%ADD59RoundRect,0.266655X1.109145X-0.546645X1.109145X0.546645X-1.109145X0.546645X-1.109145X-0.546645X0*%
G04 APERTURE END LIST*
D10*
%TO.C,R7*%
X121230200Y-98077000D03*
D11*
X113610200Y-98077000D03*
%TD*%
D10*
%TO.C,R6*%
X134480200Y-98077000D03*
D11*
X126860200Y-98077000D03*
%TD*%
D12*
%TO.C,C6*%
X117507200Y-111878900D03*
X132507000Y-111878900D03*
%TD*%
D13*
%TO.C,T1*%
X131365600Y-90123600D03*
D14*
X126365600Y-90123600D03*
X121365600Y-90123600D03*
X116365600Y-90123600D03*
X111365600Y-90123600D03*
X106365600Y-90123600D03*
X101365600Y-90123600D03*
X96365600Y-90123600D03*
X96365600Y-55123600D03*
X101365600Y-55123600D03*
X106365600Y-55123600D03*
X111365600Y-55123600D03*
X116365600Y-55123600D03*
X121365600Y-55123600D03*
X126365600Y-55123600D03*
X131365600Y-55123600D03*
%TD*%
D10*
%TO.C,R9*%
X91611500Y-45948300D03*
D11*
X78911500Y-45948300D03*
%TD*%
D15*
%TO.C,C3*%
X107970200Y-124277000D03*
X107970200Y-129277000D03*
%TD*%
D16*
%TO.C,C5*%
X157500200Y-106667000D03*
D10*
X157500200Y-99167000D03*
%TD*%
D17*
%TO.C,D2*%
X119239200Y-104477000D03*
D18*
X132701200Y-104477000D03*
%TD*%
D19*
%TO.C,CR2*%
X85170200Y-39467000D03*
D20*
X90250200Y-39467000D03*
%TD*%
D21*
%TO.C,D3*%
X137830200Y-61237000D03*
D22*
X137830200Y-70137160D03*
%TD*%
D23*
%TO.C,CR1*%
X142140200Y-114307000D03*
D24*
X142140200Y-94247000D03*
%TD*%
D15*
%TO.C,C7*%
X91050200Y-81957000D03*
X91050200Y-76957000D03*
%TD*%
%TO.C,C12*%
X145530200Y-47357000D03*
X150530200Y-47357000D03*
%TD*%
D25*
%TO.C,U4*%
X135260200Y-35552000D03*
D26*
X137800200Y-35552000D03*
X140340200Y-35552000D03*
%TD*%
D15*
%TO.C,C2*%
X103320200Y-124377000D03*
X103320200Y-129377000D03*
%TD*%
D27*
%TO.C,J4*%
X55060200Y-46097000D03*
D28*
X55060200Y-49907000D03*
X55060200Y-53717000D03*
X55060200Y-57527000D03*
X55060200Y-61337000D03*
X55060200Y-65147000D03*
%TD*%
D29*
%TO.C,RV1*%
X79920200Y-126427000D03*
X74920200Y-126427000D03*
%TD*%
D15*
%TO.C,C11*%
X80170200Y-42197000D03*
X80170200Y-37197000D03*
%TD*%
D30*
%TO.C,D1*%
X132172700Y-125979500D03*
D31*
X137252700Y-125979500D03*
X142332700Y-125979500D03*
X147412700Y-125979500D03*
%TD*%
D10*
%TO.C,R10*%
X129478900Y-47345700D03*
D11*
X142178900Y-47345700D03*
%TD*%
D32*
%TO.C,TH1*%
X114970200Y-124527000D03*
X122470200Y-124527000D03*
%TD*%
D18*
%TO.C,L1*%
X161250200Y-53387000D03*
X161250200Y-58387000D03*
%TD*%
D12*
%TO.C,C4*%
X106168300Y-98564000D03*
X106168300Y-113563800D03*
%TD*%
%TO.C,C15*%
X103710200Y-37347000D03*
X103710200Y-44847000D03*
%TD*%
D19*
%TO.C,CR3*%
X147160200Y-35023100D03*
D20*
X152240200Y-35023100D03*
%TD*%
D33*
%TO.C,F1*%
X68194800Y-99515800D03*
X68220200Y-126414400D03*
%TD*%
D27*
%TO.C,J3*%
X55050200Y-71897000D03*
D28*
X55050200Y-75707000D03*
X55050200Y-79517000D03*
X55050200Y-83327000D03*
X55050200Y-87137000D03*
X55050200Y-90947000D03*
%TD*%
D34*
%TO.C,J1*%
X59732800Y-104287002D03*
D35*
X59732800Y-113787000D03*
X59732800Y-123286999D03*
%TD*%
D36*
%TO.C,U1*%
X147857200Y-88910000D03*
X147857200Y-87132000D03*
X147857200Y-85354000D03*
X147857200Y-83576000D03*
X147857200Y-80020000D03*
X158017200Y-80020000D03*
X158017200Y-81798000D03*
X158017200Y-83576000D03*
X158017200Y-85354000D03*
X158017200Y-87132000D03*
D37*
X158017200Y-88910000D03*
%TD*%
D12*
%TO.C,FL1*%
X96825600Y-102011600D03*
X96825600Y-122311600D03*
X86625600Y-102011600D03*
X86625600Y-122311600D03*
%TD*%
D18*
%TO.C,L2*%
X117800200Y-44767000D03*
X122800200Y-44767000D03*
%TD*%
D27*
%TO.C,J2*%
X55072700Y-35982000D03*
D28*
X55072700Y-39482000D03*
%TD*%
D12*
%TO.C,C1*%
X77618300Y-102064000D03*
X77618300Y-117063800D03*
%TD*%
D15*
%TO.C,C8*%
X91090200Y-74077000D03*
X91090200Y-69077000D03*
%TD*%
D38*
%TO.C,R11*%
X151638236Y-82247400D03*
X149813236Y-82247400D03*
%TD*%
D39*
%TO.C,C13*%
X137830200Y-73897000D03*
X137830200Y-79497000D03*
%TD*%
D40*
%TO.C,C19*%
X129287700Y-35542000D03*
X129287700Y-32942000D03*
%TD*%
D41*
%TO.C,R24*%
X63120000Y-50890000D03*
X63120000Y-49240000D03*
%TD*%
D42*
%TO.C,R4*%
X150950000Y-94100000D03*
X147850000Y-94100000D03*
%TD*%
D43*
%TO.C,C9*%
X152729100Y-85352800D03*
X149779100Y-85352800D03*
%TD*%
D44*
%TO.C,R3*%
X145650400Y-85484000D03*
X145650400Y-87134000D03*
%TD*%
D41*
%TO.C,R25*%
X65180000Y-85010000D03*
X65180000Y-83360000D03*
%TD*%
D45*
%TO.C,C22*%
X140325200Y-41234500D03*
X137725200Y-41234500D03*
%TD*%
D46*
%TO.C,R13*%
X145407200Y-58356800D03*
X147057200Y-58356800D03*
%TD*%
D47*
%TO.C,R14*%
X137059800Y-58295036D03*
X137059800Y-56470036D03*
%TD*%
D45*
%TO.C,C48*%
X75035200Y-45719500D03*
X72435200Y-45719500D03*
%TD*%
D48*
%TO.C,R32*%
X61233200Y-41087200D03*
X59583200Y-41087200D03*
%TD*%
D42*
%TO.C,R12*%
X147020200Y-53777000D03*
X143920200Y-53777000D03*
%TD*%
D41*
%TO.C,R26*%
X63120000Y-54780000D03*
X63120000Y-53130000D03*
%TD*%
D49*
%TO.C,C49*%
X59072700Y-35962000D03*
X59072700Y-38562000D03*
%TD*%
D41*
%TO.C,R23*%
X63150000Y-47100000D03*
X63150000Y-45450000D03*
%TD*%
%TO.C,R27*%
X63620000Y-85050000D03*
X63620000Y-83400000D03*
%TD*%
D50*
%TO.C,C10*%
X154530200Y-82242200D03*
X154530200Y-77771800D03*
%TD*%
D48*
%TO.C,R31*%
X61233200Y-42937200D03*
X59583200Y-42937200D03*
%TD*%
D51*
%TO.C,R1*%
X138948950Y-85457000D03*
X138948950Y-90132000D03*
%TD*%
D41*
%TO.C,R30*%
X64580000Y-72960000D03*
X64580000Y-71310000D03*
%TD*%
D49*
%TO.C,C50*%
X61692700Y-35972000D03*
X61692700Y-38572000D03*
%TD*%
D52*
%TO.C,R5*%
X147850000Y-91450000D03*
X150950000Y-91450000D03*
%TD*%
D53*
%TO.C,R15*%
X139420600Y-56458964D03*
X139420600Y-58283964D03*
%TD*%
D54*
%TO.C,C16*%
X141464400Y-63425900D03*
X141464400Y-60475900D03*
%TD*%
D55*
%TO.C,U3*%
X143360201Y-58343000D03*
X141460199Y-58343000D03*
X142410200Y-56311000D03*
%TD*%
D56*
%TO.C,U11*%
X70172191Y-33656588D03*
X70172191Y-35956588D03*
X70172191Y-38256588D03*
D57*
X64022191Y-35956588D03*
%TD*%
D45*
%TO.C,C21*%
X140355200Y-38624500D03*
X137755200Y-38624500D03*
%TD*%
D58*
%TO.C,R8*%
X125220200Y-115077000D03*
X125220200Y-111977000D03*
%TD*%
D41*
%TO.C,R28*%
X63090000Y-62310000D03*
X63090000Y-60660000D03*
%TD*%
D59*
%TO.C,R2*%
X142638950Y-90159500D03*
X142638950Y-85484500D03*
%TD*%
D45*
%TO.C,C47*%
X75055200Y-43069500D03*
X72455200Y-43069500D03*
%TD*%
D41*
%TO.C,R29*%
X62980000Y-72950000D03*
X62980000Y-71300000D03*
%TD*%
D40*
%TO.C,C20*%
X131767700Y-35542000D03*
X131767700Y-32942000D03*
%TD*%
M02*
