%TF.GenerationSoftware,KiCad,Pcbnew,8.0.4*%
%TF.CreationDate,2024-10-07T13:18:05+07:00*%
%TF.ProjectId,Power_Supply,506f7765-725f-4537-9570-706c792e6b69,rev?*%
%TF.SameCoordinates,Original*%
%TF.FileFunction,Profile,NP*%
%FSLAX46Y46*%
G04 Gerber Fmt 4.6, Leading zero omitted, Abs format (unit mm)*
G04 Created by KiCad (PCBNEW 8.0.4) date 2024-10-07 13:18:05*
%MOMM*%
%LPD*%
G01*
G04 APERTURE LIST*
%TA.AperFunction,Profile*%
%ADD10C,0.100000*%
%TD*%
G04 APERTURE END LIST*
D10*
X89979500Y-78765400D02*
X93052900Y-78765400D01*
X93052900Y-79578200D01*
X89979500Y-79578200D01*
X89979500Y-78765400D01*
X89992200Y-71221600D02*
X93065600Y-71221600D01*
X93065600Y-72034400D01*
X89992200Y-72034400D01*
X89992200Y-71221600D01*
X149480200Y-67047000D02*
X149190200Y-67047000D01*
X97140200Y-69937000D02*
X131270200Y-69937000D01*
X131270200Y-73677000D01*
X97140200Y-73677000D01*
X97140200Y-69937000D01*
X144580200Y-65067000D02*
X148470200Y-65067000D01*
X143224623Y-66422577D02*
X144580200Y-65067000D01*
X149750200Y-66347000D02*
X149750200Y-66777000D01*
X143860200Y-67087000D02*
X143460200Y-67087000D01*
X148230200Y-66087000D02*
X144860200Y-66087000D01*
X143224623Y-66857000D02*
X143224623Y-66422577D01*
X47240200Y-31527000D02*
X167630200Y-31527000D01*
X167630200Y-131457000D01*
X47240200Y-131457000D01*
X47240200Y-31527000D01*
X143460200Y-67087000D02*
X143228468Y-66855268D01*
X149750200Y-66777000D02*
X149480200Y-67047000D01*
X144860200Y-66087000D02*
X143860200Y-67087000D01*
X148470200Y-65067000D02*
X149750200Y-66347000D01*
X149190200Y-67047000D02*
X148230200Y-66087000D01*
M02*
