%TF.GenerationSoftware,KiCad,Pcbnew,8.0.4*%
%TF.CreationDate,2024-10-06T11:33:23+07:00*%
%TF.ProjectId,PFC & LLC,50464320-2620-44c4-9c43-2e6b69636164,rev?*%
%TF.SameCoordinates,Original*%
%TF.FileFunction,Paste,Bot*%
%TF.FilePolarity,Positive*%
%FSLAX46Y46*%
G04 Gerber Fmt 4.6, Leading zero omitted, Abs format (unit mm)*
G04 Created by KiCad (PCBNEW 8.0.4) date 2024-10-06 11:33:23*
%MOMM*%
%LPD*%
G01*
G04 APERTURE LIST*
G04 Aperture macros list*
%AMRoundRect*
0 Rectangle with rounded corners*
0 $1 Rounding radius*
0 $2 $3 $4 $5 $6 $7 $8 $9 X,Y pos of 4 corners*
0 Add a 4 corners polygon primitive as box body*
4,1,4,$2,$3,$4,$5,$6,$7,$8,$9,$2,$3,0*
0 Add four circle primitives for the rounded corners*
1,1,$1+$1,$2,$3*
1,1,$1+$1,$4,$5*
1,1,$1+$1,$6,$7*
1,1,$1+$1,$8,$9*
0 Add four rect primitives between the rounded corners*
20,1,$1+$1,$2,$3,$4,$5,0*
20,1,$1+$1,$4,$5,$6,$7,0*
20,1,$1+$1,$6,$7,$8,$9,0*
20,1,$1+$1,$8,$9,$2,$3,0*%
G04 Aperture macros list end*
%ADD10C,0.200000*%
%ADD11RoundRect,0.199600X0.224600X-0.199600X0.224600X0.199600X-0.224600X0.199600X-0.224600X-0.199600X0*%
%ADD12RoundRect,0.228383X0.445817X-0.308317X0.445817X0.308317X-0.445817X0.308317X-0.445817X-0.308317X0*%
%ADD13R,3.408400X1.468400*%
%ADD14RoundRect,0.199600X-0.199600X-0.224600X0.199600X-0.224600X0.199600X0.224600X-0.199600X0.224600X0*%
%ADD15RoundRect,0.230462X-0.368738X-0.593738X0.368738X-0.593738X0.368738X0.593738X-0.368738X0.593738X0*%
%ADD16R,0.254000X0.635000*%
%ADD17RoundRect,0.207128X-0.402072X0.647072X-0.402072X-0.647072X0.402072X-0.647072X0.402072X0.647072X0*%
%ADD18RoundRect,0.230462X0.593738X-0.368738X0.593738X0.368738X-0.593738X0.368738X-0.593738X-0.368738X0*%
%ADD19RoundRect,0.199600X-0.224600X0.199600X-0.224600X-0.199600X0.224600X-0.199600X0.224600X0.199600X0*%
%ADD20RoundRect,0.170600X-0.244100X0.170600X-0.244100X-0.170600X0.244100X-0.170600X0.244100X0.170600X0*%
%ADD21RoundRect,0.174600X-0.249600X0.174600X-0.249600X-0.174600X0.249600X-0.174600X0.249600X0.174600X0*%
%ADD22RoundRect,0.199600X0.199600X0.224600X-0.199600X0.224600X-0.199600X-0.224600X0.199600X-0.224600X0*%
%ADD23RoundRect,0.238455X1.260745X0.810745X-1.260745X0.810745X-1.260745X-0.810745X1.260745X-0.810745X0*%
%ADD24RoundRect,0.233067X0.466133X0.476133X-0.466133X0.476133X-0.466133X-0.476133X0.466133X-0.476133X0*%
%ADD25R,0.431800X1.066800*%
%ADD26RoundRect,0.137100X-0.592100X-0.137100X0.592100X-0.137100X0.592100X0.137100X-0.592100X0.137100X0*%
%ADD27RoundRect,0.170600X0.170600X0.244100X-0.170600X0.244100X-0.170600X-0.244100X0.170600X-0.244100X0*%
%ADD28RoundRect,0.174600X0.174600X0.249600X-0.174600X0.249600X-0.174600X-0.249600X0.174600X-0.249600X0*%
%ADD29R,2.298400X2.398400*%
%ADD30R,0.431800X1.358900*%
%ADD31RoundRect,0.170600X0.244100X-0.170600X0.244100X0.170600X-0.244100X0.170600X-0.244100X-0.170600X0*%
%ADD32RoundRect,0.174600X0.249600X-0.174600X0.249600X0.174600X-0.249600X0.174600X-0.249600X-0.174600X0*%
%ADD33R,1.066800X0.431800*%
%ADD34RoundRect,0.228383X-0.445817X0.308317X-0.445817X-0.308317X0.445817X-0.308317X0.445817X0.308317X0*%
G04 APERTURE END LIST*
D10*
X104089500Y-57752600D02*
X110972900Y-57752600D01*
X110972900Y-59810000D01*
X104089500Y-59810000D01*
X104089500Y-57752600D01*
G36*
X104089500Y-57752600D02*
G01*
X110972900Y-57752600D01*
X110972900Y-59810000D01*
X104089500Y-59810000D01*
X104089500Y-57752600D01*
G37*
X104026000Y-61384800D02*
X110909400Y-61384800D01*
X110909400Y-63442200D01*
X104026000Y-63442200D01*
X104026000Y-61384800D01*
G36*
X104026000Y-61384800D02*
G01*
X110909400Y-61384800D01*
X110909400Y-63442200D01*
X104026000Y-63442200D01*
X104026000Y-61384800D01*
G37*
D11*
%TO.C,C14*%
X111709200Y-83959350D03*
X111709200Y-82409350D03*
%TD*%
D12*
%TO.C,C13*%
X113360200Y-84637650D03*
X113360200Y-82562650D03*
%TD*%
D13*
%TO.C,C29*%
X157378400Y-115725800D03*
X157378400Y-111691800D03*
%TD*%
D14*
%TO.C,C27*%
X103796800Y-78891750D03*
X105346800Y-78891750D03*
%TD*%
D15*
%TO.C,R19*%
X132714400Y-93642800D03*
X135814400Y-93642800D03*
%TD*%
D14*
%TO.C,C15*%
X108699000Y-80872950D03*
X110249000Y-80872950D03*
%TD*%
D16*
%TO.C,D15*%
X26948800Y-103853600D03*
X26288400Y-103853600D03*
X25628000Y-103853600D03*
X25628000Y-101770800D03*
X26288400Y-101770800D03*
X26948800Y-101770800D03*
%TD*%
D17*
%TO.C,C74*%
X24398100Y-115128800D03*
X24398100Y-117728800D03*
%TD*%
D14*
%TO.C,C79*%
X74854400Y-94631401D03*
X76404400Y-94631401D03*
%TD*%
D18*
%TO.C,R15*%
X128244600Y-49320400D03*
X128244600Y-46220400D03*
%TD*%
D19*
%TO.C,C16*%
X107340400Y-68591750D03*
X107340400Y-70141750D03*
%TD*%
D11*
%TO.C,C18*%
X107340400Y-75983750D03*
X107340400Y-74433750D03*
%TD*%
D20*
%TO.C,R22*%
X105371000Y-71971150D03*
D21*
X105371000Y-73621150D03*
%TD*%
D19*
%TO.C,C20*%
X113157000Y-69683950D03*
X113157000Y-71233950D03*
%TD*%
D14*
%TO.C,C77*%
X80720600Y-96053801D03*
X82270600Y-96053801D03*
%TD*%
D22*
%TO.C,C28*%
X105346800Y-80314150D03*
X103796800Y-80314150D03*
%TD*%
D23*
%TO.C,D3*%
X128540200Y-52037600D03*
D24*
X125320200Y-52037600D03*
%TD*%
D14*
%TO.C,C92*%
X74930600Y-99940001D03*
X76480600Y-99940001D03*
%TD*%
D20*
%TO.C,R12*%
X107352200Y-71437750D03*
D21*
X107352200Y-73087750D03*
%TD*%
D18*
%TO.C,R16*%
X125320200Y-49330300D03*
X125320200Y-46230300D03*
%TD*%
D25*
%TO.C,D14*%
X70042999Y-89066800D03*
X71943001Y-89066800D03*
X70993000Y-91098800D03*
%TD*%
D26*
%TO.C,U4*%
X102637600Y-77225550D03*
X102637600Y-76275550D03*
X102637600Y-75325550D03*
X105337600Y-75325550D03*
X105337600Y-77225550D03*
%TD*%
D14*
%TO.C,C78*%
X86067600Y-96028401D03*
X87617600Y-96028401D03*
%TD*%
D25*
%TO.C,Q3*%
X105344001Y-70255750D03*
X103443999Y-70255750D03*
X104394000Y-68223750D03*
%TD*%
D14*
%TO.C,C87*%
X80644400Y-99914601D03*
X82194400Y-99914601D03*
%TD*%
D18*
%TO.C,R14*%
X105169000Y-62172800D03*
X105169000Y-59072800D03*
%TD*%
D19*
%TO.C,C26*%
X103936800Y-72020750D03*
X103936800Y-73570750D03*
%TD*%
D18*
%TO.C,R11*%
X109868000Y-62172800D03*
X109868000Y-59072800D03*
%TD*%
D27*
%TO.C,R8*%
X113321200Y-80859350D03*
D28*
X111671200Y-80859350D03*
%TD*%
D27*
%TO.C,R62*%
X28168600Y-97794800D03*
D28*
X26518600Y-97794800D03*
%TD*%
D18*
%TO.C,R17*%
X131064000Y-49345800D03*
X131064000Y-46245800D03*
%TD*%
D29*
%TO.C,C8*%
X115798600Y-70935200D03*
X115798600Y-66464800D03*
%TD*%
D30*
%TO.C,U3*%
X112953800Y-78942550D03*
X111683800Y-78942550D03*
X110413800Y-78942550D03*
X109143800Y-78942550D03*
X109143800Y-73494250D03*
X110413800Y-73494250D03*
X111683800Y-73494250D03*
X112953800Y-73494250D03*
%TD*%
D14*
%TO.C,C88*%
X86067600Y-99889201D03*
X87617600Y-99889201D03*
%TD*%
%TO.C,C89*%
X74943000Y-98543001D03*
X76493000Y-98543001D03*
%TD*%
D15*
%TO.C,R20*%
X118338000Y-93642800D03*
X121438000Y-93642800D03*
%TD*%
D27*
%TO.C,R63*%
X28168600Y-92283000D03*
D28*
X26518600Y-92283000D03*
%TD*%
D14*
%TO.C,C84*%
X74854400Y-96079201D03*
X76404400Y-96079201D03*
%TD*%
%TO.C,C90*%
X80644400Y-98517601D03*
X82194400Y-98517601D03*
%TD*%
D20*
%TO.C,R23*%
X102475400Y-71945750D03*
D21*
X102475400Y-73595750D03*
%TD*%
D20*
%TO.C,R59*%
X28485200Y-101886000D03*
D21*
X28485200Y-103536000D03*
%TD*%
D29*
%TO.C,C72*%
X27609800Y-115177800D03*
X27609800Y-119648200D03*
%TD*%
D14*
%TO.C,C82*%
X80695200Y-94606001D03*
X82245200Y-94606001D03*
%TD*%
%TO.C,C91*%
X86067600Y-98492201D03*
X87617600Y-98492201D03*
%TD*%
D20*
%TO.C,R9*%
X107340400Y-77292550D03*
D21*
X107340400Y-78942550D03*
%TD*%
D14*
%TO.C,C83*%
X86067600Y-94580601D03*
X87617600Y-94580601D03*
%TD*%
D31*
%TO.C,R21*%
X101308800Y-69810350D03*
D32*
X101308800Y-68160350D03*
%TD*%
D18*
%TO.C,R13*%
X107594400Y-62172800D03*
X107594400Y-59072800D03*
%TD*%
D15*
%TO.C,R18*%
X145160400Y-96182800D03*
X148260400Y-96182800D03*
%TD*%
D27*
%TO.C,R10*%
X110298600Y-82383350D03*
D28*
X108648600Y-82383350D03*
%TD*%
D19*
%TO.C,C19*%
X111683800Y-69683950D03*
X111683800Y-71233950D03*
%TD*%
D33*
%TO.C,D16*%
X28168600Y-93962799D03*
X28168600Y-95862801D03*
X26136600Y-94912800D03*
%TD*%
D34*
%TO.C,C21*%
X110032800Y-69158050D03*
X110032800Y-71233050D03*
%TD*%
M02*
