%TF.GenerationSoftware,KiCad,Pcbnew,8.0.4*%
%TF.CreationDate,2024-10-06T11:33:23+07:00*%
%TF.ProjectId,PFC & LLC,50464320-2620-44c4-9c43-2e6b69636164,rev?*%
%TF.SameCoordinates,Original*%
%TF.FileFunction,Paste,Top*%
%TF.FilePolarity,Positive*%
%FSLAX46Y46*%
G04 Gerber Fmt 4.6, Leading zero omitted, Abs format (unit mm)*
G04 Created by KiCad (PCBNEW 8.0.4) date 2024-10-06 11:33:23*
%MOMM*%
%LPD*%
G01*
G04 APERTURE LIST*
G04 Aperture macros list*
%AMRoundRect*
0 Rectangle with rounded corners*
0 $1 Rounding radius*
0 $2 $3 $4 $5 $6 $7 $8 $9 X,Y pos of 4 corners*
0 Add a 4 corners polygon primitive as box body*
4,1,4,$2,$3,$4,$5,$6,$7,$8,$9,$2,$3,0*
0 Add four circle primitives for the rounded corners*
1,1,$1+$1,$2,$3*
1,1,$1+$1,$4,$5*
1,1,$1+$1,$6,$7*
1,1,$1+$1,$8,$9*
0 Add four rect primitives between the rounded corners*
20,1,$1+$1,$2,$3,$4,$5,0*
20,1,$1+$1,$4,$5,$6,$7,0*
20,1,$1+$1,$6,$7,$8,$9,0*
20,1,$1+$1,$8,$9,$2,$3,0*%
G04 Aperture macros list end*
%ADD10RoundRect,0.228383X0.445817X-0.308317X0.445817X0.308317X-0.445817X0.308317X-0.445817X-0.308317X0*%
%ADD11RoundRect,0.199600X0.224600X-0.199600X0.224600X0.199600X-0.224600X0.199600X-0.224600X-0.199600X0*%
%ADD12R,1.598400X1.398400*%
%ADD13RoundRect,0.199600X-0.199600X-0.224600X0.199600X-0.224600X0.199600X0.224600X-0.199600X0.224600X0*%
%ADD14R,1.066800X0.431800*%
%ADD15RoundRect,0.199600X-0.224600X0.199600X-0.224600X-0.199600X0.224600X-0.199600X0.224600X0.199600X0*%
%ADD16RoundRect,0.199600X0.199600X0.224600X-0.199600X0.224600X-0.199600X-0.224600X0.199600X-0.224600X0*%
%ADD17RoundRect,0.170600X0.244100X-0.170600X0.244100X0.170600X-0.244100X0.170600X-0.244100X-0.170600X0*%
%ADD18RoundRect,0.174600X0.249600X-0.174600X0.249600X0.174600X-0.249600X0.174600X-0.249600X-0.174600X0*%
%ADD19RoundRect,0.109600X-0.109600X-0.159600X0.109600X-0.159600X0.109600X0.159600X-0.109600X0.159600X0*%
%ADD20RoundRect,0.218350X-0.430850X0.218350X-0.430850X-0.218350X0.430850X-0.218350X0.430850X0.218350X0*%
%ADD21RoundRect,0.170600X-0.170600X-0.244100X0.170600X-0.244100X0.170600X0.244100X-0.170600X0.244100X0*%
%ADD22RoundRect,0.174600X-0.174600X-0.249600X0.174600X-0.249600X0.174600X0.249600X-0.174600X0.249600X0*%
%ADD23R,1.600200X0.457200*%
%ADD24R,3.408400X1.468400*%
%ADD25RoundRect,0.235889X0.613311X-0.963311X0.613311X0.963311X-0.613311X0.963311X-0.613311X-0.963311X0*%
%ADD26RoundRect,0.207128X0.402072X-0.647072X0.402072X0.647072X-0.402072X0.647072X-0.402072X-0.647072X0*%
%ADD27RoundRect,0.170600X-0.244100X0.170600X-0.244100X-0.170600X0.244100X-0.170600X0.244100X0.170600X0*%
%ADD28RoundRect,0.174600X-0.249600X0.174600X-0.249600X-0.174600X0.249600X-0.174600X0.249600X0.174600X0*%
%ADD29RoundRect,0.207128X-0.402072X0.647072X-0.402072X-0.647072X0.402072X-0.647072X0.402072X0.647072X0*%
%ADD30RoundRect,0.170600X0.170600X0.244100X-0.170600X0.244100X-0.170600X-0.244100X0.170600X-0.244100X0*%
%ADD31RoundRect,0.174600X0.174600X0.249600X-0.174600X0.249600X-0.174600X-0.249600X0.174600X-0.249600X0*%
%ADD32RoundRect,0.193350X0.193350X0.355850X-0.193350X0.355850X-0.193350X-0.355850X0.193350X-0.355850X0*%
%ADD33R,1.398400X2.648400*%
%ADD34RoundRect,0.230462X-0.368738X-0.593738X0.368738X-0.593738X0.368738X0.593738X-0.368738X0.593738X0*%
%ADD35R,1.298400X1.098400*%
%ADD36R,1.358900X0.431800*%
%ADD37R,0.431800X1.358900*%
%ADD38R,1.371600X0.177800*%
%ADD39R,0.177800X1.371600*%
%ADD40RoundRect,0.235889X0.963311X0.613311X-0.963311X0.613311X-0.963311X-0.613311X0.963311X-0.613311X0*%
%ADD41R,0.431800X1.066800*%
%ADD42RoundRect,0.049600X-0.624600X-0.049600X0.624600X-0.049600X0.624600X0.049600X-0.624600X0.049600X0*%
G04 APERTURE END LIST*
D10*
%TO.C,C35*%
X137337800Y-99908800D03*
X137337800Y-97833800D03*
%TD*%
D11*
%TO.C,C37*%
X42595800Y-142500000D03*
X42595800Y-140950000D03*
%TD*%
D12*
%TO.C,RESET*%
X91972400Y-95638800D03*
X91972400Y-99038800D03*
%TD*%
D13*
%TO.C,C95*%
X38169550Y-107993800D03*
X39719550Y-107993800D03*
%TD*%
D14*
%TO.C,Q6*%
X82105200Y-98250401D03*
X82105200Y-96350399D03*
X80073200Y-97300400D03*
%TD*%
D15*
%TO.C,C58*%
X69951600Y-123982800D03*
X69951600Y-125532800D03*
%TD*%
D16*
%TO.C,C63*%
X65570400Y-101974000D03*
X64020400Y-101974000D03*
%TD*%
D17*
%TO.C,R27*%
X144756400Y-121379600D03*
D18*
X144756400Y-119729600D03*
%TD*%
D11*
%TO.C,C99*%
X89636600Y-92716000D03*
X89636600Y-91166000D03*
%TD*%
D19*
%TO.C,R57*%
X79627000Y-86477399D03*
X80647000Y-86477399D03*
%TD*%
D11*
%TO.C,C100*%
X91052200Y-92716000D03*
X91052200Y-91166000D03*
%TD*%
%TO.C,C55*%
X60858400Y-131628800D03*
X60858400Y-130078800D03*
%TD*%
D16*
%TO.C,C67*%
X62674800Y-106952400D03*
X61124800Y-106952400D03*
%TD*%
D15*
%TO.C,C30*%
X124346600Y-97211200D03*
X124346600Y-98761200D03*
%TD*%
D20*
%TO.C,D13*%
X81164915Y-72944100D03*
X81164915Y-74819100D03*
%TD*%
D11*
%TO.C,C98*%
X80340200Y-90222800D03*
X80340200Y-88672800D03*
%TD*%
D21*
%TO.C,R1*%
X41515400Y-91943000D03*
D22*
X43165400Y-91943000D03*
%TD*%
D11*
%TO.C,C45*%
X59031100Y-147201450D03*
X59031100Y-145651450D03*
%TD*%
%TO.C,C56*%
X64109600Y-131628800D03*
X64109600Y-130078800D03*
%TD*%
D21*
%TO.C,R46*%
X74791200Y-94645200D03*
D22*
X76441200Y-94645200D03*
%TD*%
D17*
%TO.C,R42*%
X94423600Y-96423200D03*
D18*
X94423600Y-94773200D03*
%TD*%
D23*
%TO.C,U6*%
X44527700Y-140958800D03*
X44527700Y-142228800D03*
X44527700Y-143498800D03*
X44527700Y-144768800D03*
X55297300Y-144768800D03*
X55297300Y-143498800D03*
X55297300Y-142228800D03*
X55297300Y-140958800D03*
%TD*%
D24*
%TO.C,C22*%
X140893800Y-41151400D03*
X140893800Y-37117400D03*
%TD*%
D21*
%TO.C,R56*%
X44044500Y-98912400D03*
D22*
X45694500Y-98912400D03*
%TD*%
D11*
%TO.C,C76*%
X94437200Y-99256800D03*
X94437200Y-97706800D03*
%TD*%
D17*
%TO.C,R29*%
X124344800Y-104868600D03*
D18*
X124344800Y-103218600D03*
%TD*%
D25*
%TO.C,D1*%
X45991200Y-75309800D03*
X45991200Y-79309800D03*
%TD*%
D26*
%TO.C,C62*%
X38850700Y-123964400D03*
X38850700Y-121364400D03*
%TD*%
D27*
%TO.C,R28*%
X124346600Y-100298600D03*
D28*
X124346600Y-101948600D03*
%TD*%
D26*
%TO.C,C75*%
X38749100Y-118401800D03*
X38749100Y-115801800D03*
%TD*%
D21*
%TO.C,R31*%
X53099600Y-135209000D03*
D22*
X54749600Y-135209000D03*
%TD*%
D15*
%TO.C,C52*%
X50114200Y-133659000D03*
X50114200Y-135209000D03*
%TD*%
D11*
%TO.C,C51*%
X69951600Y-128504600D03*
X69951600Y-126954600D03*
%TD*%
D29*
%TO.C,C66*%
X36257100Y-131943600D03*
X36257100Y-134543600D03*
%TD*%
D16*
%TO.C,C104*%
X93988400Y-87682800D03*
X92438400Y-87682800D03*
%TD*%
D15*
%TO.C,C93*%
X80391000Y-78961000D03*
X80391000Y-80511000D03*
%TD*%
D30*
%TO.C,R3*%
X65899400Y-75724000D03*
D31*
X64249400Y-75724000D03*
%TD*%
D13*
%TO.C,C39*%
X53811100Y-138835800D03*
X55361100Y-138835800D03*
%TD*%
D14*
%TO.C,Q9*%
X49473150Y-104244801D03*
X49473150Y-102344799D03*
X47441150Y-103294800D03*
%TD*%
D13*
%TO.C,C4*%
X60540600Y-89985200D03*
X62090600Y-89985200D03*
%TD*%
%TO.C,C40*%
X53811100Y-137339600D03*
X55361100Y-137339600D03*
%TD*%
D20*
%TO.C,D10*%
X90500200Y-72944100D03*
X90500200Y-74819100D03*
%TD*%
D32*
%TO.C,FB2*%
X96795100Y-82517600D03*
X94670100Y-82517600D03*
%TD*%
D26*
%TO.C,C73*%
X36183700Y-118401800D03*
X36183700Y-115801800D03*
%TD*%
D16*
%TO.C,C48*%
X57773000Y-132098400D03*
X56223000Y-132098400D03*
%TD*%
D11*
%TO.C,C34*%
X135534400Y-99383800D03*
X135534400Y-97833800D03*
%TD*%
D33*
%TO.C,U1*%
X45991200Y-91948600D03*
X48531200Y-91948600D03*
X48531200Y-84078600D03*
X45991200Y-84078600D03*
%TD*%
D34*
%TO.C,R33*%
X50673300Y-148959800D03*
X53773300Y-148959800D03*
%TD*%
D21*
%TO.C,R55*%
X44000350Y-106507000D03*
D22*
X45650350Y-106507000D03*
%TD*%
D20*
%TO.C,D11*%
X88453143Y-72944100D03*
X88453143Y-74819100D03*
%TD*%
D32*
%TO.C,FB1*%
X41118300Y-141013800D03*
X38993300Y-141013800D03*
%TD*%
D11*
%TO.C,C42*%
X35814000Y-142563800D03*
X35814000Y-141013800D03*
%TD*%
D15*
%TO.C,C94*%
X81940400Y-78961000D03*
X81940400Y-80511000D03*
%TD*%
D21*
%TO.C,R35*%
X53099600Y-133634200D03*
D22*
X54749600Y-133634200D03*
%TD*%
D21*
%TO.C,R44*%
X80620200Y-94619800D03*
D22*
X82270200Y-94619800D03*
%TD*%
D27*
%TO.C,R51*%
X51174950Y-103676800D03*
D28*
X51174950Y-105326800D03*
%TD*%
D30*
%TO.C,R5*%
X61963200Y-80116400D03*
D31*
X60313200Y-80116400D03*
%TD*%
D15*
%TO.C,C31*%
X126282450Y-97211200D03*
X126282450Y-98761200D03*
%TD*%
D30*
%TO.C,R54*%
X42747300Y-98914200D03*
D31*
X41097300Y-98914200D03*
%TD*%
D29*
%TO.C,C65*%
X36257100Y-126685800D03*
X36257100Y-129285800D03*
%TD*%
D13*
%TO.C,C49*%
X53199600Y-132098400D03*
X54749600Y-132098400D03*
%TD*%
D29*
%TO.C,C68*%
X38822500Y-126711200D03*
X38822500Y-129311200D03*
%TD*%
D13*
%TO.C,C103*%
X38055250Y-98951400D03*
X39605250Y-98951400D03*
%TD*%
D15*
%TO.C,C50*%
X51612800Y-133659000D03*
X51612800Y-135209000D03*
%TD*%
D30*
%TO.C,R30*%
X57873000Y-135210800D03*
D31*
X56223000Y-135210800D03*
%TD*%
D17*
%TO.C,R26*%
X144703800Y-108705000D03*
D18*
X144703800Y-107055000D03*
%TD*%
D34*
%TO.C,R34*%
X44527100Y-148959800D03*
X47627100Y-148959800D03*
%TD*%
D11*
%TO.C,C64*%
X59410600Y-106533600D03*
X59410600Y-104983600D03*
%TD*%
D21*
%TO.C,R2*%
X60313200Y-75724000D03*
D22*
X61963200Y-75724000D03*
%TD*%
D30*
%TO.C,R53*%
X42742150Y-106508800D03*
D31*
X41092150Y-106508800D03*
%TD*%
D35*
%TO.C,Y1*%
X97088600Y-91431200D03*
X99288600Y-91431200D03*
X99288600Y-89731200D03*
X97088600Y-89731200D03*
%TD*%
D21*
%TO.C,R48*%
X85992600Y-99903000D03*
D22*
X87642600Y-99903000D03*
%TD*%
D16*
%TO.C,C102*%
X93988400Y-89132800D03*
X92438400Y-89132800D03*
%TD*%
D17*
%TO.C,R4*%
X49316599Y-80953800D03*
D18*
X49316599Y-79303800D03*
%TD*%
D13*
%TO.C,C81*%
X96465200Y-88063000D03*
X98015200Y-88063000D03*
%TD*%
D21*
%TO.C,R49*%
X74892800Y-99953800D03*
D22*
X76542800Y-99953800D03*
%TD*%
D27*
%TO.C,R40*%
X79342858Y-72944100D03*
D28*
X79342858Y-74594100D03*
%TD*%
D20*
%TO.C,D12*%
X84809029Y-72944100D03*
X84809029Y-74819100D03*
%TD*%
D21*
%TO.C,R47*%
X80569400Y-99928400D03*
D22*
X82219400Y-99928400D03*
%TD*%
D13*
%TO.C,C97*%
X38169550Y-106495200D03*
X39719550Y-106495200D03*
%TD*%
D11*
%TO.C,C96*%
X81762600Y-90222800D03*
X81762600Y-88672800D03*
%TD*%
D14*
%TO.C,Q7*%
X87528400Y-98225001D03*
X87528400Y-96324999D03*
X85496400Y-97275000D03*
%TD*%
%TO.C,Q8*%
X76200000Y-98275801D03*
X76200000Y-96375799D03*
X74168000Y-97325800D03*
%TD*%
D36*
%TO.C,U12*%
X45167550Y-104590200D03*
X45167550Y-103320200D03*
X45167550Y-102050200D03*
X45167550Y-100780200D03*
X39719250Y-100780200D03*
X39719250Y-102050200D03*
X39719250Y-103320200D03*
X39719250Y-104590200D03*
%TD*%
D37*
%TO.C,U8*%
X53619400Y-130072750D03*
X54889400Y-130072750D03*
X56159400Y-130072750D03*
X57429400Y-130072750D03*
X57429400Y-124624450D03*
X56159400Y-124624450D03*
X54889400Y-124624450D03*
X53619400Y-124624450D03*
%TD*%
D17*
%TO.C,R50*%
X51186750Y-102393000D03*
D18*
X51186750Y-100743000D03*
%TD*%
D11*
%TO.C,C6*%
X59207400Y-84029200D03*
X59207400Y-82479200D03*
%TD*%
%TO.C,C46*%
X57874500Y-143689600D03*
X57874500Y-142139600D03*
%TD*%
D27*
%TO.C,R60*%
X37705400Y-103320200D03*
D28*
X37705400Y-104970200D03*
%TD*%
D27*
%TO.C,R25*%
X144705600Y-114649600D03*
D28*
X144705600Y-116299600D03*
%TD*%
D17*
%TO.C,R36*%
X35776500Y-151105200D03*
D18*
X35776500Y-149455200D03*
%TD*%
D16*
%TO.C,C47*%
X66346900Y-143829000D03*
X64796900Y-143829000D03*
%TD*%
D15*
%TO.C,C57*%
X51841400Y-124567000D03*
X51841400Y-126117000D03*
%TD*%
D17*
%TO.C,R61*%
X37705400Y-102050200D03*
D18*
X37705400Y-100400200D03*
%TD*%
D38*
%TO.C,U11*%
X90652600Y-87477400D03*
X90652600Y-86977401D03*
X90652600Y-86477399D03*
X90652600Y-85977400D03*
X90652600Y-85477401D03*
X90652600Y-84977400D03*
X90652600Y-84477400D03*
X90652600Y-83977399D03*
X90652600Y-83477400D03*
X90652600Y-82977401D03*
X90652600Y-82477399D03*
X90652600Y-81977400D03*
D39*
X89186200Y-80511000D03*
X88686201Y-80511000D03*
X88186199Y-80511000D03*
X87686200Y-80511000D03*
X87186201Y-80511000D03*
X86686200Y-80511000D03*
X86186200Y-80511000D03*
X85686199Y-80511000D03*
X85186200Y-80511000D03*
X84686201Y-80511000D03*
X84186199Y-80511000D03*
X83686200Y-80511000D03*
D38*
X82219800Y-81977400D03*
X82219800Y-82477399D03*
X82219800Y-82977401D03*
X82219800Y-83477400D03*
X82219800Y-83977399D03*
X82219800Y-84477400D03*
X82219800Y-84977400D03*
X82219800Y-85477401D03*
X82219800Y-85977400D03*
X82219800Y-86477399D03*
X82219800Y-86977401D03*
X82219800Y-87477400D03*
D39*
X83686200Y-88943800D03*
X84186199Y-88943800D03*
X84686201Y-88943800D03*
X85186200Y-88943800D03*
X85686199Y-88943800D03*
X86186200Y-88943800D03*
X86686200Y-88943800D03*
X87186201Y-88943800D03*
X87686200Y-88943800D03*
X88186199Y-88943800D03*
X88686201Y-88943800D03*
X89186200Y-88943800D03*
%TD*%
D26*
%TO.C,C61*%
X36259900Y-123888200D03*
X36259900Y-121288200D03*
%TD*%
D36*
%TO.C,U5*%
X126282450Y-100678600D03*
X126282450Y-101948600D03*
X126282450Y-103218600D03*
X126282450Y-104488600D03*
X131730750Y-104488600D03*
X131730750Y-103218600D03*
X131730750Y-101948600D03*
X131730750Y-100678600D03*
%TD*%
D11*
%TO.C,C10*%
X57734200Y-84054600D03*
X57734200Y-82504600D03*
%TD*%
D17*
%TO.C,R41*%
X87718000Y-92740200D03*
D18*
X87718000Y-91090200D03*
%TD*%
D21*
%TO.C,R43*%
X99438200Y-88074800D03*
D22*
X101088200Y-88074800D03*
%TD*%
D21*
%TO.C,R45*%
X86018000Y-94594400D03*
D22*
X87668000Y-94594400D03*
%TD*%
D37*
%TO.C,U7*%
X62256900Y-151099750D03*
X63526900Y-151099750D03*
X64796900Y-151099750D03*
X66066900Y-151099750D03*
X66066900Y-145651450D03*
X64796900Y-145651450D03*
X63526900Y-145651450D03*
X62256900Y-145651450D03*
%TD*%
D13*
%TO.C,C101*%
X38055250Y-97452800D03*
X39605250Y-97452800D03*
%TD*%
D11*
%TO.C,C86*%
X93116400Y-84067600D03*
X93116400Y-82517600D03*
%TD*%
%TO.C,C43*%
X37415700Y-142563800D03*
X37415700Y-141013800D03*
%TD*%
D16*
%TO.C,C69*%
X65570400Y-100475400D03*
X64020400Y-100475400D03*
%TD*%
D30*
%TO.C,R52*%
X49053150Y-100743000D03*
D31*
X47403150Y-100743000D03*
%TD*%
D11*
%TO.C,C53*%
X59436000Y-131628800D03*
X59436000Y-130078800D03*
%TD*%
D19*
%TO.C,R58*%
X82666200Y-91454400D03*
X83686200Y-91454400D03*
%TD*%
D16*
%TO.C,C2*%
X61963200Y-77869400D03*
X60413200Y-77869400D03*
%TD*%
D21*
%TO.C,R6*%
X64249400Y-80116400D03*
D22*
X65899400Y-80116400D03*
%TD*%
D11*
%TO.C,C44*%
X60478900Y-147201450D03*
X60478900Y-145651450D03*
%TD*%
D13*
%TO.C,C3*%
X64249400Y-77869400D03*
X65799400Y-77869400D03*
%TD*%
D40*
%TO.C,D6*%
X129013200Y-97833800D03*
X133013200Y-97833800D03*
%TD*%
D11*
%TO.C,C54*%
X62655450Y-131628800D03*
X62655450Y-130078800D03*
%TD*%
D15*
%TO.C,C59*%
X50368200Y-124567000D03*
X50368200Y-126117000D03*
%TD*%
D30*
%TO.C,R32*%
X57873000Y-133610600D03*
D31*
X56223000Y-133610600D03*
%TD*%
D27*
%TO.C,R39*%
X82986972Y-72944100D03*
D28*
X82986972Y-74594100D03*
%TD*%
D16*
%TO.C,C11*%
X65138600Y-91407600D03*
X63588600Y-91407600D03*
%TD*%
D15*
%TO.C,C80*%
X101075600Y-89701000D03*
X101075600Y-91251000D03*
%TD*%
D36*
%TO.C,U9*%
X62655450Y-124351400D03*
X62655450Y-125621400D03*
X62655450Y-126891400D03*
X62655450Y-128161400D03*
X68103750Y-128161400D03*
X68103750Y-126891400D03*
X68103750Y-125621400D03*
X68103750Y-124351400D03*
%TD*%
D13*
%TO.C,C71*%
X64096600Y-106952400D03*
X65646600Y-106952400D03*
%TD*%
D37*
%TO.C,U2*%
X64770000Y-82460450D03*
X63500000Y-82460450D03*
X62230000Y-82460450D03*
X60960000Y-82460450D03*
X60960000Y-87908750D03*
X62230000Y-87908750D03*
X63500000Y-87908750D03*
X64770000Y-87908750D03*
%TD*%
D27*
%TO.C,R24*%
X144705600Y-101975000D03*
D28*
X144705600Y-103625000D03*
%TD*%
D27*
%TO.C,R38*%
X86631086Y-72944100D03*
D28*
X86631086Y-74594100D03*
%TD*%
D29*
%TO.C,C70*%
X38822500Y-131943600D03*
X38822500Y-134543600D03*
%TD*%
D16*
%TO.C,C7*%
X65138600Y-89985200D03*
X63588600Y-89985200D03*
%TD*%
D27*
%TO.C,R37*%
X92322258Y-72944100D03*
D28*
X92322258Y-74594100D03*
%TD*%
D41*
%TO.C,Q1*%
X49316599Y-77310600D03*
X51216601Y-77310600D03*
X50266600Y-75278600D03*
%TD*%
D11*
%TO.C,C85*%
X98323400Y-84067600D03*
X98323400Y-82517600D03*
%TD*%
D15*
%TO.C,C60*%
X71348600Y-123957400D03*
X71348600Y-125507400D03*
%TD*%
D42*
%TO.C,U10*%
X61274600Y-103463200D03*
X61274600Y-103963200D03*
X61274600Y-104463200D03*
X61274600Y-104963200D03*
X61274600Y-105463200D03*
X65674600Y-105463200D03*
X65674600Y-104963200D03*
X65674600Y-104463200D03*
X65674600Y-103963200D03*
X65674600Y-103463200D03*
%TD*%
M02*
