%TF.GenerationSoftware,KiCad,Pcbnew,8.0.4*%
%TF.CreationDate,2024-10-07T11:50:48+07:00*%
%TF.ProjectId,PFC & LLC,50464320-2620-44c4-9c43-2e6b69636164,rev?*%
%TF.SameCoordinates,Original*%
%TF.FileFunction,Plated,1,2,PTH,Drill*%
%TF.FilePolarity,Positive*%
%FSLAX46Y46*%
G04 Gerber Fmt 4.6, Leading zero omitted, Abs format (unit mm)*
G04 Created by KiCad (PCBNEW 8.0.4) date 2024-10-07 11:50:48*
%MOMM*%
%LPD*%
G01*
G04 APERTURE LIST*
%TA.AperFunction,ViaDrill*%
%ADD10C,0.400000*%
%TD*%
%TA.AperFunction,ComponentDrill*%
%ADD11C,0.500000*%
%TD*%
%TA.AperFunction,ComponentDrill*%
%ADD12C,0.700000*%
%TD*%
%TA.AperFunction,ComponentDrill*%
%ADD13C,0.800000*%
%TD*%
%TA.AperFunction,ComponentDrill*%
%ADD14C,0.900000*%
%TD*%
%TA.AperFunction,ComponentDrill*%
%ADD15C,1.000000*%
%TD*%
%TA.AperFunction,ComponentDrill*%
%ADD16C,1.050000*%
%TD*%
%TA.AperFunction,ComponentDrill*%
%ADD17C,1.100000*%
%TD*%
%TA.AperFunction,ComponentDrill*%
%ADD18C,1.117600*%
%TD*%
%TA.AperFunction,ComponentDrill*%
%ADD19C,1.143000*%
%TD*%
%TA.AperFunction,ComponentDrill*%
%ADD20C,1.200000*%
%TD*%
%TA.AperFunction,ComponentDrill*%
%ADD21C,1.250000*%
%TD*%
%TA.AperFunction,ComponentDrill*%
%ADD22C,1.300000*%
%TD*%
%TA.AperFunction,ComponentDrill*%
%ADD23C,1.400000*%
%TD*%
%TA.AperFunction,ComponentDrill*%
%ADD24C,1.600000*%
%TD*%
%TA.AperFunction,ComponentDrill*%
%ADD25C,1.900000*%
%TD*%
%TA.AperFunction,ComponentDrill*%
%ADD26C,3.200000*%
%TD*%
G04 APERTURE END LIST*
D10*
X25704800Y-111778400D03*
X26563400Y-90407800D03*
X34696400Y-128440800D03*
X34696400Y-129710800D03*
X34950400Y-96182800D03*
X34950400Y-97452800D03*
X34950400Y-98722800D03*
X34950400Y-99992800D03*
X34950400Y-101262800D03*
X34950400Y-105072800D03*
X34950400Y-106342800D03*
X34950400Y-107612800D03*
X34950400Y-108882800D03*
X35712400Y-144188800D03*
X35712400Y-145458800D03*
X35788600Y-152418400D03*
X36363400Y-100407800D03*
X36474400Y-96182800D03*
X36474400Y-98722800D03*
X36982400Y-144188800D03*
X36982400Y-145458800D03*
X37973000Y-136416400D03*
X38252400Y-144188800D03*
X38252400Y-145458800D03*
X39522400Y-144188800D03*
X39522400Y-145458800D03*
X39700200Y-109382800D03*
X40792400Y-144188800D03*
X40792400Y-145458800D03*
X41463400Y-131982800D03*
X41513400Y-108232800D03*
X41513400Y-110457800D03*
X41515400Y-95982800D03*
X42062400Y-144188800D03*
X42062400Y-145458800D03*
X42763400Y-118407800D03*
X42788400Y-121357800D03*
X42824400Y-113708800D03*
X42824400Y-114978800D03*
X42824400Y-116248800D03*
X42824400Y-123614800D03*
X42824400Y-124884800D03*
X43992800Y-107816000D03*
X44038400Y-109432800D03*
X44038400Y-126757800D03*
X44043600Y-97630600D03*
X44602400Y-151046800D03*
X44602400Y-152316800D03*
X45110400Y-113708800D03*
X45110400Y-114978800D03*
X45110400Y-116248800D03*
X45110400Y-122344800D03*
X45110400Y-123614800D03*
X45110400Y-124884800D03*
X45161200Y-137871200D03*
X45872400Y-151046800D03*
X45872400Y-152316800D03*
X46380400Y-113708800D03*
X46380400Y-114978800D03*
X46380400Y-116248800D03*
X46380400Y-122344800D03*
X46380400Y-123614800D03*
X46380400Y-124884800D03*
X47142400Y-104387000D03*
X47650400Y-113708800D03*
X47650400Y-114978800D03*
X47650400Y-116248800D03*
X47650400Y-122344800D03*
X47650400Y-123614800D03*
X47650400Y-124884800D03*
X48888400Y-118407800D03*
X48920400Y-112515000D03*
X51188400Y-96007800D03*
X51216601Y-79230799D03*
X51435000Y-81958800D03*
X51612800Y-112489600D03*
X51612800Y-117188600D03*
X51612800Y-120262000D03*
X52437156Y-82004609D03*
X52832000Y-78098000D03*
X53314600Y-97630600D03*
X54076600Y-107816000D03*
X54095600Y-78140400D03*
X55016400Y-110660800D03*
X55016400Y-111930800D03*
X55016400Y-113200800D03*
X55270400Y-88816800D03*
X55270400Y-90086800D03*
X55270400Y-91356800D03*
X56238400Y-121357800D03*
X56763400Y-137332800D03*
X57556400Y-88816800D03*
X57556400Y-90086800D03*
X57556400Y-91356800D03*
X57588400Y-92582800D03*
X57588400Y-118407800D03*
X58089800Y-74948400D03*
X58089800Y-78218600D03*
X59038400Y-144332800D03*
X59080400Y-88816800D03*
X59080400Y-90086800D03*
X59080400Y-91356800D03*
X59105800Y-97319400D03*
X59588400Y-110660800D03*
X59588400Y-111930800D03*
X59588400Y-113200800D03*
X60096400Y-100500800D03*
X60096400Y-101770800D03*
X60838400Y-128582800D03*
X61188600Y-117239400D03*
X61366400Y-93896800D03*
X61366400Y-98722800D03*
X61366400Y-100500800D03*
X61366400Y-101770800D03*
X62563400Y-100932800D03*
X62636400Y-93896800D03*
X62636400Y-98722800D03*
X63525400Y-141953600D03*
X63588400Y-92582800D03*
X63906400Y-93896800D03*
X63906400Y-98722800D03*
X65176400Y-93896800D03*
X65176400Y-98722800D03*
X65633600Y-115563000D03*
X66446400Y-91356800D03*
X66446400Y-93896800D03*
X66446400Y-98722800D03*
X68497000Y-87349200D03*
X68513400Y-101307800D03*
X70188400Y-93507800D03*
X70212246Y-82552927D03*
X71213400Y-82616995D03*
X71263400Y-93557800D03*
X72237600Y-97325800D03*
X73288400Y-118407800D03*
X74422000Y-117315600D03*
X75819000Y-115563000D03*
X75819000Y-141928200D03*
X76606400Y-75862800D03*
X76606400Y-78910800D03*
X77749400Y-94633400D03*
X77790180Y-83940000D03*
X77800200Y-81349200D03*
X77800200Y-99942000D03*
X77813400Y-102532800D03*
X77851000Y-75862800D03*
X77851000Y-82771600D03*
X77852151Y-80342917D03*
X77876400Y-78910800D03*
X77876400Y-89070800D03*
X78988400Y-79982800D03*
X79013400Y-88707800D03*
X79146400Y-78910800D03*
X79342858Y-75862800D03*
X79986700Y-83232800D03*
X82986972Y-75862800D03*
X83489800Y-94608000D03*
X83489800Y-99916600D03*
X83489800Y-102507800D03*
X86588600Y-75862800D03*
X87198200Y-78421800D03*
X88900000Y-94608000D03*
X88976200Y-99891200D03*
X88976200Y-102532800D03*
X89865200Y-77488400D03*
X91008200Y-76345400D03*
X92354400Y-75862800D03*
X92413400Y-91132800D03*
X93726000Y-76243800D03*
X93954600Y-92703000D03*
X93988400Y-90450800D03*
X95402400Y-91864800D03*
X95656400Y-107104800D03*
X95808800Y-99205400D03*
X95808800Y-110864000D03*
X95910400Y-95674800D03*
X96418400Y-92880800D03*
X97180400Y-107104800D03*
X97332800Y-110864000D03*
X97942400Y-92880800D03*
X98015200Y-86784800D03*
X98323400Y-79901400D03*
X98704400Y-107104800D03*
X98856800Y-110864000D03*
X99288600Y-92880800D03*
X99415600Y-65144000D03*
X99525200Y-74948400D03*
X100228400Y-107104800D03*
X100380800Y-110864000D03*
X100514200Y-82383350D03*
X100736400Y-86784800D03*
X100736400Y-92880800D03*
X101371400Y-84346400D03*
X101752400Y-66718800D03*
X101752400Y-107104800D03*
X101904800Y-110864000D03*
X102387400Y-78656800D03*
X102438200Y-81171400D03*
X103505000Y-93642800D03*
X104438400Y-103207800D03*
X105181400Y-101948600D03*
X106713400Y-80307800D03*
X106713400Y-104532800D03*
X115763400Y-73357800D03*
X116566800Y-98761200D03*
X122580400Y-96182800D03*
X122580400Y-97452800D03*
X122580400Y-99738800D03*
X122834400Y-105072800D03*
X122936000Y-101948600D03*
X122936000Y-103218600D03*
X131953000Y-51199400D03*
X133908800Y-103218600D03*
X136169400Y-103218600D03*
X138303000Y-103218600D03*
X139090400Y-99916600D03*
X139598400Y-43604800D03*
X139598400Y-44620800D03*
X140309600Y-99916600D03*
X140741400Y-103218600D03*
X140868400Y-43604800D03*
X140868400Y-44620800D03*
X142138400Y-43604800D03*
X142138400Y-44620800D03*
X143408400Y-88740600D03*
X143916400Y-87623000D03*
X143916400Y-90086800D03*
X145465800Y-87038800D03*
X145507580Y-90594800D03*
X146202400Y-121328800D03*
X146710400Y-122344800D03*
X146786600Y-120211200D03*
X146964400Y-87546800D03*
X146964400Y-90086800D03*
X147472400Y-88740600D03*
X147980400Y-123106800D03*
X148031200Y-119703200D03*
X149250400Y-120312800D03*
X149250400Y-122344800D03*
X149758400Y-121328800D03*
X158521400Y-117849000D03*
D11*
%TO.C,H1*%
X24625600Y-34841800D03*
X25328544Y-33144744D03*
X25328544Y-36538856D03*
X27025600Y-32441800D03*
X27025600Y-37241800D03*
X28722656Y-33144744D03*
X28722656Y-36538856D03*
X29425600Y-34841800D03*
%TO.C,H3*%
X153276600Y-35172000D03*
%TO.C,H2*%
X153962400Y-155110800D03*
%TO.C,H3*%
X153979544Y-33474944D03*
X153979544Y-36869056D03*
%TO.C,H2*%
X154665344Y-153413744D03*
X154665344Y-156807856D03*
%TO.C,H3*%
X155676600Y-32772000D03*
X155676600Y-37572000D03*
%TO.C,H2*%
X156362400Y-152710800D03*
X156362400Y-157510800D03*
%TO.C,H3*%
X157373656Y-33474944D03*
X157373656Y-36869056D03*
%TO.C,H2*%
X158059456Y-153413744D03*
X158059456Y-156807856D03*
%TO.C,H3*%
X158076600Y-35172000D03*
%TO.C,H2*%
X158762400Y-155110800D03*
D12*
%TO.C,VACIN*%
X59842400Y-95420800D03*
%TO.C,VoltageLLC*%
X61153800Y-115156600D03*
%TO.C,VACIN*%
X61842400Y-95420800D03*
%TO.C,VoltageLLC*%
X63153800Y-115156600D03*
%TO.C,CurrentACS*%
X65659000Y-112184800D03*
X67659000Y-112184800D03*
%TO.C,PWM1*%
X144705600Y-99459400D03*
%TO.C,PWM2*%
X144705600Y-112489600D03*
%TO.C,PWM1*%
X146705600Y-99459400D03*
%TO.C,PWM2*%
X146705600Y-112489600D03*
D13*
%TO.C,C5*%
X80670400Y-61932800D03*
X80670400Y-66932800D03*
%TO.C,C9*%
X87100400Y-66932800D03*
X92100400Y-66932800D03*
D14*
%TO.C,D9*%
X39981100Y-149493200D03*
X39981100Y-152033200D03*
D15*
%TO.C,K1*%
X39739600Y-75349200D03*
X39739600Y-87349200D03*
%TO.C,F1*%
X43878200Y-43223800D03*
X43903600Y-70122400D03*
%TO.C,C41*%
X73654200Y-149758400D03*
X73654200Y-154758400D03*
%TO.C,J5*%
X74218800Y-83986800D03*
X74218800Y-86526800D03*
X74218800Y-89066800D03*
X74218800Y-91606800D03*
%TO.C,L2*%
X123113800Y-69436600D03*
%TO.C,C36*%
X125165400Y-149250400D03*
X125165400Y-154250400D03*
%TO.C,L2*%
X135813800Y-69436600D03*
%TO.C,C38*%
X137185400Y-149504400D03*
X137185400Y-154504400D03*
D16*
%TO.C,TH1*%
X92100400Y-52393200D03*
X92100400Y-59893200D03*
D17*
%TO.C,RV1*%
X50761600Y-64186100D03*
X50761600Y-69186100D03*
%TO.C,Q2*%
X132105400Y-41903000D03*
X134645400Y-41903000D03*
X137185400Y-41903000D03*
%TO.C,Q4*%
X148007580Y-103625000D03*
X148007580Y-108705000D03*
%TO.C,Q5*%
X148007580Y-116299600D03*
X148007580Y-121379600D03*
%TO.C,Q4*%
X153007580Y-106165000D03*
%TO.C,Q5*%
X153007580Y-118839600D03*
D18*
%TO.C,D5*%
X120853200Y-41627600D03*
X125933200Y-41627600D03*
%TO.C,D8*%
X145656300Y-131412600D03*
X145656300Y-136492600D03*
%TO.C,D7*%
X145656300Y-143223600D03*
X145656300Y-148303600D03*
D19*
%TO.C,L1*%
X59283600Y-36797600D03*
X59283600Y-57117600D03*
X69443600Y-36797600D03*
X69443600Y-57117600D03*
D20*
%TO.C,J3*%
X31723100Y-115131200D03*
X31723100Y-118941200D03*
X31723100Y-122751200D03*
X31723100Y-126561200D03*
X31723100Y-130371200D03*
X31723100Y-134181200D03*
%TO.C,J4*%
X31724600Y-141013800D03*
X31724600Y-144823800D03*
%TO.C,J2*%
X31724600Y-151580200D03*
X31724600Y-155390200D03*
%TO.C,J6*%
X31735800Y-93164400D03*
X31735800Y-96974400D03*
X31735800Y-100784400D03*
X31735800Y-104594400D03*
X31735800Y-108404400D03*
%TO.C,R7*%
X50695700Y-45665100D03*
X50695700Y-58365100D03*
%TO.C,C1*%
X56729800Y-69186100D03*
X71729600Y-69186100D03*
%TO.C,C12*%
X80686300Y-43966800D03*
X80686300Y-58966600D03*
%TO.C,C17*%
X97907600Y-59072800D03*
X112907400Y-59072800D03*
%TO.C,C33*%
X128761600Y-107766700D03*
X128761600Y-117766500D03*
%TO.C,C32*%
X138134200Y-107766700D03*
X138134200Y-117766500D03*
%TO.C,C23*%
X145507580Y-48481600D03*
%TO.C,C24*%
X145507580Y-68661900D03*
%TO.C,C25*%
X145507580Y-88842200D03*
%TO.C,C23*%
X153007580Y-48481600D03*
%TO.C,C24*%
X153007580Y-68661900D03*
%TO.C,C25*%
X153007580Y-88842200D03*
D21*
%TO.C,L3*%
X81943800Y-108912600D03*
X81943800Y-143912600D03*
X86943800Y-108912600D03*
X86943800Y-143912600D03*
X91943800Y-108912600D03*
X91943800Y-143912600D03*
X96943800Y-108912600D03*
X96943800Y-143912600D03*
X101943800Y-108912600D03*
X101943800Y-143912600D03*
X106943800Y-108912600D03*
X106943800Y-143912600D03*
X111943800Y-108912600D03*
X111943800Y-143912600D03*
X116943800Y-108912600D03*
X116943800Y-143912600D03*
D22*
%TO.C,K1*%
X27489600Y-87399200D03*
X27539600Y-75349200D03*
X41689600Y-81399200D03*
D23*
%TO.C,D2*%
X92799900Y-43953000D03*
X97879900Y-43953000D03*
X102959900Y-43953000D03*
X108039900Y-43953000D03*
D24*
%TO.C,D4*%
X97920000Y-50310400D03*
X117980000Y-50310400D03*
D25*
%TO.C,J1*%
X35610200Y-47516002D03*
X35610200Y-57016000D03*
X35610200Y-66515999D03*
D26*
%TO.C,H1*%
X27025600Y-34841800D03*
%TO.C,H3*%
X155676600Y-35172000D03*
%TO.C,H2*%
X156362400Y-155110800D03*
M02*
