%TF.GenerationSoftware,KiCad,Pcbnew,8.0.4*%
%TF.CreationDate,2024-10-07T12:15:03+07:00*%
%TF.ProjectId,BATTERY_CONVERTER,42415454-4552-4595-9f43-4f4e56455254,rev?*%
%TF.SameCoordinates,Original*%
%TF.FileFunction,Soldermask,Bot*%
%TF.FilePolarity,Negative*%
%FSLAX46Y46*%
G04 Gerber Fmt 4.6, Leading zero omitted, Abs format (unit mm)*
G04 Created by KiCad (PCBNEW 8.0.4) date 2024-10-07 12:15:03*
%MOMM*%
%LPD*%
G01*
G04 APERTURE LIST*
G04 Aperture macros list*
%AMRoundRect*
0 Rectangle with rounded corners*
0 $1 Rounding radius*
0 $2 $3 $4 $5 $6 $7 $8 $9 X,Y pos of 4 corners*
0 Add a 4 corners polygon primitive as box body*
4,1,4,$2,$3,$4,$5,$6,$7,$8,$9,$2,$3,0*
0 Add four circle primitives for the rounded corners*
1,1,$1+$1,$2,$3*
1,1,$1+$1,$4,$5*
1,1,$1+$1,$6,$7*
1,1,$1+$1,$8,$9*
0 Add four rect primitives between the rounded corners*
20,1,$1+$1,$2,$3,$4,$5,0*
20,1,$1+$1,$4,$5,$6,$7,0*
20,1,$1+$1,$6,$7,$8,$9,0*
20,1,$1+$1,$8,$9,$2,$3,0*%
G04 Aperture macros list end*
%ADD10C,0.800000*%
%ADD11C,6.400000*%
%ADD12C,2.400000*%
%ADD13O,2.400000X2.400000*%
%ADD14O,3.500000X3.500000*%
%ADD15R,2.000000X1.905000*%
%ADD16O,2.000000X1.905000*%
%ADD17RoundRect,0.250000X0.650000X1.550000X-0.650000X1.550000X-0.650000X-1.550000X0.650000X-1.550000X0*%
%ADD18O,1.800000X3.600000*%
%ADD19RoundRect,0.250000X-0.650000X-1.550000X0.650000X-1.550000X0.650000X1.550000X-0.650000X1.550000X0*%
G04 APERTURE END LIST*
D10*
%TO.C,H1*%
X40248200Y-51287344D03*
X40951144Y-49590288D03*
X40951144Y-52984400D03*
X42648200Y-48887344D03*
D11*
X42648200Y-51287344D03*
D10*
X42648200Y-53687344D03*
X44345256Y-49590288D03*
X44345256Y-52984400D03*
X45048200Y-51287344D03*
%TD*%
D12*
%TO.C,R3*%
X99954556Y-112105244D03*
D13*
X112654556Y-112105244D03*
%TD*%
D14*
%TO.C,U5*%
X88946056Y-82630944D03*
D15*
X105606056Y-85170944D03*
D16*
X105606056Y-82630944D03*
X105606056Y-80090944D03*
%TD*%
D17*
%TO.C,J2*%
X126899056Y-56251844D03*
D18*
X123089056Y-56251844D03*
X119279056Y-56251844D03*
X115469056Y-56251844D03*
X111659056Y-56251844D03*
X107849056Y-56251844D03*
%TD*%
D19*
%TO.C,J1*%
X64765256Y-117505144D03*
D18*
X68575256Y-117505144D03*
%TD*%
D10*
%TO.C,H2*%
X40348200Y-122287344D03*
X41051144Y-120590288D03*
X41051144Y-123984400D03*
X42748200Y-119887344D03*
D11*
X42748200Y-122287344D03*
D10*
X42748200Y-124687344D03*
X44445256Y-120590288D03*
X44445256Y-123984400D03*
X45148200Y-122287344D03*
%TD*%
%TO.C,H3*%
X133002656Y-51287344D03*
X133705600Y-49590288D03*
X133705600Y-52984400D03*
X135402656Y-48887344D03*
D11*
X135402656Y-51287344D03*
D10*
X135402656Y-53687344D03*
X137099712Y-49590288D03*
X137099712Y-52984400D03*
X137802656Y-51287344D03*
%TD*%
M02*
