%TF.GenerationSoftware,KiCad,Pcbnew,8.0.4*%
%TF.CreationDate,2024-10-07T12:15:03+07:00*%
%TF.ProjectId,BATTERY_CONVERTER,42415454-4552-4595-9f43-4f4e56455254,rev?*%
%TF.SameCoordinates,Original*%
%TF.FileFunction,Legend,Top*%
%TF.FilePolarity,Positive*%
%FSLAX46Y46*%
G04 Gerber Fmt 4.6, Leading zero omitted, Abs format (unit mm)*
G04 Created by KiCad (PCBNEW 8.0.4) date 2024-10-07 12:15:03*
%MOMM*%
%LPD*%
G01*
G04 APERTURE LIST*
%ADD10C,0.152400*%
%ADD11C,0.120000*%
%ADD12C,0.200000*%
%ADD13C,0.127000*%
%ADD14C,0.250000*%
G04 APERTURE END LIST*
D10*
X59418555Y-84143421D02*
X59376222Y-84185755D01*
X59376222Y-84185755D02*
X59249222Y-84228088D01*
X59249222Y-84228088D02*
X59164555Y-84228088D01*
X59164555Y-84228088D02*
X59037555Y-84185755D01*
X59037555Y-84185755D02*
X58952889Y-84101088D01*
X58952889Y-84101088D02*
X58910555Y-84016421D01*
X58910555Y-84016421D02*
X58868222Y-83847088D01*
X58868222Y-83847088D02*
X58868222Y-83720088D01*
X58868222Y-83720088D02*
X58910555Y-83550755D01*
X58910555Y-83550755D02*
X58952889Y-83466088D01*
X58952889Y-83466088D02*
X59037555Y-83381421D01*
X59037555Y-83381421D02*
X59164555Y-83339088D01*
X59164555Y-83339088D02*
X59249222Y-83339088D01*
X59249222Y-83339088D02*
X59376222Y-83381421D01*
X59376222Y-83381421D02*
X59418555Y-83423755D01*
X60265222Y-84228088D02*
X59757222Y-84228088D01*
X60011222Y-84228088D02*
X60011222Y-83339088D01*
X60011222Y-83339088D02*
X59926555Y-83466088D01*
X59926555Y-83466088D02*
X59841889Y-83550755D01*
X59841889Y-83550755D02*
X59757222Y-83593088D01*
X60603889Y-83423755D02*
X60646222Y-83381421D01*
X60646222Y-83381421D02*
X60730889Y-83339088D01*
X60730889Y-83339088D02*
X60942556Y-83339088D01*
X60942556Y-83339088D02*
X61027222Y-83381421D01*
X61027222Y-83381421D02*
X61069556Y-83423755D01*
X61069556Y-83423755D02*
X61111889Y-83508421D01*
X61111889Y-83508421D02*
X61111889Y-83593088D01*
X61111889Y-83593088D02*
X61069556Y-83720088D01*
X61069556Y-83720088D02*
X60561556Y-84228088D01*
X60561556Y-84228088D02*
X61111889Y-84228088D01*
X67394155Y-77920421D02*
X67351822Y-77962755D01*
X67351822Y-77962755D02*
X67224822Y-78005088D01*
X67224822Y-78005088D02*
X67140155Y-78005088D01*
X67140155Y-78005088D02*
X67013155Y-77962755D01*
X67013155Y-77962755D02*
X66928489Y-77878088D01*
X66928489Y-77878088D02*
X66886155Y-77793421D01*
X66886155Y-77793421D02*
X66843822Y-77624088D01*
X66843822Y-77624088D02*
X66843822Y-77497088D01*
X66843822Y-77497088D02*
X66886155Y-77327755D01*
X66886155Y-77327755D02*
X66928489Y-77243088D01*
X66928489Y-77243088D02*
X67013155Y-77158421D01*
X67013155Y-77158421D02*
X67140155Y-77116088D01*
X67140155Y-77116088D02*
X67224822Y-77116088D01*
X67224822Y-77116088D02*
X67351822Y-77158421D01*
X67351822Y-77158421D02*
X67394155Y-77200755D01*
X68240822Y-78005088D02*
X67732822Y-78005088D01*
X67986822Y-78005088D02*
X67986822Y-77116088D01*
X67986822Y-77116088D02*
X67902155Y-77243088D01*
X67902155Y-77243088D02*
X67817489Y-77327755D01*
X67817489Y-77327755D02*
X67732822Y-77370088D01*
X68664156Y-78005088D02*
X68833489Y-78005088D01*
X68833489Y-78005088D02*
X68918156Y-77962755D01*
X68918156Y-77962755D02*
X68960489Y-77920421D01*
X68960489Y-77920421D02*
X69045156Y-77793421D01*
X69045156Y-77793421D02*
X69087489Y-77624088D01*
X69087489Y-77624088D02*
X69087489Y-77285421D01*
X69087489Y-77285421D02*
X69045156Y-77200755D01*
X69045156Y-77200755D02*
X69002822Y-77158421D01*
X69002822Y-77158421D02*
X68918156Y-77116088D01*
X68918156Y-77116088D02*
X68748822Y-77116088D01*
X68748822Y-77116088D02*
X68664156Y-77158421D01*
X68664156Y-77158421D02*
X68621822Y-77200755D01*
X68621822Y-77200755D02*
X68579489Y-77285421D01*
X68579489Y-77285421D02*
X68579489Y-77497088D01*
X68579489Y-77497088D02*
X68621822Y-77581755D01*
X68621822Y-77581755D02*
X68664156Y-77624088D01*
X68664156Y-77624088D02*
X68748822Y-77666421D01*
X68748822Y-77666421D02*
X68918156Y-77666421D01*
X68918156Y-77666421D02*
X69002822Y-77624088D01*
X69002822Y-77624088D02*
X69045156Y-77581755D01*
X69045156Y-77581755D02*
X69087489Y-77497088D01*
X102691689Y-109645021D02*
X102649356Y-109687355D01*
X102649356Y-109687355D02*
X102522356Y-109729688D01*
X102522356Y-109729688D02*
X102437689Y-109729688D01*
X102437689Y-109729688D02*
X102310689Y-109687355D01*
X102310689Y-109687355D02*
X102226023Y-109602688D01*
X102226023Y-109602688D02*
X102183689Y-109518021D01*
X102183689Y-109518021D02*
X102141356Y-109348688D01*
X102141356Y-109348688D02*
X102141356Y-109221688D01*
X102141356Y-109221688D02*
X102183689Y-109052355D01*
X102183689Y-109052355D02*
X102226023Y-108967688D01*
X102226023Y-108967688D02*
X102310689Y-108883021D01*
X102310689Y-108883021D02*
X102437689Y-108840688D01*
X102437689Y-108840688D02*
X102522356Y-108840688D01*
X102522356Y-108840688D02*
X102649356Y-108883021D01*
X102649356Y-108883021D02*
X102691689Y-108925355D01*
X103030356Y-108925355D02*
X103072689Y-108883021D01*
X103072689Y-108883021D02*
X103157356Y-108840688D01*
X103157356Y-108840688D02*
X103369023Y-108840688D01*
X103369023Y-108840688D02*
X103453689Y-108883021D01*
X103453689Y-108883021D02*
X103496023Y-108925355D01*
X103496023Y-108925355D02*
X103538356Y-109010021D01*
X103538356Y-109010021D02*
X103538356Y-109094688D01*
X103538356Y-109094688D02*
X103496023Y-109221688D01*
X103496023Y-109221688D02*
X102988023Y-109729688D01*
X102988023Y-109729688D02*
X103538356Y-109729688D01*
X41970866Y-51690688D02*
X41970866Y-50801688D01*
X41970866Y-51225021D02*
X42478866Y-51225021D01*
X42478866Y-51690688D02*
X42478866Y-50801688D01*
X43367866Y-51690688D02*
X42859866Y-51690688D01*
X43113866Y-51690688D02*
X43113866Y-50801688D01*
X43113866Y-50801688D02*
X43029199Y-50928688D01*
X43029199Y-50928688D02*
X42944533Y-51013355D01*
X42944533Y-51013355D02*
X42859866Y-51055688D01*
X58292489Y-87428488D02*
X57996156Y-87005155D01*
X57784489Y-87428488D02*
X57784489Y-86539488D01*
X57784489Y-86539488D02*
X58123156Y-86539488D01*
X58123156Y-86539488D02*
X58207823Y-86581821D01*
X58207823Y-86581821D02*
X58250156Y-86624155D01*
X58250156Y-86624155D02*
X58292489Y-86708821D01*
X58292489Y-86708821D02*
X58292489Y-86835821D01*
X58292489Y-86835821D02*
X58250156Y-86920488D01*
X58250156Y-86920488D02*
X58207823Y-86962821D01*
X58207823Y-86962821D02*
X58123156Y-87005155D01*
X58123156Y-87005155D02*
X57784489Y-87005155D01*
X58588823Y-86539488D02*
X59181489Y-86539488D01*
X59181489Y-86539488D02*
X58800489Y-87428488D01*
X66555955Y-85438821D02*
X66513622Y-85481155D01*
X66513622Y-85481155D02*
X66386622Y-85523488D01*
X66386622Y-85523488D02*
X66301955Y-85523488D01*
X66301955Y-85523488D02*
X66174955Y-85481155D01*
X66174955Y-85481155D02*
X66090289Y-85396488D01*
X66090289Y-85396488D02*
X66047955Y-85311821D01*
X66047955Y-85311821D02*
X66005622Y-85142488D01*
X66005622Y-85142488D02*
X66005622Y-85015488D01*
X66005622Y-85015488D02*
X66047955Y-84846155D01*
X66047955Y-84846155D02*
X66090289Y-84761488D01*
X66090289Y-84761488D02*
X66174955Y-84676821D01*
X66174955Y-84676821D02*
X66301955Y-84634488D01*
X66301955Y-84634488D02*
X66386622Y-84634488D01*
X66386622Y-84634488D02*
X66513622Y-84676821D01*
X66513622Y-84676821D02*
X66555955Y-84719155D01*
X67402622Y-85523488D02*
X66894622Y-85523488D01*
X67148622Y-85523488D02*
X67148622Y-84634488D01*
X67148622Y-84634488D02*
X67063955Y-84761488D01*
X67063955Y-84761488D02*
X66979289Y-84846155D01*
X66979289Y-84846155D02*
X66894622Y-84888488D01*
X67698956Y-84634488D02*
X68291622Y-84634488D01*
X68291622Y-84634488D02*
X67910622Y-85523488D01*
X93014289Y-104488821D02*
X92971956Y-104531155D01*
X92971956Y-104531155D02*
X92844956Y-104573488D01*
X92844956Y-104573488D02*
X92760289Y-104573488D01*
X92760289Y-104573488D02*
X92633289Y-104531155D01*
X92633289Y-104531155D02*
X92548623Y-104446488D01*
X92548623Y-104446488D02*
X92506289Y-104361821D01*
X92506289Y-104361821D02*
X92463956Y-104192488D01*
X92463956Y-104192488D02*
X92463956Y-104065488D01*
X92463956Y-104065488D02*
X92506289Y-103896155D01*
X92506289Y-103896155D02*
X92548623Y-103811488D01*
X92548623Y-103811488D02*
X92633289Y-103726821D01*
X92633289Y-103726821D02*
X92760289Y-103684488D01*
X92760289Y-103684488D02*
X92844956Y-103684488D01*
X92844956Y-103684488D02*
X92971956Y-103726821D01*
X92971956Y-103726821D02*
X93014289Y-103769155D01*
X93776289Y-103684488D02*
X93606956Y-103684488D01*
X93606956Y-103684488D02*
X93522289Y-103726821D01*
X93522289Y-103726821D02*
X93479956Y-103769155D01*
X93479956Y-103769155D02*
X93395289Y-103896155D01*
X93395289Y-103896155D02*
X93352956Y-104065488D01*
X93352956Y-104065488D02*
X93352956Y-104404155D01*
X93352956Y-104404155D02*
X93395289Y-104488821D01*
X93395289Y-104488821D02*
X93437623Y-104531155D01*
X93437623Y-104531155D02*
X93522289Y-104573488D01*
X93522289Y-104573488D02*
X93691623Y-104573488D01*
X93691623Y-104573488D02*
X93776289Y-104531155D01*
X93776289Y-104531155D02*
X93818623Y-104488821D01*
X93818623Y-104488821D02*
X93860956Y-104404155D01*
X93860956Y-104404155D02*
X93860956Y-104192488D01*
X93860956Y-104192488D02*
X93818623Y-104107821D01*
X93818623Y-104107821D02*
X93776289Y-104065488D01*
X93776289Y-104065488D02*
X93691623Y-104023155D01*
X93691623Y-104023155D02*
X93522289Y-104023155D01*
X93522289Y-104023155D02*
X93437623Y-104065488D01*
X93437623Y-104065488D02*
X93395289Y-104107821D01*
X93395289Y-104107821D02*
X93352956Y-104192488D01*
X64062522Y-84558288D02*
X64062522Y-85277955D01*
X64062522Y-85277955D02*
X64104856Y-85362621D01*
X64104856Y-85362621D02*
X64147189Y-85404955D01*
X64147189Y-85404955D02*
X64231856Y-85447288D01*
X64231856Y-85447288D02*
X64401189Y-85447288D01*
X64401189Y-85447288D02*
X64485856Y-85404955D01*
X64485856Y-85404955D02*
X64528189Y-85362621D01*
X64528189Y-85362621D02*
X64570522Y-85277955D01*
X64570522Y-85277955D02*
X64570522Y-84558288D01*
X64951522Y-84642955D02*
X64993855Y-84600621D01*
X64993855Y-84600621D02*
X65078522Y-84558288D01*
X65078522Y-84558288D02*
X65290189Y-84558288D01*
X65290189Y-84558288D02*
X65374855Y-84600621D01*
X65374855Y-84600621D02*
X65417189Y-84642955D01*
X65417189Y-84642955D02*
X65459522Y-84727621D01*
X65459522Y-84727621D02*
X65459522Y-84812288D01*
X65459522Y-84812288D02*
X65417189Y-84939288D01*
X65417189Y-84939288D02*
X64909189Y-85447288D01*
X64909189Y-85447288D02*
X65459522Y-85447288D01*
X115679555Y-108883021D02*
X115637222Y-108925355D01*
X115637222Y-108925355D02*
X115510222Y-108967688D01*
X115510222Y-108967688D02*
X115425555Y-108967688D01*
X115425555Y-108967688D02*
X115298555Y-108925355D01*
X115298555Y-108925355D02*
X115213889Y-108840688D01*
X115213889Y-108840688D02*
X115171555Y-108756021D01*
X115171555Y-108756021D02*
X115129222Y-108586688D01*
X115129222Y-108586688D02*
X115129222Y-108459688D01*
X115129222Y-108459688D02*
X115171555Y-108290355D01*
X115171555Y-108290355D02*
X115213889Y-108205688D01*
X115213889Y-108205688D02*
X115298555Y-108121021D01*
X115298555Y-108121021D02*
X115425555Y-108078688D01*
X115425555Y-108078688D02*
X115510222Y-108078688D01*
X115510222Y-108078688D02*
X115637222Y-108121021D01*
X115637222Y-108121021D02*
X115679555Y-108163355D01*
X116526222Y-108967688D02*
X116018222Y-108967688D01*
X116272222Y-108967688D02*
X116272222Y-108078688D01*
X116272222Y-108078688D02*
X116187555Y-108205688D01*
X116187555Y-108205688D02*
X116102889Y-108290355D01*
X116102889Y-108290355D02*
X116018222Y-108332688D01*
X117076556Y-108078688D02*
X117161222Y-108078688D01*
X117161222Y-108078688D02*
X117245889Y-108121021D01*
X117245889Y-108121021D02*
X117288222Y-108163355D01*
X117288222Y-108163355D02*
X117330556Y-108248021D01*
X117330556Y-108248021D02*
X117372889Y-108417355D01*
X117372889Y-108417355D02*
X117372889Y-108629021D01*
X117372889Y-108629021D02*
X117330556Y-108798355D01*
X117330556Y-108798355D02*
X117288222Y-108883021D01*
X117288222Y-108883021D02*
X117245889Y-108925355D01*
X117245889Y-108925355D02*
X117161222Y-108967688D01*
X117161222Y-108967688D02*
X117076556Y-108967688D01*
X117076556Y-108967688D02*
X116991889Y-108925355D01*
X116991889Y-108925355D02*
X116949556Y-108883021D01*
X116949556Y-108883021D02*
X116907222Y-108798355D01*
X116907222Y-108798355D02*
X116864889Y-108629021D01*
X116864889Y-108629021D02*
X116864889Y-108417355D01*
X116864889Y-108417355D02*
X116907222Y-108248021D01*
X116907222Y-108248021D02*
X116949556Y-108163355D01*
X116949556Y-108163355D02*
X116991889Y-108121021D01*
X116991889Y-108121021D02*
X117076556Y-108078688D01*
X112673889Y-109882088D02*
X112377556Y-109458755D01*
X112165889Y-109882088D02*
X112165889Y-108993088D01*
X112165889Y-108993088D02*
X112504556Y-108993088D01*
X112504556Y-108993088D02*
X112589223Y-109035421D01*
X112589223Y-109035421D02*
X112631556Y-109077755D01*
X112631556Y-109077755D02*
X112673889Y-109162421D01*
X112673889Y-109162421D02*
X112673889Y-109289421D01*
X112673889Y-109289421D02*
X112631556Y-109374088D01*
X112631556Y-109374088D02*
X112589223Y-109416421D01*
X112589223Y-109416421D02*
X112504556Y-109458755D01*
X112504556Y-109458755D02*
X112165889Y-109458755D01*
X112970223Y-108993088D02*
X113520556Y-108993088D01*
X113520556Y-108993088D02*
X113224223Y-109331755D01*
X113224223Y-109331755D02*
X113351223Y-109331755D01*
X113351223Y-109331755D02*
X113435889Y-109374088D01*
X113435889Y-109374088D02*
X113478223Y-109416421D01*
X113478223Y-109416421D02*
X113520556Y-109501088D01*
X113520556Y-109501088D02*
X113520556Y-109712755D01*
X113520556Y-109712755D02*
X113478223Y-109797421D01*
X113478223Y-109797421D02*
X113435889Y-109839755D01*
X113435889Y-109839755D02*
X113351223Y-109882088D01*
X113351223Y-109882088D02*
X113097223Y-109882088D01*
X113097223Y-109882088D02*
X113012556Y-109839755D01*
X113012556Y-109839755D02*
X112970223Y-109797421D01*
X72627733Y-86580644D02*
X72670067Y-86622977D01*
X72670067Y-86622977D02*
X72712400Y-86749977D01*
X72712400Y-86749977D02*
X72712400Y-86834644D01*
X72712400Y-86834644D02*
X72670067Y-86961644D01*
X72670067Y-86961644D02*
X72585400Y-87046311D01*
X72585400Y-87046311D02*
X72500733Y-87088644D01*
X72500733Y-87088644D02*
X72331400Y-87130977D01*
X72331400Y-87130977D02*
X72204400Y-87130977D01*
X72204400Y-87130977D02*
X72035067Y-87088644D01*
X72035067Y-87088644D02*
X71950400Y-87046311D01*
X71950400Y-87046311D02*
X71865733Y-86961644D01*
X71865733Y-86961644D02*
X71823400Y-86834644D01*
X71823400Y-86834644D02*
X71823400Y-86749977D01*
X71823400Y-86749977D02*
X71865733Y-86622977D01*
X71865733Y-86622977D02*
X71908067Y-86580644D01*
X72712400Y-85733977D02*
X72712400Y-86241977D01*
X72712400Y-85987977D02*
X71823400Y-85987977D01*
X71823400Y-85987977D02*
X71950400Y-86072644D01*
X71950400Y-86072644D02*
X72035067Y-86157311D01*
X72035067Y-86157311D02*
X72077400Y-86241977D01*
X71823400Y-84929644D02*
X71823400Y-85352977D01*
X71823400Y-85352977D02*
X72246733Y-85395310D01*
X72246733Y-85395310D02*
X72204400Y-85352977D01*
X72204400Y-85352977D02*
X72162067Y-85268310D01*
X72162067Y-85268310D02*
X72162067Y-85056644D01*
X72162067Y-85056644D02*
X72204400Y-84971977D01*
X72204400Y-84971977D02*
X72246733Y-84929644D01*
X72246733Y-84929644D02*
X72331400Y-84887310D01*
X72331400Y-84887310D02*
X72543067Y-84887310D01*
X72543067Y-84887310D02*
X72627733Y-84929644D01*
X72627733Y-84929644D02*
X72670067Y-84971977D01*
X72670067Y-84971977D02*
X72712400Y-85056644D01*
X72712400Y-85056644D02*
X72712400Y-85268310D01*
X72712400Y-85268310D02*
X72670067Y-85352977D01*
X72670067Y-85352977D02*
X72627733Y-85395310D01*
X66191889Y-80697488D02*
X66191889Y-79808488D01*
X66191889Y-79808488D02*
X66403556Y-79808488D01*
X66403556Y-79808488D02*
X66530556Y-79850821D01*
X66530556Y-79850821D02*
X66615223Y-79935488D01*
X66615223Y-79935488D02*
X66657556Y-80020155D01*
X66657556Y-80020155D02*
X66699889Y-80189488D01*
X66699889Y-80189488D02*
X66699889Y-80316488D01*
X66699889Y-80316488D02*
X66657556Y-80485821D01*
X66657556Y-80485821D02*
X66615223Y-80570488D01*
X66615223Y-80570488D02*
X66530556Y-80655155D01*
X66530556Y-80655155D02*
X66403556Y-80697488D01*
X66403556Y-80697488D02*
X66191889Y-80697488D01*
X67038556Y-79893155D02*
X67080889Y-79850821D01*
X67080889Y-79850821D02*
X67165556Y-79808488D01*
X67165556Y-79808488D02*
X67377223Y-79808488D01*
X67377223Y-79808488D02*
X67461889Y-79850821D01*
X67461889Y-79850821D02*
X67504223Y-79893155D01*
X67504223Y-79893155D02*
X67546556Y-79977821D01*
X67546556Y-79977821D02*
X67546556Y-80062488D01*
X67546556Y-80062488D02*
X67504223Y-80189488D01*
X67504223Y-80189488D02*
X66996223Y-80697488D01*
X66996223Y-80697488D02*
X67546556Y-80697488D01*
X118473555Y-78707821D02*
X118431222Y-78750155D01*
X118431222Y-78750155D02*
X118304222Y-78792488D01*
X118304222Y-78792488D02*
X118219555Y-78792488D01*
X118219555Y-78792488D02*
X118092555Y-78750155D01*
X118092555Y-78750155D02*
X118007889Y-78665488D01*
X118007889Y-78665488D02*
X117965555Y-78580821D01*
X117965555Y-78580821D02*
X117923222Y-78411488D01*
X117923222Y-78411488D02*
X117923222Y-78284488D01*
X117923222Y-78284488D02*
X117965555Y-78115155D01*
X117965555Y-78115155D02*
X118007889Y-78030488D01*
X118007889Y-78030488D02*
X118092555Y-77945821D01*
X118092555Y-77945821D02*
X118219555Y-77903488D01*
X118219555Y-77903488D02*
X118304222Y-77903488D01*
X118304222Y-77903488D02*
X118431222Y-77945821D01*
X118431222Y-77945821D02*
X118473555Y-77988155D01*
X118769889Y-77903488D02*
X119320222Y-77903488D01*
X119320222Y-77903488D02*
X119023889Y-78242155D01*
X119023889Y-78242155D02*
X119150889Y-78242155D01*
X119150889Y-78242155D02*
X119235555Y-78284488D01*
X119235555Y-78284488D02*
X119277889Y-78326821D01*
X119277889Y-78326821D02*
X119320222Y-78411488D01*
X119320222Y-78411488D02*
X119320222Y-78623155D01*
X119320222Y-78623155D02*
X119277889Y-78707821D01*
X119277889Y-78707821D02*
X119235555Y-78750155D01*
X119235555Y-78750155D02*
X119150889Y-78792488D01*
X119150889Y-78792488D02*
X118896889Y-78792488D01*
X118896889Y-78792488D02*
X118812222Y-78750155D01*
X118812222Y-78750155D02*
X118769889Y-78707821D01*
X119616556Y-77903488D02*
X120166889Y-77903488D01*
X120166889Y-77903488D02*
X119870556Y-78242155D01*
X119870556Y-78242155D02*
X119997556Y-78242155D01*
X119997556Y-78242155D02*
X120082222Y-78284488D01*
X120082222Y-78284488D02*
X120124556Y-78326821D01*
X120124556Y-78326821D02*
X120166889Y-78411488D01*
X120166889Y-78411488D02*
X120166889Y-78623155D01*
X120166889Y-78623155D02*
X120124556Y-78707821D01*
X120124556Y-78707821D02*
X120082222Y-78750155D01*
X120082222Y-78750155D02*
X119997556Y-78792488D01*
X119997556Y-78792488D02*
X119743556Y-78792488D01*
X119743556Y-78792488D02*
X119658889Y-78750155D01*
X119658889Y-78750155D02*
X119616556Y-78707821D01*
X95782889Y-99713621D02*
X95740556Y-99755955D01*
X95740556Y-99755955D02*
X95613556Y-99798288D01*
X95613556Y-99798288D02*
X95528889Y-99798288D01*
X95528889Y-99798288D02*
X95401889Y-99755955D01*
X95401889Y-99755955D02*
X95317223Y-99671288D01*
X95317223Y-99671288D02*
X95274889Y-99586621D01*
X95274889Y-99586621D02*
X95232556Y-99417288D01*
X95232556Y-99417288D02*
X95232556Y-99290288D01*
X95232556Y-99290288D02*
X95274889Y-99120955D01*
X95274889Y-99120955D02*
X95317223Y-99036288D01*
X95317223Y-99036288D02*
X95401889Y-98951621D01*
X95401889Y-98951621D02*
X95528889Y-98909288D01*
X95528889Y-98909288D02*
X95613556Y-98909288D01*
X95613556Y-98909288D02*
X95740556Y-98951621D01*
X95740556Y-98951621D02*
X95782889Y-98993955D01*
X96079223Y-98909288D02*
X96671889Y-98909288D01*
X96671889Y-98909288D02*
X96290889Y-99798288D01*
X60476889Y-93930888D02*
X60180556Y-93507555D01*
X59968889Y-93930888D02*
X59968889Y-93041888D01*
X59968889Y-93041888D02*
X60307556Y-93041888D01*
X60307556Y-93041888D02*
X60392223Y-93084221D01*
X60392223Y-93084221D02*
X60434556Y-93126555D01*
X60434556Y-93126555D02*
X60476889Y-93211221D01*
X60476889Y-93211221D02*
X60476889Y-93338221D01*
X60476889Y-93338221D02*
X60434556Y-93422888D01*
X60434556Y-93422888D02*
X60392223Y-93465221D01*
X60392223Y-93465221D02*
X60307556Y-93507555D01*
X60307556Y-93507555D02*
X59968889Y-93507555D01*
X60984889Y-93422888D02*
X60900223Y-93380555D01*
X60900223Y-93380555D02*
X60857889Y-93338221D01*
X60857889Y-93338221D02*
X60815556Y-93253555D01*
X60815556Y-93253555D02*
X60815556Y-93211221D01*
X60815556Y-93211221D02*
X60857889Y-93126555D01*
X60857889Y-93126555D02*
X60900223Y-93084221D01*
X60900223Y-93084221D02*
X60984889Y-93041888D01*
X60984889Y-93041888D02*
X61154223Y-93041888D01*
X61154223Y-93041888D02*
X61238889Y-93084221D01*
X61238889Y-93084221D02*
X61281223Y-93126555D01*
X61281223Y-93126555D02*
X61323556Y-93211221D01*
X61323556Y-93211221D02*
X61323556Y-93253555D01*
X61323556Y-93253555D02*
X61281223Y-93338221D01*
X61281223Y-93338221D02*
X61238889Y-93380555D01*
X61238889Y-93380555D02*
X61154223Y-93422888D01*
X61154223Y-93422888D02*
X60984889Y-93422888D01*
X60984889Y-93422888D02*
X60900223Y-93465221D01*
X60900223Y-93465221D02*
X60857889Y-93507555D01*
X60857889Y-93507555D02*
X60815556Y-93592221D01*
X60815556Y-93592221D02*
X60815556Y-93761555D01*
X60815556Y-93761555D02*
X60857889Y-93846221D01*
X60857889Y-93846221D02*
X60900223Y-93888555D01*
X60900223Y-93888555D02*
X60984889Y-93930888D01*
X60984889Y-93930888D02*
X61154223Y-93930888D01*
X61154223Y-93930888D02*
X61238889Y-93888555D01*
X61238889Y-93888555D02*
X61281223Y-93846221D01*
X61281223Y-93846221D02*
X61323556Y-93761555D01*
X61323556Y-93761555D02*
X61323556Y-93592221D01*
X61323556Y-93592221D02*
X61281223Y-93507555D01*
X61281223Y-93507555D02*
X61238889Y-93465221D01*
X61238889Y-93465221D02*
X61154223Y-93422888D01*
X109405755Y-74770821D02*
X109363422Y-74813155D01*
X109363422Y-74813155D02*
X109236422Y-74855488D01*
X109236422Y-74855488D02*
X109151755Y-74855488D01*
X109151755Y-74855488D02*
X109024755Y-74813155D01*
X109024755Y-74813155D02*
X108940089Y-74728488D01*
X108940089Y-74728488D02*
X108897755Y-74643821D01*
X108897755Y-74643821D02*
X108855422Y-74474488D01*
X108855422Y-74474488D02*
X108855422Y-74347488D01*
X108855422Y-74347488D02*
X108897755Y-74178155D01*
X108897755Y-74178155D02*
X108940089Y-74093488D01*
X108940089Y-74093488D02*
X109024755Y-74008821D01*
X109024755Y-74008821D02*
X109151755Y-73966488D01*
X109151755Y-73966488D02*
X109236422Y-73966488D01*
X109236422Y-73966488D02*
X109363422Y-74008821D01*
X109363422Y-74008821D02*
X109405755Y-74051155D01*
X109702089Y-73966488D02*
X110252422Y-73966488D01*
X110252422Y-73966488D02*
X109956089Y-74305155D01*
X109956089Y-74305155D02*
X110083089Y-74305155D01*
X110083089Y-74305155D02*
X110167755Y-74347488D01*
X110167755Y-74347488D02*
X110210089Y-74389821D01*
X110210089Y-74389821D02*
X110252422Y-74474488D01*
X110252422Y-74474488D02*
X110252422Y-74686155D01*
X110252422Y-74686155D02*
X110210089Y-74770821D01*
X110210089Y-74770821D02*
X110167755Y-74813155D01*
X110167755Y-74813155D02*
X110083089Y-74855488D01*
X110083089Y-74855488D02*
X109829089Y-74855488D01*
X109829089Y-74855488D02*
X109744422Y-74813155D01*
X109744422Y-74813155D02*
X109702089Y-74770821D01*
X111099089Y-74855488D02*
X110591089Y-74855488D01*
X110845089Y-74855488D02*
X110845089Y-73966488D01*
X110845089Y-73966488D02*
X110760422Y-74093488D01*
X110760422Y-74093488D02*
X110675756Y-74178155D01*
X110675756Y-74178155D02*
X110591089Y-74220488D01*
X91270155Y-65931621D02*
X91227822Y-65973955D01*
X91227822Y-65973955D02*
X91100822Y-66016288D01*
X91100822Y-66016288D02*
X91016155Y-66016288D01*
X91016155Y-66016288D02*
X90889155Y-65973955D01*
X90889155Y-65973955D02*
X90804489Y-65889288D01*
X90804489Y-65889288D02*
X90762155Y-65804621D01*
X90762155Y-65804621D02*
X90719822Y-65635288D01*
X90719822Y-65635288D02*
X90719822Y-65508288D01*
X90719822Y-65508288D02*
X90762155Y-65338955D01*
X90762155Y-65338955D02*
X90804489Y-65254288D01*
X90804489Y-65254288D02*
X90889155Y-65169621D01*
X90889155Y-65169621D02*
X91016155Y-65127288D01*
X91016155Y-65127288D02*
X91100822Y-65127288D01*
X91100822Y-65127288D02*
X91227822Y-65169621D01*
X91227822Y-65169621D02*
X91270155Y-65211955D01*
X91608822Y-65211955D02*
X91651155Y-65169621D01*
X91651155Y-65169621D02*
X91735822Y-65127288D01*
X91735822Y-65127288D02*
X91947489Y-65127288D01*
X91947489Y-65127288D02*
X92032155Y-65169621D01*
X92032155Y-65169621D02*
X92074489Y-65211955D01*
X92074489Y-65211955D02*
X92116822Y-65296621D01*
X92116822Y-65296621D02*
X92116822Y-65381288D01*
X92116822Y-65381288D02*
X92074489Y-65508288D01*
X92074489Y-65508288D02*
X91566489Y-66016288D01*
X91566489Y-66016288D02*
X92116822Y-66016288D01*
X92921156Y-65127288D02*
X92497822Y-65127288D01*
X92497822Y-65127288D02*
X92455489Y-65550621D01*
X92455489Y-65550621D02*
X92497822Y-65508288D01*
X92497822Y-65508288D02*
X92582489Y-65465955D01*
X92582489Y-65465955D02*
X92794156Y-65465955D01*
X92794156Y-65465955D02*
X92878822Y-65508288D01*
X92878822Y-65508288D02*
X92921156Y-65550621D01*
X92921156Y-65550621D02*
X92963489Y-65635288D01*
X92963489Y-65635288D02*
X92963489Y-65846955D01*
X92963489Y-65846955D02*
X92921156Y-65931621D01*
X92921156Y-65931621D02*
X92878822Y-65973955D01*
X92878822Y-65973955D02*
X92794156Y-66016288D01*
X92794156Y-66016288D02*
X92582489Y-66016288D01*
X92582489Y-66016288D02*
X92497822Y-65973955D01*
X92497822Y-65973955D02*
X92455489Y-65931621D01*
X93725489Y-111329888D02*
X93429156Y-110906555D01*
X93217489Y-111329888D02*
X93217489Y-110440888D01*
X93217489Y-110440888D02*
X93556156Y-110440888D01*
X93556156Y-110440888D02*
X93640823Y-110483221D01*
X93640823Y-110483221D02*
X93683156Y-110525555D01*
X93683156Y-110525555D02*
X93725489Y-110610221D01*
X93725489Y-110610221D02*
X93725489Y-110737221D01*
X93725489Y-110737221D02*
X93683156Y-110821888D01*
X93683156Y-110821888D02*
X93640823Y-110864221D01*
X93640823Y-110864221D02*
X93556156Y-110906555D01*
X93556156Y-110906555D02*
X93217489Y-110906555D01*
X94572156Y-111329888D02*
X94064156Y-111329888D01*
X94318156Y-111329888D02*
X94318156Y-110440888D01*
X94318156Y-110440888D02*
X94233489Y-110567888D01*
X94233489Y-110567888D02*
X94148823Y-110652555D01*
X94148823Y-110652555D02*
X94064156Y-110694888D01*
X78493955Y-91594088D02*
X78197622Y-91170755D01*
X77985955Y-91594088D02*
X77985955Y-90705088D01*
X77985955Y-90705088D02*
X78324622Y-90705088D01*
X78324622Y-90705088D02*
X78409289Y-90747421D01*
X78409289Y-90747421D02*
X78451622Y-90789755D01*
X78451622Y-90789755D02*
X78493955Y-90874421D01*
X78493955Y-90874421D02*
X78493955Y-91001421D01*
X78493955Y-91001421D02*
X78451622Y-91086088D01*
X78451622Y-91086088D02*
X78409289Y-91128421D01*
X78409289Y-91128421D02*
X78324622Y-91170755D01*
X78324622Y-91170755D02*
X77985955Y-91170755D01*
X79340622Y-91594088D02*
X78832622Y-91594088D01*
X79086622Y-91594088D02*
X79086622Y-90705088D01*
X79086622Y-90705088D02*
X79001955Y-90832088D01*
X79001955Y-90832088D02*
X78917289Y-90916755D01*
X78917289Y-90916755D02*
X78832622Y-90959088D01*
X79679289Y-90789755D02*
X79721622Y-90747421D01*
X79721622Y-90747421D02*
X79806289Y-90705088D01*
X79806289Y-90705088D02*
X80017956Y-90705088D01*
X80017956Y-90705088D02*
X80102622Y-90747421D01*
X80102622Y-90747421D02*
X80144956Y-90789755D01*
X80144956Y-90789755D02*
X80187289Y-90874421D01*
X80187289Y-90874421D02*
X80187289Y-90959088D01*
X80187289Y-90959088D02*
X80144956Y-91086088D01*
X80144956Y-91086088D02*
X79636956Y-91594088D01*
X79636956Y-91594088D02*
X80187289Y-91594088D01*
X72448755Y-92931821D02*
X72406422Y-92974155D01*
X72406422Y-92974155D02*
X72279422Y-93016488D01*
X72279422Y-93016488D02*
X72194755Y-93016488D01*
X72194755Y-93016488D02*
X72067755Y-92974155D01*
X72067755Y-92974155D02*
X71983089Y-92889488D01*
X71983089Y-92889488D02*
X71940755Y-92804821D01*
X71940755Y-92804821D02*
X71898422Y-92635488D01*
X71898422Y-92635488D02*
X71898422Y-92508488D01*
X71898422Y-92508488D02*
X71940755Y-92339155D01*
X71940755Y-92339155D02*
X71983089Y-92254488D01*
X71983089Y-92254488D02*
X72067755Y-92169821D01*
X72067755Y-92169821D02*
X72194755Y-92127488D01*
X72194755Y-92127488D02*
X72279422Y-92127488D01*
X72279422Y-92127488D02*
X72406422Y-92169821D01*
X72406422Y-92169821D02*
X72448755Y-92212155D01*
X73295422Y-93016488D02*
X72787422Y-93016488D01*
X73041422Y-93016488D02*
X73041422Y-92127488D01*
X73041422Y-92127488D02*
X72956755Y-92254488D01*
X72956755Y-92254488D02*
X72872089Y-92339155D01*
X72872089Y-92339155D02*
X72787422Y-92381488D01*
X74057422Y-92423821D02*
X74057422Y-93016488D01*
X73845756Y-92085155D02*
X73634089Y-92720155D01*
X73634089Y-92720155D02*
X74184422Y-92720155D01*
X109016289Y-108756021D02*
X108973956Y-108798355D01*
X108973956Y-108798355D02*
X108846956Y-108840688D01*
X108846956Y-108840688D02*
X108762289Y-108840688D01*
X108762289Y-108840688D02*
X108635289Y-108798355D01*
X108635289Y-108798355D02*
X108550623Y-108713688D01*
X108550623Y-108713688D02*
X108508289Y-108629021D01*
X108508289Y-108629021D02*
X108465956Y-108459688D01*
X108465956Y-108459688D02*
X108465956Y-108332688D01*
X108465956Y-108332688D02*
X108508289Y-108163355D01*
X108508289Y-108163355D02*
X108550623Y-108078688D01*
X108550623Y-108078688D02*
X108635289Y-107994021D01*
X108635289Y-107994021D02*
X108762289Y-107951688D01*
X108762289Y-107951688D02*
X108846956Y-107951688D01*
X108846956Y-107951688D02*
X108973956Y-107994021D01*
X108973956Y-107994021D02*
X109016289Y-108036355D01*
X109439623Y-108840688D02*
X109608956Y-108840688D01*
X109608956Y-108840688D02*
X109693623Y-108798355D01*
X109693623Y-108798355D02*
X109735956Y-108756021D01*
X109735956Y-108756021D02*
X109820623Y-108629021D01*
X109820623Y-108629021D02*
X109862956Y-108459688D01*
X109862956Y-108459688D02*
X109862956Y-108121021D01*
X109862956Y-108121021D02*
X109820623Y-108036355D01*
X109820623Y-108036355D02*
X109778289Y-107994021D01*
X109778289Y-107994021D02*
X109693623Y-107951688D01*
X109693623Y-107951688D02*
X109524289Y-107951688D01*
X109524289Y-107951688D02*
X109439623Y-107994021D01*
X109439623Y-107994021D02*
X109397289Y-108036355D01*
X109397289Y-108036355D02*
X109354956Y-108121021D01*
X109354956Y-108121021D02*
X109354956Y-108332688D01*
X109354956Y-108332688D02*
X109397289Y-108417355D01*
X109397289Y-108417355D02*
X109439623Y-108459688D01*
X109439623Y-108459688D02*
X109524289Y-108502021D01*
X109524289Y-108502021D02*
X109693623Y-108502021D01*
X109693623Y-108502021D02*
X109778289Y-108459688D01*
X109778289Y-108459688D02*
X109820623Y-108417355D01*
X109820623Y-108417355D02*
X109862956Y-108332688D01*
X105079289Y-101119088D02*
X105079289Y-100230088D01*
X105079289Y-100230088D02*
X105290956Y-100230088D01*
X105290956Y-100230088D02*
X105417956Y-100272421D01*
X105417956Y-100272421D02*
X105502623Y-100357088D01*
X105502623Y-100357088D02*
X105544956Y-100441755D01*
X105544956Y-100441755D02*
X105587289Y-100611088D01*
X105587289Y-100611088D02*
X105587289Y-100738088D01*
X105587289Y-100738088D02*
X105544956Y-100907421D01*
X105544956Y-100907421D02*
X105502623Y-100992088D01*
X105502623Y-100992088D02*
X105417956Y-101076755D01*
X105417956Y-101076755D02*
X105290956Y-101119088D01*
X105290956Y-101119088D02*
X105079289Y-101119088D01*
X106433956Y-101119088D02*
X105925956Y-101119088D01*
X106179956Y-101119088D02*
X106179956Y-100230088D01*
X106179956Y-100230088D02*
X106095289Y-100357088D01*
X106095289Y-100357088D02*
X106010623Y-100441755D01*
X106010623Y-100441755D02*
X105925956Y-100484088D01*
X93556155Y-72078421D02*
X93513822Y-72120755D01*
X93513822Y-72120755D02*
X93386822Y-72163088D01*
X93386822Y-72163088D02*
X93302155Y-72163088D01*
X93302155Y-72163088D02*
X93175155Y-72120755D01*
X93175155Y-72120755D02*
X93090489Y-72036088D01*
X93090489Y-72036088D02*
X93048155Y-71951421D01*
X93048155Y-71951421D02*
X93005822Y-71782088D01*
X93005822Y-71782088D02*
X93005822Y-71655088D01*
X93005822Y-71655088D02*
X93048155Y-71485755D01*
X93048155Y-71485755D02*
X93090489Y-71401088D01*
X93090489Y-71401088D02*
X93175155Y-71316421D01*
X93175155Y-71316421D02*
X93302155Y-71274088D01*
X93302155Y-71274088D02*
X93386822Y-71274088D01*
X93386822Y-71274088D02*
X93513822Y-71316421D01*
X93513822Y-71316421D02*
X93556155Y-71358755D01*
X93894822Y-71358755D02*
X93937155Y-71316421D01*
X93937155Y-71316421D02*
X94021822Y-71274088D01*
X94021822Y-71274088D02*
X94233489Y-71274088D01*
X94233489Y-71274088D02*
X94318155Y-71316421D01*
X94318155Y-71316421D02*
X94360489Y-71358755D01*
X94360489Y-71358755D02*
X94402822Y-71443421D01*
X94402822Y-71443421D02*
X94402822Y-71528088D01*
X94402822Y-71528088D02*
X94360489Y-71655088D01*
X94360489Y-71655088D02*
X93852489Y-72163088D01*
X93852489Y-72163088D02*
X94402822Y-72163088D01*
X94699156Y-71274088D02*
X95291822Y-71274088D01*
X95291822Y-71274088D02*
X94910822Y-72163088D01*
X112576522Y-78030488D02*
X112576522Y-78750155D01*
X112576522Y-78750155D02*
X112618856Y-78834821D01*
X112618856Y-78834821D02*
X112661189Y-78877155D01*
X112661189Y-78877155D02*
X112745856Y-78919488D01*
X112745856Y-78919488D02*
X112915189Y-78919488D01*
X112915189Y-78919488D02*
X112999856Y-78877155D01*
X112999856Y-78877155D02*
X113042189Y-78834821D01*
X113042189Y-78834821D02*
X113084522Y-78750155D01*
X113084522Y-78750155D02*
X113084522Y-78030488D01*
X113888855Y-78030488D02*
X113719522Y-78030488D01*
X113719522Y-78030488D02*
X113634855Y-78072821D01*
X113634855Y-78072821D02*
X113592522Y-78115155D01*
X113592522Y-78115155D02*
X113507855Y-78242155D01*
X113507855Y-78242155D02*
X113465522Y-78411488D01*
X113465522Y-78411488D02*
X113465522Y-78750155D01*
X113465522Y-78750155D02*
X113507855Y-78834821D01*
X113507855Y-78834821D02*
X113550189Y-78877155D01*
X113550189Y-78877155D02*
X113634855Y-78919488D01*
X113634855Y-78919488D02*
X113804189Y-78919488D01*
X113804189Y-78919488D02*
X113888855Y-78877155D01*
X113888855Y-78877155D02*
X113931189Y-78834821D01*
X113931189Y-78834821D02*
X113973522Y-78750155D01*
X113973522Y-78750155D02*
X113973522Y-78538488D01*
X113973522Y-78538488D02*
X113931189Y-78453821D01*
X113931189Y-78453821D02*
X113888855Y-78411488D01*
X113888855Y-78411488D02*
X113804189Y-78369155D01*
X113804189Y-78369155D02*
X113634855Y-78369155D01*
X113634855Y-78369155D02*
X113550189Y-78411488D01*
X113550189Y-78411488D02*
X113507855Y-78453821D01*
X113507855Y-78453821D02*
X113465522Y-78538488D01*
X74160200Y-86436710D02*
X73736867Y-86733043D01*
X74160200Y-86944710D02*
X73271200Y-86944710D01*
X73271200Y-86944710D02*
X73271200Y-86606043D01*
X73271200Y-86606043D02*
X73313533Y-86521377D01*
X73313533Y-86521377D02*
X73355867Y-86479043D01*
X73355867Y-86479043D02*
X73440533Y-86436710D01*
X73440533Y-86436710D02*
X73567533Y-86436710D01*
X73567533Y-86436710D02*
X73652200Y-86479043D01*
X73652200Y-86479043D02*
X73694533Y-86521377D01*
X73694533Y-86521377D02*
X73736867Y-86606043D01*
X73736867Y-86606043D02*
X73736867Y-86944710D01*
X74160200Y-86013377D02*
X74160200Y-85844043D01*
X74160200Y-85844043D02*
X74117867Y-85759377D01*
X74117867Y-85759377D02*
X74075533Y-85717043D01*
X74075533Y-85717043D02*
X73948533Y-85632377D01*
X73948533Y-85632377D02*
X73779200Y-85590043D01*
X73779200Y-85590043D02*
X73440533Y-85590043D01*
X73440533Y-85590043D02*
X73355867Y-85632377D01*
X73355867Y-85632377D02*
X73313533Y-85674710D01*
X73313533Y-85674710D02*
X73271200Y-85759377D01*
X73271200Y-85759377D02*
X73271200Y-85928710D01*
X73271200Y-85928710D02*
X73313533Y-86013377D01*
X73313533Y-86013377D02*
X73355867Y-86055710D01*
X73355867Y-86055710D02*
X73440533Y-86098043D01*
X73440533Y-86098043D02*
X73652200Y-86098043D01*
X73652200Y-86098043D02*
X73736867Y-86055710D01*
X73736867Y-86055710D02*
X73779200Y-86013377D01*
X73779200Y-86013377D02*
X73821533Y-85928710D01*
X73821533Y-85928710D02*
X73821533Y-85759377D01*
X73821533Y-85759377D02*
X73779200Y-85674710D01*
X73779200Y-85674710D02*
X73736867Y-85632377D01*
X73736867Y-85632377D02*
X73652200Y-85590043D01*
X104579755Y-74770821D02*
X104537422Y-74813155D01*
X104537422Y-74813155D02*
X104410422Y-74855488D01*
X104410422Y-74855488D02*
X104325755Y-74855488D01*
X104325755Y-74855488D02*
X104198755Y-74813155D01*
X104198755Y-74813155D02*
X104114089Y-74728488D01*
X104114089Y-74728488D02*
X104071755Y-74643821D01*
X104071755Y-74643821D02*
X104029422Y-74474488D01*
X104029422Y-74474488D02*
X104029422Y-74347488D01*
X104029422Y-74347488D02*
X104071755Y-74178155D01*
X104071755Y-74178155D02*
X104114089Y-74093488D01*
X104114089Y-74093488D02*
X104198755Y-74008821D01*
X104198755Y-74008821D02*
X104325755Y-73966488D01*
X104325755Y-73966488D02*
X104410422Y-73966488D01*
X104410422Y-73966488D02*
X104537422Y-74008821D01*
X104537422Y-74008821D02*
X104579755Y-74051155D01*
X104876089Y-73966488D02*
X105426422Y-73966488D01*
X105426422Y-73966488D02*
X105130089Y-74305155D01*
X105130089Y-74305155D02*
X105257089Y-74305155D01*
X105257089Y-74305155D02*
X105341755Y-74347488D01*
X105341755Y-74347488D02*
X105384089Y-74389821D01*
X105384089Y-74389821D02*
X105426422Y-74474488D01*
X105426422Y-74474488D02*
X105426422Y-74686155D01*
X105426422Y-74686155D02*
X105384089Y-74770821D01*
X105384089Y-74770821D02*
X105341755Y-74813155D01*
X105341755Y-74813155D02*
X105257089Y-74855488D01*
X105257089Y-74855488D02*
X105003089Y-74855488D01*
X105003089Y-74855488D02*
X104918422Y-74813155D01*
X104918422Y-74813155D02*
X104876089Y-74770821D01*
X105976756Y-73966488D02*
X106061422Y-73966488D01*
X106061422Y-73966488D02*
X106146089Y-74008821D01*
X106146089Y-74008821D02*
X106188422Y-74051155D01*
X106188422Y-74051155D02*
X106230756Y-74135821D01*
X106230756Y-74135821D02*
X106273089Y-74305155D01*
X106273089Y-74305155D02*
X106273089Y-74516821D01*
X106273089Y-74516821D02*
X106230756Y-74686155D01*
X106230756Y-74686155D02*
X106188422Y-74770821D01*
X106188422Y-74770821D02*
X106146089Y-74813155D01*
X106146089Y-74813155D02*
X106061422Y-74855488D01*
X106061422Y-74855488D02*
X105976756Y-74855488D01*
X105976756Y-74855488D02*
X105892089Y-74813155D01*
X105892089Y-74813155D02*
X105849756Y-74770821D01*
X105849756Y-74770821D02*
X105807422Y-74686155D01*
X105807422Y-74686155D02*
X105765089Y-74516821D01*
X105765089Y-74516821D02*
X105765089Y-74305155D01*
X105765089Y-74305155D02*
X105807422Y-74135821D01*
X105807422Y-74135821D02*
X105849756Y-74051155D01*
X105849756Y-74051155D02*
X105892089Y-74008821D01*
X105892089Y-74008821D02*
X105976756Y-73966488D01*
X53949089Y-118289488D02*
X53949089Y-117400488D01*
X53949089Y-117400488D02*
X54160756Y-117400488D01*
X54160756Y-117400488D02*
X54287756Y-117442821D01*
X54287756Y-117442821D02*
X54372423Y-117527488D01*
X54372423Y-117527488D02*
X54414756Y-117612155D01*
X54414756Y-117612155D02*
X54457089Y-117781488D01*
X54457089Y-117781488D02*
X54457089Y-117908488D01*
X54457089Y-117908488D02*
X54414756Y-118077821D01*
X54414756Y-118077821D02*
X54372423Y-118162488D01*
X54372423Y-118162488D02*
X54287756Y-118247155D01*
X54287756Y-118247155D02*
X54160756Y-118289488D01*
X54160756Y-118289488D02*
X53949089Y-118289488D01*
X55219089Y-117696821D02*
X55219089Y-118289488D01*
X55007423Y-117358155D02*
X54795756Y-117993155D01*
X54795756Y-117993155D02*
X55346089Y-117993155D01*
X78519355Y-90019288D02*
X78223022Y-89595955D01*
X78011355Y-90019288D02*
X78011355Y-89130288D01*
X78011355Y-89130288D02*
X78350022Y-89130288D01*
X78350022Y-89130288D02*
X78434689Y-89172621D01*
X78434689Y-89172621D02*
X78477022Y-89214955D01*
X78477022Y-89214955D02*
X78519355Y-89299621D01*
X78519355Y-89299621D02*
X78519355Y-89426621D01*
X78519355Y-89426621D02*
X78477022Y-89511288D01*
X78477022Y-89511288D02*
X78434689Y-89553621D01*
X78434689Y-89553621D02*
X78350022Y-89595955D01*
X78350022Y-89595955D02*
X78011355Y-89595955D01*
X79366022Y-90019288D02*
X78858022Y-90019288D01*
X79112022Y-90019288D02*
X79112022Y-89130288D01*
X79112022Y-89130288D02*
X79027355Y-89257288D01*
X79027355Y-89257288D02*
X78942689Y-89341955D01*
X78942689Y-89341955D02*
X78858022Y-89384288D01*
X80212689Y-90019288D02*
X79704689Y-90019288D01*
X79958689Y-90019288D02*
X79958689Y-89130288D01*
X79958689Y-89130288D02*
X79874022Y-89257288D01*
X79874022Y-89257288D02*
X79789356Y-89341955D01*
X79789356Y-89341955D02*
X79704689Y-89384288D01*
X99114522Y-76252488D02*
X99114522Y-76972155D01*
X99114522Y-76972155D02*
X99156856Y-77056821D01*
X99156856Y-77056821D02*
X99199189Y-77099155D01*
X99199189Y-77099155D02*
X99283856Y-77141488D01*
X99283856Y-77141488D02*
X99453189Y-77141488D01*
X99453189Y-77141488D02*
X99537856Y-77099155D01*
X99537856Y-77099155D02*
X99580189Y-77056821D01*
X99580189Y-77056821D02*
X99622522Y-76972155D01*
X99622522Y-76972155D02*
X99622522Y-76252488D01*
X100469189Y-76252488D02*
X100045855Y-76252488D01*
X100045855Y-76252488D02*
X100003522Y-76675821D01*
X100003522Y-76675821D02*
X100045855Y-76633488D01*
X100045855Y-76633488D02*
X100130522Y-76591155D01*
X100130522Y-76591155D02*
X100342189Y-76591155D01*
X100342189Y-76591155D02*
X100426855Y-76633488D01*
X100426855Y-76633488D02*
X100469189Y-76675821D01*
X100469189Y-76675821D02*
X100511522Y-76760488D01*
X100511522Y-76760488D02*
X100511522Y-76972155D01*
X100511522Y-76972155D02*
X100469189Y-77056821D01*
X100469189Y-77056821D02*
X100426855Y-77099155D01*
X100426855Y-77099155D02*
X100342189Y-77141488D01*
X100342189Y-77141488D02*
X100130522Y-77141488D01*
X100130522Y-77141488D02*
X100045855Y-77099155D01*
X100045855Y-77099155D02*
X100003522Y-77056821D01*
X75481000Y-86529844D02*
X75057667Y-86826177D01*
X75481000Y-87037844D02*
X74592000Y-87037844D01*
X74592000Y-87037844D02*
X74592000Y-86699177D01*
X74592000Y-86699177D02*
X74634333Y-86614511D01*
X74634333Y-86614511D02*
X74676667Y-86572177D01*
X74676667Y-86572177D02*
X74761333Y-86529844D01*
X74761333Y-86529844D02*
X74888333Y-86529844D01*
X74888333Y-86529844D02*
X74973000Y-86572177D01*
X74973000Y-86572177D02*
X75015333Y-86614511D01*
X75015333Y-86614511D02*
X75057667Y-86699177D01*
X75057667Y-86699177D02*
X75057667Y-87037844D01*
X75481000Y-85683177D02*
X75481000Y-86191177D01*
X75481000Y-85937177D02*
X74592000Y-85937177D01*
X74592000Y-85937177D02*
X74719000Y-86021844D01*
X74719000Y-86021844D02*
X74803667Y-86106511D01*
X74803667Y-86106511D02*
X74846000Y-86191177D01*
X74592000Y-85386844D02*
X74592000Y-84836510D01*
X74592000Y-84836510D02*
X74930667Y-85132844D01*
X74930667Y-85132844D02*
X74930667Y-85005844D01*
X74930667Y-85005844D02*
X74973000Y-84921177D01*
X74973000Y-84921177D02*
X75015333Y-84878844D01*
X75015333Y-84878844D02*
X75100000Y-84836510D01*
X75100000Y-84836510D02*
X75311667Y-84836510D01*
X75311667Y-84836510D02*
X75396333Y-84878844D01*
X75396333Y-84878844D02*
X75438667Y-84921177D01*
X75438667Y-84921177D02*
X75481000Y-85005844D01*
X75481000Y-85005844D02*
X75481000Y-85259844D01*
X75481000Y-85259844D02*
X75438667Y-85344510D01*
X75438667Y-85344510D02*
X75396333Y-85386844D01*
X122969355Y-109848221D02*
X122927022Y-109890555D01*
X122927022Y-109890555D02*
X122800022Y-109932888D01*
X122800022Y-109932888D02*
X122715355Y-109932888D01*
X122715355Y-109932888D02*
X122588355Y-109890555D01*
X122588355Y-109890555D02*
X122503689Y-109805888D01*
X122503689Y-109805888D02*
X122461355Y-109721221D01*
X122461355Y-109721221D02*
X122419022Y-109551888D01*
X122419022Y-109551888D02*
X122419022Y-109424888D01*
X122419022Y-109424888D02*
X122461355Y-109255555D01*
X122461355Y-109255555D02*
X122503689Y-109170888D01*
X122503689Y-109170888D02*
X122588355Y-109086221D01*
X122588355Y-109086221D02*
X122715355Y-109043888D01*
X122715355Y-109043888D02*
X122800022Y-109043888D01*
X122800022Y-109043888D02*
X122927022Y-109086221D01*
X122927022Y-109086221D02*
X122969355Y-109128555D01*
X123816022Y-109932888D02*
X123308022Y-109932888D01*
X123562022Y-109932888D02*
X123562022Y-109043888D01*
X123562022Y-109043888D02*
X123477355Y-109170888D01*
X123477355Y-109170888D02*
X123392689Y-109255555D01*
X123392689Y-109255555D02*
X123308022Y-109297888D01*
X124662689Y-109932888D02*
X124154689Y-109932888D01*
X124408689Y-109932888D02*
X124408689Y-109043888D01*
X124408689Y-109043888D02*
X124324022Y-109170888D01*
X124324022Y-109170888D02*
X124239356Y-109255555D01*
X124239356Y-109255555D02*
X124154689Y-109297888D01*
X108034155Y-81146221D02*
X107991822Y-81188555D01*
X107991822Y-81188555D02*
X107864822Y-81230888D01*
X107864822Y-81230888D02*
X107780155Y-81230888D01*
X107780155Y-81230888D02*
X107653155Y-81188555D01*
X107653155Y-81188555D02*
X107568489Y-81103888D01*
X107568489Y-81103888D02*
X107526155Y-81019221D01*
X107526155Y-81019221D02*
X107483822Y-80849888D01*
X107483822Y-80849888D02*
X107483822Y-80722888D01*
X107483822Y-80722888D02*
X107526155Y-80553555D01*
X107526155Y-80553555D02*
X107568489Y-80468888D01*
X107568489Y-80468888D02*
X107653155Y-80384221D01*
X107653155Y-80384221D02*
X107780155Y-80341888D01*
X107780155Y-80341888D02*
X107864822Y-80341888D01*
X107864822Y-80341888D02*
X107991822Y-80384221D01*
X107991822Y-80384221D02*
X108034155Y-80426555D01*
X108372822Y-80426555D02*
X108415155Y-80384221D01*
X108415155Y-80384221D02*
X108499822Y-80341888D01*
X108499822Y-80341888D02*
X108711489Y-80341888D01*
X108711489Y-80341888D02*
X108796155Y-80384221D01*
X108796155Y-80384221D02*
X108838489Y-80426555D01*
X108838489Y-80426555D02*
X108880822Y-80511221D01*
X108880822Y-80511221D02*
X108880822Y-80595888D01*
X108880822Y-80595888D02*
X108838489Y-80722888D01*
X108838489Y-80722888D02*
X108330489Y-81230888D01*
X108330489Y-81230888D02*
X108880822Y-81230888D01*
X109304156Y-81230888D02*
X109473489Y-81230888D01*
X109473489Y-81230888D02*
X109558156Y-81188555D01*
X109558156Y-81188555D02*
X109600489Y-81146221D01*
X109600489Y-81146221D02*
X109685156Y-81019221D01*
X109685156Y-81019221D02*
X109727489Y-80849888D01*
X109727489Y-80849888D02*
X109727489Y-80511221D01*
X109727489Y-80511221D02*
X109685156Y-80426555D01*
X109685156Y-80426555D02*
X109642822Y-80384221D01*
X109642822Y-80384221D02*
X109558156Y-80341888D01*
X109558156Y-80341888D02*
X109388822Y-80341888D01*
X109388822Y-80341888D02*
X109304156Y-80384221D01*
X109304156Y-80384221D02*
X109261822Y-80426555D01*
X109261822Y-80426555D02*
X109219489Y-80511221D01*
X109219489Y-80511221D02*
X109219489Y-80722888D01*
X109219489Y-80722888D02*
X109261822Y-80807555D01*
X109261822Y-80807555D02*
X109304156Y-80849888D01*
X109304156Y-80849888D02*
X109388822Y-80892221D01*
X109388822Y-80892221D02*
X109558156Y-80892221D01*
X109558156Y-80892221D02*
X109642822Y-80849888D01*
X109642822Y-80849888D02*
X109685156Y-80807555D01*
X109685156Y-80807555D02*
X109727489Y-80722888D01*
X54414755Y-116613088D02*
X54118422Y-116189755D01*
X53906755Y-116613088D02*
X53906755Y-115724088D01*
X53906755Y-115724088D02*
X54245422Y-115724088D01*
X54245422Y-115724088D02*
X54330089Y-115766421D01*
X54330089Y-115766421D02*
X54372422Y-115808755D01*
X54372422Y-115808755D02*
X54414755Y-115893421D01*
X54414755Y-115893421D02*
X54414755Y-116020421D01*
X54414755Y-116020421D02*
X54372422Y-116105088D01*
X54372422Y-116105088D02*
X54330089Y-116147421D01*
X54330089Y-116147421D02*
X54245422Y-116189755D01*
X54245422Y-116189755D02*
X53906755Y-116189755D01*
X55261422Y-116613088D02*
X54753422Y-116613088D01*
X55007422Y-116613088D02*
X55007422Y-115724088D01*
X55007422Y-115724088D02*
X54922755Y-115851088D01*
X54922755Y-115851088D02*
X54838089Y-115935755D01*
X54838089Y-115935755D02*
X54753422Y-115978088D01*
X56023422Y-116020421D02*
X56023422Y-116613088D01*
X55811756Y-115681755D02*
X55600089Y-116316755D01*
X55600089Y-116316755D02*
X56150422Y-116316755D01*
X105163955Y-63036021D02*
X105121622Y-63078355D01*
X105121622Y-63078355D02*
X104994622Y-63120688D01*
X104994622Y-63120688D02*
X104909955Y-63120688D01*
X104909955Y-63120688D02*
X104782955Y-63078355D01*
X104782955Y-63078355D02*
X104698289Y-62993688D01*
X104698289Y-62993688D02*
X104655955Y-62909021D01*
X104655955Y-62909021D02*
X104613622Y-62739688D01*
X104613622Y-62739688D02*
X104613622Y-62612688D01*
X104613622Y-62612688D02*
X104655955Y-62443355D01*
X104655955Y-62443355D02*
X104698289Y-62358688D01*
X104698289Y-62358688D02*
X104782955Y-62274021D01*
X104782955Y-62274021D02*
X104909955Y-62231688D01*
X104909955Y-62231688D02*
X104994622Y-62231688D01*
X104994622Y-62231688D02*
X105121622Y-62274021D01*
X105121622Y-62274021D02*
X105163955Y-62316355D01*
X105502622Y-62316355D02*
X105544955Y-62274021D01*
X105544955Y-62274021D02*
X105629622Y-62231688D01*
X105629622Y-62231688D02*
X105841289Y-62231688D01*
X105841289Y-62231688D02*
X105925955Y-62274021D01*
X105925955Y-62274021D02*
X105968289Y-62316355D01*
X105968289Y-62316355D02*
X106010622Y-62401021D01*
X106010622Y-62401021D02*
X106010622Y-62485688D01*
X106010622Y-62485688D02*
X105968289Y-62612688D01*
X105968289Y-62612688D02*
X105460289Y-63120688D01*
X105460289Y-63120688D02*
X106010622Y-63120688D01*
X106772622Y-62528021D02*
X106772622Y-63120688D01*
X106560956Y-62189355D02*
X106349289Y-62824355D01*
X106349289Y-62824355D02*
X106899622Y-62824355D01*
X130915322Y-57558088D02*
X130915322Y-58193088D01*
X130915322Y-58193088D02*
X130872989Y-58320088D01*
X130872989Y-58320088D02*
X130788322Y-58404755D01*
X130788322Y-58404755D02*
X130661322Y-58447088D01*
X130661322Y-58447088D02*
X130576656Y-58447088D01*
X131296322Y-57642755D02*
X131338655Y-57600421D01*
X131338655Y-57600421D02*
X131423322Y-57558088D01*
X131423322Y-57558088D02*
X131634989Y-57558088D01*
X131634989Y-57558088D02*
X131719655Y-57600421D01*
X131719655Y-57600421D02*
X131761989Y-57642755D01*
X131761989Y-57642755D02*
X131804322Y-57727421D01*
X131804322Y-57727421D02*
X131804322Y-57812088D01*
X131804322Y-57812088D02*
X131761989Y-57939088D01*
X131761989Y-57939088D02*
X131253989Y-58447088D01*
X131253989Y-58447088D02*
X131804322Y-58447088D01*
X74370689Y-76709688D02*
X73947355Y-76709688D01*
X73947355Y-76709688D02*
X73947355Y-75820688D01*
X74624689Y-75905355D02*
X74667022Y-75863021D01*
X74667022Y-75863021D02*
X74751689Y-75820688D01*
X74751689Y-75820688D02*
X74963356Y-75820688D01*
X74963356Y-75820688D02*
X75048022Y-75863021D01*
X75048022Y-75863021D02*
X75090356Y-75905355D01*
X75090356Y-75905355D02*
X75132689Y-75990021D01*
X75132689Y-75990021D02*
X75132689Y-76074688D01*
X75132689Y-76074688D02*
X75090356Y-76201688D01*
X75090356Y-76201688D02*
X74582356Y-76709688D01*
X74582356Y-76709688D02*
X75132689Y-76709688D01*
X63296289Y-110288488D02*
X63296289Y-109399488D01*
X63296289Y-109399488D02*
X63507956Y-109399488D01*
X63507956Y-109399488D02*
X63634956Y-109441821D01*
X63634956Y-109441821D02*
X63719623Y-109526488D01*
X63719623Y-109526488D02*
X63761956Y-109611155D01*
X63761956Y-109611155D02*
X63804289Y-109780488D01*
X63804289Y-109780488D02*
X63804289Y-109907488D01*
X63804289Y-109907488D02*
X63761956Y-110076821D01*
X63761956Y-110076821D02*
X63719623Y-110161488D01*
X63719623Y-110161488D02*
X63634956Y-110246155D01*
X63634956Y-110246155D02*
X63507956Y-110288488D01*
X63507956Y-110288488D02*
X63296289Y-110288488D01*
X64100623Y-109399488D02*
X64650956Y-109399488D01*
X64650956Y-109399488D02*
X64354623Y-109738155D01*
X64354623Y-109738155D02*
X64481623Y-109738155D01*
X64481623Y-109738155D02*
X64566289Y-109780488D01*
X64566289Y-109780488D02*
X64608623Y-109822821D01*
X64608623Y-109822821D02*
X64650956Y-109907488D01*
X64650956Y-109907488D02*
X64650956Y-110119155D01*
X64650956Y-110119155D02*
X64608623Y-110203821D01*
X64608623Y-110203821D02*
X64566289Y-110246155D01*
X64566289Y-110246155D02*
X64481623Y-110288488D01*
X64481623Y-110288488D02*
X64227623Y-110288488D01*
X64227623Y-110288488D02*
X64142956Y-110246155D01*
X64142956Y-110246155D02*
X64100623Y-110203821D01*
X93725489Y-115444688D02*
X93429156Y-115021355D01*
X93217489Y-115444688D02*
X93217489Y-114555688D01*
X93217489Y-114555688D02*
X93556156Y-114555688D01*
X93556156Y-114555688D02*
X93640823Y-114598021D01*
X93640823Y-114598021D02*
X93683156Y-114640355D01*
X93683156Y-114640355D02*
X93725489Y-114725021D01*
X93725489Y-114725021D02*
X93725489Y-114852021D01*
X93725489Y-114852021D02*
X93683156Y-114936688D01*
X93683156Y-114936688D02*
X93640823Y-114979021D01*
X93640823Y-114979021D02*
X93556156Y-115021355D01*
X93556156Y-115021355D02*
X93217489Y-115021355D01*
X94487489Y-114852021D02*
X94487489Y-115444688D01*
X94275823Y-114513355D02*
X94064156Y-115148355D01*
X94064156Y-115148355D02*
X94614489Y-115148355D01*
X109829089Y-94718288D02*
X109405755Y-94718288D01*
X109405755Y-94718288D02*
X109405755Y-93829288D01*
X110591089Y-94718288D02*
X110083089Y-94718288D01*
X110337089Y-94718288D02*
X110337089Y-93829288D01*
X110337089Y-93829288D02*
X110252422Y-93956288D01*
X110252422Y-93956288D02*
X110167756Y-94040955D01*
X110167756Y-94040955D02*
X110083089Y-94083288D01*
X104859155Y-71494221D02*
X104816822Y-71536555D01*
X104816822Y-71536555D02*
X104689822Y-71578888D01*
X104689822Y-71578888D02*
X104605155Y-71578888D01*
X104605155Y-71578888D02*
X104478155Y-71536555D01*
X104478155Y-71536555D02*
X104393489Y-71451888D01*
X104393489Y-71451888D02*
X104351155Y-71367221D01*
X104351155Y-71367221D02*
X104308822Y-71197888D01*
X104308822Y-71197888D02*
X104308822Y-71070888D01*
X104308822Y-71070888D02*
X104351155Y-70901555D01*
X104351155Y-70901555D02*
X104393489Y-70816888D01*
X104393489Y-70816888D02*
X104478155Y-70732221D01*
X104478155Y-70732221D02*
X104605155Y-70689888D01*
X104605155Y-70689888D02*
X104689822Y-70689888D01*
X104689822Y-70689888D02*
X104816822Y-70732221D01*
X104816822Y-70732221D02*
X104859155Y-70774555D01*
X105197822Y-70774555D02*
X105240155Y-70732221D01*
X105240155Y-70732221D02*
X105324822Y-70689888D01*
X105324822Y-70689888D02*
X105536489Y-70689888D01*
X105536489Y-70689888D02*
X105621155Y-70732221D01*
X105621155Y-70732221D02*
X105663489Y-70774555D01*
X105663489Y-70774555D02*
X105705822Y-70859221D01*
X105705822Y-70859221D02*
X105705822Y-70943888D01*
X105705822Y-70943888D02*
X105663489Y-71070888D01*
X105663489Y-71070888D02*
X105155489Y-71578888D01*
X105155489Y-71578888D02*
X105705822Y-71578888D01*
X106467822Y-70689888D02*
X106298489Y-70689888D01*
X106298489Y-70689888D02*
X106213822Y-70732221D01*
X106213822Y-70732221D02*
X106171489Y-70774555D01*
X106171489Y-70774555D02*
X106086822Y-70901555D01*
X106086822Y-70901555D02*
X106044489Y-71070888D01*
X106044489Y-71070888D02*
X106044489Y-71409555D01*
X106044489Y-71409555D02*
X106086822Y-71494221D01*
X106086822Y-71494221D02*
X106129156Y-71536555D01*
X106129156Y-71536555D02*
X106213822Y-71578888D01*
X106213822Y-71578888D02*
X106383156Y-71578888D01*
X106383156Y-71578888D02*
X106467822Y-71536555D01*
X106467822Y-71536555D02*
X106510156Y-71494221D01*
X106510156Y-71494221D02*
X106552489Y-71409555D01*
X106552489Y-71409555D02*
X106552489Y-71197888D01*
X106552489Y-71197888D02*
X106510156Y-71113221D01*
X106510156Y-71113221D02*
X106467822Y-71070888D01*
X106467822Y-71070888D02*
X106383156Y-71028555D01*
X106383156Y-71028555D02*
X106213822Y-71028555D01*
X106213822Y-71028555D02*
X106129156Y-71070888D01*
X106129156Y-71070888D02*
X106086822Y-71113221D01*
X106086822Y-71113221D02*
X106044489Y-71197888D01*
X61776522Y-114123888D02*
X61776522Y-114758888D01*
X61776522Y-114758888D02*
X61734189Y-114885888D01*
X61734189Y-114885888D02*
X61649522Y-114970555D01*
X61649522Y-114970555D02*
X61522522Y-115012888D01*
X61522522Y-115012888D02*
X61437856Y-115012888D01*
X62665522Y-115012888D02*
X62157522Y-115012888D01*
X62411522Y-115012888D02*
X62411522Y-114123888D01*
X62411522Y-114123888D02*
X62326855Y-114250888D01*
X62326855Y-114250888D02*
X62242189Y-114335555D01*
X62242189Y-114335555D02*
X62157522Y-114377888D01*
X98377922Y-100204688D02*
X98377922Y-100924355D01*
X98377922Y-100924355D02*
X98420256Y-101009021D01*
X98420256Y-101009021D02*
X98462589Y-101051355D01*
X98462589Y-101051355D02*
X98547256Y-101093688D01*
X98547256Y-101093688D02*
X98716589Y-101093688D01*
X98716589Y-101093688D02*
X98801256Y-101051355D01*
X98801256Y-101051355D02*
X98843589Y-101009021D01*
X98843589Y-101009021D02*
X98885922Y-100924355D01*
X98885922Y-100924355D02*
X98885922Y-100204688D01*
X99774922Y-101093688D02*
X99266922Y-101093688D01*
X99520922Y-101093688D02*
X99520922Y-100204688D01*
X99520922Y-100204688D02*
X99436255Y-100331688D01*
X99436255Y-100331688D02*
X99351589Y-100416355D01*
X99351589Y-100416355D02*
X99266922Y-100458688D01*
X93725489Y-113996888D02*
X93429156Y-113573555D01*
X93217489Y-113996888D02*
X93217489Y-113107888D01*
X93217489Y-113107888D02*
X93556156Y-113107888D01*
X93556156Y-113107888D02*
X93640823Y-113150221D01*
X93640823Y-113150221D02*
X93683156Y-113192555D01*
X93683156Y-113192555D02*
X93725489Y-113277221D01*
X93725489Y-113277221D02*
X93725489Y-113404221D01*
X93725489Y-113404221D02*
X93683156Y-113488888D01*
X93683156Y-113488888D02*
X93640823Y-113531221D01*
X93640823Y-113531221D02*
X93556156Y-113573555D01*
X93556156Y-113573555D02*
X93217489Y-113573555D01*
X94529823Y-113107888D02*
X94106489Y-113107888D01*
X94106489Y-113107888D02*
X94064156Y-113531221D01*
X94064156Y-113531221D02*
X94106489Y-113488888D01*
X94106489Y-113488888D02*
X94191156Y-113446555D01*
X94191156Y-113446555D02*
X94402823Y-113446555D01*
X94402823Y-113446555D02*
X94487489Y-113488888D01*
X94487489Y-113488888D02*
X94529823Y-113531221D01*
X94529823Y-113531221D02*
X94572156Y-113615888D01*
X94572156Y-113615888D02*
X94572156Y-113827555D01*
X94572156Y-113827555D02*
X94529823Y-113912221D01*
X94529823Y-113912221D02*
X94487489Y-113954555D01*
X94487489Y-113954555D02*
X94402823Y-113996888D01*
X94402823Y-113996888D02*
X94191156Y-113996888D01*
X94191156Y-113996888D02*
X94106489Y-113954555D01*
X94106489Y-113954555D02*
X94064156Y-113912221D01*
X101396289Y-99205621D02*
X101353956Y-99247955D01*
X101353956Y-99247955D02*
X101226956Y-99290288D01*
X101226956Y-99290288D02*
X101142289Y-99290288D01*
X101142289Y-99290288D02*
X101015289Y-99247955D01*
X101015289Y-99247955D02*
X100930623Y-99163288D01*
X100930623Y-99163288D02*
X100888289Y-99078621D01*
X100888289Y-99078621D02*
X100845956Y-98909288D01*
X100845956Y-98909288D02*
X100845956Y-98782288D01*
X100845956Y-98782288D02*
X100888289Y-98612955D01*
X100888289Y-98612955D02*
X100930623Y-98528288D01*
X100930623Y-98528288D02*
X101015289Y-98443621D01*
X101015289Y-98443621D02*
X101142289Y-98401288D01*
X101142289Y-98401288D02*
X101226956Y-98401288D01*
X101226956Y-98401288D02*
X101353956Y-98443621D01*
X101353956Y-98443621D02*
X101396289Y-98485955D01*
X101904289Y-98782288D02*
X101819623Y-98739955D01*
X101819623Y-98739955D02*
X101777289Y-98697621D01*
X101777289Y-98697621D02*
X101734956Y-98612955D01*
X101734956Y-98612955D02*
X101734956Y-98570621D01*
X101734956Y-98570621D02*
X101777289Y-98485955D01*
X101777289Y-98485955D02*
X101819623Y-98443621D01*
X101819623Y-98443621D02*
X101904289Y-98401288D01*
X101904289Y-98401288D02*
X102073623Y-98401288D01*
X102073623Y-98401288D02*
X102158289Y-98443621D01*
X102158289Y-98443621D02*
X102200623Y-98485955D01*
X102200623Y-98485955D02*
X102242956Y-98570621D01*
X102242956Y-98570621D02*
X102242956Y-98612955D01*
X102242956Y-98612955D02*
X102200623Y-98697621D01*
X102200623Y-98697621D02*
X102158289Y-98739955D01*
X102158289Y-98739955D02*
X102073623Y-98782288D01*
X102073623Y-98782288D02*
X101904289Y-98782288D01*
X101904289Y-98782288D02*
X101819623Y-98824621D01*
X101819623Y-98824621D02*
X101777289Y-98866955D01*
X101777289Y-98866955D02*
X101734956Y-98951621D01*
X101734956Y-98951621D02*
X101734956Y-99120955D01*
X101734956Y-99120955D02*
X101777289Y-99205621D01*
X101777289Y-99205621D02*
X101819623Y-99247955D01*
X101819623Y-99247955D02*
X101904289Y-99290288D01*
X101904289Y-99290288D02*
X102073623Y-99290288D01*
X102073623Y-99290288D02*
X102158289Y-99247955D01*
X102158289Y-99247955D02*
X102200623Y-99205621D01*
X102200623Y-99205621D02*
X102242956Y-99120955D01*
X102242956Y-99120955D02*
X102242956Y-98951621D01*
X102242956Y-98951621D02*
X102200623Y-98866955D01*
X102200623Y-98866955D02*
X102158289Y-98824621D01*
X102158289Y-98824621D02*
X102073623Y-98782288D01*
X84005755Y-60318221D02*
X83963422Y-60360555D01*
X83963422Y-60360555D02*
X83836422Y-60402888D01*
X83836422Y-60402888D02*
X83751755Y-60402888D01*
X83751755Y-60402888D02*
X83624755Y-60360555D01*
X83624755Y-60360555D02*
X83540089Y-60275888D01*
X83540089Y-60275888D02*
X83497755Y-60191221D01*
X83497755Y-60191221D02*
X83455422Y-60021888D01*
X83455422Y-60021888D02*
X83455422Y-59894888D01*
X83455422Y-59894888D02*
X83497755Y-59725555D01*
X83497755Y-59725555D02*
X83540089Y-59640888D01*
X83540089Y-59640888D02*
X83624755Y-59556221D01*
X83624755Y-59556221D02*
X83751755Y-59513888D01*
X83751755Y-59513888D02*
X83836422Y-59513888D01*
X83836422Y-59513888D02*
X83963422Y-59556221D01*
X83963422Y-59556221D02*
X84005755Y-59598555D01*
X84344422Y-59598555D02*
X84386755Y-59556221D01*
X84386755Y-59556221D02*
X84471422Y-59513888D01*
X84471422Y-59513888D02*
X84683089Y-59513888D01*
X84683089Y-59513888D02*
X84767755Y-59556221D01*
X84767755Y-59556221D02*
X84810089Y-59598555D01*
X84810089Y-59598555D02*
X84852422Y-59683221D01*
X84852422Y-59683221D02*
X84852422Y-59767888D01*
X84852422Y-59767888D02*
X84810089Y-59894888D01*
X84810089Y-59894888D02*
X84302089Y-60402888D01*
X84302089Y-60402888D02*
X84852422Y-60402888D01*
X85699089Y-60402888D02*
X85191089Y-60402888D01*
X85445089Y-60402888D02*
X85445089Y-59513888D01*
X85445089Y-59513888D02*
X85360422Y-59640888D01*
X85360422Y-59640888D02*
X85275756Y-59725555D01*
X85275756Y-59725555D02*
X85191089Y-59767888D01*
X91363289Y-109949821D02*
X91320956Y-109992155D01*
X91320956Y-109992155D02*
X91193956Y-110034488D01*
X91193956Y-110034488D02*
X91109289Y-110034488D01*
X91109289Y-110034488D02*
X90982289Y-109992155D01*
X90982289Y-109992155D02*
X90897623Y-109907488D01*
X90897623Y-109907488D02*
X90855289Y-109822821D01*
X90855289Y-109822821D02*
X90812956Y-109653488D01*
X90812956Y-109653488D02*
X90812956Y-109526488D01*
X90812956Y-109526488D02*
X90855289Y-109357155D01*
X90855289Y-109357155D02*
X90897623Y-109272488D01*
X90897623Y-109272488D02*
X90982289Y-109187821D01*
X90982289Y-109187821D02*
X91109289Y-109145488D01*
X91109289Y-109145488D02*
X91193956Y-109145488D01*
X91193956Y-109145488D02*
X91320956Y-109187821D01*
X91320956Y-109187821D02*
X91363289Y-109230155D01*
X92125289Y-109441821D02*
X92125289Y-110034488D01*
X91913623Y-109103155D02*
X91701956Y-109738155D01*
X91701956Y-109738155D02*
X92252289Y-109738155D01*
X118930755Y-88232821D02*
X118888422Y-88275155D01*
X118888422Y-88275155D02*
X118761422Y-88317488D01*
X118761422Y-88317488D02*
X118676755Y-88317488D01*
X118676755Y-88317488D02*
X118549755Y-88275155D01*
X118549755Y-88275155D02*
X118465089Y-88190488D01*
X118465089Y-88190488D02*
X118422755Y-88105821D01*
X118422755Y-88105821D02*
X118380422Y-87936488D01*
X118380422Y-87936488D02*
X118380422Y-87809488D01*
X118380422Y-87809488D02*
X118422755Y-87640155D01*
X118422755Y-87640155D02*
X118465089Y-87555488D01*
X118465089Y-87555488D02*
X118549755Y-87470821D01*
X118549755Y-87470821D02*
X118676755Y-87428488D01*
X118676755Y-87428488D02*
X118761422Y-87428488D01*
X118761422Y-87428488D02*
X118888422Y-87470821D01*
X118888422Y-87470821D02*
X118930755Y-87513155D01*
X119227089Y-87428488D02*
X119777422Y-87428488D01*
X119777422Y-87428488D02*
X119481089Y-87767155D01*
X119481089Y-87767155D02*
X119608089Y-87767155D01*
X119608089Y-87767155D02*
X119692755Y-87809488D01*
X119692755Y-87809488D02*
X119735089Y-87851821D01*
X119735089Y-87851821D02*
X119777422Y-87936488D01*
X119777422Y-87936488D02*
X119777422Y-88148155D01*
X119777422Y-88148155D02*
X119735089Y-88232821D01*
X119735089Y-88232821D02*
X119692755Y-88275155D01*
X119692755Y-88275155D02*
X119608089Y-88317488D01*
X119608089Y-88317488D02*
X119354089Y-88317488D01*
X119354089Y-88317488D02*
X119269422Y-88275155D01*
X119269422Y-88275155D02*
X119227089Y-88232821D01*
X120116089Y-87513155D02*
X120158422Y-87470821D01*
X120158422Y-87470821D02*
X120243089Y-87428488D01*
X120243089Y-87428488D02*
X120454756Y-87428488D01*
X120454756Y-87428488D02*
X120539422Y-87470821D01*
X120539422Y-87470821D02*
X120581756Y-87513155D01*
X120581756Y-87513155D02*
X120624089Y-87597821D01*
X120624089Y-87597821D02*
X120624089Y-87682488D01*
X120624089Y-87682488D02*
X120581756Y-87809488D01*
X120581756Y-87809488D02*
X120073756Y-88317488D01*
X120073756Y-88317488D02*
X120624089Y-88317488D01*
X42070866Y-122690688D02*
X42070866Y-121801688D01*
X42070866Y-122225021D02*
X42578866Y-122225021D01*
X42578866Y-122690688D02*
X42578866Y-121801688D01*
X42959866Y-121886355D02*
X43002199Y-121844021D01*
X43002199Y-121844021D02*
X43086866Y-121801688D01*
X43086866Y-121801688D02*
X43298533Y-121801688D01*
X43298533Y-121801688D02*
X43383199Y-121844021D01*
X43383199Y-121844021D02*
X43425533Y-121886355D01*
X43425533Y-121886355D02*
X43467866Y-121971021D01*
X43467866Y-121971021D02*
X43467866Y-122055688D01*
X43467866Y-122055688D02*
X43425533Y-122182688D01*
X43425533Y-122182688D02*
X42917533Y-122690688D01*
X42917533Y-122690688D02*
X43467866Y-122690688D01*
X93725489Y-112498288D02*
X93429156Y-112074955D01*
X93217489Y-112498288D02*
X93217489Y-111609288D01*
X93217489Y-111609288D02*
X93556156Y-111609288D01*
X93556156Y-111609288D02*
X93640823Y-111651621D01*
X93640823Y-111651621D02*
X93683156Y-111693955D01*
X93683156Y-111693955D02*
X93725489Y-111778621D01*
X93725489Y-111778621D02*
X93725489Y-111905621D01*
X93725489Y-111905621D02*
X93683156Y-111990288D01*
X93683156Y-111990288D02*
X93640823Y-112032621D01*
X93640823Y-112032621D02*
X93556156Y-112074955D01*
X93556156Y-112074955D02*
X93217489Y-112074955D01*
X94487489Y-111609288D02*
X94318156Y-111609288D01*
X94318156Y-111609288D02*
X94233489Y-111651621D01*
X94233489Y-111651621D02*
X94191156Y-111693955D01*
X94191156Y-111693955D02*
X94106489Y-111820955D01*
X94106489Y-111820955D02*
X94064156Y-111990288D01*
X94064156Y-111990288D02*
X94064156Y-112328955D01*
X94064156Y-112328955D02*
X94106489Y-112413621D01*
X94106489Y-112413621D02*
X94148823Y-112455955D01*
X94148823Y-112455955D02*
X94233489Y-112498288D01*
X94233489Y-112498288D02*
X94402823Y-112498288D01*
X94402823Y-112498288D02*
X94487489Y-112455955D01*
X94487489Y-112455955D02*
X94529823Y-112413621D01*
X94529823Y-112413621D02*
X94572156Y-112328955D01*
X94572156Y-112328955D02*
X94572156Y-112117288D01*
X94572156Y-112117288D02*
X94529823Y-112032621D01*
X94529823Y-112032621D02*
X94487489Y-111990288D01*
X94487489Y-111990288D02*
X94402823Y-111947955D01*
X94402823Y-111947955D02*
X94233489Y-111947955D01*
X94233489Y-111947955D02*
X94148823Y-111990288D01*
X94148823Y-111990288D02*
X94106489Y-112032621D01*
X94106489Y-112032621D02*
X94064156Y-112117288D01*
X79255955Y-61461221D02*
X79213622Y-61503555D01*
X79213622Y-61503555D02*
X79086622Y-61545888D01*
X79086622Y-61545888D02*
X79001955Y-61545888D01*
X79001955Y-61545888D02*
X78874955Y-61503555D01*
X78874955Y-61503555D02*
X78790289Y-61418888D01*
X78790289Y-61418888D02*
X78747955Y-61334221D01*
X78747955Y-61334221D02*
X78705622Y-61164888D01*
X78705622Y-61164888D02*
X78705622Y-61037888D01*
X78705622Y-61037888D02*
X78747955Y-60868555D01*
X78747955Y-60868555D02*
X78790289Y-60783888D01*
X78790289Y-60783888D02*
X78874955Y-60699221D01*
X78874955Y-60699221D02*
X79001955Y-60656888D01*
X79001955Y-60656888D02*
X79086622Y-60656888D01*
X79086622Y-60656888D02*
X79213622Y-60699221D01*
X79213622Y-60699221D02*
X79255955Y-60741555D01*
X79594622Y-60741555D02*
X79636955Y-60699221D01*
X79636955Y-60699221D02*
X79721622Y-60656888D01*
X79721622Y-60656888D02*
X79933289Y-60656888D01*
X79933289Y-60656888D02*
X80017955Y-60699221D01*
X80017955Y-60699221D02*
X80060289Y-60741555D01*
X80060289Y-60741555D02*
X80102622Y-60826221D01*
X80102622Y-60826221D02*
X80102622Y-60910888D01*
X80102622Y-60910888D02*
X80060289Y-61037888D01*
X80060289Y-61037888D02*
X79552289Y-61545888D01*
X79552289Y-61545888D02*
X80102622Y-61545888D01*
X80398956Y-60656888D02*
X80949289Y-60656888D01*
X80949289Y-60656888D02*
X80652956Y-60995555D01*
X80652956Y-60995555D02*
X80779956Y-60995555D01*
X80779956Y-60995555D02*
X80864622Y-61037888D01*
X80864622Y-61037888D02*
X80906956Y-61080221D01*
X80906956Y-61080221D02*
X80949289Y-61164888D01*
X80949289Y-61164888D02*
X80949289Y-61376555D01*
X80949289Y-61376555D02*
X80906956Y-61461221D01*
X80906956Y-61461221D02*
X80864622Y-61503555D01*
X80864622Y-61503555D02*
X80779956Y-61545888D01*
X80779956Y-61545888D02*
X80525956Y-61545888D01*
X80525956Y-61545888D02*
X80441289Y-61503555D01*
X80441289Y-61503555D02*
X80398956Y-61461221D01*
X81494889Y-102930122D02*
X81452556Y-102972456D01*
X81452556Y-102972456D02*
X81325556Y-103014789D01*
X81325556Y-103014789D02*
X81240889Y-103014789D01*
X81240889Y-103014789D02*
X81113889Y-102972456D01*
X81113889Y-102972456D02*
X81029223Y-102887789D01*
X81029223Y-102887789D02*
X80986889Y-102803122D01*
X80986889Y-102803122D02*
X80944556Y-102633789D01*
X80944556Y-102633789D02*
X80944556Y-102506789D01*
X80944556Y-102506789D02*
X80986889Y-102337456D01*
X80986889Y-102337456D02*
X81029223Y-102252789D01*
X81029223Y-102252789D02*
X81113889Y-102168122D01*
X81113889Y-102168122D02*
X81240889Y-102125789D01*
X81240889Y-102125789D02*
X81325556Y-102125789D01*
X81325556Y-102125789D02*
X81452556Y-102168122D01*
X81452556Y-102168122D02*
X81494889Y-102210456D01*
X81791223Y-102125789D02*
X82341556Y-102125789D01*
X82341556Y-102125789D02*
X82045223Y-102464456D01*
X82045223Y-102464456D02*
X82172223Y-102464456D01*
X82172223Y-102464456D02*
X82256889Y-102506789D01*
X82256889Y-102506789D02*
X82299223Y-102549122D01*
X82299223Y-102549122D02*
X82341556Y-102633789D01*
X82341556Y-102633789D02*
X82341556Y-102845456D01*
X82341556Y-102845456D02*
X82299223Y-102930122D01*
X82299223Y-102930122D02*
X82256889Y-102972456D01*
X82256889Y-102972456D02*
X82172223Y-103014789D01*
X82172223Y-103014789D02*
X81918223Y-103014789D01*
X81918223Y-103014789D02*
X81833556Y-102972456D01*
X81833556Y-102972456D02*
X81791223Y-102930122D01*
X62593555Y-93820821D02*
X62551222Y-93863155D01*
X62551222Y-93863155D02*
X62424222Y-93905488D01*
X62424222Y-93905488D02*
X62339555Y-93905488D01*
X62339555Y-93905488D02*
X62212555Y-93863155D01*
X62212555Y-93863155D02*
X62127889Y-93778488D01*
X62127889Y-93778488D02*
X62085555Y-93693821D01*
X62085555Y-93693821D02*
X62043222Y-93524488D01*
X62043222Y-93524488D02*
X62043222Y-93397488D01*
X62043222Y-93397488D02*
X62085555Y-93228155D01*
X62085555Y-93228155D02*
X62127889Y-93143488D01*
X62127889Y-93143488D02*
X62212555Y-93058821D01*
X62212555Y-93058821D02*
X62339555Y-93016488D01*
X62339555Y-93016488D02*
X62424222Y-93016488D01*
X62424222Y-93016488D02*
X62551222Y-93058821D01*
X62551222Y-93058821D02*
X62593555Y-93101155D01*
X63440222Y-93905488D02*
X62932222Y-93905488D01*
X63186222Y-93905488D02*
X63186222Y-93016488D01*
X63186222Y-93016488D02*
X63101555Y-93143488D01*
X63101555Y-93143488D02*
X63016889Y-93228155D01*
X63016889Y-93228155D02*
X62932222Y-93270488D01*
X64202222Y-93016488D02*
X64032889Y-93016488D01*
X64032889Y-93016488D02*
X63948222Y-93058821D01*
X63948222Y-93058821D02*
X63905889Y-93101155D01*
X63905889Y-93101155D02*
X63821222Y-93228155D01*
X63821222Y-93228155D02*
X63778889Y-93397488D01*
X63778889Y-93397488D02*
X63778889Y-93736155D01*
X63778889Y-93736155D02*
X63821222Y-93820821D01*
X63821222Y-93820821D02*
X63863556Y-93863155D01*
X63863556Y-93863155D02*
X63948222Y-93905488D01*
X63948222Y-93905488D02*
X64117556Y-93905488D01*
X64117556Y-93905488D02*
X64202222Y-93863155D01*
X64202222Y-93863155D02*
X64244556Y-93820821D01*
X64244556Y-93820821D02*
X64286889Y-93736155D01*
X64286889Y-93736155D02*
X64286889Y-93524488D01*
X64286889Y-93524488D02*
X64244556Y-93439821D01*
X64244556Y-93439821D02*
X64202222Y-93397488D01*
X64202222Y-93397488D02*
X64117556Y-93355155D01*
X64117556Y-93355155D02*
X63948222Y-93355155D01*
X63948222Y-93355155D02*
X63863556Y-93397488D01*
X63863556Y-93397488D02*
X63821222Y-93439821D01*
X63821222Y-93439821D02*
X63778889Y-93524488D01*
X134725322Y-51690688D02*
X134725322Y-50801688D01*
X134725322Y-51225021D02*
X135233322Y-51225021D01*
X135233322Y-51690688D02*
X135233322Y-50801688D01*
X135571989Y-50801688D02*
X136122322Y-50801688D01*
X136122322Y-50801688D02*
X135825989Y-51140355D01*
X135825989Y-51140355D02*
X135952989Y-51140355D01*
X135952989Y-51140355D02*
X136037655Y-51182688D01*
X136037655Y-51182688D02*
X136079989Y-51225021D01*
X136079989Y-51225021D02*
X136122322Y-51309688D01*
X136122322Y-51309688D02*
X136122322Y-51521355D01*
X136122322Y-51521355D02*
X136079989Y-51606021D01*
X136079989Y-51606021D02*
X136037655Y-51648355D01*
X136037655Y-51648355D02*
X135952989Y-51690688D01*
X135952989Y-51690688D02*
X135698989Y-51690688D01*
X135698989Y-51690688D02*
X135614322Y-51648355D01*
X135614322Y-51648355D02*
X135571989Y-51606021D01*
X110015355Y-90620421D02*
X109973022Y-90662755D01*
X109973022Y-90662755D02*
X109846022Y-90705088D01*
X109846022Y-90705088D02*
X109761355Y-90705088D01*
X109761355Y-90705088D02*
X109634355Y-90662755D01*
X109634355Y-90662755D02*
X109549689Y-90578088D01*
X109549689Y-90578088D02*
X109507355Y-90493421D01*
X109507355Y-90493421D02*
X109465022Y-90324088D01*
X109465022Y-90324088D02*
X109465022Y-90197088D01*
X109465022Y-90197088D02*
X109507355Y-90027755D01*
X109507355Y-90027755D02*
X109549689Y-89943088D01*
X109549689Y-89943088D02*
X109634355Y-89858421D01*
X109634355Y-89858421D02*
X109761355Y-89816088D01*
X109761355Y-89816088D02*
X109846022Y-89816088D01*
X109846022Y-89816088D02*
X109973022Y-89858421D01*
X109973022Y-89858421D02*
X110015355Y-89900755D01*
X110354022Y-89900755D02*
X110396355Y-89858421D01*
X110396355Y-89858421D02*
X110481022Y-89816088D01*
X110481022Y-89816088D02*
X110692689Y-89816088D01*
X110692689Y-89816088D02*
X110777355Y-89858421D01*
X110777355Y-89858421D02*
X110819689Y-89900755D01*
X110819689Y-89900755D02*
X110862022Y-89985421D01*
X110862022Y-89985421D02*
X110862022Y-90070088D01*
X110862022Y-90070088D02*
X110819689Y-90197088D01*
X110819689Y-90197088D02*
X110311689Y-90705088D01*
X110311689Y-90705088D02*
X110862022Y-90705088D01*
X111370022Y-90197088D02*
X111285356Y-90154755D01*
X111285356Y-90154755D02*
X111243022Y-90112421D01*
X111243022Y-90112421D02*
X111200689Y-90027755D01*
X111200689Y-90027755D02*
X111200689Y-89985421D01*
X111200689Y-89985421D02*
X111243022Y-89900755D01*
X111243022Y-89900755D02*
X111285356Y-89858421D01*
X111285356Y-89858421D02*
X111370022Y-89816088D01*
X111370022Y-89816088D02*
X111539356Y-89816088D01*
X111539356Y-89816088D02*
X111624022Y-89858421D01*
X111624022Y-89858421D02*
X111666356Y-89900755D01*
X111666356Y-89900755D02*
X111708689Y-89985421D01*
X111708689Y-89985421D02*
X111708689Y-90027755D01*
X111708689Y-90027755D02*
X111666356Y-90112421D01*
X111666356Y-90112421D02*
X111624022Y-90154755D01*
X111624022Y-90154755D02*
X111539356Y-90197088D01*
X111539356Y-90197088D02*
X111370022Y-90197088D01*
X111370022Y-90197088D02*
X111285356Y-90239421D01*
X111285356Y-90239421D02*
X111243022Y-90281755D01*
X111243022Y-90281755D02*
X111200689Y-90366421D01*
X111200689Y-90366421D02*
X111200689Y-90535755D01*
X111200689Y-90535755D02*
X111243022Y-90620421D01*
X111243022Y-90620421D02*
X111285356Y-90662755D01*
X111285356Y-90662755D02*
X111370022Y-90705088D01*
X111370022Y-90705088D02*
X111539356Y-90705088D01*
X111539356Y-90705088D02*
X111624022Y-90662755D01*
X111624022Y-90662755D02*
X111666356Y-90620421D01*
X111666356Y-90620421D02*
X111708689Y-90535755D01*
X111708689Y-90535755D02*
X111708689Y-90366421D01*
X111708689Y-90366421D02*
X111666356Y-90281755D01*
X111666356Y-90281755D02*
X111624022Y-90239421D01*
X111624022Y-90239421D02*
X111539356Y-90197088D01*
X89280489Y-97757821D02*
X89238156Y-97800155D01*
X89238156Y-97800155D02*
X89111156Y-97842488D01*
X89111156Y-97842488D02*
X89026489Y-97842488D01*
X89026489Y-97842488D02*
X88899489Y-97800155D01*
X88899489Y-97800155D02*
X88814823Y-97715488D01*
X88814823Y-97715488D02*
X88772489Y-97630821D01*
X88772489Y-97630821D02*
X88730156Y-97461488D01*
X88730156Y-97461488D02*
X88730156Y-97334488D01*
X88730156Y-97334488D02*
X88772489Y-97165155D01*
X88772489Y-97165155D02*
X88814823Y-97080488D01*
X88814823Y-97080488D02*
X88899489Y-96995821D01*
X88899489Y-96995821D02*
X89026489Y-96953488D01*
X89026489Y-96953488D02*
X89111156Y-96953488D01*
X89111156Y-96953488D02*
X89238156Y-96995821D01*
X89238156Y-96995821D02*
X89280489Y-97038155D01*
X90084823Y-96953488D02*
X89661489Y-96953488D01*
X89661489Y-96953488D02*
X89619156Y-97376821D01*
X89619156Y-97376821D02*
X89661489Y-97334488D01*
X89661489Y-97334488D02*
X89746156Y-97292155D01*
X89746156Y-97292155D02*
X89957823Y-97292155D01*
X89957823Y-97292155D02*
X90042489Y-97334488D01*
X90042489Y-97334488D02*
X90084823Y-97376821D01*
X90084823Y-97376821D02*
X90127156Y-97461488D01*
X90127156Y-97461488D02*
X90127156Y-97673155D01*
X90127156Y-97673155D02*
X90084823Y-97757821D01*
X90084823Y-97757821D02*
X90042489Y-97800155D01*
X90042489Y-97800155D02*
X89957823Y-97842488D01*
X89957823Y-97842488D02*
X89746156Y-97842488D01*
X89746156Y-97842488D02*
X89661489Y-97800155D01*
X89661489Y-97800155D02*
X89619156Y-97757821D01*
X92997355Y-58540221D02*
X92955022Y-58582555D01*
X92955022Y-58582555D02*
X92828022Y-58624888D01*
X92828022Y-58624888D02*
X92743355Y-58624888D01*
X92743355Y-58624888D02*
X92616355Y-58582555D01*
X92616355Y-58582555D02*
X92531689Y-58497888D01*
X92531689Y-58497888D02*
X92489355Y-58413221D01*
X92489355Y-58413221D02*
X92447022Y-58243888D01*
X92447022Y-58243888D02*
X92447022Y-58116888D01*
X92447022Y-58116888D02*
X92489355Y-57947555D01*
X92489355Y-57947555D02*
X92531689Y-57862888D01*
X92531689Y-57862888D02*
X92616355Y-57778221D01*
X92616355Y-57778221D02*
X92743355Y-57735888D01*
X92743355Y-57735888D02*
X92828022Y-57735888D01*
X92828022Y-57735888D02*
X92955022Y-57778221D01*
X92955022Y-57778221D02*
X92997355Y-57820555D01*
X93336022Y-57820555D02*
X93378355Y-57778221D01*
X93378355Y-57778221D02*
X93463022Y-57735888D01*
X93463022Y-57735888D02*
X93674689Y-57735888D01*
X93674689Y-57735888D02*
X93759355Y-57778221D01*
X93759355Y-57778221D02*
X93801689Y-57820555D01*
X93801689Y-57820555D02*
X93844022Y-57905221D01*
X93844022Y-57905221D02*
X93844022Y-57989888D01*
X93844022Y-57989888D02*
X93801689Y-58116888D01*
X93801689Y-58116888D02*
X93293689Y-58624888D01*
X93293689Y-58624888D02*
X93844022Y-58624888D01*
X94182689Y-57820555D02*
X94225022Y-57778221D01*
X94225022Y-57778221D02*
X94309689Y-57735888D01*
X94309689Y-57735888D02*
X94521356Y-57735888D01*
X94521356Y-57735888D02*
X94606022Y-57778221D01*
X94606022Y-57778221D02*
X94648356Y-57820555D01*
X94648356Y-57820555D02*
X94690689Y-57905221D01*
X94690689Y-57905221D02*
X94690689Y-57989888D01*
X94690689Y-57989888D02*
X94648356Y-58116888D01*
X94648356Y-58116888D02*
X94140356Y-58624888D01*
X94140356Y-58624888D02*
X94690689Y-58624888D01*
X97823355Y-57422621D02*
X97781022Y-57464955D01*
X97781022Y-57464955D02*
X97654022Y-57507288D01*
X97654022Y-57507288D02*
X97569355Y-57507288D01*
X97569355Y-57507288D02*
X97442355Y-57464955D01*
X97442355Y-57464955D02*
X97357689Y-57380288D01*
X97357689Y-57380288D02*
X97315355Y-57295621D01*
X97315355Y-57295621D02*
X97273022Y-57126288D01*
X97273022Y-57126288D02*
X97273022Y-56999288D01*
X97273022Y-56999288D02*
X97315355Y-56829955D01*
X97315355Y-56829955D02*
X97357689Y-56745288D01*
X97357689Y-56745288D02*
X97442355Y-56660621D01*
X97442355Y-56660621D02*
X97569355Y-56618288D01*
X97569355Y-56618288D02*
X97654022Y-56618288D01*
X97654022Y-56618288D02*
X97781022Y-56660621D01*
X97781022Y-56660621D02*
X97823355Y-56702955D01*
X98162022Y-56702955D02*
X98204355Y-56660621D01*
X98204355Y-56660621D02*
X98289022Y-56618288D01*
X98289022Y-56618288D02*
X98500689Y-56618288D01*
X98500689Y-56618288D02*
X98585355Y-56660621D01*
X98585355Y-56660621D02*
X98627689Y-56702955D01*
X98627689Y-56702955D02*
X98670022Y-56787621D01*
X98670022Y-56787621D02*
X98670022Y-56872288D01*
X98670022Y-56872288D02*
X98627689Y-56999288D01*
X98627689Y-56999288D02*
X98119689Y-57507288D01*
X98119689Y-57507288D02*
X98670022Y-57507288D01*
X99220356Y-56618288D02*
X99305022Y-56618288D01*
X99305022Y-56618288D02*
X99389689Y-56660621D01*
X99389689Y-56660621D02*
X99432022Y-56702955D01*
X99432022Y-56702955D02*
X99474356Y-56787621D01*
X99474356Y-56787621D02*
X99516689Y-56956955D01*
X99516689Y-56956955D02*
X99516689Y-57168621D01*
X99516689Y-57168621D02*
X99474356Y-57337955D01*
X99474356Y-57337955D02*
X99432022Y-57422621D01*
X99432022Y-57422621D02*
X99389689Y-57464955D01*
X99389689Y-57464955D02*
X99305022Y-57507288D01*
X99305022Y-57507288D02*
X99220356Y-57507288D01*
X99220356Y-57507288D02*
X99135689Y-57464955D01*
X99135689Y-57464955D02*
X99093356Y-57422621D01*
X99093356Y-57422621D02*
X99051022Y-57337955D01*
X99051022Y-57337955D02*
X99008689Y-57168621D01*
X99008689Y-57168621D02*
X99008689Y-56956955D01*
X99008689Y-56956955D02*
X99051022Y-56787621D01*
X99051022Y-56787621D02*
X99093356Y-56702955D01*
X99093356Y-56702955D02*
X99135689Y-56660621D01*
X99135689Y-56660621D02*
X99220356Y-56618288D01*
X90982289Y-104548088D02*
X90685956Y-104124755D01*
X90474289Y-104548088D02*
X90474289Y-103659088D01*
X90474289Y-103659088D02*
X90812956Y-103659088D01*
X90812956Y-103659088D02*
X90897623Y-103701421D01*
X90897623Y-103701421D02*
X90939956Y-103743755D01*
X90939956Y-103743755D02*
X90982289Y-103828421D01*
X90982289Y-103828421D02*
X90982289Y-103955421D01*
X90982289Y-103955421D02*
X90939956Y-104040088D01*
X90939956Y-104040088D02*
X90897623Y-104082421D01*
X90897623Y-104082421D02*
X90812956Y-104124755D01*
X90812956Y-104124755D02*
X90474289Y-104124755D01*
X91320956Y-103743755D02*
X91363289Y-103701421D01*
X91363289Y-103701421D02*
X91447956Y-103659088D01*
X91447956Y-103659088D02*
X91659623Y-103659088D01*
X91659623Y-103659088D02*
X91744289Y-103701421D01*
X91744289Y-103701421D02*
X91786623Y-103743755D01*
X91786623Y-103743755D02*
X91828956Y-103828421D01*
X91828956Y-103828421D02*
X91828956Y-103913088D01*
X91828956Y-103913088D02*
X91786623Y-104040088D01*
X91786623Y-104040088D02*
X91278623Y-104548088D01*
X91278623Y-104548088D02*
X91828956Y-104548088D01*
X67368755Y-74593021D02*
X67326422Y-74635355D01*
X67326422Y-74635355D02*
X67199422Y-74677688D01*
X67199422Y-74677688D02*
X67114755Y-74677688D01*
X67114755Y-74677688D02*
X66987755Y-74635355D01*
X66987755Y-74635355D02*
X66903089Y-74550688D01*
X66903089Y-74550688D02*
X66860755Y-74466021D01*
X66860755Y-74466021D02*
X66818422Y-74296688D01*
X66818422Y-74296688D02*
X66818422Y-74169688D01*
X66818422Y-74169688D02*
X66860755Y-74000355D01*
X66860755Y-74000355D02*
X66903089Y-73915688D01*
X66903089Y-73915688D02*
X66987755Y-73831021D01*
X66987755Y-73831021D02*
X67114755Y-73788688D01*
X67114755Y-73788688D02*
X67199422Y-73788688D01*
X67199422Y-73788688D02*
X67326422Y-73831021D01*
X67326422Y-73831021D02*
X67368755Y-73873355D01*
X68215422Y-74677688D02*
X67707422Y-74677688D01*
X67961422Y-74677688D02*
X67961422Y-73788688D01*
X67961422Y-73788688D02*
X67876755Y-73915688D01*
X67876755Y-73915688D02*
X67792089Y-74000355D01*
X67792089Y-74000355D02*
X67707422Y-74042688D01*
X68723422Y-74169688D02*
X68638756Y-74127355D01*
X68638756Y-74127355D02*
X68596422Y-74085021D01*
X68596422Y-74085021D02*
X68554089Y-74000355D01*
X68554089Y-74000355D02*
X68554089Y-73958021D01*
X68554089Y-73958021D02*
X68596422Y-73873355D01*
X68596422Y-73873355D02*
X68638756Y-73831021D01*
X68638756Y-73831021D02*
X68723422Y-73788688D01*
X68723422Y-73788688D02*
X68892756Y-73788688D01*
X68892756Y-73788688D02*
X68977422Y-73831021D01*
X68977422Y-73831021D02*
X69019756Y-73873355D01*
X69019756Y-73873355D02*
X69062089Y-73958021D01*
X69062089Y-73958021D02*
X69062089Y-74000355D01*
X69062089Y-74000355D02*
X69019756Y-74085021D01*
X69019756Y-74085021D02*
X68977422Y-74127355D01*
X68977422Y-74127355D02*
X68892756Y-74169688D01*
X68892756Y-74169688D02*
X68723422Y-74169688D01*
X68723422Y-74169688D02*
X68638756Y-74212021D01*
X68638756Y-74212021D02*
X68596422Y-74254355D01*
X68596422Y-74254355D02*
X68554089Y-74339021D01*
X68554089Y-74339021D02*
X68554089Y-74508355D01*
X68554089Y-74508355D02*
X68596422Y-74593021D01*
X68596422Y-74593021D02*
X68638756Y-74635355D01*
X68638756Y-74635355D02*
X68723422Y-74677688D01*
X68723422Y-74677688D02*
X68892756Y-74677688D01*
X68892756Y-74677688D02*
X68977422Y-74635355D01*
X68977422Y-74635355D02*
X69019756Y-74593021D01*
X69019756Y-74593021D02*
X69062089Y-74508355D01*
X69062089Y-74508355D02*
X69062089Y-74339021D01*
X69062089Y-74339021D02*
X69019756Y-74254355D01*
X69019756Y-74254355D02*
X68977422Y-74212021D01*
X68977422Y-74212021D02*
X68892756Y-74169688D01*
X93725489Y-109822821D02*
X93683156Y-109865155D01*
X93683156Y-109865155D02*
X93556156Y-109907488D01*
X93556156Y-109907488D02*
X93471489Y-109907488D01*
X93471489Y-109907488D02*
X93344489Y-109865155D01*
X93344489Y-109865155D02*
X93259823Y-109780488D01*
X93259823Y-109780488D02*
X93217489Y-109695821D01*
X93217489Y-109695821D02*
X93175156Y-109526488D01*
X93175156Y-109526488D02*
X93175156Y-109399488D01*
X93175156Y-109399488D02*
X93217489Y-109230155D01*
X93217489Y-109230155D02*
X93259823Y-109145488D01*
X93259823Y-109145488D02*
X93344489Y-109060821D01*
X93344489Y-109060821D02*
X93471489Y-109018488D01*
X93471489Y-109018488D02*
X93556156Y-109018488D01*
X93556156Y-109018488D02*
X93683156Y-109060821D01*
X93683156Y-109060821D02*
X93725489Y-109103155D01*
X94572156Y-109907488D02*
X94064156Y-109907488D01*
X94318156Y-109907488D02*
X94318156Y-109018488D01*
X94318156Y-109018488D02*
X94233489Y-109145488D01*
X94233489Y-109145488D02*
X94148823Y-109230155D01*
X94148823Y-109230155D02*
X94064156Y-109272488D01*
X62034755Y-84194221D02*
X61992422Y-84236555D01*
X61992422Y-84236555D02*
X61865422Y-84278888D01*
X61865422Y-84278888D02*
X61780755Y-84278888D01*
X61780755Y-84278888D02*
X61653755Y-84236555D01*
X61653755Y-84236555D02*
X61569089Y-84151888D01*
X61569089Y-84151888D02*
X61526755Y-84067221D01*
X61526755Y-84067221D02*
X61484422Y-83897888D01*
X61484422Y-83897888D02*
X61484422Y-83770888D01*
X61484422Y-83770888D02*
X61526755Y-83601555D01*
X61526755Y-83601555D02*
X61569089Y-83516888D01*
X61569089Y-83516888D02*
X61653755Y-83432221D01*
X61653755Y-83432221D02*
X61780755Y-83389888D01*
X61780755Y-83389888D02*
X61865422Y-83389888D01*
X61865422Y-83389888D02*
X61992422Y-83432221D01*
X61992422Y-83432221D02*
X62034755Y-83474555D01*
X62881422Y-84278888D02*
X62373422Y-84278888D01*
X62627422Y-84278888D02*
X62627422Y-83389888D01*
X62627422Y-83389888D02*
X62542755Y-83516888D01*
X62542755Y-83516888D02*
X62458089Y-83601555D01*
X62458089Y-83601555D02*
X62373422Y-83643888D01*
X63177756Y-83389888D02*
X63728089Y-83389888D01*
X63728089Y-83389888D02*
X63431756Y-83728555D01*
X63431756Y-83728555D02*
X63558756Y-83728555D01*
X63558756Y-83728555D02*
X63643422Y-83770888D01*
X63643422Y-83770888D02*
X63685756Y-83813221D01*
X63685756Y-83813221D02*
X63728089Y-83897888D01*
X63728089Y-83897888D02*
X63728089Y-84109555D01*
X63728089Y-84109555D02*
X63685756Y-84194221D01*
X63685756Y-84194221D02*
X63643422Y-84236555D01*
X63643422Y-84236555D02*
X63558756Y-84278888D01*
X63558756Y-84278888D02*
X63304756Y-84278888D01*
X63304756Y-84278888D02*
X63220089Y-84236555D01*
X63220089Y-84236555D02*
X63177756Y-84194221D01*
X81541955Y-88495288D02*
X81245622Y-88071955D01*
X81033955Y-88495288D02*
X81033955Y-87606288D01*
X81033955Y-87606288D02*
X81372622Y-87606288D01*
X81372622Y-87606288D02*
X81457289Y-87648621D01*
X81457289Y-87648621D02*
X81499622Y-87690955D01*
X81499622Y-87690955D02*
X81541955Y-87775621D01*
X81541955Y-87775621D02*
X81541955Y-87902621D01*
X81541955Y-87902621D02*
X81499622Y-87987288D01*
X81499622Y-87987288D02*
X81457289Y-88029621D01*
X81457289Y-88029621D02*
X81372622Y-88071955D01*
X81372622Y-88071955D02*
X81033955Y-88071955D01*
X82388622Y-88495288D02*
X81880622Y-88495288D01*
X82134622Y-88495288D02*
X82134622Y-87606288D01*
X82134622Y-87606288D02*
X82049955Y-87733288D01*
X82049955Y-87733288D02*
X81965289Y-87817955D01*
X81965289Y-87817955D02*
X81880622Y-87860288D01*
X82938956Y-87606288D02*
X83023622Y-87606288D01*
X83023622Y-87606288D02*
X83108289Y-87648621D01*
X83108289Y-87648621D02*
X83150622Y-87690955D01*
X83150622Y-87690955D02*
X83192956Y-87775621D01*
X83192956Y-87775621D02*
X83235289Y-87944955D01*
X83235289Y-87944955D02*
X83235289Y-88156621D01*
X83235289Y-88156621D02*
X83192956Y-88325955D01*
X83192956Y-88325955D02*
X83150622Y-88410621D01*
X83150622Y-88410621D02*
X83108289Y-88452955D01*
X83108289Y-88452955D02*
X83023622Y-88495288D01*
X83023622Y-88495288D02*
X82938956Y-88495288D01*
X82938956Y-88495288D02*
X82854289Y-88452955D01*
X82854289Y-88452955D02*
X82811956Y-88410621D01*
X82811956Y-88410621D02*
X82769622Y-88325955D01*
X82769622Y-88325955D02*
X82727289Y-88156621D01*
X82727289Y-88156621D02*
X82727289Y-87944955D01*
X82727289Y-87944955D02*
X82769622Y-87775621D01*
X82769622Y-87775621D02*
X82811956Y-87690955D01*
X82811956Y-87690955D02*
X82854289Y-87648621D01*
X82854289Y-87648621D02*
X82938956Y-87606288D01*
D11*
%TO.C,C12*%
X59723856Y-86742392D02*
X59723856Y-87264896D01*
X61451056Y-86719140D02*
X61451056Y-87241644D01*
%TO.C,C19*%
X70792552Y-77649244D02*
X71315056Y-77649244D01*
X70815804Y-79376444D02*
X71338308Y-79376444D01*
%TO.C,C2*%
X100438876Y-108691344D02*
X100720036Y-108691344D01*
X100438876Y-109910544D02*
X100720036Y-109910544D01*
%TO.C,R7*%
X58302856Y-89290902D02*
X58302856Y-88816386D01*
X59547456Y-89290902D02*
X59547456Y-88816386D01*
%TO.C,C17*%
X69692476Y-84510544D02*
X69973636Y-84510544D01*
X69692476Y-85729744D02*
X69973636Y-85729744D01*
%TO.C,C6*%
X92146656Y-106223522D02*
X92146656Y-105942362D01*
X93365856Y-106223522D02*
X93365856Y-105942362D01*
D10*
%TO.C,U2*%
X65324556Y-91305044D02*
X69566356Y-91305044D01*
X69566356Y-86047244D02*
X65324556Y-86047244D01*
D12*
X64700656Y-86237744D02*
G75*
G02*
X64500656Y-86237744I-100000J0D01*
G01*
X64500656Y-86237744D02*
G75*
G02*
X64700656Y-86237744I100000J0D01*
G01*
D11*
%TO.C,C10*%
X115267256Y-110333581D02*
X115267256Y-116089144D01*
X115267256Y-116089144D02*
X117617256Y-116089144D01*
X116331693Y-109269144D02*
X115267256Y-110333581D01*
X116331693Y-109269144D02*
X117617256Y-109269144D01*
X120524756Y-108241644D02*
X120524756Y-109029144D01*
X120918506Y-108635394D02*
X120131006Y-108635394D01*
X121022819Y-109269144D02*
X119737256Y-109269144D01*
X121022819Y-109269144D02*
X122087256Y-110333581D01*
X122087256Y-110333581D02*
X122087256Y-116089144D01*
X122087256Y-116089144D02*
X119737256Y-116089144D01*
%TO.C,R3*%
X101234556Y-110185244D02*
X111374556Y-110185244D01*
X101234556Y-110665244D02*
X101234556Y-110185244D01*
X101234556Y-113545244D02*
X101234556Y-114025244D01*
X101234556Y-114025244D02*
X111374556Y-114025244D01*
X111374556Y-110185244D02*
X111374556Y-110665244D01*
X111374556Y-114025244D02*
X111374556Y-113545244D01*
%TO.C,C15*%
X71661856Y-88675564D02*
X71661856Y-88956724D01*
X72881056Y-88675564D02*
X72881056Y-88956724D01*
%TO.C,D2*%
X70087056Y-83570744D02*
X70087056Y-81665744D01*
X72962056Y-81006344D02*
X67452056Y-81006344D01*
X72962056Y-84306344D02*
X67452056Y-84306344D01*
X72962056Y-84306344D02*
X72962056Y-81006344D01*
D13*
%TO.C,C33*%
X118129956Y-83238594D02*
X118129956Y-80038594D01*
X120089956Y-83238594D02*
X120089956Y-80038594D01*
D12*
X119209956Y-84388594D02*
G75*
G02*
X119009956Y-84388594I-100000J0D01*
G01*
X119009956Y-84388594D02*
G75*
G02*
X119209956Y-84388594I100000J0D01*
G01*
D11*
%TO.C,C7*%
X96299276Y-100029944D02*
X96580436Y-100029944D01*
X96299276Y-101249144D02*
X96580436Y-101249144D01*
%TO.C,R8*%
X60217456Y-91643402D02*
X60217456Y-91168886D01*
X61462056Y-91643402D02*
X61462056Y-91168886D01*
D13*
%TO.C,C31*%
X107170356Y-75814444D02*
X107170356Y-79014444D01*
X109130356Y-75814444D02*
X109130356Y-79014444D01*
D12*
X108250356Y-74664444D02*
G75*
G02*
X108050356Y-74664444I-100000J0D01*
G01*
X108050356Y-74664444D02*
G75*
G02*
X108250356Y-74664444I100000J0D01*
G01*
D13*
%TO.C,C25*%
X90613706Y-70259544D02*
X90613706Y-67059544D01*
X92573706Y-70259544D02*
X92573706Y-67059544D01*
D12*
X91693706Y-71409544D02*
G75*
G02*
X91493706Y-71409544I-100000J0D01*
G01*
X91493706Y-71409544D02*
G75*
G02*
X91693706Y-71409544I100000J0D01*
G01*
D11*
%TO.C,R1*%
X96612914Y-110061544D02*
X96138398Y-110061544D01*
X96612914Y-111306144D02*
X96138398Y-111306144D01*
%TO.C,R12*%
X75971598Y-90418344D02*
X76446114Y-90418344D01*
X75971598Y-91662944D02*
X76446114Y-91662944D01*
%TO.C,C14*%
X73187036Y-90428744D02*
X72905876Y-90428744D01*
X73187036Y-91647944D02*
X72905876Y-91647944D01*
%TO.C,C9*%
X107958456Y-106393524D02*
X107958456Y-106112364D01*
X109177656Y-106393524D02*
X109177656Y-106112364D01*
D12*
%TO.C,U3*%
X97356258Y-62487344D02*
X97356258Y-65487344D01*
X97356258Y-62487344D02*
X104056257Y-62487344D01*
X97356258Y-65487344D02*
X104056257Y-65487344D01*
X104056257Y-62487344D02*
X104056257Y-65487344D01*
D14*
X104131258Y-61137345D02*
G75*
G02*
X103881256Y-61137345I-125001J0D01*
G01*
X103881256Y-61137345D02*
G75*
G02*
X104131258Y-61137345I125001J0D01*
G01*
D11*
%TO.C,D1*%
X103217656Y-101348344D02*
X103217656Y-107158344D01*
X107517656Y-101348344D02*
X103217656Y-101348344D01*
X107517656Y-101348344D02*
X107517656Y-107158344D01*
D13*
%TO.C,C27*%
X91893706Y-71375244D02*
X88693706Y-71375244D01*
X91893706Y-73335244D02*
X88693706Y-73335244D01*
D12*
X93143706Y-72355244D02*
G75*
G02*
X92943706Y-72355244I-100000J0D01*
G01*
X92943706Y-72355244D02*
G75*
G02*
X93143706Y-72355244I100000J0D01*
G01*
D10*
%TO.C,U6*%
X112479156Y-80941844D02*
X112479156Y-85183644D01*
X117736956Y-85183644D02*
X117736956Y-80941844D01*
D12*
X112769656Y-85907544D02*
G75*
G02*
X112569656Y-85907544I-100000J0D01*
G01*
X112569656Y-85907544D02*
G75*
G02*
X112769656Y-85907544I100000J0D01*
G01*
D11*
%TO.C,R9*%
X73196856Y-88628886D02*
X73196856Y-89103402D01*
X74441456Y-88628886D02*
X74441456Y-89103402D01*
D13*
%TO.C,C30*%
X105906056Y-75134444D02*
X102706056Y-75134444D01*
X105906056Y-77094444D02*
X102706056Y-77094444D01*
D12*
X107156056Y-76114444D02*
G75*
G02*
X106956056Y-76114444I-100000J0D01*
G01*
X106956056Y-76114444D02*
G75*
G02*
X107156056Y-76114444I100000J0D01*
G01*
D11*
%TO.C,D4*%
X56805656Y-118973144D02*
X59490656Y-118973144D01*
X59490656Y-117053144D02*
X56805656Y-117053144D01*
X59490656Y-118973144D02*
X59490656Y-117053144D01*
%TO.C,R11*%
X76413056Y-89103402D02*
X76413056Y-88628886D01*
X77657656Y-89103402D02*
X77657656Y-88628886D01*
%TO.C,U5*%
X86026056Y-77510944D02*
X101916056Y-77510944D01*
X86026056Y-87750944D02*
X86026056Y-77510944D01*
X86026056Y-87750944D02*
X101916056Y-87750944D01*
X101916056Y-80090944D02*
X104456056Y-80090944D01*
X101916056Y-82630944D02*
X104456056Y-82630944D01*
X101916056Y-85170944D02*
X104456056Y-85170944D01*
X101916056Y-87750944D02*
X101916056Y-77510944D01*
%TO.C,R13*%
X74759256Y-88628886D02*
X74759256Y-89103402D01*
X76003856Y-88628886D02*
X76003856Y-89103402D01*
%TO.C,C11*%
X122563456Y-112363648D02*
X122563456Y-111841144D01*
X124290656Y-112340396D02*
X124290656Y-111817892D01*
D13*
%TO.C,C29*%
X107170356Y-85470944D02*
X107170356Y-82270944D01*
X109130356Y-85470944D02*
X109130356Y-82270944D01*
D12*
X108250356Y-86620944D02*
G75*
G02*
X108050356Y-86620944I-100000J0D01*
G01*
X108050356Y-86620944D02*
G75*
G02*
X108250356Y-86620944I100000J0D01*
G01*
D11*
%TO.C,R14*%
X57930414Y-115624144D02*
X57455898Y-115624144D01*
X57930414Y-116868744D02*
X57455898Y-116868744D01*
D13*
%TO.C,C24*%
X104411956Y-67362344D02*
X104411956Y-64162344D01*
X106371956Y-67362344D02*
X106371956Y-64162344D01*
D12*
X105491956Y-68512344D02*
G75*
G02*
X105291956Y-68512344I-100000J0D01*
G01*
X105291956Y-68512344D02*
G75*
G02*
X105491956Y-68512344I100000J0D01*
G01*
D11*
%TO.C,J2*%
X105139056Y-48141844D02*
X105139056Y-57561844D01*
X105139056Y-57561844D02*
X106799056Y-57561844D01*
X110609056Y-57561844D02*
X108899056Y-57561844D01*
X114419056Y-57561844D02*
X112709056Y-57561844D01*
X118229056Y-57561844D02*
X116519056Y-57561844D01*
X122039056Y-57561844D02*
X120329056Y-57561844D01*
X125849056Y-57561844D02*
X124139056Y-57561844D01*
X126599056Y-58851844D02*
X126899056Y-58251844D01*
X126899056Y-58251844D02*
X127199056Y-58851844D01*
X127199056Y-58851844D02*
X126599056Y-58851844D01*
X129609056Y-48141844D02*
X105139056Y-48141844D01*
X129609056Y-51451844D02*
X105139056Y-51451844D01*
X129609056Y-57561844D02*
X127949056Y-57561844D01*
X129609056Y-57561844D02*
X129609056Y-48141844D01*
%TO.C,L2*%
X73353856Y-80087844D02*
X75453856Y-77987844D01*
X73353856Y-84187844D02*
X73353856Y-80087844D01*
X81653856Y-80087844D02*
X79553856Y-77987844D01*
X81653856Y-80087844D02*
X81653856Y-84187844D01*
X81653856Y-84187844D02*
X79553856Y-86287844D01*
%TO.C,D3*%
X63255256Y-110642244D02*
X63255256Y-114942244D01*
X63255256Y-110642244D02*
X69065256Y-110642244D01*
X63255256Y-114942244D02*
X69065256Y-114942244D01*
%TO.C,R4*%
X97764798Y-114356944D02*
X98239314Y-114356944D01*
X97764798Y-115601544D02*
X98239314Y-115601544D01*
D10*
%TO.C,L1*%
X109457056Y-95127744D02*
X109457056Y-98353544D01*
X109457056Y-104449544D02*
X109457056Y-107675344D01*
X109457056Y-107675344D02*
X122004656Y-107675344D01*
X122004656Y-95127744D02*
X109457056Y-95127744D01*
X122004656Y-98353544D02*
X122004656Y-95127744D01*
X122004656Y-107675344D02*
X122004656Y-104449544D01*
D13*
%TO.C,C26*%
X105691956Y-68473935D02*
X102491956Y-68473935D01*
X105691956Y-70433935D02*
X102491956Y-70433935D01*
D12*
X106941956Y-69453935D02*
G75*
G02*
X106741956Y-69453935I-100000J0D01*
G01*
X106741956Y-69453935D02*
G75*
G02*
X106941956Y-69453935I100000J0D01*
G01*
D11*
%TO.C,J1*%
X62055256Y-116195144D02*
X62055256Y-125615144D01*
X62055256Y-116195144D02*
X63715256Y-116195144D01*
X62055256Y-122305144D02*
X71285256Y-122305144D01*
X62055256Y-125615144D02*
X71285256Y-125615144D01*
X64465256Y-114905144D02*
X65065256Y-114905144D01*
X64765256Y-115505144D02*
X64465256Y-114905144D01*
X65065256Y-114905144D02*
X64765256Y-115505144D01*
X65815256Y-116195144D02*
X67525256Y-116195144D01*
X71285256Y-116195144D02*
X69625256Y-116195144D01*
X71285256Y-125615144D02*
X71285256Y-116195144D01*
D10*
%TO.C,U1*%
X96642579Y-108284944D02*
X100376731Y-108284944D01*
X100376733Y-101680944D02*
X96642581Y-101680944D01*
X98814456Y-101680944D02*
G75*
G02*
X98204856Y-101680944I-304800J0D01*
G01*
X95715656Y-101680944D02*
G75*
G02*
X95563256Y-101680944I-76200J0D01*
G01*
X95563256Y-101680944D02*
G75*
G02*
X95715656Y-101680944I76200J0D01*
G01*
D11*
%TO.C,R5*%
X96113798Y-112895544D02*
X96588314Y-112895544D01*
X96113798Y-114140144D02*
X96588314Y-114140144D01*
%TO.C,C8*%
X102107452Y-99525944D02*
X102629956Y-99525944D01*
X102130704Y-101253144D02*
X102653208Y-101253144D01*
D13*
%TO.C,C21*%
X84308006Y-60710044D02*
X87508006Y-60710044D01*
X84308006Y-62670044D02*
X87508006Y-62670044D01*
D12*
X83258006Y-61690044D02*
G75*
G02*
X83058006Y-61690044I-100000J0D01*
G01*
X83058006Y-61690044D02*
G75*
G02*
X83258006Y-61690044I100000J0D01*
G01*
D11*
%TO.C,C4*%
X92121836Y-107675344D02*
X91840676Y-107675344D01*
X92121836Y-108894544D02*
X91840676Y-108894544D01*
D13*
%TO.C,C32*%
X114124056Y-87049844D02*
X117324056Y-87049844D01*
X114124056Y-89009844D02*
X117324056Y-89009844D01*
D12*
X113074056Y-88029844D02*
G75*
G02*
X112874056Y-88029844I-100000J0D01*
G01*
X112874056Y-88029844D02*
G75*
G02*
X113074056Y-88029844I100000J0D01*
G01*
D11*
%TO.C,R6*%
X96587514Y-111470344D02*
X96112998Y-111470344D01*
X96587514Y-112714944D02*
X96112998Y-112714944D01*
D13*
%TO.C,C23*%
X81234494Y-61390044D02*
X81234494Y-64590044D01*
X83194494Y-61390044D02*
X83194494Y-64590044D01*
D12*
X82314494Y-60240044D02*
G75*
G02*
X82114494Y-60240044I-100000J0D01*
G01*
X82114494Y-60240044D02*
G75*
G02*
X82314494Y-60240044I100000J0D01*
G01*
D11*
%TO.C,C3*%
X79471256Y-104487881D02*
X79471256Y-114143444D01*
X79471256Y-114143444D02*
X83321256Y-114143444D01*
X80535693Y-103423444D02*
X79471256Y-104487881D01*
X80535693Y-103423444D02*
X83321256Y-103423444D01*
X87591256Y-101933444D02*
X87591256Y-103183444D01*
X88216256Y-102558444D02*
X86966256Y-102558444D01*
X89126819Y-103423444D02*
X86341256Y-103423444D01*
X89126819Y-103423444D02*
X90191256Y-104487881D01*
X90191256Y-104487881D02*
X90191256Y-114143444D01*
X90191256Y-114143444D02*
X86341256Y-114143444D01*
%TO.C,C16*%
X62209056Y-91496724D02*
X62209056Y-91215564D01*
X63428256Y-91496724D02*
X63428256Y-91215564D01*
D12*
%TO.C,U4*%
X83558008Y-65384544D02*
X83558008Y-68384544D01*
X83558008Y-65384544D02*
X90258007Y-65384544D01*
X83558008Y-68384544D02*
X90258007Y-68384544D01*
X90258007Y-65384544D02*
X90258007Y-68384544D01*
D14*
X90333008Y-64034545D02*
G75*
G02*
X90083006Y-64034545I-125001J0D01*
G01*
X90083006Y-64034545D02*
G75*
G02*
X90333008Y-64034545I125001J0D01*
G01*
D13*
%TO.C,C28*%
X108450356Y-88266244D02*
X105250356Y-88266244D01*
X108450356Y-90226244D02*
X105250356Y-90226244D01*
D12*
X109700356Y-89246244D02*
G75*
G02*
X109500356Y-89246244I-100000J0D01*
G01*
X109500356Y-89246244D02*
G75*
G02*
X109700356Y-89246244I100000J0D01*
G01*
D13*
%TO.C,C5*%
X90536656Y-99043744D02*
X90536656Y-100863744D01*
X94036656Y-99043744D02*
X94036656Y-100863744D01*
%TO.C,C22*%
X98106256Y-57738244D02*
X101306256Y-57738244D01*
X98106256Y-59698244D02*
X101306256Y-59698244D01*
D12*
X97056256Y-58718244D02*
G75*
G02*
X96856256Y-58718244I-100000J0D01*
G01*
X96856256Y-58718244D02*
G75*
G02*
X97056256Y-58718244I100000J0D01*
G01*
D13*
%TO.C,C20*%
X95032744Y-58418244D02*
X95032744Y-61618244D01*
X96992744Y-58418244D02*
X96992744Y-61618244D01*
D12*
X96112744Y-57268244D02*
G75*
G02*
X95912744Y-57268244I-100000J0D01*
G01*
X95912744Y-57268244D02*
G75*
G02*
X96112744Y-57268244I100000J0D01*
G01*
D11*
%TO.C,R2*%
X90586256Y-106370200D02*
X90586256Y-105895684D01*
X91830856Y-106370200D02*
X91830856Y-105895684D01*
%TO.C,C18*%
X70792552Y-74553744D02*
X71315056Y-74553744D01*
X70815804Y-76280944D02*
X71338308Y-76280944D01*
%TO.C,C1*%
X96516636Y-108691344D02*
X96235476Y-108691344D01*
X96516636Y-109910544D02*
X96235476Y-109910544D01*
%TO.C,C13*%
X61705056Y-86742392D02*
X61705056Y-87264896D01*
X63432256Y-86719140D02*
X63432256Y-87241644D01*
%TO.C,R10*%
X79096198Y-87421144D02*
X79570714Y-87421144D01*
X79096198Y-88665744D02*
X79570714Y-88665744D01*
%TD*%
M02*
