<?xml version="1.0" standalone="no"?>
<!DOCTYPE svg PUBLIC "-//W3C//DTD SVG 20010904//EN"
 "http://www.w3.org/TR/2001/REC-SVG-20010904/DTD/svg10.dtd">
<svg version="1.0" xmlns="http://www.w3.org/2000/svg"
 width="256.000000pt" height="109.000000pt" viewBox="0 0 256.000000 109.000000"
 preserveAspectRatio="xMidYMid meet">

<g transform="translate(0.000000,109.000000) scale(0.100000,-0.100000)"
fill="#000000" stroke="none">
<path d="M788 633 c7 -3 16 -2 19 1 4 3 -2 6 -13 5 -11 0 -14 -3 -6 -6z"/>
<path d="M1568 633 c7 -3 16 -2 19 1 4 3 -2 6 -13 5 -11 0 -14 -3 -6 -6z"/>
<path d="M350 621 c0 -5 6 -11 13 -14 6 -2 30 -48 52 -101 l40 -96 18 35 c16
31 16 37 3 50 -8 8 -25 42 -38 75 -21 56 -25 60 -55 60 -18 0 -33 -4 -33 -9z"/>
<path d="M516 569 c-35 -80 -32 -90 4 -14 l29 60 -2 -103 -2 -102 30 0 30 0 0
110 0 110 -31 0 c-29 0 -34 -5 -58 -61z"/>
<path d="M709 601 c-24 -25 -29 -38 -29 -79 0 -61 25 -97 79 -113 83 -25 151
27 151 113 0 41 -5 54 -29 79 -16 16 -37 29 -47 29 -16 0 -16 -2 2 -21 15 -16
19 -36 19 -89 0 -75 -19 -110 -60 -110 -41 0 -60 35 -60 110 0 53 4 73 19 89
18 19 18 21 2 21 -10 0 -31 -13 -47 -29z"/>
<path d="M985 520 l0 -110 28 0 c26 0 27 2 27 50 0 28 4 50 9 50 5 0 24 -22
42 -50 27 -39 40 -50 62 -50 32 0 31 3 -17 64 -20 26 -26 41 -18 44 23 7 42
33 42 57 0 37 -35 55 -110 55 l-65 0 0 -110z m113 88 c17 -17 15 -63 -2 -78
-16 -12 -57 -11 -56 3 0 4 0 25 0 47 0 35 3 40 23 40 13 0 28 -5 35 -12z"/>
<path d="M1251 613 c8 -10 22 -27 32 -38 10 -11 44 -53 75 -93 l57 -73 3 41
c2 30 -2 45 -16 58 -10 9 -38 41 -61 70 -35 42 -49 52 -73 52 -28 0 -29 -2
-17 -17z"/>
<path d="M1408 618 c9 -9 15 -9 24 0 9 9 7 12 -12 12 -19 0 -21 -3 -12 -12z"/>
<path d="M1514 605 c-22 -33 -7 -69 38 -93 17 -9 42 -27 55 -39 20 -19 22 -26
12 -44 -17 -32 12 -19 31 13 21 38 2 72 -58 102 -53 27 -69 50 -51 72 8 10 8
14 0 14 -6 0 -18 -11 -27 -25z"/>
<path d="M1616 611 c10 -10 21 -14 23 -8 4 10 -17 27 -33 27 -5 0 -1 -8 10
-19z"/>
<path d="M1730 551 c0 -44 4 -91 9 -104 18 -48 108 -59 144 -19 18 20 29 202
12 202 -6 0 -9 -36 -7 -93 3 -98 0 -107 -45 -121 -15 -5 -28 -1 -43 14 -19 19
-21 31 -18 111 l3 89 -27 0 -28 0 0 -79z"/>
<path d="M1995 520 c0 -67 4 -110 10 -110 6 0 9 24 7 58 -2 32 -2 73 0 92 l3
34 75 -93 75 -93 2 33 c8 112 7 189 -2 189 -6 0 -9 -19 -7 -44 8 -94 2 -97
-56 -23 -42 53 -59 67 -80 67 l-27 0 0 -110z"/>
<path d="M350 507 c-5 -92 -4 -97 15 -97 13 0 16 3 8 8 -8 5 -13 41 -15 97
l-3 90 -5 -98z"/>
<path d="M1501 448 c-1 -29 3 -37 17 -36 9 0 33 -3 52 -6 31 -5 32 -5 7 3 -36
12 -57 30 -67 56 -7 16 -9 13 -9 -17z"/>
<path d="M1246 425 c-4 -10 1 -15 16 -15 17 0 18 2 8 15 -7 8 -14 15 -15 15
-2 0 -5 -7 -9 -15z"/>
</g>
</svg>
