%TF.GenerationSoftware,KiCad,Pcbnew,8.0.4*%
%TF.CreationDate,2024-10-07T11:54:38+07:00*%
%TF.ProjectId,System_Control,53797374-656d-45f4-936f-6e74726f6c2e,rev?*%
%TF.SameCoordinates,Original*%
%TF.FileFunction,Soldermask,Top*%
%TF.FilePolarity,Negative*%
%FSLAX46Y46*%
G04 Gerber Fmt 4.6, Leading zero omitted, Abs format (unit mm)*
G04 Created by KiCad (PCBNEW 8.0.4) date 2024-10-07 11:54:38*
%MOMM*%
%LPD*%
G01*
G04 APERTURE LIST*
G04 Aperture macros list*
%AMRoundRect*
0 Rectangle with rounded corners*
0 $1 Rounding radius*
0 $2 $3 $4 $5 $6 $7 $8 $9 X,Y pos of 4 corners*
0 Add a 4 corners polygon primitive as box body*
4,1,4,$2,$3,$4,$5,$6,$7,$8,$9,$2,$3,0*
0 Add four circle primitives for the rounded corners*
1,1,$1+$1,$2,$3*
1,1,$1+$1,$4,$5*
1,1,$1+$1,$6,$7*
1,1,$1+$1,$8,$9*
0 Add four rect primitives between the rounded corners*
20,1,$1+$1,$2,$3,$4,$5,0*
20,1,$1+$1,$4,$5,$6,$7,0*
20,1,$1+$1,$6,$7,$8,$9,0*
20,1,$1+$1,$8,$9,$2,$3,0*%
G04 Aperture macros list end*
%ADD10C,0.025400*%
%ADD11RoundRect,0.251000X-0.326000X0.251000X-0.326000X-0.251000X0.326000X-0.251000X0.326000X0.251000X0*%
%ADD12RoundRect,0.276000X0.276000X0.301000X-0.276000X0.301000X-0.276000X-0.301000X0.276000X-0.301000X0*%
%ADD13RoundRect,0.251000X0.251000X0.326000X-0.251000X0.326000X-0.251000X-0.326000X0.251000X-0.326000X0*%
%ADD14RoundRect,0.244150X0.244150X0.281650X-0.244150X0.281650X-0.244150X-0.281650X0.244150X-0.281650X0*%
%ADD15RoundRect,0.165400X-0.195400X0.165400X-0.195400X-0.165400X0.195400X-0.165400X0.195400X0.165400X0*%
%ADD16RoundRect,0.160400X-0.160400X-0.210400X0.160400X-0.210400X0.160400X0.210400X-0.160400X0.210400X0*%
%ADD17RoundRect,0.276000X-0.276000X-0.301000X0.276000X-0.301000X0.276000X0.301000X-0.276000X0.301000X0*%
%ADD18RoundRect,0.276000X-0.301000X0.276000X-0.301000X-0.276000X0.301000X-0.276000X0.301000X0.276000X0*%
%ADD19RoundRect,0.251000X-0.251000X-0.326000X0.251000X-0.326000X0.251000X0.326000X-0.251000X0.326000X0*%
%ADD20RoundRect,0.276000X0.301000X-0.276000X0.301000X0.276000X-0.301000X0.276000X-0.301000X-0.276000X0*%
%ADD21RoundRect,0.050800X-0.730250X-0.266700X0.730250X-0.266700X0.730250X0.266700X-0.730250X0.266700X0*%
%ADD22O,0.901600X0.901600*%
%ADD23RoundRect,0.050800X0.225000X0.650000X-0.225000X0.650000X-0.225000X-0.650000X0.225000X-0.650000X0*%
%ADD24O,1.251600X1.901600*%
%ADD25O,1.551600X2.101600*%
%ADD26RoundRect,0.050800X1.500000X-0.700000X1.500000X0.700000X-1.500000X0.700000X-1.500000X-0.700000X0*%
%ADD27RoundRect,0.050800X1.500000X-0.750000X1.500000X0.750000X-1.500000X0.750000X-1.500000X-0.750000X0*%
%ADD28RoundRect,0.244150X-0.281650X0.244150X-0.281650X-0.244150X0.281650X-0.244150X0.281650X0.244150X0*%
%ADD29RoundRect,0.165400X-0.165400X-0.195400X0.165400X-0.195400X0.165400X0.195400X-0.165400X0.195400X0*%
%ADD30RoundRect,0.251000X0.326000X-0.251000X0.326000X0.251000X-0.326000X0.251000X-0.326000X-0.251000X0*%
%ADD31RoundRect,0.100400X-0.100400X0.750400X-0.100400X-0.750400X0.100400X-0.750400X0.100400X0.750400X0*%
%ADD32RoundRect,0.100400X-0.750400X0.100400X-0.750400X-0.100400X0.750400X-0.100400X0.750400X0.100400X0*%
%ADD33RoundRect,0.273091X-0.327709X-0.327709X0.327709X-0.327709X0.327709X0.327709X-0.327709X0.327709X0*%
%ADD34RoundRect,0.270735X-0.392565X-1.455065X0.392565X-1.455065X0.392565X1.455065X-0.392565X1.455065X0*%
%ADD35RoundRect,0.160400X0.210400X-0.160400X0.210400X0.160400X-0.210400X0.160400X-0.210400X-0.160400X0*%
%ADD36RoundRect,0.165400X0.195400X-0.165400X0.195400X0.165400X-0.195400X0.165400X-0.195400X-0.165400X0*%
%ADD37RoundRect,0.264111X0.686689X1.586689X-0.686689X1.586689X-0.686689X-1.586689X0.686689X-1.586689X0*%
%ADD38O,1.901600X3.701600*%
%ADD39RoundRect,0.050800X0.177800X0.457200X-0.177800X0.457200X-0.177800X-0.457200X0.177800X-0.457200X0*%
%ADD40RoundRect,0.050800X-0.368300X-0.177800X0.368300X-0.177800X0.368300X0.177800X-0.368300X0.177800X0*%
%ADD41RoundRect,0.050800X-0.406400X0.596900X-0.406400X-0.596900X0.406400X-0.596900X0.406400X0.596900X0*%
%ADD42RoundRect,0.244150X0.281650X-0.244150X0.281650X0.244150X-0.281650X0.244150X-0.281650X-0.244150X0*%
%ADD43RoundRect,0.160400X-0.210400X0.160400X-0.210400X-0.160400X0.210400X-0.160400X0.210400X0.160400X0*%
%ADD44RoundRect,0.264111X-0.686689X-1.586689X0.686689X-1.586689X0.686689X1.586689X-0.686689X1.586689X0*%
%ADD45C,0.901600*%
%ADD46C,6.501600*%
%ADD47RoundRect,0.050800X-0.750000X-0.450000X0.750000X-0.450000X0.750000X0.450000X-0.750000X0.450000X0*%
%ADD48RoundRect,0.050800X0.450000X-0.750000X0.450000X0.750000X-0.450000X0.750000X-0.450000X-0.750000X0*%
%ADD49C,0.701600*%
%ADD50RoundRect,0.050800X-1.900000X-1.900000X1.900000X-1.900000X1.900000X1.900000X-1.900000X1.900000X0*%
%ADD51RoundRect,0.050800X-0.266700X-0.584200X0.266700X-0.584200X0.266700X0.584200X-0.266700X0.584200X0*%
%ADD52RoundRect,0.050800X-0.584200X0.266700X-0.584200X-0.266700X0.584200X-0.266700X0.584200X0.266700X0*%
%ADD53RoundRect,0.050800X-0.600000X0.700000X-0.600000X-0.700000X0.600000X-0.700000X0.600000X0.700000X0*%
%ADD54RoundRect,0.165400X0.165400X0.195400X-0.165400X0.195400X-0.165400X-0.195400X0.165400X-0.195400X0*%
%ADD55RoundRect,0.050800X-1.155700X-0.279400X1.155700X-0.279400X1.155700X0.279400X-1.155700X0.279400X0*%
%ADD56RoundRect,0.270735X-1.455065X0.392565X-1.455065X-0.392565X1.455065X-0.392565X1.455065X0.392565X0*%
%ADD57RoundRect,0.160400X0.160400X0.210400X-0.160400X0.210400X-0.160400X-0.210400X0.160400X-0.210400X0*%
%ADD58RoundRect,0.050800X0.266700X0.584200X-0.266700X0.584200X-0.266700X-0.584200X0.266700X-0.584200X0*%
%ADD59RoundRect,0.273091X-0.327709X0.327709X-0.327709X-0.327709X0.327709X-0.327709X0.327709X0.327709X0*%
%ADD60RoundRect,0.244150X-0.244150X-0.406650X0.244150X-0.406650X0.244150X0.406650X-0.244150X0.406650X0*%
%ADD61RoundRect,0.050800X0.584200X-0.266700X0.584200X0.266700X-0.584200X0.266700X-0.584200X-0.266700X0*%
%ADD62RoundRect,0.175400X0.850400X0.175400X-0.850400X0.175400X-0.850400X-0.175400X0.850400X-0.175400X0*%
%ADD63C,3.701600*%
%ADD64C,5.701600*%
%ADD65RoundRect,0.050800X0.950000X0.600000X-0.950000X0.600000X-0.950000X-0.600000X0.950000X-0.600000X0*%
%ADD66O,2.001600X1.301600*%
%ADD67RoundRect,0.050800X-0.850000X0.850000X-0.850000X-0.850000X0.850000X-0.850000X0.850000X0.850000X0*%
%ADD68O,1.801600X1.801600*%
G04 APERTURE END LIST*
D10*
X221610200Y-160232200D02*
X251824800Y-160232200D01*
X251824800Y-175232200D01*
X221610200Y-175232200D01*
X221610200Y-160232200D01*
G36*
X221610200Y-160232200D02*
G01*
X251824800Y-160232200D01*
X251824800Y-175232200D01*
X221610200Y-175232200D01*
X221610200Y-160232200D01*
G37*
D11*
%TO.C,R172*%
X169588600Y-169879400D03*
X169588600Y-171529400D03*
%TD*%
D12*
%TO.C,C75*%
X229941700Y-157496000D03*
X228391700Y-157496000D03*
%TD*%
D11*
%TO.C,R177*%
X202317400Y-159643200D03*
X202317400Y-161293200D03*
%TD*%
D13*
%TO.C,R127*%
X210393600Y-159731200D03*
X208743600Y-159731200D03*
%TD*%
%TO.C,R128*%
X179457400Y-159643200D03*
X177807400Y-159643200D03*
%TD*%
D11*
%TO.C,R120*%
X215473600Y-148600600D03*
X215473600Y-150250600D03*
%TD*%
D14*
%TO.C,D17*%
X179382400Y-163650198D03*
X177807400Y-163650198D03*
%TD*%
D15*
%TO.C,C28*%
X168806600Y-117214200D03*
X168806600Y-118174200D03*
%TD*%
D12*
%TO.C,C95*%
X226551200Y-132959600D03*
X225001200Y-132959600D03*
%TD*%
D11*
%TO.C,R125*%
X181997400Y-148619600D03*
X181997400Y-150269600D03*
%TD*%
D13*
%TO.C,R168*%
X159964399Y-173371000D03*
X158314399Y-173371000D03*
%TD*%
D11*
%TO.C,R85*%
X234188950Y-110049800D03*
X234188950Y-111699800D03*
%TD*%
D16*
%TO.C,R11*%
X182150300Y-96282000D03*
X183170300Y-96282000D03*
%TD*%
D11*
%TO.C,R126*%
X179457400Y-148619600D03*
X179457400Y-150269600D03*
%TD*%
D17*
%TO.C,C155*%
X200995400Y-117350400D03*
X202545400Y-117350400D03*
%TD*%
D13*
%TO.C,R55*%
X237191200Y-126356600D03*
X235541200Y-126356600D03*
%TD*%
%TO.C,R68*%
X226656950Y-111699800D03*
X225006950Y-111699800D03*
%TD*%
D12*
%TO.C,C91*%
X226551200Y-131537200D03*
X225001200Y-131537200D03*
%TD*%
D17*
%TO.C,C40*%
X205828350Y-105451400D03*
X207378350Y-105451400D03*
%TD*%
D12*
%TO.C,C63*%
X229941700Y-149139400D03*
X228391700Y-149139400D03*
%TD*%
D11*
%TO.C,R166*%
X167048600Y-169879400D03*
X167048600Y-171529400D03*
%TD*%
D13*
%TO.C,R77*%
X237191200Y-138320000D03*
X235541200Y-138320000D03*
%TD*%
D18*
%TO.C,C13*%
X195738800Y-109380600D03*
X195738800Y-110930600D03*
%TD*%
D19*
%TO.C,R65*%
X225001200Y-137111600D03*
X226651200Y-137111600D03*
%TD*%
D14*
%TO.C,D38*%
X194697400Y-165244664D03*
X193122400Y-165244664D03*
%TD*%
D12*
%TO.C,C128*%
X229927800Y-110328200D03*
X228377800Y-110328200D03*
%TD*%
D20*
%TO.C,C18*%
X183394400Y-121724000D03*
X183394400Y-120174000D03*
%TD*%
D21*
%TO.C,U5*%
X201930050Y-108524800D03*
X201930050Y-109794800D03*
X201930050Y-111064800D03*
X201930050Y-112334800D03*
X207378350Y-112334800D03*
X207378350Y-111064800D03*
X207378350Y-109794800D03*
X207378350Y-108524800D03*
%TD*%
D11*
%TO.C,R133*%
X212933600Y-159624200D03*
X212933600Y-161274200D03*
%TD*%
D12*
%TO.C,C80*%
X229922050Y-126635000D03*
X228372050Y-126635000D03*
%TD*%
D22*
%TO.C,J2*%
X193350600Y-93444000D03*
X188350600Y-93444000D03*
D23*
X192150600Y-94544000D03*
X191500600Y-94544000D03*
X190850600Y-94544000D03*
X190200600Y-94544000D03*
X189550600Y-94544000D03*
D24*
X194725600Y-90694000D03*
D25*
X194575600Y-94494000D03*
X187125600Y-94494000D03*
D24*
X186975600Y-90694000D03*
%TD*%
D26*
%TO.C,J7*%
X250196400Y-158561400D03*
X250196400Y-134661400D03*
D27*
X242396400Y-137721400D03*
X242396400Y-140261400D03*
X242396400Y-142801400D03*
X242396400Y-145341400D03*
X242396400Y-147881400D03*
X242396400Y-150421400D03*
X242396400Y-152961400D03*
X242396400Y-155501400D03*
%TD*%
D28*
%TO.C,D43*%
X161346334Y-162340500D03*
X161346334Y-163915500D03*
%TD*%
D11*
%TO.C,R35*%
X200197400Y-110684800D03*
X200197400Y-112334800D03*
%TD*%
%TO.C,R145*%
X218013600Y-159624200D03*
X218013600Y-161274200D03*
%TD*%
D29*
%TO.C,C27*%
X166631300Y-118174200D03*
X167591300Y-118174200D03*
%TD*%
D14*
%TO.C,D13*%
X210393600Y-163649400D03*
X208818600Y-163649400D03*
%TD*%
D11*
%TO.C,R151*%
X202317400Y-148619600D03*
X202317400Y-150269600D03*
%TD*%
%TO.C,R140*%
X184537400Y-159643200D03*
X184537400Y-161293200D03*
%TD*%
D13*
%TO.C,R79*%
X237196950Y-110049800D03*
X235546950Y-110049800D03*
%TD*%
D30*
%TO.C,R191*%
X222192000Y-144452200D03*
X222192000Y-142802200D03*
%TD*%
D31*
%TO.C,U3*%
X179056600Y-119849000D03*
X178556600Y-119849000D03*
X178056600Y-119849000D03*
X177556600Y-119849000D03*
X177056600Y-119849000D03*
X176556600Y-119849000D03*
X176056600Y-119849000D03*
X175556600Y-119849000D03*
X175056600Y-119849000D03*
X174556600Y-119849000D03*
X174056600Y-119849000D03*
X173556600Y-119849000D03*
X173056600Y-119849000D03*
X172556600Y-119849000D03*
X172056600Y-119849000D03*
X171556600Y-119849000D03*
X171056600Y-119849000D03*
X170556600Y-119849000D03*
X170056600Y-119849000D03*
X169556600Y-119849000D03*
X169056600Y-119849000D03*
X168556600Y-119849000D03*
X168056600Y-119849000D03*
X167556600Y-119849000D03*
X167056600Y-119849000D03*
D32*
X165381600Y-121524000D03*
X165381600Y-122024000D03*
X165381600Y-122524000D03*
X165381600Y-123024000D03*
X165381600Y-123524000D03*
X165381600Y-124024000D03*
X165381600Y-124524000D03*
X165381600Y-125024000D03*
X165381600Y-125524000D03*
X165381600Y-126024000D03*
X165381600Y-126524000D03*
X165381600Y-127024000D03*
X165381600Y-127524000D03*
X165381600Y-128024000D03*
X165381600Y-128524000D03*
X165381600Y-129024000D03*
X165381600Y-129524000D03*
X165381600Y-130024000D03*
X165381600Y-130524000D03*
X165381600Y-131024000D03*
X165381600Y-131524000D03*
X165381600Y-132024000D03*
X165381600Y-132524000D03*
X165381600Y-133024000D03*
X165381600Y-133524000D03*
D31*
X167056600Y-135199000D03*
X167556600Y-135199000D03*
X168056600Y-135199000D03*
X168556600Y-135199000D03*
X169056600Y-135199000D03*
X169556600Y-135199000D03*
X170056600Y-135199000D03*
X170556600Y-135199000D03*
X171056600Y-135199000D03*
X171556600Y-135199000D03*
X172056600Y-135199000D03*
X172556600Y-135199000D03*
X173056600Y-135199000D03*
X173556600Y-135199000D03*
X174056600Y-135199000D03*
X174556600Y-135199000D03*
X175056600Y-135199000D03*
X175556600Y-135199000D03*
X176056600Y-135199000D03*
X176556600Y-135199000D03*
X177056600Y-135199000D03*
X177556600Y-135199000D03*
X178056600Y-135199000D03*
X178556600Y-135199000D03*
X179056600Y-135199000D03*
D32*
X180731600Y-133524000D03*
X180731600Y-133024000D03*
X180731600Y-132524000D03*
X180731600Y-132024000D03*
X180731600Y-131524000D03*
X180731600Y-131024000D03*
X180731600Y-130524000D03*
X180731600Y-130024000D03*
X180731600Y-129524000D03*
X180731600Y-129024000D03*
X180731600Y-128524000D03*
X180731600Y-128024000D03*
X180731600Y-127524000D03*
X180731600Y-127024000D03*
X180731600Y-126524000D03*
X180731600Y-126024000D03*
X180731600Y-125524000D03*
X180731600Y-125024000D03*
X180731600Y-124524000D03*
X180731600Y-124024000D03*
X180731600Y-123524000D03*
X180731600Y-123024000D03*
X180731600Y-122524000D03*
X180731600Y-122024000D03*
X180731600Y-121524000D03*
%TD*%
D12*
%TO.C,C120*%
X237096950Y-106188000D03*
X235546950Y-106188000D03*
%TD*%
D14*
%TO.C,D37*%
X194697400Y-163650198D03*
X193122400Y-163650198D03*
%TD*%
D11*
%TO.C,R165*%
X197237400Y-159643200D03*
X197237400Y-161293200D03*
%TD*%
D33*
%TO.C,D60*%
X193503000Y-118049800D03*
X196303000Y-118049800D03*
%TD*%
D20*
%TO.C,C31*%
X176257000Y-115432400D03*
X176257000Y-113882400D03*
%TD*%
D34*
%TO.C,R181*%
X196392400Y-163897598D03*
X202317400Y-163897598D03*
%TD*%
D11*
%TO.C,R146*%
X187077400Y-159643200D03*
X187077400Y-161293200D03*
%TD*%
D35*
%TO.C,R21*%
X171558000Y-114247200D03*
X171558000Y-113227200D03*
%TD*%
D30*
%TO.C,R31*%
X201922800Y-103089200D03*
X201922800Y-101439200D03*
%TD*%
D17*
%TO.C,C159*%
X216566200Y-124018800D03*
X218116200Y-124018800D03*
%TD*%
D34*
%TO.C,R175*%
X196392400Y-167885398D03*
X202317400Y-167885398D03*
%TD*%
D19*
%TO.C,R43*%
X225001200Y-125148200D03*
X226651200Y-125148200D03*
%TD*%
D36*
%TO.C,C19*%
X182276800Y-121894000D03*
X182276800Y-120934000D03*
%TD*%
D11*
%TO.C,R9*%
X193720400Y-96986200D03*
X193720400Y-98636200D03*
%TD*%
D13*
%TO.C,R66*%
X226651200Y-139970000D03*
X225001200Y-139970000D03*
%TD*%
D12*
%TO.C,C37*%
X163455400Y-151577800D03*
X161905400Y-151577800D03*
%TD*%
D37*
%TO.C,J3*%
X214421800Y-98141201D03*
D38*
X210611800Y-98141201D03*
X206801800Y-98141201D03*
X202991800Y-98141201D03*
X199181800Y-98141201D03*
%TD*%
D21*
%TO.C,U7*%
X228391700Y-150739600D03*
X228391700Y-152009600D03*
X228391700Y-153279600D03*
X228391700Y-154549600D03*
X233840000Y-154549600D03*
X233840000Y-153279600D03*
X233840000Y-152009600D03*
X233840000Y-150739600D03*
%TD*%
%TO.C,U12*%
X228377800Y-104918000D03*
X228377800Y-106188000D03*
X228377800Y-107458000D03*
X228377800Y-108728000D03*
X233826100Y-108728000D03*
X233826100Y-107458000D03*
X233826100Y-106188000D03*
X233826100Y-104918000D03*
%TD*%
D30*
%TO.C,R30*%
X159670200Y-155707799D03*
X159670200Y-154057799D03*
%TD*%
D17*
%TO.C,C156*%
X200995400Y-118747400D03*
X202545400Y-118747400D03*
%TD*%
D19*
%TO.C,R54*%
X235549050Y-157482400D03*
X237199050Y-157482400D03*
%TD*%
D14*
%TO.C,D19*%
X179382400Y-166843998D03*
X177807400Y-166843998D03*
%TD*%
D29*
%TO.C,C24*%
X168817400Y-116195600D03*
X169777400Y-116195600D03*
%TD*%
D39*
%TO.C,D57*%
X167544800Y-174945800D03*
X167544800Y-177435000D03*
%TD*%
D21*
%TO.C,U8*%
X228372050Y-121224800D03*
X228372050Y-122494800D03*
X228372050Y-123764800D03*
X228372050Y-125034800D03*
X233820350Y-125034800D03*
X233820350Y-123764800D03*
X233820350Y-122494800D03*
X233820350Y-121224800D03*
%TD*%
D37*
%TO.C,J1*%
X239872600Y-98129000D03*
D38*
X236062600Y-98129000D03*
X232252600Y-98129000D03*
X228442600Y-98129000D03*
X224632600Y-98129000D03*
X220822600Y-98129000D03*
%TD*%
D16*
%TO.C,R10*%
X182122900Y-95012000D03*
X183142900Y-95012000D03*
%TD*%
D19*
%TO.C,R56*%
X235541200Y-128006600D03*
X237191200Y-128006600D03*
%TD*%
D12*
%TO.C,C111*%
X229922050Y-131537200D03*
X228372050Y-131537200D03*
%TD*%
D13*
%TO.C,R49*%
X226651200Y-122381400D03*
X225001200Y-122381400D03*
%TD*%
D40*
%TO.C,D6*%
X190183200Y-96986200D03*
X190183200Y-97646600D03*
X190183200Y-98307000D03*
X192266000Y-98307000D03*
X192266000Y-97646600D03*
X192266000Y-96986200D03*
%TD*%
D12*
%TO.C,C127*%
X229922050Y-138598400D03*
X228372050Y-138598400D03*
%TD*%
D11*
%TO.C,R122*%
X210393600Y-148600600D03*
X210393600Y-150250600D03*
%TD*%
D21*
%TO.C,U11*%
X228372050Y-133188200D03*
X228372050Y-134458200D03*
X228372050Y-135728200D03*
X228372050Y-136998200D03*
X233820350Y-136998200D03*
X233820350Y-135728200D03*
X233820350Y-134458200D03*
X233820350Y-133188200D03*
%TD*%
D12*
%TO.C,C112*%
X229927800Y-103317800D03*
X228377800Y-103317800D03*
%TD*%
D41*
%TO.C,U17*%
X172128600Y-162042600D03*
X170858600Y-162042600D03*
X169588600Y-162042600D03*
X168318600Y-162042600D03*
X167048600Y-162042600D03*
X165778600Y-162042600D03*
X164508600Y-162042600D03*
X163238600Y-162042600D03*
X163238600Y-168342598D03*
X164508600Y-168342598D03*
X165778600Y-168342598D03*
X167048600Y-168342598D03*
X168318600Y-168342598D03*
X169588600Y-168342598D03*
X170858600Y-168342598D03*
X172128600Y-168342598D03*
%TD*%
D34*
%TO.C,R137*%
X212088600Y-171872400D03*
X218013600Y-171872400D03*
%TD*%
D12*
%TO.C,C84*%
X237091200Y-119599200D03*
X235541200Y-119599200D03*
%TD*%
%TO.C,C132*%
X237096950Y-103317800D03*
X235546950Y-103317800D03*
%TD*%
D17*
%TO.C,C104*%
X231266750Y-111699800D03*
X232816750Y-111699800D03*
%TD*%
D30*
%TO.C,R183*%
X197300000Y-138049600D03*
X197300000Y-136399600D03*
%TD*%
D14*
%TO.C,D16*%
X179382400Y-162068798D03*
X177807400Y-162068798D03*
%TD*%
D17*
%TO.C,C52*%
X231261000Y-126635000D03*
X232811000Y-126635000D03*
%TD*%
D20*
%TO.C,C30*%
X163658600Y-135197400D03*
X163658600Y-133647400D03*
%TD*%
D11*
%TO.C,R158*%
X164508600Y-158855800D03*
X164508600Y-160505800D03*
%TD*%
D12*
%TO.C,C29*%
X180732600Y-136922000D03*
X179182600Y-136922000D03*
%TD*%
D14*
%TO.C,D15*%
X210393600Y-166843200D03*
X208818600Y-166843200D03*
%TD*%
D13*
%TO.C,R159*%
X194697400Y-159731998D03*
X193047400Y-159731998D03*
%TD*%
D35*
%TO.C,R23*%
X161499600Y-108732000D03*
X161499600Y-107712000D03*
%TD*%
D19*
%TO.C,R78*%
X235541200Y-139970000D03*
X237191200Y-139970000D03*
%TD*%
D42*
%TO.C,D41*%
X173869400Y-168342598D03*
X173869400Y-166767598D03*
%TD*%
D43*
%TO.C,R25*%
X182226500Y-102882000D03*
X182226500Y-103902000D03*
%TD*%
D12*
%TO.C,C44*%
X226551200Y-119599200D03*
X225001200Y-119599200D03*
%TD*%
%TO.C,C79*%
X229941700Y-156149800D03*
X228391700Y-156149800D03*
%TD*%
D14*
%TO.C,D12*%
X210393600Y-162068000D03*
X208818600Y-162068000D03*
%TD*%
D13*
%TO.C,R42*%
X226670850Y-157496000D03*
X225020850Y-157496000D03*
%TD*%
D14*
%TO.C,D39*%
X194697400Y-166843998D03*
X193122400Y-166843998D03*
%TD*%
D44*
%TO.C,J9*%
X184785000Y-181051200D03*
D38*
X188595000Y-181051200D03*
X192405000Y-181051200D03*
X196215000Y-181051200D03*
X200025000Y-181051200D03*
X203835000Y-181051200D03*
X207645000Y-181051200D03*
X211455000Y-181051200D03*
%TD*%
D11*
%TO.C,R61*%
X234183200Y-126356600D03*
X234183200Y-128006600D03*
%TD*%
D14*
%TO.C,D18*%
X179382400Y-165244664D03*
X177807400Y-165244664D03*
%TD*%
D26*
%TO.C,J8*%
X250109800Y-132336600D03*
X250109800Y-108436600D03*
D27*
X242309800Y-111496600D03*
X242309800Y-114036600D03*
X242309800Y-116576600D03*
X242309800Y-119116600D03*
X242309800Y-121656600D03*
X242309800Y-124196600D03*
X242309800Y-126736600D03*
X242309800Y-129276600D03*
%TD*%
D45*
%TO.C,H1*%
X246005400Y-93116600D03*
X246708344Y-91419544D03*
X246708344Y-94813656D03*
X248405400Y-90716600D03*
D46*
X248405400Y-93116600D03*
D45*
X248405400Y-95516600D03*
X250102456Y-91419544D03*
X250102456Y-94813656D03*
X250805400Y-93116600D03*
%TD*%
D12*
%TO.C,C43*%
X226570450Y-149139400D03*
X225020450Y-149139400D03*
%TD*%
%TO.C,C116*%
X237096950Y-108728000D03*
X235546950Y-108728000D03*
%TD*%
D11*
%TO.C,R178*%
X172128600Y-169879400D03*
X172128600Y-171529400D03*
%TD*%
D35*
%TO.C,R203*%
X177556600Y-138371800D03*
X177556600Y-137351800D03*
%TD*%
D41*
%TO.C,U15*%
X187077400Y-151806400D03*
X185807400Y-151806400D03*
X184537400Y-151806400D03*
X183267400Y-151806400D03*
X181997400Y-151806400D03*
X180727400Y-151806400D03*
X179457400Y-151806400D03*
X178187400Y-151806400D03*
X178187400Y-158106398D03*
X179457400Y-158106398D03*
X180727400Y-158106398D03*
X181997400Y-158106398D03*
X183267400Y-158106398D03*
X184537400Y-158106398D03*
X185807400Y-158106398D03*
X187077400Y-158106398D03*
%TD*%
D12*
%TO.C,C96*%
X226556950Y-104689400D03*
X225006950Y-104689400D03*
%TD*%
%TO.C,C124*%
X229927800Y-111699800D03*
X228377800Y-111699800D03*
%TD*%
D34*
%TO.C,R144*%
X181152400Y-167885398D03*
X187077400Y-167885398D03*
%TD*%
D12*
%TO.C,C119*%
X237091200Y-134458200D03*
X235541200Y-134458200D03*
%TD*%
D30*
%TO.C,R190*%
X222166600Y-141569200D03*
X222166600Y-139919200D03*
%TD*%
D19*
%TO.C,R80*%
X235546950Y-111699800D03*
X237196950Y-111699800D03*
%TD*%
D17*
%TO.C,C100*%
X231266750Y-110328200D03*
X232816750Y-110328200D03*
%TD*%
D12*
%TO.C,C71*%
X237199450Y-152009600D03*
X235649450Y-152009600D03*
%TD*%
%TO.C,C68*%
X237091200Y-125034800D03*
X235541200Y-125034800D03*
%TD*%
%TO.C,C76*%
X229922050Y-128006600D03*
X228372050Y-128006600D03*
%TD*%
D47*
%TO.C,U1*%
X163100300Y-91202000D03*
X163100300Y-92472000D03*
X163100300Y-93742000D03*
X163100300Y-95012000D03*
X163100300Y-96282000D03*
X163100300Y-97552000D03*
X163100300Y-98822000D03*
X163100300Y-100092000D03*
X163100300Y-101362000D03*
X163100300Y-102632000D03*
X163100300Y-103902000D03*
X163100300Y-105172000D03*
X163100300Y-106442000D03*
X163100300Y-107712000D03*
D48*
X166135300Y-108807000D03*
X167405300Y-108807000D03*
X168675300Y-108807000D03*
X169945300Y-108807000D03*
X171215300Y-108807000D03*
X172485300Y-108807000D03*
X173755300Y-108807000D03*
X175025300Y-108807000D03*
X176295300Y-108807000D03*
X177565300Y-108807000D03*
D47*
X180600300Y-107712000D03*
X180600300Y-106442000D03*
X180600300Y-105172000D03*
X180600300Y-103902000D03*
X180600300Y-102632000D03*
X180600300Y-101362000D03*
X180600300Y-100092000D03*
X180600300Y-98822000D03*
X180600300Y-97552000D03*
X180600300Y-96282000D03*
X180600300Y-95012000D03*
X180600300Y-93742000D03*
X180600300Y-92472000D03*
X180600300Y-91202000D03*
D49*
X168950300Y-98067000D03*
X168950300Y-99467000D03*
X169650300Y-97367000D03*
X169650300Y-98767000D03*
X169650300Y-100167000D03*
X170350300Y-98067000D03*
D50*
X170350300Y-98767000D03*
D49*
X170350300Y-99467000D03*
X171050300Y-97367000D03*
X171050300Y-98767000D03*
X171050300Y-100167000D03*
X171750300Y-98067000D03*
X171750300Y-99467000D03*
%TD*%
D51*
%TO.C,Q4*%
X202383399Y-106654400D03*
X204283401Y-106654400D03*
X203333400Y-104622400D03*
%TD*%
D11*
%TO.C,R153*%
X197237400Y-148619600D03*
X197237400Y-150269600D03*
%TD*%
D12*
%TO.C,C131*%
X237091200Y-131537200D03*
X235541200Y-131537200D03*
%TD*%
D30*
%TO.C,R37*%
X209118550Y-109794800D03*
X209118550Y-108144800D03*
%TD*%
D17*
%TO.C,C135*%
X232270350Y-131537200D03*
X233820350Y-131537200D03*
%TD*%
D12*
%TO.C,C47*%
X226570450Y-150561400D03*
X225020450Y-150561400D03*
%TD*%
D42*
%TO.C,D42*%
X161346334Y-167021200D03*
X161346334Y-165446200D03*
%TD*%
D16*
%TO.C,R19*%
X167405300Y-111471200D03*
X168425300Y-111471200D03*
%TD*%
D12*
%TO.C,C64*%
X229928400Y-119599200D03*
X228378400Y-119599200D03*
%TD*%
D52*
%TO.C,Q20*%
X170858600Y-175534998D03*
X170858600Y-177435000D03*
X172890600Y-176484999D03*
%TD*%
D34*
%TO.C,R131*%
X212088600Y-175911000D03*
X218013600Y-175911000D03*
%TD*%
D11*
%TO.C,R33*%
X200197400Y-103089200D03*
X200197400Y-104739200D03*
%TD*%
%TO.C,R121*%
X212933600Y-148600600D03*
X212933600Y-150250600D03*
%TD*%
D30*
%TO.C,R185*%
X198672000Y-138049600D03*
X198672000Y-136399600D03*
%TD*%
D39*
%TO.C,D49*%
X158314399Y-169256200D03*
X158314399Y-171745400D03*
%TD*%
D53*
%TO.C,Y1*%
X172956800Y-113227200D03*
X172956800Y-115427200D03*
X174656800Y-115427200D03*
X174656800Y-113227200D03*
%TD*%
D17*
%TO.C,C87*%
X232290000Y-149139400D03*
X233840000Y-149139400D03*
%TD*%
D19*
%TO.C,R188*%
X205290200Y-138598400D03*
X206940200Y-138598400D03*
%TD*%
D11*
%TO.C,R155*%
X172128600Y-158855800D03*
X172128600Y-160505800D03*
%TD*%
%TO.C,R32*%
X203333400Y-101439200D03*
X203333400Y-103089200D03*
%TD*%
%TO.C,R34*%
X200197400Y-106874800D03*
X200197400Y-108524800D03*
%TD*%
D36*
%TO.C,C20*%
X165381600Y-135367400D03*
X165381600Y-134407400D03*
%TD*%
D17*
%TO.C,C107*%
X225101200Y-135728200D03*
X226651200Y-135728200D03*
%TD*%
D44*
%TO.C,J4*%
X242474800Y-180889400D03*
D38*
X246284800Y-180889400D03*
%TD*%
D54*
%TO.C,C25*%
X166447400Y-115433600D03*
X165487400Y-115433600D03*
%TD*%
D14*
%TO.C,D14*%
X210393600Y-165243866D03*
X208818600Y-165243866D03*
%TD*%
D13*
%TO.C,R73*%
X226656950Y-106074600D03*
X225006950Y-106074600D03*
%TD*%
D11*
%TO.C,R84*%
X234183200Y-138320000D03*
X234183200Y-139970000D03*
%TD*%
%TO.C,R124*%
X184537400Y-148619600D03*
X184537400Y-150269600D03*
%TD*%
D12*
%TO.C,C83*%
X237110850Y-149139400D03*
X235560850Y-149139400D03*
%TD*%
D19*
%TO.C,R189*%
X205315600Y-139944600D03*
X206965600Y-139944600D03*
%TD*%
D11*
%TO.C,R123*%
X187077400Y-148619600D03*
X187077400Y-150269600D03*
%TD*%
D13*
%TO.C,R53*%
X237210850Y-155846000D03*
X235560850Y-155846000D03*
%TD*%
D11*
%TO.C,R38*%
X209118550Y-111064800D03*
X209118550Y-112714800D03*
%TD*%
D15*
%TO.C,C23*%
X174216600Y-117214200D03*
X174216600Y-118174200D03*
%TD*%
D11*
%TO.C,R154*%
X194697400Y-148619600D03*
X194697400Y-150269600D03*
%TD*%
D13*
%TO.C,R36*%
X213352800Y-101274000D03*
X211702800Y-101274000D03*
%TD*%
D12*
%TO.C,C48*%
X226551200Y-120996200D03*
X225001200Y-120996200D03*
%TD*%
D34*
%TO.C,R132*%
X181152400Y-175911798D03*
X187077400Y-175911798D03*
%TD*%
D55*
%TO.C,U18*%
X193503000Y-120601600D03*
X193503000Y-121871600D03*
X193503000Y-123141600D03*
X193503000Y-124411600D03*
X193503000Y-125681600D03*
X193503000Y-126951600D03*
X193503000Y-128221600D03*
X193503000Y-129491600D03*
X193503000Y-130761600D03*
X193503000Y-132031600D03*
X193503000Y-133301600D03*
X193503000Y-134571600D03*
X202545400Y-134571600D03*
X202545400Y-133301600D03*
X202545400Y-132031600D03*
X202545400Y-130761600D03*
X202545400Y-129491600D03*
X202545400Y-128221600D03*
X202545400Y-126951600D03*
X202545400Y-125681600D03*
X202545400Y-124411600D03*
X202545400Y-123141600D03*
X202545400Y-121871600D03*
X202545400Y-120601600D03*
%TD*%
D56*
%TO.C,R164*%
X155346400Y-171510000D03*
X155346400Y-177435000D03*
%TD*%
D11*
%TO.C,R152*%
X199777400Y-148619600D03*
X199777400Y-150269600D03*
%TD*%
D30*
%TO.C,R186*%
X200043200Y-138049600D03*
X200043200Y-136399600D03*
%TD*%
D11*
%TO.C,R29*%
X164904400Y-155007800D03*
X164904400Y-156657800D03*
%TD*%
%TO.C,R139*%
X215473600Y-159624200D03*
X215473600Y-161274200D03*
%TD*%
D34*
%TO.C,R138*%
X181152400Y-171873198D03*
X187077400Y-171873198D03*
%TD*%
D13*
%TO.C,R72*%
X226651200Y-134344800D03*
X225001200Y-134344800D03*
%TD*%
D18*
%TO.C,C12*%
X160012500Y-90922000D03*
X160012500Y-92472000D03*
%TD*%
D17*
%TO.C,C88*%
X232270350Y-119599200D03*
X233820350Y-119599200D03*
%TD*%
D11*
%TO.C,R8*%
X188728400Y-96986200D03*
X188728400Y-98636200D03*
%TD*%
D17*
%TO.C,C60*%
X225101200Y-123764800D03*
X226651200Y-123764800D03*
%TD*%
D12*
%TO.C,C92*%
X226556950Y-103317800D03*
X225006950Y-103317800D03*
%TD*%
D17*
%TO.C,C108*%
X225106950Y-107458000D03*
X226656950Y-107458000D03*
%TD*%
D11*
%TO.C,R119*%
X218013600Y-148600600D03*
X218013600Y-150250600D03*
%TD*%
%TO.C,R157*%
X167048600Y-158855800D03*
X167048600Y-160505800D03*
%TD*%
D17*
%TO.C,C103*%
X231261000Y-139970000D03*
X232811000Y-139970000D03*
%TD*%
D57*
%TO.C,R20*%
X162519600Y-110429800D03*
X161499600Y-110429800D03*
%TD*%
D30*
%TO.C,R187*%
X205021600Y-135232000D03*
X205021600Y-133582000D03*
%TD*%
D11*
%TO.C,R171*%
X199777400Y-159643200D03*
X199777400Y-161293200D03*
%TD*%
D13*
%TO.C,R48*%
X226670850Y-151933000D03*
X225020850Y-151933000D03*
%TD*%
D11*
%TO.C,R180*%
X169272000Y-175785000D03*
X169272000Y-177435000D03*
%TD*%
D12*
%TO.C,C14*%
X190292400Y-113775400D03*
X188742400Y-113775400D03*
%TD*%
D15*
%TO.C,C22*%
X176556600Y-117214200D03*
X176556600Y-118174200D03*
%TD*%
D13*
%TO.C,R44*%
X226651200Y-128006600D03*
X225001200Y-128006600D03*
%TD*%
D17*
%TO.C,C41*%
X205828350Y-106899200D03*
X207378350Y-106899200D03*
%TD*%
D18*
%TO.C,C11*%
X161358700Y-90922000D03*
X161358700Y-92472000D03*
%TD*%
D58*
%TO.C,D63*%
X182896601Y-142764000D03*
X180996599Y-142764000D03*
X181946600Y-144796000D03*
%TD*%
D15*
%TO.C,C26*%
X163658600Y-121760800D03*
X163658600Y-122720800D03*
%TD*%
D34*
%TO.C,R149*%
X212088600Y-163896800D03*
X218013600Y-163896800D03*
%TD*%
D12*
%TO.C,C72*%
X237091200Y-122494800D03*
X235541200Y-122494800D03*
%TD*%
D44*
%TO.C,J10*%
X155346400Y-181051200D03*
D38*
X159156400Y-181051200D03*
X162966400Y-181051200D03*
X166776400Y-181051200D03*
X170586400Y-181051200D03*
X174396400Y-181051200D03*
X178206400Y-181051200D03*
%TD*%
D20*
%TO.C,C38*%
X207378350Y-102989200D03*
X207378350Y-101439200D03*
%TD*%
D17*
%TO.C,C136*%
X232276100Y-103317800D03*
X233826100Y-103317800D03*
%TD*%
D11*
%TO.C,R60*%
X234202850Y-155846000D03*
X234202850Y-157496000D03*
%TD*%
D13*
%TO.C,R160*%
X164508600Y-169879400D03*
X162858600Y-169879400D03*
%TD*%
D34*
%TO.C,R150*%
X181152400Y-163897598D03*
X187077400Y-163897598D03*
%TD*%
D59*
%TO.C,D61*%
X198380400Y-115249800D03*
X198380400Y-118049800D03*
%TD*%
D19*
%TO.C,R67*%
X225006950Y-108841400D03*
X226656950Y-108841400D03*
%TD*%
D12*
%TO.C,C115*%
X237091200Y-136998200D03*
X235541200Y-136998200D03*
%TD*%
D28*
%TO.C,D40*%
X173869400Y-162042600D03*
X173869400Y-163617600D03*
%TD*%
D17*
%TO.C,C56*%
X231261000Y-128006600D03*
X232811000Y-128006600D03*
%TD*%
D60*
%TO.C,FB1*%
X165466300Y-116805200D03*
X167591300Y-116805200D03*
%TD*%
D44*
%TO.C,J6*%
X227260200Y-180889400D03*
D38*
X231070200Y-180889400D03*
%TD*%
D34*
%TO.C,R143*%
X212089401Y-167884600D03*
X218014401Y-167884600D03*
%TD*%
D55*
%TO.C,U19*%
X209073800Y-127219200D03*
X209073800Y-128489200D03*
X209073800Y-129759200D03*
X209073800Y-131029200D03*
X209073800Y-132299200D03*
X209073800Y-133569200D03*
X209073800Y-134839200D03*
X209073800Y-136109200D03*
X209073800Y-137379200D03*
X209073800Y-138649200D03*
X209073800Y-139919200D03*
X209073800Y-141189200D03*
X218116200Y-141189200D03*
X218116200Y-139919200D03*
X218116200Y-138649200D03*
X218116200Y-137379200D03*
X218116200Y-136109200D03*
X218116200Y-134839200D03*
X218116200Y-133569200D03*
X218116200Y-132299200D03*
X218116200Y-131029200D03*
X218116200Y-129759200D03*
X218116200Y-128489200D03*
X218116200Y-127219200D03*
%TD*%
D11*
%TO.C,R192*%
X215220600Y-123740400D03*
X215220600Y-125390400D03*
%TD*%
D34*
%TO.C,R169*%
X196392400Y-171873198D03*
X202317400Y-171873198D03*
%TD*%
D57*
%TO.C,R22*%
X168425300Y-110404400D03*
X167405300Y-110404400D03*
%TD*%
D54*
%TO.C,C21*%
X180902600Y-135199000D03*
X179942600Y-135199000D03*
%TD*%
D58*
%TO.C,Q16*%
X160214401Y-175123600D03*
X158314399Y-175123600D03*
X159264400Y-177155600D03*
%TD*%
D17*
%TO.C,C51*%
X231280650Y-157496000D03*
X232830650Y-157496000D03*
%TD*%
D12*
%TO.C,C36*%
X163455400Y-153127200D03*
X161905400Y-153127200D03*
%TD*%
D35*
%TO.C,R204*%
X182327600Y-134544000D03*
X182327600Y-133524000D03*
%TD*%
D17*
%TO.C,C55*%
X231280650Y-156149800D03*
X232830650Y-156149800D03*
%TD*%
D41*
%TO.C,U16*%
X202317400Y-151806400D03*
X201047400Y-151806400D03*
X199777400Y-151806400D03*
X198507400Y-151806400D03*
X197237400Y-151806400D03*
X195967400Y-151806400D03*
X194697400Y-151806400D03*
X193427400Y-151806400D03*
X193427400Y-158106398D03*
X194697400Y-158106398D03*
X195967400Y-158106398D03*
X197237400Y-158106398D03*
X198507400Y-158106398D03*
X199777400Y-158106398D03*
X201047400Y-158106398D03*
X202317400Y-158106398D03*
%TD*%
D17*
%TO.C,C32*%
X172957400Y-111522000D03*
X174507400Y-111522000D03*
%TD*%
D57*
%TO.C,R24*%
X177315300Y-110404400D03*
X176295300Y-110404400D03*
%TD*%
D11*
%TO.C,R156*%
X169588600Y-158855800D03*
X169588600Y-160505800D03*
%TD*%
D61*
%TO.C,Q3*%
X163316000Y-156657800D03*
X163316000Y-154757798D03*
X161284000Y-155707799D03*
%TD*%
D56*
%TO.C,R176*%
X162966400Y-171510000D03*
X162966400Y-177435000D03*
%TD*%
D14*
%TO.C,D36*%
X194697400Y-162068798D03*
X193122400Y-162068798D03*
%TD*%
D17*
%TO.C,C59*%
X225120850Y-153279600D03*
X226670850Y-153279600D03*
%TD*%
D20*
%TO.C,C39*%
X205828350Y-102989200D03*
X205828350Y-101439200D03*
%TD*%
D62*
%TO.C,U2*%
X193692400Y-110930600D03*
X193692400Y-109660600D03*
X193692400Y-108390600D03*
X193692400Y-107120600D03*
X193692400Y-105850600D03*
X193692400Y-104580600D03*
X193692400Y-103310600D03*
X193692400Y-102040600D03*
X188742400Y-102040600D03*
X188742400Y-103310600D03*
X188742400Y-104580600D03*
X188742400Y-105850600D03*
X188742400Y-107120600D03*
X188742400Y-108390600D03*
X188742400Y-109660600D03*
X188742400Y-110930600D03*
%TD*%
D41*
%TO.C,U14*%
X218013600Y-151787400D03*
X216743600Y-151787400D03*
X215473600Y-151787400D03*
X214203600Y-151787400D03*
X212933600Y-151787400D03*
X211663600Y-151787400D03*
X210393600Y-151787400D03*
X209123600Y-151787400D03*
X209123600Y-158087398D03*
X210393600Y-158087398D03*
X211663600Y-158087398D03*
X212933600Y-158087398D03*
X214203600Y-158087398D03*
X215473600Y-158087398D03*
X216743600Y-158087398D03*
X218013600Y-158087398D03*
%TD*%
D12*
%TO.C,C123*%
X229922050Y-139970000D03*
X228372050Y-139970000D03*
%TD*%
D63*
%TO.C,U4*%
X282979800Y-92986600D03*
D64*
X282979800Y-92986600D03*
D63*
X282979800Y-163986600D03*
D64*
X282979800Y-163986600D03*
D45*
X153221800Y-93116600D03*
X153321800Y-164116600D03*
X153924744Y-91419544D03*
X153924744Y-94813656D03*
X154024744Y-162419544D03*
X154024744Y-165813656D03*
X155621800Y-90716600D03*
D46*
X155621800Y-93116600D03*
D45*
X155621800Y-95516600D03*
X155721800Y-161716600D03*
D46*
X155721800Y-164116600D03*
D45*
X155721800Y-166516600D03*
D65*
X156749800Y-110226600D03*
D45*
X157318856Y-91419544D03*
X157318856Y-94813656D03*
X157418856Y-162419544D03*
X157418856Y-165813656D03*
X158021800Y-93116600D03*
X158121800Y-164116600D03*
D66*
X156749800Y-98186600D03*
X154209800Y-110226600D03*
X154209800Y-98186600D03*
X156749800Y-112766600D03*
X156749800Y-100726600D03*
X154209800Y-112766600D03*
X154209800Y-100726600D03*
X156749800Y-115306600D03*
X156749800Y-103266600D03*
X154209800Y-115306600D03*
X154209800Y-103266600D03*
X156749800Y-117846600D03*
X156749800Y-105806600D03*
X154209800Y-117846600D03*
X154209800Y-105806600D03*
X156749800Y-120386600D03*
X154209800Y-120386600D03*
X156749800Y-122926600D03*
X154209800Y-122926600D03*
X156749800Y-125466600D03*
X154209800Y-125466600D03*
X156749800Y-128006600D03*
X154209800Y-128006600D03*
X156749800Y-130546600D03*
X154209800Y-130546600D03*
X156749800Y-133086600D03*
X154209800Y-133086600D03*
X156749800Y-135626600D03*
X154209800Y-135626600D03*
X156749800Y-138166600D03*
X154209800Y-138166600D03*
X156749800Y-140706600D03*
X154209800Y-140706600D03*
X156749800Y-143246600D03*
X154209800Y-143246600D03*
X156749800Y-145786600D03*
X154209800Y-145786600D03*
X156749800Y-148326600D03*
X154209800Y-148326600D03*
X156749800Y-150866600D03*
X154209800Y-150866600D03*
X156749800Y-153406600D03*
X154209800Y-153406600D03*
X156749800Y-155946600D03*
X154209800Y-155946600D03*
X156749800Y-158486600D03*
X154209800Y-158486600D03*
%TD*%
D11*
%TO.C,R134*%
X181997400Y-159643200D03*
X181997400Y-161293200D03*
%TD*%
D12*
%TO.C,C17*%
X190292400Y-112429200D03*
X188742400Y-112429200D03*
%TD*%
D34*
%TO.C,R163*%
X196392400Y-175911798D03*
X202317400Y-175911798D03*
%TD*%
D17*
%TO.C,C158*%
X216566200Y-125390400D03*
X218116200Y-125390400D03*
%TD*%
D30*
%TO.C,R184*%
X195928400Y-138049600D03*
X195928400Y-136399600D03*
%TD*%
D12*
%TO.C,C67*%
X237110850Y-154549600D03*
X235560850Y-154549600D03*
%TD*%
D17*
%TO.C,C99*%
X231261000Y-138598400D03*
X232811000Y-138598400D03*
%TD*%
D19*
%TO.C,R41*%
X225020850Y-154637600D03*
X226670850Y-154637600D03*
%TD*%
D67*
%TO.C,J5*%
X178060400Y-140325600D03*
D68*
X180600400Y-140325600D03*
X183140400Y-140325600D03*
X185680400Y-140325600D03*
%TD*%
M02*
