%TF.GenerationSoftware,KiCad,Pcbnew,8.0.4*%
%TF.CreationDate,2024-10-07T11:54:42+07:00*%
%TF.ProjectId,System_Control,53797374-656d-45f4-936f-6e74726f6c2e,rev?*%
%TF.SameCoordinates,Original*%
%TF.FileFunction,Plated,3,4,Blind,Drill*%
%TF.FilePolarity,Positive*%
%FSLAX46Y46*%
G04 Gerber Fmt 4.6, Leading zero omitted, Abs format (unit mm)*
G04 Created by KiCad (PCBNEW 8.0.4) date 2024-10-07 11:54:42*
%MOMM*%
%LPD*%
G01*
G04 APERTURE LIST*
%TA.AperFunction,ViaDrill*%
%ADD10C,0.400000*%
%TD*%
G04 APERTURE END LIST*
D10*
X152914400Y-108016800D03*
X152939800Y-107067000D03*
X172015200Y-105349800D03*
X178162000Y-105324400D03*
X186112200Y-105197400D03*
X196348800Y-115228600D03*
X196348800Y-119355200D03*
X196348800Y-123497200D03*
X196348800Y-127623800D03*
X196348800Y-131803000D03*
X196348800Y-135943200D03*
X196348800Y-140083400D03*
X196348800Y-144299800D03*
X199752400Y-115228600D03*
X199752400Y-119368800D03*
X199752400Y-123509000D03*
X199752400Y-127674600D03*
X199752400Y-131814800D03*
X199752400Y-135955000D03*
X199752400Y-140095200D03*
X199752400Y-144235400D03*
X211563000Y-130343400D03*
X212934600Y-126304800D03*
X215220600Y-107688029D03*
X215500000Y-113706400D03*
X215576200Y-135499600D03*
X216719200Y-105502200D03*
X216719200Y-106492800D03*
X218725800Y-126287800D03*
X218751200Y-141316200D03*
X222000166Y-129479800D03*
X222104000Y-113884200D03*
X223704200Y-119142000D03*
X224644000Y-105426000D03*
X224644000Y-106442000D03*
X228403800Y-139614400D03*
X229724000Y-105934000D03*
X232252600Y-105349800D03*
X235515200Y-150866600D03*
X235566000Y-121910600D03*
X237344000Y-105248200D03*
X238347400Y-141849600D03*
X238512400Y-110582200D03*
X238995000Y-134407400D03*
X240061800Y-107540600D03*
M02*
