%TF.GenerationSoftware,KiCad,Pcbnew,8.0.4*%
%TF.CreationDate,2024-10-07T12:30:45+07:00*%
%TF.ProjectId,System_Control,53797374-656d-45f4-936f-6e74726f6c2e,rev?*%
%TF.SameCoordinates,Original*%
%TF.FileFunction,Plated,1,2,Blind,Drill*%
%TF.FilePolarity,Positive*%
%FSLAX46Y46*%
G04 Gerber Fmt 4.6, Leading zero omitted, Abs format (unit mm)*
G04 Created by KiCad (PCBNEW 8.0.4) date 2024-10-07 12:30:45*
%MOMM*%
%LPD*%
G01*
G04 APERTURE LIST*
%TA.AperFunction,ViaDrill*%
%ADD10C,0.400000*%
%TD*%
G04 APERTURE END LIST*
D10*
X161347200Y-160594800D03*
X162217200Y-115738400D03*
X162217200Y-116932200D03*
X162668000Y-135144000D03*
X163176000Y-90186000D03*
X163658600Y-120894600D03*
X163938000Y-136668000D03*
X164192000Y-90186000D03*
X164192000Y-91227400D03*
X164344400Y-116805200D03*
X164395200Y-115382800D03*
X164852400Y-106188000D03*
X164852400Y-107204000D03*
X165208000Y-90186000D03*
X165208000Y-91202000D03*
X165208000Y-136668000D03*
X165766800Y-119167400D03*
X165868400Y-106188000D03*
X165868400Y-107204000D03*
X167443200Y-115357400D03*
X168449404Y-112595200D03*
X168560800Y-115382800D03*
X170542000Y-110252000D03*
X170542000Y-111268000D03*
X170542000Y-112284000D03*
X170542000Y-113300000D03*
X170542000Y-114316000D03*
X171558000Y-110252000D03*
X172538969Y-116738631D03*
X172574000Y-110252000D03*
X173590000Y-110252000D03*
X173869400Y-160645600D03*
X173869400Y-169713400D03*
X174606000Y-110252000D03*
X175393400Y-117084600D03*
X175876000Y-111522000D03*
X176384000Y-112538000D03*
X177654000Y-112538000D03*
X177654000Y-113808000D03*
X177654000Y-114824000D03*
X177654000Y-115840000D03*
X177654000Y-116856000D03*
X179330400Y-116322600D03*
X179381200Y-160823400D03*
X181972000Y-90592400D03*
X183318200Y-90592400D03*
X188068000Y-117618000D03*
X189084000Y-116602000D03*
X191725600Y-112436400D03*
X191725600Y-113808000D03*
X192716200Y-135753600D03*
X194291000Y-135753600D03*
X194697400Y-160848800D03*
X199675800Y-117414800D03*
X208286400Y-142383000D03*
X209861200Y-142383000D03*
X210394600Y-160874200D03*
X210674000Y-109236000D03*
X210674000Y-111776000D03*
X211436000Y-103394000D03*
X211436000Y-104664000D03*
X211436000Y-105934000D03*
X211436000Y-107204000D03*
X211436000Y-108220000D03*
X211944000Y-111776000D03*
X212960000Y-111014000D03*
X213214000Y-123739400D03*
X213722000Y-103394000D03*
X213722000Y-104664000D03*
X213722000Y-105934000D03*
X213722000Y-107204000D03*
X213722000Y-108220000D03*
X213722000Y-109236000D03*
X213722000Y-110252000D03*
X214128400Y-123739400D03*
X222637400Y-146847000D03*
X222688200Y-107991400D03*
X223925887Y-122735537D03*
X224542400Y-113681000D03*
X226549000Y-130616400D03*
X226556950Y-101810800D03*
X226650600Y-129156000D03*
X229978000Y-154752800D03*
X230028800Y-109032800D03*
X230079600Y-125339600D03*
X230130400Y-137303000D03*
X231171800Y-154752800D03*
X231248000Y-125365000D03*
X231248000Y-137303000D03*
X231273400Y-109032800D03*
X238590400Y-152009600D03*
X238630660Y-154549600D03*
X238716200Y-149139400D03*
X238766400Y-106188000D03*
X238766400Y-107934200D03*
X238766400Y-118938800D03*
X239680800Y-103317800D03*
M02*
