%TF.GenerationSoftware,KiCad,Pcbnew,8.0.4*%
%TF.CreationDate,2024-10-07T12:30:42+07:00*%
%TF.ProjectId,System_Control,53797374-656d-45f4-936f-6e74726f6c2e,rev?*%
%TF.SameCoordinates,Original*%
%TF.FileFunction,Paste,Bot*%
%TF.FilePolarity,Positive*%
%FSLAX46Y46*%
G04 Gerber Fmt 4.6, Leading zero omitted, Abs format (unit mm)*
G04 Created by KiCad (PCBNEW 8.0.4) date 2024-10-07 12:30:42*
%MOMM*%
%LPD*%
G01*
G04 APERTURE LIST*
G04 Aperture macros list*
%AMRoundRect*
0 Rectangle with rounded corners*
0 $1 Rounding radius*
0 $2 $3 $4 $5 $6 $7 $8 $9 X,Y pos of 4 corners*
0 Add a 4 corners polygon primitive as box body*
4,1,4,$2,$3,$4,$5,$6,$7,$8,$9,$2,$3,0*
0 Add four circle primitives for the rounded corners*
1,1,$1+$1,$2,$3*
1,1,$1+$1,$4,$5*
1,1,$1+$1,$6,$7*
1,1,$1+$1,$8,$9*
0 Add four rect primitives between the rounded corners*
20,1,$1+$1,$2,$3,$4,$5,0*
20,1,$1+$1,$4,$5,$6,$7,0*
20,1,$1+$1,$6,$7,$8,$9,0*
20,1,$1+$1,$8,$9,$2,$3,0*%
G04 Aperture macros list end*
%ADD10RoundRect,0.170600X0.170600X0.244100X-0.170600X0.244100X-0.170600X-0.244100X0.170600X-0.244100X0*%
%ADD11RoundRect,0.174600X0.174600X0.249600X-0.174600X0.249600X-0.174600X-0.249600X0.174600X-0.249600X0*%
%ADD12RoundRect,0.235889X0.613311X-0.963311X0.613311X0.963311X-0.613311X0.963311X-0.613311X-0.963311X0*%
%ADD13R,0.431800X1.066800*%
%ADD14RoundRect,0.218350X-0.430850X0.218350X-0.430850X-0.218350X0.430850X-0.218350X0.430850X0.218350X0*%
%ADD15RoundRect,0.170600X-0.170600X-0.244100X0.170600X-0.244100X0.170600X0.244100X-0.170600X0.244100X0*%
%ADD16RoundRect,0.174600X-0.174600X-0.249600X0.174600X-0.249600X0.174600X0.249600X-0.174600X0.249600X0*%
%ADD17RoundRect,0.199600X0.199600X0.224600X-0.199600X0.224600X-0.199600X-0.224600X0.199600X-0.224600X0*%
%ADD18RoundRect,0.235889X-0.963311X-0.613311X0.963311X-0.613311X0.963311X0.613311X-0.963311X0.613311X0*%
%ADD19RoundRect,0.199600X-0.224600X0.199600X-0.224600X-0.199600X0.224600X-0.199600X0.224600X0.199600X0*%
%ADD20RoundRect,0.170600X-0.244100X0.170600X-0.244100X-0.170600X0.244100X-0.170600X0.244100X0.170600X0*%
%ADD21RoundRect,0.174600X-0.249600X0.174600X-0.249600X-0.174600X0.249600X-0.174600X0.249600X0.174600X0*%
%ADD22RoundRect,0.109600X-0.159600X0.109600X-0.159600X-0.109600X0.159600X-0.109600X0.159600X0.109600X0*%
%ADD23R,1.358900X0.431800*%
%ADD24RoundRect,0.199600X-0.199600X-0.224600X0.199600X-0.224600X0.199600X0.224600X-0.199600X0.224600X0*%
%ADD25RoundRect,0.207128X-0.647072X-0.402072X0.647072X-0.402072X0.647072X0.402072X-0.647072X0.402072X0*%
%ADD26RoundRect,0.207128X0.647072X0.402072X-0.647072X0.402072X-0.647072X-0.402072X0.647072X-0.402072X0*%
%ADD27R,0.812800X0.254000*%
%ADD28RoundRect,0.170600X0.244100X-0.170600X0.244100X0.170600X-0.244100X0.170600X-0.244100X-0.170600X0*%
%ADD29RoundRect,0.174600X0.249600X-0.174600X0.249600X0.174600X-0.249600X0.174600X-0.249600X-0.174600X0*%
%ADD30RoundRect,0.218350X-0.218350X-0.430850X0.218350X-0.430850X0.218350X0.430850X-0.218350X0.430850X0*%
%ADD31RoundRect,0.229266X-1.394934X0.332434X-1.394934X-0.332434X1.394934X-0.332434X1.394934X0.332434X0*%
%ADD32R,1.066800X0.431800*%
%ADD33R,0.635000X0.254000*%
%ADD34RoundRect,0.235889X0.963311X0.613311X-0.963311X0.613311X-0.963311X-0.613311X0.963311X-0.613311X0*%
%ADD35R,0.431800X1.422400*%
%ADD36R,5.029200X4.546600*%
%ADD37RoundRect,0.199600X0.224600X-0.199600X0.224600X0.199600X-0.224600X0.199600X-0.224600X-0.199600X0*%
%ADD38RoundRect,0.218350X0.218350X0.430850X-0.218350X0.430850X-0.218350X-0.430850X0.218350X-0.430850X0*%
%ADD39R,2.898400X1.298400*%
%ADD40R,2.898400X1.398400*%
%ADD41R,1.598400X1.398400*%
G04 APERTURE END LIST*
D10*
%TO.C,R106*%
X195153000Y-138710000D03*
D11*
X193503000Y-138710000D03*
%TD*%
D12*
%TO.C,D50*%
X194817400Y-171911798D03*
X194817400Y-175911798D03*
%TD*%
D13*
%TO.C,Q9*%
X214203600Y-150314200D03*
X216103602Y-150314200D03*
X215153601Y-152346200D03*
%TD*%
D14*
%TO.C,D10*%
X173285200Y-117264700D03*
X173285200Y-119139700D03*
%TD*%
D15*
%TO.C,R69*%
X225026000Y-114990000D03*
D16*
X226676000Y-114990000D03*
%TD*%
D13*
%TO.C,Q17*%
X198507400Y-150333599D03*
X200407402Y-150333599D03*
X199457401Y-152365599D03*
%TD*%
D17*
%TO.C,C134*%
X214834850Y-131576200D03*
X213284850Y-131576200D03*
%TD*%
D15*
%TO.C,R87*%
X193503000Y-115228600D03*
D16*
X195153000Y-115228600D03*
%TD*%
D15*
%TO.C,R94*%
X200895400Y-126279400D03*
D16*
X202545400Y-126279400D03*
%TD*%
D15*
%TO.C,R141*%
X214203600Y-153946400D03*
D16*
X215853600Y-153946400D03*
%TD*%
D18*
%TO.C,D22*%
X211023602Y-147590000D03*
X207023602Y-147590000D03*
%TD*%
D10*
%TO.C,R115*%
X202545400Y-131814800D03*
D11*
X200895400Y-131814800D03*
%TD*%
D19*
%TO.C,C33*%
X164674600Y-102454200D03*
X164674600Y-104004200D03*
%TD*%
D10*
%TO.C,R107*%
X202545400Y-135955000D03*
D11*
X200895400Y-135955000D03*
%TD*%
D17*
%TO.C,C82*%
X237116000Y-149241000D03*
X235566000Y-149241000D03*
%TD*%
D10*
%TO.C,R76*%
X211564000Y-139932800D03*
D11*
X209914000Y-139932800D03*
%TD*%
D10*
%TO.C,R96*%
X195153000Y-117983600D03*
D11*
X193503000Y-117983600D03*
%TD*%
D20*
%TO.C,R62*%
X212937175Y-123549800D03*
D21*
X212937175Y-125199800D03*
%TD*%
D20*
%TO.C,R7*%
X176726000Y-90569300D03*
D21*
X176726000Y-92219300D03*
%TD*%
D10*
%TO.C,R58*%
X211550600Y-125199800D03*
D11*
X209900600Y-125199800D03*
%TD*%
D15*
%TO.C,R2*%
X244838000Y-97729800D03*
D16*
X246488000Y-97729800D03*
%TD*%
D10*
%TO.C,R40*%
X226676000Y-140859000D03*
D11*
X225026000Y-140859000D03*
%TD*%
D22*
%TO.C,R14*%
X185528000Y-109462600D03*
X185528000Y-110482600D03*
%TD*%
D10*
%TO.C,R136*%
X180727400Y-164315000D03*
D11*
X179077400Y-164315000D03*
%TD*%
D13*
%TO.C,Q7*%
X211663600Y-162709400D03*
X209763598Y-162709400D03*
X210713599Y-160677400D03*
%TD*%
D23*
%TO.C,U10*%
X218733150Y-133176400D03*
X218733150Y-134446400D03*
X218733150Y-135716400D03*
X218733150Y-136986400D03*
X213284850Y-136986400D03*
X213284850Y-135716400D03*
X213284850Y-134446400D03*
X213284850Y-133176400D03*
%TD*%
D15*
%TO.C,R1*%
X244838000Y-103825800D03*
D16*
X246488000Y-103825800D03*
%TD*%
D24*
%TO.C,C58*%
X225126000Y-145100800D03*
X226676000Y-145100800D03*
%TD*%
D15*
%TO.C,R110*%
X200895400Y-117999000D03*
D16*
X202545400Y-117999000D03*
%TD*%
D25*
%TO.C,C4*%
X232252600Y-103865300D03*
X234852600Y-103865300D03*
%TD*%
D15*
%TO.C,R5*%
X244838000Y-105857800D03*
D16*
X246488000Y-105857800D03*
%TD*%
D26*
%TO.C,C7*%
X229671400Y-103865300D03*
X227071400Y-103865300D03*
%TD*%
D24*
%TO.C,C130*%
X210014000Y-131576200D03*
X211564000Y-131576200D03*
%TD*%
%TO.C,C45*%
X220540600Y-116779800D03*
X222090600Y-116779800D03*
%TD*%
D15*
%TO.C,R50*%
X220440600Y-119587400D03*
D16*
X222090600Y-119587400D03*
%TD*%
D10*
%TO.C,R17*%
X185616000Y-107038000D03*
D11*
X183966000Y-107038000D03*
%TD*%
D26*
%TO.C,C3*%
X224632600Y-101630100D03*
X222032600Y-101630100D03*
%TD*%
D13*
%TO.C,Q15*%
X195967400Y-162728400D03*
X194067398Y-162728400D03*
X195017399Y-160696400D03*
%TD*%
D15*
%TO.C,R161*%
X193427400Y-153972999D03*
D16*
X195077400Y-153972999D03*
%TD*%
D27*
%TO.C,D21*%
X178187400Y-155692999D03*
X180676600Y-155692999D03*
%TD*%
D28*
%TO.C,R52*%
X237216000Y-142230600D03*
D29*
X237216000Y-140580600D03*
%TD*%
D24*
%TO.C,C122*%
X217183150Y-139932800D03*
X218733150Y-139932800D03*
%TD*%
D10*
%TO.C,R12*%
X184930200Y-105190200D03*
D11*
X183280200Y-105190200D03*
%TD*%
D27*
%TO.C,D24*%
X211663600Y-166036800D03*
X209174400Y-166036800D03*
%TD*%
D15*
%TO.C,R174*%
X168318600Y-164209199D03*
D16*
X169968600Y-164209199D03*
%TD*%
D13*
%TO.C,Q14*%
X163238600Y-160569799D03*
X165138602Y-160569799D03*
X164188601Y-162601799D03*
%TD*%
D20*
%TO.C,R6*%
X171290400Y-90569300D03*
D21*
X171290400Y-92219300D03*
%TD*%
D17*
%TO.C,C146*%
X195053000Y-120740400D03*
X193503000Y-120740400D03*
%TD*%
D15*
%TO.C,R108*%
X200895400Y-134585200D03*
D16*
X202545400Y-134585200D03*
%TD*%
D15*
%TO.C,R46*%
X220440600Y-125199800D03*
D16*
X222090600Y-125199800D03*
%TD*%
D27*
%TO.C,D53*%
X168318600Y-165929199D03*
X170807800Y-165929199D03*
%TD*%
D10*
%TO.C,R135*%
X211663600Y-164296000D03*
D11*
X210013600Y-164296000D03*
%TD*%
D17*
%TO.C,C121*%
X237116000Y-117643400D03*
X235566000Y-117643400D03*
%TD*%
%TO.C,C53*%
X215830800Y-123790200D03*
X214280800Y-123790200D03*
%TD*%
D10*
%TO.C,R18*%
X185539800Y-112067200D03*
D11*
X183889800Y-112067200D03*
%TD*%
D24*
%TO.C,C144*%
X200995400Y-137340200D03*
X202545400Y-137340200D03*
%TD*%
%TO.C,C50*%
X231285800Y-140859000D03*
X232835800Y-140859000D03*
%TD*%
D20*
%TO.C,R198*%
X227424400Y-184888401D03*
D21*
X227424400Y-186538401D03*
%TD*%
D10*
%TO.C,R90*%
X195153000Y-130404200D03*
D11*
X193503000Y-130404200D03*
%TD*%
D24*
%TO.C,C149*%
X200995400Y-116613800D03*
X202545400Y-116613800D03*
%TD*%
D10*
%TO.C,R74*%
X226676000Y-117756800D03*
D11*
X225026000Y-117756800D03*
%TD*%
D17*
%TO.C,C113*%
X229946850Y-120539000D03*
X228396850Y-120539000D03*
%TD*%
D13*
%TO.C,Q19*%
X201047400Y-162728400D03*
X199147398Y-162728400D03*
X200097399Y-160696400D03*
%TD*%
D30*
%TO.C,D5*%
X247925500Y-105857800D03*
X249800500Y-105857800D03*
%TD*%
D13*
%TO.C,Q10*%
X183267400Y-150333599D03*
X185167402Y-150333599D03*
X184217401Y-152365599D03*
%TD*%
D27*
%TO.C,D52*%
X198507400Y-155692999D03*
X200996600Y-155692999D03*
%TD*%
%TO.C,D32*%
X216743600Y-166036800D03*
X214254400Y-166036800D03*
%TD*%
D24*
%TO.C,C118*%
X210014000Y-134446400D03*
X211564000Y-134446400D03*
%TD*%
D15*
%TO.C,R193*%
X244342600Y-188015000D03*
D16*
X245992600Y-188015000D03*
%TD*%
D27*
%TO.C,D45*%
X163238600Y-165929199D03*
X165727800Y-165929199D03*
%TD*%
D17*
%TO.C,C117*%
X237116000Y-115103400D03*
X235566000Y-115103400D03*
%TD*%
D20*
%TO.C,R59*%
X234245200Y-140580600D03*
D21*
X234245200Y-142230600D03*
%TD*%
D27*
%TO.C,D20*%
X209123600Y-155673600D03*
X211612800Y-155673600D03*
%TD*%
D28*
%TO.C,R26*%
X159786000Y-104104200D03*
D29*
X159786000Y-102454200D03*
%TD*%
D26*
%TO.C,C5*%
X224632600Y-103865300D03*
X222032600Y-103865300D03*
%TD*%
D10*
%TO.C,R199*%
X232720200Y-177296500D03*
D11*
X231070200Y-177296500D03*
%TD*%
D17*
%TO.C,C151*%
X195053000Y-141492200D03*
X193503000Y-141492200D03*
%TD*%
D15*
%TO.C,R105*%
X193503000Y-140083400D03*
D16*
X195153000Y-140083400D03*
%TD*%
D10*
%TO.C,R99*%
X202545400Y-140095200D03*
D11*
X200895400Y-140095200D03*
%TD*%
D10*
%TO.C,R47*%
X226676000Y-146484200D03*
D11*
X225026000Y-146484200D03*
%TD*%
D27*
%TO.C,D33*%
X185807400Y-166055800D03*
X183318200Y-166055800D03*
%TD*%
D10*
%TO.C,R167*%
X195967400Y-164315000D03*
D11*
X194317400Y-164315000D03*
%TD*%
D24*
%TO.C,C110*%
X217183150Y-131576200D03*
X218733150Y-131576200D03*
%TD*%
%TO.C,C114*%
X210014000Y-136986400D03*
X211564000Y-136986400D03*
%TD*%
D10*
%TO.C,R148*%
X185807400Y-164315000D03*
D11*
X184157400Y-164315000D03*
%TD*%
D15*
%TO.C,R4*%
X244838000Y-101793800D03*
D16*
X246488000Y-101793800D03*
%TD*%
D10*
%TO.C,R101*%
X202545400Y-123509000D03*
D11*
X200895400Y-123509000D03*
%TD*%
D17*
%TO.C,C97*%
X226576000Y-119116600D03*
X225026000Y-119116600D03*
%TD*%
D24*
%TO.C,C73*%
X210000600Y-119650000D03*
X211550600Y-119650000D03*
%TD*%
%TO.C,C77*%
X217169750Y-125199800D03*
X218719750Y-125199800D03*
%TD*%
D15*
%TO.C,R129*%
X209123600Y-153946400D03*
D16*
X210773600Y-153946400D03*
%TD*%
D24*
%TO.C,C152*%
X200995400Y-129059800D03*
X202545400Y-129059800D03*
%TD*%
D13*
%TO.C,Q11*%
X216743600Y-162709400D03*
X214843598Y-162709400D03*
X215793599Y-160677400D03*
%TD*%
D17*
%TO.C,C150*%
X195053000Y-126252200D03*
X193503000Y-126252200D03*
%TD*%
D28*
%TO.C,R202*%
X202508800Y-95088200D03*
D29*
X202508800Y-93438200D03*
%TD*%
D12*
%TO.C,D58*%
X198558200Y-168736000D03*
X198558200Y-172736000D03*
%TD*%
D10*
%TO.C,R197*%
X235603200Y-177296500D03*
D11*
X233953200Y-177296500D03*
%TD*%
D31*
%TO.C,R182*%
X166776400Y-171510000D03*
X166776400Y-177435000D03*
%TD*%
D10*
%TO.C,R93*%
X202545400Y-127674600D03*
D11*
X200895400Y-127674600D03*
%TD*%
D32*
%TO.C,Q1*%
X183955400Y-108582598D03*
X183955400Y-110482600D03*
X181923400Y-109532599D03*
%TD*%
D13*
%TO.C,Q8*%
X180727400Y-162728400D03*
X178827398Y-162728400D03*
X179777399Y-160696400D03*
%TD*%
D27*
%TO.C,D44*%
X193427400Y-155692999D03*
X195916600Y-155692999D03*
%TD*%
D33*
%TO.C,D11*%
X213544200Y-91862400D03*
X213544200Y-92522800D03*
X213544200Y-93183200D03*
X211461400Y-93183200D03*
X211461400Y-92522800D03*
X211461400Y-91862400D03*
%TD*%
D34*
%TO.C,D31*%
X183267400Y-147590798D03*
X187267400Y-147590798D03*
%TD*%
D12*
%TO.C,D27*%
X179559000Y-171911798D03*
X179559000Y-175911798D03*
%TD*%
D10*
%TO.C,R45*%
X222090600Y-122252600D03*
D11*
X220440600Y-122252600D03*
%TD*%
D24*
%TO.C,C69*%
X210000600Y-122190000D03*
X211550600Y-122190000D03*
%TD*%
D35*
%TO.C,Q22*%
X247554800Y-177296500D03*
X246284800Y-177296500D03*
X245014800Y-177296500D03*
X243744800Y-177296500D03*
D36*
X245649800Y-172685200D03*
%TD*%
D37*
%TO.C,C15*%
X167264400Y-104004200D03*
X167264400Y-102454200D03*
%TD*%
D26*
%TO.C,C8*%
X240034600Y-101630100D03*
X237434600Y-101630100D03*
%TD*%
D15*
%TO.C,R39*%
X225026000Y-143717400D03*
D16*
X226676000Y-143717400D03*
%TD*%
D38*
%TO.C,D1*%
X249800500Y-103825800D03*
X247925500Y-103825800D03*
%TD*%
D24*
%TO.C,C65*%
X217169750Y-116779800D03*
X218719750Y-116779800D03*
%TD*%
%TO.C,C137*%
X232295150Y-120539000D03*
X233845150Y-120539000D03*
%TD*%
D15*
%TO.C,R64*%
X220454000Y-139932800D03*
D16*
X222104000Y-139932800D03*
%TD*%
D27*
%TO.C,D56*%
X201047400Y-166055800D03*
X198558200Y-166055800D03*
%TD*%
D15*
%TO.C,R113*%
X193503000Y-144299800D03*
D16*
X195153000Y-144299800D03*
%TD*%
D24*
%TO.C,C153*%
X200995400Y-112473600D03*
X202545400Y-112473600D03*
%TD*%
D17*
%TO.C,C57*%
X215830800Y-125199800D03*
X214280800Y-125199800D03*
%TD*%
%TO.C,C147*%
X195053000Y-137326600D03*
X193503000Y-137326600D03*
%TD*%
%TO.C,C133*%
X237116000Y-120539000D03*
X235566000Y-120539000D03*
%TD*%
D24*
%TO.C,C140*%
X200995400Y-141480400D03*
X202545400Y-141480400D03*
%TD*%
D15*
%TO.C,R162*%
X163238600Y-164209199D03*
D16*
X164888600Y-164209199D03*
%TD*%
D12*
%TO.C,D59*%
X162966400Y-172747500D03*
X162966400Y-176747500D03*
%TD*%
D35*
%TO.C,Q23*%
X228530200Y-177296500D03*
X227260200Y-177296500D03*
X225990200Y-177296500D03*
X224720200Y-177296500D03*
D36*
X226625200Y-172685200D03*
%TD*%
D37*
%TO.C,C154*%
X165817600Y-115751400D03*
X165817600Y-114201400D03*
%TD*%
D34*
%TO.C,D54*%
X198507400Y-147590798D03*
X202507400Y-147590798D03*
%TD*%
D17*
%TO.C,C78*%
X229946850Y-142230600D03*
X228396850Y-142230600D03*
%TD*%
D38*
%TO.C,D3*%
X249800500Y-99761800D03*
X247925500Y-99761800D03*
%TD*%
%TO.C,D4*%
X249800500Y-101793800D03*
X247925500Y-101793800D03*
%TD*%
D15*
%TO.C,R92*%
X200895400Y-142865600D03*
D16*
X202545400Y-142865600D03*
%TD*%
D28*
%TO.C,R86*%
X234204825Y-113756200D03*
D29*
X234204825Y-112106200D03*
%TD*%
D17*
%TO.C,C106*%
X222004000Y-135716400D03*
X220454000Y-135716400D03*
%TD*%
D14*
%TO.C,D9*%
X176688800Y-117264700D03*
X176688800Y-119139700D03*
%TD*%
D28*
%TO.C,R196*%
X249739200Y-181815600D03*
D29*
X249739200Y-180165600D03*
%TD*%
D15*
%TO.C,R100*%
X200895400Y-138725400D03*
D16*
X202545400Y-138725400D03*
%TD*%
D37*
%TO.C,C16*%
X173361400Y-104004200D03*
X173361400Y-102454200D03*
%TD*%
D15*
%TO.C,R97*%
X193503000Y-135943200D03*
D16*
X195153000Y-135943200D03*
%TD*%
D20*
%TO.C,R15*%
X172014200Y-102454200D03*
D21*
X172014200Y-104104200D03*
%TD*%
D19*
%TO.C,C157*%
X165766800Y-111242000D03*
X165766800Y-112792000D03*
%TD*%
D14*
%TO.C,D8*%
X175012400Y-90569300D03*
X175012400Y-92444300D03*
%TD*%
D24*
%TO.C,C85*%
X210000600Y-116779800D03*
X211550600Y-116779800D03*
%TD*%
%TO.C,C90*%
X220554000Y-131576200D03*
X222104000Y-131576200D03*
%TD*%
D15*
%TO.C,R111*%
X193503000Y-127623800D03*
D16*
X195153000Y-127623800D03*
%TD*%
D17*
%TO.C,C74*%
X229946850Y-140859000D03*
X228396850Y-140859000D03*
%TD*%
D18*
%TO.C,D46*%
X195327402Y-147590798D03*
X191327402Y-147590798D03*
%TD*%
D23*
%TO.C,U6*%
X228396850Y-147640800D03*
X228396850Y-146370800D03*
X228396850Y-145100800D03*
X228396850Y-143830800D03*
X233845150Y-143830800D03*
X233845150Y-145100800D03*
X233845150Y-146370800D03*
X233845150Y-147640800D03*
%TD*%
D17*
%TO.C,C102*%
X215844200Y-139932800D03*
X214294200Y-139932800D03*
%TD*%
D25*
%TO.C,C2*%
X216693800Y-103865300D03*
X219293800Y-103865300D03*
%TD*%
D17*
%TO.C,C34*%
X156102400Y-107280200D03*
X154552400Y-107280200D03*
%TD*%
D15*
%TO.C,R82*%
X235566000Y-112106200D03*
D16*
X237216000Y-112106200D03*
%TD*%
D32*
%TO.C,Q21*%
X247707200Y-186540800D03*
X247707200Y-184640798D03*
X249739200Y-185590799D03*
%TD*%
D12*
%TO.C,D51*%
X155378200Y-172747500D03*
X155378200Y-176747500D03*
%TD*%
D17*
%TO.C,C125*%
X229946850Y-112106200D03*
X228396850Y-112106200D03*
%TD*%
D10*
%TO.C,R114*%
X195153000Y-142875600D03*
D11*
X193503000Y-142875600D03*
%TD*%
D10*
%TO.C,R95*%
X195153000Y-119355200D03*
D11*
X193503000Y-119355200D03*
%TD*%
D17*
%TO.C,C142*%
X195053000Y-116600200D03*
X193503000Y-116600200D03*
%TD*%
D24*
%TO.C,C109*%
X225126000Y-116373400D03*
X226676000Y-116373400D03*
%TD*%
D12*
%TO.C,D34*%
X214254400Y-168717000D03*
X214254400Y-172717000D03*
%TD*%
D17*
%TO.C,C62*%
X229946850Y-149241000D03*
X228396850Y-149241000D03*
%TD*%
D14*
%TO.C,D7*%
X172980400Y-90569300D03*
X172980400Y-92444300D03*
%TD*%
D27*
%TO.C,D28*%
X214203600Y-155673600D03*
X216692800Y-155673600D03*
%TD*%
D28*
%TO.C,R201*%
X207538000Y-95088200D03*
D29*
X207538000Y-93438200D03*
%TD*%
D10*
%TO.C,R63*%
X222104000Y-137074400D03*
D11*
X220454000Y-137074400D03*
%TD*%
D17*
%TO.C,C129*%
X229946850Y-113477800D03*
X228396850Y-113477800D03*
%TD*%
D20*
%TO.C,R195*%
X245991800Y-184890800D03*
D21*
X245991800Y-186540800D03*
%TD*%
D20*
%TO.C,R83*%
X212925175Y-138282800D03*
D21*
X212925175Y-139932800D03*
%TD*%
D13*
%TO.C,Q18*%
X168318600Y-160569799D03*
X170218602Y-160569799D03*
X169268601Y-162601799D03*
%TD*%
D27*
%TO.C,D25*%
X180727400Y-166055800D03*
X178238200Y-166055800D03*
%TD*%
D31*
%TO.C,R170*%
X159156400Y-171510000D03*
X159156400Y-177435000D03*
%TD*%
D10*
%TO.C,R109*%
X202545400Y-119368800D03*
D11*
X200895400Y-119368800D03*
%TD*%
D39*
%TO.C,J12*%
X250109800Y-108436600D03*
X250109800Y-132336600D03*
D40*
X242309800Y-129276600D03*
X242309800Y-126736600D03*
X242309800Y-124196600D03*
X242309800Y-121656600D03*
X242309800Y-119116600D03*
X242309800Y-116576600D03*
X242309800Y-114036600D03*
X242309800Y-111496600D03*
%TD*%
D10*
%TO.C,R98*%
X195153000Y-134569800D03*
D11*
X193503000Y-134569800D03*
%TD*%
D13*
%TO.C,Q6*%
X178187400Y-150333599D03*
X180087402Y-150333599D03*
X179137401Y-152365599D03*
%TD*%
D41*
%TO.C,SW1*%
X169625600Y-105854200D03*
X169625600Y-102454200D03*
%TD*%
D15*
%TO.C,R142*%
X183267400Y-153972999D03*
D16*
X184917400Y-153972999D03*
%TD*%
D15*
%TO.C,R102*%
X200895400Y-122139200D03*
D16*
X202545400Y-122139200D03*
%TD*%
D17*
%TO.C,C35*%
X156102400Y-108677200D03*
X154552400Y-108677200D03*
%TD*%
%TO.C,C93*%
X226576000Y-120539000D03*
X225026000Y-120539000D03*
%TD*%
D41*
%TO.C,SW3*%
X162186400Y-102454800D03*
X162186400Y-105854800D03*
%TD*%
D10*
%TO.C,R91*%
X202545400Y-144235400D03*
D11*
X200895400Y-144235400D03*
%TD*%
D15*
%TO.C,R89*%
X193503000Y-131803000D03*
D16*
X195153000Y-131803000D03*
%TD*%
D24*
%TO.C,C86*%
X232295150Y-149241000D03*
X233845150Y-149241000D03*
%TD*%
D27*
%TO.C,D48*%
X195967400Y-166055800D03*
X193478200Y-166055800D03*
%TD*%
D17*
%TO.C,C89*%
X214821450Y-116779800D03*
X213271450Y-116779800D03*
%TD*%
%TO.C,C98*%
X215844200Y-138586600D03*
X214294200Y-138586600D03*
%TD*%
D15*
%TO.C,R103*%
X193503000Y-123497200D03*
D16*
X195153000Y-123497200D03*
%TD*%
D24*
%TO.C,C141*%
X200995400Y-124894200D03*
X202545400Y-124894200D03*
%TD*%
D27*
%TO.C,D29*%
X183267400Y-155692999D03*
X185756600Y-155692999D03*
%TD*%
D24*
%TO.C,C49*%
X220540600Y-118253000D03*
X222090600Y-118253000D03*
%TD*%
D23*
%TO.C,U13*%
X228396850Y-118913400D03*
X228396850Y-117643400D03*
X228396850Y-116373400D03*
X228396850Y-115103400D03*
X233845150Y-115103400D03*
X233845150Y-116373400D03*
X233845150Y-117643400D03*
X233845150Y-118913400D03*
%TD*%
D10*
%TO.C,R179*%
X201047400Y-164315000D03*
D11*
X199397400Y-164315000D03*
%TD*%
D24*
%TO.C,C101*%
X231285800Y-113477800D03*
X232835800Y-113477800D03*
%TD*%
D17*
%TO.C,C61*%
X221990600Y-120920000D03*
X220440600Y-120920000D03*
%TD*%
D15*
%TO.C,R57*%
X209900600Y-123549800D03*
D16*
X211550600Y-123549800D03*
%TD*%
D24*
%TO.C,C148*%
X200995400Y-133200000D03*
X202545400Y-133200000D03*
%TD*%
D15*
%TO.C,R130*%
X178187400Y-153972999D03*
D16*
X179837400Y-153972999D03*
%TD*%
D10*
%TO.C,R70*%
X226676000Y-112106200D03*
D11*
X225026000Y-112106200D03*
%TD*%
D18*
%TO.C,D47*%
X165138602Y-157826998D03*
X161138602Y-157826998D03*
%TD*%
D26*
%TO.C,C10*%
X240034600Y-103865300D03*
X237434600Y-103865300D03*
%TD*%
D10*
%TO.C,R112*%
X195153000Y-124880600D03*
D11*
X193503000Y-124880600D03*
%TD*%
D17*
%TO.C,C139*%
X195053000Y-129020800D03*
X193503000Y-129020800D03*
%TD*%
%TO.C,C66*%
X237116000Y-143830800D03*
X235566000Y-143830800D03*
%TD*%
D32*
%TO.C,Q2*%
X180930600Y-110760000D03*
X180930600Y-112660002D03*
X178898600Y-111710001D03*
%TD*%
D41*
%TO.C,SW2*%
X175748000Y-105854200D03*
X175748000Y-102454200D03*
%TD*%
D20*
%TO.C,R27*%
X178402400Y-117264700D03*
D21*
X178402400Y-118914700D03*
%TD*%
D24*
%TO.C,C145*%
X200995400Y-120754000D03*
X202545400Y-120754000D03*
%TD*%
D15*
%TO.C,R75*%
X209914000Y-138282800D03*
D16*
X211564000Y-138282800D03*
%TD*%
D25*
%TO.C,C6*%
X232252600Y-101630100D03*
X234852600Y-101630100D03*
%TD*%
D24*
%TO.C,C94*%
X220554000Y-132998600D03*
X222104000Y-132998600D03*
%TD*%
D20*
%TO.C,R28*%
X174998800Y-117264700D03*
D21*
X174998800Y-118914700D03*
%TD*%
D15*
%TO.C,R118*%
X200895400Y-113858800D03*
D16*
X202545400Y-113858800D03*
%TD*%
D32*
%TO.C,Q24*%
X229241400Y-186540800D03*
X229241400Y-184640798D03*
X231273400Y-185590799D03*
%TD*%
D34*
%TO.C,D55*%
X168318600Y-157826998D03*
X172318600Y-157826998D03*
%TD*%
D15*
%TO.C,R173*%
X198507400Y-153972999D03*
D16*
X200157400Y-153972999D03*
%TD*%
D10*
%TO.C,R88*%
X195153000Y-113858800D03*
D11*
X193503000Y-113858800D03*
%TD*%
D15*
%TO.C,R116*%
X200895400Y-130445000D03*
D16*
X202545400Y-130445000D03*
%TD*%
D34*
%TO.C,D30*%
X214203600Y-147590000D03*
X218203600Y-147590000D03*
%TD*%
D25*
%TO.C,C1*%
X216693800Y-101630100D03*
X219293800Y-101630100D03*
%TD*%
D13*
%TO.C,Q5*%
X209123600Y-150314200D03*
X211023602Y-150314200D03*
X210073601Y-152346200D03*
%TD*%
D10*
%TO.C,R81*%
X237216000Y-113756200D03*
D11*
X235566000Y-113756200D03*
%TD*%
D28*
%TO.C,R194*%
X249739200Y-178946500D03*
D29*
X249739200Y-177296500D03*
%TD*%
D10*
%TO.C,R117*%
X202545400Y-115228600D03*
D11*
X200895400Y-115228600D03*
%TD*%
D13*
%TO.C,Q12*%
X185807400Y-162728400D03*
X183907398Y-162728400D03*
X184857399Y-160696400D03*
%TD*%
D39*
%TO.C,J11*%
X250196400Y-134661400D03*
X250196400Y-158561400D03*
D40*
X242396400Y-155501400D03*
X242396400Y-152961400D03*
X242396400Y-150421400D03*
X242396400Y-147881400D03*
X242396400Y-145341400D03*
X242396400Y-142801400D03*
X242396400Y-140261400D03*
X242396400Y-137721400D03*
%TD*%
D10*
%TO.C,R104*%
X195153000Y-122123800D03*
D11*
X193503000Y-122123800D03*
%TD*%
D10*
%TO.C,R51*%
X237216000Y-139270600D03*
D11*
X235566000Y-139270600D03*
%TD*%
D17*
%TO.C,C46*%
X226576000Y-147869400D03*
X225026000Y-147869400D03*
%TD*%
D23*
%TO.C,U9*%
X218719750Y-118380000D03*
X218719750Y-119650000D03*
X218719750Y-120920000D03*
X218719750Y-122190000D03*
X213271450Y-122190000D03*
X213271450Y-120920000D03*
X213271450Y-119650000D03*
X213271450Y-118380000D03*
%TD*%
D15*
%TO.C,R3*%
X244838000Y-99761800D03*
D16*
X246488000Y-99761800D03*
%TD*%
D24*
%TO.C,C126*%
X217183150Y-138586600D03*
X218733150Y-138586600D03*
%TD*%
D12*
%TO.C,D35*%
X183318200Y-168736000D03*
X183318200Y-172736000D03*
%TD*%
D15*
%TO.C,R71*%
X220454000Y-134358400D03*
D16*
X222104000Y-134358400D03*
%TD*%
D22*
%TO.C,R13*%
X186927200Y-109462600D03*
X186927200Y-110482600D03*
%TD*%
D10*
%TO.C,R200*%
X227424400Y-187860800D03*
D11*
X225774400Y-187860800D03*
%TD*%
D24*
%TO.C,C81*%
X217169750Y-123790200D03*
X218719750Y-123790200D03*
%TD*%
D17*
%TO.C,C143*%
X195053000Y-133186400D03*
X193503000Y-133186400D03*
%TD*%
D13*
%TO.C,Q13*%
X193427400Y-150333599D03*
X195327402Y-150333599D03*
X194377401Y-152365599D03*
%TD*%
D10*
%TO.C,R147*%
X216743600Y-164296000D03*
D11*
X215093600Y-164296000D03*
%TD*%
D18*
%TO.C,D23*%
X180087402Y-147590798D03*
X176087402Y-147590798D03*
%TD*%
D17*
%TO.C,C70*%
X237116000Y-146370800D03*
X235566000Y-146370800D03*
%TD*%
D20*
%TO.C,R16*%
X178162000Y-102454200D03*
D21*
X178162000Y-104104200D03*
%TD*%
D13*
%TO.C,D62*%
X205975000Y-95088200D03*
X204074998Y-95088200D03*
X205024999Y-93056200D03*
%TD*%
D26*
%TO.C,C9*%
X229671400Y-101630100D03*
X227071400Y-101630100D03*
%TD*%
D24*
%TO.C,C54*%
X231285800Y-142230600D03*
X232835800Y-142230600D03*
%TD*%
D17*
%TO.C,C138*%
X195053000Y-112473600D03*
X193503000Y-112473600D03*
%TD*%
D24*
%TO.C,C105*%
X231285800Y-112106200D03*
X232835800Y-112106200D03*
%TD*%
D38*
%TO.C,D2*%
X249800500Y-97729800D03*
X247925500Y-97729800D03*
%TD*%
D17*
%TO.C,C42*%
X226576000Y-149241000D03*
X225026000Y-149241000D03*
%TD*%
D12*
%TO.C,D26*%
X210496200Y-171911000D03*
X210496200Y-175911000D03*
%TD*%
M02*
