%TF.GenerationSoftware,KiCad,Pcbnew,8.0.4*%
%TF.CreationDate,2024-10-07T11:54:38+07:00*%
%TF.ProjectId,System_Control,53797374-656d-45f4-936f-6e74726f6c2e,rev?*%
%TF.SameCoordinates,Original*%
%TF.FileFunction,Copper,L3,Inr*%
%TF.FilePolarity,Positive*%
%FSLAX46Y46*%
G04 Gerber Fmt 4.6, Leading zero omitted, Abs format (unit mm)*
G04 Created by KiCad (PCBNEW 8.0.4) date 2024-10-07 11:54:38*
%MOMM*%
%LPD*%
G01*
G04 APERTURE LIST*
G04 Aperture macros list*
%AMRoundRect*
0 Rectangle with rounded corners*
0 $1 Rounding radius*
0 $2 $3 $4 $5 $6 $7 $8 $9 X,Y pos of 4 corners*
0 Add a 4 corners polygon primitive as box body*
4,1,4,$2,$3,$4,$5,$6,$7,$8,$9,$2,$3,0*
0 Add four circle primitives for the rounded corners*
1,1,$1+$1,$2,$3*
1,1,$1+$1,$4,$5*
1,1,$1+$1,$6,$7*
1,1,$1+$1,$8,$9*
0 Add four rect primitives between the rounded corners*
20,1,$1+$1,$2,$3,$4,$5,0*
20,1,$1+$1,$4,$5,$6,$7,0*
20,1,$1+$1,$6,$7,$8,$9,0*
20,1,$1+$1,$8,$9,$2,$3,0*%
G04 Aperture macros list end*
%TA.AperFunction,ComponentPad*%
%ADD10O,1.150000X1.800000*%
%TD*%
%TA.AperFunction,ComponentPad*%
%ADD11O,1.450000X2.000000*%
%TD*%
%TA.AperFunction,ComponentPad*%
%ADD12RoundRect,0.250000X0.650000X1.550000X-0.650000X1.550000X-0.650000X-1.550000X0.650000X-1.550000X0*%
%TD*%
%TA.AperFunction,ComponentPad*%
%ADD13O,1.800000X3.600000*%
%TD*%
%TA.AperFunction,ComponentPad*%
%ADD14RoundRect,0.250000X-0.650000X-1.550000X0.650000X-1.550000X0.650000X1.550000X-0.650000X1.550000X0*%
%TD*%
%TA.AperFunction,ComponentPad*%
%ADD15C,0.800000*%
%TD*%
%TA.AperFunction,ComponentPad*%
%ADD16C,6.400000*%
%TD*%
%TA.AperFunction,HeatsinkPad*%
%ADD17C,0.600000*%
%TD*%
%TA.AperFunction,ComponentPad*%
%ADD18C,3.600000*%
%TD*%
%TA.AperFunction,ComponentPad*%
%ADD19R,1.900000X1.200000*%
%TD*%
%TA.AperFunction,ComponentPad*%
%ADD20O,1.900000X1.200000*%
%TD*%
%TA.AperFunction,ComponentPad*%
%ADD21R,1.700000X1.700000*%
%TD*%
%TA.AperFunction,ComponentPad*%
%ADD22O,1.700000X1.700000*%
%TD*%
%TA.AperFunction,ViaPad*%
%ADD23C,0.800000*%
%TD*%
%TA.AperFunction,Conductor*%
%ADD24C,0.762000*%
%TD*%
%TA.AperFunction,Conductor*%
%ADD25C,1.778000*%
%TD*%
%TA.AperFunction,Conductor*%
%ADD26C,0.508000*%
%TD*%
%TA.AperFunction,Conductor*%
%ADD27C,0.381000*%
%TD*%
%TA.AperFunction,Conductor*%
%ADD28C,1.524000*%
%TD*%
%TA.AperFunction,Conductor*%
%ADD29C,1.016000*%
%TD*%
%TA.AperFunction,Conductor*%
%ADD30C,1.270000*%
%TD*%
G04 APERTURE END LIST*
D10*
%TO.N,GNDA*%
%TO.C,J2*%
X194725600Y-90694000D03*
D11*
X194575600Y-94494000D03*
X187125600Y-94494000D03*
D10*
X186975600Y-90694000D03*
%TD*%
D12*
%TO.N,RS485_P*%
%TO.C,J3*%
X214421800Y-98141201D03*
D13*
%TO.N,RS485_N*%
X210611800Y-98141201D03*
%TO.N,UART5_TX*%
X206801800Y-98141201D03*
%TO.N,UART5_RX*%
X202991800Y-98141201D03*
%TO.N,GNDA*%
X199181800Y-98141201D03*
%TD*%
D12*
%TO.N,GNDA*%
%TO.C,J1*%
X239872600Y-98129000D03*
D13*
%TO.N,-9V*%
X236062600Y-98129000D03*
%TO.N,+9V*%
X232252600Y-98129000D03*
%TO.N,+3V3_O*%
X228442600Y-98129000D03*
%TO.N,VBAT*%
X224632600Y-98129000D03*
%TO.N,+5V*%
X220822600Y-98129000D03*
%TD*%
D14*
%TO.N,BAT_BAL_9*%
%TO.C,J9*%
X184785000Y-181051200D03*
D13*
%TO.N,BAT_BAL_8*%
X188595000Y-181051200D03*
%TO.N,BAT_BAL_7*%
X192405000Y-181051200D03*
%TO.N,BAT_BAL_6*%
X196215000Y-181051200D03*
%TO.N,BAT_BAL_5*%
X200025000Y-181051200D03*
%TO.N,BAT_BAL_4*%
X203835000Y-181051200D03*
%TO.N,BAT_BAL_3*%
X207645000Y-181051200D03*
%TO.N,BAT_BAL_2*%
X211455000Y-181051200D03*
%TD*%
D15*
%TO.N,N/C*%
%TO.C,H1*%
X246005400Y-93116600D03*
X246708344Y-91419544D03*
X246708344Y-94813656D03*
X248405400Y-90716600D03*
D16*
X248405400Y-93116600D03*
D15*
X248405400Y-95516600D03*
X250102456Y-91419544D03*
X250102456Y-94813656D03*
X250805400Y-93116600D03*
%TD*%
D17*
%TO.N,GNDA*%
%TO.C,U1*%
X168950300Y-98067000D03*
X168950300Y-99467000D03*
X169650300Y-97367000D03*
X169650300Y-98767000D03*
X169650300Y-100167000D03*
X170350300Y-98067000D03*
X170350300Y-99467000D03*
X171050300Y-97367000D03*
X171050300Y-98767000D03*
X171050300Y-100167000D03*
X171750300Y-98067000D03*
X171750300Y-99467000D03*
%TD*%
D14*
%TO.N,GNDA*%
%TO.C,J4*%
X242474800Y-180889400D03*
D13*
%TO.N,V_CHARGER_P*%
X246284800Y-180889400D03*
%TD*%
D14*
%TO.N,BAT_BAL_16*%
%TO.C,J10*%
X155346400Y-181051200D03*
D13*
%TO.N,BAT_BAL_15*%
X159156400Y-181051200D03*
%TO.N,BAT_BAL_14*%
X162966400Y-181051200D03*
%TO.N,BAT_BAL_13*%
X166776400Y-181051200D03*
%TO.N,BAT_BAL_12*%
X170586400Y-181051200D03*
%TO.N,BAT_BAL_11*%
X174396400Y-181051200D03*
%TO.N,BAT_BAL_10*%
X178206400Y-181051200D03*
%TD*%
D14*
%TO.N,BAT_BAL_1*%
%TO.C,J6*%
X227260200Y-180889400D03*
D13*
%TO.N,GNDA*%
X231070200Y-180889400D03*
%TD*%
D18*
%TO.N,N/C*%
%TO.C,U4*%
X282979800Y-92986600D03*
X282979800Y-163986600D03*
D15*
%TO.N,GNDA*%
X153221800Y-93116600D03*
X153321800Y-164116600D03*
X153924744Y-91419544D03*
X153924744Y-94813656D03*
X154024744Y-162419544D03*
X154024744Y-165813656D03*
X155621800Y-90716600D03*
D16*
X155621800Y-93116600D03*
D15*
X155621800Y-95516600D03*
X155721800Y-161716600D03*
D16*
X155721800Y-164116600D03*
D15*
X155721800Y-166516600D03*
D19*
X156749800Y-110226600D03*
D15*
X157318856Y-91419544D03*
X157318856Y-94813656D03*
X157418856Y-162419544D03*
X157418856Y-165813656D03*
X158021800Y-93116600D03*
X158121800Y-164116600D03*
D20*
%TO.N,unconnected-(U4-GPIO1-Pad1_1)*%
X156749800Y-98186600D03*
%TO.N,+5V*%
X154209800Y-110226600D03*
%TO.N,unconnected-(U4-GPIO2-Pad2_1)*%
X154209800Y-98186600D03*
%TO.N,FSMC_NE1*%
X156749800Y-112766600D03*
%TO.N,unconnected-(U4-FONT_CHIP__{slash}CS-Pad3_1)*%
X156749800Y-100726600D03*
%TO.N,FSMC_A16*%
X154209800Y-112766600D03*
%TO.N,unconnected-(U4-FLASH{slash}FONT_DI-Pad4_1)*%
X154209800Y-100726600D03*
%TO.N,FSMC_NOE*%
X156749800Y-115306600D03*
%TO.N,unconnected-(U4-FLASH{slash}FONT_CLK-Pad5_1)*%
X156749800Y-103266600D03*
%TO.N,FSMC_NWE*%
X154209800Y-115306600D03*
%TO.N,unconnected-(U4-FLASH_{slash}WP-Pad6_1)*%
X154209800Y-103266600D03*
%TO.N,unconnected-(U4-E{slash}RESET_NC-Pad7)*%
X156749800Y-117846600D03*
%TO.N,unconnected-(U4-FLASH{slash}FONT_DO-Pad7_1)*%
X156749800Y-105806600D03*
%TO.N,unconnected-(U4-TE-Pad8)*%
X154209800Y-117846600D03*
%TO.N,unconnected-(U4-FLASH_{slash}CS-Pad8_1)*%
X154209800Y-105806600D03*
%TO.N,FSMC_D0*%
X156749800Y-120386600D03*
%TO.N,FSMC_D1*%
X154209800Y-120386600D03*
%TO.N,FSMC_D2*%
X156749800Y-122926600D03*
%TO.N,FSMC_D3*%
X154209800Y-122926600D03*
%TO.N,FSMC_D4*%
X156749800Y-125466600D03*
%TO.N,FSMC_D5*%
X154209800Y-125466600D03*
%TO.N,FSMC_D6*%
X156749800Y-128006600D03*
%TO.N,FSMC_D7*%
X154209800Y-128006600D03*
%TO.N,FSMC_D8*%
X156749800Y-130546600D03*
%TO.N,FSMC_D9*%
X154209800Y-130546600D03*
%TO.N,FSMC_D10*%
X156749800Y-133086600D03*
%TO.N,FSMC_D11*%
X154209800Y-133086600D03*
%TO.N,FSMC_D12*%
X156749800Y-135626600D03*
%TO.N,FSMC_D13*%
X154209800Y-135626600D03*
%TO.N,FSMC_D14*%
X156749800Y-138166600D03*
%TO.N,FSMC_D15*%
X154209800Y-138166600D03*
%TO.N,unconnected-(U4-PD16-Pad25)*%
X156749800Y-140706600D03*
%TO.N,unconnected-(U4-PD17-Pad26)*%
X154209800Y-140706600D03*
%TO.N,unconnected-(U4-PD18-Pad27)*%
X156749800Y-143246600D03*
%TO.N,unconnected-(U4-PD19-Pad28)*%
X154209800Y-143246600D03*
%TO.N,unconnected-(U4-PD20-Pad29)*%
X156749800Y-145786600D03*
%TO.N,unconnected-(U4-PD21-Pad30)*%
X154209800Y-145786600D03*
%TO.N,unconnected-(U4-PD22-Pad31)*%
X156749800Y-148326600D03*
%TO.N,N/C*%
X154209800Y-148326600D03*
%TO.N,SPI2_CS*%
X156749800Y-150866600D03*
%TO.N,SPI2_SCK*%
X154209800Y-150866600D03*
%TO.N,SPI2_MOSI*%
X156749800Y-153406600D03*
%TO.N,SPI2_MISO*%
X154209800Y-153406600D03*
%TO.N,unconnected-(U4-RT-Pad37)*%
X156749800Y-155946600D03*
%TO.N,TOUCH_IRQ*%
X154209800Y-155946600D03*
%TO.N,/DISPLAY/BACKLIGHT*%
X156749800Y-158486600D03*
%TO.N,GNDA*%
X154209800Y-158486600D03*
%TD*%
D21*
%TO.N,VBAT*%
%TO.C,J5*%
X178060400Y-140325600D03*
D22*
%TO.N,Net-(J5-Pin_2)*%
X180600400Y-140325600D03*
%TO.N,Net-(J5-Pin_3)*%
X183140400Y-140325600D03*
%TO.N,GNDA*%
X185680400Y-140325600D03*
%TD*%
D23*
%TO.N,+5V*%
X216719200Y-107839000D03*
X208769000Y-105451400D03*
X244837000Y-96383600D03*
X187102800Y-113775400D03*
X216719200Y-105502200D03*
X216719200Y-106492800D03*
X152914400Y-108016800D03*
X152939800Y-107067000D03*
%TO.N,GNDA*%
X205715930Y-136942330D03*
X175527338Y-131772738D03*
X184283400Y-142129000D03*
X173590000Y-133264400D03*
X158502400Y-111598200D03*
X178416000Y-142002000D03*
X234550000Y-179340000D03*
X238328200Y-115166721D03*
X183775400Y-135144000D03*
X174606000Y-149622000D03*
X158477000Y-117541800D03*
X152685800Y-131334000D03*
X182124400Y-136744200D03*
X173082000Y-149622000D03*
X223901367Y-143633633D03*
X152685800Y-113579400D03*
X168002000Y-153432000D03*
X179432000Y-142002000D03*
X152685800Y-139106400D03*
X181997400Y-138065000D03*
X184918400Y-98644200D03*
X152685800Y-151704800D03*
X238639400Y-131003800D03*
X186848800Y-100447600D03*
X152685800Y-121275600D03*
X234550000Y-181880000D03*
X248266000Y-124730000D03*
X152685800Y-128946400D03*
X160280400Y-116754400D03*
X204451000Y-110683800D03*
X238893400Y-121301000D03*
X162518670Y-119342130D03*
X243592400Y-184750200D03*
X158273800Y-140986000D03*
X152685800Y-134026400D03*
X178873200Y-122774200D03*
X194722800Y-99812600D03*
X187356800Y-98136200D03*
X171050000Y-153178000D03*
X155302000Y-111496600D03*
X223170800Y-150536400D03*
X167938481Y-146605801D03*
X191090600Y-99711000D03*
X168002000Y-150384000D03*
X220540600Y-113935000D03*
X222649522Y-126729341D03*
X240265000Y-181880000D03*
X177400000Y-142002000D03*
X232645000Y-180610000D03*
X205828350Y-111522000D03*
X172929600Y-128870200D03*
X184969200Y-138166600D03*
X223526400Y-109820200D03*
X176358600Y-140986000D03*
X168002000Y-154448000D03*
X171050000Y-150384000D03*
X198380400Y-120310400D03*
X152685800Y-116195600D03*
X248266000Y-121936000D03*
X161398000Y-142408400D03*
X173488400Y-105857800D03*
X176384000Y-142002000D03*
X238791800Y-125034800D03*
X244633800Y-184750200D03*
X168764000Y-145812000D03*
X238360000Y-181880000D03*
X177757006Y-133443606D03*
X248266000Y-127016000D03*
X168002000Y-155464000D03*
X238360000Y-179340000D03*
X160382000Y-142408400D03*
X222434200Y-154575000D03*
X190862000Y-115586000D03*
X219259200Y-183785000D03*
X168002000Y-149368000D03*
X167697200Y-105857800D03*
X173082000Y-152162000D03*
X204349400Y-107915200D03*
X232645000Y-181880000D03*
X162414000Y-142408400D03*
X209124600Y-106772200D03*
X160712200Y-136820400D03*
X164750800Y-151577800D03*
X162972800Y-143703800D03*
X158604000Y-148606000D03*
X238360000Y-180610000D03*
X184029400Y-136795000D03*
X190608000Y-126508000D03*
X232645000Y-179340000D03*
X152685800Y-136541000D03*
X160153400Y-160036000D03*
X172828000Y-127124000D03*
X167316200Y-124018800D03*
X187255200Y-96536000D03*
X205898800Y-107915200D03*
X174504400Y-124825200D03*
X223907400Y-116373400D03*
X240265000Y-180610000D03*
X171050000Y-151908000D03*
X234550000Y-180610000D03*
X164674600Y-101108000D03*
X176384000Y-143526000D03*
X249062979Y-119912508D03*
X225126600Y-184750200D03*
X196958000Y-106950000D03*
X205828350Y-110677400D03*
X159035800Y-141748000D03*
X226676000Y-158639000D03*
X176968200Y-129200400D03*
X176384000Y-145304000D03*
X174326600Y-122647200D03*
X170796000Y-154448000D03*
X169729200Y-129937000D03*
X152685800Y-126355600D03*
X174377400Y-139754194D03*
X152685800Y-154422600D03*
X223678800Y-135728200D03*
X214890400Y-92522800D03*
X226168000Y-184750200D03*
X204984400Y-100168200D03*
X159696200Y-111572800D03*
X240265000Y-179340000D03*
X174556600Y-121224800D03*
X157511800Y-119091200D03*
X204451000Y-111522000D03*
X162668000Y-136712400D03*
X163430000Y-142408400D03*
X152685800Y-123891800D03*
X174098000Y-129937000D03*
X231654400Y-150714200D03*
X231324200Y-146980400D03*
X152685800Y-149266400D03*
X173082000Y-150892000D03*
X197720000Y-117110000D03*
X238262836Y-144675400D03*
X198355000Y-128540000D03*
X226574400Y-122012200D03*
X217049400Y-121383600D03*
X240900000Y-91710000D03*
X237115400Y-150612600D03*
X241408000Y-101108000D03*
X231248000Y-114697000D03*
X230740000Y-94250000D03*
X177527000Y-120589800D03*
X235820000Y-91710000D03*
X231502000Y-110556800D03*
X200213067Y-130414560D03*
X196450000Y-120920000D03*
X198355000Y-124095000D03*
X230740000Y-91710000D03*
X210013600Y-130292600D03*
X175672800Y-120666000D03*
X238360000Y-94250000D03*
X196450000Y-122190000D03*
X238538400Y-146370800D03*
X169424400Y-92218000D03*
X216947800Y-137226800D03*
X198355000Y-127270000D03*
X223348600Y-121936000D03*
X178263600Y-92218000D03*
X198355000Y-122825000D03*
X196450000Y-142510000D03*
X158604000Y-110302800D03*
X216084200Y-134128000D03*
X231324200Y-144516600D03*
X215703200Y-121383600D03*
X196450000Y-129175000D03*
X238360000Y-91710000D03*
X162287000Y-112436400D03*
X200244143Y-122194744D03*
X228200000Y-91710000D03*
X220554000Y-130337600D03*
X241408000Y-102378000D03*
X199625000Y-141240000D03*
X198355000Y-133620000D03*
X235820000Y-94250000D03*
X230486000Y-110531400D03*
X233280000Y-94250000D03*
X198355000Y-134890000D03*
X240900000Y-94250000D03*
X233280000Y-91710000D03*
X209753200Y-114309600D03*
X215855600Y-137226800D03*
X230105000Y-114697000D03*
X228200000Y-94250000D03*
X162287000Y-113350800D03*
X200260000Y-126000000D03*
X225660000Y-91710000D03*
X217176400Y-126254000D03*
X196450000Y-124730000D03*
X225660000Y-94250000D03*
X199625000Y-142510000D03*
X215754000Y-142002000D03*
X158604000Y-109109000D03*
X215754000Y-140986000D03*
X238614000Y-117694200D03*
X196450000Y-141240000D03*
X231317800Y-143526000D03*
X231349600Y-139081000D03*
X251314000Y-105857800D03*
X217278000Y-142002000D03*
X241408000Y-103902000D03*
X211105800Y-114309600D03*
X196450000Y-130445000D03*
%TO.N,+9V*%
X236709000Y-147513800D03*
X235566000Y-117770400D03*
X235540600Y-130114800D03*
X243567000Y-103825800D03*
X235540600Y-101793800D03*
X232252600Y-105349800D03*
X211563000Y-130343400D03*
X215500000Y-113706400D03*
X235566000Y-121910600D03*
X235515200Y-150866600D03*
%TO.N,-9V*%
X228378400Y-158613600D03*
X243465400Y-105857800D03*
X238341000Y-114163600D03*
X228352400Y-129251200D03*
X228372050Y-141290800D03*
X218725800Y-126287800D03*
X237344000Y-105248200D03*
X238512400Y-110582200D03*
X228403800Y-139614400D03*
X218751200Y-141316200D03*
%TO.N,/ESP32/FLASH*%
X180600900Y-109159800D03*
%TO.N,/ESP32/EN*%
X161347700Y-93742000D03*
%TO.N,VBAT*%
X161220200Y-100600000D03*
X175368000Y-118176800D03*
X180575000Y-120234200D03*
X162287000Y-121605800D03*
X161220200Y-99431600D03*
X161271000Y-97120200D03*
X210140600Y-106111800D03*
X178822400Y-132756400D03*
X168764000Y-133524000D03*
X243789200Y-99736400D03*
X161245600Y-98390200D03*
X165466300Y-118176800D03*
X167646400Y-114112800D03*
X178162000Y-105324400D03*
X224644000Y-106442000D03*
X224644000Y-105426000D03*
X172015200Y-105349800D03*
X215220600Y-107688029D03*
X186112200Y-105197400D03*
%TO.N,/STM32F407VET6/NRST*%
X163887200Y-110353600D03*
%TO.N,NTC_9-*%
X226695050Y-142256000D03*
X238512400Y-147666200D03*
%TO.N,NTC_1-*%
X226670850Y-155870400D03*
X238487000Y-155870400D03*
%TO.N,NTC_5-*%
X238842600Y-128108200D03*
X226651200Y-126508000D03*
%TO.N,NTC_13-*%
X223628000Y-126508000D03*
X220440600Y-123675800D03*
%TO.N,NTC_BAT9*%
X220986400Y-151374600D03*
%TO.N,NTC_BAT5*%
X221151403Y-128590800D03*
X223704200Y-114976400D03*
%TO.N,NTC_BAT13*%
X218725800Y-115719550D03*
%TO.N,NTC_14-*%
X211550600Y-121097800D03*
X223120000Y-123333000D03*
%TO.N,NTC_BAT10*%
X235566600Y-147488400D03*
%TO.N,NTC_BAT2*%
X220910200Y-153482800D03*
X238106000Y-152930400D03*
%TO.N,NTC_BAT6*%
X239071200Y-119904000D03*
X223551800Y-133391400D03*
%TO.N,NTC_BAT14*%
X211563000Y-118253000D03*
%TO.N,NTC_11-*%
X220427600Y-138471400D03*
X223875600Y-141087600D03*
%TO.N,NTC_3-*%
X226651200Y-138446000D03*
X239077973Y-142706800D03*
%TO.N,NTC_7-*%
X238580270Y-109193530D03*
X226663032Y-109991968D03*
%TO.N,NTC_15-*%
X226682350Y-113731800D03*
X239020400Y-116602000D03*
%TO.N,NTC_BAT11*%
X213290200Y-130191000D03*
%TO.N,NTC_BAT7*%
X220656200Y-109388400D03*
X220122851Y-128565451D03*
%TO.N,NTC_BAT15*%
X222434200Y-128514600D03*
%TO.N,NTC_BAT12*%
X211563000Y-132985000D03*
%TO.N,NTC_BAT4*%
X235540600Y-133112000D03*
X223399400Y-137379200D03*
%TO.N,NTC_BAT8*%
X242754200Y-108728000D03*
X215855600Y-128521000D03*
%TO.N,NTC_BAT16*%
X223553160Y-134422700D03*
%TO.N,VOL_BAT1*%
X205962600Y-121871600D03*
%TO.N,VOL_BAT2*%
X205232400Y-123141600D03*
%TO.N,VOL_BAT3*%
X204502200Y-124411600D03*
%TO.N,VOL_BAT4*%
X204502200Y-125681600D03*
%TO.N,VOL_BAT5*%
X204502200Y-126951600D03*
%TO.N,VOL_BAT6*%
X205232400Y-128221600D03*
%TO.N,VOL_BAT7*%
X205962600Y-129491600D03*
%TO.N,VOL_BAT8*%
X206712000Y-130761600D03*
%TO.N,VOL_BAT9*%
X190526000Y-131384800D03*
%TO.N,VOL_BAT10*%
X191256200Y-130031400D03*
%TO.N,VOL_BAT11*%
X190818000Y-128221600D03*
%TO.N,VOL_BAT12*%
X191548200Y-126951600D03*
%TO.N,VOL_BAT13*%
X191548200Y-125681600D03*
%TO.N,VOL_BAT14*%
X190818000Y-124411600D03*
%TO.N,VOL_BAT15*%
X190817600Y-123151525D03*
%TO.N,VOL_BAT16*%
X190087400Y-121871600D03*
%TO.N,ADC1_IN1*%
X179940000Y-115392009D03*
X164065000Y-114214400D03*
%TO.N,ADC1_IN2*%
X164065000Y-112817400D03*
X178670000Y-114682637D03*
%TO.N,/STM32F407VET6/LED_TEST*%
X172447000Y-121580400D03*
%TO.N,/STM32F407VET6/LED_STATUS*%
X170872200Y-117948200D03*
%TO.N,FSMC_D15*%
X169261399Y-141565199D03*
%TO.N,SPI2_CS*%
X162464800Y-145456400D03*
%TO.N,FSMC_D13*%
X169261400Y-138420600D03*
%TO.N,FSMC_D9*%
X161912400Y-132146800D03*
%TO.N,FSMC_D7*%
X161658399Y-128307932D03*
%TO.N,FSMC_D5*%
X163251421Y-127935760D03*
%TO.N,FSMC_D3*%
X173261400Y-132045200D03*
%TO.N,FSMC_D1*%
X172558100Y-130029100D03*
%TO.N,FSMC_NWE*%
X176380931Y-128289069D03*
%TO.N,FSMC_D12*%
X167773400Y-132750000D03*
%TO.N,FSMC_D14*%
X169322800Y-139538200D03*
%TO.N,FSMC_D10*%
X161880600Y-131003800D03*
%TO.N,FSMC_D8*%
X167652669Y-131632531D03*
%TO.N,FSMC_D2*%
X174309074Y-131994264D03*
%TO.N,FSMC_D0*%
X171634200Y-128470200D03*
%TO.N,FSMC_NOE*%
X178111200Y-129022600D03*
%TO.N,FSMC_A16*%
X170556600Y-124501400D03*
%TO.N,FSMC_NE1*%
X175691738Y-125606400D03*
%TO.N,Net-(Q5-G)*%
X209124401Y-156569000D03*
%TO.N,Net-(Q6-G)*%
X178187400Y-156721800D03*
%TO.N,BAT_BAL_5*%
X204755800Y-162576000D03*
X199752400Y-131814800D03*
%TO.N,BAT_BAL_13*%
X171588800Y-172786800D03*
X174269600Y-177124000D03*
X196348800Y-127623800D03*
%TO.N,Net-(Q7-G)*%
X211663600Y-159636000D03*
%TO.N,Net-(Q8-G)*%
X180727400Y-159922200D03*
%TO.N,BAT_BAL_4*%
X214001400Y-175911000D03*
X215195200Y-177104800D03*
X208667201Y-160950400D03*
X199752400Y-127674600D03*
%TO.N,BAT_BAL_12*%
X182759400Y-175911798D03*
X183978600Y-176800000D03*
X177806400Y-160836600D03*
X196348800Y-131803000D03*
%TO.N,Net-(Q9-G)*%
X214206500Y-156683200D03*
%TO.N,Net-(Q10-G)*%
X183267400Y-156721800D03*
%TO.N,BAT_BAL_3*%
X219284401Y-170003951D03*
X199752400Y-123509000D03*
%TO.N,BAT_BAL_11*%
X188474400Y-171873198D03*
X196348800Y-135943200D03*
%TO.N,Net-(Q11-G)*%
X216743600Y-159636000D03*
%TO.N,Net-(Q12-G)*%
X185807400Y-159719000D03*
%TO.N,BAT_BAL_2*%
X216795201Y-168784950D03*
X199752400Y-119368800D03*
%TO.N,BAT_BAL_10*%
X185807400Y-167885398D03*
X196348800Y-140083400D03*
%TO.N,Net-(D51-A)*%
X157257800Y-173371000D03*
%TO.N,Net-(Q13-G)*%
X193427400Y-156651799D03*
%TO.N,Net-(Q14-G)*%
X163238600Y-166932600D03*
%TO.N,Net-(D59-A)*%
X165716000Y-175860200D03*
%TO.N,BAT_BAL_9*%
X189414200Y-162652200D03*
X189414200Y-165116000D03*
X196348800Y-144299800D03*
%TO.N,Net-(Q15-G)*%
X195967400Y-160087199D03*
%TO.N,BAT_BAL_8*%
X198024800Y-175911798D03*
X193047400Y-160824198D03*
X199091600Y-176850800D03*
X199752400Y-144235400D03*
%TO.N,BAT_BAL_16*%
X161550400Y-169161000D03*
X196348800Y-115228600D03*
%TO.N,Net-(Q17-G)*%
X198507400Y-156702599D03*
%TO.N,Net-(Q18-G)*%
X168318600Y-166958000D03*
%TO.N,BAT_BAL_7*%
X203726200Y-170551600D03*
X203726200Y-172761400D03*
X199752400Y-140095200D03*
%TO.N,BAT_BAL_15*%
X168332200Y-169891200D03*
X196348800Y-119355200D03*
%TO.N,Net-(Q19-G)*%
X201047400Y-160087199D03*
%TO.N,BAT_BAL_6*%
X200932200Y-167885398D03*
X199752400Y-135955000D03*
%TO.N,BAT_BAL_14*%
X196348800Y-123497200D03*
%TO.N,BAT_BAL_1*%
X220300600Y-163908150D03*
X199752400Y-115228600D03*
%TO.N,Net-(Q5-D)*%
X206775001Y-175911000D03*
%TO.N,Net-(Q6-D)*%
X175838000Y-175911798D03*
%TO.N,Net-(Q7-D)*%
X206775001Y-171872400D03*
%TO.N,Net-(Q8-D)*%
X175838000Y-171873198D03*
%TO.N,Net-(Q9-D)*%
X206775001Y-167884600D03*
%TO.N,Net-(Q10-D)*%
X175838000Y-167885398D03*
%TO.N,Net-(Q11-D)*%
X213391601Y-163896800D03*
%TO.N,Net-(Q12-D)*%
X182435600Y-163897598D03*
%TO.N,Net-(Q13-D)*%
X191249400Y-175911798D03*
%TO.N,Net-(Q14-D)*%
X155346400Y-168430800D03*
%TO.N,Net-(Q15-D)*%
X191249400Y-171873198D03*
%TO.N,Net-(Q16-D)*%
X161144000Y-176114200D03*
%TO.N,Net-(Q17-D)*%
X191249400Y-167885398D03*
%TO.N,Net-(Q18-D)*%
X160382000Y-168316400D03*
%TO.N,Net-(Q19-D)*%
X197630200Y-163897598D03*
%TO.N,Net-(Q20-D)*%
X172574000Y-173777400D03*
%TO.N,Net-(Q24-C)*%
X232721200Y-185588400D03*
X236912200Y-177308000D03*
%TO.N,Net-(Q22-G)*%
X251212400Y-178959000D03*
X242093800Y-177282600D03*
%TO.N,Net-(Q22-D)*%
X237090000Y-168570400D03*
X240900000Y-164760400D03*
X229470000Y-160950400D03*
X233280000Y-160950400D03*
X235820000Y-168570400D03*
X226930000Y-168570400D03*
X226930000Y-163490400D03*
X245980000Y-167300400D03*
X248520000Y-162220400D03*
X251060000Y-167300400D03*
X249790000Y-164760400D03*
X229470000Y-166030400D03*
X242170000Y-166030400D03*
X245980000Y-166030400D03*
X233280000Y-168570400D03*
X243440000Y-167300400D03*
X234550000Y-164760400D03*
X234550000Y-163490400D03*
X242170000Y-160950400D03*
X235820000Y-164760400D03*
X234550000Y-168570400D03*
X229470000Y-163490400D03*
X223120000Y-168570400D03*
X234550000Y-160950400D03*
X239630000Y-168570400D03*
X229470000Y-168570400D03*
X237090000Y-160950400D03*
X249790000Y-163490400D03*
X223120000Y-162220400D03*
X240900000Y-167300400D03*
X242170000Y-167300400D03*
X238360000Y-164760400D03*
X225660000Y-160950400D03*
X228200000Y-162220400D03*
X232010000Y-167300400D03*
X226930000Y-166030400D03*
X225660000Y-166030400D03*
X235820000Y-167300400D03*
X235820000Y-166030400D03*
X233280000Y-167300400D03*
X244710000Y-164760400D03*
X248520000Y-168570400D03*
X240900000Y-160950400D03*
X237090000Y-163490400D03*
X248520000Y-163490400D03*
X237090000Y-164760400D03*
X243440000Y-164760400D03*
X235820000Y-162220400D03*
X245980000Y-163490400D03*
X233280000Y-163490400D03*
X225660000Y-168570400D03*
X240900000Y-163490400D03*
X232010000Y-164760400D03*
X242170000Y-163490400D03*
X225660000Y-163490400D03*
X248520000Y-164760400D03*
X225660000Y-164760400D03*
X224390000Y-168570400D03*
X228200000Y-160950400D03*
X244710000Y-162220400D03*
X230740000Y-163490400D03*
X247250000Y-166030400D03*
X242170000Y-168570400D03*
X228200000Y-167300400D03*
X233280000Y-166030400D03*
X224390000Y-166030400D03*
X223120000Y-160950400D03*
X249790000Y-160950400D03*
X223120000Y-164760400D03*
X239630000Y-166030400D03*
X228200000Y-166030400D03*
X234550000Y-162220400D03*
X226930000Y-167300400D03*
X230740000Y-168570400D03*
X243440000Y-168570400D03*
X234550000Y-167300400D03*
X223120000Y-163490400D03*
X245980000Y-160950400D03*
X240900000Y-162220400D03*
X239630000Y-162220400D03*
X238360000Y-163490400D03*
X248520000Y-160950400D03*
X247250000Y-168570400D03*
X229470000Y-164760400D03*
X243440000Y-166030400D03*
X245980000Y-168570400D03*
X242170000Y-162220400D03*
X251060000Y-160950400D03*
X223120000Y-166030400D03*
X228200000Y-163490400D03*
X243440000Y-162220400D03*
X247250000Y-162220400D03*
X228200000Y-164760400D03*
X224390000Y-167300400D03*
X245980000Y-164760400D03*
X239630000Y-160950400D03*
X229470000Y-167300400D03*
X232010000Y-160950400D03*
X224390000Y-164760400D03*
X249790000Y-162220400D03*
X247250000Y-164760400D03*
X228200000Y-168570400D03*
X251060000Y-162220400D03*
X243440000Y-160950400D03*
X232010000Y-166030400D03*
X249790000Y-167300400D03*
X251060000Y-164760400D03*
X232010000Y-168570400D03*
X232010000Y-163490400D03*
X230740000Y-164760400D03*
X251060000Y-168570400D03*
X238360000Y-168570400D03*
X240900000Y-166030400D03*
X244710000Y-167300400D03*
X238360000Y-166030400D03*
X247250000Y-160950400D03*
X225660000Y-162220400D03*
X230740000Y-160950400D03*
X239630000Y-167300400D03*
X251060000Y-163490400D03*
X247250000Y-167300400D03*
X244710000Y-168570400D03*
X242170000Y-164760400D03*
X248520000Y-166030400D03*
X249790000Y-166030400D03*
X229470000Y-162220400D03*
X224390000Y-160950400D03*
X251060000Y-166030400D03*
X240900000Y-168570400D03*
X243440000Y-163490400D03*
X234550000Y-166030400D03*
X230740000Y-166030400D03*
X245980000Y-162220400D03*
X226930000Y-162220400D03*
X237090000Y-167300400D03*
X233280000Y-162220400D03*
X230740000Y-167300400D03*
X226930000Y-160950400D03*
X224390000Y-163490400D03*
X238360000Y-160950400D03*
X224390000Y-162220400D03*
X226930000Y-164760400D03*
X244710000Y-166030400D03*
X238360000Y-167300400D03*
X233280000Y-164760400D03*
X237090000Y-162220400D03*
X248520000Y-167300400D03*
X247250000Y-163490400D03*
X223120000Y-167300400D03*
X237090000Y-166030400D03*
X230740000Y-162220400D03*
X238360000Y-162220400D03*
X232010000Y-162220400D03*
X235820000Y-160950400D03*
X239630000Y-164760400D03*
X244710000Y-160950400D03*
X225660000Y-167300400D03*
X249790000Y-168570400D03*
X235820000Y-163490400D03*
X244710000Y-163490400D03*
X239630000Y-163490400D03*
%TO.N,Net-(Q23-G)*%
X233940400Y-176139600D03*
X223450200Y-177282600D03*
%TO.N,U0_P*%
X185324800Y-95012000D03*
X191700200Y-106670600D03*
%TO.N,U0_N*%
X184620000Y-96282000D03*
X190760400Y-107280200D03*
%TO.N,Net-(U1-IO16)*%
X182265900Y-105164800D03*
%TO.N,Net-(U2-~{DTR})*%
X186927200Y-107120600D03*
%TO.N,Net-(U2-~{RTS})*%
X185530200Y-108390600D03*
%TO.N,/STM32F407VET6/BOOT0*%
X183365841Y-125266559D03*
X169501100Y-111471200D03*
%TO.N,UART1_TX*%
X174961600Y-138700000D03*
X178193800Y-110404400D03*
%TO.N,UART1_RX*%
X175758200Y-137887200D03*
X184461200Y-113776200D03*
%TO.N,RS485_CONTROL*%
X197694600Y-110912400D03*
X184029400Y-133645400D03*
%TO.N,ADC1_IN1_S0*%
X181108400Y-116170200D03*
X177552400Y-121707400D03*
%TO.N,ADC1_IN1_S1*%
X182661041Y-116096809D03*
X176993600Y-122672600D03*
%TO.N,ADC1_IN2_S0*%
X204959000Y-144542000D03*
X187213841Y-122841973D03*
%TO.N,ADC1_IN2_S1*%
X187213841Y-123862974D03*
X205958921Y-144623075D03*
%TO.N,ADC1_IN2_S2*%
X187213841Y-124906662D03*
X223850494Y-142344233D03*
%TO.N,ADC1_IN2_S3*%
X187213841Y-125923800D03*
X220910200Y-144440400D03*
%TO.N,CHARGE*%
X175469600Y-124120400D03*
X159467600Y-161509200D03*
X242322400Y-188026800D03*
%TO.N,DISCHARGE*%
X225774400Y-186325000D03*
X153370167Y-168645196D03*
X176155400Y-123383800D03*
%TO.N,UART4_RX*%
X198888400Y-106873800D03*
X182965669Y-131607000D03*
%TO.N,UART4_TX*%
X198888400Y-110683800D03*
X184029400Y-132524000D03*
%TO.N,/ESP32/LED_TEST*%
X185376100Y-100092000D03*
%TO.N,/ESP32/LED_STATUS*%
X183979100Y-97552000D03*
%TO.N,+3V3_O*%
X248393000Y-154117800D03*
X222764400Y-149241000D03*
X231578200Y-152917600D03*
X203790600Y-117344000D03*
X247834200Y-123460000D03*
X223628000Y-131537200D03*
X229724000Y-107204000D03*
X246335600Y-111852200D03*
X221545200Y-108220000D03*
X242322400Y-131003800D03*
X215557000Y-120113600D03*
X238567058Y-122393200D03*
X231527400Y-123542600D03*
X163912600Y-149088600D03*
X243668600Y-101793800D03*
X225026000Y-117756800D03*
X231375000Y-135093200D03*
X248088200Y-149799800D03*
X247783400Y-144719800D03*
X247961200Y-116144800D03*
X231197200Y-116062200D03*
X248012000Y-139385800D03*
X248088200Y-119675400D03*
X241331800Y-157445200D03*
X223704200Y-119142000D03*
X229724000Y-105934000D03*
X240061800Y-107540600D03*
X238995000Y-134407400D03*
X215576200Y-135499600D03*
X212934600Y-126304800D03*
X222000166Y-129479800D03*
X238347400Y-141849600D03*
X222104000Y-113884200D03*
%TO.N,UART5_TX*%
X183788215Y-130902200D03*
%TO.N,UART5_RX*%
X182886400Y-130024000D03*
%TD*%
D24*
%TO.N,+5V*%
X187102800Y-108702600D02*
X188093400Y-107712000D01*
D25*
X210318400Y-103089200D02*
X208769000Y-103089200D01*
D24*
X187102800Y-113775400D02*
X187102800Y-108702600D01*
X188093400Y-107712000D02*
X188093400Y-103089200D01*
D25*
X216668400Y-106010200D02*
X215246000Y-106010200D01*
X176815800Y-95291400D02*
X160737600Y-95291400D01*
X208769000Y-103089200D02*
X188093400Y-103089200D01*
X158858000Y-106873800D02*
X158045200Y-107686600D01*
X215246000Y-106010200D02*
X213239400Y-106010200D01*
D24*
X208769000Y-105451400D02*
X208769000Y-103089200D01*
D25*
X184639000Y-103114600D02*
X176815800Y-95291400D01*
X188068000Y-103114600D02*
X184639000Y-103114600D01*
D24*
X216719200Y-107839000D02*
X216719200Y-106492800D01*
D25*
X158045200Y-107686600D02*
X153559400Y-107686600D01*
X160737600Y-95291400D02*
X158858000Y-97171000D01*
X213239400Y-106010200D02*
X210318400Y-103089200D01*
X188093400Y-103089200D02*
X188068000Y-103114600D01*
X158858000Y-97171000D02*
X158858000Y-106873800D01*
D26*
%TO.N,+9V*%
X235540600Y-101793800D02*
X232848200Y-101793800D01*
D24*
X233121800Y-143571000D02*
X233121800Y-130114800D01*
D26*
X236709000Y-145862800D02*
X234417200Y-143571000D01*
D24*
X233121800Y-117770400D02*
X233121800Y-112741200D01*
D26*
X224364600Y-124399800D02*
X223755000Y-125009400D01*
X216897000Y-125009400D02*
X211563000Y-130343400D01*
D24*
X232252600Y-109834200D02*
X232252600Y-105349800D01*
D26*
X234417200Y-143571000D02*
X233121800Y-143571000D01*
X233121800Y-124399800D02*
X224364600Y-124399800D01*
X223755000Y-125009400D02*
X216897000Y-125009400D01*
X219691000Y-112741200D02*
X233121800Y-112741200D01*
D24*
X233121800Y-124399800D02*
X233121800Y-121910600D01*
X233121800Y-130114800D02*
X233121800Y-124399800D01*
D26*
X236709000Y-147513800D02*
X236709000Y-145862800D01*
D24*
X233121800Y-110703400D02*
X232252600Y-109834200D01*
X233121800Y-121910600D02*
X233121800Y-117770400D01*
X233121800Y-148473200D02*
X233121800Y-143571000D01*
X235515200Y-150866600D02*
X233121800Y-148473200D01*
D27*
X232944000Y-112919000D02*
X233121800Y-112741200D01*
D26*
X235566000Y-121910600D02*
X233121800Y-121910600D01*
X235566000Y-117770400D02*
X233121800Y-117770400D01*
X215500000Y-113706400D02*
X218725800Y-113706400D01*
X218725800Y-113706400D02*
X219691000Y-112741200D01*
X235540600Y-130114800D02*
X233121800Y-130114800D01*
D24*
X233121800Y-112741200D02*
X233121800Y-110703400D01*
%TO.N,-9V*%
X230333600Y-141290800D02*
X230333600Y-139614400D01*
X228378400Y-158613600D02*
X230333600Y-158613600D01*
D27*
X238341000Y-114163600D02*
X237344000Y-114163600D01*
D24*
X240366600Y-145387296D02*
X237344000Y-142364696D01*
X230333600Y-158613600D02*
X238131400Y-158613600D01*
X237344000Y-105248200D02*
X237344000Y-110582200D01*
X238131400Y-158613600D02*
X240366600Y-156378400D01*
D27*
X221968600Y-126287800D02*
X222542100Y-125714300D01*
D24*
X240366600Y-156378400D02*
X240366600Y-145387296D01*
X230333600Y-145481800D02*
X230333600Y-158613600D01*
X230333600Y-131232400D02*
X230333600Y-139614400D01*
D27*
X229978000Y-128946400D02*
X229012800Y-129911600D01*
X238512400Y-110582200D02*
X237344000Y-110582200D01*
D24*
X237344000Y-142364696D02*
X237344000Y-114163600D01*
D27*
X218751200Y-144770600D02*
X218751200Y-141316200D01*
D24*
X237344000Y-110582200D02*
X237344000Y-114163600D01*
D27*
X219462400Y-145481800D02*
X218751200Y-144770600D01*
X228372050Y-141290800D02*
X230333600Y-141290800D01*
X218725800Y-126287800D02*
X221968600Y-126287800D01*
X222542100Y-125714300D02*
X229209700Y-125714300D01*
X230333600Y-145481800D02*
X219462400Y-145481800D01*
X229209700Y-125714300D02*
X229978000Y-126482600D01*
X229978000Y-126482600D02*
X229978000Y-128946400D01*
X228403800Y-139614400D02*
X230333600Y-139614400D01*
D24*
X230333600Y-145481800D02*
X230333600Y-141290800D01*
X228352400Y-129251200D02*
X230333600Y-131232400D01*
D26*
%TO.N,VBAT*%
X172015200Y-105349800D02*
X169805400Y-105349800D01*
D28*
X180752800Y-126965200D02*
X180752800Y-132756400D01*
D29*
X165466300Y-114112800D02*
X165466300Y-109028500D01*
D28*
X180752800Y-122342400D02*
X180752800Y-126965200D01*
D24*
X168764000Y-133518400D02*
X168764000Y-133524000D01*
D28*
X210140600Y-109312200D02*
X193783000Y-109312200D01*
D24*
X180600400Y-120234200D02*
X181730700Y-121364500D01*
D28*
X175368000Y-112634963D02*
X179660600Y-112634963D01*
X181129880Y-112634963D02*
X185782717Y-117287800D01*
D26*
X184054800Y-107254800D02*
X186112200Y-105197400D01*
D24*
X176003000Y-134839200D02*
X179127200Y-137963400D01*
X170079200Y-134839200D02*
X176003000Y-134839200D01*
D28*
X179127200Y-137963400D02*
X178060400Y-139030200D01*
X166039800Y-98777600D02*
X166039800Y-101050800D01*
X210140600Y-109312200D02*
X215220600Y-109312200D01*
X178060400Y-139030200D02*
X178060400Y-140325600D01*
X169805400Y-104816400D02*
X169805400Y-105349800D01*
D26*
X181705300Y-121364500D02*
X181730700Y-121364500D01*
D28*
X166046200Y-98771200D02*
X166039800Y-98777600D01*
D26*
X210140600Y-109312200D02*
X210148400Y-109304400D01*
D24*
X162287000Y-124476000D02*
X163550600Y-125739600D01*
D28*
X169805400Y-106975400D02*
X169805400Y-107839000D01*
D24*
X168764000Y-133524000D02*
X170079200Y-134839200D01*
D26*
X176511000Y-106975400D02*
X169805400Y-106975400D01*
D28*
X180752800Y-136337800D02*
X179127200Y-137963400D01*
D29*
X165466300Y-109028500D02*
X166655800Y-107839000D01*
D28*
X169805400Y-109439200D02*
X173001163Y-112634963D01*
D24*
X163550600Y-125739600D02*
X173863000Y-125739600D01*
D28*
X181730700Y-121364500D02*
X180752800Y-122342400D01*
D26*
X180244800Y-107254800D02*
X184054800Y-107254800D01*
D24*
X162287000Y-121605800D02*
X162287000Y-124476000D01*
D28*
X169805400Y-105349800D02*
X169805400Y-106975400D01*
X215220600Y-109312200D02*
X217951000Y-109312200D01*
X217951000Y-109312200D02*
X217957400Y-109318600D01*
X220834000Y-106442000D02*
X224644000Y-106442000D01*
D24*
X167646400Y-114112800D02*
X165466300Y-114112800D01*
D28*
X185782717Y-117287800D02*
X185807400Y-117287800D01*
D26*
X210148400Y-109304400D02*
X211164400Y-109304400D01*
D28*
X166039800Y-101050800D02*
X169805400Y-104816400D01*
D24*
X215220600Y-107688029D02*
X215220600Y-109312200D01*
X178822400Y-132756400D02*
X180752800Y-132756400D01*
D26*
X179660600Y-112634963D02*
X179660600Y-107839000D01*
D28*
X179660600Y-112634963D02*
X181129880Y-112634963D01*
X169805400Y-107839000D02*
X169805400Y-109439200D01*
D26*
X210140600Y-106111800D02*
X210140600Y-109312200D01*
D24*
X180575000Y-120234200D02*
X180600400Y-120234200D01*
D29*
X165466300Y-118176800D02*
X165466300Y-114112800D01*
D26*
X179660600Y-107839000D02*
X180244800Y-107254800D01*
X178162000Y-105324400D02*
X176511000Y-106975400D01*
D28*
X217957400Y-109318600D02*
X220834000Y-106442000D01*
D26*
X175368000Y-118176800D02*
X175368000Y-112634963D01*
D29*
X166655800Y-107839000D02*
X169805400Y-107839000D01*
D24*
X173863000Y-125739600D02*
X175088600Y-126965200D01*
D28*
X180752800Y-132756400D02*
X180752800Y-136337800D01*
D24*
X175088600Y-126965200D02*
X180752800Y-126965200D01*
D28*
X193783000Y-109312200D02*
X181730700Y-121364500D01*
X173001163Y-112634963D02*
X175368000Y-112634963D01*
D27*
%TO.N,BAT_BAL_5*%
X201714501Y-133776901D02*
X199752400Y-131814800D01*
X202425301Y-164893699D02*
X202425301Y-156666837D01*
X200025000Y-181051200D02*
X200025000Y-167294000D01*
X201714501Y-155956037D02*
X201714501Y-133776901D01*
X202425301Y-156666837D02*
X201714501Y-155956037D01*
X200025000Y-167294000D02*
X202425301Y-164893699D01*
%TO.N,BAT_BAL_13*%
X166827200Y-181000400D02*
X166827200Y-162221768D01*
X166776400Y-181051200D02*
X166827200Y-181000400D01*
X193802500Y-144904868D02*
X193802500Y-130170100D01*
X193802500Y-130170100D02*
X196348800Y-127623800D01*
X166827200Y-162221768D02*
X177242568Y-151806400D01*
X177242568Y-151806400D02*
X186900968Y-151806400D01*
X186900968Y-151806400D02*
X193802500Y-144904868D01*
%TO.N,BAT_BAL_4*%
X203835000Y-181051200D02*
X203835000Y-177111200D01*
X203009502Y-165135682D02*
X203009502Y-156424854D01*
X203009502Y-156424854D02*
X202298702Y-155714054D01*
X202215800Y-175492000D02*
X202215800Y-165929384D01*
X203835000Y-177111200D02*
X202215800Y-175492000D01*
X202298702Y-130220902D02*
X199752400Y-127674600D01*
X202215800Y-165929384D02*
X203009502Y-165135682D01*
X202298702Y-155714054D02*
X202298702Y-130220902D01*
%TO.N,BAT_BAL_12*%
X177484552Y-152390600D02*
X170586400Y-159288752D01*
X170586400Y-159288752D02*
X170586400Y-181051200D01*
X196348800Y-131803000D02*
X194386700Y-133765100D01*
X194386700Y-145146852D02*
X187142952Y-152390600D01*
X194386700Y-133765100D02*
X194386700Y-145146852D01*
X187142952Y-152390600D02*
X177484552Y-152390600D01*
%TO.N,BAT_BAL_3*%
X202882903Y-129978919D02*
X202882903Y-155472071D01*
X202882903Y-155472071D02*
X203593703Y-156182871D01*
X203593703Y-156182871D02*
X203593703Y-166965071D01*
X202063400Y-129159416D02*
X202882903Y-129978919D01*
X207645000Y-171016368D02*
X207645000Y-181051200D01*
X199937138Y-123509000D02*
X202063400Y-125635262D01*
X199752400Y-123509000D02*
X199937138Y-123509000D01*
X202063400Y-125635262D02*
X202063400Y-129159416D01*
X203593703Y-166965071D02*
X207645000Y-171016368D01*
%TO.N,BAT_BAL_11*%
X176790400Y-176139600D02*
X174396400Y-178533600D01*
X194970900Y-137321100D02*
X194970900Y-145388836D01*
X196348800Y-135943200D02*
X194970900Y-137321100D01*
X176790400Y-153910936D02*
X176790400Y-176139600D01*
X177726536Y-152974800D02*
X176790400Y-153910936D01*
X194970900Y-145388836D02*
X187384936Y-152974800D01*
X187384936Y-152974800D02*
X177726536Y-152974800D01*
X174396400Y-178533600D02*
X174396400Y-181051200D01*
%TO.N,BAT_BAL_2*%
X204177903Y-160626503D02*
X211455000Y-167903600D01*
X202647600Y-128917432D02*
X203467104Y-129736936D01*
X203467104Y-129736936D02*
X203467104Y-155230088D01*
X204177903Y-155940887D02*
X204177903Y-160626503D01*
X203467104Y-155230088D02*
X204177903Y-155940887D01*
X202647600Y-122264000D02*
X202647600Y-128917432D01*
X199752400Y-119368800D02*
X202647600Y-122264000D01*
X211455000Y-167903600D02*
X211455000Y-181051200D01*
%TO.N,BAT_BAL_10*%
X195555100Y-140877100D02*
X195555101Y-145146853D01*
X187142953Y-153559001D02*
X187142952Y-153559000D01*
X187626919Y-153559001D02*
X187142953Y-153559001D01*
X196348800Y-140083400D02*
X195555100Y-140877100D01*
X181184600Y-153559000D02*
X179609800Y-155133800D01*
X179609800Y-161712400D02*
X178206400Y-163115800D01*
X179609800Y-155133800D02*
X179609800Y-161712400D01*
X178206400Y-163115800D02*
X178206400Y-181051200D01*
X195555101Y-145146853D02*
X195555101Y-145630819D01*
X187142952Y-153559000D02*
X181184600Y-153559000D01*
X195555101Y-145630819D02*
X187626919Y-153559001D01*
%TO.N,BAT_BAL_9*%
X196348800Y-144299800D02*
X196348800Y-145663304D01*
X196348800Y-145663304D02*
X184785000Y-157227104D01*
X184785000Y-157227104D02*
X184785000Y-181051200D01*
%TO.N,BAT_BAL_8*%
X199752000Y-156898416D02*
X199752000Y-144235800D01*
X188595000Y-176228483D02*
X199548800Y-165274683D01*
X199548800Y-157101616D02*
X199752000Y-156898416D01*
X199548800Y-165274683D02*
X199548800Y-157101616D01*
X199752000Y-144235800D02*
X199752400Y-144235400D01*
X188595000Y-181051200D02*
X188595000Y-176228483D01*
%TO.N,BAT_BAL_16*%
X193122600Y-128371448D02*
X193122600Y-118454800D01*
X186175017Y-150053799D02*
X192049900Y-144178916D01*
X192049900Y-129444148D02*
X193122600Y-128371448D01*
X176516617Y-150053799D02*
X186175017Y-150053799D01*
X193122600Y-118454800D02*
X196348800Y-115228600D01*
X192049900Y-144178916D02*
X192049900Y-129444148D01*
X155346400Y-171224016D02*
X176516617Y-150053799D01*
X155346400Y-181051200D02*
X155346400Y-171224016D01*
%TO.N,BAT_BAL_7*%
X200133000Y-157343600D02*
X200546100Y-156930500D01*
X192405000Y-181051200D02*
X192405000Y-173244667D01*
X200546100Y-156930500D02*
X200546100Y-140888900D01*
X200133000Y-165516667D02*
X200133000Y-157343600D01*
X200546100Y-140888900D02*
X199752400Y-140095200D01*
X192405000Y-173244667D02*
X200133000Y-165516667D01*
%TO.N,BAT_BAL_15*%
X176758601Y-150637999D02*
X186417001Y-150637999D01*
X192634100Y-144420900D02*
X192634100Y-129686132D01*
X192634100Y-129686132D02*
X193706800Y-128613432D01*
X186417001Y-150637999D02*
X192634100Y-144420900D01*
X159156400Y-181051200D02*
X159156400Y-168240200D01*
X193706800Y-128613432D02*
X193706800Y-121997200D01*
X193706800Y-121997200D02*
X196348800Y-119355200D01*
X159156400Y-168240200D02*
X176758601Y-150637999D01*
%TO.N,BAT_BAL_6*%
X201130300Y-137332900D02*
X199752400Y-135955000D01*
X201841100Y-156908820D02*
X201130300Y-156198020D01*
X196215000Y-170260851D02*
X201841100Y-164634751D01*
X201841100Y-164634751D02*
X201841100Y-156908820D01*
X201130300Y-156198020D02*
X201130300Y-137332900D01*
X196215000Y-181051200D02*
X196215000Y-170260851D01*
%TO.N,BAT_BAL_14*%
X162922000Y-168773600D02*
X162109200Y-167960800D01*
X177000584Y-151222200D02*
X186658984Y-151222200D01*
X162922000Y-181006800D02*
X162922000Y-168773600D01*
X194291000Y-125555000D02*
X196348800Y-123497200D01*
X162109200Y-166113584D02*
X177000584Y-151222200D01*
X193218300Y-144662884D02*
X193218300Y-129928116D01*
X186658984Y-151222200D02*
X193218300Y-144662884D01*
X162966400Y-181051200D02*
X162922000Y-181006800D01*
X162109200Y-167960800D02*
X162109200Y-166113584D01*
X193218300Y-129928116D02*
X194291000Y-128855416D01*
X194291000Y-128855416D02*
X194291000Y-125555000D01*
%TO.N,BAT_BAL_1*%
X204051305Y-129494953D02*
X204051305Y-154988105D01*
X204762103Y-160384519D02*
X225266984Y-180889400D01*
X204762103Y-155698903D02*
X204762103Y-160384519D01*
X225266984Y-180889400D02*
X227260200Y-180889400D01*
X203231800Y-128675448D02*
X204051305Y-129494953D01*
X203231800Y-118708000D02*
X203231800Y-128675448D01*
X204051305Y-154988105D02*
X204762103Y-155698903D01*
X199752400Y-115228600D02*
X203231800Y-118708000D01*
D28*
%TO.N,+3V3_O*%
X229671400Y-109390200D02*
X229671400Y-105986600D01*
D24*
X242068400Y-156708600D02*
X242068400Y-144516600D01*
X242068400Y-144516600D02*
X240061800Y-142510000D01*
D26*
X226618800Y-120640600D02*
X219767200Y-120640600D01*
X217455800Y-129479800D02*
X215271400Y-131664200D01*
D28*
X221545200Y-111369600D02*
X227692000Y-111369600D01*
D30*
X207041800Y-137861800D02*
X207041800Y-135652000D01*
D26*
X218167000Y-122240800D02*
X208515000Y-122240800D01*
X210826400Y-119142000D02*
X223704200Y-119142000D01*
D28*
X195688000Y-112944400D02*
X188677600Y-119954800D01*
D24*
X215557000Y-120113600D02*
X208521400Y-120113600D01*
D28*
X165030200Y-147971000D02*
X163912600Y-149088600D01*
D27*
X208521400Y-120113600D02*
X208515000Y-120107200D01*
D28*
X208413400Y-112944400D02*
X203790600Y-112944400D01*
D30*
X208515000Y-120107200D02*
X208515000Y-122240800D01*
D26*
X221125850Y-114862350D02*
X222104000Y-113884200D01*
D28*
X203790600Y-112944400D02*
X195688000Y-112944400D01*
D30*
X207041800Y-135652000D02*
X207041800Y-134458200D01*
D26*
X216871600Y-115255800D02*
X217265050Y-114862350D01*
D24*
X203790600Y-117344000D02*
X203790600Y-112944400D01*
D28*
X213670915Y-111369600D02*
X221545200Y-111369600D01*
D26*
X215576200Y-135499600D02*
X214712600Y-135499600D01*
D28*
X229671400Y-105986600D02*
X229724000Y-105934000D01*
X188677600Y-143348200D02*
X184054800Y-147971000D01*
D30*
X208515000Y-116678200D02*
X208515000Y-118862600D01*
D26*
X222000166Y-129479800D02*
X217455800Y-129479800D01*
D24*
X240061800Y-122393200D02*
X240061800Y-107540600D01*
X240061800Y-142510000D02*
X240061800Y-141849600D01*
D30*
X207041800Y-143248120D02*
X207041800Y-137861800D01*
D26*
X224078536Y-117756800D02*
X225026000Y-117756800D01*
D30*
X208515000Y-115255800D02*
X208515000Y-116678200D01*
X213034680Y-149241000D02*
X207041800Y-143248120D01*
D26*
X221545200Y-108220000D02*
X221545200Y-111369600D01*
X238567058Y-122393200D02*
X240061800Y-122393200D01*
X219767200Y-120640600D02*
X218167000Y-122240800D01*
X212356800Y-137855400D02*
X207048200Y-137855400D01*
X214712600Y-135499600D02*
X212356800Y-137855400D01*
X210547000Y-118862600D02*
X208515000Y-118862600D01*
X213188600Y-135652000D02*
X207041800Y-135652000D01*
X207048200Y-137855400D02*
X207041800Y-137861800D01*
X215271400Y-131664200D02*
X208515000Y-131664200D01*
X208515000Y-116678200D02*
X222999936Y-116678200D01*
X222999936Y-116678200D02*
X224078536Y-117756800D01*
X238347400Y-141849600D02*
X240061800Y-141849600D01*
D28*
X208413400Y-112944400D02*
X212096115Y-112944400D01*
D26*
X208515000Y-115255800D02*
X216871600Y-115255800D01*
D28*
X184054800Y-147971000D02*
X165030200Y-147971000D01*
D30*
X207041800Y-134458200D02*
X208515000Y-132985000D01*
D28*
X227692000Y-111369600D02*
X229671400Y-109390200D01*
D30*
X222764400Y-149241000D02*
X213034680Y-149241000D01*
D24*
X240061800Y-141849600D02*
X240061800Y-134407400D01*
D26*
X238995000Y-134407400D02*
X240061800Y-134407400D01*
X217303400Y-131537200D02*
X213188600Y-135652000D01*
D24*
X241331800Y-157445200D02*
X242068400Y-156708600D01*
D30*
X208515000Y-118862600D02*
X208515000Y-120107200D01*
D26*
X212934600Y-126304800D02*
X208515000Y-126304800D01*
D30*
X208515000Y-122240800D02*
X208515000Y-126304800D01*
D26*
X223628000Y-131537200D02*
X217303400Y-131537200D01*
D28*
X188677600Y-119954800D02*
X188677600Y-143348200D01*
X212096115Y-112944400D02*
X213670915Y-111369600D01*
D26*
X217265050Y-114862350D02*
X221125850Y-114862350D01*
D24*
X240061800Y-122393200D02*
X240061800Y-134407400D01*
D30*
X208515000Y-132985000D02*
X208515000Y-131664200D01*
D26*
X210547000Y-118862600D02*
X210826400Y-119142000D01*
X231197200Y-116062200D02*
X226618800Y-120640600D01*
D30*
X208515000Y-115255800D02*
X208515000Y-113046000D01*
X208515000Y-131664200D02*
X208515000Y-126304800D01*
%TD*%
%TA.AperFunction,Conductor*%
%TO.N,+9V*%
G36*
X235411105Y-117405307D02*
G01*
X235417413Y-117411609D01*
X235565123Y-117765898D01*
X235565144Y-117774852D01*
X235565123Y-117774902D01*
X235417413Y-118129190D01*
X235411066Y-118135508D01*
X235402150Y-118135503D01*
X235371788Y-118122970D01*
X235339917Y-118109814D01*
X235299750Y-118093703D01*
X235279109Y-118085424D01*
X235227291Y-118066174D01*
X235227289Y-118066173D01*
X235227280Y-118066170D01*
X235181223Y-118051452D01*
X235159472Y-118046056D01*
X235137718Y-118040659D01*
X235093581Y-118033193D01*
X235093551Y-118033189D01*
X235045547Y-118028437D01*
X235045538Y-118028436D01*
X235045520Y-118028435D01*
X235045519Y-118028435D01*
X234990390Y-118025789D01*
X234990386Y-118025788D01*
X234990367Y-118025788D01*
X234924973Y-118024645D01*
X234857664Y-118024436D01*
X234849401Y-118020983D01*
X234846000Y-118012736D01*
X234846000Y-117528063D01*
X234849427Y-117519790D01*
X234857662Y-117516363D01*
X234918289Y-117516173D01*
X234924973Y-117516153D01*
X234953682Y-117515651D01*
X234990390Y-117515010D01*
X235045519Y-117512364D01*
X235093557Y-117507609D01*
X235093571Y-117507606D01*
X235093576Y-117507606D01*
X235100409Y-117506449D01*
X235137721Y-117500138D01*
X235181223Y-117489347D01*
X235227280Y-117474628D01*
X235279106Y-117455376D01*
X235339917Y-117430985D01*
X235402151Y-117405296D01*
X235411105Y-117405307D01*
G37*
%TD.AperFunction*%
%TD*%
%TA.AperFunction,Conductor*%
%TO.N,-9V*%
G36*
X219109760Y-141464690D02*
G01*
X219116077Y-141471036D01*
X219116056Y-141479990D01*
X219115975Y-141480181D01*
X219088180Y-141543661D01*
X219087995Y-141544062D01*
X219058516Y-141605012D01*
X219058384Y-141605277D01*
X219031913Y-141656653D01*
X219031909Y-141656660D01*
X219008584Y-141701856D01*
X218988565Y-141744252D01*
X218988560Y-141744263D01*
X218971965Y-141787312D01*
X218971961Y-141787324D01*
X218958876Y-141834545D01*
X218949400Y-141889455D01*
X218943641Y-141955495D01*
X218941975Y-142024781D01*
X218938350Y-142032970D01*
X218930278Y-142036200D01*
X218572122Y-142036200D01*
X218563849Y-142032773D01*
X218560425Y-142024782D01*
X218560425Y-142024781D01*
X218558757Y-141955505D01*
X218552999Y-141889454D01*
X218543524Y-141834556D01*
X218530435Y-141787318D01*
X218513832Y-141744250D01*
X218503022Y-141721356D01*
X218493820Y-141701866D01*
X218470490Y-141656660D01*
X218470486Y-141656653D01*
X218444014Y-141605277D01*
X218443882Y-141605012D01*
X218414403Y-141544062D01*
X218414218Y-141543661D01*
X218386424Y-141480182D01*
X218386245Y-141471229D01*
X218392449Y-141464771D01*
X218392607Y-141464703D01*
X218746700Y-141317075D01*
X218755649Y-141317055D01*
X219109760Y-141464690D01*
G37*
%TD.AperFunction*%
%TD*%
%TA.AperFunction,Conductor*%
%TO.N,BAT_BAL_1*%
G36*
X226368552Y-180008884D02*
G01*
X226370098Y-180010167D01*
X227252759Y-180881072D01*
X227256241Y-180889322D01*
X227252869Y-180897618D01*
X227252759Y-180897728D01*
X226370098Y-181768633D01*
X226361802Y-181772005D01*
X226353552Y-181768523D01*
X226352269Y-181766977D01*
X226288202Y-181674696D01*
X226288200Y-181674693D01*
X226216200Y-181578511D01*
X226144200Y-181489852D01*
X226072200Y-181408717D01*
X226000200Y-181335105D01*
X225928217Y-181269031D01*
X225928211Y-181269026D01*
X225928200Y-181269016D01*
X225856200Y-181210452D01*
X225784200Y-181159411D01*
X225784193Y-181159406D01*
X225784182Y-181159399D01*
X225712206Y-181115896D01*
X225646668Y-181083133D01*
X225640801Y-181076369D01*
X225640200Y-181072668D01*
X225640200Y-180706131D01*
X225643627Y-180697858D01*
X225646665Y-180695667D01*
X225712200Y-180662906D01*
X225784200Y-180619388D01*
X225856200Y-180568347D01*
X225928200Y-180509783D01*
X226000200Y-180443694D01*
X226072200Y-180370082D01*
X226144200Y-180288947D01*
X226216200Y-180200288D01*
X226288200Y-180104106D01*
X226352269Y-180011822D01*
X226359802Y-180006981D01*
X226368552Y-180008884D01*
G37*
%TD.AperFunction*%
%TD*%
%TA.AperFunction,Conductor*%
%TO.N,BAT_BAL_16*%
G36*
X195990205Y-115080036D02*
G01*
X196344995Y-115226036D01*
X196351342Y-115232354D01*
X196351363Y-115232404D01*
X196497341Y-115587139D01*
X196497320Y-115596093D01*
X196490973Y-115602411D01*
X196490781Y-115602488D01*
X196426240Y-115627720D01*
X196425826Y-115627873D01*
X196361890Y-115650124D01*
X196361609Y-115650218D01*
X196306548Y-115667833D01*
X196306541Y-115667835D01*
X196258077Y-115683304D01*
X196213974Y-115699117D01*
X196213946Y-115699128D01*
X196171780Y-115717828D01*
X196129122Y-115741976D01*
X196129118Y-115741978D01*
X196129114Y-115741981D01*
X196083596Y-115774101D01*
X196083589Y-115774106D01*
X196083586Y-115774108D01*
X196032826Y-115816727D01*
X196032814Y-115816737D01*
X195982655Y-115864541D01*
X195974302Y-115867768D01*
X195966310Y-115864344D01*
X195713055Y-115611089D01*
X195709628Y-115602816D01*
X195712857Y-115594746D01*
X195760664Y-115544580D01*
X195803297Y-115493803D01*
X195835417Y-115448284D01*
X195859564Y-115405627D01*
X195878278Y-115363434D01*
X195894098Y-115319307D01*
X195909565Y-115270851D01*
X195927200Y-115215722D01*
X195927240Y-115215604D01*
X195949533Y-115151548D01*
X195949681Y-115151149D01*
X195974912Y-115086616D01*
X195981115Y-115080160D01*
X195990068Y-115079981D01*
X195990205Y-115080036D01*
G37*
%TD.AperFunction*%
%TD*%
%TA.AperFunction,Conductor*%
%TO.N,+3V3_O*%
G36*
X221845271Y-129114707D02*
G01*
X221851579Y-129121009D01*
X221999289Y-129475298D01*
X221999310Y-129484252D01*
X221999289Y-129484302D01*
X221851579Y-129838590D01*
X221845232Y-129844908D01*
X221836316Y-129844903D01*
X221805954Y-129832370D01*
X221774083Y-129819214D01*
X221733916Y-129803103D01*
X221713275Y-129794824D01*
X221661457Y-129775574D01*
X221661455Y-129775573D01*
X221661446Y-129775570D01*
X221615389Y-129760852D01*
X221593638Y-129755456D01*
X221571884Y-129750059D01*
X221527747Y-129742593D01*
X221527717Y-129742589D01*
X221479713Y-129737837D01*
X221479704Y-129737836D01*
X221479686Y-129737835D01*
X221479685Y-129737835D01*
X221424556Y-129735189D01*
X221424552Y-129735188D01*
X221424533Y-129735188D01*
X221359139Y-129734045D01*
X221291830Y-129733836D01*
X221283567Y-129730383D01*
X221280166Y-129722136D01*
X221280166Y-129237463D01*
X221283593Y-129229190D01*
X221291828Y-129225763D01*
X221352455Y-129225573D01*
X221359139Y-129225553D01*
X221387848Y-129225051D01*
X221424556Y-129224410D01*
X221479685Y-129221764D01*
X221527723Y-129217009D01*
X221527737Y-129217006D01*
X221527742Y-129217006D01*
X221534575Y-129215849D01*
X221571887Y-129209538D01*
X221615389Y-129198747D01*
X221661446Y-129184028D01*
X221713272Y-129164776D01*
X221774083Y-129140385D01*
X221836317Y-129114696D01*
X221845271Y-129114707D01*
G37*
%TD.AperFunction*%
%TD*%
%TA.AperFunction,Conductor*%
%TO.N,BAT_BAL_8*%
G36*
X188785604Y-178551920D02*
G01*
X188788314Y-178556162D01*
X188841275Y-178700453D01*
X188897053Y-178843151D01*
X188897064Y-178843177D01*
X188952846Y-178976616D01*
X189005612Y-179094072D01*
X189008633Y-179100797D01*
X189064412Y-179215695D01*
X189120185Y-179321313D01*
X189120191Y-179321324D01*
X189120193Y-179321327D01*
X189175976Y-179417694D01*
X189231758Y-179504793D01*
X189231766Y-179504805D01*
X189287532Y-179582613D01*
X189287540Y-179582624D01*
X189338413Y-179645152D01*
X189340976Y-179653732D01*
X189339657Y-179658048D01*
X188605320Y-181032878D01*
X188598400Y-181038561D01*
X188589488Y-181037686D01*
X188584680Y-181032878D01*
X187850342Y-179658048D01*
X187849467Y-179649136D01*
X187851584Y-179645155D01*
X187902459Y-179582624D01*
X187958241Y-179504793D01*
X188014023Y-179417694D01*
X188069806Y-179321327D01*
X188125588Y-179215691D01*
X188181370Y-179100788D01*
X188237153Y-178976616D01*
X188292935Y-178843177D01*
X188348717Y-178700469D01*
X188401685Y-178556161D01*
X188407752Y-178549576D01*
X188412668Y-178548493D01*
X188777331Y-178548493D01*
X188785604Y-178551920D01*
G37*
%TD.AperFunction*%
%TD*%
%TA.AperFunction,Conductor*%
%TO.N,VBAT*%
G36*
X175618609Y-117460227D02*
G01*
X175622036Y-117468464D01*
X175622245Y-117535773D01*
X175623388Y-117601167D01*
X175626036Y-117656338D01*
X175626037Y-117656347D01*
X175630789Y-117704351D01*
X175630793Y-117704381D01*
X175638259Y-117748518D01*
X175649053Y-117792026D01*
X175663774Y-117838091D01*
X175683024Y-117889909D01*
X175707416Y-117950721D01*
X175733103Y-118012950D01*
X175733092Y-118021905D01*
X175726790Y-118028213D01*
X175372502Y-118175923D01*
X175363548Y-118175944D01*
X175363498Y-118175923D01*
X175009209Y-118028213D01*
X175002891Y-118021866D01*
X175002895Y-118012951D01*
X175028585Y-117950717D01*
X175052976Y-117889906D01*
X175072228Y-117838080D01*
X175086947Y-117792023D01*
X175097738Y-117748521D01*
X175105209Y-117704357D01*
X175109964Y-117656319D01*
X175112610Y-117601190D01*
X175113753Y-117535755D01*
X175113964Y-117468463D01*
X175117417Y-117460201D01*
X175125664Y-117456800D01*
X175610336Y-117456800D01*
X175618609Y-117460227D01*
G37*
%TD.AperFunction*%
%TD*%
%TA.AperFunction,Conductor*%
%TO.N,VBAT*%
G36*
X177701048Y-138339074D02*
G01*
X178765101Y-139403128D01*
X178773527Y-139410508D01*
X178779631Y-139415855D01*
X178779638Y-139415860D01*
X178779642Y-139415864D01*
X178794141Y-139427349D01*
X178794151Y-139427356D01*
X178794161Y-139427364D01*
X178808691Y-139437655D01*
X178823221Y-139446729D01*
X178823226Y-139446732D01*
X178827912Y-139449265D01*
X178837751Y-139454586D01*
X178852280Y-139461224D01*
X178866810Y-139466644D01*
X178881340Y-139470847D01*
X178888110Y-139472237D01*
X178895524Y-139477259D01*
X178897216Y-139486052D01*
X178894028Y-139491971D01*
X178068453Y-140317546D01*
X178060180Y-140320973D01*
X178051907Y-140317546D01*
X178051457Y-140317070D01*
X177305736Y-139480766D01*
X177302789Y-139472311D01*
X177303440Y-139469077D01*
X177339764Y-139366529D01*
X177378398Y-139256139D01*
X177417032Y-139144429D01*
X177417039Y-139144409D01*
X177455673Y-139031380D01*
X177494308Y-138917030D01*
X177532942Y-138801359D01*
X177571575Y-138684369D01*
X177610209Y-138566060D01*
X177648843Y-138446430D01*
X177681630Y-138343787D01*
X177687411Y-138336949D01*
X177696335Y-138336202D01*
X177701048Y-138339074D01*
G37*
%TD.AperFunction*%
%TD*%
%TA.AperFunction,Conductor*%
%TO.N,BAT_BAL_8*%
G36*
X200110958Y-144383889D02*
G01*
X200117276Y-144390236D01*
X200117255Y-144399190D01*
X200117173Y-144399382D01*
X200089367Y-144462861D01*
X200089180Y-144463266D01*
X200059667Y-144524217D01*
X200059545Y-144524463D01*
X200033019Y-144575848D01*
X200009644Y-144621019D01*
X199989564Y-144663408D01*
X199989558Y-144663422D01*
X199972904Y-144706453D01*
X199972903Y-144706456D01*
X199959759Y-144753686D01*
X199959758Y-144753689D01*
X199950239Y-144808582D01*
X199950239Y-144808585D01*
X199944452Y-144874616D01*
X199942776Y-144943903D01*
X199939150Y-144952091D01*
X199931079Y-144955320D01*
X199572923Y-144955320D01*
X199564650Y-144951893D01*
X199561226Y-144943901D01*
X199559568Y-144874649D01*
X199553837Y-144808612D01*
X199544404Y-144753719D01*
X199531365Y-144706482D01*
X199514819Y-144663413D01*
X199514817Y-144663408D01*
X199514815Y-144663403D01*
X199494863Y-144621027D01*
X199471587Y-144575822D01*
X199471585Y-144575818D01*
X199468991Y-144570776D01*
X199445149Y-144524426D01*
X199445045Y-144524217D01*
X199415564Y-144463200D01*
X199415389Y-144462819D01*
X199387622Y-144399380D01*
X199387444Y-144390427D01*
X199393649Y-144383971D01*
X199393746Y-144383929D01*
X199747900Y-144236275D01*
X199756849Y-144236255D01*
X200110958Y-144383889D01*
G37*
%TD.AperFunction*%
%TD*%
%TA.AperFunction,Conductor*%
%TO.N,+9V*%
G36*
X236959609Y-146797227D02*
G01*
X236963036Y-146805464D01*
X236963245Y-146872773D01*
X236964388Y-146938167D01*
X236967036Y-146993338D01*
X236967037Y-146993347D01*
X236971789Y-147041351D01*
X236971793Y-147041381D01*
X236979259Y-147085518D01*
X236990053Y-147129026D01*
X237004774Y-147175091D01*
X237024024Y-147226909D01*
X237048416Y-147287721D01*
X237074103Y-147349950D01*
X237074092Y-147358905D01*
X237067790Y-147365213D01*
X236713502Y-147512923D01*
X236704548Y-147512944D01*
X236704498Y-147512923D01*
X236350209Y-147365213D01*
X236343891Y-147358866D01*
X236343895Y-147349951D01*
X236369585Y-147287717D01*
X236393976Y-147226906D01*
X236413228Y-147175080D01*
X236427947Y-147129023D01*
X236438738Y-147085521D01*
X236446209Y-147041357D01*
X236450964Y-146993319D01*
X236453610Y-146938190D01*
X236454753Y-146872755D01*
X236454964Y-146805463D01*
X236458417Y-146797201D01*
X236466664Y-146793800D01*
X236951336Y-146793800D01*
X236959609Y-146797227D01*
G37*
%TD.AperFunction*%
%TD*%
%TA.AperFunction,Conductor*%
%TO.N,+9V*%
G36*
X235385705Y-129749707D02*
G01*
X235392013Y-129756009D01*
X235539723Y-130110298D01*
X235539744Y-130119252D01*
X235539723Y-130119302D01*
X235392013Y-130473590D01*
X235385666Y-130479908D01*
X235376750Y-130479903D01*
X235346388Y-130467370D01*
X235314517Y-130454214D01*
X235274350Y-130438103D01*
X235253709Y-130429824D01*
X235201891Y-130410574D01*
X235201889Y-130410573D01*
X235201880Y-130410570D01*
X235155823Y-130395852D01*
X235134072Y-130390456D01*
X235112318Y-130385059D01*
X235068181Y-130377593D01*
X235068151Y-130377589D01*
X235020147Y-130372837D01*
X235020138Y-130372836D01*
X235020120Y-130372835D01*
X235020119Y-130372835D01*
X234964990Y-130370189D01*
X234964986Y-130370188D01*
X234964967Y-130370188D01*
X234899573Y-130369045D01*
X234832264Y-130368836D01*
X234824001Y-130365383D01*
X234820600Y-130357136D01*
X234820600Y-129872463D01*
X234824027Y-129864190D01*
X234832262Y-129860763D01*
X234892889Y-129860573D01*
X234899573Y-129860553D01*
X234928282Y-129860051D01*
X234964990Y-129859410D01*
X235020119Y-129856764D01*
X235068157Y-129852009D01*
X235068171Y-129852006D01*
X235068176Y-129852006D01*
X235075009Y-129850849D01*
X235112321Y-129844538D01*
X235155823Y-129833747D01*
X235201880Y-129819028D01*
X235253706Y-129799776D01*
X235314517Y-129775385D01*
X235376751Y-129749696D01*
X235385705Y-129749707D01*
G37*
%TD.AperFunction*%
%TD*%
%TA.AperFunction,Conductor*%
%TO.N,BAT_BAL_4*%
G36*
X204025604Y-178551920D02*
G01*
X204028314Y-178556162D01*
X204081275Y-178700453D01*
X204137053Y-178843151D01*
X204137064Y-178843177D01*
X204192846Y-178976616D01*
X204245612Y-179094072D01*
X204248633Y-179100797D01*
X204304412Y-179215695D01*
X204360185Y-179321313D01*
X204360191Y-179321324D01*
X204360193Y-179321327D01*
X204415976Y-179417694D01*
X204471758Y-179504793D01*
X204471766Y-179504805D01*
X204527532Y-179582613D01*
X204527540Y-179582624D01*
X204578413Y-179645152D01*
X204580976Y-179653732D01*
X204579657Y-179658048D01*
X203845320Y-181032878D01*
X203838400Y-181038561D01*
X203829488Y-181037686D01*
X203824680Y-181032878D01*
X203090342Y-179658048D01*
X203089467Y-179649136D01*
X203091584Y-179645155D01*
X203142459Y-179582624D01*
X203198241Y-179504793D01*
X203254023Y-179417694D01*
X203309806Y-179321327D01*
X203365588Y-179215691D01*
X203421370Y-179100788D01*
X203477153Y-178976616D01*
X203532935Y-178843177D01*
X203588717Y-178700469D01*
X203641685Y-178556161D01*
X203647752Y-178549576D01*
X203652668Y-178548493D01*
X204017331Y-178548493D01*
X204025604Y-178551920D01*
G37*
%TD.AperFunction*%
%TD*%
%TA.AperFunction,Conductor*%
%TO.N,BAT_BAL_2*%
G36*
X200119893Y-119220279D02*
G01*
X200126211Y-119226626D01*
X200126288Y-119226818D01*
X200151520Y-119291357D01*
X200151673Y-119291771D01*
X200173924Y-119355707D01*
X200174018Y-119355988D01*
X200191633Y-119411051D01*
X200207100Y-119459507D01*
X200222921Y-119503634D01*
X200222926Y-119503645D01*
X200241632Y-119545822D01*
X200241638Y-119545835D01*
X200262109Y-119581998D01*
X200265781Y-119588484D01*
X200297901Y-119634003D01*
X200297905Y-119634008D01*
X200297906Y-119634009D01*
X200297908Y-119634012D01*
X200340527Y-119684772D01*
X200340537Y-119684784D01*
X200388341Y-119734944D01*
X200391568Y-119743297D01*
X200388144Y-119751289D01*
X200134889Y-120004544D01*
X200126616Y-120007971D01*
X200118544Y-120004741D01*
X200118337Y-120004544D01*
X200101805Y-119988789D01*
X200068384Y-119956937D01*
X200068372Y-119956927D01*
X200017612Y-119914308D01*
X200017609Y-119914306D01*
X200017608Y-119914305D01*
X200017603Y-119914301D01*
X199972084Y-119882181D01*
X199965598Y-119878509D01*
X199929435Y-119858038D01*
X199929429Y-119858035D01*
X199929427Y-119858034D01*
X199887234Y-119839321D01*
X199843107Y-119823500D01*
X199794656Y-119808034D01*
X199794651Y-119808030D01*
X199794651Y-119808033D01*
X199739588Y-119790418D01*
X199739331Y-119790332D01*
X199712902Y-119781134D01*
X199675371Y-119768073D01*
X199674957Y-119767920D01*
X199610418Y-119742688D01*
X199603960Y-119736484D01*
X199603781Y-119727531D01*
X199603820Y-119727432D01*
X199749837Y-119372602D01*
X199756153Y-119366257D01*
X200110941Y-119220258D01*
X200119893Y-119220279D01*
G37*
%TD.AperFunction*%
%TD*%
%TA.AperFunction,Conductor*%
%TO.N,BAT_BAL_16*%
G36*
X155538314Y-178534627D02*
G01*
X155540250Y-178537184D01*
X155600528Y-178644845D01*
X155651321Y-178729474D01*
X155664155Y-178750857D01*
X155727783Y-178849246D01*
X155727797Y-178849267D01*
X155791404Y-178940002D01*
X155855020Y-179023122D01*
X155855036Y-179023142D01*
X155855038Y-179023144D01*
X155918666Y-179098652D01*
X155918681Y-179098668D01*
X155982284Y-179166526D01*
X155982289Y-179166531D01*
X155982293Y-179166535D01*
X156045921Y-179226791D01*
X156109549Y-179279420D01*
X156109555Y-179279424D01*
X156109556Y-179279425D01*
X156165118Y-179318723D01*
X156169894Y-179326298D01*
X156168916Y-179333325D01*
X155356954Y-181030144D01*
X155350292Y-181036128D01*
X155341350Y-181035648D01*
X155335846Y-181030144D01*
X154523883Y-179333325D01*
X154523403Y-179324383D01*
X154527679Y-179318724D01*
X154583250Y-179279420D01*
X154646878Y-179226791D01*
X154710506Y-179166535D01*
X154774133Y-179098652D01*
X154837761Y-179023144D01*
X154901389Y-178940008D01*
X154901394Y-178940002D01*
X154965001Y-178849267D01*
X154965016Y-178849246D01*
X155028644Y-178750857D01*
X155092272Y-178644842D01*
X155152550Y-178537184D01*
X155159582Y-178531640D01*
X155162759Y-178531200D01*
X155530041Y-178531200D01*
X155538314Y-178534627D01*
G37*
%TD.AperFunction*%
%TD*%
%TA.AperFunction,Conductor*%
%TO.N,BAT_BAL_12*%
G36*
X195990205Y-131654436D02*
G01*
X196344995Y-131800436D01*
X196351342Y-131806754D01*
X196351363Y-131806804D01*
X196497341Y-132161539D01*
X196497320Y-132170493D01*
X196490973Y-132176811D01*
X196490781Y-132176888D01*
X196426240Y-132202120D01*
X196425826Y-132202273D01*
X196361890Y-132224524D01*
X196361609Y-132224618D01*
X196306548Y-132242233D01*
X196306541Y-132242235D01*
X196258077Y-132257704D01*
X196213974Y-132273517D01*
X196213946Y-132273528D01*
X196171780Y-132292228D01*
X196129122Y-132316376D01*
X196129118Y-132316378D01*
X196129114Y-132316381D01*
X196083596Y-132348501D01*
X196083589Y-132348506D01*
X196083586Y-132348508D01*
X196032826Y-132391127D01*
X196032814Y-132391137D01*
X195982655Y-132438941D01*
X195974302Y-132442168D01*
X195966310Y-132438744D01*
X195713055Y-132185489D01*
X195709628Y-132177216D01*
X195712857Y-132169146D01*
X195760664Y-132118980D01*
X195803297Y-132068203D01*
X195835417Y-132022684D01*
X195859564Y-131980027D01*
X195878278Y-131937834D01*
X195894098Y-131893707D01*
X195909565Y-131845251D01*
X195927200Y-131790122D01*
X195927240Y-131790004D01*
X195949533Y-131725948D01*
X195949681Y-131725549D01*
X195974912Y-131661016D01*
X195981115Y-131654560D01*
X195990068Y-131654381D01*
X195990205Y-131654436D01*
G37*
%TD.AperFunction*%
%TD*%
%TA.AperFunction,Conductor*%
%TO.N,-9V*%
G36*
X218889591Y-125922943D02*
G01*
X218889751Y-125923011D01*
X218953261Y-125950818D01*
X218953655Y-125950999D01*
X219014636Y-125980494D01*
X219014856Y-125980603D01*
X219066260Y-126007090D01*
X219066259Y-126007091D01*
X219066264Y-126007092D01*
X219093089Y-126020936D01*
X219111466Y-126030420D01*
X219130956Y-126039622D01*
X219153850Y-126050432D01*
X219196918Y-126067035D01*
X219244156Y-126080124D01*
X219299054Y-126089599D01*
X219365105Y-126095357D01*
X219434384Y-126097025D01*
X219442570Y-126100649D01*
X219445800Y-126108721D01*
X219445800Y-126466877D01*
X219442373Y-126475150D01*
X219434382Y-126478574D01*
X219365094Y-126480241D01*
X219304558Y-126485520D01*
X219299054Y-126486000D01*
X219244156Y-126495474D01*
X219244155Y-126495474D01*
X219244145Y-126495476D01*
X219196924Y-126508561D01*
X219196912Y-126508565D01*
X219153863Y-126525160D01*
X219153852Y-126525165D01*
X219111456Y-126545184D01*
X219066267Y-126568505D01*
X219066260Y-126568509D01*
X219014877Y-126594984D01*
X219014612Y-126595116D01*
X218953662Y-126624595D01*
X218953261Y-126624780D01*
X218889781Y-126652575D01*
X218880828Y-126652754D01*
X218874370Y-126646550D01*
X218874337Y-126646473D01*
X218726675Y-126292299D01*
X218726655Y-126283350D01*
X218874290Y-125929239D01*
X218880637Y-125922922D01*
X218889591Y-125922943D01*
G37*
%TD.AperFunction*%
%TD*%
%TA.AperFunction,Conductor*%
%TO.N,BAT_BAL_3*%
G36*
X200043321Y-123234623D02*
G01*
X200043490Y-123234797D01*
X200100534Y-123294560D01*
X200100955Y-123295024D01*
X200151378Y-123353855D01*
X200151804Y-123354382D01*
X200191253Y-123406206D01*
X200191610Y-123406703D01*
X200223810Y-123453937D01*
X200223983Y-123454200D01*
X200252729Y-123499413D01*
X200281544Y-123544736D01*
X200314029Y-123592391D01*
X200353853Y-123644706D01*
X200404700Y-123704032D01*
X200404710Y-123704043D01*
X200462323Y-123764401D01*
X200465557Y-123772751D01*
X200462133Y-123780752D01*
X200208556Y-124034329D01*
X200200283Y-124037756D01*
X200192569Y-124034853D01*
X200138191Y-123987169D01*
X200138186Y-123987165D01*
X200099121Y-123962957D01*
X200081271Y-123951896D01*
X200028122Y-123932112D01*
X199976809Y-123923663D01*
X199976796Y-123923662D01*
X199925432Y-123922397D01*
X199925418Y-123922398D01*
X199925410Y-123922398D01*
X199925401Y-123922398D01*
X199903199Y-123923133D01*
X199872064Y-123924163D01*
X199871810Y-123924168D01*
X199815070Y-123924812D01*
X199814085Y-123924782D01*
X199751999Y-123920251D01*
X199750585Y-123920060D01*
X199680958Y-123906313D01*
X199679443Y-123905907D01*
X199611100Y-123882571D01*
X199604378Y-123876655D01*
X199603809Y-123867718D01*
X199604061Y-123867047D01*
X199639573Y-123780752D01*
X199750796Y-123510470D01*
X199753364Y-123506630D01*
X200026778Y-123234579D01*
X200035056Y-123231175D01*
X200043321Y-123234623D01*
G37*
%TD.AperFunction*%
%TD*%
%TA.AperFunction,Conductor*%
%TO.N,BAT_BAL_6*%
G36*
X200119893Y-135806479D02*
G01*
X200126211Y-135812826D01*
X200126288Y-135813018D01*
X200151520Y-135877557D01*
X200151673Y-135877971D01*
X200173924Y-135941907D01*
X200174018Y-135942188D01*
X200191633Y-135997251D01*
X200207100Y-136045707D01*
X200222921Y-136089834D01*
X200222926Y-136089845D01*
X200241632Y-136132022D01*
X200241638Y-136132035D01*
X200262109Y-136168198D01*
X200265781Y-136174684D01*
X200297901Y-136220203D01*
X200297905Y-136220208D01*
X200297906Y-136220209D01*
X200297908Y-136220212D01*
X200340527Y-136270972D01*
X200340537Y-136270984D01*
X200388341Y-136321144D01*
X200391568Y-136329497D01*
X200388144Y-136337489D01*
X200134889Y-136590744D01*
X200126616Y-136594171D01*
X200118544Y-136590941D01*
X200118337Y-136590744D01*
X200101805Y-136574989D01*
X200068384Y-136543137D01*
X200068372Y-136543127D01*
X200017612Y-136500508D01*
X200017609Y-136500506D01*
X200017608Y-136500505D01*
X200017603Y-136500501D01*
X199972084Y-136468381D01*
X199965598Y-136464709D01*
X199929435Y-136444238D01*
X199929429Y-136444235D01*
X199929427Y-136444234D01*
X199887234Y-136425521D01*
X199843107Y-136409700D01*
X199794656Y-136394234D01*
X199794651Y-136394230D01*
X199794651Y-136394233D01*
X199739588Y-136376618D01*
X199739331Y-136376532D01*
X199712902Y-136367334D01*
X199675371Y-136354273D01*
X199674957Y-136354120D01*
X199610418Y-136328888D01*
X199603960Y-136322684D01*
X199603781Y-136313731D01*
X199603820Y-136313632D01*
X199749837Y-135958802D01*
X199756153Y-135952457D01*
X200110941Y-135806458D01*
X200119893Y-135806479D01*
G37*
%TD.AperFunction*%
%TD*%
%TA.AperFunction,Conductor*%
%TO.N,BAT_BAL_11*%
G36*
X174587004Y-178551920D02*
G01*
X174589714Y-178556162D01*
X174642675Y-178700453D01*
X174698453Y-178843151D01*
X174698464Y-178843177D01*
X174754246Y-178976616D01*
X174807012Y-179094072D01*
X174810033Y-179100797D01*
X174865812Y-179215695D01*
X174921585Y-179321313D01*
X174921591Y-179321324D01*
X174921593Y-179321327D01*
X174977376Y-179417694D01*
X175033158Y-179504793D01*
X175033166Y-179504805D01*
X175088932Y-179582613D01*
X175088940Y-179582624D01*
X175139813Y-179645152D01*
X175142376Y-179653732D01*
X175141057Y-179658048D01*
X174406720Y-181032878D01*
X174399800Y-181038561D01*
X174390888Y-181037686D01*
X174386080Y-181032878D01*
X173651742Y-179658048D01*
X173650867Y-179649136D01*
X173652984Y-179645155D01*
X173703859Y-179582624D01*
X173759641Y-179504793D01*
X173815423Y-179417694D01*
X173871206Y-179321327D01*
X173926988Y-179215691D01*
X173982770Y-179100788D01*
X174038553Y-178976616D01*
X174094335Y-178843177D01*
X174150117Y-178700469D01*
X174203085Y-178556161D01*
X174209152Y-178549576D01*
X174214068Y-178548493D01*
X174578731Y-178548493D01*
X174587004Y-178551920D01*
G37*
%TD.AperFunction*%
%TD*%
%TA.AperFunction,Conductor*%
%TO.N,+3V3_O*%
G36*
X221903990Y-108368586D02*
G01*
X221910308Y-108374933D01*
X221910303Y-108383849D01*
X221884616Y-108446077D01*
X221860224Y-108506889D01*
X221840974Y-108558707D01*
X221826253Y-108604771D01*
X221815459Y-108648280D01*
X221807993Y-108692416D01*
X221807989Y-108692446D01*
X221803237Y-108740451D01*
X221803236Y-108740460D01*
X221800588Y-108795631D01*
X221799445Y-108861025D01*
X221799236Y-108928336D01*
X221795783Y-108936599D01*
X221787536Y-108940000D01*
X221302864Y-108940000D01*
X221294591Y-108936573D01*
X221291164Y-108928337D01*
X221290953Y-108861025D01*
X221289810Y-108795631D01*
X221289810Y-108795609D01*
X221287164Y-108740480D01*
X221282409Y-108692441D01*
X221274938Y-108648278D01*
X221264147Y-108604775D01*
X221249428Y-108558719D01*
X221230176Y-108506893D01*
X221205785Y-108446082D01*
X221180096Y-108383848D01*
X221180107Y-108374894D01*
X221186408Y-108368586D01*
X221540700Y-108220875D01*
X221549649Y-108220855D01*
X221903990Y-108368586D01*
G37*
%TD.AperFunction*%
%TD*%
%TA.AperFunction,Conductor*%
%TO.N,+3V3_O*%
G36*
X239158848Y-134042295D02*
G01*
X239221082Y-134067985D01*
X239281893Y-134092376D01*
X239333719Y-134111628D01*
X239379775Y-134126347D01*
X239423278Y-134137138D01*
X239455187Y-134142536D01*
X239467421Y-134144606D01*
X239467428Y-134144606D01*
X239467441Y-134144609D01*
X239515480Y-134149364D01*
X239570609Y-134152010D01*
X239605720Y-134152623D01*
X239636025Y-134153153D01*
X239643035Y-134153174D01*
X239703337Y-134153363D01*
X239711599Y-134156816D01*
X239715000Y-134165063D01*
X239715000Y-134649736D01*
X239711573Y-134658009D01*
X239703336Y-134661436D01*
X239636025Y-134661645D01*
X239570631Y-134662788D01*
X239570610Y-134662788D01*
X239570609Y-134662789D01*
X239515480Y-134665435D01*
X239515479Y-134665435D01*
X239515460Y-134665436D01*
X239515451Y-134665437D01*
X239467446Y-134670189D01*
X239467416Y-134670193D01*
X239423280Y-134677659D01*
X239379771Y-134688453D01*
X239350865Y-134697690D01*
X239333719Y-134703170D01*
X239333715Y-134703171D01*
X239333707Y-134703174D01*
X239281889Y-134722424D01*
X239221077Y-134746816D01*
X239158849Y-134772503D01*
X239149894Y-134772492D01*
X239143586Y-134766190D01*
X239125339Y-134722423D01*
X238995875Y-134411899D01*
X238995855Y-134402950D01*
X239143586Y-134048608D01*
X239149933Y-134042291D01*
X239158848Y-134042295D01*
G37*
%TD.AperFunction*%
%TD*%
%TA.AperFunction,Conductor*%
%TO.N,BAT_BAL_9*%
G36*
X196707360Y-144448290D02*
G01*
X196713677Y-144454636D01*
X196713656Y-144463590D01*
X196713575Y-144463781D01*
X196685780Y-144527261D01*
X196685595Y-144527662D01*
X196656116Y-144588612D01*
X196655984Y-144588877D01*
X196629513Y-144640253D01*
X196629509Y-144640260D01*
X196606184Y-144685456D01*
X196586165Y-144727852D01*
X196586160Y-144727863D01*
X196569565Y-144770912D01*
X196569561Y-144770924D01*
X196556476Y-144818145D01*
X196547000Y-144873055D01*
X196541241Y-144939095D01*
X196539575Y-145008381D01*
X196535950Y-145016570D01*
X196527878Y-145019800D01*
X196169722Y-145019800D01*
X196161449Y-145016373D01*
X196158025Y-145008382D01*
X196158025Y-145008381D01*
X196156357Y-144939105D01*
X196150599Y-144873054D01*
X196141124Y-144818156D01*
X196128035Y-144770918D01*
X196111432Y-144727850D01*
X196100622Y-144704956D01*
X196091420Y-144685466D01*
X196068090Y-144640260D01*
X196068086Y-144640253D01*
X196041614Y-144588877D01*
X196041482Y-144588612D01*
X196012003Y-144527662D01*
X196011818Y-144527261D01*
X195984024Y-144463782D01*
X195983845Y-144454829D01*
X195990049Y-144448371D01*
X195990207Y-144448303D01*
X196344300Y-144300675D01*
X196353249Y-144300655D01*
X196707360Y-144448290D01*
G37*
%TD.AperFunction*%
%TD*%
%TA.AperFunction,Conductor*%
%TO.N,-9V*%
G36*
X238192428Y-113804849D02*
G01*
X238192509Y-113805040D01*
X238340123Y-114159098D01*
X238340144Y-114168052D01*
X238340123Y-114168102D01*
X238192509Y-114522159D01*
X238186162Y-114528477D01*
X238177208Y-114528456D01*
X238177017Y-114528375D01*
X238113537Y-114500580D01*
X238113136Y-114500395D01*
X238052186Y-114470916D01*
X238051921Y-114470784D01*
X238000538Y-114444309D01*
X238000538Y-114444307D01*
X238000530Y-114444305D01*
X237955341Y-114420984D01*
X237955337Y-114420982D01*
X237912948Y-114400966D01*
X237912942Y-114400963D01*
X237912934Y-114400960D01*
X237869885Y-114384365D01*
X237869873Y-114384361D01*
X237822653Y-114371276D01*
X237822645Y-114371274D01*
X237822643Y-114371274D01*
X237767744Y-114361800D01*
X237754533Y-114360648D01*
X237701701Y-114356041D01*
X237701704Y-114356041D01*
X237632418Y-114354374D01*
X237624230Y-114350749D01*
X237621000Y-114342677D01*
X237621000Y-113984521D01*
X237624427Y-113976248D01*
X237632415Y-113972825D01*
X237701693Y-113971157D01*
X237767744Y-113965399D01*
X237822643Y-113955924D01*
X237841747Y-113950630D01*
X237869874Y-113942837D01*
X237869875Y-113942836D01*
X237869880Y-113942835D01*
X237912948Y-113926232D01*
X237955337Y-113906217D01*
X238000532Y-113882892D01*
X238000539Y-113882892D01*
X238000538Y-113882890D01*
X238051971Y-113856388D01*
X238052128Y-113856310D01*
X238113164Y-113826789D01*
X238113510Y-113826630D01*
X238177018Y-113798823D01*
X238185970Y-113798645D01*
X238192428Y-113804849D01*
G37*
%TD.AperFunction*%
%TD*%
%TA.AperFunction,Conductor*%
%TO.N,+3V3_O*%
G36*
X212779705Y-125939707D02*
G01*
X212786013Y-125946009D01*
X212933723Y-126300298D01*
X212933744Y-126309252D01*
X212933723Y-126309302D01*
X212786013Y-126663590D01*
X212779666Y-126669908D01*
X212770750Y-126669903D01*
X212740388Y-126657370D01*
X212708517Y-126644214D01*
X212668350Y-126628103D01*
X212647709Y-126619824D01*
X212595891Y-126600574D01*
X212595889Y-126600573D01*
X212595880Y-126600570D01*
X212549823Y-126585852D01*
X212528072Y-126580456D01*
X212506318Y-126575059D01*
X212462181Y-126567593D01*
X212462151Y-126567589D01*
X212414147Y-126562837D01*
X212414138Y-126562836D01*
X212414120Y-126562835D01*
X212414119Y-126562835D01*
X212358990Y-126560189D01*
X212358986Y-126560188D01*
X212358967Y-126560188D01*
X212293573Y-126559045D01*
X212226264Y-126558836D01*
X212218001Y-126555383D01*
X212214600Y-126547136D01*
X212214600Y-126062463D01*
X212218027Y-126054190D01*
X212226262Y-126050763D01*
X212286889Y-126050573D01*
X212293573Y-126050553D01*
X212322282Y-126050051D01*
X212358990Y-126049410D01*
X212414119Y-126046764D01*
X212462157Y-126042009D01*
X212462171Y-126042006D01*
X212462176Y-126042006D01*
X212469009Y-126040849D01*
X212506321Y-126034538D01*
X212549823Y-126023747D01*
X212595880Y-126009028D01*
X212647706Y-125989776D01*
X212708517Y-125965385D01*
X212770751Y-125939696D01*
X212779705Y-125939707D01*
G37*
%TD.AperFunction*%
%TD*%
%TA.AperFunction,Conductor*%
%TO.N,BAT_BAL_12*%
G36*
X170777004Y-178551920D02*
G01*
X170779714Y-178556162D01*
X170832675Y-178700453D01*
X170888453Y-178843151D01*
X170888464Y-178843177D01*
X170944246Y-178976616D01*
X170997012Y-179094072D01*
X171000033Y-179100797D01*
X171055812Y-179215695D01*
X171111585Y-179321313D01*
X171111591Y-179321324D01*
X171111593Y-179321327D01*
X171167376Y-179417694D01*
X171223158Y-179504793D01*
X171223166Y-179504805D01*
X171278932Y-179582613D01*
X171278940Y-179582624D01*
X171329813Y-179645152D01*
X171332376Y-179653732D01*
X171331057Y-179658048D01*
X170596720Y-181032878D01*
X170589800Y-181038561D01*
X170580888Y-181037686D01*
X170576080Y-181032878D01*
X169841742Y-179658048D01*
X169840867Y-179649136D01*
X169842984Y-179645155D01*
X169893859Y-179582624D01*
X169949641Y-179504793D01*
X170005423Y-179417694D01*
X170061206Y-179321327D01*
X170116988Y-179215691D01*
X170172770Y-179100788D01*
X170228553Y-178976616D01*
X170284335Y-178843177D01*
X170340117Y-178700469D01*
X170393085Y-178556161D01*
X170399152Y-178549576D01*
X170404068Y-178548493D01*
X170768731Y-178548493D01*
X170777004Y-178551920D01*
G37*
%TD.AperFunction*%
%TD*%
%TA.AperFunction,Conductor*%
%TO.N,-9V*%
G36*
X228567591Y-139249543D02*
G01*
X228567751Y-139249611D01*
X228631261Y-139277418D01*
X228631655Y-139277599D01*
X228692636Y-139307094D01*
X228692856Y-139307203D01*
X228744260Y-139333690D01*
X228744259Y-139333691D01*
X228744264Y-139333692D01*
X228771089Y-139347536D01*
X228789466Y-139357020D01*
X228808956Y-139366222D01*
X228831850Y-139377032D01*
X228874918Y-139393635D01*
X228922156Y-139406724D01*
X228977054Y-139416199D01*
X229043105Y-139421957D01*
X229112384Y-139423625D01*
X229120570Y-139427249D01*
X229123800Y-139435321D01*
X229123800Y-139793477D01*
X229120373Y-139801750D01*
X229112382Y-139805174D01*
X229043094Y-139806841D01*
X228982558Y-139812120D01*
X228977054Y-139812600D01*
X228922156Y-139822074D01*
X228922155Y-139822074D01*
X228922145Y-139822076D01*
X228874924Y-139835161D01*
X228874912Y-139835165D01*
X228831863Y-139851760D01*
X228831852Y-139851765D01*
X228789456Y-139871784D01*
X228744267Y-139895105D01*
X228744260Y-139895109D01*
X228692877Y-139921584D01*
X228692612Y-139921716D01*
X228631662Y-139951195D01*
X228631261Y-139951380D01*
X228567781Y-139979175D01*
X228558828Y-139979354D01*
X228552370Y-139973150D01*
X228552337Y-139973073D01*
X228404675Y-139618899D01*
X228404655Y-139609950D01*
X228552290Y-139255839D01*
X228558637Y-139249522D01*
X228567591Y-139249543D01*
G37*
%TD.AperFunction*%
%TD*%
%TA.AperFunction,Conductor*%
%TO.N,+3V3_O*%
G36*
X223549305Y-118776907D02*
G01*
X223555613Y-118783209D01*
X223703323Y-119137498D01*
X223703344Y-119146452D01*
X223703323Y-119146502D01*
X223555613Y-119500790D01*
X223549266Y-119507108D01*
X223540350Y-119507103D01*
X223509988Y-119494570D01*
X223478117Y-119481414D01*
X223437950Y-119465303D01*
X223417309Y-119457024D01*
X223365491Y-119437774D01*
X223365489Y-119437773D01*
X223365480Y-119437770D01*
X223319423Y-119423052D01*
X223297672Y-119417656D01*
X223275918Y-119412259D01*
X223231781Y-119404793D01*
X223231751Y-119404789D01*
X223183747Y-119400037D01*
X223183738Y-119400036D01*
X223183720Y-119400035D01*
X223183719Y-119400035D01*
X223128590Y-119397389D01*
X223128586Y-119397388D01*
X223128567Y-119397388D01*
X223063173Y-119396245D01*
X222995864Y-119396036D01*
X222987601Y-119392583D01*
X222984200Y-119384336D01*
X222984200Y-118899663D01*
X222987627Y-118891390D01*
X222995862Y-118887963D01*
X223056489Y-118887773D01*
X223063173Y-118887753D01*
X223091882Y-118887251D01*
X223128590Y-118886610D01*
X223183719Y-118883964D01*
X223231757Y-118879209D01*
X223231771Y-118879206D01*
X223231776Y-118879206D01*
X223238609Y-118878049D01*
X223275921Y-118871738D01*
X223319423Y-118860947D01*
X223365480Y-118846228D01*
X223417306Y-118826976D01*
X223478117Y-118802585D01*
X223540351Y-118776896D01*
X223549305Y-118776907D01*
G37*
%TD.AperFunction*%
%TD*%
%TA.AperFunction,Conductor*%
%TO.N,-9V*%
G36*
X238363828Y-110223449D02*
G01*
X238363909Y-110223640D01*
X238511523Y-110577698D01*
X238511544Y-110586652D01*
X238511523Y-110586702D01*
X238363909Y-110940759D01*
X238357562Y-110947077D01*
X238348608Y-110947056D01*
X238348417Y-110946975D01*
X238284937Y-110919180D01*
X238284536Y-110918995D01*
X238223586Y-110889516D01*
X238223321Y-110889384D01*
X238171938Y-110862909D01*
X238171938Y-110862907D01*
X238171930Y-110862905D01*
X238126741Y-110839584D01*
X238126737Y-110839582D01*
X238084348Y-110819566D01*
X238084342Y-110819563D01*
X238084334Y-110819560D01*
X238041285Y-110802965D01*
X238041273Y-110802961D01*
X237994053Y-110789876D01*
X237994045Y-110789874D01*
X237994043Y-110789874D01*
X237939144Y-110780400D01*
X237925933Y-110779248D01*
X237873101Y-110774641D01*
X237873104Y-110774641D01*
X237803818Y-110772974D01*
X237795630Y-110769349D01*
X237792400Y-110761277D01*
X237792400Y-110403121D01*
X237795827Y-110394848D01*
X237803815Y-110391425D01*
X237873093Y-110389757D01*
X237939144Y-110383999D01*
X237994043Y-110374524D01*
X238013147Y-110369230D01*
X238041274Y-110361437D01*
X238041275Y-110361436D01*
X238041280Y-110361435D01*
X238084348Y-110344832D01*
X238126737Y-110324817D01*
X238171932Y-110301492D01*
X238171939Y-110301492D01*
X238171938Y-110301490D01*
X238223371Y-110274988D01*
X238223528Y-110274910D01*
X238284564Y-110245389D01*
X238284910Y-110245230D01*
X238348418Y-110217423D01*
X238357370Y-110217245D01*
X238363828Y-110223449D01*
G37*
%TD.AperFunction*%
%TD*%
%TA.AperFunction,Conductor*%
%TO.N,BAT_BAL_14*%
G36*
X163112811Y-178551920D02*
G01*
X163115421Y-178555898D01*
X163147429Y-178637045D01*
X163172188Y-178699814D01*
X163172722Y-178701166D01*
X163232944Y-178844417D01*
X163232953Y-178844438D01*
X163232956Y-178844444D01*
X163293156Y-178978224D01*
X163353398Y-179102667D01*
X163413606Y-179217621D01*
X163473832Y-179323186D01*
X163532080Y-179416168D01*
X163534056Y-179419322D01*
X163577733Y-179482211D01*
X163594277Y-179506032D01*
X163594297Y-179506058D01*
X163654491Y-179583310D01*
X163654500Y-179583321D01*
X163709316Y-179645094D01*
X163712244Y-179653557D01*
X163710885Y-179658372D01*
X162976720Y-181032878D01*
X162969800Y-181038561D01*
X162960888Y-181037686D01*
X162956080Y-181032878D01*
X162593603Y-180354248D01*
X162221565Y-179657718D01*
X162220691Y-179648808D01*
X162222487Y-179645240D01*
X162269419Y-179581969D01*
X162320761Y-179503629D01*
X162372103Y-179416167D01*
X162423446Y-179319581D01*
X162474788Y-179213873D01*
X162526130Y-179099043D01*
X162576166Y-178978244D01*
X162577464Y-178975111D01*
X162577465Y-178975107D01*
X162577473Y-178975089D01*
X162628815Y-178842013D01*
X162680157Y-178699814D01*
X162728806Y-178556434D01*
X162734710Y-178549700D01*
X162739886Y-178548493D01*
X163104538Y-178548493D01*
X163112811Y-178551920D01*
G37*
%TD.AperFunction*%
%TD*%
%TA.AperFunction,Conductor*%
%TO.N,BAT_BAL_13*%
G36*
X195990205Y-127475236D02*
G01*
X196344995Y-127621236D01*
X196351342Y-127627554D01*
X196351363Y-127627604D01*
X196497341Y-127982339D01*
X196497320Y-127991293D01*
X196490973Y-127997611D01*
X196490781Y-127997688D01*
X196426240Y-128022920D01*
X196425826Y-128023073D01*
X196361890Y-128045324D01*
X196361609Y-128045418D01*
X196306548Y-128063033D01*
X196306541Y-128063035D01*
X196258077Y-128078504D01*
X196213974Y-128094317D01*
X196213946Y-128094328D01*
X196171780Y-128113028D01*
X196129122Y-128137176D01*
X196129118Y-128137178D01*
X196129114Y-128137181D01*
X196083596Y-128169301D01*
X196083589Y-128169306D01*
X196083586Y-128169308D01*
X196032826Y-128211927D01*
X196032814Y-128211937D01*
X195982655Y-128259741D01*
X195974302Y-128262968D01*
X195966310Y-128259544D01*
X195713055Y-128006289D01*
X195709628Y-127998016D01*
X195712857Y-127989946D01*
X195760664Y-127939780D01*
X195803297Y-127889003D01*
X195835417Y-127843484D01*
X195859564Y-127800827D01*
X195878278Y-127758634D01*
X195894098Y-127714507D01*
X195909565Y-127666051D01*
X195927200Y-127610922D01*
X195927240Y-127610804D01*
X195949533Y-127546748D01*
X195949681Y-127546349D01*
X195974912Y-127481816D01*
X195981115Y-127475360D01*
X195990068Y-127475181D01*
X195990205Y-127475236D01*
G37*
%TD.AperFunction*%
%TD*%
%TA.AperFunction,Conductor*%
%TO.N,BAT_BAL_4*%
G36*
X200119893Y-127526079D02*
G01*
X200126211Y-127532426D01*
X200126288Y-127532618D01*
X200151520Y-127597157D01*
X200151673Y-127597571D01*
X200173924Y-127661507D01*
X200174018Y-127661788D01*
X200191633Y-127716851D01*
X200207100Y-127765307D01*
X200222921Y-127809434D01*
X200222926Y-127809445D01*
X200241632Y-127851622D01*
X200241638Y-127851635D01*
X200262109Y-127887798D01*
X200265781Y-127894284D01*
X200297901Y-127939803D01*
X200297905Y-127939808D01*
X200297906Y-127939809D01*
X200297908Y-127939812D01*
X200340527Y-127990572D01*
X200340537Y-127990584D01*
X200388341Y-128040744D01*
X200391568Y-128049097D01*
X200388144Y-128057089D01*
X200134889Y-128310344D01*
X200126616Y-128313771D01*
X200118544Y-128310541D01*
X200118337Y-128310344D01*
X200101805Y-128294589D01*
X200068384Y-128262737D01*
X200068372Y-128262727D01*
X200017612Y-128220108D01*
X200017609Y-128220106D01*
X200017608Y-128220105D01*
X200017603Y-128220101D01*
X199972084Y-128187981D01*
X199965598Y-128184309D01*
X199929435Y-128163838D01*
X199929429Y-128163835D01*
X199929427Y-128163834D01*
X199887234Y-128145121D01*
X199843107Y-128129300D01*
X199794656Y-128113834D01*
X199794651Y-128113830D01*
X199794651Y-128113833D01*
X199739588Y-128096218D01*
X199739331Y-128096132D01*
X199712902Y-128086934D01*
X199675371Y-128073873D01*
X199674957Y-128073720D01*
X199610418Y-128048488D01*
X199603960Y-128042284D01*
X199603781Y-128033331D01*
X199603820Y-128033232D01*
X199749837Y-127678402D01*
X199756153Y-127672057D01*
X200110941Y-127526058D01*
X200119893Y-127526079D01*
G37*
%TD.AperFunction*%
%TD*%
%TA.AperFunction,Conductor*%
%TO.N,+3V3_O*%
G36*
X224871105Y-117391707D02*
G01*
X224877413Y-117398009D01*
X225025123Y-117752298D01*
X225025144Y-117761252D01*
X225025123Y-117761302D01*
X224877413Y-118115590D01*
X224871066Y-118121908D01*
X224862150Y-118121903D01*
X224831788Y-118109370D01*
X224799917Y-118096214D01*
X224759750Y-118080103D01*
X224739109Y-118071824D01*
X224687291Y-118052574D01*
X224687289Y-118052573D01*
X224687280Y-118052570D01*
X224641223Y-118037852D01*
X224619472Y-118032456D01*
X224597718Y-118027059D01*
X224553581Y-118019593D01*
X224553551Y-118019589D01*
X224505547Y-118014837D01*
X224505538Y-118014836D01*
X224505520Y-118014835D01*
X224505519Y-118014835D01*
X224450390Y-118012189D01*
X224450386Y-118012188D01*
X224450367Y-118012188D01*
X224384973Y-118011045D01*
X224317664Y-118010836D01*
X224309401Y-118007383D01*
X224306000Y-117999136D01*
X224306000Y-117514463D01*
X224309427Y-117506190D01*
X224317662Y-117502763D01*
X224378289Y-117502573D01*
X224384973Y-117502553D01*
X224413682Y-117502051D01*
X224450390Y-117501410D01*
X224505519Y-117498764D01*
X224553557Y-117494009D01*
X224553571Y-117494006D01*
X224553576Y-117494006D01*
X224560409Y-117492849D01*
X224597721Y-117486538D01*
X224641223Y-117475747D01*
X224687280Y-117461028D01*
X224739106Y-117441776D01*
X224799917Y-117417385D01*
X224862151Y-117391696D01*
X224871105Y-117391707D01*
G37*
%TD.AperFunction*%
%TD*%
%TA.AperFunction,Conductor*%
%TO.N,BAT_BAL_9*%
G36*
X184976914Y-178534627D02*
G01*
X184978850Y-178537184D01*
X185039128Y-178644845D01*
X185089921Y-178729474D01*
X185102755Y-178750857D01*
X185166383Y-178849246D01*
X185166397Y-178849267D01*
X185230004Y-178940002D01*
X185293620Y-179023122D01*
X185293636Y-179023142D01*
X185293638Y-179023144D01*
X185357266Y-179098652D01*
X185357281Y-179098668D01*
X185420884Y-179166526D01*
X185420889Y-179166531D01*
X185420893Y-179166535D01*
X185484521Y-179226791D01*
X185548149Y-179279420D01*
X185548155Y-179279424D01*
X185548156Y-179279425D01*
X185603718Y-179318723D01*
X185608494Y-179326298D01*
X185607516Y-179333325D01*
X184795554Y-181030144D01*
X184788892Y-181036128D01*
X184779950Y-181035648D01*
X184774446Y-181030144D01*
X183962483Y-179333325D01*
X183962003Y-179324383D01*
X183966279Y-179318724D01*
X184021850Y-179279420D01*
X184085478Y-179226791D01*
X184149106Y-179166535D01*
X184212733Y-179098652D01*
X184276361Y-179023144D01*
X184339989Y-178940008D01*
X184339994Y-178940002D01*
X184403601Y-178849267D01*
X184403616Y-178849246D01*
X184467244Y-178750857D01*
X184530872Y-178644842D01*
X184591150Y-178537184D01*
X184598182Y-178531640D01*
X184601359Y-178531200D01*
X184968641Y-178531200D01*
X184976914Y-178534627D01*
G37*
%TD.AperFunction*%
%TD*%
%TA.AperFunction,Conductor*%
%TO.N,VBAT*%
G36*
X166648361Y-96403313D02*
G01*
X166660365Y-96413565D01*
X167234799Y-96987999D01*
X167247310Y-97003244D01*
X167285747Y-97060770D01*
X167300768Y-97097033D01*
X167314267Y-97164892D01*
X167316200Y-97184519D01*
X167316200Y-99849880D01*
X167314267Y-99869507D01*
X167300768Y-99937366D01*
X167285747Y-99973629D01*
X167247310Y-100031155D01*
X167234799Y-100046400D01*
X167016600Y-100264599D01*
X167001355Y-100277110D01*
X166943829Y-100315547D01*
X166907567Y-100330568D01*
X166862363Y-100339560D01*
X166839706Y-100344067D01*
X166820081Y-100346000D01*
X164090400Y-100346000D01*
X164016004Y-100420395D01*
X164016001Y-100420398D01*
X163282800Y-101153599D01*
X163267555Y-101166110D01*
X163210029Y-101204547D01*
X163173767Y-101219568D01*
X163128563Y-101228560D01*
X163105906Y-101233067D01*
X163086281Y-101235000D01*
X160700319Y-101235000D01*
X160680692Y-101233067D01*
X160612833Y-101219568D01*
X160576570Y-101204547D01*
X160519044Y-101166110D01*
X160503799Y-101153599D01*
X160006200Y-100656000D01*
X159993691Y-100640757D01*
X159967653Y-100601788D01*
X159950700Y-100545899D01*
X159950700Y-97665281D01*
X159969913Y-97606150D01*
X159980165Y-97594146D01*
X161160746Y-96413565D01*
X161216144Y-96385339D01*
X161231881Y-96384100D01*
X166589230Y-96384100D01*
X166648361Y-96403313D01*
G37*
%TD.AperFunction*%
%TD*%
%TA.AperFunction,Conductor*%
%TO.N,+3V3_O*%
G36*
X223473105Y-131172107D02*
G01*
X223479413Y-131178409D01*
X223627123Y-131532698D01*
X223627144Y-131541652D01*
X223627123Y-131541702D01*
X223479413Y-131895990D01*
X223473066Y-131902308D01*
X223464150Y-131902303D01*
X223433788Y-131889770D01*
X223401917Y-131876614D01*
X223361750Y-131860503D01*
X223341109Y-131852224D01*
X223289291Y-131832974D01*
X223289289Y-131832973D01*
X223289280Y-131832970D01*
X223243223Y-131818252D01*
X223221472Y-131812856D01*
X223199718Y-131807459D01*
X223155581Y-131799993D01*
X223155551Y-131799989D01*
X223107547Y-131795237D01*
X223107538Y-131795236D01*
X223107520Y-131795235D01*
X223107519Y-131795235D01*
X223052390Y-131792589D01*
X223052386Y-131792588D01*
X223052367Y-131792588D01*
X222986973Y-131791445D01*
X222919664Y-131791236D01*
X222911401Y-131787783D01*
X222908000Y-131779536D01*
X222908000Y-131294863D01*
X222911427Y-131286590D01*
X222919662Y-131283163D01*
X222980289Y-131282973D01*
X222986973Y-131282953D01*
X223015682Y-131282451D01*
X223052390Y-131281810D01*
X223107519Y-131279164D01*
X223155557Y-131274409D01*
X223155571Y-131274406D01*
X223155576Y-131274406D01*
X223162409Y-131273249D01*
X223199721Y-131266938D01*
X223243223Y-131256147D01*
X223289280Y-131241428D01*
X223341106Y-131222176D01*
X223401917Y-131197785D01*
X223464151Y-131172096D01*
X223473105Y-131172107D01*
G37*
%TD.AperFunction*%
%TD*%
%TA.AperFunction,Conductor*%
%TO.N,BAT_BAL_7*%
G36*
X200119893Y-139946679D02*
G01*
X200126211Y-139953026D01*
X200126288Y-139953218D01*
X200151520Y-140017757D01*
X200151673Y-140018171D01*
X200173924Y-140082107D01*
X200174018Y-140082388D01*
X200191633Y-140137451D01*
X200207100Y-140185907D01*
X200222921Y-140230034D01*
X200222926Y-140230045D01*
X200241632Y-140272222D01*
X200241638Y-140272235D01*
X200262109Y-140308398D01*
X200265781Y-140314884D01*
X200297901Y-140360403D01*
X200297905Y-140360408D01*
X200297906Y-140360409D01*
X200297908Y-140360412D01*
X200340527Y-140411172D01*
X200340537Y-140411184D01*
X200388341Y-140461344D01*
X200391568Y-140469697D01*
X200388144Y-140477689D01*
X200134889Y-140730944D01*
X200126616Y-140734371D01*
X200118544Y-140731141D01*
X200118337Y-140730944D01*
X200101805Y-140715189D01*
X200068384Y-140683337D01*
X200068372Y-140683327D01*
X200017612Y-140640708D01*
X200017609Y-140640706D01*
X200017608Y-140640705D01*
X200017603Y-140640701D01*
X199972084Y-140608581D01*
X199965598Y-140604909D01*
X199929435Y-140584438D01*
X199929429Y-140584435D01*
X199929427Y-140584434D01*
X199887234Y-140565721D01*
X199843107Y-140549900D01*
X199794656Y-140534434D01*
X199794651Y-140534430D01*
X199794651Y-140534433D01*
X199739588Y-140516818D01*
X199739331Y-140516732D01*
X199712902Y-140507534D01*
X199675371Y-140494473D01*
X199674957Y-140494320D01*
X199610418Y-140469088D01*
X199603960Y-140462884D01*
X199603781Y-140453931D01*
X199603820Y-140453832D01*
X199749837Y-140099002D01*
X199756153Y-140092657D01*
X200110941Y-139946658D01*
X200119893Y-139946679D01*
G37*
%TD.AperFunction*%
%TD*%
%TA.AperFunction,Conductor*%
%TO.N,BAT_BAL_7*%
G36*
X192595604Y-178551920D02*
G01*
X192598314Y-178556162D01*
X192651275Y-178700453D01*
X192707053Y-178843151D01*
X192707064Y-178843177D01*
X192762846Y-178976616D01*
X192815612Y-179094072D01*
X192818633Y-179100797D01*
X192874412Y-179215695D01*
X192930185Y-179321313D01*
X192930191Y-179321324D01*
X192930193Y-179321327D01*
X192985976Y-179417694D01*
X193041758Y-179504793D01*
X193041766Y-179504805D01*
X193097532Y-179582613D01*
X193097540Y-179582624D01*
X193148413Y-179645152D01*
X193150976Y-179653732D01*
X193149657Y-179658048D01*
X192415320Y-181032878D01*
X192408400Y-181038561D01*
X192399488Y-181037686D01*
X192394680Y-181032878D01*
X191660342Y-179658048D01*
X191659467Y-179649136D01*
X191661584Y-179645155D01*
X191712459Y-179582624D01*
X191768241Y-179504793D01*
X191824023Y-179417694D01*
X191879806Y-179321327D01*
X191935588Y-179215691D01*
X191991370Y-179100788D01*
X192047153Y-178976616D01*
X192102935Y-178843177D01*
X192158717Y-178700469D01*
X192211685Y-178556161D01*
X192217752Y-178549576D01*
X192222668Y-178548493D01*
X192587331Y-178548493D01*
X192595604Y-178551920D01*
G37*
%TD.AperFunction*%
%TD*%
%TA.AperFunction,Conductor*%
%TO.N,BAT_BAL_2*%
G36*
X211645604Y-178551920D02*
G01*
X211648314Y-178556162D01*
X211701275Y-178700453D01*
X211757053Y-178843151D01*
X211757064Y-178843177D01*
X211812846Y-178976616D01*
X211865612Y-179094072D01*
X211868633Y-179100797D01*
X211924412Y-179215695D01*
X211980185Y-179321313D01*
X211980191Y-179321324D01*
X211980193Y-179321327D01*
X212035976Y-179417694D01*
X212091758Y-179504793D01*
X212091766Y-179504805D01*
X212147532Y-179582613D01*
X212147540Y-179582624D01*
X212198413Y-179645152D01*
X212200976Y-179653732D01*
X212199657Y-179658048D01*
X211465320Y-181032878D01*
X211458400Y-181038561D01*
X211449488Y-181037686D01*
X211444680Y-181032878D01*
X210710342Y-179658048D01*
X210709467Y-179649136D01*
X210711584Y-179645155D01*
X210762459Y-179582624D01*
X210818241Y-179504793D01*
X210874023Y-179417694D01*
X210929806Y-179321327D01*
X210985588Y-179215691D01*
X211041370Y-179100788D01*
X211097153Y-178976616D01*
X211152935Y-178843177D01*
X211208717Y-178700469D01*
X211261685Y-178556161D01*
X211267752Y-178549576D01*
X211272668Y-178548493D01*
X211637331Y-178548493D01*
X211645604Y-178551920D01*
G37*
%TD.AperFunction*%
%TD*%
%TA.AperFunction,Conductor*%
%TO.N,+9V*%
G36*
X211900759Y-129662925D02*
G01*
X212243474Y-130005640D01*
X212246901Y-130013913D01*
X212243500Y-130022160D01*
X212196046Y-130069910D01*
X212150612Y-130116960D01*
X212113494Y-130157820D01*
X212113487Y-130157827D01*
X212082891Y-130195147D01*
X212056938Y-130231667D01*
X212033813Y-130270051D01*
X212011652Y-130313028D01*
X212011640Y-130313053D01*
X211988622Y-130363281D01*
X211988619Y-130363289D01*
X211962867Y-130423536D01*
X211951454Y-130450994D01*
X211937026Y-130485707D01*
X211930686Y-130492031D01*
X211921770Y-130492036D01*
X211566804Y-130345963D01*
X211560457Y-130339645D01*
X211560436Y-130339595D01*
X211549504Y-130313029D01*
X211414363Y-129984627D01*
X211414384Y-129975675D01*
X211420691Y-129969373D01*
X211482862Y-129943532D01*
X211543109Y-129917780D01*
X211593369Y-129894747D01*
X211636344Y-129872587D01*
X211674735Y-129849457D01*
X211711245Y-129823511D01*
X211748576Y-129792905D01*
X211789430Y-129755794D01*
X211836507Y-129710333D01*
X211884239Y-129662898D01*
X211892523Y-129659498D01*
X211900759Y-129662925D01*
G37*
%TD.AperFunction*%
%TD*%
%TA.AperFunction,Conductor*%
%TO.N,BAT_BAL_10*%
G36*
X178397004Y-178551920D02*
G01*
X178399714Y-178556162D01*
X178452675Y-178700453D01*
X178508453Y-178843151D01*
X178508464Y-178843177D01*
X178564246Y-178976616D01*
X178617012Y-179094072D01*
X178620033Y-179100797D01*
X178675812Y-179215695D01*
X178731585Y-179321313D01*
X178731591Y-179321324D01*
X178731593Y-179321327D01*
X178787376Y-179417694D01*
X178843158Y-179504793D01*
X178843166Y-179504805D01*
X178898932Y-179582613D01*
X178898940Y-179582624D01*
X178949813Y-179645152D01*
X178952376Y-179653732D01*
X178951057Y-179658048D01*
X178216720Y-181032878D01*
X178209800Y-181038561D01*
X178200888Y-181037686D01*
X178196080Y-181032878D01*
X177461742Y-179658048D01*
X177460867Y-179649136D01*
X177462984Y-179645155D01*
X177513859Y-179582624D01*
X177569641Y-179504793D01*
X177625423Y-179417694D01*
X177681206Y-179321327D01*
X177736988Y-179215691D01*
X177792770Y-179100788D01*
X177848553Y-178976616D01*
X177904335Y-178843177D01*
X177960117Y-178700469D01*
X178013085Y-178556161D01*
X178019152Y-178549576D01*
X178024068Y-178548493D01*
X178388731Y-178548493D01*
X178397004Y-178551920D01*
G37*
%TD.AperFunction*%
%TD*%
%TA.AperFunction,Conductor*%
%TO.N,+3V3_O*%
G36*
X215421305Y-135134507D02*
G01*
X215427613Y-135140809D01*
X215575323Y-135495098D01*
X215575344Y-135504052D01*
X215575323Y-135504102D01*
X215427613Y-135858390D01*
X215421266Y-135864708D01*
X215412350Y-135864703D01*
X215381988Y-135852170D01*
X215350117Y-135839014D01*
X215309950Y-135822903D01*
X215289309Y-135814624D01*
X215237491Y-135795374D01*
X215237489Y-135795373D01*
X215237480Y-135795370D01*
X215191423Y-135780652D01*
X215169672Y-135775256D01*
X215147918Y-135769859D01*
X215103781Y-135762393D01*
X215103751Y-135762389D01*
X215055747Y-135757637D01*
X215055738Y-135757636D01*
X215055720Y-135757635D01*
X215055719Y-135757635D01*
X215000590Y-135754989D01*
X215000586Y-135754988D01*
X215000567Y-135754988D01*
X214935173Y-135753845D01*
X214867864Y-135753636D01*
X214859601Y-135750183D01*
X214856200Y-135741936D01*
X214856200Y-135257263D01*
X214859627Y-135248990D01*
X214867862Y-135245563D01*
X214928489Y-135245373D01*
X214935173Y-135245353D01*
X214963882Y-135244851D01*
X215000590Y-135244210D01*
X215055719Y-135241564D01*
X215103757Y-135236809D01*
X215103771Y-135236806D01*
X215103776Y-135236806D01*
X215110609Y-135235649D01*
X215147921Y-135229338D01*
X215191423Y-135218547D01*
X215237480Y-135203828D01*
X215289306Y-135184576D01*
X215350117Y-135160185D01*
X215412351Y-135134496D01*
X215421305Y-135134507D01*
G37*
%TD.AperFunction*%
%TD*%
%TA.AperFunction,Conductor*%
%TO.N,-9V*%
G36*
X228535841Y-140925943D02*
G01*
X228536001Y-140926011D01*
X228599511Y-140953818D01*
X228599905Y-140953999D01*
X228660886Y-140983494D01*
X228661106Y-140983603D01*
X228712510Y-141010090D01*
X228712509Y-141010091D01*
X228712514Y-141010092D01*
X228739339Y-141023936D01*
X228757716Y-141033420D01*
X228777206Y-141042622D01*
X228800100Y-141053432D01*
X228843168Y-141070035D01*
X228890406Y-141083124D01*
X228945304Y-141092599D01*
X229011355Y-141098357D01*
X229080634Y-141100025D01*
X229088820Y-141103649D01*
X229092050Y-141111721D01*
X229092050Y-141469877D01*
X229088623Y-141478150D01*
X229080632Y-141481574D01*
X229011344Y-141483241D01*
X228950808Y-141488520D01*
X228945304Y-141489000D01*
X228890406Y-141498474D01*
X228890405Y-141498474D01*
X228890395Y-141498476D01*
X228843174Y-141511561D01*
X228843162Y-141511565D01*
X228800113Y-141528160D01*
X228800102Y-141528165D01*
X228757706Y-141548184D01*
X228712517Y-141571505D01*
X228712510Y-141571509D01*
X228661127Y-141597984D01*
X228660862Y-141598116D01*
X228599912Y-141627595D01*
X228599511Y-141627780D01*
X228536031Y-141655575D01*
X228527078Y-141655754D01*
X228520620Y-141649550D01*
X228520587Y-141649473D01*
X228372925Y-141295299D01*
X228372905Y-141286350D01*
X228520540Y-140932239D01*
X228526887Y-140925922D01*
X228535841Y-140925943D01*
G37*
%TD.AperFunction*%
%TD*%
%TA.AperFunction,Conductor*%
%TO.N,+9V*%
G36*
X215663848Y-113341295D02*
G01*
X215726082Y-113366985D01*
X215786893Y-113391376D01*
X215838719Y-113410628D01*
X215884775Y-113425347D01*
X215928278Y-113436138D01*
X215960187Y-113441536D01*
X215972421Y-113443606D01*
X215972428Y-113443606D01*
X215972441Y-113443609D01*
X216020480Y-113448364D01*
X216075609Y-113451010D01*
X216110720Y-113451623D01*
X216141025Y-113452153D01*
X216148035Y-113452174D01*
X216208337Y-113452363D01*
X216216599Y-113455816D01*
X216220000Y-113464063D01*
X216220000Y-113948736D01*
X216216573Y-113957009D01*
X216208336Y-113960436D01*
X216141025Y-113960645D01*
X216075631Y-113961788D01*
X216075610Y-113961788D01*
X216075609Y-113961789D01*
X216020480Y-113964435D01*
X216020479Y-113964435D01*
X216020460Y-113964436D01*
X216020451Y-113964437D01*
X215972446Y-113969189D01*
X215972416Y-113969193D01*
X215928280Y-113976659D01*
X215884771Y-113987453D01*
X215855865Y-113996690D01*
X215838719Y-114002170D01*
X215838715Y-114002171D01*
X215838707Y-114002174D01*
X215786889Y-114021424D01*
X215726077Y-114045816D01*
X215663849Y-114071503D01*
X215654894Y-114071492D01*
X215648586Y-114065190D01*
X215630339Y-114021423D01*
X215500875Y-113710899D01*
X215500855Y-113701950D01*
X215648586Y-113347608D01*
X215654933Y-113341291D01*
X215663848Y-113341295D01*
G37*
%TD.AperFunction*%
%TD*%
%TA.AperFunction,Conductor*%
%TO.N,+3V3_O*%
G36*
X222100195Y-113881636D02*
G01*
X222106542Y-113887954D01*
X222106563Y-113888004D01*
X222252636Y-114242970D01*
X222252615Y-114251924D01*
X222246307Y-114258226D01*
X222211594Y-114272654D01*
X222184136Y-114284067D01*
X222184088Y-114284087D01*
X222184082Y-114284090D01*
X222123881Y-114309822D01*
X222073653Y-114332840D01*
X222073628Y-114332852D01*
X222030651Y-114355013D01*
X221992267Y-114378138D01*
X221955747Y-114404091D01*
X221918427Y-114434687D01*
X221918420Y-114434694D01*
X221877560Y-114471812D01*
X221830510Y-114517246D01*
X221782760Y-114564700D01*
X221774477Y-114568101D01*
X221766240Y-114564674D01*
X221423525Y-114221959D01*
X221420098Y-114213686D01*
X221423499Y-114205439D01*
X221470933Y-114157707D01*
X221516394Y-114110630D01*
X221553505Y-114069776D01*
X221584111Y-114032445D01*
X221610057Y-113995935D01*
X221633187Y-113957544D01*
X221655347Y-113914569D01*
X221678380Y-113864309D01*
X221704132Y-113804062D01*
X221729973Y-113741891D01*
X221736313Y-113735568D01*
X221745227Y-113735563D01*
X222100195Y-113881636D01*
G37*
%TD.AperFunction*%
%TD*%
%TA.AperFunction,Conductor*%
%TO.N,BAT_BAL_15*%
G36*
X159347004Y-178551920D02*
G01*
X159349714Y-178556162D01*
X159402675Y-178700453D01*
X159458453Y-178843151D01*
X159458464Y-178843177D01*
X159514246Y-178976616D01*
X159567012Y-179094072D01*
X159570033Y-179100797D01*
X159625812Y-179215695D01*
X159681585Y-179321313D01*
X159681591Y-179321324D01*
X159681593Y-179321327D01*
X159737376Y-179417694D01*
X159793158Y-179504793D01*
X159793166Y-179504805D01*
X159848932Y-179582613D01*
X159848940Y-179582624D01*
X159899813Y-179645152D01*
X159902376Y-179653732D01*
X159901057Y-179658048D01*
X159166720Y-181032878D01*
X159159800Y-181038561D01*
X159150888Y-181037686D01*
X159146080Y-181032878D01*
X158411742Y-179658048D01*
X158410867Y-179649136D01*
X158412984Y-179645155D01*
X158463859Y-179582624D01*
X158519641Y-179504793D01*
X158575423Y-179417694D01*
X158631206Y-179321327D01*
X158686988Y-179215691D01*
X158742770Y-179100788D01*
X158798553Y-178976616D01*
X158854335Y-178843177D01*
X158910117Y-178700469D01*
X158963085Y-178556161D01*
X158969152Y-178549576D01*
X158974068Y-178548493D01*
X159338731Y-178548493D01*
X159347004Y-178551920D01*
G37*
%TD.AperFunction*%
%TD*%
%TA.AperFunction,Conductor*%
%TO.N,BAT_BAL_6*%
G36*
X196405604Y-178551920D02*
G01*
X196408314Y-178556162D01*
X196461275Y-178700453D01*
X196517053Y-178843151D01*
X196517064Y-178843177D01*
X196572846Y-178976616D01*
X196625612Y-179094072D01*
X196628633Y-179100797D01*
X196684412Y-179215695D01*
X196740185Y-179321313D01*
X196740191Y-179321324D01*
X196740193Y-179321327D01*
X196795976Y-179417694D01*
X196851758Y-179504793D01*
X196851766Y-179504805D01*
X196907532Y-179582613D01*
X196907540Y-179582624D01*
X196958413Y-179645152D01*
X196960976Y-179653732D01*
X196959657Y-179658048D01*
X196225320Y-181032878D01*
X196218400Y-181038561D01*
X196209488Y-181037686D01*
X196204680Y-181032878D01*
X195470342Y-179658048D01*
X195469467Y-179649136D01*
X195471584Y-179645155D01*
X195522459Y-179582624D01*
X195578241Y-179504793D01*
X195634023Y-179417694D01*
X195689806Y-179321327D01*
X195745588Y-179215691D01*
X195801370Y-179100788D01*
X195857153Y-178976616D01*
X195912935Y-178843177D01*
X195968717Y-178700469D01*
X196021685Y-178556161D01*
X196027752Y-178549576D01*
X196032668Y-178548493D01*
X196397331Y-178548493D01*
X196405604Y-178551920D01*
G37*
%TD.AperFunction*%
%TD*%
%TA.AperFunction,Conductor*%
%TO.N,VBAT*%
G36*
X186108395Y-105194836D02*
G01*
X186114742Y-105201154D01*
X186114763Y-105201204D01*
X186260836Y-105556170D01*
X186260815Y-105565124D01*
X186254507Y-105571426D01*
X186219794Y-105585854D01*
X186192336Y-105597267D01*
X186192288Y-105597287D01*
X186192282Y-105597290D01*
X186132081Y-105623022D01*
X186081853Y-105646040D01*
X186081828Y-105646052D01*
X186038851Y-105668213D01*
X186000467Y-105691338D01*
X185963947Y-105717291D01*
X185926627Y-105747887D01*
X185926620Y-105747894D01*
X185885760Y-105785012D01*
X185838710Y-105830446D01*
X185790960Y-105877900D01*
X185782677Y-105881301D01*
X185774440Y-105877874D01*
X185431725Y-105535159D01*
X185428298Y-105526886D01*
X185431699Y-105518639D01*
X185479133Y-105470907D01*
X185524594Y-105423830D01*
X185561705Y-105382976D01*
X185592311Y-105345645D01*
X185618257Y-105309135D01*
X185641387Y-105270744D01*
X185663547Y-105227769D01*
X185686580Y-105177509D01*
X185712332Y-105117262D01*
X185738173Y-105055091D01*
X185744513Y-105048768D01*
X185753427Y-105048763D01*
X186108395Y-105194836D01*
G37*
%TD.AperFunction*%
%TD*%
%TA.AperFunction,Conductor*%
%TO.N,BAT_BAL_14*%
G36*
X195990205Y-123348636D02*
G01*
X196344995Y-123494636D01*
X196351342Y-123500954D01*
X196351363Y-123501004D01*
X196497341Y-123855739D01*
X196497320Y-123864693D01*
X196490973Y-123871011D01*
X196490781Y-123871088D01*
X196426240Y-123896320D01*
X196425826Y-123896473D01*
X196361890Y-123918724D01*
X196361609Y-123918818D01*
X196306548Y-123936433D01*
X196306541Y-123936435D01*
X196258077Y-123951904D01*
X196213974Y-123967717D01*
X196213946Y-123967728D01*
X196171780Y-123986428D01*
X196129122Y-124010576D01*
X196129118Y-124010578D01*
X196129114Y-124010581D01*
X196083596Y-124042701D01*
X196083589Y-124042706D01*
X196083586Y-124042708D01*
X196032826Y-124085327D01*
X196032814Y-124085337D01*
X195982655Y-124133141D01*
X195974302Y-124136368D01*
X195966310Y-124132944D01*
X195713055Y-123879689D01*
X195709628Y-123871416D01*
X195712857Y-123863346D01*
X195760664Y-123813180D01*
X195803297Y-123762403D01*
X195835417Y-123716884D01*
X195859564Y-123674227D01*
X195878278Y-123632034D01*
X195894098Y-123587907D01*
X195909565Y-123539451D01*
X195927200Y-123484322D01*
X195927240Y-123484204D01*
X195949533Y-123420148D01*
X195949681Y-123419749D01*
X195974912Y-123355216D01*
X195981115Y-123348760D01*
X195990068Y-123348581D01*
X195990205Y-123348636D01*
G37*
%TD.AperFunction*%
%TD*%
%TA.AperFunction,Conductor*%
%TO.N,+3V3_O*%
G36*
X238730906Y-122028095D02*
G01*
X238793140Y-122053785D01*
X238853951Y-122078176D01*
X238905777Y-122097428D01*
X238951833Y-122112147D01*
X238995336Y-122122938D01*
X239027245Y-122128336D01*
X239039479Y-122130406D01*
X239039486Y-122130406D01*
X239039499Y-122130409D01*
X239087538Y-122135164D01*
X239142667Y-122137810D01*
X239177778Y-122138423D01*
X239208083Y-122138953D01*
X239215093Y-122138974D01*
X239275395Y-122139163D01*
X239283657Y-122142616D01*
X239287058Y-122150863D01*
X239287058Y-122635536D01*
X239283631Y-122643809D01*
X239275394Y-122647236D01*
X239208083Y-122647445D01*
X239142689Y-122648588D01*
X239142668Y-122648588D01*
X239142667Y-122648589D01*
X239087538Y-122651235D01*
X239087537Y-122651235D01*
X239087518Y-122651236D01*
X239087509Y-122651237D01*
X239039504Y-122655989D01*
X239039474Y-122655993D01*
X238995338Y-122663459D01*
X238951829Y-122674253D01*
X238922923Y-122683490D01*
X238905777Y-122688970D01*
X238905773Y-122688971D01*
X238905765Y-122688974D01*
X238853947Y-122708224D01*
X238793135Y-122732616D01*
X238730907Y-122758303D01*
X238721952Y-122758292D01*
X238715644Y-122751990D01*
X238697397Y-122708223D01*
X238567933Y-122397699D01*
X238567913Y-122388750D01*
X238715644Y-122034408D01*
X238721991Y-122028091D01*
X238730906Y-122028095D01*
G37*
%TD.AperFunction*%
%TD*%
%TA.AperFunction,Conductor*%
%TO.N,+3V3_O*%
G36*
X231193395Y-116059636D02*
G01*
X231199742Y-116065954D01*
X231199763Y-116066004D01*
X231345836Y-116420970D01*
X231345815Y-116429924D01*
X231339507Y-116436226D01*
X231304794Y-116450654D01*
X231277336Y-116462067D01*
X231277288Y-116462087D01*
X231277282Y-116462090D01*
X231217081Y-116487822D01*
X231166853Y-116510840D01*
X231166828Y-116510852D01*
X231123851Y-116533013D01*
X231085467Y-116556138D01*
X231048947Y-116582091D01*
X231011627Y-116612687D01*
X231011620Y-116612694D01*
X230970760Y-116649812D01*
X230923710Y-116695246D01*
X230875960Y-116742700D01*
X230867677Y-116746101D01*
X230859440Y-116742674D01*
X230516725Y-116399959D01*
X230513298Y-116391686D01*
X230516699Y-116383439D01*
X230564133Y-116335707D01*
X230609594Y-116288630D01*
X230646705Y-116247776D01*
X230677311Y-116210445D01*
X230703257Y-116173935D01*
X230726387Y-116135544D01*
X230748547Y-116092569D01*
X230771580Y-116042309D01*
X230797332Y-115982062D01*
X230823173Y-115919891D01*
X230829513Y-115913568D01*
X230838427Y-115913563D01*
X231193395Y-116059636D01*
G37*
%TD.AperFunction*%
%TD*%
%TA.AperFunction,Conductor*%
%TO.N,BAT_BAL_10*%
G36*
X195990205Y-139934836D02*
G01*
X196344995Y-140080836D01*
X196351342Y-140087154D01*
X196351363Y-140087204D01*
X196497341Y-140441939D01*
X196497320Y-140450893D01*
X196490973Y-140457211D01*
X196490781Y-140457288D01*
X196426240Y-140482520D01*
X196425826Y-140482673D01*
X196361890Y-140504924D01*
X196361609Y-140505018D01*
X196306548Y-140522633D01*
X196306541Y-140522635D01*
X196258077Y-140538104D01*
X196213974Y-140553917D01*
X196213946Y-140553928D01*
X196171780Y-140572628D01*
X196129122Y-140596776D01*
X196129118Y-140596778D01*
X196129114Y-140596781D01*
X196083596Y-140628901D01*
X196083589Y-140628906D01*
X196083586Y-140628908D01*
X196032826Y-140671527D01*
X196032814Y-140671537D01*
X195982655Y-140719341D01*
X195974302Y-140722568D01*
X195966310Y-140719144D01*
X195713055Y-140465889D01*
X195709628Y-140457616D01*
X195712857Y-140449546D01*
X195760664Y-140399380D01*
X195803297Y-140348603D01*
X195835417Y-140303084D01*
X195859564Y-140260427D01*
X195878278Y-140218234D01*
X195894098Y-140174107D01*
X195909565Y-140125651D01*
X195927200Y-140070522D01*
X195927240Y-140070404D01*
X195949533Y-140006348D01*
X195949681Y-140005949D01*
X195974912Y-139941416D01*
X195981115Y-139934960D01*
X195990068Y-139934781D01*
X195990205Y-139934836D01*
G37*
%TD.AperFunction*%
%TD*%
%TA.AperFunction,Conductor*%
%TO.N,BAT_BAL_3*%
G36*
X207835604Y-178551920D02*
G01*
X207838314Y-178556162D01*
X207891275Y-178700453D01*
X207947053Y-178843151D01*
X207947064Y-178843177D01*
X208002846Y-178976616D01*
X208055612Y-179094072D01*
X208058633Y-179100797D01*
X208114412Y-179215695D01*
X208170185Y-179321313D01*
X208170191Y-179321324D01*
X208170193Y-179321327D01*
X208225976Y-179417694D01*
X208281758Y-179504793D01*
X208281766Y-179504805D01*
X208337532Y-179582613D01*
X208337540Y-179582624D01*
X208388413Y-179645152D01*
X208390976Y-179653732D01*
X208389657Y-179658048D01*
X207655320Y-181032878D01*
X207648400Y-181038561D01*
X207639488Y-181037686D01*
X207634680Y-181032878D01*
X206900342Y-179658048D01*
X206899467Y-179649136D01*
X206901584Y-179645155D01*
X206952459Y-179582624D01*
X207008241Y-179504793D01*
X207064023Y-179417694D01*
X207119806Y-179321327D01*
X207175588Y-179215691D01*
X207231370Y-179100788D01*
X207287153Y-178976616D01*
X207342935Y-178843177D01*
X207398717Y-178700469D01*
X207451685Y-178556161D01*
X207457752Y-178549576D01*
X207462668Y-178548493D01*
X207827331Y-178548493D01*
X207835604Y-178551920D01*
G37*
%TD.AperFunction*%
%TD*%
%TA.AperFunction,Conductor*%
%TO.N,+9V*%
G36*
X235385705Y-101428707D02*
G01*
X235392013Y-101435009D01*
X235539723Y-101789298D01*
X235539744Y-101798252D01*
X235539723Y-101798302D01*
X235392013Y-102152590D01*
X235385666Y-102158908D01*
X235376750Y-102158903D01*
X235346388Y-102146370D01*
X235314517Y-102133214D01*
X235274350Y-102117103D01*
X235253709Y-102108824D01*
X235201891Y-102089574D01*
X235201889Y-102089573D01*
X235201880Y-102089570D01*
X235155823Y-102074852D01*
X235134072Y-102069456D01*
X235112318Y-102064059D01*
X235068181Y-102056593D01*
X235068151Y-102056589D01*
X235020147Y-102051837D01*
X235020138Y-102051836D01*
X235020120Y-102051835D01*
X235020119Y-102051835D01*
X234964990Y-102049189D01*
X234964986Y-102049188D01*
X234964967Y-102049188D01*
X234899573Y-102048045D01*
X234832264Y-102047836D01*
X234824001Y-102044383D01*
X234820600Y-102036136D01*
X234820600Y-101551463D01*
X234824027Y-101543190D01*
X234832262Y-101539763D01*
X234892889Y-101539573D01*
X234899573Y-101539553D01*
X234928282Y-101539051D01*
X234964990Y-101538410D01*
X235020119Y-101535764D01*
X235068157Y-101531009D01*
X235068171Y-101531006D01*
X235068176Y-101531006D01*
X235075009Y-101529849D01*
X235112321Y-101523538D01*
X235155823Y-101512747D01*
X235201880Y-101498028D01*
X235253706Y-101478776D01*
X235314517Y-101454385D01*
X235376751Y-101428696D01*
X235385705Y-101428707D01*
G37*
%TD.AperFunction*%
%TD*%
%TA.AperFunction,Conductor*%
%TO.N,BAT_BAL_5*%
G36*
X200119893Y-131666279D02*
G01*
X200126211Y-131672626D01*
X200126288Y-131672818D01*
X200151520Y-131737357D01*
X200151673Y-131737771D01*
X200173924Y-131801707D01*
X200174018Y-131801988D01*
X200191633Y-131857051D01*
X200207100Y-131905507D01*
X200222921Y-131949634D01*
X200222926Y-131949645D01*
X200241632Y-131991822D01*
X200241638Y-131991835D01*
X200262109Y-132027998D01*
X200265781Y-132034484D01*
X200297901Y-132080003D01*
X200297905Y-132080008D01*
X200297906Y-132080009D01*
X200297908Y-132080012D01*
X200340527Y-132130772D01*
X200340537Y-132130784D01*
X200388341Y-132180944D01*
X200391568Y-132189297D01*
X200388144Y-132197289D01*
X200134889Y-132450544D01*
X200126616Y-132453971D01*
X200118544Y-132450741D01*
X200118337Y-132450544D01*
X200101805Y-132434789D01*
X200068384Y-132402937D01*
X200068372Y-132402927D01*
X200017612Y-132360308D01*
X200017609Y-132360306D01*
X200017608Y-132360305D01*
X200017603Y-132360301D01*
X199972084Y-132328181D01*
X199965598Y-132324509D01*
X199929435Y-132304038D01*
X199929429Y-132304035D01*
X199929427Y-132304034D01*
X199887234Y-132285321D01*
X199843107Y-132269500D01*
X199794656Y-132254034D01*
X199794651Y-132254030D01*
X199794651Y-132254033D01*
X199739588Y-132236418D01*
X199739331Y-132236332D01*
X199712902Y-132227134D01*
X199675371Y-132214073D01*
X199674957Y-132213920D01*
X199610418Y-132188688D01*
X199603960Y-132182484D01*
X199603781Y-132173531D01*
X199603820Y-132173432D01*
X199749837Y-131818602D01*
X199756153Y-131812257D01*
X200110941Y-131666258D01*
X200119893Y-131666279D01*
G37*
%TD.AperFunction*%
%TD*%
%TA.AperFunction,Conductor*%
%TO.N,BAT_BAL_13*%
G36*
X167017556Y-178551920D02*
G01*
X167020376Y-178556474D01*
X167068396Y-178699706D01*
X167119102Y-178841850D01*
X167169807Y-178974880D01*
X167220510Y-179098804D01*
X167271213Y-179213626D01*
X167321910Y-179319333D01*
X167321913Y-179319339D01*
X167372616Y-179415955D01*
X167423318Y-179503468D01*
X167474020Y-179581878D01*
X167510506Y-179631753D01*
X167520381Y-179645252D01*
X167522500Y-179653953D01*
X167521258Y-179657672D01*
X166786720Y-181032878D01*
X166779800Y-181038561D01*
X166770888Y-181037686D01*
X166766080Y-181032878D01*
X166031939Y-179658417D01*
X166031064Y-179649505D01*
X166033553Y-179645089D01*
X166088939Y-179583425D01*
X166149801Y-179506218D01*
X166210663Y-179419564D01*
X166271526Y-179323464D01*
X166332388Y-179217918D01*
X166393250Y-179102926D01*
X166454113Y-178978487D01*
X166514975Y-178844602D01*
X166575837Y-178701270D01*
X166633764Y-178555863D01*
X166640009Y-178549445D01*
X166644633Y-178548493D01*
X167009283Y-178548493D01*
X167017556Y-178551920D01*
G37*
%TD.AperFunction*%
%TD*%
%TA.AperFunction,Conductor*%
%TO.N,+3V3_O*%
G36*
X238511248Y-141484495D02*
G01*
X238573482Y-141510185D01*
X238634293Y-141534576D01*
X238686119Y-141553828D01*
X238732175Y-141568547D01*
X238775678Y-141579338D01*
X238807587Y-141584736D01*
X238819821Y-141586806D01*
X238819828Y-141586806D01*
X238819841Y-141586809D01*
X238867880Y-141591564D01*
X238923009Y-141594210D01*
X238958120Y-141594823D01*
X238988425Y-141595353D01*
X238995435Y-141595374D01*
X239055737Y-141595563D01*
X239063999Y-141599016D01*
X239067400Y-141607263D01*
X239067400Y-142089021D01*
X239063973Y-142097294D01*
X239057227Y-142100621D01*
X239034554Y-142103606D01*
X239033064Y-142103706D01*
X238988425Y-142103845D01*
X238923031Y-142104988D01*
X238923010Y-142104988D01*
X238923009Y-142104989D01*
X238867880Y-142107635D01*
X238867879Y-142107635D01*
X238867860Y-142107636D01*
X238867851Y-142107637D01*
X238819846Y-142112389D01*
X238819816Y-142112393D01*
X238775680Y-142119859D01*
X238732171Y-142130653D01*
X238703265Y-142139890D01*
X238686119Y-142145370D01*
X238686115Y-142145371D01*
X238686107Y-142145374D01*
X238634289Y-142164624D01*
X238573477Y-142189016D01*
X238511249Y-142214703D01*
X238502294Y-142214692D01*
X238495986Y-142208390D01*
X238477739Y-142164623D01*
X238348275Y-141854099D01*
X238348255Y-141845150D01*
X238495986Y-141490808D01*
X238502333Y-141484491D01*
X238511248Y-141484495D01*
G37*
%TD.AperFunction*%
%TD*%
%TA.AperFunction,Conductor*%
%TO.N,VBAT*%
G36*
X210499390Y-106260386D02*
G01*
X210505708Y-106266733D01*
X210505703Y-106275649D01*
X210480016Y-106337877D01*
X210455624Y-106398689D01*
X210436374Y-106450507D01*
X210421653Y-106496571D01*
X210410859Y-106540080D01*
X210403393Y-106584216D01*
X210403389Y-106584246D01*
X210398637Y-106632251D01*
X210398636Y-106632260D01*
X210395988Y-106687431D01*
X210394845Y-106752825D01*
X210394636Y-106820136D01*
X210391183Y-106828399D01*
X210382936Y-106831800D01*
X209898264Y-106831800D01*
X209889991Y-106828373D01*
X209886564Y-106820137D01*
X209886353Y-106752825D01*
X209885210Y-106687431D01*
X209885210Y-106687409D01*
X209882564Y-106632280D01*
X209877809Y-106584241D01*
X209870338Y-106540078D01*
X209859547Y-106496575D01*
X209844828Y-106450519D01*
X209825576Y-106398693D01*
X209801185Y-106337882D01*
X209775496Y-106275648D01*
X209775507Y-106266694D01*
X209781808Y-106260386D01*
X210136100Y-106112675D01*
X210145049Y-106112655D01*
X210499390Y-106260386D01*
G37*
%TD.AperFunction*%
%TD*%
%TA.AperFunction,Conductor*%
%TO.N,BAT_BAL_15*%
G36*
X195990205Y-119206636D02*
G01*
X196344995Y-119352636D01*
X196351342Y-119358954D01*
X196351363Y-119359004D01*
X196497341Y-119713739D01*
X196497320Y-119722693D01*
X196490973Y-119729011D01*
X196490781Y-119729088D01*
X196426240Y-119754320D01*
X196425826Y-119754473D01*
X196361890Y-119776724D01*
X196361609Y-119776818D01*
X196306548Y-119794433D01*
X196306541Y-119794435D01*
X196258077Y-119809904D01*
X196213974Y-119825717D01*
X196213946Y-119825728D01*
X196171780Y-119844428D01*
X196129122Y-119868576D01*
X196129118Y-119868578D01*
X196129114Y-119868581D01*
X196083596Y-119900701D01*
X196083589Y-119900706D01*
X196083586Y-119900708D01*
X196032826Y-119943327D01*
X196032814Y-119943337D01*
X195982655Y-119991141D01*
X195974302Y-119994368D01*
X195966310Y-119990944D01*
X195713055Y-119737689D01*
X195709628Y-119729416D01*
X195712857Y-119721346D01*
X195760664Y-119671180D01*
X195803297Y-119620403D01*
X195835417Y-119574884D01*
X195859564Y-119532227D01*
X195878278Y-119490034D01*
X195894098Y-119445907D01*
X195909565Y-119397451D01*
X195927200Y-119342322D01*
X195927240Y-119342204D01*
X195949533Y-119278148D01*
X195949681Y-119277749D01*
X195974912Y-119213216D01*
X195981115Y-119206760D01*
X195990068Y-119206581D01*
X195990205Y-119206636D01*
G37*
%TD.AperFunction*%
%TD*%
%TA.AperFunction,Conductor*%
%TO.N,VBAT*%
G36*
X171860305Y-104984707D02*
G01*
X171866613Y-104991009D01*
X172014323Y-105345298D01*
X172014344Y-105354252D01*
X172014323Y-105354302D01*
X171866613Y-105708590D01*
X171860266Y-105714908D01*
X171851350Y-105714903D01*
X171820988Y-105702370D01*
X171789117Y-105689214D01*
X171748950Y-105673103D01*
X171728309Y-105664824D01*
X171676491Y-105645574D01*
X171676489Y-105645573D01*
X171676480Y-105645570D01*
X171630423Y-105630852D01*
X171608672Y-105625456D01*
X171586918Y-105620059D01*
X171542781Y-105612593D01*
X171542751Y-105612589D01*
X171494747Y-105607837D01*
X171494738Y-105607836D01*
X171494720Y-105607835D01*
X171494719Y-105607835D01*
X171439590Y-105605189D01*
X171439586Y-105605188D01*
X171439567Y-105605188D01*
X171374173Y-105604045D01*
X171306864Y-105603836D01*
X171298601Y-105600383D01*
X171295200Y-105592136D01*
X171295200Y-105107463D01*
X171298627Y-105099190D01*
X171306862Y-105095763D01*
X171367489Y-105095573D01*
X171374173Y-105095553D01*
X171402882Y-105095051D01*
X171439590Y-105094410D01*
X171494719Y-105091764D01*
X171542757Y-105087009D01*
X171542771Y-105087006D01*
X171542776Y-105087006D01*
X171549609Y-105085849D01*
X171586921Y-105079538D01*
X171630423Y-105068747D01*
X171676480Y-105054028D01*
X171728306Y-105034776D01*
X171789117Y-105010385D01*
X171851351Y-104984696D01*
X171860305Y-104984707D01*
G37*
%TD.AperFunction*%
%TD*%
%TA.AperFunction,Conductor*%
%TO.N,VBAT*%
G36*
X178158195Y-105321836D02*
G01*
X178164542Y-105328154D01*
X178164563Y-105328204D01*
X178310636Y-105683170D01*
X178310615Y-105692124D01*
X178304307Y-105698426D01*
X178269594Y-105712854D01*
X178242136Y-105724267D01*
X178242088Y-105724287D01*
X178242082Y-105724290D01*
X178181881Y-105750022D01*
X178131653Y-105773040D01*
X178131628Y-105773052D01*
X178088651Y-105795213D01*
X178050267Y-105818338D01*
X178013747Y-105844291D01*
X177976427Y-105874887D01*
X177976420Y-105874894D01*
X177935560Y-105912012D01*
X177888510Y-105957446D01*
X177840760Y-106004900D01*
X177832477Y-106008301D01*
X177824240Y-106004874D01*
X177481525Y-105662159D01*
X177478098Y-105653886D01*
X177481499Y-105645639D01*
X177528933Y-105597907D01*
X177574394Y-105550830D01*
X177611505Y-105509976D01*
X177642111Y-105472645D01*
X177668057Y-105436135D01*
X177691187Y-105397744D01*
X177713347Y-105354769D01*
X177736380Y-105304509D01*
X177762132Y-105244262D01*
X177787973Y-105182091D01*
X177794313Y-105175768D01*
X177803227Y-105175763D01*
X178158195Y-105321836D01*
G37*
%TD.AperFunction*%
%TD*%
%TA.AperFunction,Conductor*%
%TO.N,BAT_BAL_1*%
G36*
X200119893Y-115080079D02*
G01*
X200126211Y-115086426D01*
X200126288Y-115086618D01*
X200151520Y-115151157D01*
X200151673Y-115151571D01*
X200173924Y-115215507D01*
X200174018Y-115215788D01*
X200191633Y-115270851D01*
X200207100Y-115319307D01*
X200222921Y-115363434D01*
X200222926Y-115363445D01*
X200241632Y-115405622D01*
X200241638Y-115405635D01*
X200262109Y-115441798D01*
X200265781Y-115448284D01*
X200297901Y-115493803D01*
X200297905Y-115493808D01*
X200297906Y-115493809D01*
X200297908Y-115493812D01*
X200340527Y-115544572D01*
X200340537Y-115544584D01*
X200388341Y-115594744D01*
X200391568Y-115603097D01*
X200388144Y-115611089D01*
X200134889Y-115864344D01*
X200126616Y-115867771D01*
X200118544Y-115864541D01*
X200118337Y-115864344D01*
X200101805Y-115848589D01*
X200068384Y-115816737D01*
X200068372Y-115816727D01*
X200017612Y-115774108D01*
X200017609Y-115774106D01*
X200017608Y-115774105D01*
X200017603Y-115774101D01*
X199972084Y-115741981D01*
X199965598Y-115738309D01*
X199929435Y-115717838D01*
X199929429Y-115717835D01*
X199929427Y-115717834D01*
X199887234Y-115699121D01*
X199843107Y-115683300D01*
X199794656Y-115667834D01*
X199794651Y-115667830D01*
X199794651Y-115667833D01*
X199739588Y-115650218D01*
X199739331Y-115650132D01*
X199712902Y-115640934D01*
X199675371Y-115627873D01*
X199674957Y-115627720D01*
X199610418Y-115602488D01*
X199603960Y-115596284D01*
X199603781Y-115587331D01*
X199603820Y-115587232D01*
X199749837Y-115232402D01*
X199756153Y-115226057D01*
X200110941Y-115080058D01*
X200119893Y-115080079D01*
G37*
%TD.AperFunction*%
%TD*%
%TA.AperFunction,Conductor*%
%TO.N,BAT_BAL_11*%
G36*
X195990205Y-135794636D02*
G01*
X196344995Y-135940636D01*
X196351342Y-135946954D01*
X196351363Y-135947004D01*
X196497341Y-136301739D01*
X196497320Y-136310693D01*
X196490973Y-136317011D01*
X196490781Y-136317088D01*
X196426240Y-136342320D01*
X196425826Y-136342473D01*
X196361890Y-136364724D01*
X196361609Y-136364818D01*
X196306548Y-136382433D01*
X196306541Y-136382435D01*
X196258077Y-136397904D01*
X196213974Y-136413717D01*
X196213946Y-136413728D01*
X196171780Y-136432428D01*
X196129122Y-136456576D01*
X196129118Y-136456578D01*
X196129114Y-136456581D01*
X196083596Y-136488701D01*
X196083589Y-136488706D01*
X196083586Y-136488708D01*
X196032826Y-136531327D01*
X196032814Y-136531337D01*
X195982655Y-136579141D01*
X195974302Y-136582368D01*
X195966310Y-136578944D01*
X195713055Y-136325689D01*
X195709628Y-136317416D01*
X195712857Y-136309346D01*
X195760664Y-136259180D01*
X195803297Y-136208403D01*
X195835417Y-136162884D01*
X195859564Y-136120227D01*
X195878278Y-136078034D01*
X195894098Y-136033907D01*
X195909565Y-135985451D01*
X195927200Y-135930322D01*
X195927240Y-135930204D01*
X195949533Y-135866148D01*
X195949681Y-135865749D01*
X195974912Y-135801216D01*
X195981115Y-135794760D01*
X195990068Y-135794581D01*
X195990205Y-135794636D01*
G37*
%TD.AperFunction*%
%TD*%
%TA.AperFunction,Conductor*%
%TO.N,BAT_BAL_5*%
G36*
X200215604Y-178551920D02*
G01*
X200218314Y-178556162D01*
X200271275Y-178700453D01*
X200327053Y-178843151D01*
X200327064Y-178843177D01*
X200382846Y-178976616D01*
X200435612Y-179094072D01*
X200438633Y-179100797D01*
X200494412Y-179215695D01*
X200550185Y-179321313D01*
X200550191Y-179321324D01*
X200550193Y-179321327D01*
X200605976Y-179417694D01*
X200661758Y-179504793D01*
X200661766Y-179504805D01*
X200717532Y-179582613D01*
X200717540Y-179582624D01*
X200768413Y-179645152D01*
X200770976Y-179653732D01*
X200769657Y-179658048D01*
X200035320Y-181032878D01*
X200028400Y-181038561D01*
X200019488Y-181037686D01*
X200014680Y-181032878D01*
X199280342Y-179658048D01*
X199279467Y-179649136D01*
X199281584Y-179645155D01*
X199332459Y-179582624D01*
X199388241Y-179504793D01*
X199444023Y-179417694D01*
X199499806Y-179321327D01*
X199555588Y-179215691D01*
X199611370Y-179100788D01*
X199667153Y-178976616D01*
X199722935Y-178843177D01*
X199778717Y-178700469D01*
X199831685Y-178556161D01*
X199837752Y-178549576D01*
X199842668Y-178548493D01*
X200207331Y-178548493D01*
X200215604Y-178551920D01*
G37*
%TD.AperFunction*%
%TD*%
%TA.AperFunction,Conductor*%
%TO.N,+9V*%
G36*
X235411105Y-121545507D02*
G01*
X235417413Y-121551809D01*
X235565123Y-121906098D01*
X235565144Y-121915052D01*
X235565123Y-121915102D01*
X235417413Y-122269390D01*
X235411066Y-122275708D01*
X235402150Y-122275703D01*
X235371788Y-122263170D01*
X235339917Y-122250014D01*
X235299750Y-122233903D01*
X235279109Y-122225624D01*
X235227291Y-122206374D01*
X235227289Y-122206373D01*
X235227280Y-122206370D01*
X235181223Y-122191652D01*
X235159472Y-122186256D01*
X235137718Y-122180859D01*
X235093581Y-122173393D01*
X235093551Y-122173389D01*
X235045547Y-122168637D01*
X235045538Y-122168636D01*
X235045520Y-122168635D01*
X235045519Y-122168635D01*
X234990390Y-122165989D01*
X234990386Y-122165988D01*
X234990367Y-122165988D01*
X234924973Y-122164845D01*
X234857664Y-122164636D01*
X234849401Y-122161183D01*
X234846000Y-122152936D01*
X234846000Y-121668263D01*
X234849427Y-121659990D01*
X234857662Y-121656563D01*
X234918289Y-121656373D01*
X234924973Y-121656353D01*
X234953682Y-121655851D01*
X234990390Y-121655210D01*
X235045519Y-121652564D01*
X235093557Y-121647809D01*
X235093571Y-121647806D01*
X235093576Y-121647806D01*
X235100409Y-121646649D01*
X235137721Y-121640338D01*
X235181223Y-121629547D01*
X235227280Y-121614828D01*
X235279106Y-121595576D01*
X235339917Y-121571185D01*
X235402151Y-121545496D01*
X235411105Y-121545507D01*
G37*
%TD.AperFunction*%
%TD*%
%TA.AperFunction,Conductor*%
%TO.N,+5V*%
G36*
X154901707Y-106621733D02*
G01*
X154969565Y-106635231D01*
X155005829Y-106650252D01*
X155063355Y-106688689D01*
X155078600Y-106701200D01*
X155118999Y-106741599D01*
X155131510Y-106756844D01*
X155169947Y-106814370D01*
X155184968Y-106850633D01*
X155198467Y-106918492D01*
X155200400Y-106938119D01*
X155200400Y-110416280D01*
X155198467Y-110435907D01*
X155184968Y-110503766D01*
X155169947Y-110540029D01*
X155131510Y-110597555D01*
X155118999Y-110612800D01*
X154900800Y-110830999D01*
X154885555Y-110843510D01*
X154828029Y-110881947D01*
X154791767Y-110896968D01*
X154746563Y-110905960D01*
X154723906Y-110910467D01*
X154704281Y-110912400D01*
X152648519Y-110912400D01*
X152628892Y-110910467D01*
X152561033Y-110896968D01*
X152524770Y-110881947D01*
X152467244Y-110843510D01*
X152451999Y-110830999D01*
X152259200Y-110638200D01*
X152246689Y-110622955D01*
X152208252Y-110565429D01*
X152193231Y-110529165D01*
X152179733Y-110461306D01*
X152177800Y-110441680D01*
X152177800Y-107014319D01*
X152179733Y-106994693D01*
X152190986Y-106938119D01*
X152193231Y-106926832D01*
X152208250Y-106890572D01*
X152246694Y-106833037D01*
X152259195Y-106817804D01*
X152375804Y-106701195D01*
X152391037Y-106688694D01*
X152448572Y-106650250D01*
X152484832Y-106635231D01*
X152530499Y-106626147D01*
X152552693Y-106621733D01*
X152572319Y-106619800D01*
X154882081Y-106619800D01*
X154901707Y-106621733D01*
G37*
%TD.AperFunction*%
%TD*%
%TA.AperFunction,Conductor*%
%TO.N,VBAT*%
G36*
X225334534Y-96130460D02*
G01*
X225427088Y-96142646D01*
X225452455Y-96149443D01*
X225532562Y-96182624D01*
X225555305Y-96195755D01*
X225624092Y-96248537D01*
X225642662Y-96267107D01*
X225695444Y-96335894D01*
X225708575Y-96358637D01*
X225741756Y-96438744D01*
X225748553Y-96464110D01*
X225760739Y-96556664D01*
X225761600Y-96569796D01*
X225761600Y-107297203D01*
X225760739Y-107310335D01*
X225748553Y-107402889D01*
X225741756Y-107428255D01*
X225708575Y-107508362D01*
X225695444Y-107531105D01*
X225642662Y-107599892D01*
X225624092Y-107618462D01*
X225555305Y-107671244D01*
X225532562Y-107684375D01*
X225452455Y-107717556D01*
X225427089Y-107724353D01*
X225350263Y-107734468D01*
X225334533Y-107736539D01*
X225321404Y-107737400D01*
X223915796Y-107737400D01*
X223902666Y-107736539D01*
X223884310Y-107734122D01*
X223810110Y-107724353D01*
X223784744Y-107717556D01*
X223704637Y-107684375D01*
X223681894Y-107671244D01*
X223613107Y-107618462D01*
X223594537Y-107599892D01*
X223541755Y-107531105D01*
X223528624Y-107508362D01*
X223495443Y-107428255D01*
X223488646Y-107402888D01*
X223476461Y-107310334D01*
X223475600Y-107297203D01*
X223475600Y-96613156D01*
X223476461Y-96600025D01*
X223480441Y-96569796D01*
X223490123Y-96496246D01*
X223496920Y-96470882D01*
X223510232Y-96438744D01*
X223534434Y-96380313D01*
X223547559Y-96357581D01*
X223607243Y-96279799D01*
X223625799Y-96261243D01*
X223703581Y-96201559D01*
X223726313Y-96188434D01*
X223816884Y-96150919D01*
X223842248Y-96144123D01*
X223898916Y-96136662D01*
X223946027Y-96130461D01*
X223959157Y-96129600D01*
X225321404Y-96129600D01*
X225334534Y-96130460D01*
G37*
%TD.AperFunction*%
%TD*%
%TA.AperFunction,Conductor*%
%TO.N,+5V*%
G36*
X221144907Y-96080733D02*
G01*
X221212765Y-96094231D01*
X221249029Y-96109252D01*
X221306555Y-96147689D01*
X221321800Y-96160200D01*
X221743199Y-96581599D01*
X221755710Y-96596844D01*
X221794147Y-96654370D01*
X221809168Y-96690633D01*
X221822667Y-96758492D01*
X221824600Y-96778119D01*
X221824600Y-99494280D01*
X221822667Y-99513907D01*
X221809168Y-99581766D01*
X221794147Y-99618029D01*
X221755710Y-99675555D01*
X221743199Y-99690800D01*
X221372600Y-100061399D01*
X221357355Y-100073910D01*
X221299829Y-100112347D01*
X221263567Y-100127368D01*
X221218363Y-100136360D01*
X221195706Y-100140867D01*
X221176081Y-100142800D01*
X218268600Y-100142800D01*
X218194204Y-100217195D01*
X218194201Y-100217198D01*
X217911198Y-100500201D01*
X217911195Y-100500204D01*
X217836800Y-100574600D01*
X217836800Y-100679810D01*
X217836800Y-106555480D01*
X217834867Y-106575107D01*
X217821368Y-106642966D01*
X217806347Y-106679229D01*
X217767910Y-106736755D01*
X217755399Y-106752000D01*
X217537200Y-106970199D01*
X217521955Y-106982710D01*
X217464429Y-107021147D01*
X217428167Y-107036168D01*
X217382963Y-107045160D01*
X217360306Y-107049667D01*
X217340681Y-107051600D01*
X215996119Y-107051600D01*
X215976492Y-107049667D01*
X215908633Y-107036168D01*
X215872370Y-107021147D01*
X215814844Y-106982710D01*
X215799599Y-106970199D01*
X215708400Y-106879000D01*
X215695889Y-106863755D01*
X215657452Y-106806229D01*
X215642431Y-106769965D01*
X215628933Y-106702106D01*
X215627000Y-106682480D01*
X215627000Y-98073519D01*
X215628933Y-98053893D01*
X215642431Y-97986034D01*
X215657450Y-97949772D01*
X215695894Y-97892237D01*
X215708395Y-97877004D01*
X217425204Y-96160195D01*
X217440437Y-96147694D01*
X217497972Y-96109250D01*
X217534232Y-96094231D01*
X217579899Y-96085147D01*
X217602093Y-96080733D01*
X217621719Y-96078800D01*
X221125281Y-96078800D01*
X221144907Y-96080733D01*
G37*
%TD.AperFunction*%
%TD*%
%TA.AperFunction,Conductor*%
%TO.N,+9V*%
G36*
X232745171Y-96105060D02*
G01*
X232905060Y-96126111D01*
X232930426Y-96132908D01*
X233073277Y-96192078D01*
X233096022Y-96205208D01*
X233218695Y-96299339D01*
X233237260Y-96317904D01*
X233294271Y-96392203D01*
X233331391Y-96440578D01*
X233344521Y-96463322D01*
X233403691Y-96606173D01*
X233410488Y-96631538D01*
X233431539Y-96791427D01*
X233432400Y-96804559D01*
X233432400Y-105570003D01*
X233431539Y-105583135D01*
X233419353Y-105675689D01*
X233412556Y-105701055D01*
X233379375Y-105781162D01*
X233366244Y-105803905D01*
X233313462Y-105872692D01*
X233294892Y-105891262D01*
X233226105Y-105944044D01*
X233203362Y-105957175D01*
X233123255Y-105990356D01*
X233097889Y-105997153D01*
X233021063Y-106007268D01*
X233005333Y-106009339D01*
X232992204Y-106010200D01*
X231553757Y-106010200D01*
X231540626Y-106009339D01*
X231436849Y-105995676D01*
X231411482Y-105988879D01*
X231320917Y-105951366D01*
X231298176Y-105938236D01*
X231220404Y-105878560D01*
X231201839Y-105859995D01*
X231142161Y-105782221D01*
X231129033Y-105759482D01*
X231091520Y-105668917D01*
X231084723Y-105643549D01*
X231076561Y-105581550D01*
X231075700Y-105568420D01*
X231075700Y-97473413D01*
X231075700Y-97473397D01*
X231075449Y-97463166D01*
X231074965Y-97453305D01*
X231074211Y-97443079D01*
X231070684Y-97407269D01*
X231070200Y-97397409D01*
X231070200Y-96761199D01*
X231071061Y-96748068D01*
X231088131Y-96618408D01*
X231090633Y-96599398D01*
X231097430Y-96574034D01*
X231152271Y-96441634D01*
X231165398Y-96418899D01*
X231252639Y-96305204D01*
X231271204Y-96286639D01*
X231384899Y-96199398D01*
X231407634Y-96186271D01*
X231540036Y-96131429D01*
X231565398Y-96124633D01*
X231714068Y-96105060D01*
X231727199Y-96104200D01*
X232732041Y-96104200D01*
X232745171Y-96105060D01*
G37*
%TD.AperFunction*%
%TD*%
%TA.AperFunction,Conductor*%
%TO.N,-9V*%
G36*
X236967734Y-96054260D02*
G01*
X237060288Y-96066446D01*
X237085655Y-96073243D01*
X237165762Y-96106424D01*
X237188505Y-96119555D01*
X237257292Y-96172337D01*
X237275862Y-96190907D01*
X237328644Y-96259694D01*
X237341775Y-96282437D01*
X237374956Y-96362544D01*
X237381753Y-96387910D01*
X237393939Y-96480464D01*
X237394800Y-96493596D01*
X237394800Y-99482400D01*
X237901893Y-99977700D01*
X238070924Y-100142800D01*
X238100809Y-100171990D01*
X238107620Y-100179340D01*
X238260241Y-100361454D01*
X238271507Y-100377998D01*
X238382641Y-100582289D01*
X238390409Y-100600735D01*
X238458900Y-100822984D01*
X238462863Y-100842603D01*
X238486501Y-101079033D01*
X238487000Y-101089041D01*
X238487000Y-105620803D01*
X238486139Y-105633935D01*
X238473953Y-105726489D01*
X238467156Y-105751855D01*
X238433975Y-105831962D01*
X238420844Y-105854705D01*
X238368062Y-105923492D01*
X238349492Y-105942062D01*
X238280705Y-105994844D01*
X238257962Y-106007975D01*
X238177855Y-106041156D01*
X238152489Y-106047953D01*
X238075663Y-106058068D01*
X238059933Y-106060139D01*
X238046804Y-106061000D01*
X236895356Y-106061000D01*
X236885496Y-106060516D01*
X236870024Y-106058992D01*
X236731082Y-106045307D01*
X236711741Y-106041459D01*
X236568026Y-105997864D01*
X236549805Y-105990317D01*
X236417352Y-105919519D01*
X236400955Y-105908563D01*
X236284859Y-105813285D01*
X236270914Y-105799340D01*
X236175636Y-105683244D01*
X236164680Y-105666847D01*
X236093882Y-105534394D01*
X236086335Y-105516173D01*
X236042740Y-105372458D01*
X236038892Y-105353116D01*
X236023684Y-105198704D01*
X236023200Y-105188844D01*
X236023200Y-102190698D01*
X236042413Y-102131567D01*
X236043967Y-102129484D01*
X236067931Y-102098255D01*
X236128761Y-101951397D01*
X236149509Y-101793800D01*
X236149509Y-101793796D01*
X236128761Y-101636202D01*
X236067930Y-101489344D01*
X236067930Y-101489343D01*
X236034971Y-101446390D01*
X236023200Y-101416604D01*
X236023200Y-100955600D01*
X235210400Y-100142800D01*
X235049959Y-99982359D01*
X235041283Y-99972465D01*
X234963783Y-99871465D01*
X234950652Y-99848722D01*
X234904475Y-99737241D01*
X234897678Y-99711874D01*
X234891169Y-99662436D01*
X234881061Y-99585653D01*
X234880200Y-99572522D01*
X234880200Y-96667038D01*
X234881061Y-96653907D01*
X234899156Y-96516463D01*
X234905953Y-96491096D01*
X234948694Y-96387910D01*
X234956462Y-96369154D01*
X234969589Y-96346419D01*
X235049940Y-96241703D01*
X235068503Y-96223140D01*
X235173219Y-96142789D01*
X235195954Y-96129662D01*
X235317898Y-96079152D01*
X235343261Y-96072356D01*
X235480707Y-96054260D01*
X235493838Y-96053400D01*
X236954604Y-96053400D01*
X236967734Y-96054260D01*
G37*
%TD.AperFunction*%
%TD*%
%TA.AperFunction,Conductor*%
%TO.N,+3V3_O*%
G36*
X229583863Y-96180884D02*
G01*
X229816859Y-96203832D01*
X229836193Y-96207678D01*
X230055477Y-96274197D01*
X230073694Y-96281743D01*
X230275784Y-96389763D01*
X230292181Y-96400719D01*
X230473154Y-96549239D01*
X230480469Y-96555869D01*
X230491530Y-96566930D01*
X230498160Y-96574245D01*
X230646680Y-96755218D01*
X230657636Y-96771615D01*
X230765656Y-96973705D01*
X230773203Y-96991925D01*
X230839719Y-97211200D01*
X230843567Y-97230542D01*
X230866516Y-97463536D01*
X230867000Y-97473397D01*
X230867000Y-107474768D01*
X230865067Y-107494394D01*
X230847800Y-107581202D01*
X230832779Y-107617466D01*
X230789217Y-107682661D01*
X230761461Y-107710417D01*
X230696266Y-107753979D01*
X230660002Y-107769000D01*
X230573194Y-107786267D01*
X230553568Y-107788200D01*
X228698671Y-107788200D01*
X228679047Y-107786267D01*
X228645979Y-107779689D01*
X228608827Y-107772299D01*
X228572566Y-107757279D01*
X228521439Y-107723118D01*
X228493682Y-107695361D01*
X228459520Y-107644233D01*
X228444500Y-107607970D01*
X228430533Y-107537754D01*
X228428600Y-107518128D01*
X228428600Y-101278452D01*
X228428600Y-101278451D01*
X228428600Y-100752400D01*
X227635669Y-99959469D01*
X227629039Y-99952154D01*
X227480519Y-99771181D01*
X227469563Y-99754784D01*
X227361543Y-99552694D01*
X227353996Y-99534474D01*
X227287478Y-99315193D01*
X227283632Y-99295857D01*
X227260684Y-99062863D01*
X227260200Y-99053002D01*
X227260200Y-96967480D01*
X227261061Y-96954349D01*
X227285066Y-96772015D01*
X227291863Y-96746648D01*
X227359699Y-96582875D01*
X227372826Y-96560140D01*
X227480740Y-96419503D01*
X227499303Y-96400940D01*
X227639940Y-96293026D01*
X227662675Y-96279899D01*
X227826450Y-96212062D01*
X227851813Y-96205266D01*
X228034149Y-96181260D01*
X228047280Y-96180400D01*
X229574002Y-96180400D01*
X229583863Y-96180884D01*
G37*
%TD.AperFunction*%
%TD*%
M02*
